# This file uses centimeters as units for non-parametric coordinates.

v 499.359924 6.437999 1.422729
v 4.486755 0.000000 1.422729
v 486.416565 50.000000 1.422729
v 15.525330 50.000000 1.422729
v 499.359924 42.561501 501.422852
v -0.639954 50.000000 491.797974
v 499.359924 4.018929 501.422852
v -0.639954 8.992964 501.422852
v -0.639954 45.293617 1.422729
v -0.639954 50.000000 40.897461
v -0.639954 4.242525 1.422729
v -0.639954 0.000000 12.720337
v 493.735413 0.000000 501.422852
v 499.359924 0.000000 490.643311
v 467.670715 0.000000 1.422791
v 499.359924 0.000000 14.374329
v -0.639954 0.000000 487.636230
v 26.818054 0.000000 501.422852
v -0.639954 37.774639 501.422852
v 13.698181 50.000000 501.422852
v 420.549500 50.000000 1.422729
v 373.748596 50.000000 1.422729
v 399.146301 50.000000 8.229370
v 400.891296 46.026917 1.422729
v 130.690857 50.000011 501.422852
v 74.572571 50.000000 501.422852
v 103.989136 50.000000 493.385864
v 104.010864 45.205032 501.422852
v -0.639954 19.081415 1.422729
v -0.639954 35.754044 1.422729
v 6.202820 26.744366 1.422729
v -0.639954 27.866547 9.910706
v 499.359924 28.052666 501.422852
v 499.359924 10.908145 501.422852
v 499.359924 19.448067 491.823120
v 495.135803 19.987759 501.422852
v 499.359924 50.000004 477.086914
v 486.749817 50.000011 501.422852
v 499.359924 50.000000 21.146118
v 499.359924 43.495407 1.422729
vt 0.058969 0.354069
vt 0.058945 0.354079
vt 0.058978 0.354104
vt 0.058198 0.354317
vt 0.058196 0.354292
vt 0.058181 0.354289
vt 0.068008 0.707581
vt 0.240959 0.991866
vt 0.057624 0.326493
vt 0.057125 0.326462
vt 0.056914 0.327024
vt 0.057132 0.326546
vt 0.057049 0.326518
vt 0.056986 0.326515
vt 0.056911 0.326596
vt 0.058136 0.353862
vt 0.058180 0.353730
vt 0.058154 0.353771
vt 0.057065 0.326988
vt 0.056922 0.326507
vt 0.057007 0.326479
vt 0.057070 0.326573
vt 0.057071 0.326918
vt 0.057678 0.327046
vt 0.057635 0.327044
vt 0.057056 0.327078
vt 0.056930 0.327092
vt 0.057053 0.327139
vt 0.057103 0.327143
vt 0.057768 0.327095
vt 0.057876 0.327080
vt 0.057657 0.327019
vt 0.057909 0.327050
vt 0.057669 0.326919
vt 0.057657 0.326979
vt 0.057754 0.326526
vt 0.057812 0.326505
vt 0.057886 0.326535
vt 0.059059 0.354304
vt 0.058899 0.354330
vt 0.059073 0.354315
vt 0.058293 0.354101
vt 0.058419 0.354072
vt 0.058307 0.354048
vt 0.058283 0.353716
vt 0.058342 0.353655
vt 0.058272 0.353660
vt 0.058988 0.353778
vt 0.058912 0.353799
vt 0.058909 0.353773
vt 0.058744 0.353776
vt 0.058471 0.353665
vt 0.058460 0.353663
vt 0.058396 0.353655
vt 0.058553 0.353656
vt 0.058177 0.354256
vt 0.058175 0.354184
vt 0.058182 0.354199
vt 0.058165 0.354135
vt 0.058972 0.354025
vt 0.058981 0.353986
vt 0.058968 0.353959
vt 0.058981 0.353895
vt 0.057641 0.326607
vt 0.057657 0.326826
vt 0.057094 0.326999
vt 0.057072 0.327110
vt 0.057072 0.327069
vt 0.057223 0.326527
vt 0.057640 0.326898
vt 0.057666 0.326580
vt 0.057612 0.326584
vt 0.057875 0.326544
vt 0.057893 0.326571
vt 0.059432 0.354034
vt 0.059250 0.353852
vt 0.059488 0.353877
vt 0.058555 0.353587
vt 0.058488 0.353647
vt 0.058534 0.353521
vt 0.226077 0.995854
vt 0.016171 0.995854
vt 0.006699 0.972723
vt 0.006699 0.708512
vt 0.015100 0.702872
vt 0.050770 0.702872
vt 0.299681 0.717132
vt 0.299681 0.984297
vt 0.292096 0.995854
vt 0.253500 0.995854
vt 0.292292 0.702872
vt 0.083654 0.702872
vn 0.556345 -0.778597 0.290287
vn 0.556345 -0.778597 0.290287
vn 0.556345 -0.778597 0.290287
vn -0.612429 -0.740065 -0.277912
vn -0.612429 -0.740065 -0.277912
vn -0.612429 -0.740065 -0.277912
vn 0.000000 1.000000 0.000000
vn 0.000000 1.000000 0.000000
vn 0.000000 1.000000 0.000000
vn 0.000000 1.000000 0.000000
vn 0.000000 0.000000 1.000000
vn 0.000000 0.000000 1.000000
vn 0.000000 0.000000 1.000000
vn 0.000000 0.000000 1.000000
vn 0.000000 0.000000 1.000000
vn -0.277722 0.953906 -0.113730
vn -0.277722 0.953906 -0.113730
vn -0.277721 0.953906 -0.113730
vn -1.000000 -0.000000 0.000000
vn -1.000000 -0.000000 0.000000
vn -1.000000 -0.000000 0.000000
vn -1.000000 -0.000000 0.000000
vn -1.000000 -0.000000 0.000000
vn -1.000000 -0.000000 0.000000
vn 0.000000 -1.000000 0.000000
vn 0.000000 -1.000000 0.000000
vn 0.000000 -1.000000 0.000000
vn 0.000000 -1.000000 0.000000
vn 0.000000 -1.000000 0.000000
vn 1.000000 0.000002 0.000000
vn 1.000000 0.000002 0.000000
vn 1.000000 0.000002 0.000000
vn 1.000000 0.000002 0.000000
vn 1.000000 0.000002 0.000000
vn 1.000000 0.000002 0.000000
vn 0.000000 0.000000 -1.000000
vn 0.000000 0.000000 -1.000000
vn 0.000000 0.000000 -1.000000
vn 0.000000 0.000000 -1.000000
vn 0.000000 0.000000 -1.000000
vn 0.178985 -0.881010 -0.437933
vn 0.178985 -0.881010 -0.437933
vn 0.178985 -0.881010 -0.437933
vn -0.264543 -0.807724 0.526876
vn -0.264543 -0.807725 0.526876
vn -0.264543 -0.807724 0.526876
vn -0.466520 0.547146 0.694975
vn -0.466520 0.547146 0.694975
vn -0.466520 0.547146 0.694975
vn -0.168147 0.831967 -0.528732
vn -0.168148 0.831967 -0.528732
vn -0.168148 0.831967 -0.528732
vn 0.127418 0.870474 -0.475436
vn 0.127418 0.870474 -0.475436
vn 0.127418 0.870474 -0.475436
vn 0.138556 0.850655 0.507137
vn 0.138556 0.850655 0.507137
vn 0.138556 0.850655 0.507137
vn -0.152502 0.848547 0.506666
vn -0.152502 0.848547 0.506666
vn -0.152502 0.848547 0.506666
vn -0.614110 0.548381 -0.567579
vn -0.614110 0.548381 -0.567579
vn -0.614111 0.548381 -0.567579
vn -0.694222 -0.527256 -0.489955
vn -0.694222 -0.527256 -0.489955
vn -0.694222 -0.527256 -0.489955
vn 0.848880 0.394932 0.351329
vn 0.848880 0.394932 0.351329
vn 0.848880 0.394932 0.351329
vn 0.817932 -0.428409 0.383996
vn 0.817932 -0.428409 0.383996
vn 0.817932 -0.428409 0.383996
vn 1.000000 -0.000002 0.000000
vn 1.000000 -0.000002 0.000000
vn 1.000000 -0.000002 0.000000
vn 1.000000 -0.000002 0.000000
vn 1.000000 -0.000002 0.000000
vn 1.000000 -0.000002 0.000000
vn 1.000000 0.000000 0.000000
vn 1.000000 0.000000 0.000000
vn 1.000000 0.000000 0.000000
vn -0.000000 0.000000 -1.000000
vn -0.000000 0.000000 -1.000000
vn -0.000000 0.000000 -1.000000
vn -0.000000 0.000000 -1.000000
vn -0.000000 0.000000 -1.000000
vn -0.000000 0.000000 -1.000000
vn 0.000000 -0.000000 -1.000000
vn 0.000000 -0.000000 -1.000000
vn 0.000000 -0.000000 -1.000000
vn 0.000000 -0.000000 -1.000000
vn 0.000000 -0.000000 -1.000000
vn -0.000000 -0.000001 -1.000000
vn -0.000000 -0.000001 -1.000000
vn -0.000000 -0.000001 -1.000000
vn -0.000000 -0.000001 -1.000000
vn -1.000000 -0.000000 0.000000
vn -1.000000 -0.000000 0.000000
vn -1.000000 -0.000000 0.000000
vn -1.000000 -0.000000 0.000000
vn -1.000000 -0.000000 0.000000
vn -1.000000 -0.000000 0.000000
vn -1.000000 -0.000000 0.000000
vn 0.000000 0.000000 1.000000
vn 0.000000 0.000000 1.000000
vn 0.000000 0.000000 1.000000
vn 0.000000 0.000000 1.000000
vn 0.000000 0.000000 1.000000
vn -0.000000 0.000000 1.000000
vn -0.000000 0.000000 1.000000
vn -0.000000 0.000000 1.000000
vn -0.000000 0.000000 1.000000
vn 0.000000 1.000000 0.000000
vn 0.000000 1.000000 0.000000
vn 0.000000 1.000000 0.000000
vn 0.000000 1.000000 0.000000
vn 0.000000 1.000000 0.000000
vn 0.000000 1.000000 0.000000
vn 0.491334 0.832931 0.254593
vn 0.491334 0.832931 0.254593
vn 0.491334 0.832931 0.254593
vn 0.000000 0.000000 1.000000
vn 0.000000 0.000000 1.000000
vn 0.000000 0.000000 1.000000
vn 0.000000 0.000000 1.000000
vn 0.000000 0.000000 1.000000
vn 0.000000 0.000000 1.000000
vn 0.000000 1.000000 0.000000
vn 0.000000 1.000000 0.000000
vn 0.000000 1.000000 0.000000
vn 0.000000 1.000000 0.000000
vn 0.000000 1.000000 0.000000
vn -0.000000 1.000000 -0.000000
vn -0.000000 1.000000 -0.000000
vn -0.000000 1.000000 -0.000000
vn -0.000000 1.000000 -0.000000
vn -0.000000 1.000000 -0.000000
vn 0.430719 0.857080 -0.282657
vn 0.430719 0.857080 -0.282657
vn 0.430719 0.857080 -0.282657
vn 0.000000 -1.000000 0.000000
vn 0.000000 -1.000000 0.000000
vn 0.000000 -1.000000 0.000000
vn 0.000000 -1.000000 0.000000
vn 0.000000 -1.000000 0.000000
s off
f 7/1/1 13/2/2 14/3/3
f 2/4/4 12/5/5 11/6/6
f 27/7/7 23/8/8 22/81/9 4/82/10
f 8/11/11 28/12/12 26/13/13 20/14/14 19/15/15
f 9/16/16 10/17/17 4/18/18
f 32/19/19 19/15/20 6/20/21 10/21/22 9/22/23 30/23/24
f 14/24/25 13/25/26 18/26/27 15/30/28 16/31/29
f 7/32/30 14/24/31 16/31/32 1/33/33 35/34/34 34/35/35
f 1/33/36 24/36/37 21/37/38 3/38/39 40/74/40
f 16/39/41 15/40/42 1/41/43
f 17/42/44 18/43/45 8/44/46
f 19/45/47 20/46/48 6/47/49
f 21/48/50 24/49/51 23/50/52
f 23/50/53 24/49/54 22/51/55
f 28/52/56 27/53/57 26/54/58
f 25/55/59 27/53/60 28/52/61
f 29/56/62 32/57/63 31/58/64
f 31/58/65 32/57/66 30/59/67
f 34/60/68 35/61/69 36/62/70
f 36/62/71 35/61/72 33/63/73
f 35/34/74 40/74/75 39/73/76 37/71/77 5/64/78 33/65/79
f 35/34/80 1/33/81 40/74/82
f 24/36/83 31/66/84 30/23/85 9/22/86 4/10/87 22/9/88
f 31/66/89 15/30/90 2/29/91 11/67/92 29/68/93
f 1/33/94 15/30/95 31/66/96 24/36/97
f 11/67/98 12/28/99 17/27/100 8/11/101 19/15/102 32/19/103 29/68/104
f 36/70/105 18/26/106 13/25/107 7/32/108 34/35/109
f 36/70/110 28/12/111 8/11/112 18/26/113
f 27/7/114 4/82/115 10/83/116 6/84/117 20/85/118 26/86/119
f 5/75/120 37/76/121 38/77/122
f 5/64/123 38/72/124 25/69/125 28/12/126 36/70/127 33/65/128
f 37/87/129 39/88/130 3/89/131 21/90/132 23/8/133
f 38/91/134 37/87/135 23/8/136 27/7/137 25/92/138
f 39/78/139 40/79/140 3/80/141
f 15/30/142 18/26/143 17/27/144 12/28/145 2/29/146
