# This file uses centimeters as units for non-parametric coordinates.

v -23.094995 50.000000 17.925087
v -23.353209 60.000000 -6.771886
v -23.094995 50.000000 -6.771886
v -46.191963 50.000000 -6.771881
v -36.014267 60.000000 17.925089
v -46.191963 60.000000 -6.771881
v -31.232628 60.000000 17.925089
v -23.094995 57.500000 17.925087
v -24.235989 60.000000 15.245633
v -46.191963 50.000000 9.032238
v -37.636665 50.000000 17.925089
v -46.191963 58.346169 9.032238
v -37.636665 59.150017 17.925089
v -41.739971 60.000000 6.390097
v -23.094995 57.488911 -6.771886
v -46.430225 0.000000 9.567086
v -46.430225 0.000000 0.000000
v -46.430225 12.500000 9.567086
v -46.430225 12.500000 0.000000
v -32.417053 0.000000 18.775110
v -37.213432 0.000000 18.783878
v -32.417053 12.500000 18.775108
v -37.213432 12.500000 18.783878
v -23.096964 0.000000 9.386616
v -23.333237 0.000000 0.000000
v -23.096964 12.500000 9.386616
v -23.333237 12.500000 0.000000
v -46.430225 25.000000 9.567086
v -46.430225 25.000000 0.000000
v -46.430225 37.500000 9.567086
v -46.430225 37.500000 0.000000
v -32.417053 25.000000 18.775110
v -37.213432 25.000000 18.783878
v -32.417053 37.500000 18.775108
v -37.213432 37.500000 18.783878
v -23.096964 25.000000 9.386616
v -23.333237 25.000000 0.000000
v -23.096964 37.500000 9.386616
v -23.333237 37.500000 0.000000
v 0.000006 37.500000 0.000000
v 0.000006 37.500000 9.567085
v -13.529895 37.500000 23.096985
v -32.664063 37.500000 23.096985
v -46.193970 37.500000 9.567086
v -46.193970 37.500000 0.000000
v 0.000006 50.000000 0.000000
v 0.000006 50.000000 9.567085
v -46.193970 50.000000 9.567086
v -46.193970 50.000000 0.000000
v -10.147418 50.000000 19.714510
v -18.313438 50.000000 23.096985
v -13.529895 46.875000 23.096985
v -34.693550 50.000000 21.067503
v -32.664063 48.754906 23.096985
v -24.923399 50.000000 23.096985
v 0.000006 12.500000 0.000000
v 0.000006 12.500000 9.567085
v -13.529895 12.500000 23.096985
v -32.664063 12.500000 23.096985
v -46.193970 12.500000 9.567086
v -46.193970 12.500000 0.000000
v 0.000006 25.000000 0.000000
v 0.000006 25.000000 9.567085
v -13.529895 25.000000 23.096985
v -32.664063 25.000000 23.096985
v -46.193970 25.000000 9.567086
v -46.193970 25.000000 0.000000
vt 0.066707 0.162518
vt 0.066686 0.162692
vt 0.066237 0.162745
vt 0.066712 0.162869
vt 0.066715 0.162648
vt 0.066701 0.162959
vt 0.065751 0.162711
vt 0.065763 0.162465
vt 0.065758 0.162891
vt 0.065731 0.162711
vt 0.065767 0.162630
vt 0.065726 0.162872
vt 0.065740 0.162720
vt 0.065774 0.162594
vt 0.066702 0.162562
vt 0.065725 0.162745
vt 0.065753 0.162638
vt 0.065752 0.162418
vt 0.065723 0.162521
vt 0.065897 0.162642
vt 0.065895 0.162869
vt 0.066154 0.162667
vt 0.066160 0.162446
vt 0.066221 0.162557
vt 0.066003 0.162650
vt 0.065995 0.162877
vt 0.066211 0.162782
vt 0.065725 0.162745
vt 0.065753 0.162638
vt 0.065752 0.162418
vt 0.065723 0.162521
vt 0.065897 0.162642
vt 0.065895 0.162869
vt 0.066154 0.162667
vt 0.066160 0.162446
vt 0.066221 0.162557
vt 0.066003 0.162650
vt 0.065995 0.162877
vt 0.066211 0.162782
vt 0.066692 0.162696
vt 0.066696 0.162811
vt 0.066723 0.162592
vt 0.066718 0.162480
vt 0.065723 0.162736
vt 0.065741 0.162624
vt 0.065748 0.162410
vt 0.065731 0.162519
vt 0.065989 0.162926
vt 0.066405 0.162959
vt 0.066416 0.162848
vt 0.066214 0.162721
vt 0.066575 0.162665
vt 0.066108 0.162713
vt 0.065995 0.162815
vt 0.065866 0.162612
vt 0.066694 0.162674
vt 0.066697 0.162799
vt 0.066723 0.162588
vt 0.066719 0.162466
vt 0.066405 0.162959
vt 0.066426 0.162746
vt 0.065988 0.162923
vt 0.066001 0.162710
vt 0.065723 0.162717
vt 0.065730 0.162508
vt 0.065741 0.162596
vt 0.065748 0.162389
vn -0.000000 0.000000 -1.000000
vn -0.000000 0.000000 -1.000000
vn -0.000000 0.000000 -1.000000
vn -0.000000 -1.000000 0.000000
vn -0.000000 -1.000000 0.000000
vn -0.000000 -1.000000 0.000000
vn -1.000000 -0.000000 0.000000
vn -1.000000 -0.000000 0.000000
vn -1.000000 -0.000000 0.000000
vn -1.000000 -0.000000 0.000000
vn 0.233039 0.758553 0.608515
vn 0.233039 0.758553 0.608515
vn 0.233039 0.758553 0.608515
vn -0.452230 0.863191 0.224476
vn -0.452230 0.863191 0.224476
vn -0.452230 0.863191 0.224476
vn 0.000000 0.000000 1.000000
vn 0.000000 0.000000 1.000000
vn 0.000000 0.000000 1.000000
vn 0.000000 0.000000 1.000000
vn 0.000000 1.000000 0.000000
vn 0.000000 1.000000 0.000000
vn 0.000000 1.000000 0.000000
vn 1.000000 0.000000 -0.000000
vn 1.000000 0.000000 -0.000000
vn 1.000000 0.000000 -0.000000
vn 1.000000 0.000000 -0.000000
vn -0.720652 0.000000 0.693297
vn -0.720652 0.000000 0.693297
vn -0.720652 0.000000 0.693297
vn -0.720652 0.000000 0.693297
vn -0.257777 0.952546 0.161889
vn -0.257777 0.952546 0.161889
vn -0.257777 0.952546 0.161889
vn -0.000000 -1.000000 0.000000
vn -0.000000 -1.000000 0.000000
vn -0.000000 -1.000000 0.000000
vn -0.000000 -1.000000 0.000000
vn 0.000000 -0.000001 1.000000
vn 0.000000 -0.000001 1.000000
vn 0.000000 -0.000001 1.000000
vn 0.000000 -0.000001 1.000000
vn 0.000000 1.000000 0.000000
vn 0.000000 1.000000 0.000000
vn 0.000000 1.000000 0.000000
vn 0.000000 1.000000 0.000000
vn 0.000000 1.000000 0.000000
vn -0.294090 0.950587 0.099475
vn -0.294090 0.950587 0.099475
vn -0.294090 0.950587 0.099475
vn 0.960454 0.277850 0.018084
vn 0.960454 0.277850 0.018084
vn 0.960454 0.277850 0.018084
vn 0.960454 0.277850 0.018084
vn -0.000000 -0.000000 -1.000000
vn -0.000000 -0.000000 -1.000000
vn -0.000000 -0.000000 -1.000000
vn -0.000000 -0.000000 -1.000000
vn -1.000000 0.000000 0.000000
vn -1.000000 0.000000 0.000000
vn -1.000000 0.000000 0.000000
vn -1.000000 0.000000 0.000000
vn -0.707107 0.000000 0.707107
vn -0.707107 0.000000 0.707107
vn -0.707107 0.000000 0.707107
vn -0.707107 0.000000 0.707107
vn 0.000000 0.000000 -1.000000
vn 0.000000 0.000000 -1.000000
vn 0.000000 0.000000 -1.000000
vn 0.000000 0.000000 -1.000000
vn 0.000000 1.000000 0.000000
vn 0.000000 1.000000 0.000000
vn 0.000000 1.000000 0.000000
vn 0.000000 1.000000 0.000000
vn 0.000000 1.000000 0.000000
vn 0.000000 1.000000 0.000000
vn 0.709687 0.000000 0.704517
vn 0.709688 0.000000 0.704517
vn 0.709688 0.000000 0.704517
vn 0.709687 0.000000 0.704517
vn 0.001828 0.000000 0.999998
vn 0.001828 0.000000 0.999998
vn 0.001828 0.000000 0.999998
vn 0.001828 0.000000 0.999998
vn 0.000000 -1.000000 0.000000
vn 0.000000 -1.000000 0.000000
vn 0.000000 -1.000000 0.000000
vn 0.000000 -1.000000 0.000000
vn 0.000000 -1.000000 0.000000
vn 0.000000 -1.000000 0.000000
vn 0.999683 0.000000 -0.025163
vn 0.999683 0.000000 -0.025163
vn 0.999683 0.000000 -0.025163
vn 0.999683 0.000000 -0.025163
vn -1.000000 0.000000 0.000000
vn -1.000000 0.000000 0.000000
vn -1.000000 0.000000 0.000000
vn -1.000000 0.000000 0.000000
vn -0.707107 0.000000 0.707107
vn -0.707107 0.000000 0.707107
vn -0.707107 0.000000 0.707107
vn -0.707107 0.000000 0.707107
vn 0.000000 0.000000 -1.000000
vn 0.000000 0.000000 -1.000000
vn 0.000000 0.000000 -1.000000
vn 0.000000 0.000000 -1.000000
vn 0.000000 1.000000 0.000000
vn 0.000000 1.000000 0.000000
vn 0.000000 1.000000 0.000000
vn 0.000000 1.000000 0.000000
vn 0.000000 1.000000 0.000000
vn 0.000000 1.000000 0.000000
vn 0.709687 0.000000 0.704517
vn 0.709687 0.000000 0.704517
vn 0.709687 0.000000 0.704517
vn 0.709687 0.000000 0.704517
vn 0.001828 0.000000 0.999998
vn 0.001828 0.000000 0.999998
vn 0.001828 0.000000 0.999998
vn 0.001828 0.000000 0.999998
vn 0.000000 -1.000000 -0.000000
vn 0.000000 -1.000000 -0.000000
vn 0.000000 -1.000000 -0.000000
vn 0.000000 -1.000000 0.000000
vn 0.000000 -1.000000 0.000000
vn 0.000000 -1.000000 -0.000000
vn 0.999683 0.000000 -0.025163
vn 0.999683 0.000000 -0.025163
vn 0.999683 0.000000 -0.025163
vn 0.999683 0.000000 -0.025163
vn 1.000000 0.000000 0.000000
vn 1.000000 0.000000 0.000000
vn 1.000000 0.000000 0.000000
vn 1.000000 0.000000 0.000000
vn -1.000000 0.000000 0.000000
vn -1.000000 0.000000 0.000000
vn -1.000000 0.000000 0.000000
vn -1.000000 0.000000 0.000000
vn 0.000000 0.000000 -1.000000
vn 0.000000 0.000000 -1.000000
vn 0.000000 0.000000 -1.000000
vn 0.000000 0.000000 -1.000000
vn 0.000000 -1.000000 0.000000
vn 0.000000 -1.000000 0.000000
vn 0.000000 -1.000000 0.000000
vn 0.000000 -1.000000 0.000000
vn 0.000000 -1.000000 0.000000
vn 0.000000 -1.000000 0.000000
vn 0.000000 -1.000000 0.000000
vn 0.000000 -1.000000 0.000000
vn 0.000000 -1.000000 0.000000
vn 0.000000 -1.000000 0.000000
vn 0.330200 0.505450 0.797175
vn 0.330200 0.505450 0.797175
vn 0.330200 0.505450 0.797175
vn -0.126163 0.784345 0.607360
vn -0.126163 0.784345 0.607360
vn -0.126163 0.784345 0.607360
vn 0.707107 -0.000000 0.707107
vn 0.707107 -0.000000 0.707107
vn 0.707107 -0.000000 0.707107
vn 0.707107 -0.000000 0.707107
vn 0.707107 -0.000000 0.707107
vn 0.707107 -0.000000 0.707107
vn 0.707107 -0.000000 0.707107
vn 0.000000 0.000000 1.000000
vn 0.000000 0.000000 1.000000
vn 0.000000 0.000000 1.000000
vn 0.000000 0.000000 1.000000
vn 0.000000 0.000000 1.000000
vn 0.000000 0.000000 1.000000
vn 0.000000 0.000000 1.000000
vn 0.000000 0.000000 1.000000
vn -0.707107 0.000000 0.707107
vn -0.707107 0.000000 0.707107
vn -0.707107 0.000000 0.707107
vn -0.707107 0.000000 0.707107
vn -0.707107 0.000000 0.707107
vn -0.707107 0.000000 0.707107
vn -0.707107 0.000000 0.707107
vn 0.000000 1.000000 -0.000000
vn 0.000000 1.000000 -0.000000
vn 0.000000 1.000000 -0.000000
vn 0.000000 1.000000 -0.000000
vn 0.000000 1.000000 -0.000000
vn 0.000000 1.000000 -0.000000
vn 0.000000 1.000000 -0.000000
vn 0.000000 1.000000 -0.000000
vn 0.000000 1.000000 -0.000000
vn 0.000000 1.000000 -0.000000
vn 0.000000 1.000000 -0.000000
vn 0.000000 1.000000 -0.000000
vn 1.000000 0.000000 0.000000
vn 1.000000 0.000000 0.000000
vn 1.000000 0.000000 0.000000
vn 1.000000 0.000000 0.000000
vn 0.707107 0.000000 0.707107
vn 0.707107 0.000000 0.707107
vn 0.707107 0.000000 0.707107
vn 0.707107 0.000000 0.707107
vn 0.000000 0.000000 1.000000
vn 0.000000 0.000000 1.000000
vn 0.000000 0.000000 1.000000
vn 0.000000 0.000000 1.000000
vn -0.707107 0.000000 0.707107
vn -0.707107 0.000000 0.707107
vn -0.707107 0.000000 0.707107
vn -0.707107 0.000000 0.707107
vn -1.000000 0.000000 0.000000
vn -1.000000 0.000000 0.000000
vn -1.000000 0.000000 0.000000
vn -1.000000 0.000000 0.000000
vn 0.000000 0.000000 -1.000000
vn 0.000000 0.000000 -1.000000
vn 0.000000 0.000000 -1.000000
vn 0.000000 0.000000 -1.000000
vn 0.000000 -1.000000 0.000000
vn 0.000000 -1.000000 0.000000
vn 0.000000 -1.000000 0.000000
vn 0.000000 -1.000000 0.000000
vn 0.000000 -1.000000 0.000000
vn 0.000000 -1.000000 0.000000
vn 0.000000 -1.000000 0.000000
vn 0.000000 -1.000000 0.000000
vn 0.000000 -1.000000 0.000000
vn 0.000000 -1.000000 0.000000
vn 0.000000 1.000000 -0.000000
vn 0.000000 1.000000 -0.000000
vn 0.000000 1.000000 -0.000000
vn 0.000000 1.000000 -0.000000
vn 0.000000 1.000000 -0.000000
vn 0.000000 1.000000 -0.000000
vn 0.000000 1.000000 -0.000000
vn 0.000000 1.000000 -0.000000
vn 0.000000 1.000000 -0.000000
vn 0.000000 1.000000 -0.000000
s off
f 15/15/1 3/2/2 4/11/3
f 3/2/4 10/12/5 4/11/6
f 12/10/7 6/8/8 4/11/9 10/12/10
f 9/5/11 7/3/12 8/4/13
f 5/7/14 14/14/15 13/13/16
f 1/6/17 8/4/18 13/13/19 11/9/20
f 9/5/21 2/1/22 6/8/23
f 3/2/24 15/15/25 8/4/26 1/6/27
f 11/9/28 13/13/29 12/10/30 10/12/31
f 12/10/32 13/13/33 14/14/34
f 3/2/35 1/6/36 11/9/37 10/12/38
f 8/4/39 7/3/40 5/7/41 13/13/42
f 9/5/43 6/8/44 14/14/45 5/7/46 7/3/47
f 6/8/48 12/10/49 14/14/50
f 15/15/51 2/1/52 9/5/53 8/4/54
f 2/1/55 15/15/56 4/11/57 6/8/58
f 16/16/59 18/19/60 19/18/61 17/17/62
f 23/20/63 18/19/64 16/16/65 21/21/66
f 25/22/67 17/17/68 19/18/69 27/23/70
f 18/19/71 23/20/72 22/25/73 26/24/74 27/23/75 19/18/76
f 20/26/77 24/27/78 26/24/79 22/25/80
f 20/26/81 22/25/82 23/20/83 21/21/84
f 24/27/85 20/26/86 21/21/87 16/16/88 17/17/89 25/22/90
f 25/22/91 27/23/92 26/24/93 24/27/94
f 28/28/95 30/31/96 31/30/97 29/29/98
f 35/32/99 30/31/100 28/28/101 33/33/102
f 37/34/103 29/29/104 31/30/105 39/35/106
f 30/31/107 35/32/108 34/37/109 38/36/110 39/35/111 31/30/112
f 32/38/113 36/39/114 38/36/115 34/37/116
f 32/38/117 34/37/118 35/32/119 33/33/120
f 36/39/121 32/38/122 33/33/123 28/28/124 29/29/125 37/34/126
f 37/34/127 39/35/128 38/36/129 36/39/130
f 40/40/131 46/43/132 47/42/133 41/41/134
f 44/44/135 48/47/136 49/46/137 45/45/138
f 46/43/139 40/40/140 45/45/141 49/46/142
f 45/45/143 40/40/144 44/44/145
f 40/40/146 41/41/147 43/48/148 44/44/149
f 43/48/150 41/41/151 42/49/152
f 52/50/153 50/52/154 51/51/155
f 55/53/156 53/55/157 54/54/158
f 47/42/159 52/50/160 42/49/161 41/41/162
f 52/50/163 47/42/164 50/52/165
f 52/50/166 51/51/167 43/48/168 42/49/169
f 55/53/170 54/54/171 43/48/172 51/51/173
f 54/54/174 53/55/175 44/44/176 43/48/177
f 48/47/178 44/44/179 53/55/180
f 49/46/181 50/52/182 47/42/183 46/43/184
f 49/46/185 55/53/186 51/51/187 50/52/188
f 49/46/189 48/47/190 53/55/191 55/53/192
f 56/56/193 62/59/194 63/58/195 57/57/196
f 57/57/197 63/58/198 64/61/199 58/60/200
f 58/60/201 64/61/202 65/63/203 59/62/204
f 59/62/205 65/63/206 66/65/207 60/64/208
f 60/64/209 66/65/210 67/67/211 61/66/212
f 62/59/213 56/56/214 61/66/215 67/67/216
f 61/66/217 56/56/218 60/64/219
f 56/56/220 57/57/221 59/62/222 60/64/223
f 59/62/224 57/57/225 58/60/226
f 62/59/227 67/67/228 63/58/229
f 67/67/230 66/65/231 64/61/232 63/58/233
f 64/61/234 66/65/235 65/63/236
