# This file uses centimeters as units for non-parametric coordinates.

v 10.000000 280.000000 0.000000
v 10.000000 10.000000 0.000000
v 0.000000 280.000000 0.000000
v 0.000000 10.000000 0.000000
v 0.000000 280.000000 20.000000
v 0.000000 10.000000 20.000000
v 10.000000 280.000000 20.000000
v 10.000000 10.000000 20.000000
v 10.000000 198.314865 0.000000
v 0.000000 193.756836 0.000000
v 0.000000 198.040344 20.000000
v 10.000000 202.598358 20.000000
v 10.000000 54.826790 0.000000
v 0.000000 54.927734 0.000000
v 0.000000 61.631569 20.000000
v 10.000000 61.530640 20.000000
v 10.000000 123.158463 0.000000
v 1.296233 131.170990 0.000000
v 1.794514 130.489670 20.000000
v 10.000000 122.477226 20.000000
v 240.000000 280.000000 20.000000
v 240.000000 10.000000 20.000000
v 250.000000 280.000000 20.000000
v 250.000000 10.000000 20.000000
v 250.000000 280.000000 0.000000
v 250.000000 10.000000 0.000000
v 240.000000 280.000000 0.000000
v 240.000000 10.000000 0.000000
v 240.000000 189.902390 20.000000
v 248.277390 173.834366 19.300251
v 250.000000 177.576218 0.000000
v 240.000000 193.644241 0.000000
v 240.000000 92.043228 20.000000
v 248.277390 109.171051 19.300251
v 250.000000 98.054672 0.000000
v 240.000000 80.926834 0.000000
v 63.596497 280.000000 20.000000
v 63.596497 10.000000 20.000000
v 73.596497 280.000000 20.000000
v 73.596497 10.000000 20.000000
v 73.596497 280.000000 0.000000
v 73.596497 10.000000 0.000000
v 63.596497 280.000000 0.000000
v 63.596497 10.000000 0.000000
v 0.000000 280.000000 20.000000
v 250.000000 280.000000 20.000000
v 0.000000 290.000000 20.000000
v 250.000000 290.000000 20.000000
v 0.000000 290.000000 0.000000
v 250.000000 290.000000 0.000000
v 0.000000 280.000000 0.000000
v 250.000000 280.000000 0.000000
v 179.931519 280.000000 20.000000
v 179.931519 10.000000 20.000000
v 189.931519 280.000000 20.000000
v 189.931519 10.000000 20.000000
v 189.931519 280.000000 0.000000
v 189.931519 10.000000 0.000000
v 179.931519 280.000000 0.000000
v 179.931519 10.000000 0.000000
v 73.596497 228.416718 20.000000
v 179.931519 228.416718 20.000000
v 73.596497 238.416718 20.000000
v 179.931519 238.416718 20.000000
v 73.596497 238.416718 0.000000
v 179.931519 238.416718 0.000000
v 73.596497 228.416718 0.000000
v 179.931519 228.416718 0.000000
v 158.940384 230.108459 20.000000
v 160.374512 238.416718 20.000000
v 160.178345 238.416718 0.000000
v 158.744263 229.396942 0.000000
v 0.000000 0.000000 20.000000
v 250.000000 0.000000 20.000000
v 0.000000 10.000000 20.000000
v 250.000000 10.000000 20.000000
v 0.000000 10.000000 0.000000
v 250.000000 10.000000 0.000000
v 0.000000 0.000000 0.000000
v 250.000000 0.000000 0.000000
v 73.596497 48.742214 20.000000
v 179.931519 48.742214 20.000000
v 73.596497 58.742214 20.000000
v 179.931519 58.742214 20.000000
v 73.596497 58.742214 0.000000
v 179.931519 58.742214 0.000000
v 73.596497 48.742214 0.000000
v 179.931519 48.742214 0.000000
v -0.000298 0.000000 24.999998
v 249.999756 0.000000 24.999998
v -0.000298 290.000000 24.999998
v 249.999756 290.000000 24.999998
v -0.000298 290.000000 19.999998
v 249.999756 290.000000 19.999998
v -0.000298 0.000000 19.999998
v 249.999756 0.000000 19.999998
v 73.596375 228.747070 24.999998
v 179.931396 228.747070 24.999998
v 179.931396 228.747070 19.999998
v 73.596375 228.747070 19.999998
v 179.931396 58.767471 24.999998
v 73.596375 58.767471 19.999998
v 73.596375 58.767471 24.999998
v 179.931396 58.767471 19.999998
v -0.000298 0.000000 -0.000001
v 249.999756 0.000000 -0.000001
v -0.000298 290.000000 -0.000001
v 249.999756 290.000000 -0.000001
v -0.000298 290.000000 -5.000001
v 249.999756 290.000000 -5.000001
v -0.000298 0.000000 -5.000001
v 249.999756 0.000000 -5.000001
v 73.596375 228.747070 -0.000001
v 179.931396 228.747070 -0.000001
v 179.931396 228.747070 -5.000001
v 73.596375 228.747070 -5.000001
v 179.931396 58.767471 -0.000001
v 73.596375 58.767471 -5.000001
v 73.596375 58.767471 -0.000001
v 179.931396 58.767471 -5.000001
vt 0.038465 0.351812
vt 0.037475 0.351754
vt 0.037474 0.351715
vt 0.038467 0.351771
vt 0.037498 0.351698
vt 0.038474 0.351752
vt 0.037499 0.351736
vt 0.038472 0.351792
vt 0.038165 0.351794
vt 0.038150 0.351753
vt 0.038178 0.351735
vt 0.038193 0.351776
vt 0.037640 0.351764
vt 0.037639 0.351725
vt 0.037685 0.351708
vt 0.037685 0.351746
vt 0.037890 0.351778
vt 0.037920 0.351740
vt 0.037934 0.351722
vt 0.037904 0.351759
vt 0.038465 0.351812
vt 0.038134 0.351792
vt 0.038076 0.351749
vt 0.038467 0.351771
vt 0.038104 0.351731
vt 0.038474 0.351752
vt 0.038161 0.351774
vt 0.038472 0.351792
vt 0.037475 0.351754
vt 0.037499 0.351736
vt 0.037498 0.351698
vt 0.037474 0.351715
vt 0.037776 0.351772
vt 0.037839 0.351736
vt 0.037816 0.351716
vt 0.037755 0.351751
vt 0.038465 0.351812
vt 0.037475 0.351754
vt 0.037474 0.351715
vt 0.038467 0.351771
vt 0.037498 0.351698
vt 0.038474 0.351752
vt 0.037499 0.351736
vt 0.038472 0.351792
vt 0.038465 0.351812
vt 0.037475 0.351754
vt 0.037474 0.351715
vt 0.038467 0.351771
vt 0.037498 0.351698
vt 0.038474 0.351752
vt 0.037499 0.351736
vt 0.038472 0.351792
vt 0.038465 0.351812
vt 0.037475 0.351754
vt 0.037474 0.351715
vt 0.038467 0.351771
vt 0.037498 0.351698
vt 0.038474 0.351752
vt 0.037499 0.351736
vt 0.038472 0.351792
vt 0.038464 0.351812
vt 0.037670 0.351722
vt 0.037657 0.351685
vt 0.038466 0.351775
vt 0.037679 0.351649
vt 0.038474 0.351737
vt 0.037693 0.351686
vt 0.038472 0.351773
vt 0.037475 0.351699
vt 0.037499 0.351664
vt 0.037498 0.351629
vt 0.037474 0.351664
vt 0.038464 0.351812
vt 0.037475 0.351699
vt 0.037474 0.351664
vt 0.038466 0.351775
vt 0.037498 0.351629
vt 0.038474 0.351737
vt 0.037499 0.351664
vt 0.038472 0.351773
vt 0.038464 0.351812
vt 0.037475 0.351699
vt 0.037474 0.351664
vt 0.038466 0.351775
vt 0.037498 0.351629
vt 0.038474 0.351737
vt 0.037499 0.351664
vt 0.038472 0.351773
vt 0.564100 0.197151
vt 0.655260 0.197151
vt 0.715330 0.249662
vt 0.501006 0.249662
vt 0.655260 0.197151
vt 0.564100 0.197151
vt 0.501006 0.249662
vt 0.715330 0.249662
vt 0.655260 0.051428
vt 0.715330 0.001047
vt 0.564100 0.051428
vt 0.501006 0.001047
vt 0.564100 0.051428
vt 0.501006 0.001047
vt 0.715330 0.001047
vt 0.655260 0.051428
vt 0.779404 0.197151
vt 0.870915 0.197151
vt 0.931215 0.249662
vt 0.716068 0.249662
vt 0.870915 0.197151
vt 0.779404 0.197151
vt 0.716068 0.249662
vt 0.931215 0.249662
vt 0.870915 0.051428
vt 0.931215 0.001047
vt 0.779404 0.051428
vt 0.716068 0.001047
vt 0.779404 0.051428
vt 0.716068 0.001047
vt 0.931215 0.001047
vt 0.870915 0.051428
vn 0.000000 0.000000 -1.000000
vn 0.000000 0.000000 -1.000000
vn 0.000000 0.000000 -1.000000
vn 0.000000 0.000000 -1.000000
vn -1.000000 0.000000 0.000000
vn -0.999902 -0.011955 0.007347
vn -0.999946 -0.008817 0.005419
vn -1.000000 0.000000 0.000000
vn 0.000000 0.000000 1.000000
vn 0.000000 0.000000 1.000000
vn 0.000000 0.000000 1.000000
vn 0.000000 0.000000 1.000000
vn 1.000000 0.000000 0.000000
vn 1.000000 0.000000 0.000000
vn 1.000000 0.000000 0.000000
vn 1.000000 0.000000 0.000000
vn 0.000000 -1.000000 0.000000
vn 0.000000 -1.000000 0.000000
vn 0.000000 -1.000000 0.000000
vn 0.000000 -1.000000 0.000000
vn 0.000000 1.000000 0.000000
vn 0.000000 1.000000 0.000000
vn 0.000000 1.000000 0.000000
vn 0.000000 1.000000 0.000000
vn 0.000000 0.000000 -1.000000
vn 0.000000 0.000000 -1.000000
vn 0.000000 0.000000 -1.000000
vn 0.000000 0.000000 -1.000000
vn -0.999946 -0.008817 0.005419
vn -0.999902 -0.011955 0.007347
vn -0.999930 -0.000488 0.011835
vn -0.999931 0.000486 0.011719
vn 0.000000 0.000000 1.000000
vn 0.000000 0.000000 1.000000
vn -0.000000 0.000000 1.000000
vn -0.000000 0.000000 1.000000
vn 1.000000 0.000000 0.000000
vn 1.000000 0.000000 0.000000
vn 1.000000 0.000000 0.000000
vn 1.000000 0.000000 0.000000
vn 0.000000 0.000000 -1.000000
vn 0.000000 0.000000 -1.000000
vn 0.000000 0.000000 -1.000000
vn 0.000000 0.000000 -1.000000
vn -0.999870 0.014808 0.006431
vn -0.999933 0.010594 0.004600
vn -1.000000 0.000000 0.000000
vn -1.000000 0.000000 0.000000
vn -0.000000 0.000000 1.000000
vn -0.000000 0.000000 1.000000
vn 0.000000 0.000000 1.000000
vn 0.000000 0.000000 1.000000
vn 1.000000 0.000000 0.000000
vn 1.000000 0.000000 0.000000
vn 1.000000 0.000000 0.000000
vn 1.000000 0.000000 0.000000
vn 0.000000 0.000000 -1.000000
vn 0.000000 0.000000 -1.000000
vn 0.000000 0.000000 -1.000000
vn 0.000000 0.000000 -1.000000
vn -0.999931 0.000486 0.011719
vn -0.999930 -0.000488 0.011835
vn -0.999933 0.010594 0.004600
vn -0.999870 0.014808 0.006431
vn -0.000000 0.000000 1.000000
vn -0.000000 0.000000 1.000000
vn -0.000000 0.000000 1.000000
vn -0.000000 0.000000 1.000000
vn 1.000000 0.000000 0.000000
vn 1.000000 0.000000 0.000000
vn 1.000000 0.000000 0.000000
vn 1.000000 0.000000 0.000000
vn 0.034860 -0.003869 0.999385
vn 0.034860 -0.003869 0.999385
vn 0.034860 -0.003869 0.999385
vn 0.034860 -0.003869 0.999385
vn 0.999040 -0.008395 0.042991
vn 0.999040 -0.008395 0.042991
vn 0.999040 -0.008395 0.042991
vn 0.999040 -0.008395 0.042991
vn 0.000000 0.000000 -1.000000
vn 0.000000 0.000000 -1.000000
vn 0.000000 0.000000 -1.000000
vn 0.000000 0.000000 -1.000000
vn -1.000000 0.000000 0.000000
vn -1.000000 0.000000 0.000000
vn -1.000000 0.000000 0.000000
vn -1.000000 0.000000 0.000000
vn -0.000000 -1.000000 0.000000
vn -0.000000 -1.000000 0.000000
vn -0.000000 -1.000000 0.000000
vn -0.000000 -1.000000 0.000000
vn 0.000000 1.000000 0.000000
vn 0.000000 1.000000 0.000000
vn 0.000000 1.000000 0.000000
vn 0.000000 1.000000 0.000000
vn 0.084237 -0.000000 0.996446
vn 0.084237 -0.000000 0.996446
vn 0.084237 -0.000000 0.996446
vn 0.084237 -0.000000 0.996446
vn 0.996041 -0.000000 0.088900
vn 0.996041 -0.000000 0.088900
vn 0.996041 -0.000000 0.088900
vn 0.996041 -0.000000 0.088900
vn 0.000000 0.000000 -1.000000
vn 0.000000 0.000000 -1.000000
vn 0.000000 0.000000 -1.000000
vn 0.000000 0.000000 -1.000000
vn -1.000000 0.000000 0.000000
vn -1.000000 0.000000 0.000000
vn -1.000000 0.000000 0.000000
vn -1.000000 0.000000 0.000000
vn 0.034340 0.004186 0.999401
vn 0.034340 0.004186 0.999401
vn 0.034340 0.004186 0.999401
vn 0.034340 0.004186 0.999401
vn 0.999109 0.009346 0.041149
vn 0.999109 0.009346 0.041149
vn 0.999109 0.009346 0.041149
vn 0.999109 0.009346 0.041149
vn 0.000000 0.000000 -1.000000
vn 0.000000 0.000000 -1.000000
vn 0.000000 0.000000 -1.000000
vn 0.000000 0.000000 -1.000000
vn -1.000000 0.000000 0.000000
vn -1.000000 0.000000 0.000000
vn -1.000000 0.000000 0.000000
vn -1.000000 0.000000 0.000000
vn 0.000000 0.000000 1.000000
vn 0.000000 0.000000 1.000000
vn 0.000000 0.000000 1.000000
vn 0.000000 0.000000 1.000000
vn 1.000000 0.000000 0.000000
vn 1.000000 0.000000 0.000000
vn 1.000000 0.000000 0.000000
vn 1.000000 0.000000 0.000000
vn 0.000000 0.000000 -1.000000
vn 0.000000 0.000000 -1.000000
vn 0.000000 0.000000 -1.000000
vn 0.000000 0.000000 -1.000000
vn -1.000000 0.000000 0.000000
vn -1.000000 0.000000 0.000000
vn -1.000000 0.000000 0.000000
vn -1.000000 0.000000 0.000000
vn 0.000000 -1.000000 0.000000
vn 0.000000 -1.000000 0.000000
vn 0.000000 -1.000000 0.000000
vn 0.000000 -1.000000 0.000000
vn 0.000000 1.000000 0.000000
vn 0.000000 1.000000 0.000000
vn 0.000000 1.000000 0.000000
vn 0.000000 1.000000 0.000000
vn 0.000000 0.000000 1.000000
vn 0.000000 0.000000 1.000000
vn 0.000000 0.000000 1.000000
vn 0.000000 0.000000 1.000000
vn 0.000000 1.000000 0.000000
vn 0.000000 1.000000 0.000000
vn 0.000000 1.000000 0.000000
vn 0.000000 1.000000 0.000000
vn 0.000000 0.000000 -1.000000
vn 0.000000 0.000000 -1.000000
vn 0.000000 0.000000 -1.000000
vn 0.000000 0.000000 -1.000000
vn 0.000000 -1.000000 0.000000
vn 0.000000 -1.000000 0.000000
vn 0.000000 -1.000000 0.000000
vn 0.000000 -1.000000 0.000000
vn 1.000000 0.000000 0.000000
vn 1.000000 0.000000 0.000000
vn 1.000000 0.000000 0.000000
vn 1.000000 0.000000 0.000000
vn -1.000000 0.000000 0.000000
vn -1.000000 0.000000 0.000000
vn -1.000000 0.000000 0.000000
vn -1.000000 0.000000 0.000000
vn 0.000000 0.000000 1.000000
vn 0.000000 0.000000 1.000000
vn 0.000000 0.000000 1.000000
vn 0.000000 0.000000 1.000000
vn 1.000000 0.000000 0.000000
vn 1.000000 0.000000 0.000000
vn 1.000000 0.000000 0.000000
vn 1.000000 0.000000 0.000000
vn 0.000000 0.000000 -1.000000
vn 0.000000 0.000000 -1.000000
vn 0.000000 0.000000 -1.000000
vn 0.000000 0.000000 -1.000000
vn -1.000000 0.000000 0.000000
vn -1.000000 0.000000 0.000000
vn -1.000000 0.000000 0.000000
vn -1.000000 0.000000 0.000000
vn 0.000000 -1.000000 0.000000
vn 0.000000 -1.000000 0.000000
vn 0.000000 -1.000000 0.000000
vn 0.000000 -1.000000 0.000000
vn 0.000000 1.000000 0.000000
vn 0.000000 1.000000 0.000000
vn 0.000000 1.000000 0.000000
vn 0.000000 1.000000 0.000000
vn 0.000000 0.000000 1.000000
vn 0.000000 0.000000 1.000000
vn 0.000000 0.000000 1.000000
vn 0.000000 0.000000 1.000000
vn 0.000000 1.000000 0.000000
vn 0.000000 1.000000 0.000000
vn 0.000000 1.000000 0.000000
vn 0.000000 1.000000 0.000000
vn 0.000000 0.000000 -1.000000
vn 0.000000 0.000000 -1.000000
vn 0.000000 0.000000 -1.000000
vn 0.000000 0.000000 -1.000000
vn 0.015668 -0.999720 0.017707
vn 0.000146 -0.999842 0.017785
vn -0.000140 -0.999842 0.017786
vn 0.015668 -0.999720 0.017707
vn 1.000000 0.000000 0.000000
vn 1.000000 0.000000 0.000000
vn 1.000000 0.000000 0.000000
vn 1.000000 0.000000 0.000000
vn -1.000000 0.000000 0.000000
vn -1.000000 0.000000 0.000000
vn -1.000000 0.000000 0.000000
vn -1.000000 0.000000 0.000000
vn 0.000000 0.000000 1.000000
vn 0.000000 0.000000 1.000000
vn 0.000000 0.000000 1.000000
vn 0.000000 0.000000 1.000000
vn 0.000000 1.000000 0.000000
vn 0.000000 1.000000 0.000000
vn 0.000000 1.000000 0.000000
vn 0.000000 1.000000 0.000000
vn 0.000000 0.000000 -1.000000
vn 0.000000 0.000000 -1.000000
vn 0.000000 0.000000 -1.000000
vn 0.000000 0.000000 -1.000000
vn -0.000140 -0.999842 0.017786
vn 0.000146 -0.999842 0.017785
vn -0.063212 -0.997837 0.018060
vn -0.063212 -0.997837 0.018060
vn 0.000000 0.000000 1.000000
vn 0.000000 0.000000 1.000000
vn 0.000000 0.000000 1.000000
vn 0.000000 0.000000 1.000000
vn 0.000000 1.000000 0.000000
vn 0.000000 1.000000 0.000000
vn 0.000000 1.000000 0.000000
vn 0.000000 1.000000 0.000000
vn 0.000000 0.000000 -1.000000
vn 0.000000 0.000000 -1.000000
vn 0.000000 0.000000 -1.000000
vn 0.000000 0.000000 -1.000000
vn 0.000000 -1.000000 0.000000
vn 0.000000 -1.000000 0.000000
vn 0.000000 -1.000000 0.000000
vn 0.000000 -1.000000 0.000000
vn 1.000000 0.000000 0.000000
vn 1.000000 0.000000 0.000000
vn 1.000000 0.000000 0.000000
vn 1.000000 0.000000 0.000000
vn -1.000000 0.000000 0.000000
vn -1.000000 0.000000 0.000000
vn -1.000000 0.000000 0.000000
vn -1.000000 0.000000 0.000000
vn 0.000000 0.000000 1.000000
vn 0.000000 0.000000 1.000000
vn 0.000000 0.000000 1.000000
vn 0.000000 0.000000 1.000000
vn 0.000000 1.000000 0.000000
vn 0.000000 1.000000 0.000000
vn 0.000000 1.000000 0.000000
vn 0.000000 1.000000 0.000000
vn 0.000000 0.000000 -1.000000
vn 0.000000 0.000000 -1.000000
vn 0.000000 0.000000 -1.000000
vn 0.000000 0.000000 -1.000000
vn 0.000000 -1.000000 0.000000
vn 0.000000 -1.000000 0.000000
vn 0.000000 -1.000000 0.000000
vn 0.000000 -1.000000 0.000000
vn 1.000000 0.000000 0.000000
vn 1.000000 0.000000 0.000000
vn 1.000000 0.000000 0.000000
vn 1.000000 0.000000 0.000000
vn -1.000000 0.000000 0.000000
vn -1.000000 0.000000 0.000000
vn -1.000000 0.000000 0.000000
vn -1.000000 0.000000 0.000000
vn 0.000000 0.000000 1.000000
vn 0.000000 0.000000 1.000000
vn 0.000000 0.000000 1.000000
vn 0.000000 0.000000 1.000000
vn 0.000000 0.000000 -1.000000
vn -0.000000 0.000000 -1.000000
vn -0.000000 0.000000 -1.000000
vn 0.000000 0.000000 -1.000000
vn 0.000000 1.000000 0.000000
vn 0.000000 1.000000 0.000000
vn 0.000000 1.000000 0.000000
vn 0.000000 1.000000 0.000000
vn 0.000000 0.000000 1.000000
vn 0.000000 0.000000 1.000000
vn 0.000000 0.000000 1.000000
vn 0.000000 0.000000 1.000000
vn -0.000000 0.000000 -1.000000
vn -0.000000 0.000000 -1.000000
vn -0.000000 0.000000 -1.000000
vn -0.000000 0.000000 -1.000000
vn 0.000000 -1.000000 0.000000
vn 0.000000 -1.000000 0.000000
vn 0.000000 -1.000000 0.000000
vn 0.000000 -1.000000 0.000000
vn 1.000000 0.000000 0.000000
vn 1.000000 0.000000 0.000000
vn 1.000000 0.000000 0.000000
vn 1.000000 0.000000 0.000000
vn 0.000000 0.000000 1.000000
vn 0.000000 0.000000 1.000000
vn 0.000000 0.000000 1.000000
vn 0.000000 0.000000 1.000000
vn 1.000000 0.000000 0.000000
vn 1.000000 0.000000 0.000000
vn 1.000000 0.000000 0.000000
vn 1.000000 0.000000 0.000000
vn 0.000000 0.000000 -1.000000
vn 0.000000 0.000000 -1.000000
vn 0.000000 0.000000 -1.000000
vn 0.000000 0.000000 -1.000000
vn -1.000000 0.000000 0.000000
vn -1.000000 0.000000 0.000000
vn -1.000000 0.000000 0.000000
vn -1.000000 0.000000 0.000000
vn -1.000000 0.000000 0.000000
vn -1.000000 0.000000 0.000000
vn -1.000000 0.000000 0.000000
vn -1.000000 0.000000 0.000000
vn 0.000000 1.000000 0.000000
vn 0.000000 1.000000 0.000000
vn 0.000000 1.000000 0.000000
vn 0.000000 1.000000 0.000000
vn 0.000000 0.000000 -1.000000
vn 0.000000 0.000000 -1.000000
vn -0.000000 0.000000 -1.000000
vn -0.000000 0.000000 -1.000000
vn 0.000000 -1.000000 0.000000
vn 0.000000 -1.000000 0.000000
vn 0.000000 -1.000000 0.000000
vn 0.000000 -1.000000 0.000000
vn 0.000000 0.000000 1.000000
vn 0.000000 0.000000 1.000000
vn 0.000000 0.000000 1.000000
vn 0.000000 0.000000 1.000000
vn 0.000000 0.000000 1.000000
vn 0.000000 0.000000 1.000000
vn 0.000000 0.000000 1.000000
vn 0.000000 0.000000 1.000000
vn 0.000000 0.000000 -1.000000
vn 0.000000 0.000000 -1.000000
vn 0.000000 0.000000 -1.000000
vn 0.000000 0.000000 -1.000000
vn 0.000000 1.000000 0.000000
vn 0.000000 1.000000 0.000000
vn 0.000000 1.000000 0.000000
vn 0.000000 1.000000 0.000000
vn 0.000000 0.000000 1.000000
vn 0.000000 0.000000 1.000000
vn 0.000000 0.000000 1.000000
vn 0.000000 0.000000 1.000000
vn 0.000000 0.000000 -1.000000
vn 0.000000 0.000000 -1.000000
vn 0.000000 0.000000 -1.000000
vn 0.000000 0.000000 -1.000000
vn 0.000000 -1.000000 0.000000
vn 0.000000 -1.000000 0.000000
vn 0.000000 -1.000000 0.000000
vn 0.000000 -1.000000 0.000000
vn 1.000000 0.000000 0.000000
vn 1.000000 0.000000 0.000000
vn 1.000000 0.000000 0.000000
vn 1.000000 0.000000 0.000000
vn 0.000000 0.000000 1.000000
vn 0.000000 0.000000 1.000000
vn 0.000000 0.000000 1.000000
vn 0.000000 0.000000 1.000000
vn 1.000000 0.000000 0.000000
vn 1.000000 0.000000 0.000000
vn 1.000000 0.000000 0.000000
vn 1.000000 0.000000 0.000000
vn 0.000000 0.000000 -1.000000
vn 0.000000 0.000000 -1.000000
vn 0.000000 0.000000 -1.000000
vn 0.000000 0.000000 -1.000000
vn -1.000000 0.000000 0.000000
vn -1.000000 0.000000 0.000000
vn -1.000000 0.000000 0.000000
vn -1.000000 0.000000 0.000000
vn -1.000000 0.000000 0.000000
vn -1.000000 0.000000 0.000000
vn -1.000000 0.000000 0.000000
vn -1.000000 0.000000 0.000000
vn 0.000000 1.000000 0.000000
vn 0.000000 1.000000 0.000000
vn 0.000000 1.000000 0.000000
vn 0.000000 1.000000 0.000000
vn 0.000000 0.000000 -1.000000
vn 0.000000 0.000000 -1.000000
vn 0.000000 0.000000 -1.000000
vn 0.000000 0.000000 -1.000000
vn 0.000000 -1.000000 0.000000
vn 0.000000 -1.000000 0.000000
vn 0.000000 -1.000000 0.000000
vn 0.000000 -1.000000 0.000000
vn 0.000000 0.000000 1.000000
vn 0.000000 0.000000 1.000000
vn 0.000000 0.000000 1.000000
vn 0.000000 0.000000 1.000000
s off
f 1/1/1 9/9/2 10/10/3 3/4/4
f 3/4/5 10/10/6 11/11/7 5/6/8
f 5/6/9 11/11/10 12/12/11 7/8/12
f 7/8/13 12/12/14 9/9/15 1/1/16
f 2/2/17 8/7/18 6/5/19 4/3/20
f 7/8/21 1/1/22 3/4/23 5/6/24
f 10/10/25 9/9/26 17/17/27 18/18/28
f 11/11/29 10/10/30 18/18/31 19/19/32
f 12/12/33 11/11/34 19/19/35 20/20/36
f 9/9/37 12/12/38 20/20/39 17/17/40
f 14/14/41 13/13/42 2/2/43 4/3/44
f 15/15/45 14/14/46 4/3/47 6/5/48
f 16/16/49 15/15/50 6/5/51 8/7/52
f 13/13/53 16/16/54 8/7/55 2/2/56
f 18/18/57 17/17/58 13/13/59 14/14/60
f 19/19/61 18/18/62 14/14/63 15/15/64
f 20/20/65 19/19/66 15/15/67 16/16/68
f 17/17/69 20/20/70 16/16/71 13/13/72
f 21/21/73 29/22/74 30/23/75 23/24/76
f 23/24/77 30/23/78 31/25/79 25/26/80
f 25/26/81 31/25/82 32/27/83 27/28/84
f 27/28/85 32/27/86 29/22/87 21/21/88
f 22/29/89 28/30/90 26/31/91 24/32/92
f 27/28/93 21/21/94 23/24/95 25/26/96
f 30/23/97 29/22/98 33/33/99 34/34/100
f 31/25/101 30/23/102 34/34/103 35/35/104
f 32/27/105 31/25/106 35/35/107 36/36/108
f 29/22/109 32/27/110 36/36/111 33/33/112
f 34/34/113 33/33/114 22/29/115 24/32/116
f 35/35/117 34/34/118 24/32/119 26/31/120
f 36/36/121 35/35/122 26/31/123 28/30/124
f 33/33/125 36/36/126 28/30/127 22/29/128
f 37/37/129 38/38/130 40/39/131 39/40/132
f 39/40/133 40/39/134 42/41/135 41/42/136
f 41/42/137 42/41/138 44/43/139 43/44/140
f 43/44/141 44/43/142 38/38/143 37/37/144
f 38/38/145 44/43/146 42/41/147 40/39/148
f 43/44/149 37/37/150 39/40/151 41/42/152
f 45/45/153 46/46/154 48/47/155 47/48/156
f 47/48/157 48/47/158 50/49/159 49/50/160
f 49/50/161 50/49/162 52/51/163 51/52/164
f 51/52/165 52/51/166 46/46/167 45/45/168
f 46/46/169 52/51/170 50/49/171 48/47/172
f 51/52/173 45/45/174 47/48/175 49/50/176
f 53/53/177 54/54/178 56/55/179 55/56/180
f 55/56/181 56/55/182 58/57/183 57/58/184
f 57/58/185 58/57/186 60/59/187 59/60/188
f 59/60/189 60/59/190 54/54/191 53/53/192
f 54/54/193 60/59/194 58/57/195 56/55/196
f 59/60/197 53/53/198 55/56/199 57/58/200
f 61/61/201 69/62/202 70/63/203 63/64/204
f 63/64/205 70/63/206 71/65/207 65/66/208
f 65/66/209 71/65/210 72/67/211 67/68/212
f 67/68/213 72/67/214 69/62/215 61/61/216
f 62/69/217 68/70/218 66/71/219 64/72/220
f 67/68/221 61/61/222 63/64/223 65/66/224
f 70/63/225 69/62/226 62/69/227 64/72/228
f 71/65/229 70/63/230 64/72/231 66/71/232
f 72/67/233 71/65/234 66/71/235 68/70/236
f 69/62/237 72/67/238 68/70/239 62/69/240
f 73/73/241 74/74/242 76/75/243 75/76/244
f 75/76/245 76/75/246 78/77/247 77/78/248
f 77/78/249 78/77/250 80/79/251 79/80/252
f 79/80/253 80/79/254 74/74/255 73/73/256
f 74/74/257 80/79/258 78/77/259 76/75/260
f 79/80/261 73/73/262 75/76/263 77/78/264
f 81/81/265 82/82/266 84/83/267 83/84/268
f 83/84/269 84/83/270 86/85/271 85/86/272
f 85/86/273 86/85/274 88/87/275 87/88/276
f 87/88/277 88/87/278 82/82/279 81/81/280
f 82/82/281 88/87/282 86/85/283 84/83/284
f 87/88/285 81/81/286 83/84/287 85/86/288
f 97/89/289 98/90/290 92/91/291 91/92/292
f 99/93/293 100/94/294 93/95/295 94/96/296
f 94/96/297 93/95/298 91/92/299 92/91/300
f 92/91/301 98/90/302 101/97/303 90/98/304
f 93/95/305 100/94/306 102/99/307 95/100/308
f 98/90/309 97/89/310 100/94/311 99/93/312
f 97/89/313 103/101/314 102/99/315 100/94/316
f 89/102/317 103/101/318 97/89/319 91/92/320
f 90/98/321 96/103/322 94/96/323 92/91/324
f 96/103/325 104/104/326 99/93/327 94/96/328
f 95/100/329 89/102/330 91/92/331 93/95/332
f 104/104/333 101/97/334 98/90/335 99/93/336
f 101/97/337 104/104/338 102/99/339 103/101/340
f 104/104/341 96/103/342 95/100/343 102/99/344
f 96/103/345 90/98/346 89/102/347 95/100/348
f 90/98/349 101/97/350 103/101/351 89/102/352
f 113/105/353 114/106/354 108/107/355 107/108/356
f 115/109/357 116/110/358 109/111/359 110/112/360
f 110/112/361 109/111/362 107/108/363 108/107/364
f 108/107/365 114/106/366 117/113/367 106/114/368
f 109/111/369 116/110/370 118/115/371 111/116/372
f 114/106/373 113/105/374 116/110/375 115/109/376
f 113/105/377 119/117/378 118/115/379 116/110/380
f 105/118/381 119/117/382 113/105/383 107/108/384
f 106/114/385 112/119/386 110/112/387 108/107/388
f 112/119/389 120/120/390 115/109/391 110/112/392
f 111/116/393 105/118/394 107/108/395 109/111/396
f 120/120/397 117/113/398 114/106/399 115/109/400
f 117/113/401 120/120/402 118/115/403 119/117/404
f 120/120/405 112/119/406 111/116/407 118/115/408
f 112/119/409 106/114/410 105/118/411 111/116/412
f 106/114/413 117/113/414 119/117/415 105/118/416
