# This file uses centimeters as units for non-parametric coordinates.

v -0.639893 0.000000 13.546814
v -245.513245 0.000000 26.422791
v -13.583252 0.000000 -23.577209
v -234.474670 0.000000 -23.577209
v -0.639893 300.000061 -17.039856
v -250.639954 290.375122 -23.577209
v -0.639893 300.000061 18.384949
v -250.639954 300.000061 8.436890
v -250.639954 0.000000 -19.440918
v -250.639954 39.474731 -23.577209
v -250.639954 0.000000 17.937744
v -250.639954 11.297607 26.422791
v -6.264526 300.000061 26.422791
v -0.639893 289.220459 26.422791
v -32.329163 0.000061 26.422791
v -0.639893 12.951599 26.422791
v -250.639954 286.213379 26.422791
v -223.181946 300.000061 26.422791
v -250.639954 300.000061 -12.832825
v -236.301819 300.000061 -23.577209
v -51.311340 0.000000 -23.577209
v -98.112244 0.000000 -23.577209
v -72.714600 6.806641 -23.577209
v -70.969543 0.000000 -20.085449
v -156.207336 300.000061 -23.577209
v -212.325623 300.000061 -23.577209
v -182.909058 291.963013 -23.577209
v -182.887329 300.000061 -19.363098
v -250.639954 0.000000 3.595886
v -250.639954 0.000000 -11.057007
v -243.797180 0.000000 -3.138672
v -250.639954 8.487976 -4.125000
v -0.639893 300.000061 -2.495300
v -0.639893 300.000061 17.310852
v -0.639893 290.400208 7.445129
v -4.864075 300.000061 6.821655
v -0.639893 275.664063 -23.577209
v -13.250122 300.000061 -23.577209
v -0.639893 19.723387 -23.577209
v -0.639893 0.000000 -17.860535
vt 0.058969 0.354069
vt 0.058945 0.354079
vt 0.058978 0.354104
vt 0.058198 0.354317
vt 0.058196 0.354292
vt 0.058181 0.354289
vt 0.092996 0.986300
vt 0.221027 0.710207
vt 0.057624 0.326493
vt 0.057125 0.326462
vt 0.056914 0.327024
vt 0.057132 0.326546
vt 0.057049 0.326518
vt 0.056986 0.326515
vt 0.056911 0.326596
vt 0.058136 0.353862
vt 0.058180 0.353730
vt 0.058154 0.353771
vt 0.057065 0.326988
vt 0.056922 0.326507
vt 0.057007 0.326479
vt 0.057070 0.326573
vt 0.057071 0.326918
vt 0.057678 0.327046
vt 0.057635 0.327044
vt 0.057056 0.327078
vt 0.056930 0.327092
vt 0.057053 0.327139
vt 0.057103 0.327143
vt 0.057768 0.327095
vt 0.057876 0.327080
vt 0.057657 0.327019
vt 0.057909 0.327050
vt 0.057669 0.326919
vt 0.057657 0.326979
vt 0.057754 0.326526
vt 0.057812 0.326505
vt 0.057886 0.326535
vt 0.059059 0.354304
vt 0.058899 0.354330
vt 0.059073 0.354315
vt 0.058293 0.354101
vt 0.058419 0.354072
vt 0.058307 0.354048
vt 0.058283 0.353716
vt 0.058342 0.353655
vt 0.058272 0.353660
vt 0.058988 0.353778
vt 0.058912 0.353799
vt 0.058909 0.353773
vt 0.058744 0.353776
vt 0.058471 0.353665
vt 0.058460 0.353663
vt 0.058396 0.353655
vt 0.058553 0.353656
vt 0.058177 0.354256
vt 0.058175 0.354184
vt 0.058182 0.354199
vt 0.058165 0.354135
vt 0.058972 0.354025
vt 0.058981 0.353986
vt 0.058968 0.353959
vt 0.058981 0.353895
vt 0.057641 0.326607
vt 0.057657 0.326826
vt 0.057094 0.326999
vt 0.057072 0.327110
vt 0.057072 0.327069
vt 0.057223 0.326527
vt 0.057640 0.326898
vt 0.057666 0.326580
vt 0.057612 0.326584
vt 0.057875 0.326544
vt 0.057893 0.326571
vt 0.059432 0.354034
vt 0.059250 0.353852
vt 0.059488 0.353877
vt 0.058555 0.353587
vt 0.058488 0.353647
vt 0.058534 0.353521
vt 0.191518 0.703616
vt 0.033084 0.703616
vt 0.304768 0.983645
vt 0.298233 0.994082
vt 0.046204 0.994082
vt 0.267949 0.703616
vt 0.304768 0.716156
vt 0.014302 0.741837
vt 0.014302 0.984763
vt 0.030961 0.994082
vt 0.058818 0.994082
vt 0.304768 0.970520
vt 0.304768 0.722713
vt 0.289729 0.703616
vt 0.245895 0.703616
vt 0.290116 0.994082
vt 0.124020 0.994082
vt 0.014302 0.980734
vt 0.014302 0.714555
vt 0.020259 0.703616
vn 0.753364 0.393094 0.527181
vn 0.753364 0.393094 0.527181
vn 0.753364 0.393094 0.527181
vn -0.797836 -0.362049 0.482057
vn -0.797836 -0.362049 0.482057
vn -0.797836 -0.362049 0.482057
vn 0.000000 0.000000 -1.000000
vn 0.000000 0.000000 -1.000000
vn 0.000000 0.000000 -1.000000
vn 0.000000 0.000000 -1.000000
vn 0.000000 1.000000 0.000001
vn 0.000000 1.000000 0.000001
vn 0.000000 1.000000 0.000001
vn 0.000000 1.000000 0.000001
vn 0.000000 1.000000 0.000001
vn -0.246621 -0.100994 -0.963835
vn -0.246621 -0.100994 -0.963835
vn -0.246621 -0.100994 -0.963835
vn -1.000000 -0.000000 0.000000
vn -1.000000 -0.000000 0.000000
vn -1.000000 -0.000000 0.000000
vn -1.000000 -0.000000 0.000000
vn -1.000000 -0.000000 0.000000
vn -1.000000 -0.000000 0.000000
vn -0.000000 0.000000 1.000000
vn -0.000000 0.000000 1.000000
vn 0.000000 0.000000 1.000000
vn -0.000000 0.000000 1.000000
vn -0.000000 0.000000 1.000000
vn 1.000000 0.000000 0.000000
vn 1.000000 0.000000 0.000000
vn 1.000000 0.000000 0.000000
vn 1.000000 0.000000 0.000000
vn 1.000000 0.000000 0.000000
vn 1.000000 0.000000 0.000000
vn 0.000000 -1.000000 0.000000
vn 0.000000 -1.000000 0.000000
vn 0.000000 -1.000000 0.000000
vn 0.000000 -1.000000 0.000000
vn 0.000000 -1.000000 0.000000
vn 0.276884 -0.677469 0.681448
vn 0.276884 -0.677469 0.681448
vn 0.276884 -0.677469 0.681448
vn -0.370186 0.737276 0.565143
vn -0.370186 0.737276 0.565143
vn -0.370186 0.737276 0.565143
vn -0.447213 0.666209 -0.596797
vn -0.447213 0.666209 -0.596797
vn -0.447213 0.666208 -0.596797
vn -0.153243 -0.481867 -0.862740
vn -0.153243 -0.481867 -0.862740
vn -0.153243 -0.481867 -0.862740
vn 0.115203 -0.429859 -0.895517
vn 0.115203 -0.429859 -0.895517
vn 0.115203 -0.429859 -0.895517
vn 0.125792 0.460416 -0.878745
vn 0.125793 0.460416 -0.878745
vn 0.125792 0.460416 -0.878745
vn -0.138514 0.460190 -0.876949
vn -0.138514 0.460190 -0.876949
vn -0.138514 0.460190 -0.876949
vn -0.588580 -0.543990 -0.598037
vn -0.588580 -0.543990 -0.598037
vn -0.588580 -0.543990 -0.598037
vn -0.667427 -0.471039 0.576770
vn -0.667427 -0.471039 0.576770
vn -0.667428 -0.471039 0.576770
vn 0.865981 0.358404 -0.348745
vn 0.865981 0.358404 -0.348745
vn 0.865981 0.358404 -0.348746
vn 0.837425 0.393147 0.379677
vn 0.837425 0.393147 0.379677
vn 0.837425 0.393147 0.379677
vn 1.000000 0.000000 0.000000
vn 1.000000 0.000000 0.000000
vn 1.000000 0.000000 0.000000
vn 1.000000 0.000000 0.000000
vn 1.000000 0.000000 0.000000
vn 1.000000 0.000000 0.000000
vn 1.000000 0.000000 0.000000
vn 1.000000 0.000000 0.000000
vn 1.000000 0.000000 0.000000
vn 0.000000 -1.000000 0.000000
vn 0.000000 -1.000000 0.000000
vn 0.000000 -1.000000 0.000000
vn 0.000000 -1.000000 0.000000
vn 0.000000 -1.000000 0.000000
vn 0.000000 -1.000000 0.000000
vn 0.000000 -1.000000 0.000000
vn 0.000000 -1.000000 0.000000
vn 0.000000 -1.000000 0.000000
vn 0.000000 -1.000000 0.000000
vn 0.000000 -1.000000 0.000000
vn -0.000000 -1.000000 0.000001
vn -0.000000 -1.000000 0.000001
vn -0.000000 -1.000000 0.000001
vn -0.000000 -1.000000 0.000001
vn -1.000000 0.000000 0.000000
vn -1.000000 0.000000 0.000000
vn -1.000000 0.000000 0.000000
vn -1.000000 0.000000 0.000000
vn -1.000000 0.000000 0.000000
vn -1.000000 0.000000 0.000000
vn -1.000000 0.000000 0.000000
vn 0.000000 1.000000 0.000001
vn 0.000000 1.000000 0.000001
vn 0.000000 1.000000 0.000001
vn 0.000000 1.000000 0.000001
vn 0.000000 1.000000 0.000001
vn 0.000000 1.000000 0.000000
vn 0.000000 1.000000 0.000000
vn 0.000000 1.000000 0.000000
vn 0.000000 1.000000 0.000000
vn 0.000000 0.000000 -1.000000
vn 0.000000 0.000000 -1.000000
vn 0.000000 0.000000 -1.000000
vn 0.000000 0.000000 -1.000000
vn 0.000000 0.000000 -1.000000
vn 0.000000 0.000000 -1.000000
vn 0.447691 0.231981 -0.863573
vn 0.447691 0.231981 -0.863573
vn 0.447691 0.231981 -0.863573
vn 0.000000 1.000000 -0.000000
vn 0.000000 1.000000 -0.000000
vn 0.000000 1.000000 -0.000000
vn 0.000000 1.000000 -0.000000
vn 0.000000 1.000000 -0.000000
vn 0.000000 1.000000 -0.000000
vn 0.000000 0.000000 -1.000000
vn 0.000000 0.000000 -1.000000
vn 0.000000 0.000000 -1.000000
vn 0.000000 0.000000 -1.000000
vn 0.000000 0.000000 -1.000000
vn -0.000000 0.000000 -1.000000
vn -0.000000 0.000000 -1.000000
vn -0.000000 0.000000 -1.000000
vn -0.000000 0.000000 -1.000000
vn -0.000000 0.000000 -1.000000
vn 0.390524 -0.256279 -0.884201
vn 0.390524 -0.256279 -0.884201
vn 0.390524 -0.256279 -0.884201
vn -0.000000 0.000000 1.000000
vn 0.000000 0.000000 1.000000
vn 0.000000 0.000000 1.000000
vn 0.000000 0.000000 1.000000
vn 0.000000 0.000000 1.000000
s off
f 7/1/1 13/2/2 14/3/3
f 2/4/4 12/5/5 11/6/6
f 27/7/7 23/8/8 22/81/9 4/82/10
f 8/11/11 28/12/12 26/13/13 20/14/14 19/15/15
f 9/16/16 10/17/17 4/18/18
f 32/19/19 19/15/20 6/20/21 10/21/22 9/22/23 30/23/24
f 14/83/25 13/84/26 18/85/27 15/86/28 16/87/29
f 7/32/30 14/24/31 16/31/32 1/33/33 35/34/34 34/35/35
f 1/33/36 24/36/37 21/37/38 3/38/39 40/74/40
f 16/39/41 15/40/42 1/41/43
f 17/42/44 18/43/45 8/44/46
f 19/45/47 20/46/48 6/47/49
f 21/48/50 24/49/51 23/50/52
f 23/50/53 24/49/54 22/51/55
f 28/52/56 27/53/57 26/54/58
f 25/55/59 27/53/60 28/52/61
f 29/56/62 32/57/63 31/58/64
f 31/58/65 32/57/66 30/59/67
f 34/60/68 35/61/69 36/62/70
f 36/62/71 35/61/72 33/63/73
f 35/34/74 40/74/75 39/73/76 37/71/77 5/64/78 33/65/79
f 35/34/80 1/33/81 40/74/82
f 24/36/83 31/66/84 30/23/85 9/22/86 4/10/87 22/9/88
f 31/66/89 15/30/90 2/29/91 11/67/92 29/68/93
f 1/33/94 15/30/95 31/66/96 24/36/97
f 11/67/98 12/28/99 17/27/100 8/11/101 19/15/102 32/19/103 29/68/104
f 36/70/105 18/26/106 13/25/107 7/32/108 34/35/109
f 36/70/110 28/12/111 8/11/112 18/26/113
f 27/7/114 4/82/115 10/88/116 6/89/117 20/90/118 26/91/119
f 5/75/120 37/76/121 38/77/122
f 5/64/123 38/72/124 25/69/125 28/12/126 36/70/127 33/65/128
f 37/92/129 39/93/130 3/94/131 21/95/132 23/8/133
f 38/96/134 37/92/135 23/8/136 27/7/137 25/97/138
f 39/78/139 40/79/140 3/80/141
f 15/86/142 18/85/143 17/98/144 12/99/145 2/100/146
