# This file uses centimeters as units for non-parametric coordinates.

v 0.000000 0.598219 5.000000
v 250.000000 0.598219 5.000000
v 0.000000 19.401781 5.000000
v 250.000000 19.401781 5.000000
v 0.000000 20.000000 -6.101008
v 250.000000 20.000000 -6.101008
v 0.000000 0.000000 -6.101008
v 250.000000 0.000000 -6.101008
v 119.309082 1.164548 5.000000
v 131.288330 18.835451 5.000000
v 132.481689 20.000000 -6.101008
v 119.740479 0.000000 -6.101008
v 0.000000 20.706985 5.000000
v 250.000000 20.706985 5.000000
v 0.000000 39.293015 5.000000
v 250.000000 39.293015 5.000000
v 0.000000 40.000000 -6.101008
v 250.000000 40.000000 -6.101008
v 0.000000 20.000000 -6.101008
v 250.000000 20.000000 -6.101008
v 57.668457 22.030096 5.000000
v 51.713623 37.969902 5.000000
v 51.418945 40.000000 -6.101008
v 57.826660 20.000000 -6.101008
v 0.000000 40.435070 5.000000
v 250.000000 40.435070 5.000000
v 0.000000 59.564934 5.000000
v 250.000000 59.564934 5.000000
v 0.000000 60.000000 -6.101008
v 250.000000 60.000000 -6.101008
v 0.000000 40.000000 -6.101008
v 250.000000 40.000000 -6.101008
v 160.033203 41.482628 5.000000
v 179.647461 58.517376 5.000000
v 181.064453 60.000000 -6.101008
v 160.557861 40.000000 -6.101008
v 0.000000 60.706985 5.000000
v 250.000000 60.706985 5.000000
v 0.000000 79.293015 5.000000
v 250.000000 79.293015 5.000000
v 0.000000 80.000000 -6.101008
v 250.000000 80.000000 -6.101008
v 0.000000 60.000000 -6.101008
v 250.000000 60.000000 -6.101008
v 57.668457 62.030094 5.000000
v 51.713623 77.969902 5.000000
v 51.418945 80.000000 -6.101008
v 57.826660 60.000000 -6.101008
v 0.000000 80.598221 5.000000
v 250.000000 80.598221 5.000000
v 0.000000 99.401779 5.000000
v 250.000000 99.401779 5.000000
v 0.000000 100.000000 -6.101008
v 250.000000 100.000000 -6.101008
v 0.000000 80.000000 -6.101008
v 250.000000 80.000000 -6.101008
v 119.309082 81.164551 5.000000
v 131.288330 98.835449 5.000000
v 132.481689 100.000000 -6.101008
v 119.740479 80.000000 -6.101008
v 249.304199 105.000000 -5.394023
v 0.695801 105.000000 -5.394023
v 249.304199 105.000000 19.293015
v 0.695801 105.000000 19.293015
v 250.000000 100.000000 20.000000
v 0.000000 100.000000 20.000000
v 250.000000 100.000000 -6.101008
v 0.000000 100.000000 -6.101008
v 192.331543 105.000000 -4.070913
v 198.286377 105.000000 17.969904
v 198.581055 100.000000 20.000000
v 192.173340 100.000000 -6.101008
v 127.764244 -7.573443 4.650688
v 122.235756 -7.573443 4.650688
v 118.326530 -7.573443 8.559915
v 118.326530 -7.573443 14.088399
v 122.235756 -7.573443 17.997627
v 127.764244 -7.573443 17.997627
v 131.673477 -7.573443 14.088400
v 131.673462 -7.573443 8.559916
v 127.764244 99.401787 4.650688
v 122.235756 99.401787 4.650688
v 118.326530 99.401787 8.559915
v 118.326530 99.401787 14.088399
v 122.235756 99.401787 17.997627
v 127.764244 99.401787 17.997627
v 131.673477 99.401787 14.088400
v 131.673462 99.401787 8.559916
v 127.764244 63.102615 5.219565
v 122.235756 61.559170 6.141577
v 118.326530 60.240211 9.481928
v 119.315346 59.612976 14.333172
v 123.224571 61.515289 18.242401
v 127.764244 64.098450 17.997627
v 130.611252 65.106308 14.504756
v 130.611252 64.693825 8.976271
v 252.764252 -7.573443 4.650691
v 247.235779 -7.573443 4.650688
v 243.326538 -7.573443 8.559914
v 243.326538 -7.573443 14.088400
v 247.235764 -7.573443 17.997625
v 252.764252 -7.573443 17.997633
v 256.673492 -7.573443 14.088393
v 256.673462 -7.573443 8.559911
v 252.764252 99.401787 4.650691
v 247.235779 99.401787 4.650688
v 243.326538 99.401787 8.559914
v 243.326538 99.401787 14.088400
v 247.235764 99.401787 17.997625
v 252.764252 99.401787 17.997633
v 256.673492 99.401787 14.088393
v 256.673462 99.401787 8.559911
v 252.949722 78.509964 4.268197
v 247.110077 76.879654 5.242102
v 242.980835 75.486450 9.371352
v 244.025284 74.823914 14.495644
v 248.154541 76.833305 18.624895
v 252.949707 79.561844 18.366350
v 255.956970 80.626434 14.676880
v 255.956970 80.190727 8.837236
v 252.764252 26.420074 4.650692
v 247.235779 30.374207 5.156790
v 243.844482 33.448921 9.117668
v 245.056396 31.587852 13.918463
v 248.396255 29.157383 17.141850
v 252.764236 27.452595 17.324505
v 255.443832 24.730516 14.273460
v 255.447479 24.300154 8.743547
vt 0.078049 0.172894
vt 0.077575 0.172801
vt 0.077518 0.172685
vt 0.078038 0.172776
vt 0.077539 0.172672
vt 0.078064 0.172767
vt 0.077601 0.172802
vt 0.078076 0.172892
vt 0.077088 0.172713
vt 0.077116 0.172711
vt 0.077103 0.172594
vt 0.077076 0.172602
vt 0.078049 0.172894
vt 0.077815 0.172844
vt 0.077829 0.172749
vt 0.078038 0.172777
vt 0.077856 0.172731
vt 0.078064 0.172767
vt 0.077843 0.172851
vt 0.078076 0.172893
vt 0.077088 0.172721
vt 0.077116 0.172720
vt 0.077103 0.172602
vt 0.077076 0.172611
vt 0.078049 0.172894
vt 0.077419 0.172779
vt 0.077335 0.172664
vt 0.078038 0.172773
vt 0.077356 0.172649
vt 0.078064 0.172765
vt 0.077445 0.172783
vt 0.078076 0.172891
vt 0.077089 0.172728
vt 0.077116 0.172726
vt 0.077103 0.172608
vt 0.077076 0.172615
vt 0.078049 0.172894
vt 0.077815 0.172847
vt 0.077829 0.172752
vt 0.078038 0.172776
vt 0.077856 0.172734
vt 0.078064 0.172767
vt 0.077843 0.172855
vt 0.078076 0.172893
vt 0.077088 0.172736
vt 0.077116 0.172736
vt 0.077103 0.172617
vt 0.077076 0.172626
vt 0.078049 0.172894
vt 0.077575 0.172816
vt 0.077517 0.172701
vt 0.078038 0.172774
vt 0.077539 0.172689
vt 0.078064 0.172766
vt 0.077601 0.172819
vt 0.078076 0.172893
vt 0.077089 0.172744
vt 0.077116 0.172743
vt 0.077103 0.172624
vt 0.077076 0.172632
vt 0.077174 0.172717
vt 0.077362 0.172746
vt 0.077260 0.172756
vt 0.077079 0.172731
vt 0.077251 0.172785
vt 0.077076 0.172759
vt 0.077376 0.172773
vt 0.077178 0.172744
vt 0.078067 0.172847
vt 0.078076 0.172877
vt 0.077974 0.172894
vt 0.077972 0.172863
vt 0.076258 0.162309
vt 0.076307 0.162311
vt 0.076308 0.161716
vt 0.076257 0.161698
vt 0.076339 0.162328
vt 0.076341 0.161739
vt 0.076335 0.162349
vt 0.076328 0.161758
vt 0.076295 0.162363
vt 0.076287 0.161750
vt 0.076244 0.162360
vt 0.076243 0.161724
vt 0.076213 0.162343
vt 0.076220 0.161704
vt 0.076219 0.162322
vt 0.076226 0.161694
vt 0.076257 0.161362
vt 0.076310 0.161364
vt 0.076344 0.161371
vt 0.076339 0.161382
vt 0.076297 0.161389
vt 0.076243 0.161387
vt 0.076209 0.161379
vt 0.076215 0.161369
vt 0.076258 0.162309
vt 0.076307 0.162311
vt 0.076308 0.161985
vt 0.076258 0.162015
vt 0.076339 0.162328
vt 0.076340 0.161972
vt 0.076335 0.162349
vt 0.076330 0.161988
vt 0.076295 0.162363
vt 0.076290 0.162020
vt 0.076244 0.162360
vt 0.076244 0.162049
vt 0.076213 0.162343
vt 0.076216 0.162059
vt 0.076219 0.162322
vt 0.076222 0.162045
vt 0.076257 0.161362
vt 0.076310 0.161364
vt 0.076344 0.161371
vt 0.076339 0.161382
vt 0.076297 0.161389
vt 0.076243 0.161387
vt 0.076209 0.161379
vt 0.076215 0.161369
vt 0.076257 0.161698
vt 0.076308 0.161716
vt 0.076341 0.161739
vt 0.076328 0.161758
vt 0.076287 0.161750
vt 0.076243 0.161724
vt 0.076220 0.161704
vt 0.076226 0.161694
vn 0.000000 0.000000 1.000000
vn 0.000000 0.000000 1.000000
vn -0.000000 0.000000 1.000000
vn 0.000000 0.000000 1.000000
vn 0.002114 0.984771 0.173844
vn 0.000322 0.984810 0.173637
vn -0.000327 0.984823 0.173562
vn 0.002114 0.984771 0.173844
vn 0.000000 0.000000 -1.000000
vn 0.000000 0.000000 -1.000000
vn 0.000000 0.000000 -1.000000
vn 0.000000 0.000000 -1.000000
vn 0.002333 -0.984796 0.173697
vn -0.000119 -0.984817 0.173595
vn 0.000119 -0.984815 0.173605
vn 0.002333 -0.984796 0.173697
vn 1.000000 0.000000 0.000000
vn 1.000000 0.000000 0.000000
vn 1.000000 0.000000 0.000000
vn 1.000000 0.000000 0.000000
vn -1.000000 0.000000 0.000000
vn -1.000000 0.000000 0.000000
vn -1.000000 0.000000 0.000000
vn -1.000000 0.000000 0.000000
vn -0.000000 0.000000 1.000000
vn 0.000000 0.000000 1.000000
vn -0.000000 0.000000 1.000000
vn -0.000000 0.000000 1.000000
vn -0.000327 0.984823 0.173562
vn 0.000322 0.984810 0.173637
vn -0.002361 0.984862 0.173327
vn -0.002361 0.984862 0.173327
vn 0.000000 0.000000 -1.000000
vn 0.000000 0.000000 -1.000000
vn 0.000000 0.000000 -1.000000
vn 0.000000 0.000000 -1.000000
vn 0.000119 -0.984815 0.173605
vn -0.000119 -0.984817 0.173595
vn -0.002137 -0.984830 0.173510
vn -0.002137 -0.984830 0.173510
vn 0.000000 0.000000 1.000000
vn 0.000000 0.000000 1.000000
vn 0.000000 0.000000 1.000000
vn 0.000000 0.000000 1.000000
vn 0.012374 0.964542 0.263639
vn -0.000185 0.964522 0.264003
vn 0.000181 0.964525 0.263993
vn 0.012374 0.964542 0.263639
vn 0.000000 0.000000 -1.000000
vn 0.000000 0.000000 -1.000000
vn 0.000000 0.000000 -1.000000
vn 0.000000 0.000000 -1.000000
vn 0.011048 -0.964420 0.264145
vn -0.000094 -0.964524 0.263997
vn 0.000087 -0.964523 0.263999
vn 0.011048 -0.964420 0.264145
vn 1.000000 0.000000 0.000000
vn 1.000000 0.000000 0.000000
vn 1.000000 0.000000 0.000000
vn 1.000000 0.000000 0.000000
vn -1.000000 0.000000 0.000000
vn -1.000000 0.000000 0.000000
vn -1.000000 0.000000 0.000000
vn -1.000000 0.000000 0.000000
vn 0.000000 0.000000 1.000000
vn 0.000000 0.000000 1.000000
vn 0.000000 0.000000 1.000000
vn 0.000000 0.000000 1.000000
vn 0.000181 0.964525 0.263993
vn -0.000185 0.964522 0.264003
vn -0.003216 0.964494 0.264085
vn -0.003216 0.964494 0.264085
vn 0.000000 0.000000 -1.000000
vn 0.000000 0.000000 -1.000000
vn 0.000000 0.000000 -1.000000
vn 0.000000 0.000000 -1.000000
vn 0.000087 -0.964523 0.263999
vn -0.000094 -0.964524 0.263997
vn -0.003319 -0.964531 0.263948
vn -0.003319 -0.964531 0.263948
vn 0.000000 0.000000 1.000000
vn -0.000000 0.000000 1.000000
vn -0.000000 0.000000 1.000000
vn 0.000000 0.000000 1.000000
vn 0.002852 0.982026 0.188727
vn 0.000651 0.982087 0.188427
vn -0.000751 0.982124 0.188236
vn 0.002852 0.982025 0.188727
vn 0.000000 0.000000 -1.000000
vn 0.000000 0.000000 -1.000000
vn 0.000000 0.000000 -1.000000
vn 0.000000 0.000000 -1.000000
vn 0.003209 -0.982068 0.188499
vn -0.000268 -0.982107 0.188324
vn 0.000260 -0.982102 0.188351
vn 0.003209 -0.982068 0.188499
vn 1.000000 0.000000 0.000000
vn 1.000000 0.000000 0.000000
vn 1.000000 0.000000 0.000000
vn 1.000000 0.000000 0.000000
vn -1.000000 0.000000 0.000000
vn -1.000000 0.000000 0.000000
vn -1.000000 0.000000 0.000000
vn -1.000000 0.000000 0.000000
vn -0.000000 0.000000 1.000000
vn -0.000000 0.000000 1.000000
vn -0.000000 0.000000 1.000000
vn -0.000000 0.000000 1.000000
vn -0.000751 0.982124 0.188236
vn 0.000651 0.982087 0.188427
vn -0.007387 0.982271 0.187323
vn -0.007387 0.982271 0.187323
vn 0.000000 0.000000 -1.000000
vn 0.000000 0.000000 -1.000000
vn 0.000000 0.000000 -1.000000
vn 0.000000 0.000000 -1.000000
vn 0.000260 -0.982102 0.188351
vn -0.000268 -0.982107 0.188324
vn -0.005735 -0.982144 0.188044
vn -0.005735 -0.982144 0.188044
vn 0.000000 0.000000 1.000000
vn -0.000000 0.000000 1.000000
vn 0.000000 0.000000 1.000000
vn 0.000000 0.000000 1.000000
vn 0.012374 0.964542 0.263640
vn -0.000185 0.964522 0.264004
vn 0.000181 0.964524 0.263994
vn 0.012374 0.964542 0.263639
vn 0.000000 0.000000 -1.000000
vn 0.000000 0.000000 -1.000000
vn 0.000000 0.000000 -1.000000
vn 0.000000 0.000000 -1.000000
vn 0.011048 -0.964420 0.264144
vn -0.000094 -0.964524 0.263996
vn 0.000087 -0.964523 0.263999
vn 0.011048 -0.964420 0.264144
vn 1.000000 0.000000 0.000000
vn 1.000000 0.000000 0.000000
vn 1.000000 0.000000 0.000000
vn 1.000000 0.000000 0.000000
vn -1.000000 0.000000 0.000000
vn -1.000000 0.000000 0.000000
vn -1.000000 0.000000 0.000000
vn -1.000000 0.000000 0.000000
vn 0.000000 0.000000 1.000000
vn -0.000000 0.000000 1.000000
vn -0.000000 0.000000 1.000000
vn -0.000000 0.000000 1.000000
vn 0.000181 0.964524 0.263994
vn -0.000185 0.964522 0.264004
vn -0.003216 0.964494 0.264086
vn -0.003216 0.964494 0.264086
vn 0.000000 0.000000 -1.000000
vn 0.000000 0.000000 -1.000000
vn 0.000000 0.000000 -1.000000
vn 0.000000 0.000000 -1.000000
vn 0.000087 -0.964523 0.263999
vn -0.000094 -0.964524 0.263996
vn -0.003319 -0.964531 0.263947
vn -0.003319 -0.964531 0.263947
vn 0.000000 0.000000 1.000000
vn 0.000000 0.000000 1.000000
vn 0.000000 0.000000 1.000000
vn 0.000000 0.000000 1.000000
vn 0.002114 0.984771 0.173846
vn 0.000322 0.984809 0.173638
vn -0.000327 0.984823 0.173563
vn 0.002114 0.984771 0.173846
vn 0.000000 0.000000 -1.000000
vn 0.000000 0.000000 -1.000000
vn 0.000000 0.000000 -1.000000
vn 0.000000 0.000000 -1.000000
vn 0.002333 -0.984796 0.173697
vn -0.000119 -0.984817 0.173596
vn 0.000119 -0.984815 0.173606
vn 0.002333 -0.984796 0.173697
vn 1.000000 0.000000 0.000000
vn 1.000000 0.000000 0.000000
vn 1.000000 0.000000 0.000000
vn 1.000000 0.000000 0.000000
vn -1.000000 0.000000 0.000000
vn -1.000000 0.000000 0.000000
vn -1.000000 0.000000 0.000000
vn -1.000000 0.000000 0.000000
vn 0.000000 0.000000 1.000000
vn 0.000000 0.000000 1.000000
vn 0.000000 0.000000 1.000000
vn 0.000000 0.000000 1.000000
vn -0.000327 0.984823 0.173563
vn 0.000322 0.984809 0.173638
vn -0.002361 0.984862 0.173326
vn -0.002361 0.984862 0.173326
vn 0.000000 0.000000 -1.000000
vn 0.000000 0.000000 -1.000000
vn 0.000000 0.000000 -1.000000
vn 0.000000 0.000000 -1.000000
vn 0.000119 -0.984815 0.173606
vn -0.000119 -0.984817 0.173596
vn -0.002137 -0.984830 0.173512
vn -0.002137 -0.984830 0.173512
vn 0.000000 1.000000 0.000000
vn 0.000000 1.000000 0.000000
vn 0.000000 1.000000 0.000000
vn 0.000000 1.000000 0.000000
vn -0.012461 0.262829 0.964762
vn 0.000186 0.263679 0.964611
vn -0.000182 0.263655 0.964617
vn -0.012461 0.262829 0.964762
vn 0.000000 -1.000000 0.000000
vn 0.000000 -1.000000 0.000000
vn 0.000000 -1.000000 0.000000
vn 0.000000 -1.000000 0.000000
vn -0.011118 0.263425 -0.964616
vn 0.000095 0.263668 -0.964613
vn -0.000087 0.263665 -0.964615
vn -0.011118 0.263425 -0.964616
vn -0.990456 0.137832 0.000000
vn -0.990456 0.137832 0.000000
vn -0.990456 0.137832 0.000000
vn -0.990456 0.137832 0.000000
vn 0.990456 0.137829 0.000000
vn 0.990456 0.137829 0.000000
vn 0.990456 0.137829 0.000000
vn 0.990456 0.137829 0.000000
vn 0.000000 1.000000 0.000000
vn 0.000000 1.000000 0.000000
vn 0.000000 1.000000 0.000001
vn 0.000000 1.000000 0.000001
vn -0.000182 0.263655 0.964617
vn 0.000186 0.263679 0.964611
vn 0.003221 0.263876 0.964551
vn 0.003221 0.263876 0.964551
vn 0.000000 -1.000000 0.000000
vn 0.000000 -1.000000 0.000000
vn 0.000000 -1.000000 0.000000
vn 0.000000 -1.000000 0.000000
vn -0.000087 0.263665 -0.964615
vn 0.000095 0.263668 -0.964613
vn 0.003325 0.263732 -0.964590
vn 0.003325 0.263732 -0.964590
vn -0.085125 0.014678 -0.996262
vn -0.085125 0.014678 -0.996262
vn -0.085125 0.014678 -0.996262
vn -0.085125 0.014678 -0.996262
vn -0.681039 0.012900 -0.732134
vn -0.681039 0.012900 -0.732134
vn -0.681039 0.012900 -0.732134
vn -0.681039 0.012900 -0.732134
vn -0.995435 0.006468 0.095220
vn -0.995435 0.006468 0.095220
vn -0.995435 0.006468 0.095220
vn -0.995435 0.006468 0.095220
vn -0.708027 0.007738 0.706143
vn -0.708027 0.007738 0.706143
vn -0.708027 0.007738 0.706143
vn -0.708027 0.007738 0.706143
vn 0.024795 -0.001913 0.999691
vn 0.024795 -0.001913 0.999691
vn 0.024795 -0.001913 0.999691
vn 0.024795 -0.001913 0.999691
vn 0.738354 0.003488 0.674404
vn 0.738354 0.003488 0.674404
vn 0.738354 0.003488 0.674404
vn 0.738354 0.003488 0.674404
vn 0.999892 0.014658 -0.000547
vn 0.999892 0.014658 -0.000547
vn 0.999892 0.014658 -0.000547
vn 0.999892 0.014658 -0.000547
vn 0.749135 0.010132 -0.662340
vn 0.749135 0.010132 -0.662340
vn 0.749135 0.010132 -0.662340
vn 0.749135 0.010132 -0.662340
vn 0.000000 -1.000000 0.000000
vn 0.000000 -1.000000 0.000000
vn 0.000000 -1.000000 0.000000
vn 0.000000 -1.000000 0.000000
vn 0.000000 -1.000000 0.000000
vn 0.000000 -1.000000 0.000000
vn 0.000000 -1.000000 0.000000
vn 0.000000 -1.000000 0.000000
vn 0.000000 1.000000 0.000000
vn 0.000000 1.000000 0.000000
vn 0.000000 1.000000 0.000000
vn 0.000000 1.000000 0.000000
vn 0.000000 1.000000 0.000000
vn 0.000000 1.000000 0.000000
vn 0.000000 1.000000 0.000000
vn 0.000000 1.000000 0.000000
vn -0.079229 -0.027683 -0.996472
vn -0.079229 -0.027683 -0.996472
vn -0.079229 -0.027683 -0.996472
vn -0.079229 -0.027683 -0.996472
vn -0.677654 -0.023032 -0.735020
vn -0.677654 -0.023032 -0.735020
vn -0.677654 -0.023032 -0.735020
vn -0.677654 -0.023032 -0.735020
vn -0.995495 -0.011076 0.094166
vn -0.995495 -0.011076 0.094166
vn -0.995495 -0.011076 0.094166
vn -0.995495 -0.011076 0.094166
vn -0.705399 -0.013493 0.708682
vn -0.705399 -0.013493 0.708682
vn -0.705399 -0.013493 0.708682
vn -0.705399 -0.013493 0.708682
vn 0.023366 0.003659 0.999720
vn 0.023366 0.003659 0.999720
vn 0.023366 0.003659 0.999720
vn 0.023366 0.003659 0.999720
vn 0.739067 -0.007250 0.673593
vn 0.739067 -0.007250 0.673593
vn 0.739067 -0.007250 0.673593
vn 0.739067 -0.007250 0.673593
vn 0.999526 -0.030759 0.001147
vn 0.999526 -0.030759 0.001147
vn 0.999526 -0.030759 0.001147
vn 0.999526 -0.030759 0.001147
vn 0.752158 -0.020391 -0.658668
vn 0.752158 -0.020391 -0.658668
vn 0.752158 -0.020391 -0.658668
vn 0.752158 -0.020391 -0.658668
vn -0.043214 0.007028 -0.999041
vn -0.043214 0.007028 -0.999041
vn -0.043214 0.007028 -0.999041
vn -0.043214 0.007028 -0.999041
vn -0.730336 0.013991 -0.682945
vn -0.730336 0.013991 -0.682945
vn -0.730336 0.013991 -0.682945
vn -0.730336 0.013991 -0.682945
vn -0.992239 0.027229 0.121324
vn -0.992239 0.027229 0.121324
vn -0.992239 0.027229 0.121324
vn -0.992239 0.027229 0.121324
vn -0.694711 0.036167 0.718379
vn -0.694711 0.036167 0.718379
vn -0.694711 0.036167 0.718379
vn -0.694711 0.036167 0.718379
vn -0.014741 0.021538 0.999659
vn -0.014741 0.021538 0.999659
vn -0.014741 0.021538 0.999659
vn -0.014741 0.021538 0.999659
vn 0.729657 0.018281 0.683569
vn 0.729657 0.018281 0.683569
vn 0.729657 0.018281 0.683569
vn 0.729657 0.018281 0.683569
vn 0.999268 0.038242 -0.001161
vn 0.999268 0.038242 -0.001161
vn 0.999268 0.038242 -0.001161
vn 0.999268 0.038242 -0.001161
vn 0.773810 0.016168 -0.633212
vn 0.773810 0.016168 -0.633212
vn 0.773810 0.016168 -0.633212
vn 0.773810 0.016168 -0.633212
vn 0.000000 -1.000000 0.000000
vn 0.000000 -1.000000 0.000000
vn 0.000000 -1.000000 0.000000
vn 0.000000 -1.000000 0.000000
vn 0.000000 -1.000000 0.000000
vn 0.000000 -1.000000 0.000000
vn 0.000000 -1.000000 0.000000
vn 0.000000 -1.000000 0.000000
vn -0.000000 1.000000 -0.000000
vn -0.000000 1.000000 -0.000000
vn -0.000000 1.000000 -0.000000
vn -0.000000 1.000000 -0.000000
vn -0.000000 1.000000 -0.000000
vn -0.000000 1.000000 -0.000000
vn -0.000000 1.000000 -0.000000
vn -0.000000 1.000000 -0.000000
vn -0.084657 -0.004911 -0.996398
vn -0.084657 -0.004911 -0.996398
vn -0.084657 -0.004911 -0.996398
vn -0.084657 -0.004911 -0.996398
vn -0.705800 -0.014232 -0.708268
vn -0.705800 -0.014232 -0.708268
vn -0.705800 -0.014232 -0.708268
vn -0.705800 -0.014232 -0.708268
vn -0.995245 -0.004801 0.097281
vn -0.995245 -0.004801 0.097281
vn -0.995245 -0.004801 0.097281
vn -0.995245 -0.004801 0.097281
vn -0.705994 -0.008683 0.708165
vn -0.705994 -0.008683 0.708165
vn -0.705994 -0.008683 0.708165
vn -0.705994 -0.008683 0.708165
vn 0.018699 0.023962 0.999538
vn 0.018699 0.023962 0.999538
vn 0.018699 0.023962 0.999538
vn 0.018699 0.023962 0.999538
vn 0.739053 0.006534 0.673616
vn 0.739053 0.006534 0.673616
vn 0.739053 0.006534 0.673616
vn 0.739053 0.006534 0.673616
vn 0.999289 -0.037665 0.001442
vn 0.999289 -0.037665 0.001442
vn 0.999289 -0.037665 0.001442
vn 0.999289 -0.037665 0.001442
vn 0.775673 -0.008616 -0.631077
vn 0.775673 -0.008616 -0.631077
vn 0.775673 -0.008616 -0.631077
vn 0.775673 -0.008616 -0.631077
vn -0.129684 -0.002910 -0.991551
vn -0.129684 -0.002910 -0.991551
vn -0.129684 -0.002910 -0.991551
vn -0.129684 -0.002910 -0.991551
vn -0.732988 -0.005586 -0.680219
vn -0.732988 -0.005586 -0.680219
vn -0.732988 -0.005586 -0.680219
vn -0.732988 -0.005586 -0.680219
vn -0.976134 -0.023793 0.215864
vn -0.976134 -0.023793 0.215864
vn -0.976134 -0.023793 0.215864
vn -0.976134 -0.023793 0.215864
vn -0.702035 -0.025957 0.711670
vn -0.702035 -0.025957 0.711670
vn -0.702035 -0.025957 0.711670
vn -0.702035 -0.025957 0.711670
vn 0.011104 -0.025287 0.999619
vn 0.011104 -0.025287 0.999619
vn 0.011104 -0.025287 0.999619
vn 0.011104 -0.025287 0.999619
vn 0.762597 -0.013587 0.646731
vn 0.762597 -0.013587 0.646731
vn 0.762597 -0.013587 0.646731
vn 0.762597 -0.013587 0.646731
vn 0.999958 -0.009152 0.001017
vn 0.999958 -0.009152 0.001017
vn 0.999958 -0.009152 0.001017
vn 0.999958 -0.009152 0.001017
vn 0.835599 -0.006847 -0.549297
vn 0.835599 -0.006847 -0.549297
vn 0.835599 -0.006847 -0.549297
vn 0.835599 -0.006847 -0.549297
s off
f 1/1/1 9/2/2 10/3/3 3/4/4
f 3/4/5 10/3/6 11/5/7 5/6/8
f 5/6/9 11/5/10 12/7/11 7/8/12
f 7/8/13 12/7/14 9/2/15 1/1/16
f 2/9/17 8/10/18 6/11/19 4/12/20
f 7/8/21 1/1/22 3/4/23 5/6/24
f 10/3/25 9/2/26 2/9/27 4/12/28
f 11/5/29 10/3/30 4/12/31 6/11/32
f 12/7/33 11/5/34 6/11/35 8/10/36
f 9/2/37 12/7/38 8/10/39 2/9/40
f 13/13/41 21/14/42 22/15/43 15/16/44
f 15/16/45 22/15/46 23/17/47 17/18/48
f 17/18/49 23/17/50 24/19/51 19/20/52
f 19/20/53 24/19/54 21/14/55 13/13/56
f 14/21/57 20/22/58 18/23/59 16/24/60
f 19/20/61 13/13/62 15/16/63 17/18/64
f 22/15/65 21/14/66 14/21/67 16/24/68
f 23/17/69 22/15/70 16/24/71 18/23/72
f 24/19/73 23/17/74 18/23/75 20/22/76
f 21/14/77 24/19/78 20/22/79 14/21/80
f 25/25/81 33/26/82 34/27/83 27/28/84
f 27/28/85 34/27/86 35/29/87 29/30/88
f 29/30/89 35/29/90 36/31/91 31/32/92
f 31/32/93 36/31/94 33/26/95 25/25/96
f 26/33/97 32/34/98 30/35/99 28/36/100
f 31/32/101 25/25/102 27/28/103 29/30/104
f 34/27/105 33/26/106 26/33/107 28/36/108
f 35/29/109 34/27/110 28/36/111 30/35/112
f 36/31/113 35/29/114 30/35/115 32/34/116
f 33/26/117 36/31/118 32/34/119 26/33/120
f 37/37/121 45/38/122 46/39/123 39/40/124
f 39/40/125 46/39/126 47/41/127 41/42/128
f 41/42/129 47/41/130 48/43/131 43/44/132
f 43/44/133 48/43/134 45/38/135 37/37/136
f 38/45/137 44/46/138 42/47/139 40/48/140
f 43/44/141 37/37/142 39/40/143 41/42/144
f 46/39/145 45/38/146 38/45/147 40/48/148
f 47/41/149 46/39/150 40/48/151 42/47/152
f 48/43/153 47/41/154 42/47/155 44/46/156
f 45/38/157 48/43/158 44/46/159 38/45/160
f 49/49/161 57/50/162 58/51/163 51/52/164
f 51/52/165 58/51/166 59/53/167 53/54/168
f 53/54/169 59/53/170 60/55/171 55/56/172
f 55/56/173 60/55/174 57/50/175 49/49/176
f 50/57/177 56/58/178 54/59/179 52/60/180
f 55/56/181 49/49/182 51/52/183 53/54/184
f 58/51/185 57/50/186 50/57/187 52/60/188
f 59/53/189 58/51/190 52/60/191 54/59/192
f 60/55/193 59/53/194 54/59/195 56/58/196
f 57/50/197 60/55/198 56/58/199 50/57/200
f 61/61/201 69/62/202 70/63/203 63/64/204
f 63/64/205 70/63/206 71/65/207 65/66/208
f 65/66/209 71/65/210 72/67/211 67/68/212
f 67/68/213 72/67/214 69/62/215 61/61/216
f 62/69/217 68/70/218 66/71/219 64/72/220
f 67/68/221 61/61/222 63/64/223 65/66/224
f 70/63/225 69/62/226 62/69/227 64/72/228
f 71/65/229 70/63/230 64/72/231 66/71/232
f 72/67/233 71/65/234 66/71/235 68/70/236
f 69/62/237 72/67/238 68/70/239 62/69/240
f 73/73/241 74/74/242 90/75/243 89/76/244
f 74/74/245 75/77/246 91/78/247 90/75/248
f 75/77/249 76/79/250 92/80/251 91/78/252
f 76/79/253 77/81/254 93/82/255 92/80/256
f 77/81/257 78/83/258 94/84/259 93/82/260
f 78/83/261 79/85/262 95/86/263 94/84/264
f 79/85/265 80/87/266 96/88/267 95/86/268
f 80/87/269 73/73/270 89/76/271 96/88/272
f 73/73/273 80/87/274 79/85/275 78/83/276 77/81/277 76/79/278 75/77/279 74/74/280
f 81/89/281 82/90/282 83/91/283 84/92/284 85/93/285 86/94/286 87/95/287 88/96/288
f 89/76/289 90/75/290 82/90/291 81/89/292
f 90/75/293 91/78/294 83/91/295 82/90/296
f 91/78/297 92/80/298 84/92/299 83/91/300
f 92/80/301 93/82/302 85/93/303 84/92/304
f 93/82/305 94/84/306 86/94/307 85/93/308
f 94/84/309 95/86/310 87/95/311 86/94/312
f 95/86/313 96/88/314 88/96/315 87/95/316
f 96/88/317 89/76/318 81/89/319 88/96/320
f 97/97/321 98/98/322 122/99/323 121/100/324
f 98/98/325 99/101/326 123/102/327 122/99/328
f 99/101/329 100/103/330 124/104/331 123/102/332
f 100/103/333 101/105/334 125/106/335 124/104/336
f 101/105/337 102/107/338 126/108/339 125/106/340
f 102/107/341 103/109/342 127/110/343 126/108/344
f 103/109/345 104/111/346 128/112/347 127/110/348
f 104/111/349 97/97/350 121/100/351 128/112/352
f 97/97/353 104/111/354 103/109/355 102/107/356 101/105/357 100/103/358 99/101/359 98/98/360
f 105/113/361 106/114/362 107/115/363 108/116/364 109/117/365 110/118/366 111/119/367 112/120/368
f 113/121/369 114/122/370 106/114/371 105/113/372
f 114/122/373 115/123/374 107/115/375 106/114/376
f 115/123/377 116/124/378 108/116/379 107/115/380
f 116/124/381 117/125/382 109/117/383 108/116/384
f 117/125/385 118/126/386 110/118/387 109/117/388
f 118/126/389 119/127/390 111/119/391 110/118/392
f 119/127/393 120/128/394 112/120/395 111/119/396
f 120/128/397 113/121/398 105/113/399 112/120/400
f 121/100/401 122/99/402 114/122/403 113/121/404
f 122/99/405 123/102/406 115/123/407 114/122/408
f 123/102/409 124/104/410 116/124/411 115/123/412
f 124/104/413 125/106/414 117/125/415 116/124/416
f 125/106/417 126/108/418 118/126/419 117/125/420
f 126/108/421 127/110/422 119/127/423 118/126/424
f 127/110/425 128/112/426 120/128/427 119/127/428
f 128/112/429 121/100/430 113/121/431 120/128/432
