# This file uses centimeters as units for non-parametric coordinates.

v 99.359985 6.426537 -98.577271
v -95.513245 0.000000 -98.577271
v 92.628113 62.284283 -98.577271
v -91.468445 62.284283 -98.577271
v 99.359985 52.956158 101.422729
v -100.640015 62.284283 91.797974
v 99.359985 5.039871 101.422729
v -100.640015 11.277477 101.422729
v -100.640015 45.044773 -98.577271
v -100.640015 62.284283 -59.102417
v -100.640015 5.320267 -98.577271
v -100.640015 0.000000 -87.279663
v 93.735382 0.000000 101.422729
v 99.359985 0.000000 90.643188
v 67.670715 0.000000 -98.577271
v 99.359985 0.000000 -85.625610
v -100.640015 0.000000 87.636108
v -73.181946 0.000000 101.422729
v -100.640015 46.953266 101.422729
v -86.301819 62.284283 101.422729
v 76.717621 62.284283 -98.577271
v 36.887543 62.284283 -98.577271
v 62.285126 62.284283 -91.770630
v 64.030243 58.044483 -98.577271
v -38.343018 62.284298 101.422729
v -74.021912 62.284283 101.422729
v -57.352600 62.284283 94.693970
v -57.337341 57.722790 101.422729
v -100.640015 11.573261 -98.577271
v -100.640015 34.517155 -98.577271
v -97.011536 22.118565 -98.577271
v -100.640015 23.662844 -94.921021
v 99.359985 45.593117 101.422729
v 99.359985 13.360653 101.422729
v 99.359985 26.415197 95.361206
v 95.135803 30.651779 101.422729
v 99.359985 62.284290 81.531372
v 92.661713 62.284298 101.422729
v 99.359985 62.284283 -88.431763
v 99.359985 54.127308 -98.577271
vt 0.058969 0.354069
vt 0.058945 0.354079
vt 0.058978 0.354104
vt 0.058198 0.354317
vt 0.058196 0.354292
vt 0.058181 0.354289
vt 0.070244 0.802987
vt 0.183064 0.978825
vt 0.057624 0.326493
vt 0.057125 0.326462
vt 0.056914 0.327024
vt 0.057132 0.326546
vt 0.057049 0.326518
vt 0.056986 0.326515
vt 0.056911 0.326596
vt 0.058136 0.353862
vt 0.058180 0.353730
vt 0.058154 0.353771
vt 0.057065 0.326988
vt 0.056922 0.326507
vt 0.057007 0.326479
vt 0.057070 0.326573
vt 0.057071 0.326918
vt 0.057678 0.327046
vt 0.057635 0.327044
vt 0.057056 0.327078
vt 0.056930 0.327092
vt 0.057053 0.327139
vt 0.057103 0.327143
vt 0.057768 0.327095
vt 0.057876 0.327080
vt 0.057657 0.327019
vt 0.057909 0.327050
vt 0.057669 0.326919
vt 0.057657 0.326979
vt 0.057754 0.326526
vt 0.057812 0.326505
vt 0.057886 0.326535
vt 0.059059 0.354304
vt 0.058899 0.354330
vt 0.059073 0.354315
vt 0.058293 0.354101
vt 0.058419 0.354072
vt 0.058307 0.354048
vt 0.058283 0.353716
vt 0.058342 0.353655
vt 0.058272 0.353660
vt 0.058988 0.353778
vt 0.058912 0.353799
vt 0.058909 0.353773
vt 0.058744 0.353776
vt 0.058471 0.353665
vt 0.058460 0.353663
vt 0.058396 0.353655
vt 0.058553 0.353656
vt 0.058177 0.354256
vt 0.058175 0.354184
vt 0.058182 0.354199
vt 0.058165 0.354135
vt 0.058972 0.354025
vt 0.058981 0.353986
vt 0.058968 0.353959
vt 0.058981 0.353895
vt 0.057641 0.326607
vt 0.057657 0.326826
vt 0.057094 0.326999
vt 0.057072 0.327110
vt 0.057072 0.327069
vt 0.057223 0.326527
vt 0.057640 0.326898
vt 0.057666 0.326580
vt 0.057612 0.326584
vt 0.057875 0.326544
vt 0.057893 0.326571
vt 0.059432 0.354034
vt 0.059250 0.353852
vt 0.059488 0.353877
vt 0.058555 0.353587
vt 0.058488 0.353647
vt 0.058534 0.353521
vt 0.159114 0.985244
vt 0.038072 0.985244
vt 0.218026 0.806807
vt 0.212722 0.796641
vt 0.055317 0.796641
vt 0.188143 0.985244
vt 0.218026 0.973031
vt 0.029423 0.948019
vt 0.029423 0.805718
vt 0.042945 0.796641
vt 0.054525 0.796641
vt 0.218026 0.815399
vt 0.218026 0.975677
vt 0.211678 0.985244
vt 0.196674 0.985244
vt 0.211710 0.796641
vt 0.088171 0.796641
vt 0.029423 0.809642
vt 0.029423 0.974590
vt 0.034258 0.985244
vn 0.630221 -0.703339 0.328840
vn 0.630221 -0.703339 0.328840
vn 0.630221 -0.703339 0.328840
vn -0.684465 -0.659570 -0.310605
vn -0.684465 -0.659570 -0.310605
vn -0.684465 -0.659570 -0.310605
vn 0.000000 1.000000 0.000000
vn 0.000000 1.000000 0.000000
vn 0.000000 1.000000 0.000000
vn 0.000000 1.000000 0.000000
vn 0.000000 0.000000 1.000000
vn 0.000000 0.000000 1.000000
vn 0.000000 0.000000 1.000000
vn 0.000000 0.000000 1.000000
vn 0.000000 0.000000 1.000000
vn -0.864832 0.460098 -0.200935
vn -0.864832 0.460098 -0.200935
vn -0.864832 0.460098 -0.200935
vn -1.000000 0.000000 0.000000
vn -1.000000 0.000000 0.000000
vn -1.000000 0.000000 0.000000
vn -1.000000 0.000000 0.000000
vn -1.000000 0.000000 0.000000
vn -1.000000 0.000000 0.000000
vn 0.000000 -1.000000 0.000000
vn 0.000000 -1.000000 0.000000
vn 0.000000 -1.000000 0.000000
vn 0.000000 -1.000000 0.000000
vn 0.000000 -1.000000 0.000000
vn 1.000000 -0.000000 0.000000
vn 1.000000 -0.000000 0.000000
vn 1.000000 -0.000000 0.000000
vn 1.000000 -0.000000 0.000000
vn 1.000000 -0.000000 0.000000
vn 1.000000 -0.000000 0.000000
vn 0.000000 0.000000 -1.000000
vn 0.000000 0.000000 -1.000000
vn 0.000000 0.000000 -1.000000
vn 0.000000 0.000000 -1.000000
vn 0.000000 0.000000 -1.000000
vn 0.178739 -0.881361 -0.437326
vn 0.178739 -0.881361 -0.437327
vn 0.178739 -0.881361 -0.437326
vn -0.302964 -0.737648 0.603397
vn -0.302964 -0.737648 0.603397
vn -0.302964 -0.737648 0.603397
vn -0.494230 0.462224 0.736265
vn -0.494230 0.462224 0.736265
vn -0.494230 0.462224 0.736265
vn -0.263061 0.787196 -0.557783
vn -0.263061 0.787196 -0.557783
vn -0.263061 0.787196 -0.557783
vn 0.133742 0.856201 -0.499031
vn 0.133742 0.856201 -0.499031
vn 0.133742 0.856201 -0.499031
vn 0.220778 0.807538 0.546936
vn 0.220778 0.807538 0.546936
vn 0.220778 0.807538 0.546936
vn -0.194918 0.811648 0.550668
vn -0.194918 0.811647 0.550668
vn -0.194918 0.811647 0.550668
vn -0.643779 0.221515 -0.732448
vn -0.643779 0.221515 -0.732448
vn -0.643779 0.221515 -0.732448
vn -0.737118 -0.215720 -0.640408
vn -0.737118 -0.215720 -0.640408
vn -0.737118 -0.215720 -0.640408
vn 0.864999 0.211317 0.455107
vn 0.864999 0.211317 0.455107
vn 0.864999 0.211317 0.455107
vn 0.729318 -0.206192 0.652365
vn 0.729318 -0.206192 0.652365
vn 0.729318 -0.206192 0.652365
vn 1.000000 0.000000 0.000000
vn 1.000000 0.000000 0.000000
vn 1.000000 0.000000 0.000000
vn 1.000000 0.000000 0.000000
vn 1.000000 0.000000 0.000000
vn 1.000000 0.000000 0.000000
vn 1.000000 0.000000 0.000000
vn 1.000000 0.000000 0.000000
vn 1.000000 0.000000 0.000000
vn 0.000000 0.000000 -1.000000
vn 0.000000 0.000000 -1.000000
vn 0.000000 0.000000 -1.000000
vn 0.000000 0.000000 -1.000000
vn 0.000000 0.000000 -1.000000
vn 0.000000 0.000000 -1.000000
vn 0.000000 0.000000 -1.000000
vn 0.000000 0.000000 -1.000000
vn 0.000000 0.000000 -1.000000
vn 0.000000 0.000000 -1.000000
vn 0.000000 0.000000 -1.000000
vn 0.000000 0.000000 -1.000000
vn 0.000000 0.000000 -1.000000
vn 0.000000 0.000000 -1.000000
vn 0.000000 0.000000 -1.000000
vn -1.000000 0.000000 0.000000
vn -1.000000 0.000000 0.000000
vn -1.000000 0.000000 0.000000
vn -1.000000 0.000000 0.000000
vn -1.000000 0.000000 0.000000
vn -1.000000 0.000000 0.000000
vn -1.000000 0.000000 0.000000
vn 0.000000 0.000000 1.000000
vn 0.000000 0.000000 1.000000
vn 0.000000 0.000000 1.000000
vn 0.000000 0.000000 1.000000
vn 0.000000 0.000000 1.000000
vn 0.000000 0.000000 1.000000
vn 0.000000 0.000000 1.000000
vn 0.000000 0.000000 1.000000
vn 0.000000 0.000000 1.000000
vn 0.000000 1.000000 0.000000
vn 0.000000 1.000000 0.000000
vn 0.000000 1.000000 0.000000
vn 0.000000 1.000000 0.000000
vn 0.000000 1.000000 0.000000
vn 0.000000 1.000000 0.000000
vn 0.783496 0.562606 0.263836
vn 0.783496 0.562606 0.263836
vn 0.783495 0.562606 0.263836
vn -0.000000 0.000000 1.000000
vn -0.000000 0.000000 1.000000
vn -0.000000 0.000000 1.000000
vn -0.000000 0.000000 1.000000
vn -0.000000 0.000000 1.000000
vn -0.000000 0.000000 1.000000
vn 0.000000 1.000000 0.000000
vn 0.000000 1.000000 0.000000
vn 0.000000 1.000000 0.000000
vn 0.000000 1.000000 0.000000
vn 0.000000 1.000000 0.000000
vn -0.000000 1.000000 -0.000000
vn -0.000000 1.000000 -0.000000
vn -0.000000 1.000000 -0.000000
vn -0.000000 1.000000 -0.000000
vn -0.000000 1.000000 -0.000000
vn 0.686579 0.566627 -0.455568
vn 0.686579 0.566627 -0.455568
vn 0.686579 0.566627 -0.455568
vn 0.000000 -1.000000 0.000000
vn 0.000000 -1.000000 0.000000
vn 0.000000 -1.000000 0.000000
vn 0.000000 -1.000000 0.000000
vn 0.000000 -1.000000 0.000000
s off
f 7/1/1 13/2/2 14/3/3
f 2/4/4 12/5/5 11/6/6
f 27/7/7 23/8/8 22/81/9 4/82/10
f 8/11/11 28/12/12 26/13/13 20/14/14 19/15/15
f 9/16/16 10/17/17 4/18/18
f 32/19/19 19/15/20 6/20/21 10/21/22 9/22/23 30/23/24
f 14/83/25 13/84/26 18/85/27 15/86/28 16/87/29
f 7/32/30 14/24/31 16/31/32 1/33/33 35/34/34 34/35/35
f 1/33/36 24/36/37 21/37/38 3/38/39 40/74/40
f 16/39/41 15/40/42 1/41/43
f 17/42/44 18/43/45 8/44/46
f 19/45/47 20/46/48 6/47/49
f 21/48/50 24/49/51 23/50/52
f 23/50/53 24/49/54 22/51/55
f 28/52/56 27/53/57 26/54/58
f 25/55/59 27/53/60 28/52/61
f 29/56/62 32/57/63 31/58/64
f 31/58/65 32/57/66 30/59/67
f 34/60/68 35/61/69 36/62/70
f 36/62/71 35/61/72 33/63/73
f 35/34/74 40/74/75 39/73/76 37/71/77 5/64/78 33/65/79
f 35/34/80 1/33/81 40/74/82
f 24/36/83 31/66/84 30/23/85 9/22/86 4/10/87 22/9/88
f 31/66/89 15/30/90 2/29/91 11/67/92 29/68/93
f 1/33/94 15/30/95 31/66/96 24/36/97
f 11/67/98 12/28/99 17/27/100 8/11/101 19/15/102 32/19/103 29/68/104
f 36/70/105 18/26/106 13/25/107 7/32/108 34/35/109
f 36/70/110 28/12/111 8/11/112 18/26/113
f 27/7/114 4/82/115 10/88/116 6/89/117 20/90/118 26/91/119
f 5/75/120 37/76/121 38/77/122
f 5/64/123 38/72/124 25/69/125 28/12/126 36/70/127 33/65/128
f 37/92/129 39/93/130 3/94/131 21/95/132 23/8/133
f 38/96/134 37/92/135 23/8/136 27/7/137 25/97/138
f 39/78/139 40/79/140 3/80/141
f 15/86/142 18/85/143 17/98/144 12/99/145 2/100/146
