# This file uses centimeters as units for non-parametric coordinates.

v -50.640038 10.242508 51.422729
v 45.824806 0.000000 51.422729
v -45.998070 300.000061 51.422729
v 43.035744 300.000061 51.422729
v -50.640038 285.133026 -48.577271
v 49.359962 300.000061 -42.039429
v -50.640038 8.032463 -48.577271
v 49.359962 17.973854 -48.577271
v 49.359962 272.523956 51.422729
v 49.359962 300.000061 24.608887
v 49.359962 8.479351 51.422729
v 49.359962 0.000000 43.748657
v -46.761620 0.000000 -48.577271
v -50.640038 0.000000 -41.255005
v -28.788719 0.000000 51.422729
v -50.640038 0.000000 42.625244
v 49.359962 0.000000 -39.212280
v 30.426247 0.000000 -48.577271
v 49.359962 275.565704 -48.577271
v 39.473122 300.000061 -48.577271
v -35.027000 300.000061 51.422729
v -7.562157 300.000061 51.422729
v -25.075096 300.000061 46.799316
v -26.278343 293.242706 51.422729
v 6.403053 300.000061 -48.577271
v 31.005470 300.000061 -48.577271
v 19.511208 300.000061 -44.006470
v 19.500710 292.729980 -48.577271
v 49.359962 149.051651 51.422729
v 49.359962 185.619263 51.422729
v 46.857887 165.858597 51.422729
v 49.359962 168.319855 48.939331
v -50.640038 95.472305 -48.577271
v -50.640038 44.100746 -48.577271
v -50.640038 64.906860 -44.459717
v -47.727196 71.659050 -48.577271
v -50.640038 300.000061 -35.065674
v -46.021263 300.000061 -48.577271
v -50.640038 300.000061 44.531372
v -50.640038 286.999573 51.422729
vt 0.058969 0.354069
vt 0.058945 0.354079
vt 0.058978 0.354104
vt 0.058198 0.354317
vt 0.058196 0.354292
vt 0.058181 0.354289
vt 0.209095 0.940752
vt 0.159028 0.838784
vt 0.178693 0.833592
vt 0.235511 0.833592
vt 0.206579 0.866706
vt 0.492869 0.719881
vt 0.130320 0.937662
vt 0.134676 0.945885
vt 0.312065 0.971439
vt 0.058136 0.353862
vt 0.058180 0.353730
vt 0.058154 0.353771
vt 0.304993 0.995301
vt 0.221352 0.945885
vt 0.154858 0.833592
vt 0.232898 0.995301
vt 0.203893 0.968469
vt 0.130320 0.843471
vt 0.242613 0.863702
vt 0.242613 0.938543
vt 0.231511 0.945885
vt 0.222002 0.945885
vt 0.130320 0.930712
vt 0.130320 0.841331
vt 0.135533 0.833592
vt 0.203893 0.883600
vt 0.312065 0.710173
vt 0.304144 0.702329
vt 0.213409 0.702329
vt 0.460570 0.988202
vt 0.147852 0.833592
vt 0.135507 0.945885
vt 0.059059 0.354304
vt 0.058899 0.354330
vt 0.059073 0.354315
vt 0.058293 0.354101
vt 0.058419 0.354072
vt 0.058307 0.354048
vt 0.058283 0.353716
vt 0.058342 0.353655
vt 0.058272 0.353660
vt 0.058988 0.353778
vt 0.058912 0.353799
vt 0.058909 0.353773
vt 0.058744 0.353776
vt 0.058471 0.353665
vt 0.058460 0.353663
vt 0.058396 0.353655
vt 0.058553 0.353656
vt 0.058177 0.354256
vt 0.058175 0.354184
vt 0.058182 0.354199
vt 0.058165 0.354135
vt 0.058972 0.354025
vt 0.058981 0.353986
vt 0.058968 0.353959
vt 0.058981 0.353895
vt 0.203893 0.712331
vt 0.307610 0.765715
vt 0.473015 0.995301
vt 0.312065 0.745396
vt 0.203893 0.982606
vt 0.194375 0.945885
vt 0.482175 0.995301
vt 0.242613 0.935369
vt 0.242613 0.842210
vt 0.238643 0.833592
vt 0.211347 0.995301
vt 0.059432 0.354034
vt 0.059250 0.353852
vt 0.059488 0.353877
vt 0.058555 0.353587
vt 0.058488 0.353647
vt 0.058534 0.353521
vt 0.492869 0.971439
vt 0.384698 0.712331
vt 0.411050 0.988703
vt 0.401587 0.995301
vt 0.389719 0.995301
vt 0.384698 0.982606
vt 0.490163 0.864302
vt 0.492869 0.883600
vt 0.492869 0.968469
vt 0.486029 0.995301
vt 0.431296 0.995301
vt 0.408335 0.702329
vt 0.489046 0.702329
vt 0.492869 0.710609
vt 0.492869 0.847889
vt 0.387849 0.772309
vt 0.472389 0.702329
vt 0.388893 0.702329
vt 0.384698 0.710173
vt 0.384698 0.745396
vt 0.384698 0.980783
vt 0.389694 0.995301
vt 0.446402 0.995301
vt 0.384698 0.795565
vt 0.297449 0.995301
vt 0.312065 0.980783
vt 0.312065 0.795565
vt 0.203893 0.710609
vt 0.212194 0.702329
vt 0.301935 0.702329
vt 0.312065 0.719881
vt 0.203893 0.847889
vn -0.812795 -0.392453 -0.430517
vn -0.812795 -0.392453 -0.430517
vn -0.812795 -0.392453 -0.430517
vn 0.849404 -0.354128 0.391288
vn 0.849404 -0.354128 0.391288
vn 0.849404 -0.354128 0.391288
vn 0.000000 1.000000 0.000000
vn 0.000000 1.000000 0.000000
vn 0.000000 1.000000 0.000000
vn 0.000000 1.000000 0.000000
vn 0.000000 0.000000 -1.000000
vn 0.000000 0.000000 -1.000000
vn 0.000000 0.000000 -1.000000
vn 0.000000 0.000000 -1.000000
vn 0.000000 0.000000 -1.000000
vn 0.949754 0.218606 0.224005
vn 0.949754 0.218606 0.224005
vn 0.949754 0.218606 0.224005
vn 1.000000 0.000000 0.000000
vn 1.000000 0.000000 0.000000
vn 1.000000 0.000000 0.000000
vn 1.000000 0.000000 0.000000
vn 1.000000 0.000000 0.000000
vn 1.000000 0.000000 0.000000
vn 0.000000 -1.000000 0.000000
vn 0.000000 -1.000000 0.000000
vn 0.000000 -1.000000 0.000000
vn 0.000000 -1.000000 0.000000
vn 0.000000 -1.000000 0.000000
vn -1.000000 -0.000000 0.000000
vn -1.000000 -0.000000 0.000000
vn -1.000000 -0.000000 0.000000
vn -1.000000 -0.000000 0.000000
vn -1.000000 -0.000000 0.000000
vn -1.000000 -0.000000 0.000000
vn 0.000001 0.000000 1.000000
vn 0.000001 0.000000 1.000000
vn 0.000001 0.000000 1.000000
vn 0.000001 0.000000 1.000000
vn 0.000001 0.000000 1.000000
vn -0.292094 -0.623153 0.725508
vn -0.292094 -0.623153 0.725508
vn -0.292094 -0.623153 0.725508
vn 0.401702 -0.423154 -0.812143
vn 0.401702 -0.423154 -0.812143
vn 0.401702 -0.423154 -0.812143
vn 0.538335 0.217825 -0.814094
vn 0.538335 0.217825 -0.814094
vn 0.538334 0.217825 -0.814093
vn 0.369880 0.478879 0.796156
vn 0.369880 0.478879 0.796156
vn 0.369880 0.478879 0.796156
vn -0.208427 0.577291 0.789489
vn -0.208427 0.577291 0.789489
vn -0.208427 0.577291 0.789489
vn -0.318982 0.504782 -0.802151
vn -0.318982 0.504782 -0.802151
vn -0.318982 0.504782 -0.802150
vn 0.283184 0.510179 -0.812111
vn 0.283184 0.510179 -0.812111
vn 0.283184 0.510179 -0.812111
vn 0.651451 0.096982 0.752467
vn 0.651451 0.096982 0.752467
vn 0.651451 0.096982 0.752467
vn 0.746600 -0.094534 0.658523
vn 0.746600 -0.094534 0.658523
vn 0.746600 -0.094534 0.658523
vn -0.878266 0.092830 -0.469075
vn -0.878266 0.092830 -0.469075
vn -0.878266 0.092830 -0.469075
vn -0.737323 -0.090189 -0.669493
vn -0.737323 -0.090189 -0.669493
vn -0.737323 -0.090189 -0.669493
vn -1.000000 0.000000 0.000000
vn -1.000000 0.000000 0.000000
vn -1.000000 0.000000 0.000000
vn -1.000000 0.000000 0.000000
vn -1.000000 0.000000 0.000000
vn -1.000000 0.000000 0.000000
vn -1.000000 0.000000 0.000000
vn -1.000000 0.000000 0.000000
vn -1.000000 0.000000 0.000000
vn -0.000000 0.000000 1.000000
vn -0.000000 0.000000 1.000000
vn -0.000000 0.000000 1.000000
vn -0.000000 0.000000 1.000000
vn -0.000000 0.000000 1.000000
vn -0.000000 0.000000 1.000000
vn -0.000000 0.000000 1.000000
vn -0.000000 0.000000 1.000000
vn -0.000000 0.000000 1.000000
vn -0.000000 0.000000 1.000000
vn -0.000000 0.000000 1.000000
vn -0.000000 0.000000 1.000000
vn -0.000000 0.000000 1.000000
vn -0.000000 0.000000 1.000000
vn -0.000000 0.000000 1.000000
vn 1.000000 -0.000000 0.000000
vn 1.000000 -0.000000 0.000000
vn 1.000000 -0.000000 0.000000
vn 1.000000 -0.000000 0.000000
vn 1.000000 -0.000000 0.000000
vn 1.000000 -0.000000 0.000000
vn 1.000000 -0.000000 0.000000
vn 0.000000 0.000000 -1.000000
vn 0.000000 0.000000 -1.000000
vn 0.000000 0.000000 -1.000000
vn 0.000000 0.000000 -1.000000
vn 0.000000 0.000000 -1.000000
vn -0.000000 0.000000 -1.000000
vn -0.000000 0.000000 -1.000000
vn -0.000000 0.000000 -1.000000
vn -0.000000 0.000000 -1.000000
vn 0.000000 1.000000 0.000000
vn 0.000000 1.000000 0.000000
vn 0.000000 1.000000 0.000000
vn 0.000000 1.000000 0.000000
vn 0.000000 1.000000 0.000000
vn 0.000000 1.000000 0.000000
vn -0.907827 0.282037 -0.310330
vn -0.907827 0.282037 -0.310330
vn -0.907827 0.282037 -0.310330
vn 0.000000 0.000000 -1.000000
vn 0.000000 0.000000 -1.000000
vn 0.000000 0.000000 -1.000000
vn 0.000000 0.000000 -1.000000
vn 0.000000 0.000000 -1.000000
vn 0.000000 0.000000 -1.000000
vn 0.000000 1.000000 0.000000
vn 0.000000 1.000000 0.000000
vn 0.000000 1.000000 0.000000
vn 0.000000 1.000000 0.000000
vn 0.000000 1.000000 0.000000
vn 0.000000 1.000000 -0.000000
vn 0.000000 1.000000 -0.000000
vn 0.000000 1.000000 -0.000000
vn 0.000000 1.000000 -0.000000
vn 0.000000 1.000000 -0.000000
vn -0.795251 0.283954 0.535674
vn -0.795251 0.283954 0.535674
vn -0.795251 0.283954 0.535674
vn 0.000000 -1.000000 0.000000
vn 0.000000 -1.000000 0.000000
vn 0.000000 -1.000000 0.000000
vn 0.000000 -1.000000 0.000000
vn 0.000000 -1.000000 0.000000
s off
f 7/1/1 13/2/2 14/3/3
f 2/4/4 12/5/5 11/6/6
f 27/7/7 23/8/8 22/9/9 4/10/10
f 8/12/11 28/36/12 26/66/13 20/70/14 19/81/15
f 9/16/16 10/17/17 4/18/18
f 32/11/19 19/15/20 6/19/21 10/22/22 9/23/23 30/32/24
f 14/13/25 13/14/26 18/20/27 15/21/28 16/24/29
f 7/33/30 14/34/31 16/35/32 1/64/33 35/65/34 34/67/35
f 1/82/36 24/83/37 21/84/38 3/85/39 40/86/40
f 16/39/41 15/40/42 1/41/43
f 17/42/44 18/43/45 8/44/46
f 19/45/47 20/46/48 6/47/49
f 21/48/50 24/49/51 23/50/52
f 23/50/53 24/49/54 22/51/55
f 28/52/56 27/53/57 26/54/58
f 25/55/59 27/53/60 28/52/61
f 29/56/62 32/57/63 31/58/64
f 31/58/65 32/57/66 30/59/67
f 34/60/68 35/61/69 36/62/70
f 36/62/71 35/61/72 33/63/73
f 35/65/74 40/68/75 39/74/76 37/105/77 5/106/78 33/107/79
f 35/65/80 1/64/81 40/68/82
f 24/83/83 31/87/84 30/88/85 9/89/86 4/90/87 22/91/88
f 31/87/89 15/92/90 2/93/91 11/94/92 29/95/93
f 1/82/94 15/92/95 31/87/96 24/83/97
f 11/108/98 12/109/99 17/110/100 8/111/101 19/15/102 32/11/103 29/112/104
f 36/96/105 18/97/106 13/98/107 7/99/108 34/100/109
f 36/96/110 28/36/111 8/12/112 18/97/113
f 27/7/114 4/10/115 10/25/116 6/26/117 20/27/118 26/28/119
f 5/75/120 37/76/121 38/77/122
f 5/101/123 38/102/124 25/103/125 28/36/126 36/96/127 33/104/128
f 37/29/129 39/30/130 3/31/131 21/37/132 23/8/133
f 38/38/134 37/29/135 23/8/136 27/7/137 25/69/138
f 39/78/139 40/79/140 3/80/141
f 15/21/142 18/20/143 17/71/144 12/72/145 2/73/146
