# This file uses centimeters as units for non-parametric coordinates.

v -90.247070 0.000000 2.810303
v -87.791351 0.000000 2.810303
v -91.149261 292.117218 2.810303
v -88.693542 292.117218 2.810303
v -91.149261 292.117218 0.354614
v -88.693542 292.117218 0.354614
v -90.247070 0.000000 0.354614
v -87.791351 0.000000 0.354614
v -19.386566 0.000000 2.810303
v -16.930847 0.000000 2.810303
v -19.214020 292.117218 4.666626
v -16.758301 292.117218 4.666626
v -19.214020 292.117218 2.210938
v -16.758301 292.117218 2.210938
v -19.386566 0.000000 0.354614
v -16.930847 0.000000 0.354614
v -53.557648 0.000000 -0.598877
v -51.101929 0.000000 -0.598877
v -53.959290 292.117218 2.810303
v -51.503571 292.117218 2.810303
v -53.959290 292.117218 0.354614
v -51.503571 292.117218 0.354614
v -53.557648 0.000000 -3.054626
v -51.101929 0.000000 -3.054626
v -117.772614 91.018394 3.594055
v -117.772583 90.391205 1.375183
v -117.772583 93.622452 1.375183
v -117.772614 92.995270 3.594055
v -117.772614 62.916851 3.594055
v -117.772583 62.289661 1.375183
v -117.772583 65.520912 1.375183
v -117.772614 64.893715 3.594055
v -117.772614 31.226210 5.450378
v -117.772583 30.599020 3.231506
v -117.772583 33.830276 3.231506
v -117.772614 33.203087 5.450378
v -18.261322 31.226210 5.450378
v -18.261322 33.203087 5.450378
v -18.261322 33.830276 3.231506
v -18.261322 30.599020 3.231506
v -18.868057 94.086349 0.983917
v -18.868057 96.063225 0.983917
v -18.868027 96.690407 -1.234955
v -18.868027 93.459160 -1.234955
v -93.179352 34.186420 3.594055
v -93.179321 33.559227 1.375183
v -93.179321 36.790482 1.375183
v -93.179352 36.163292 3.594055
v -21.007904 99.210732 2.810303
v -18.552185 99.210732 2.810303
v -18.552185 99.210732 0.354614
v -21.007904 99.210732 0.354614
v -54.863083 29.128885 2.810303
v -52.407364 29.128885 2.810303
v -52.407364 29.128885 0.354614
v -54.863083 29.128885 0.354614
v -53.486710 62.916851 5.900146
v -53.486710 62.289661 3.681274
v -53.486710 65.520912 3.681274
v -53.486710 64.893715 5.900146
v -87.639771 62.916851 0.613586
v -87.639740 62.289661 -1.605286
v -87.639740 65.520912 -1.605286
v -87.639771 64.893715 0.613586
v 16.058197 0.000000 2.810303
v 18.513916 0.000000 2.810303
v 15.156006 292.117218 2.810303
v 17.611725 292.117218 2.810303
v 15.156006 292.117218 0.354614
v 17.611725 292.117218 0.354614
v 16.058197 0.000000 0.354614
v 18.513916 0.000000 0.354614
v 86.918694 0.000000 2.810303
v 89.374413 0.000000 2.810303
v 87.091225 292.117218 4.666626
v 89.546944 292.117218 4.666626
v 87.091225 292.117218 2.210938
v 89.546944 292.117218 2.210938
v 86.918694 0.000000 0.354614
v 89.374413 0.000000 0.354614
v 52.747604 0.000000 -0.598877
v 55.203323 0.000000 -0.598877
v 52.345963 292.117218 2.810303
v 54.801682 292.117218 2.810303
v 52.345963 292.117218 0.354614
v 54.801682 292.117218 0.354614
v 52.747604 0.000000 -3.054626
v 55.203323 0.000000 -3.054626
v 116.492592 31.279509 3.594055
v 116.492592 33.256386 3.594055
v 116.492569 33.883575 1.375183
v 116.492569 30.652319 1.375183
v 116.492584 62.916851 3.594055
v 116.492584 64.893715 3.594055
v 116.492561 65.520912 1.375183
v 116.492561 62.289661 1.375183
v 116.492577 94.585678 3.594055
v 116.492577 96.562553 3.594055
v 116.492561 97.189735 1.375183
v 116.492561 93.958488 1.375183
v 13.125916 34.186420 3.594055
v 13.125916 33.559227 1.375183
v 13.125916 36.790482 1.375183
v 13.125916 36.163292 3.594055
v 85.297348 99.210732 2.810303
v 87.753067 99.210732 2.810303
v 87.753067 99.210732 0.354614
v 85.297348 99.210732 0.354614
v 51.442169 29.128885 2.810303
v 53.897888 29.128885 2.810303
v 53.897888 29.128885 0.354614
v 51.442169 29.128885 0.354614
v 52.818542 62.916851 5.900146
v 52.818542 62.289661 3.681274
v 52.818542 65.520912 3.681274
v 52.818542 64.893715 5.900146
v 18.665482 62.916851 0.613586
v 18.665497 62.289661 -1.605286
v 18.665497 65.520912 -1.605286
v 18.665482 64.893715 0.613586
v 53.471802 91.782928 1.618561
v 53.471817 91.155739 -0.600342
v 53.471817 94.386986 -0.600342
v 53.471802 93.759796 1.618561
vt 0.026050 0.284555
vt 0.026037 0.284556
vt 0.026056 0.251113
vt 0.026070 0.251112
vt 0.026068 0.251102
vt 0.026053 0.251104
vt 0.026035 0.284547
vt 0.026048 0.284545
vt 0.025671 0.284595
vt 0.025658 0.284596
vt 0.025646 0.284119
vt 0.025661 0.284117
vt 0.025659 0.284108
vt 0.025645 0.284109
vt 0.025656 0.284587
vt 0.025670 0.284585
vt 0.025857 0.284575
vt 0.025844 0.284577
vt 0.025847 0.284099
vt 0.025862 0.284098
vt 0.025860 0.284088
vt 0.025845 0.284090
vt 0.025842 0.284567
vt 0.025855 0.284566
vt 0.026211 0.284401
vt 0.026211 0.284409
vt 0.025484 0.284484
vt 0.025483 0.284476
vt 0.026198 0.284391
vt 0.025494 0.284463
vt 0.025495 0.284476
vt 0.026197 0.284404
vt 0.026226 0.284284
vt 0.026225 0.284292
vt 0.026212 0.284274
vt 0.026211 0.284287
vt 0.026236 0.284156
vt 0.026235 0.284164
vt 0.025477 0.251273
vt 0.025476 0.251264
vt 0.026221 0.284146
vt 0.025487 0.251252
vt 0.025488 0.251265
vt 0.026221 0.284160
vt 0.026071 0.251457
vt 0.026062 0.251452
vt 0.026062 0.251439
vt 0.026071 0.251450
vt 0.025662 0.251221
vt 0.025648 0.251222
vt 0.025646 0.251212
vt 0.025661 0.251211
vt 0.025858 0.251489
vt 0.025845 0.251491
vt 0.025843 0.251481
vt 0.025856 0.251480
vt 0.025867 0.251362
vt 0.025864 0.251356
vt 0.025865 0.251342
vt 0.025867 0.251354
vt 0.026044 0.284310
vt 0.026036 0.284305
vt 0.026036 0.284291
vt 0.026045 0.284302
vt 0.026050 0.284555
vt 0.026037 0.284556
vt 0.026056 0.284079
vt 0.026070 0.284078
vt 0.026068 0.284068
vt 0.026053 0.284070
vt 0.026035 0.284547
vt 0.026048 0.284545
vt 0.025662 0.284187
vt 0.025648 0.284188
vt 0.025646 0.251153
vt 0.025661 0.251151
vt 0.025659 0.251142
vt 0.025645 0.251143
vt 0.025646 0.284178
vt 0.025661 0.284177
vt 0.025858 0.251489
vt 0.025845 0.251491
vt 0.025847 0.284099
vt 0.025862 0.284098
vt 0.025860 0.284088
vt 0.025845 0.284090
vt 0.025843 0.251481
vt 0.025856 0.251480
vt 0.026071 0.251450
vt 0.026071 0.251457
vt 0.025484 0.284484
vt 0.025483 0.284476
vt 0.026062 0.251439
vt 0.025494 0.284463
vt 0.025495 0.284476
vt 0.026062 0.251452
vt 0.025867 0.251354
vt 0.025867 0.251362
vt 0.025480 0.284367
vt 0.025480 0.284359
vt 0.025865 0.251342
vt 0.025490 0.284346
vt 0.025491 0.284360
vt 0.025864 0.251356
vt 0.026236 0.251190
vt 0.026235 0.251198
vt 0.025477 0.284239
vt 0.025476 0.284231
vt 0.026221 0.251180
vt 0.025487 0.284218
vt 0.025488 0.284232
vt 0.026221 0.251193
vt 0.025658 0.251630
vt 0.025671 0.251629
vt 0.025670 0.251619
vt 0.025656 0.251620
vt 0.025844 0.284577
vt 0.025857 0.284575
vt 0.025855 0.284566
vt 0.025842 0.284567
vt 0.026211 0.284409
vt 0.026197 0.284404
vt 0.026198 0.284391
vt 0.026211 0.284401
vt 0.026044 0.284310
vt 0.026036 0.284305
vt 0.026036 0.284291
vt 0.026045 0.284302
vt 0.026051 0.284183
vt 0.026042 0.284177
vt 0.026043 0.284163
vt 0.026051 0.284174
vn 0.000000 0.000000 1.000000
vn 0.000000 0.000000 1.000000
vn 0.000000 0.000000 1.000000
vn 0.000000 0.000000 1.000000
vn 0.000000 0.000000 -1.000000
vn 0.000000 0.000000 -1.000000
vn 0.000000 0.000000 -1.000000
vn 0.000000 0.000000 -1.000000
vn 0.999995 0.003088 0.000000
vn 0.999995 0.003088 0.000000
vn 0.999995 0.003088 0.000000
vn 0.999995 0.003088 0.000000
vn -0.999995 -0.003088 0.000000
vn -0.999995 -0.003088 0.000000
vn -0.999995 -0.003088 0.000000
vn -0.999995 -0.003088 0.000000
vn 0.000000 -0.006364 0.999980
vn 0.000000 -0.006345 0.999980
vn 0.000000 -0.009622 0.999954
vn 0.000000 -0.009622 0.999954
vn 0.000000 0.009622 -0.999954
vn 0.000000 0.009622 -0.999954
vn 0.000000 0.006345 -0.999980
vn 0.000000 0.006364 -0.999980
vn 1.000000 -0.000626 0.000000
vn 1.000000 -0.000555 0.000000
vn 0.999957 -0.009299 0.000000
vn 0.999957 -0.009299 0.000000
vn -1.000000 0.000555 0.000000
vn -1.000000 0.000626 0.000000
vn -0.999957 0.009299 0.000000
vn -0.999957 0.009299 0.000000
vn 0.000000 -0.011394 0.999935
vn 0.000000 -0.011943 0.999929
vn 0.000000 0.000000 1.000000
vn 0.000000 0.000000 1.000000
vn 0.000000 0.000000 -1.000000
vn 0.000000 0.000000 -1.000000
vn 0.000000 0.011943 -0.999929
vn 0.000000 0.011394 -0.999935
vn 0.999999 0.001052 0.000000
vn 0.999999 0.001694 0.000000
vn 0.999994 -0.003437 0.000000
vn 0.999994 -0.003437 0.000000
vn -0.999999 -0.001694 0.000000
vn -0.999999 -0.001052 0.000000
vn -0.999994 0.003437 0.000000
vn -0.999994 0.003437 0.000000
vn -0.000987 0.000000 1.000000
vn 0.000915 0.000000 1.000000
vn -0.024770 0.000000 0.999693
vn -0.024770 0.000000 0.999693
vn 0.001085 0.962295 0.272005
vn -0.001016 0.962295 0.272005
vn 0.031268 0.961825 0.271872
vn 0.031268 0.961825 0.271872
vn -0.044718 -0.961333 0.271733
vn -0.044718 -0.961333 0.271733
vn 0.000561 -0.962296 0.272005
vn -0.000575 -0.962296 0.272005
vn 0.024770 0.000000 -0.999693
vn 0.024770 0.000000 -0.999693
vn -0.000915 0.000000 -1.000000
vn 0.000987 0.000000 -1.000000
vn -0.000000 0.000000 1.000000
vn -0.000000 0.000000 1.000000
vn -0.000000 0.000000 1.000000
vn -0.000000 0.000000 1.000000
vn -0.000628 0.962295 0.272008
vn 0.000709 0.962295 0.272008
vn -0.000628 0.962295 0.272008
vn 0.000709 0.962295 0.272008
vn 0.000709 -0.962296 0.272005
vn -0.000628 -0.962296 0.272005
vn 0.000709 -0.962296 0.272005
vn -0.000628 -0.962296 0.272005
vn 0.000000 0.000000 -1.000000
vn 0.000000 0.000000 -1.000000
vn 0.000000 0.000000 -1.000000
vn 0.000000 0.000000 -1.000000
vn 0.026381 0.000000 0.999652
vn 0.026381 0.000000 0.999652
vn 0.026381 0.000000 0.999652
vn 0.026381 0.000000 0.999652
vn -0.022666 0.962050 0.271932
vn -0.022666 0.962050 0.271932
vn -0.022666 0.962050 0.271932
vn -0.022666 0.962050 0.271932
vn 0.037003 -0.961638 0.271815
vn 0.037003 -0.961638 0.271815
vn 0.037003 -0.961638 0.271815
vn 0.037003 -0.961638 0.271815
vn -0.026381 0.000000 -0.999652
vn -0.026381 0.000000 -0.999652
vn -0.026381 0.000000 -0.999652
vn -0.026381 0.000000 -0.999652
vn 0.000000 1.000000 0.000000
vn 0.000000 1.000000 0.000000
vn 0.000000 1.000000 0.000000
vn 0.000000 1.000000 0.000000
vn 0.000000 1.000000 0.000000
vn 0.000000 1.000000 0.000000
vn 0.000000 1.000000 0.000000
vn 0.000000 1.000000 0.000000
vn 0.000000 1.000000 0.000000
vn 0.000000 1.000000 0.000000
vn 0.000000 1.000000 0.000000
vn 0.000000 1.000000 0.000000
vn 0.000000 -1.000000 0.000000
vn 0.000000 -1.000000 0.000000
vn 0.000000 -1.000000 0.000000
vn 0.000000 -1.000000 0.000000
vn 0.000000 -1.000000 0.000000
vn 0.000000 -1.000000 0.000000
vn 0.000000 -1.000000 0.000000
vn 0.000000 -1.000000 0.000000
vn 0.000000 -1.000000 0.000000
vn 0.000000 -1.000000 0.000000
vn 0.000000 -1.000000 0.000000
vn 0.000000 -1.000000 0.000000
vn -1.000000 0.000000 -0.000014
vn -1.000000 0.000000 -0.000014
vn -1.000000 0.000000 -0.000014
vn -1.000000 0.000000 -0.000014
vn -1.000000 0.000000 -0.000014
vn -1.000000 0.000000 -0.000014
vn -1.000000 0.000000 -0.000014
vn -1.000000 0.000000 -0.000014
vn -1.000000 0.000000 -0.000014
vn -1.000000 0.000000 -0.000014
vn -1.000000 0.000000 -0.000014
vn -1.000000 0.000000 -0.000014
vn -0.000575 -0.962296 0.272005
vn 0.000561 -0.962296 0.272005
vn 0.135109 -0.953472 0.269512
vn 0.135109 -0.953472 0.269512
vn 0.000987 0.000000 -1.000000
vn -0.000915 0.000000 -1.000000
vn -0.075267 0.000000 -0.997163
vn -0.075267 0.000000 -0.997163
vn -0.094867 0.957956 0.270776
vn -0.094867 0.957956 0.270776
vn -0.001016 0.962295 0.272005
vn 0.001085 0.962295 0.272005
vn 0.075267 0.000000 0.997164
vn 0.075267 0.000000 0.997163
vn 0.000915 0.000000 1.000000
vn -0.000987 0.000000 1.000000
vn 0.000000 0.000000 1.000000
vn 0.000000 0.000000 1.000000
vn 0.000000 -0.006345 0.999980
vn 0.000000 -0.006364 0.999980
vn 0.999867 0.016340 0.000000
vn 0.999867 0.016340 0.000000
vn 1.000000 -0.000555 0.000000
vn 1.000000 -0.000626 0.000000
vn 0.000000 0.006364 -0.999980
vn 0.000000 0.006345 -0.999980
vn 0.000000 0.000000 -1.000000
vn 0.000000 0.000000 -1.000000
vn -0.999867 -0.016340 0.000000
vn -0.999867 -0.016340 0.000000
vn -1.000000 0.000626 0.000000
vn -1.000000 0.000555 0.000000
vn 0.000000 -0.116244 0.993221
vn 0.000000 -0.116244 0.993221
vn 0.000000 -0.011943 0.999929
vn 0.000000 -0.011394 0.999935
vn 0.998997 0.044771 0.000000
vn 0.998997 0.044771 0.000000
vn 0.999999 0.001694 0.000000
vn 0.999999 0.001052 0.000000
vn 0.000000 0.011394 -0.999935
vn 0.000000 0.011943 -0.999929
vn 0.000000 0.116246 -0.993221
vn 0.000000 0.116246 -0.993221
vn -0.998997 -0.044771 0.000000
vn -0.998997 -0.044771 0.000000
vn -0.999999 -0.001052 0.000000
vn -0.999999 -0.001694 0.000000
vn -0.000628 -0.962296 0.272005
vn 0.000709 -0.962296 0.272005
vn -0.010293 -0.962245 0.271990
vn -0.009130 -0.962256 0.271993
vn 0.000000 0.000000 -1.000000
vn 0.000000 0.000000 -1.000000
vn 0.035849 0.000000 -0.999357
vn 0.035849 0.000000 -0.999357
vn -0.009130 0.962255 0.271996
vn -0.010293 0.962244 0.271993
vn 0.000709 0.962295 0.272008
vn -0.000628 0.962295 0.272008
vn -0.035849 0.000000 0.999357
vn -0.035849 0.000000 0.999357
vn -0.000000 0.000000 1.000000
vn -0.000000 0.000000 1.000000
vn -0.009130 -0.962256 0.271993
vn -0.010293 -0.962245 0.271990
vn 0.026894 -0.961948 0.271907
vn 0.026894 -0.961948 0.271907
vn 0.035849 0.000000 -0.999357
vn 0.035849 0.000000 -0.999357
vn -0.098431 0.000000 -0.995144
vn -0.098431 0.000000 -0.995144
vn 0.026895 0.961947 0.271910
vn 0.026895 0.961947 0.271910
vn -0.010293 0.962244 0.271993
vn -0.009130 0.962255 0.271996
vn 0.098431 0.000000 0.995144
vn 0.098431 0.000000 0.995144
vn -0.035849 0.000000 0.999357
vn -0.035849 0.000000 0.999357
vn 0.000000 0.000000 1.000000
vn 0.000000 0.000000 1.000000
vn 0.000000 0.000000 1.000000
vn 0.000000 0.000000 1.000000
vn 0.000000 0.000000 -1.000000
vn 0.000000 0.000000 -1.000000
vn 0.000000 0.000000 -1.000000
vn 0.000000 0.000000 -1.000000
vn 0.999995 0.003088 0.000000
vn 0.999995 0.003088 0.000000
vn 0.999995 0.003088 0.000000
vn 0.999995 0.003088 0.000000
vn -0.999995 -0.003088 0.000000
vn -0.999995 -0.003088 0.000000
vn -0.999995 -0.003088 0.000000
vn -0.999995 -0.003088 0.000000
vn 0.000000 -0.006364 0.999980
vn 0.000000 -0.006345 0.999980
vn 0.000000 -0.009622 0.999954
vn 0.000000 -0.009622 0.999954
vn 0.000000 0.009622 -0.999954
vn 0.000000 0.009622 -0.999954
vn 0.000000 0.006345 -0.999980
vn 0.000000 0.006364 -0.999980
vn 1.000000 -0.000626 0.000000
vn 1.000000 -0.000555 0.000000
vn 0.999957 -0.009299 0.000000
vn 0.999957 -0.009299 0.000000
vn -1.000000 0.000555 0.000000
vn -1.000000 0.000626 0.000000
vn -0.999957 0.009299 0.000000
vn -0.999957 0.009299 0.000000
vn 0.000000 -0.011394 0.999935
vn 0.000000 -0.011943 0.999929
vn 0.000000 0.000000 1.000000
vn 0.000000 0.000000 1.000000
vn 0.000000 0.000000 -1.000000
vn 0.000000 0.000000 -1.000000
vn 0.000000 0.011943 -0.999929
vn 0.000000 0.011394 -0.999935
vn 0.999999 0.001052 0.000000
vn 0.999999 0.001694 0.000000
vn 0.999994 -0.003437 0.000000
vn 0.999994 -0.003437 0.000000
vn -0.999999 -0.001694 0.000000
vn -0.999999 -0.001052 0.000000
vn -0.999994 0.003437 0.000000
vn -0.999994 0.003437 0.000000
vn 0.013320 0.000000 0.999911
vn 0.014205 0.000000 0.999899
vn -0.000000 0.000000 1.000000
vn -0.000000 0.000000 1.000000
vn 0.004242 0.962287 0.272002
vn 0.002518 0.962293 0.272004
vn 0.027052 0.961944 0.271905
vn 0.027052 0.961944 0.271905
vn -0.027052 -0.961944 0.271904
vn -0.027052 -0.961944 0.271904
vn 0.004717 -0.962286 0.272000
vn 0.003537 -0.962290 0.272002
vn -0.000000 0.000000 -1.000000
vn -0.000000 0.000000 -1.000000
vn -0.014205 0.000000 -0.999899
vn -0.013320 0.000000 -0.999911
vn -0.030453 0.000000 0.999536
vn -0.030453 0.000000 0.999536
vn 0.036193 0.000000 0.999345
vn 0.036193 0.000000 0.999345
vn -0.009097 0.962255 0.271997
vn -0.007396 0.962269 0.272001
vn 0.009851 0.962248 0.271996
vn 0.009851 0.962248 0.271996
vn 0.009851 -0.962250 0.271990
vn 0.009851 -0.962250 0.271990
vn -0.007396 -0.962270 0.271996
vn -0.009097 -0.962257 0.271992
vn -0.036193 0.000000 -0.999345
vn -0.036193 0.000000 -0.999345
vn 0.030453 0.000000 -0.999536
vn 0.030453 0.000000 -0.999536
vn -0.019323 0.000000 0.999813
vn -0.019233 0.000000 0.999815
vn -0.031331 0.000000 0.999509
vn -0.031331 0.000000 0.999509
vn -0.008352 0.962264 0.271989
vn -0.009237 0.962257 0.271987
vn -0.051256 0.961033 0.271641
vn -0.051256 0.961033 0.271641
vn 0.034250 -0.961732 0.271842
vn 0.034250 -0.961732 0.271842
vn -0.001253 -0.962296 0.272003
vn -0.002148 -0.962294 0.272002
vn 0.031332 0.000000 -0.999509
vn 0.031332 0.000000 -0.999509
vn 0.019233 0.000000 -0.999815
vn 0.019323 0.000000 -0.999813
vn 0.000000 1.000000 0.000000
vn 0.000000 1.000000 0.000000
vn 0.000000 1.000000 0.000000
vn 0.000000 1.000000 0.000000
vn 0.000000 1.000000 0.000000
vn 0.000000 1.000000 0.000000
vn 0.000000 1.000000 0.000000
vn 0.000000 1.000000 0.000000
vn 0.000000 1.000000 0.000000
vn 0.000000 1.000000 0.000000
vn 0.000000 1.000000 0.000000
vn 0.000000 1.000000 0.000000
vn 0.000000 -1.000000 0.000000
vn 0.000000 -1.000000 0.000000
vn 0.000000 -1.000000 0.000000
vn 0.000000 -1.000000 0.000000
vn 0.000000 -1.000000 0.000000
vn 0.000000 -1.000000 0.000000
vn 0.000000 -1.000000 0.000000
vn 0.000000 -1.000000 0.000000
vn 0.000000 -1.000000 0.000000
vn 0.000000 -1.000000 0.000000
vn 0.000000 -1.000000 0.000000
vn 0.000000 -1.000000 0.000000
vn 1.000000 0.000000 -0.000010
vn 1.000000 0.000000 -0.000010
vn 1.000000 0.000000 -0.000010
vn 1.000000 0.000000 -0.000010
vn 1.000000 0.000000 -0.000010
vn 1.000000 0.000000 -0.000010
vn 1.000000 0.000000 -0.000010
vn 1.000000 0.000000 -0.000010
vn 1.000000 0.000000 -0.000007
vn 1.000000 0.000000 -0.000007
vn 1.000000 0.000000 -0.000007
vn 1.000000 0.000000 -0.000007
vn 0.003537 -0.962290 0.272002
vn 0.004717 -0.962286 0.272000
vn 0.106239 -0.956850 0.270464
vn 0.106239 -0.956850 0.270464
vn -0.013320 0.000000 -0.999911
vn -0.014205 0.000000 -0.999899
vn -0.059039 0.000000 -0.998256
vn -0.059039 0.000000 -0.998256
vn -0.074462 0.959624 0.271249
vn -0.074462 0.959624 0.271249
vn 0.002518 0.962293 0.272004
vn 0.004242 0.962287 0.272002
vn 0.059039 0.000000 0.998256
vn 0.059039 0.000000 0.998256
vn 0.014205 0.000000 0.999899
vn 0.013320 0.000000 0.999911
vn 0.000000 0.000000 1.000000
vn 0.000000 0.000000 1.000000
vn 0.000000 -0.006345 0.999980
vn 0.000000 -0.006364 0.999980
vn 0.999867 0.016340 0.000000
vn 0.999867 0.016340 0.000000
vn 1.000000 -0.000555 0.000000
vn 1.000000 -0.000626 0.000000
vn 0.000000 0.006364 -0.999980
vn 0.000000 0.006345 -0.999980
vn 0.000000 0.000000 -1.000000
vn 0.000000 0.000000 -1.000000
vn -0.999867 -0.016340 0.000000
vn -0.999867 -0.016340 0.000000
vn -1.000000 0.000626 0.000000
vn -1.000000 0.000555 0.000000
vn 0.000000 -0.116244 0.993221
vn 0.000000 -0.116244 0.993221
vn 0.000000 -0.011943 0.999929
vn 0.000000 -0.011394 0.999935
vn 0.998997 0.044771 0.000000
vn 0.998997 0.044771 0.000000
vn 0.999999 0.001694 0.000000
vn 0.999999 0.001052 0.000000
vn 0.000000 0.011394 -0.999935
vn 0.000000 0.011943 -0.999929
vn 0.000000 0.116247 -0.993220
vn 0.000000 0.116247 -0.993220
vn -0.998997 -0.044771 0.000000
vn -0.998997 -0.044771 0.000000
vn -0.999999 -0.001052 0.000000
vn -0.999999 -0.001694 0.000000
vn -0.009097 -0.962257 0.271992
vn -0.007396 -0.962270 0.271996
vn -0.000628 -0.962296 0.272005
vn 0.000709 -0.962296 0.272005
vn 0.030453 0.000000 -0.999536
vn 0.030453 0.000000 -0.999536
vn 0.000000 0.000000 -1.000000
vn 0.000000 0.000000 -1.000000
vn 0.000709 0.962295 0.272008
vn -0.000628 0.962295 0.272008
vn -0.007396 0.962269 0.272001
vn -0.009097 0.962255 0.271997
vn -0.000000 0.000000 1.000000
vn -0.000000 0.000000 1.000000
vn -0.030453 0.000000 0.999536
vn -0.030453 0.000000 0.999536
vn -0.002148 -0.962294 0.272002
vn -0.001253 -0.962296 0.272003
vn -0.033009 -0.961772 0.271856
vn -0.033009 -0.961772 0.271856
vn 0.019323 0.000000 -0.999813
vn 0.019233 0.000000 -0.999815
vn 0.008772 0.000000 -0.999962
vn 0.008772 0.000000 -0.999962
vn 0.028244 0.961914 0.271890
vn 0.028244 0.961914 0.271890
vn -0.009237 0.962257 0.271987
vn -0.008352 0.962264 0.271989
vn -0.008773 0.000000 0.999962
vn -0.008773 0.000000 0.999962
vn -0.019233 0.000000 0.999815
vn -0.019323 0.000000 0.999813
s off
f 1/1/1 2/2/2 4/3/3 3/4/4
f 5/5/5 6/6/6 8/7/7 7/8/8
f 2/2/9 8/7/10 6/6/11 4/3/12
f 7/8/13 1/1/14 3/4/15 5/5/16
f 49/49/17 50/50/18 12/11/19 11/12/20
f 13/13/21 14/14/22 51/51/23 52/52/24
f 50/50/25 51/51/26 14/14/27 12/11/28
f 52/52/29 49/49/30 11/12/31 13/13/32
f 53/53/33 54/54/34 20/19/35 19/20/36
f 21/21/37 22/22/38 55/55/39 56/56/40
f 54/54/41 55/55/42 22/22/43 20/19/44
f 56/56/45 53/53/46 19/20/47 21/21/48
f 48/48/49 45/45/50 37/27/51 38/28/52
f 47/47/53 48/48/54 38/28/55 39/30/56
f 40/31/57 37/27/58 45/45/59 46/46/60
f 39/30/61 40/31/62 46/46/63 47/47/64
f 60/60/65 57/57/66 117/125/67 120/128/68
f 59/59/69 60/60/70 120/128/71 119/127/72
f 57/57/73 58/58/74 118/126/75 117/125/76
f 58/58/77 59/59/78 119/127/79 118/126/80
f 28/37/81 25/38/82 41/39/83 42/40/84
f 27/41/85 28/37/86 42/40/87 43/42/88
f 44/43/89 41/39/90 25/38/91 26/44/92
f 43/42/93 44/43/94 26/44/95 27/41/96
f 4/3/97 6/6/98 5/5/99 3/4/100
f 12/11/101 14/14/102 13/13/103 11/12/104
f 20/19/105 22/22/106 21/21/107 19/20/108
f 2/2/109 1/1/110 7/8/111 8/7/112
f 10/10/113 9/9/114 15/16/115 16/15/116
f 18/18/117 17/17/118 23/24/119 24/23/120
f 26/44/121 25/38/122 28/37/123 27/41/124
f 30/36/125 29/34/126 32/33/127 31/35/128
f 34/32/129 33/26/130 36/25/131 35/29/132
f 46/46/133 45/45/134 33/26/135 34/32/136
f 47/47/137 46/46/138 34/32/139 35/29/140
f 35/29/141 36/25/142 48/48/143 47/47/144
f 36/25/145 33/26/146 45/45/147 48/48/148
f 9/9/149 10/10/150 50/50/151 49/49/152
f 10/10/153 16/15/154 51/51/155 50/50/156
f 52/52/157 51/51/158 16/15/159 15/16/160
f 15/16/161 9/9/162 49/49/163 52/52/164
f 17/17/165 18/18/166 54/54/167 53/53/168
f 18/18/169 24/23/170 55/55/171 54/54/172
f 56/56/173 55/55/174 24/23/175 23/24/176
f 23/24/177 17/17/178 53/53/179 56/56/180
f 58/58/181 57/57/182 61/61/183 62/62/184
f 59/59/185 58/58/186 62/62/187 63/63/188
f 63/63/189 64/64/190 60/60/191 59/59/192
f 64/64/193 61/61/194 57/57/195 60/60/196
f 62/62/197 61/61/198 29/34/199 30/36/200
f 63/63/201 62/62/202 30/36/203 31/35/204
f 31/35/205 32/33/206 64/64/207 63/63/208
f 32/33/209 29/34/210 61/61/211 64/64/212
f 65/65/213 66/66/214 68/67/215 67/68/216
f 69/69/217 70/70/218 72/71/219 71/72/220
f 66/66/221 72/71/222 70/70/223 68/67/224
f 71/72/225 65/65/226 67/68/227 69/69/228
f 105/73/229 106/74/230 76/75/231 75/76/232
f 77/77/233 78/78/234 107/79/235 108/80/236
f 106/74/237 107/79/238 78/78/239 76/75/240
f 108/80/241 105/73/242 75/76/243 77/77/244
f 109/81/245 110/82/246 84/83/247 83/84/248
f 85/85/249 86/86/250 111/87/251 112/88/252
f 110/82/253 111/87/254 86/86/255 84/83/256
f 112/88/257 109/81/258 83/84/259 85/85/260
f 104/89/261 101/90/262 89/91/263 90/92/264
f 103/93/265 104/89/266 90/92/267 91/94/268
f 92/95/269 89/91/270 101/90/271 102/96/272
f 91/94/273 92/95/274 102/96/275 103/93/276
f 116/97/277 113/98/278 93/99/279 94/100/280
f 115/101/281 116/97/282 94/100/283 95/102/284
f 96/103/285 93/99/286 113/98/287 114/104/288
f 95/102/289 96/103/290 114/104/291 115/101/292
f 124/132/293 121/129/294 97/107/295 98/108/296
f 123/131/297 124/132/298 98/108/299 99/110/300
f 100/111/301 97/107/302 121/129/303 122/130/304
f 99/110/305 100/111/306 122/130/307 123/131/308
f 68/67/309 70/70/310 69/69/311 67/68/312
f 76/75/313 78/78/314 77/77/315 75/76/316
f 84/83/317 86/86/318 85/85/319 83/84/320
f 66/66/321 65/65/322 71/72/323 72/71/324
f 74/113/325 73/114/326 79/115/327 80/116/328
f 82/117/329 81/118/330 87/119/331 88/120/332
f 90/92/333 89/91/334 92/95/335 91/94/336
f 94/100/337 93/99/338 96/103/339 95/102/340
f 98/108/341 97/107/342 100/111/343 99/110/344
f 102/96/345 101/90/346 37/121/347 40/122/348
f 103/93/349 102/96/350 40/122/351 39/123/352
f 39/123/353 38/124/354 104/89/355 103/93/356
f 38/124/357 37/121/358 101/90/359 104/89/360
f 73/114/361 74/113/362 106/74/363 105/73/364
f 74/113/365 80/116/366 107/79/367 106/74/368
f 108/80/369 107/79/370 80/116/371 79/115/372
f 79/115/373 73/114/374 105/73/375 108/80/376
f 81/118/377 82/117/378 110/82/379 109/81/380
f 82/117/381 88/120/382 111/87/383 110/82/384
f 112/88/385 111/87/386 88/120/387 87/119/388
f 87/119/389 81/118/390 109/81/391 112/88/392
f 114/104/393 113/98/394 117/125/395 118/126/396
f 115/101/397 114/104/398 118/126/399 119/127/400
f 119/127/401 120/128/402 116/97/403 115/101/404
f 120/128/405 117/125/406 113/98/407 116/97/408
f 122/130/409 121/129/410 41/106/411 44/112/412
f 123/131/413 122/130/414 44/112/415 43/109/416
f 43/109/417 42/105/418 124/132/419 123/131/420
f 42/105/421 41/106/422 121/129/423 124/132/424
