# This file uses centimeters as units for non-parametric coordinates.

v 61.860046 12.882473 63.922729
v 61.860046 -0.000011 -57.224609
v 61.860046 300.000000 58.863770
v 61.860046 300.000000 -54.184937
v -63.139954 281.301025 63.922729
v -56.270691 300.000000 -61.077271
v -63.139954 10.102795 63.922729
v -63.139954 22.606552 -61.077271
v 61.860046 265.442078 -61.077271
v 33.686340 300.000000 -61.077393
v 61.860046 10.664871 -61.077271
v 53.796814 -0.000011 -61.077271
v -63.139954 -0.000011 59.695923
v -55.446472 -0.000011 63.922729
v 61.860046 -0.000011 40.108643
v 52.616272 -0.000011 63.922729
v -53.300354 -0.000011 -61.077271
v -63.139954 -0.000011 -40.442993
v -63.139954 269.267822 -61.077271
v -63.139954 300.000000 -50.302368
v 61.860046 300.000000 46.907227
v 61.860046 300.000000 16.975586
v 57.002136 300.000000 36.061523
v 61.860046 291.501068 37.372925
v -63.139954 300.000031 -14.261963
v -63.139954 300.000000 -41.074219
v -58.337585 300.000000 -28.547363
v -63.139954 290.856140 -28.536011
v 61.860046 55.450310 -61.077271
v 61.860046 101.443092 -61.077271
v 61.860046 76.589157 -58.350586
v 59.250549 79.684784 -61.077271
v -63.139954 188.409058 63.922729
v -63.139954 123.796654 63.922729
v -58.813782 149.965454 63.922729
v -63.139954 158.458008 60.748291
v -48.943298 300.000031 63.922729
v -63.139954 300.000031 58.889038
v 54.619080 300.000000 63.922729
v 61.860046 283.648621 63.922729
vt 0.058969 0.354069
vt 0.058945 0.354079
vt 0.058978 0.354104
vt 0.058198 0.354317
vt 0.058196 0.354292
vt 0.058181 0.354289
vt 0.256744 0.956443
vt 0.380436 0.887156
vt 0.385645 0.907624
vt 0.385645 0.983938
vt 0.010927 0.973224
vt 0.052686 0.711258
vt 0.259845 0.857277
vt 0.251594 0.861810
vt 0.036596 0.702329
vt 0.058136 0.353862
vt 0.058180 0.353730
vt 0.058154 0.353771
vt 0.240956 0.917483
vt 0.251594 0.969200
vt 0.385645 0.882816
vt 0.024754 0.702329
vt 0.010927 0.732340
vt 0.375732 0.857277
vt 0.355432 0.991329
vt 0.258961 0.991329
vt 0.251594 0.979774
vt 0.251594 0.969877
vt 0.266819 0.857277
vt 0.377880 0.857277
vt 0.385645 0.862703
vt 0.171335 0.982721
vt 0.137264 0.710629
vt 0.398015 0.732340
vt 0.149499 0.702329
vt 0.164843 0.702329
vt 0.385645 0.875525
vt 0.251594 0.862676
vt 0.059059 0.354304
vt 0.058899 0.354330
vt 0.059073 0.354315
vt 0.058293 0.354101
vt 0.058419 0.354072
vt 0.058307 0.354048
vt 0.058283 0.353716
vt 0.058342 0.353655
vt 0.058272 0.353660
vt 0.058988 0.353778
vt 0.058912 0.353799
vt 0.058909 0.353773
vt 0.058744 0.353776
vt 0.058471 0.353665
vt 0.058460 0.353663
vt 0.058396 0.353655
vt 0.058553 0.353656
vt 0.058177 0.354256
vt 0.058175 0.354184
vt 0.058182 0.354199
vt 0.058165 0.354135
vt 0.058972 0.354025
vt 0.058981 0.353986
vt 0.058968 0.353959
vt 0.058981 0.353895
vt 0.171335 0.718297
vt 0.014426 0.920506
vt 0.010927 0.896234
vt 0.010927 0.736077
vt 0.019771 0.702329
vt 0.251594 0.941124
vt 0.111089 0.702329
vt 0.262146 0.991329
vt 0.376998 0.991329
vt 0.385645 0.987197
vt 0.140774 0.995301
vt 0.059432 0.354034
vt 0.059250 0.353852
vt 0.059488 0.353877
vt 0.058555 0.353587
vt 0.058488 0.353647
vt 0.058534 0.353521
vt 0.389200 0.702329
vt 0.273761 0.702329
vt 0.237608 0.736077
vt 0.237608 0.896234
vt 0.398015 0.985435
vt 0.388142 0.995301
vt 0.249470 0.995301
vt 0.237608 0.982721
vt 0.392463 0.848848
vt 0.398015 0.874404
vt 0.237608 0.718297
vt 0.246900 0.702329
vt 0.379797 0.702329
vt 0.398015 0.720589
vt 0.398015 0.811305
vt 0.237608 0.984886
vt 0.247955 0.995301
vt 0.385388 0.995301
vt 0.398015 0.973224
vt 0.237608 0.941150
vt 0.015871 0.995301
vt 0.010927 0.984886
vt 0.010927 0.941150
vt 0.167261 0.840555
vt 0.037406 0.995301
vt 0.165910 0.995301
vt 0.171335 0.985435
vt 0.171335 0.874404
vt 0.171335 0.720589
vt 0.164875 0.702329
vt 0.071003 0.702329
vt 0.171335 0.811305
vn -0.452081 -0.344268 0.822862
vn -0.452081 -0.344268 0.822862
vn -0.452081 -0.344268 0.822862
vn 0.409896 -0.309904 -0.857872
vn 0.409896 -0.309904 -0.857872
vn 0.409896 -0.309904 -0.857872
vn 0.000000 1.000000 0.000001
vn 0.000000 1.000000 0.000001
vn 0.000000 1.000000 0.000001
vn 0.000000 1.000000 0.000001
vn -1.000000 -0.000000 0.000000
vn -1.000000 -0.000000 0.000000
vn -1.000000 -0.000000 0.000000
vn -1.000000 -0.000000 0.000000
vn -1.000000 -0.000000 0.000000
vn 0.233296 0.190194 -0.953624
vn 0.233296 0.190194 -0.953624
vn 0.233296 0.190194 -0.953624
vn -0.000000 -0.000000 -1.000000
vn -0.000000 -0.000000 -1.000000
vn -0.000000 -0.000000 -1.000000
vn -0.000000 -0.000000 -1.000000
vn -0.000000 -0.000000 -1.000000
vn -0.000000 -0.000000 -1.000000
vn 0.000000 -1.000000 0.000000
vn 0.000000 -1.000000 0.000000
vn 0.000000 -1.000000 0.000000
vn 0.000000 -1.000000 0.000000
vn 0.000000 -1.000000 0.000000
vn 0.000000 0.000000 1.000000
vn 0.000000 0.000000 1.000000
vn 0.000000 0.000000 1.000000
vn 0.000000 0.000000 1.000000
vn 0.000000 0.000000 1.000000
vn 0.000000 0.000000 1.000000
vn 1.000000 0.000000 0.000000
vn 1.000000 0.000000 0.000000
vn 1.000000 0.000000 0.000000
vn 1.000000 0.000000 0.000000
vn 1.000000 0.000000 0.000000
vn 0.774858 -0.555996 0.300772
vn 0.774858 -0.555996 0.300772
vn 0.774858 -0.555996 0.300772
vn -0.840117 -0.365664 -0.400616
vn -0.840117 -0.365664 -0.400616
vn -0.840117 -0.365664 -0.400616
vn -0.828628 0.185215 -0.528271
vn -0.828628 0.185215 -0.528271
vn -0.828628 0.185215 -0.528271
vn 0.829565 0.416838 -0.371574
vn 0.829565 0.416838 -0.371574
vn 0.829565 0.416838 -0.371574
vn 0.833930 0.509418 0.212260
vn 0.833930 0.509418 0.212260
vn 0.833930 0.509418 0.212260
vn -0.838206 0.440626 0.321341
vn -0.838206 0.440626 0.321341
vn -0.838206 0.440626 0.321341
vn -0.848674 0.445370 -0.285304
vn -0.848674 0.445370 -0.285304
vn -0.848674 0.445370 -0.285304
vn 0.765068 0.082380 -0.638659
vn 0.765068 0.082380 -0.638659
vn 0.765068 0.082380 -0.638659
vn 0.672760 -0.080685 -0.735448
vn 0.672760 -0.080685 -0.735448
vn 0.672760 -0.080685 -0.735448
vn -0.483048 0.079856 0.871945
vn -0.483048 0.079856 0.871945
vn -0.483048 0.079856 0.871945
vn -0.683588 -0.076926 0.725803
vn -0.683588 -0.076926 0.725803
vn -0.683588 -0.076926 0.725803
vn 0.000000 0.000000 1.000000
vn 0.000000 0.000000 1.000000
vn 0.000000 0.000000 1.000000
vn 0.000000 0.000000 1.000000
vn 0.000000 0.000000 1.000000
vn 0.000000 0.000000 1.000000
vn -0.000000 0.000000 1.000000
vn -0.000000 0.000000 1.000000
vn -0.000000 0.000000 1.000000
vn 1.000000 0.000000 0.000000
vn 1.000000 0.000000 0.000000
vn 1.000000 0.000000 0.000000
vn 1.000000 0.000000 0.000000
vn 1.000000 0.000000 0.000000
vn 1.000000 0.000000 0.000000
vn 1.000000 0.000000 0.000000
vn 1.000000 0.000000 0.000000
vn 1.000000 0.000000 0.000000
vn 1.000000 0.000000 0.000000
vn 1.000000 0.000000 0.000000
vn 1.000000 -0.000000 0.000000
vn 1.000000 -0.000000 0.000000
vn 1.000000 -0.000000 0.000000
vn 1.000000 -0.000000 0.000000
vn -0.000000 0.000000 -1.000000
vn -0.000000 0.000000 -1.000000
vn -0.000000 0.000000 -1.000000
vn -0.000000 0.000000 -1.000000
vn -0.000000 0.000000 -1.000000
vn -0.000000 0.000000 -1.000000
vn -0.000000 0.000000 -1.000000
vn -1.000000 0.000000 0.000000
vn -1.000000 0.000000 0.000000
vn -1.000000 0.000000 0.000000
vn -1.000000 0.000000 0.000000
vn -1.000000 0.000000 0.000000
vn -1.000000 -0.000000 0.000000
vn -1.000000 -0.000000 0.000000
vn -1.000000 -0.000000 0.000000
vn -1.000000 -0.000000 0.000000
vn 0.000000 1.000000 -0.000000
vn 0.000000 1.000000 -0.000000
vn 0.000000 1.000000 -0.000000
vn 0.000000 1.000000 -0.000000
vn 0.000000 1.000000 -0.000000
vn 0.000000 1.000000 -0.000000
vn -0.323922 0.245927 0.913561
vn -0.323922 0.245927 0.913561
vn -0.323922 0.245927 0.913561
vn -1.000000 -0.000000 0.000000
vn -1.000000 -0.000000 0.000000
vn -1.000000 -0.000000 0.000000
vn -1.000000 -0.000000 0.000000
vn -1.000000 -0.000000 0.000000
vn -1.000000 -0.000000 0.000000
vn 0.000000 1.000000 0.000000
vn 0.000000 1.000000 0.000000
vn 0.000000 1.000000 0.000000
vn 0.000000 1.000000 0.000000
vn 0.000000 1.000000 0.000000
vn 0.000000 1.000000 -0.000001
vn 0.000000 1.000000 -0.000001
vn 0.000000 1.000000 -0.000001
vn 0.000000 1.000000 -0.000001
vn 0.000000 1.000000 -0.000001
vn 0.555149 0.245839 0.794590
vn 0.555149 0.245839 0.794590
vn 0.555149 0.245839 0.794590
vn 0.000000 -1.000000 0.000000
vn 0.000000 -1.000000 0.000000
vn 0.000000 -1.000000 0.000000
vn 0.000000 -1.000000 0.000000
vn 0.000000 -1.000000 0.000000
s off
f 7/1/1 13/2/2 14/3/3
f 2/4/4 12/5/5 11/6/6
f 27/7/7 23/8/8 22/9/9 4/10/10
f 8/11/11 28/12/12 26/15/13 20/22/14 19/23/15
f 9/16/16 10/17/17 4/18/18
f 32/19/19 19/34/20 6/81/21 10/82/22 9/83/23 30/84/24
f 14/13/25 13/14/26 18/20/27 15/21/28 16/24/29
f 7/85/30 14/86/31 16/87/32 1/88/33 35/89/34 34/90/35
f 1/32/36 24/33/37 21/35/38 3/36/39 40/64/40
f 16/39/41 15/40/42 1/41/43
f 17/42/44 18/43/45 8/44/46
f 19/45/47 20/46/48 6/47/49
f 21/48/50 24/49/51 23/50/52
f 23/50/53 24/49/54 22/51/55
f 28/52/56 27/53/57 26/54/58
f 25/55/59 27/53/60 28/52/61
f 29/56/62 32/57/63 31/58/64
f 31/58/65 32/57/66 30/59/67
f 34/60/68 35/61/69 36/62/70
f 36/62/71 35/61/72 33/63/73
f 35/89/74 40/91/75 39/92/76 37/93/77 5/94/78 33/95/79
f 35/89/80 1/88/81 40/91/82
f 24/33/83 31/65/84 30/66/85 9/67/86 4/68/87 22/70/88
f 31/65/89 15/74/90 2/101/91 11/102/92 29/103/93
f 1/32/94 15/74/95 31/65/96 24/33/97
f 11/96/98 12/97/99 17/98/100 8/99/101 19/34/102 32/19/103 29/100/104
f 36/104/105 18/105/106 13/106/107 7/107/108 34/108/109
f 36/104/110 28/12/111 8/11/112 18/105/113
f 27/7/114 4/10/115 10/25/116 6/26/117 20/27/118 26/28/119
f 5/75/120 37/76/121 38/77/122
f 5/109/123 38/110/124 25/111/125 28/12/126 36/104/127 33/112/128
f 37/29/129 39/30/130 3/31/131 21/37/132 23/8/133
f 38/38/134 37/29/135 23/8/136 27/7/137 25/69/138
f 39/78/139 40/79/140 3/80/141
f 15/21/142 18/20/143 17/71/144 12/72/145 2/73/146
