# This file uses centimeters as units for non-parametric coordinates.

v -0.639893 6.437999 1.422791
v -0.639893 0.000000 996.295959
v -0.639893 50.000000 14.366394
v -0.639893 50.000000 985.257385
v 999.360107 42.561501 1.422668
v 989.735596 50.000000 1001.422668
v 999.360107 4.018929 1.422668
v 999.360107 8.992964 1001.422668
v -0.639893 45.293617 1001.422668
v 38.834961 50.000000 1001.422668
v -0.639893 4.242525 1001.422668
v 10.657715 0.000000 1001.422668
v 999.360107 0.000000 7.047424
v 988.580566 0.000000 1.422668
v -0.639893 0.000000 33.112244
v 12.311768 0.000000 1.422791
v 985.573486 0.000000 1001.422668
v 999.360107 0.000000 973.964661
v 999.360107 37.774639 1001.422668
v 999.360352 50.000000 987.084534
v -0.639648 50.000000 67.427185
v -0.639893 50.000000 165.806824
v 14.308594 50.000000 101.636658
v -0.639648 46.026917 99.891541
v 999.360352 50.000011 870.091858
v 999.360107 50.000000 926.210022
v 991.323242 50.000000 896.793518
v 999.360107 45.205032 896.771790
v -0.639893 19.081415 1001.422668
v -0.639893 35.754044 1001.422668
v -0.639893 26.744366 994.579895
v 7.848145 27.866547 1001.422424
v 999.360107 28.052666 1.422668
v 999.360107 10.908145 1.422668
v 989.760254 19.448067 1.422791
v 999.360107 19.987759 5.647034
v 975.024170 50.000004 1.422668
v 999.360107 50.000011 32.614014
v 19.083496 50.000000 1.422791
v -0.639893 43.495407 1.422791
v 702.604736 50.000000 1001.422668
v 843.513184 50.000000 1001.422668
v 767.507324 50.000000 982.592224
v 770.691406 45.148781 1001.422668
v 591.798828 50.000000 1001.422668
v 628.407715 44.882805 1001.422668
v 658.557617 50.000000 1001.422668
v 626.899658 50.000000 990.228943
v 497.053711 50.000000 1.422729
v 508.498779 50.000000 1001.422668
vt 0.058969 0.354069
vt 0.058945 0.354079
vt 0.058978 0.354104
vt 0.058198 0.354317
vt 0.058196 0.354292
vt 0.058181 0.354289
vt 0.496976 0.996122
vt 0.055291 0.711520
vt 0.057624 0.326493
vt 0.057125 0.326462
vt 0.056914 0.327024
vt 0.057132 0.326546
vt 0.057049 0.326518
vt 0.056986 0.326515
vt 0.056911 0.326596
vt 0.058136 0.353862
vt 0.058180 0.353730
vt 0.058154 0.353771
vt 0.057065 0.326988
vt 0.056922 0.326507
vt 0.057007 0.326479
vt 0.057070 0.326573
vt 0.057071 0.326918
vt 0.057678 0.327046
vt 0.057635 0.327044
vt 0.057056 0.327078
vt 0.056930 0.327092
vt 0.057053 0.327139
vt 0.057103 0.327143
vt 0.057768 0.327095
vt 0.057876 0.327080
vt 0.057657 0.327019
vt 0.057909 0.327050
vt 0.057669 0.326919
vt 0.057657 0.326979
vt 0.057754 0.326526
vt 0.057812 0.326505
vt 0.057886 0.326535
vt 0.059059 0.354304
vt 0.058899 0.354330
vt 0.059073 0.354315
vt 0.058293 0.354101
vt 0.058419 0.354072
vt 0.058307 0.354048
vt 0.058283 0.353716
vt 0.058342 0.353655
vt 0.058272 0.353660
vt 0.058988 0.353778
vt 0.058912 0.353799
vt 0.058909 0.353773
vt 0.058744 0.353776
vt 0.058471 0.353665
vt 0.058460 0.353663
vt 0.058396 0.353655
vt 0.058553 0.353656
vt 0.058177 0.354256
vt 0.058175 0.354184
vt 0.058182 0.354199
vt 0.058165 0.354135
vt 0.058972 0.354025
vt 0.058981 0.353986
vt 0.058968 0.353959
vt 0.058981 0.353895
vt 0.057641 0.326607
vt 0.057657 0.326826
vt 0.057094 0.326999
vt 0.057072 0.327110
vt 0.057072 0.327069
vt 0.057223 0.326527
vt 0.057640 0.326898
vt 0.057666 0.326580
vt 0.057612 0.326584
vt 0.057875 0.326544
vt 0.057893 0.326571
vt 0.059432 0.354034
vt 0.059250 0.353852
vt 0.059488 0.353877
vt 0.058555 0.353587
vt 0.058488 0.353647
vt 0.058534 0.353521
vt 0.056951 0.326497
vt 0.056935 0.326503
vt 0.006098 0.989531
vt 0.056948 0.326556
vt 0.056959 0.326495
vt 0.056962 0.326555
vt 0.056953 0.326497
vt 0.006098 0.714270
vt 0.058558 0.354301
vt 0.058553 0.354226
vt 0.058698 0.354267
vt 0.058003 0.354379
vt 0.058004 0.354274
vt 0.058265 0.354328
vt 0.057698 0.354409
vt 0.058438 0.354304
vt 0.012451 0.702912
vt 0.006098 0.989441
vt 0.006098 0.940817
vt 0.038498 0.702912
vt 0.496976 0.996122
vt 0.086790 0.702912
vt 0.011592 0.920328
vt 0.006097 0.901848
vt 0.006097 0.876136
vt 0.015341 0.838251
vt 0.496976 0.717118
vt 0.057458 0.707603
vt 0.006098 0.793884
vt 0.006098 0.708530
vt 0.013136 0.702912
vt 0.043018 0.702912
vt 0.057771 0.326562
vt 0.070565 0.702912
vt 0.481665 0.702912
vt 0.056966 0.326492
vt 0.489041 0.702912
vt 0.496976 0.725645
vn 0.290288 -0.778614 -0.556321
vn 0.290288 -0.778614 -0.556321
vn 0.290288 -0.778614 -0.556321
vn -0.277922 -0.740063 0.612427
vn -0.277922 -0.740063 0.612427
vn -0.277922 -0.740063 0.612427
vn -0.000000 1.000000 0.000000
vn 0.000000 1.000000 0.000000
vn 0.000000 1.000000 0.000000
vn -0.000000 1.000000 0.000000
vn 1.000000 -0.000006 -0.000001
vn 1.000000 -0.000006 -0.000001
vn 1.000000 -0.000006 -0.000001
vn 1.000000 -0.000006 -0.000001
vn 1.000000 -0.000006 -0.000001
vn -0.113729 0.953906 0.277721
vn -0.113729 0.953906 0.277721
vn -0.113729 0.953906 0.277721
vn 0.000000 -1.000000 0.000000
vn 0.000000 -1.000000 0.000000
vn 0.000000 -1.000000 0.000000
vn 0.000000 -1.000000 0.000000
vn 0.000000 -1.000000 0.000000
vn 0.000000 -1.000000 0.000000
vn 0.000000 -1.000000 0.000000
vn 0.000000 -1.000000 0.000000
vn -0.000000 0.000005 -1.000000
vn -0.000000 0.000005 -1.000000
vn -0.000000 0.000005 -1.000000
vn -0.000000 0.000005 -1.000000
vn -0.000000 0.000005 -1.000000
vn -0.000000 0.000005 -1.000000
vn -1.000000 0.000001 0.000003
vn -1.000000 0.000001 0.000003
vn -1.000000 0.000001 0.000003
vn -1.000000 0.000001 0.000003
vn -1.000000 0.000001 0.000003
vn -0.437932 -0.881011 -0.178985
vn -0.437932 -0.881011 -0.178985
vn -0.437932 -0.881011 -0.178985
vn 0.526876 -0.807725 0.264542
vn 0.526876 -0.807725 0.264543
vn 0.526876 -0.807725 0.264543
vn 0.694984 0.547133 0.466521
vn 0.694984 0.547133 0.466521
vn 0.694984 0.547133 0.466521
vn -0.267845 0.956327 0.117038
vn -0.267845 0.956327 0.117038
vn -0.267845 0.956327 0.117038
vn -0.250077 0.966472 -0.058256
vn -0.250077 0.966472 -0.058256
vn -0.250077 0.966472 -0.058256
vn 0.507143 0.850651 -0.138557
vn 0.507144 0.850651 -0.138557
vn 0.507144 0.850651 -0.138557
vn 0.506675 0.848541 0.152507
vn 0.506675 0.848541 0.152507
vn 0.506675 0.848541 0.152507
vn -0.567568 0.548386 0.614116
vn -0.567568 0.548387 0.614116
vn -0.567568 0.548386 0.614116
vn -0.489941 -0.527261 0.694229
vn -0.489941 -0.527261 0.694229
vn -0.489941 -0.527261 0.694229
vn 0.351329 0.394941 -0.848876
vn 0.351329 0.394941 -0.848875
vn 0.351329 0.394941 -0.848876
vn 0.383999 -0.428420 -0.817925
vn 0.383999 -0.428420 -0.817925
vn 0.383999 -0.428420 -0.817925
vn -0.000000 -0.000003 -1.000000
vn -0.000000 -0.000003 -1.000000
vn -0.000000 -0.000003 -1.000000
vn -0.000000 -0.000003 -1.000000
vn -0.000000 -0.000003 -1.000000
vn -0.000000 -0.000003 -1.000000
vn -0.000000 -0.000003 -1.000000
vn -0.000000 0.000000 -1.000000
vn -0.000000 0.000000 -1.000000
vn -0.000000 0.000000 -1.000000
vn -1.000000 -0.000008 -0.000000
vn -1.000000 -0.000008 -0.000000
vn -1.000000 -0.000008 -0.000000
vn -1.000000 -0.000008 -0.000000
vn -1.000000 -0.000008 -0.000000
vn -1.000000 -0.000008 -0.000000
vn -1.000000 -0.000000 0.000000
vn -1.000000 -0.000000 0.000000
vn -1.000000 -0.000000 0.000000
vn -1.000000 -0.000000 0.000000
vn -1.000000 -0.000000 0.000000
vn -1.000000 0.000005 -0.000000
vn -1.000000 0.000005 -0.000000
vn -1.000000 0.000005 -0.000000
vn -1.000000 0.000005 -0.000000
vn 1.000000 -0.000001 0.000000
vn 1.000000 -0.000001 0.000000
vn 1.000000 -0.000001 0.000000
vn 1.000000 -0.000001 0.000000
vn 1.000000 -0.000001 0.000000
vn 1.000000 -0.000003 0.000000
vn 1.000000 -0.000003 0.000000
vn 1.000000 -0.000003 0.000000
vn 1.000000 -0.000003 0.000000
vn 0.126985 0.908468 0.398196
vn 0.126985 0.908468 0.398196
vn 0.126985 0.908468 0.398196
vn 0.284992 0.932383 -0.222355
vn 0.284992 0.932383 -0.222355
vn 0.284992 0.932383 -0.222355
vn 1.000000 -0.000006 -0.000000
vn 1.000000 -0.000006 -0.000000
vn 1.000000 -0.000006 -0.000000
vn 1.000000 -0.000006 -0.000000
vn 1.000000 -0.000006 -0.000000
vn 1.000000 -0.000006 -0.000000
vn -0.282658 0.857083 -0.430713
vn -0.282658 0.857083 -0.430713
vn -0.282658 0.857083 -0.430713
vn 0.069030 0.968828 0.237923
vn 0.069030 0.968828 0.237923
vn 0.069030 0.968828 0.237923
vn 0.000000 0.000000 1.000000
vn -0.000000 0.000002 1.000000
vn 0.000000 -0.000009 1.000000
vn 0.000000 -0.000009 1.000000
vn 0.000000 -0.000009 1.000000
vn 0.000000 -0.000009 1.000000
vn 0.000000 -0.000009 1.000000
vn -0.064200 0.963706 0.259132
vn -0.064200 0.963706 0.259132
vn -0.064200 0.963706 0.259132
vn -0.151250 0.891146 0.427764
vn -0.151250 0.891146 0.427764
vn -0.151250 0.891146 0.427764
vn -0.000000 0.000002 1.000000
vn -0.000000 0.000002 1.000000
vn -0.000001 0.000000 1.000000
vn -0.000001 0.000000 1.000000
vn -0.000000 0.000000 1.000000
vn -0.000000 0.000000 1.000000
vn -0.000000 0.000000 1.000000
vn -0.000000 0.000002 1.000000
vn -0.000000 0.000001 1.000000
vn -0.000000 0.000000 1.000000
vn -0.000000 0.000001 1.000000
vn -0.000000 0.000002 1.000000
vn -0.000000 0.000002 1.000000
vn 0.000000 0.000000 1.000000
vn -0.000000 0.000002 1.000000
vn -0.000000 0.000002 1.000000
vn -0.000000 0.000002 1.000000
vn 0.000000 1.000000 0.000000
vn -0.000000 1.000000 0.000000
vn 0.000000 1.000000 0.000000
vn 0.000000 1.000000 0.000000
vn 0.000000 1.000000 0.000000
vn -0.000000 1.000000 0.000000
vn -0.000000 1.000000 0.000000
vn -0.000000 1.000000 0.000000
vn -0.000000 1.000000 0.000000
vn -0.000000 1.000000 0.000000
vn -0.000000 1.000000 0.000000
vn -0.000000 1.000000 -0.000000
vn -0.000000 1.000000 0.000000
vn 0.000000 1.000000 0.000000
vn 0.000000 1.000000 0.000000
vn 0.000000 1.000000 0.000000
vn 0.000000 1.000000 0.000000
vn -0.000000 1.000000 0.000000
vn -0.000000 1.000000 0.000000
vn -0.000000 1.000000 -0.000000
vn -0.000000 1.000000 -0.000000
vn -0.000000 1.000000 -0.000000
vn 0.000000 1.000000 0.000000
vn 0.000000 1.000000 0.000000
vn -0.000000 1.000000 0.000000
vn 0.000000 1.000000 0.000000
vn 0.000000 1.000000 0.000000
vn 0.000000 1.000000 0.000000
vn 0.000000 1.000000 0.000000
vn 0.000000 1.000000 0.000000
s off
f 7/1/1 13/2/2 14/3/3
f 2/4/4 12/5/5 11/6/6
f 49/7/7 50/98/8 45/99/9 48/103/10
f 8/11/11 28/12/12 26/13/13 20/14/14 19/15/15
f 9/16/16 10/17/17 4/18/18
f 15/30/19 16/31/20 14/24/21 13/25/22 18/26/23 17/27/24 12/28/25 2/29/26
f 7/32/27 14/24/28 16/31/29 1/33/30 35/34/31 34/35/32
f 1/33/33 24/36/34 21/37/35 3/38/36 40/74/37
f 16/39/38 15/40/39 1/41/40
f 17/42/41 18/43/42 8/44/43
f 19/45/44 20/46/45 6/47/46
f 21/48/47 24/49/48 23/50/49
f 23/50/50 24/49/51 22/51/52
f 28/52/53 27/53/54 26/54/55
f 25/55/56 27/53/57 28/52/58
f 29/56/59 32/57/60 31/58/61
f 31/58/62 32/57/63 30/59/64
f 34/60/65 35/61/66 36/62/67
f 36/62/68 35/61/69 33/63/70
f 35/34/71 40/74/72 39/73/73 49/113/74 37/71/75 5/64/76 33/65/77
f 35/34/78 1/33/79 40/74/80
f 24/36/81 31/66/82 30/23/83 9/22/84 4/10/85 22/9/86
f 31/66/87 15/30/88 2/29/89 11/67/90 29/68/91
f 1/33/92 15/30/93 31/66/94 24/36/95
f 36/70/96 18/26/97 13/25/98 7/32/99 34/35/100
f 36/70/101 28/12/102 8/11/103 18/26/104
f 46/89/105 48/90/106 45/91/107
f 5/75/108 37/76/109 38/77/110
f 5/64/111 38/72/112 25/69/113 28/12/114 36/70/115 33/65/116
f 39/78/117 40/79/118 3/80/119
f 44/92/120 43/93/121 41/94/122
f 32/19/123 46/86/124 45/85/125 50/116/126 10/21/127 9/22/128 30/23/129
f 42/95/130 43/93/131 44/92/132
f 47/96/133 48/90/134 46/89/135
f 46/86/136 44/84/137 41/81/138 47/87/139
f 19/15/140 6/20/141 42/82/142 44/84/143 17/27/144 8/11/145
f 17/27/146 44/84/147 46/86/148 32/19/149 29/68/150 11/67/151 12/28/152
f 23/8/153 49/83/154 39/88/155 3/97/156 21/100/157
f 49/7/158 48/103/159 47/104/160 41/105/161 43/106/162 37/107/163
f 27/108/164 43/106/165 42/109/166 6/110/167 20/111/168 26/112/169
f 37/107/170 43/106/171 27/108/172 25/114/173 38/115/174
f 23/8/175 50/101/176 49/83/177
f 23/8/178 22/102/179 4/117/180 10/118/181 50/101/182
