# This file uses centimeters as units for non-parametric coordinates.

v 61.859985 6.426537 63.922668
v 61.859985 0.000000 -57.224548
v 61.859985 62.284283 58.863831
v 61.859985 62.284283 -54.184998
v -63.140015 52.956158 63.922791
v -56.270660 62.284283 -61.077332
v -63.140015 5.039871 63.922791
v -63.139984 11.277477 -61.077209
v 61.859985 45.044773 -61.077332
v 33.686340 62.284283 -61.077332
v 61.859985 5.320267 -61.077332
v 53.796753 0.000000 -61.077332
v -63.140015 0.000000 59.695984
v -55.446472 0.000000 63.922668
v 61.859985 0.000000 40.108704
v 52.616272 0.000000 63.922668
v -53.300293 0.000000 -61.077209
v -63.139984 0.000000 -40.442810
v -63.139984 46.953266 -61.077209
v -63.140015 62.284283 -50.302185
v 61.859985 62.284283 46.907288
v 61.859985 62.284283 16.975647
v 57.002075 62.284283 36.061584
v 61.859985 58.044483 37.372864
v -63.140015 62.284298 -14.261902
v -63.139984 62.284283 -41.074158
v -58.337585 62.284283 -28.547302
v -63.139984 57.722790 -28.535950
v 61.859985 11.573261 -61.077332
v 61.859985 34.517155 -61.077332
v 61.859985 22.118565 -58.350525
v 59.250519 23.662844 -61.077332
v -63.140015 45.593117 63.922791
v -63.140015 13.360653 63.922791
v -58.813751 26.415197 63.922668
v -63.140015 30.651779 60.748352
v -48.943268 62.284290 63.922791
v -63.140015 62.284298 58.889099
v 54.619080 62.284283 63.922668
v 61.859985 54.127308 63.922668
vt 0.058969 0.354069
vt 0.058945 0.354079
vt 0.058978 0.354104
vt 0.058198 0.354317
vt 0.058196 0.354292
vt 0.058181 0.354289
vt 0.099751 0.841725
vt 0.266809 0.748145
vt 0.057624 0.326493
vt 0.057125 0.326462
vt 0.056914 0.327024
vt 0.057132 0.326546
vt 0.057049 0.326518
vt 0.056986 0.326515
vt 0.056911 0.326596
vt 0.058136 0.353862
vt 0.058180 0.353730
vt 0.058154 0.353771
vt 0.057065 0.326988
vt 0.056922 0.326507
vt 0.057007 0.326479
vt 0.057070 0.326573
vt 0.057071 0.326918
vt 0.057678 0.327046
vt 0.057635 0.327044
vt 0.057056 0.327078
vt 0.056930 0.327092
vt 0.057053 0.327139
vt 0.057103 0.327143
vt 0.057768 0.327095
vt 0.057876 0.327080
vt 0.057657 0.327019
vt 0.057909 0.327050
vt 0.057669 0.326919
vt 0.057657 0.326979
vt 0.057754 0.326526
vt 0.057812 0.326505
vt 0.057886 0.326535
vt 0.059059 0.354304
vt 0.058899 0.354330
vt 0.059073 0.354315
vt 0.058293 0.354101
vt 0.058419 0.354072
vt 0.058307 0.354048
vt 0.058283 0.353716
vt 0.058342 0.353655
vt 0.058272 0.353660
vt 0.058988 0.353778
vt 0.058912 0.353799
vt 0.058909 0.353773
vt 0.058744 0.353776
vt 0.058471 0.353665
vt 0.058460 0.353663
vt 0.058396 0.353655
vt 0.058553 0.353656
vt 0.058177 0.354256
vt 0.058175 0.354184
vt 0.058182 0.354199
vt 0.058165 0.354135
vt 0.058972 0.354025
vt 0.058981 0.353986
vt 0.058968 0.353959
vt 0.058981 0.353895
vt 0.057641 0.326607
vt 0.057657 0.326826
vt 0.057094 0.326999
vt 0.057072 0.327110
vt 0.057072 0.327069
vt 0.057223 0.326527
vt 0.057640 0.326898
vt 0.057666 0.326580
vt 0.057612 0.326584
vt 0.057875 0.326544
vt 0.057893 0.326571
vt 0.059432 0.354034
vt 0.059250 0.353852
vt 0.059488 0.353877
vt 0.058555 0.353587
vt 0.058488 0.353647
vt 0.058534 0.353521
vt 0.273845 0.775789
vt 0.273845 0.878858
vt 0.103938 0.707791
vt 0.092795 0.713913
vt 0.092795 0.858954
vt 0.273845 0.742283
vt 0.260456 0.707791
vt 0.233038 0.888841
vt 0.102744 0.888841
vt 0.092795 0.873235
vt 0.092795 0.859869
vt 0.113357 0.707791
vt 0.263357 0.707791
vt 0.273845 0.715119
vt 0.273845 0.732436
vt 0.092795 0.715082
vt 0.092795 0.821034
vt 0.107047 0.888841
vt 0.262166 0.888841
vt 0.273845 0.883261
vn -0.387967 -0.592264 0.706190
vn -0.387967 -0.592264 0.706190
vn -0.387967 -0.592264 0.706190
vn 0.360916 -0.546994 -0.755339
vn 0.360916 -0.546995 -0.755339
vn 0.360916 -0.546995 -0.755339
vn 0.000000 1.000000 0.000000
vn 0.000000 1.000000 0.000000
vn 0.000000 1.000000 0.000000
vn 0.000000 1.000000 0.000000
vn -1.000000 -0.000000 0.000000
vn -1.000000 -0.000000 0.000000
vn -1.000000 -0.000000 0.000000
vn -1.000000 -0.000000 0.000000
vn -1.000000 -0.000000 0.000000
vn 0.221513 0.362007 -0.905474
vn 0.221513 0.362007 -0.905474
vn 0.221513 0.362007 -0.905474
vn -0.000001 -0.000002 -1.000000
vn -0.000001 -0.000002 -1.000000
vn -0.000001 -0.000002 -1.000000
vn -0.000001 -0.000002 -1.000000
vn -0.000001 -0.000002 -1.000000
vn -0.000001 -0.000002 -1.000000
vn 0.000000 -1.000000 0.000000
vn 0.000000 -1.000000 0.000000
vn 0.000000 -1.000000 0.000000
vn 0.000000 -1.000000 0.000000
vn 0.000000 -1.000000 0.000000
vn 0.000001 0.000000 1.000000
vn 0.000001 0.000000 1.000000
vn 0.000001 0.000000 1.000000
vn 0.000001 0.000000 1.000000
vn 0.000001 0.000000 1.000000
vn 0.000001 0.000000 1.000000
vn 1.000000 -0.000000 0.000000
vn 1.000000 -0.000000 0.000000
vn 1.000000 -0.000000 0.000000
vn 1.000000 -0.000000 0.000000
vn 1.000000 -0.000000 0.000000
vn 0.557316 -0.801624 0.216330
vn 0.557316 -0.801624 0.216330
vn 0.557316 -0.801624 0.216330
vn -0.709119 -0.618712 -0.338150
vn -0.709119 -0.618712 -0.338150
vn -0.709119 -0.618712 -0.338150
vn -0.788799 0.353431 -0.502874
vn -0.788799 0.353431 -0.502874
vn -0.788799 0.353431 -0.502874
vn 0.671884 0.676761 -0.300944
vn 0.671884 0.676761 -0.300944
vn 0.671884 0.676761 -0.300944
vn 0.624487 0.764690 0.158950
vn 0.624487 0.764690 0.158950
vn 0.624487 0.764690 0.158950
vn -0.665573 0.701360 0.255160
vn -0.665573 0.701360 0.255160
vn -0.665573 0.701360 0.255160
vn -0.671206 0.706092 -0.225646
vn -0.671206 0.706092 -0.225646
vn -0.671206 0.706092 -0.225646
vn 0.757367 0.163473 -0.632196
vn 0.757367 0.163473 -0.632196
vn 0.757367 0.163473 -0.632196
vn 0.666265 -0.160176 -0.728309
vn 0.666265 -0.160176 -0.728309
vn 0.666265 -0.160176 -0.728309
vn -0.478439 0.158562 0.863687
vn -0.478439 0.158562 0.863687
vn -0.478439 0.158562 0.863687
vn -0.677544 -0.152849 0.719424
vn -0.677544 -0.152849 0.719424
vn -0.677544 -0.152849 0.719424
vn 0.000001 -0.000003 1.000000
vn 0.000001 -0.000003 1.000000
vn 0.000001 -0.000003 1.000000
vn 0.000001 -0.000003 1.000000
vn 0.000001 -0.000003 1.000000
vn 0.000001 -0.000003 1.000000
vn -0.000000 0.000000 1.000000
vn -0.000000 0.000000 1.000000
vn -0.000000 0.000000 1.000000
vn 1.000000 -0.000000 0.000000
vn 1.000000 -0.000000 0.000000
vn 1.000000 -0.000000 0.000000
vn 1.000000 -0.000000 0.000000
vn 1.000000 -0.000000 0.000000
vn 1.000000 -0.000000 0.000000
vn 1.000000 0.000000 0.000000
vn 1.000000 0.000000 0.000000
vn 1.000000 0.000000 0.000000
vn 1.000000 0.000000 0.000000
vn 1.000000 0.000000 0.000000
vn 1.000000 0.000000 0.000000
vn 1.000000 0.000000 0.000000
vn 1.000000 0.000000 0.000000
vn 1.000000 0.000000 0.000000
vn -0.000001 -0.000000 -1.000000
vn -0.000001 -0.000000 -1.000000
vn -0.000001 -0.000000 -1.000000
vn -0.000001 -0.000000 -1.000000
vn -0.000001 -0.000000 -1.000000
vn -0.000001 -0.000000 -1.000000
vn -0.000001 -0.000000 -1.000000
vn -1.000000 -0.000000 -0.000000
vn -1.000000 -0.000000 -0.000000
vn -1.000000 -0.000000 -0.000000
vn -1.000000 -0.000000 -0.000000
vn -1.000000 -0.000000 -0.000000
vn -1.000000 0.000000 -0.000000
vn -1.000000 0.000000 -0.000000
vn -1.000000 0.000000 -0.000000
vn -1.000000 0.000000 -0.000000
vn 0.000000 1.000000 0.000000
vn 0.000000 1.000000 0.000000
vn 0.000000 1.000000 0.000000
vn 0.000000 1.000000 0.000000
vn 0.000000 1.000000 0.000000
vn 0.000000 1.000000 0.000000
vn -0.297869 0.453336 0.840095
vn -0.297869 0.453336 0.840095
vn -0.297869 0.453336 0.840095
vn -1.000000 -0.000001 -0.000000
vn -1.000000 -0.000001 -0.000000
vn -1.000000 -0.000001 -0.000000
vn -1.000000 -0.000001 -0.000000
vn -1.000000 -0.000001 -0.000000
vn -1.000000 -0.000001 -0.000000
vn 0.000000 1.000000 -0.000000
vn 0.000000 1.000000 -0.000000
vn 0.000000 1.000000 -0.000000
vn 0.000000 1.000000 -0.000000
vn 0.000000 1.000000 -0.000000
vn 0.000000 1.000000 -0.000000
vn 0.000000 1.000000 -0.000000
vn 0.000000 1.000000 -0.000000
vn 0.000000 1.000000 -0.000000
vn 0.000000 1.000000 -0.000000
vn 0.510527 0.453193 0.730738
vn 0.510527 0.453193 0.730738
vn 0.510527 0.453193 0.730738
vn 0.000000 -1.000000 0.000000
vn 0.000000 -1.000000 0.000000
vn 0.000000 -1.000000 0.000000
vn 0.000000 -1.000000 0.000000
vn 0.000000 -1.000000 0.000000
s off
f 7/1/1 13/2/2 14/3/3
f 2/4/4 12/5/5 11/6/6
f 27/7/7 23/8/8 22/81/9 4/82/10
f 8/11/11 28/12/12 26/13/13 20/14/14 19/15/15
f 9/16/16 10/17/17 4/18/18
f 32/19/19 19/15/20 6/20/21 10/21/22 9/22/23 30/23/24
f 14/83/25 13/84/26 18/85/27 15/86/28 16/87/29
f 7/32/30 14/24/31 16/31/32 1/33/33 35/34/34 34/35/35
f 1/33/36 24/36/37 21/37/38 3/38/39 40/74/40
f 16/39/41 15/40/42 1/41/43
f 17/42/44 18/43/45 8/44/46
f 19/45/47 20/46/48 6/47/49
f 21/48/50 24/49/51 23/50/52
f 23/50/53 24/49/54 22/51/55
f 28/52/56 27/53/57 26/54/58
f 25/55/59 27/53/60 28/52/61
f 29/56/62 32/57/63 31/58/64
f 31/58/65 32/57/66 30/59/67
f 34/60/68 35/61/69 36/62/70
f 36/62/71 35/61/72 33/63/73
f 35/34/74 40/74/75 39/73/76 37/71/77 5/64/78 33/65/79
f 35/34/80 1/33/81 40/74/82
f 24/36/83 31/66/84 30/23/85 9/22/86 4/10/87 22/9/88
f 31/66/89 15/30/90 2/29/91 11/67/92 29/68/93
f 1/33/94 15/30/95 31/66/96 24/36/97
f 11/67/98 12/28/99 17/27/100 8/11/101 19/15/102 32/19/103 29/68/104
f 36/70/105 18/26/106 13/25/107 7/32/108 34/35/109
f 36/70/110 28/12/111 8/11/112 18/26/113
f 27/7/114 4/82/115 10/88/116 6/89/117 20/90/118 26/91/119
f 5/75/120 37/76/121 38/77/122
f 5/64/123 38/72/124 25/69/125 28/12/126 36/70/127 33/65/128
f 37/92/129 39/93/130 3/94/131 21/95/132 23/8/133
f 38/96/134 37/92/135 23/8/136 27/7/137 25/97/138
f 39/78/139 40/79/140 3/80/141
f 15/86/142 18/85/143 17/98/144 12/99/145 2/100/146
