# This file uses centimeters as units for non-parametric coordinates.

v 0.001970 50.000000 17.925089
v 0.001970 60.000000 -6.771881
v 0.001970 50.000000 -6.771881
v 46.191967 50.000000 -6.771881
v 36.014271 60.000000 17.925089
v 46.191971 60.000000 -6.771881
v 21.015556 60.000000 17.925089
v 0.001970 57.500000 17.925089
v 0.001970 60.000000 15.245637
v 46.191967 50.000000 9.032238
v 37.636673 50.000000 17.925089
v 46.191967 58.346169 9.032238
v 37.636673 59.150017 17.925089
v 41.739975 60.000000 6.390097
v 46.430229 12.500000 9.567086
v 46.430229 12.500000 0.000000
v 46.430229 25.000000 9.567086
v 46.430229 25.000000 0.000000
v 32.417061 12.500000 18.775110
v 37.213440 12.500000 18.783878
v 32.417061 25.000000 18.775108
v 37.213440 25.000000 18.783878
v 23.096970 12.500000 9.386616
v 23.333242 12.500000 0.000000
v 23.096970 25.000000 9.386616
v 23.333242 25.000000 0.000000
v 46.430229 37.500000 9.567086
v 46.430229 37.500000 0.000000
v 46.430229 50.000000 9.567086
v 46.430229 50.000000 0.000000
v 32.417061 37.500000 18.775110
v 37.213440 37.500000 18.783878
v 32.417061 50.000000 18.775108
v 37.213440 50.000000 18.783878
v 23.096970 37.500000 9.386616
v 23.333242 37.500000 0.000000
v 23.096970 50.000000 9.386616
v 23.333242 50.000000 0.000000
v 0.000000 25.000000 0.000000
v 0.000000 25.000000 9.567085
v 13.529901 25.000000 23.096985
v 32.664070 25.000000 23.096985
v 46.193974 25.000000 9.567086
v 46.193974 25.000000 0.000000
v 0.000000 37.500000 0.000000
v 0.000000 37.500000 9.567085
v 46.193974 37.500000 9.567086
v 46.193974 37.500000 0.000000
v 10.147424 37.500000 19.714510
v 18.313442 37.500000 23.096985
v 13.529901 34.375000 23.096985
v 34.693558 37.500000 21.067503
v 32.664070 36.254906 23.096985
v 24.923405 37.500000 23.096985
v 0.000000 0.000000 0.000000
v 0.000000 0.000000 9.567085
v 13.529901 0.000000 23.096985
v 32.664070 0.000000 23.096985
v 46.193974 0.000000 9.567086
v 46.193974 0.000000 0.000000
v 0.000000 12.500000 0.000000
v 0.000000 12.500000 9.567085
v 13.529901 12.500000 23.096985
v 32.664070 12.500000 23.096985
v 46.193974 12.500000 9.567086
v 46.193974 12.500000 0.000000
vt 0.066707 0.162518
vt 0.066686 0.162692
vt 0.066237 0.162745
vt 0.066712 0.162869
vt 0.066715 0.162648
vt 0.066701 0.162959
vt 0.065751 0.162711
vt 0.065763 0.162465
vt 0.065758 0.162891
vt 0.065731 0.162711
vt 0.065767 0.162630
vt 0.065726 0.162872
vt 0.065740 0.162720
vt 0.065774 0.162594
vt 0.065725 0.162745
vt 0.065753 0.162638
vt 0.065752 0.162418
vt 0.065723 0.162521
vt 0.065897 0.162642
vt 0.065895 0.162869
vt 0.066154 0.162667
vt 0.066160 0.162446
vt 0.066221 0.162557
vt 0.066003 0.162650
vt 0.065995 0.162877
vt 0.066211 0.162782
vt 0.065725 0.162745
vt 0.065753 0.162638
vt 0.065752 0.162418
vt 0.065723 0.162521
vt 0.065897 0.162642
vt 0.065895 0.162869
vt 0.066154 0.162667
vt 0.066160 0.162446
vt 0.066221 0.162557
vt 0.066003 0.162650
vt 0.065995 0.162877
vt 0.066211 0.162782
vt 0.066692 0.162696
vt 0.066696 0.162811
vt 0.066723 0.162592
vt 0.066718 0.162480
vt 0.065723 0.162736
vt 0.065741 0.162624
vt 0.065748 0.162410
vt 0.065731 0.162519
vt 0.065989 0.162926
vt 0.066405 0.162959
vt 0.066416 0.162848
vt 0.066214 0.162721
vt 0.066575 0.162665
vt 0.066108 0.162713
vt 0.065995 0.162815
vt 0.065866 0.162612
vt 0.066694 0.162674
vt 0.066697 0.162799
vt 0.066723 0.162588
vt 0.066719 0.162466
vt 0.066405 0.162959
vt 0.066426 0.162746
vt 0.065988 0.162923
vt 0.066001 0.162710
vt 0.065723 0.162717
vt 0.065730 0.162508
vt 0.065741 0.162596
vt 0.065748 0.162389
vn 0.000000 0.000000 -1.000000
vn 0.000000 0.000000 -1.000000
vn 0.000000 0.000000 -1.000000
vn 0.000000 0.000000 -1.000000
vn 0.000000 -1.000000 0.000000
vn 0.000000 -1.000000 0.000000
vn 0.000000 -1.000000 0.000000
vn 1.000000 -0.000000 0.000000
vn 1.000000 -0.000000 0.000000
vn 1.000000 -0.000000 0.000000
vn 1.000000 -0.000000 0.000000
vn -0.086660 0.728416 0.679632
vn -0.086660 0.728416 0.679632
vn -0.086660 0.728416 0.679632
vn 0.452230 0.863191 0.224476
vn 0.452230 0.863191 0.224476
vn 0.452230 0.863191 0.224476
vn 0.000000 0.000000 1.000000
vn 0.000000 0.000000 1.000000
vn 0.000000 0.000000 1.000000
vn 0.000000 0.000000 1.000000
vn 0.000000 1.000000 0.000000
vn 0.000000 1.000000 0.000000
vn 0.000000 1.000000 0.000000
vn -1.000000 0.000000 0.000000
vn -1.000000 0.000000 0.000000
vn -1.000000 0.000000 0.000000
vn 0.720652 0.000000 0.693297
vn 0.720652 0.000000 0.693297
vn 0.720652 0.000000 0.693297
vn 0.720652 0.000000 0.693297
vn 0.257777 0.952546 0.161889
vn 0.257777 0.952546 0.161889
vn 0.257777 0.952546 0.161889
vn 0.000000 -1.000000 0.000000
vn 0.000000 -1.000000 0.000000
vn 0.000000 -1.000000 0.000000
vn 0.000000 -1.000000 0.000000
vn 0.000000 0.000000 1.000000
vn 0.000000 0.000000 1.000000
vn 0.000000 0.000000 1.000000
vn 0.000000 0.000000 1.000000
vn -1.000000 0.000000 0.000000
vn -1.000000 0.000000 0.000000
vn -1.000000 0.000000 0.000000
vn -1.000000 0.000000 0.000000
vn 0.000000 1.000000 0.000000
vn 0.000000 1.000000 0.000000
vn 0.000000 1.000000 0.000000
vn 0.000000 1.000000 0.000000
vn 0.000000 1.000000 0.000000
vn 0.294090 0.950587 0.099475
vn 0.294090 0.950587 0.099475
vn 0.294090 0.950587 0.099475
vn 1.000000 0.000000 0.000000
vn 1.000000 0.000000 0.000000
vn 1.000000 0.000000 0.000000
vn 1.000000 0.000000 0.000000
vn 0.707107 0.000000 0.707107
vn 0.707107 0.000000 0.707107
vn 0.707107 0.000000 0.707107
vn 0.707107 0.000000 0.707107
vn 0.000000 0.000000 -1.000000
vn 0.000000 0.000000 -1.000000
vn 0.000000 0.000000 -1.000000
vn 0.000000 0.000000 -1.000000
vn 0.000000 1.000000 0.000000
vn 0.000000 1.000000 0.000000
vn 0.000000 1.000000 -0.000000
vn 0.000000 1.000000 -0.000000
vn 0.000000 1.000000 -0.000000
vn 0.000000 1.000000 -0.000000
vn -0.709687 0.000000 0.704517
vn -0.709687 0.000000 0.704517
vn -0.709687 0.000000 0.704517
vn -0.709687 0.000000 0.704517
vn -0.001828 0.000000 0.999998
vn -0.001828 0.000000 0.999998
vn -0.001828 0.000000 0.999998
vn -0.001828 0.000000 0.999998
vn 0.000000 -1.000000 0.000000
vn 0.000000 -1.000000 0.000000
vn 0.000000 -1.000000 0.000000
vn 0.000000 -1.000000 0.000000
vn 0.000000 -1.000000 0.000000
vn 0.000000 -1.000000 0.000000
vn -0.999683 0.000000 -0.025163
vn -0.999683 0.000000 -0.025163
vn -0.999683 0.000000 -0.025163
vn -0.999683 0.000000 -0.025163
vn 1.000000 0.000000 0.000000
vn 1.000000 0.000000 0.000000
vn 1.000000 0.000000 0.000000
vn 1.000000 0.000000 0.000000
vn 0.707107 0.000000 0.707107
vn 0.707107 0.000000 0.707107
vn 0.707107 0.000000 0.707107
vn 0.707107 0.000000 0.707107
vn 0.000000 0.000000 -1.000000
vn 0.000000 0.000000 -1.000000
vn 0.000000 0.000000 -1.000000
vn 0.000000 0.000000 -1.000000
vn 0.000000 1.000000 0.000000
vn 0.000000 1.000000 0.000000
vn 0.000000 1.000000 -0.000000
vn 0.000000 1.000000 -0.000000
vn 0.000000 1.000000 -0.000000
vn 0.000000 1.000000 -0.000000
vn -0.709687 0.000000 0.704517
vn -0.709687 0.000000 0.704517
vn -0.709687 0.000000 0.704517
vn -0.709687 0.000000 0.704517
vn -0.001828 0.000000 0.999998
vn -0.001828 0.000000 0.999998
vn -0.001828 0.000000 0.999998
vn -0.001828 0.000000 0.999998
vn 0.000000 -1.000000 -0.000000
vn 0.000000 -1.000000 -0.000000
vn 0.000000 -1.000000 0.000000
vn 0.000000 -1.000000 0.000000
vn 0.000000 -1.000000 -0.000000
vn 0.000000 -1.000000 -0.000000
vn -0.999683 0.000000 -0.025163
vn -0.999683 0.000000 -0.025163
vn -0.999683 0.000000 -0.025163
vn -0.999683 0.000000 -0.025163
vn -1.000000 0.000000 0.000000
vn -1.000000 0.000000 0.000000
vn -1.000000 0.000000 0.000000
vn -1.000000 0.000000 0.000000
vn 1.000000 0.000000 0.000000
vn 1.000000 0.000000 0.000000
vn 1.000000 0.000000 0.000000
vn 1.000000 0.000000 0.000000
vn 0.000000 0.000000 -1.000000
vn 0.000000 0.000000 -1.000000
vn 0.000000 0.000000 -1.000000
vn 0.000000 0.000000 -1.000000
vn 0.000000 -1.000000 0.000000
vn 0.000000 -1.000000 0.000000
vn 0.000000 -1.000000 0.000000
vn 0.000000 -1.000000 0.000000
vn 0.000000 -1.000000 0.000000
vn 0.000000 -1.000000 0.000000
vn 0.000000 -1.000000 0.000000
vn 0.000000 -1.000000 0.000000
vn 0.000000 -1.000000 0.000000
vn 0.000000 -1.000000 0.000000
vn -0.330200 0.505450 0.797175
vn -0.330200 0.505450 0.797175
vn -0.330200 0.505450 0.797175
vn 0.126163 0.784345 0.607360
vn 0.126163 0.784345 0.607360
vn 0.126163 0.784345 0.607360
vn -0.707107 -0.000000 0.707107
vn -0.707107 -0.000000 0.707107
vn -0.707107 -0.000000 0.707107
vn -0.707107 -0.000000 0.707107
vn -0.707107 -0.000000 0.707107
vn -0.707107 -0.000000 0.707107
vn -0.707107 -0.000000 0.707107
vn -0.000000 0.000000 1.000000
vn -0.000000 0.000000 1.000000
vn -0.000000 0.000000 1.000000
vn -0.000000 0.000000 1.000000
vn -0.000000 0.000000 1.000000
vn -0.000000 0.000000 1.000000
vn -0.000000 0.000000 1.000000
vn -0.000000 0.000000 1.000000
vn 0.707107 0.000000 0.707107
vn 0.707107 0.000000 0.707107
vn 0.707107 0.000000 0.707107
vn 0.707107 0.000000 0.707107
vn 0.707107 0.000000 0.707107
vn 0.707107 0.000000 0.707107
vn 0.707107 0.000000 0.707107
vn 0.000000 1.000000 -0.000000
vn 0.000000 1.000000 -0.000000
vn 0.000000 1.000000 -0.000000
vn 0.000000 1.000000 -0.000000
vn 0.000000 1.000000 -0.000000
vn 0.000000 1.000000 -0.000000
vn 0.000000 1.000000 -0.000000
vn 0.000000 1.000000 -0.000000
vn 0.000000 1.000000 -0.000000
vn 0.000000 1.000000 -0.000000
vn 0.000000 1.000000 -0.000000
vn 0.000000 1.000000 -0.000000
vn -1.000000 0.000000 0.000000
vn -1.000000 0.000000 0.000000
vn -1.000000 0.000000 0.000000
vn -1.000000 0.000000 0.000000
vn -0.707107 0.000000 0.707107
vn -0.707107 0.000000 0.707107
vn -0.707107 0.000000 0.707107
vn -0.707107 0.000000 0.707107
vn 0.000000 0.000000 1.000000
vn 0.000000 0.000000 1.000000
vn 0.000000 0.000000 1.000000
vn 0.000000 0.000000 1.000000
vn 0.707107 0.000000 0.707107
vn 0.707107 0.000000 0.707107
vn 0.707107 0.000000 0.707107
vn 0.707107 0.000000 0.707107
vn 1.000000 0.000000 0.000000
vn 1.000000 0.000000 0.000000
vn 1.000000 0.000000 0.000000
vn 1.000000 0.000000 0.000000
vn 0.000000 0.000000 -1.000000
vn 0.000000 0.000000 -1.000000
vn 0.000000 0.000000 -1.000000
vn 0.000000 0.000000 -1.000000
vn 0.000000 -1.000000 0.000000
vn 0.000000 -1.000000 0.000000
vn 0.000000 -1.000000 0.000000
vn 0.000000 -1.000000 0.000000
vn 0.000000 -1.000000 0.000000
vn 0.000000 -1.000000 0.000000
vn 0.000000 -1.000000 0.000000
vn 0.000000 -1.000000 0.000000
vn 0.000000 -1.000000 0.000000
vn 0.000000 -1.000000 0.000000
vn 0.000000 1.000000 -0.000000
vn 0.000000 1.000000 -0.000000
vn 0.000000 1.000000 -0.000000
vn 0.000000 1.000000 -0.000000
vn 0.000000 1.000000 -0.000000
vn 0.000000 1.000000 -0.000000
vn 0.000000 1.000000 -0.000000
vn 0.000000 1.000000 -0.000000
vn 0.000000 1.000000 -0.000000
vn 0.000000 1.000000 -0.000000
s off
f 2/1/1 6/8/2 4/11/3 3/2/4
f 3/2/5 4/11/6 10/12/7
f 12/10/8 10/12/9 4/11/10 6/8/11
f 9/5/12 8/4/13 7/3/14
f 5/7/15 13/13/16 14/14/17
f 1/6/18 11/9/19 13/13/20 8/4/21
f 9/5/22 6/8/23 2/1/24
f 3/2/25 1/6/26 8/4/27
f 11/9/28 10/12/29 12/10/30 13/13/31
f 12/10/32 14/14/33 13/13/34
f 3/2/35 10/12/36 11/9/37 1/6/38
f 8/4/39 13/13/40 5/7/41 7/3/42
f 3/2/43 8/4/44 9/5/45 2/1/46
f 9/5/47 7/3/48 5/7/49 14/14/50 6/8/51
f 6/8/52 14/14/53 12/10/54
f 15/15/55 16/16/56 18/17/57 17/18/58
f 22/19/59 20/20/60 15/15/61 17/18/62
f 24/21/63 26/22/64 18/17/65 16/16/66
f 17/18/67 18/17/68 26/22/69 25/23/70 21/24/71 22/19/72
f 19/25/73 21/24/74 25/23/75 23/26/76
f 19/25/77 20/20/78 22/19/79 21/24/80
f 23/26/81 24/21/82 16/16/83 15/15/84 20/20/85 19/25/86
f 24/21/87 23/26/88 25/23/89 26/22/90
f 27/27/91 28/28/92 30/29/93 29/30/94
f 34/31/95 32/32/96 27/27/97 29/30/98
f 36/33/99 38/34/100 30/29/101 28/28/102
f 29/30/103 30/29/104 38/34/105 37/35/106 33/36/107 34/31/108
f 31/37/109 33/36/110 37/35/111 35/38/112
f 31/37/113 32/32/114 34/31/115 33/36/116
f 35/38/117 36/33/118 28/28/119 27/27/120 32/32/121 31/37/122
f 36/33/123 35/38/124 37/35/125 38/34/126
f 39/39/127 40/40/128 46/41/129 45/42/130
f 43/43/131 44/44/132 48/45/133 47/46/134
f 45/42/135 48/45/136 44/44/137 39/39/138
f 44/44/139 43/43/140 39/39/141
f 39/39/142 43/43/143 42/47/144 40/40/145
f 42/47/146 41/48/147 40/40/148
f 51/49/149 50/50/150 49/51/151
f 54/52/152 53/53/153 52/54/154
f 46/41/155 40/40/156 41/48/157 51/49/158
f 51/49/159 49/51/160 46/41/161
f 51/49/162 41/48/163 42/47/164 50/50/165
f 54/52/166 50/50/167 42/47/168 53/53/169
f 53/53/170 42/47/171 43/43/172 52/54/173
f 47/46/174 52/54/175 43/43/176
f 48/45/177 45/42/178 46/41/179 49/51/180
f 48/45/181 49/51/182 50/50/183 54/52/184
f 48/45/185 54/52/186 52/54/187 47/46/188
f 55/55/189 56/56/190 62/57/191 61/58/192
f 56/56/193 57/59/194 63/60/195 62/57/196
f 57/59/197 58/61/198 64/62/199 63/60/200
f 58/61/201 59/63/202 65/64/203 64/62/204
f 59/63/205 60/65/206 66/66/207 65/64/208
f 61/58/209 66/66/210 60/65/211 55/55/212
f 60/65/213 59/63/214 55/55/215
f 55/55/216 59/63/217 58/61/218 56/56/219
f 58/61/220 57/59/221 56/56/222
f 61/58/223 62/57/224 66/66/225
f 66/66/226 62/57/227 63/60/228 65/64/229
f 63/60/230 64/62/231 65/64/232
