# This file uses centimeters as units for non-parametric coordinates.

v -6.277344 -6.796595 6.097717
v 6.101008 -6.796595 6.097717
v 6.101008 101.141457 6.097717
v -6.277344 101.141457 -6.101008
v 6.101008 101.141457 -6.101008
v -6.277344 -6.796595 -6.101008
v 6.101008 -6.796595 -6.101008
v -6.277344 -7.596310 17.817650
v 6.277344 -7.596310 17.817650
v -6.277344 96.840591 5.000000
v 6.277344 96.840591 5.000000
v -6.277344 -7.596310 5.000000
v 6.277344 -7.596310 5.000000
v -3.138672 93.958900 17.817650
v -6.277344 89.898407 17.817650
v -6.277344 94.679321 14.613237
v -5.565887 42.655762 17.817650
v 5.079910 24.192574 17.817650
v -6.277344 28.564289 5.000000
v 6.277344 40.730762 5.000000
v 6.277344 96.096199 8.311083
v 2.721100 93.958900 17.817650
v 6.097717 89.709396 17.817650
v -3.182756 101.141457 6.097717
v -6.277344 99.309303 6.097717
v -6.277344 101.141457 0.299100
vt 0.077301 0.173218
vt 0.077207 0.173134
vt 0.077209 0.172296
vt 0.077327 0.172218
vt 0.077442 0.172303
vt 0.077303 0.173060
vt 0.077398 0.173141
vt 0.079146 0.168265
vt 0.079060 0.168261
vt 0.079062 0.177319
vt 0.079143 0.173109
vt 0.079141 0.159619
vt 0.079065 0.159615
vt 0.079056 0.159655
vt 0.079135 0.159659
vt 0.079053 0.175096
vt 0.079143 0.168290
vt 0.079137 0.168423
vt 0.079095 0.168314
vt 0.079136 0.173427
vt 0.079052 0.169358
vt 0.079055 0.168287
vt 0.079072 0.168313
vt 0.077267 0.172339
vt 0.077313 0.172801
vt 0.077383 0.172343
vn 0.000000 0.000000 -1.000000
vn 0.000000 0.000000 -1.000000
vn 0.000000 0.000000 -1.000000
vn 0.000000 0.000000 -1.000000
vn 0.000000 -1.000000 0.000000
vn 0.000000 -1.000000 0.000000
vn 0.000000 -1.000000 0.000000
vn 0.000000 -1.000000 0.000000
vn 1.000000 0.000000 0.000000
vn 1.000000 0.000000 0.000000
vn 1.000000 0.000000 0.000000
vn 1.000000 0.000000 0.000000
vn -0.491611 0.830352 0.262363
vn -0.491611 0.830352 0.262363
vn -0.491611 0.830352 0.262363
vn -0.000000 0.000000 -1.000000
vn -0.000000 0.000000 -1.000000
vn -0.000000 0.000000 -1.000000
vn -0.000000 0.000000 -1.000000
vn 0.000000 -1.000000 0.000000
vn 0.000000 -1.000000 0.000000
vn 0.000000 -1.000000 0.000000
vn 0.000000 -1.000000 0.000000
vn 0.998305 0.014921 0.056257
vn 0.998305 0.014921 0.056257
vn 0.998305 0.014921 0.056257
vn 0.998305 0.014921 0.056257
vn -0.584454 0.451770 0.674031
vn -0.584454 0.451770 0.674031
vn -0.584454 0.451770 0.674031
vn 0.000000 0.000000 1.000000
vn 0.000000 0.000000 1.000000
vn 0.000000 0.000000 1.000000
vn 0.000000 0.000000 1.000000
vn 0.000000 0.975647 0.219347
vn 0.000000 0.975647 0.219347
vn 0.000000 0.975647 0.219347
vn -0.999696 0.008231 0.023220
vn -0.999696 0.008231 0.023220
vn -0.999696 0.008231 0.023220
vn -0.999696 0.008231 0.023220
vn 0.000000 0.000000 -1.000000
vn 0.000000 0.000000 -1.000000
vn 0.000000 0.000000 -1.000000
vn 0.000000 0.000000 -1.000000
vn -1.000000 0.000000 0.000000
vn -1.000000 0.000000 0.000000
vn -1.000000 0.000000 0.000000
vn -1.000000 0.000000 0.000000
vn -0.997301 -0.015019 0.071868
vn -0.997301 -0.015019 0.071868
vn -0.997301 -0.015019 0.071868
vn 0.000000 0.000000 1.000000
vn 0.000000 0.000000 1.000000
vn 0.000000 0.000000 1.000000
vn 0.718537 0.570943 0.397152
vn 0.718537 0.570943 0.397152
vn 0.718537 0.570943 0.397152
vn 0.998929 -0.008662 0.045446
vn 0.998929 -0.008662 0.045446
vn 0.998929 -0.008662 0.045446
vn 0.998929 -0.008662 0.045446
vn 0.998929 -0.008662 0.045446
vn 0.998929 -0.008662 0.045446
vn 0.998929 -0.008662 0.045446
vn -0.000001 0.975647 0.219347
vn -0.000001 0.975647 0.219347
vn -0.000001 0.975647 0.219347
vn -0.000001 0.975647 0.219347
vn -0.000001 0.975647 0.219347
vn -0.000001 0.975647 0.219347
vn -0.000001 0.975647 0.219347
vn -0.000000 0.000000 1.000000
vn -0.000000 0.000000 1.000000
vn -0.000000 0.000000 1.000000
vn -0.000000 0.000000 1.000000
vn -0.000000 0.000000 1.000000
vn -0.000000 0.000000 1.000000
vn -0.000000 0.000000 1.000000
vn 0.000000 0.000000 1.000000
vn 0.000000 0.000000 1.000000
vn 0.000000 0.000000 1.000000
vn 0.000000 0.000000 1.000000
vn 0.000000 0.000000 1.000000
vn 0.000000 0.000000 1.000000
vn 0.000000 0.000000 1.000000
vn 0.000000 1.000000 0.000000
vn 0.000000 1.000000 0.000000
vn 0.000000 1.000000 0.000000
vn 0.000000 1.000000 0.000000
vn 0.000000 1.000000 0.000000
vn 0.000000 1.000000 0.000000
vn 0.000000 1.000000 0.000000
vn -1.000000 0.000000 0.000000
vn -1.000000 0.000000 0.000000
vn -1.000000 0.000000 0.000000
vn -1.000000 0.000000 0.000000
vn -1.000000 0.000000 0.000000
vn -1.000000 0.000000 0.000000
vn -1.000000 0.000000 0.000000
s off
f 4/5/1 5/4/2 7/6/3 6/7/4
f 6/7/5 7/6/6 2/2/7 1/1/8
f 2/2/9 7/6/10 5/4/11 3/3/12
f 26/26/13 25/25/14 24/24/15
f 10/8/16 11/9/17 20/10/18 19/11/19
f 12/12/20 13/13/21 9/14/22 8/15/23
f 9/14/24 13/13/25 20/10/26 18/16/27
f 16/17/28 15/18/29 14/19/30
f 8/15/31 9/14/32 18/16/33 17/20/34
f 16/17/35 11/9/36 10/8/37
f 12/12/38 8/15/39 17/20/40 19/11/41
f 19/11/42 20/10/43 13/13/44 12/12/45
f 19/11/46 15/18/47 16/17/48 10/8/49
f 19/11/50 17/20/51 15/18/52
f 17/20/53 18/16/54 15/18/55
f 23/21/56 21/22/57 22/23/58
f 18/16/59 20/10/60 23/21/61
f 20/10/62 11/9/63 21/22/64 23/21/65
f 21/22/66 11/9/67 16/17/68 14/19/69
f 14/19/70 22/23/71 21/22/72
f 18/16/73 23/21/74 15/18/75
f 15/18/76 23/21/77 22/23/78 14/19/79
f 25/25/80 1/1/81 2/2/82 24/24/83
f 3/3/84 24/24/85 2/2/86
f 24/24/87 3/3/88 5/4/89 26/26/90
f 26/26/91 5/4/92 4/5/93
f 4/5/94 6/7/95 1/1/96 26/26/97
f 1/1/98 25/25/99 26/26/100
