# This file uses centimeters as units for non-parametric coordinates.

v -37.094440 -58.019192 2.810326
v -34.638721 -58.019192 2.810326
v -37.996632 58.019196 2.810326
v -35.540913 58.019196 2.810326
v -37.996632 58.019196 0.354607
v -35.540913 58.019196 0.354607
v -37.094440 -58.019192 0.354607
v -34.638721 -58.019192 0.354607
v 33.766060 -58.019192 2.810326
v 36.221779 -58.019192 2.810326
v 33.938591 58.019196 4.666649
v 36.394310 58.019196 4.666649
v 33.938591 58.019196 2.210930
v 36.394310 58.019196 2.210930
v 33.766060 -58.019192 0.354607
v 36.221779 -58.019192 0.354607
v -0.405025 -58.019192 -0.598885
v 2.050694 -58.019192 -0.598885
v -0.806666 58.019196 2.810326
v 1.649053 58.019196 2.810326
v -0.806666 58.019196 0.354607
v 1.649053 58.019196 0.354607
v -0.405025 -58.019192 -3.054604
v 2.050694 -58.019192 -3.054604
v -64.619995 36.067162 3.594048
v -64.619972 35.439972 1.375183
v -64.619972 38.671219 1.375183
v -64.619995 38.044037 3.594048
v -64.619995 4.897659 3.594048
v -64.619972 4.270470 1.375183
v -64.619972 7.501724 1.375183
v -64.619995 6.874527 3.594048
v -64.619980 -26.792980 5.450371
v -64.619957 -27.420170 3.231506
v -64.619957 -24.188915 3.231506
v -64.619980 -24.816105 5.450371
v 63.339958 -26.739681 3.594048
v 63.339958 -24.762806 3.594048
v 63.339935 -24.135616 1.375183
v 63.339935 -27.366871 1.375183
v 63.339951 4.897659 3.594048
v 63.339951 6.874527 3.594048
v 63.339928 7.501724 1.375183
v 63.339928 4.270470 1.375183
v 63.339943 35.155334 3.594048
v 63.339943 37.132210 3.594048
v 63.339928 37.759392 1.375183
v 63.339928 34.528145 1.375183
v -40.026726 -23.832771 3.594048
v -40.026711 -24.459965 1.375183
v -40.026711 -21.228710 1.375183
v -40.026726 -21.855900 3.594048
v 32.144711 41.191544 2.810326
v 34.600430 41.191544 2.810326
v 34.600430 41.191544 0.354607
v 32.144711 41.191544 0.354607
v -1.710466 -28.890305 2.810326
v 0.745253 -28.890305 2.810326
v 0.745253 -28.890305 0.354607
v -1.710466 -28.890305 0.354607
v -0.334090 4.897659 5.900154
v -0.334090 4.270470 3.681290
v -0.334090 7.501724 3.681290
v -0.334090 6.874527 5.900154
v -34.487148 4.897659 0.613579
v -34.487137 4.270470 -1.605286
v -34.487137 7.501724 -1.605286
v -34.487148 6.874527 0.613579
vt 0.026050 0.286231
vt 0.026037 0.286233
vt 0.026056 0.285756
vt 0.026070 0.285754
vt 0.026068 0.285745
vt 0.026053 0.285746
vt 0.026035 0.286223
vt 0.026048 0.286222
vt 0.025671 0.247438
vt 0.025658 0.247440
vt 0.025646 0.246962
vt 0.025661 0.246961
vt 0.025659 0.246951
vt 0.025645 0.246952
vt 0.025656 0.247430
vt 0.025670 0.247428
vt 0.025857 0.286252
vt 0.025844 0.286253
vt 0.025847 0.285776
vt 0.025862 0.285774
vt 0.025860 0.285765
vt 0.025845 0.285766
vt 0.025842 0.286243
vt 0.025855 0.286242
vt 0.026211 0.286077
vt 0.026211 0.286085
vt 0.025484 0.286160
vt 0.025483 0.286152
vt 0.026198 0.286067
vt 0.025494 0.286140
vt 0.025495 0.286153
vt 0.026197 0.286080
vt 0.026226 0.285960
vt 0.026225 0.285968
vt 0.025480 0.286043
vt 0.025480 0.286035
vt 0.026212 0.285950
vt 0.025490 0.286022
vt 0.025491 0.286036
vt 0.026211 0.285963
vt 0.026236 0.246999
vt 0.026235 0.247008
vt 0.025477 0.285915
vt 0.025476 0.285907
vt 0.026221 0.246989
vt 0.025487 0.285894
vt 0.025488 0.285908
vt 0.026221 0.247003
vt 0.026071 0.247267
vt 0.026062 0.247261
vt 0.026062 0.247248
vt 0.026071 0.247259
vt 0.025662 0.285863
vt 0.025648 0.285864
vt 0.025646 0.285855
vt 0.025661 0.285853
vt 0.025858 0.247299
vt 0.025845 0.247300
vt 0.025843 0.247290
vt 0.025856 0.247289
vt 0.025867 0.247171
vt 0.025864 0.247165
vt 0.025865 0.247152
vt 0.025867 0.247163
vt 0.026044 0.285987
vt 0.026036 0.285981
vt 0.026036 0.285968
vt 0.026045 0.285978
vn 0.000000 0.000000 1.000000
vn 0.000000 0.000000 1.000000
vn 0.000000 0.000000 1.000000
vn 0.000000 0.000000 1.000000
vn 0.000000 0.000000 -1.000000
vn 0.000000 0.000000 -1.000000
vn 0.000000 0.000000 -1.000000
vn 0.000000 0.000000 -1.000000
vn 0.999970 0.007775 0.000000
vn 0.999970 0.007775 0.000000
vn 0.999970 0.007775 0.000000
vn 0.999970 0.007775 0.000000
vn -0.999970 -0.007775 0.000000
vn -0.999970 -0.007775 0.000000
vn -0.999970 -0.007775 0.000000
vn -0.999970 -0.007775 0.000000
vn 0.000000 -0.015204 0.999884
vn 0.000000 -0.016758 0.999860
vn 0.000000 -0.109649 0.993970
vn 0.000000 -0.109649 0.993970
vn 0.000000 0.109649 -0.993970
vn 0.000000 0.109649 -0.993970
vn 0.000000 0.016758 -0.999860
vn 0.000000 0.015204 -0.999884
vn 0.999997 -0.002537 0.000000
vn 1.000000 -0.000416 0.000000
vn 0.994366 -0.106003 0.000000
vn 0.994366 -0.106003 0.000000
vn -1.000000 0.000416 0.000000
vn -0.999997 0.002537 0.000000
vn -0.994366 0.106003 0.000000
vn -0.994366 0.106003 0.000000
vn 0.000000 -0.028885 0.999583
vn 0.000000 -0.029839 0.999555
vn 0.000000 0.000000 1.000000
vn 0.000000 0.000000 1.000000
vn 0.000000 0.000000 -1.000000
vn 0.000000 0.000000 -1.000000
vn 0.000000 0.029839 -0.999555
vn 0.000000 0.028885 -0.999583
vn 0.999996 0.002677 0.000000
vn 0.999991 0.004216 0.000000
vn 0.999946 -0.010399 0.000000
vn 0.999946 -0.010399 0.000000
vn -0.999991 -0.004216 0.000000
vn -0.999996 -0.002677 0.000000
vn -0.999946 0.010399 0.000000
vn -0.999946 0.010399 0.000000
vn 0.013804 0.000000 0.999905
vn 0.015167 0.000000 0.999885
vn 0.000000 0.000000 1.000000
vn 0.000000 0.000000 1.000000
vn 0.004737 0.962285 0.272002
vn 0.002393 0.962293 0.272004
vn 0.027052 0.961944 0.271906
vn 0.027052 0.961944 0.271906
vn -0.027052 -0.961943 0.271907
vn -0.027052 -0.961943 0.271907
vn 0.005108 -0.962283 0.272003
vn 0.003584 -0.962289 0.272004
vn 0.000000 0.000000 -1.000000
vn 0.000000 0.000000 -1.000000
vn -0.015168 0.000000 -0.999885
vn -0.013804 0.000000 -0.999905
vn -0.030453 0.000000 0.999536
vn -0.030453 0.000000 0.999536
vn 0.036194 0.000000 0.999345
vn 0.036194 0.000000 0.999345
vn -0.009097 0.962255 0.271996
vn -0.007396 0.962269 0.272000
vn 0.009851 0.962248 0.271995
vn 0.009851 0.962248 0.271995
vn 0.009851 -0.962249 0.271992
vn 0.009851 -0.962249 0.271992
vn -0.007396 -0.962270 0.271997
vn -0.009097 -0.962256 0.271994
vn -0.036194 0.000000 -0.999345
vn -0.036194 0.000000 -0.999345
vn 0.030453 0.000000 -0.999536
vn 0.030453 0.000000 -0.999536
vn -0.000000 0.000000 1.000000
vn -0.000000 0.000000 1.000000
vn -0.000000 0.000000 1.000000
vn -0.000000 0.000000 1.000000
vn 0.006857 0.962274 0.271996
vn 0.006857 0.962274 0.271996
vn 0.006857 0.962274 0.271996
vn 0.006857 0.962274 0.271996
vn -0.006857 -0.962274 0.271998
vn -0.006857 -0.962273 0.271998
vn -0.006857 -0.962273 0.271998
vn -0.006857 -0.962273 0.271998
vn 0.000000 0.000000 -1.000000
vn 0.000000 0.000000 -1.000000
vn 0.000000 0.000000 -1.000000
vn 0.000000 0.000000 -1.000000
vn 0.000000 1.000000 0.000000
vn 0.000000 1.000000 0.000000
vn 0.000000 1.000000 0.000000
vn 0.000000 1.000000 0.000000
vn 0.000000 1.000000 0.000000
vn 0.000000 1.000000 0.000000
vn 0.000000 1.000000 0.000000
vn 0.000000 1.000000 0.000000
vn 0.000000 1.000000 0.000000
vn 0.000000 1.000000 0.000000
vn 0.000000 1.000000 0.000000
vn 0.000000 1.000000 0.000000
vn 0.000000 -1.000000 0.000000
vn 0.000000 -1.000000 0.000000
vn 0.000000 -1.000000 0.000000
vn 0.000000 -1.000000 0.000000
vn 0.000000 -1.000000 0.000000
vn 0.000000 -1.000000 0.000000
vn 0.000000 -1.000000 0.000000
vn 0.000000 -1.000000 0.000000
vn 0.000000 -1.000000 0.000000
vn 0.000000 -1.000000 0.000000
vn 0.000000 -1.000000 0.000000
vn 0.000000 -1.000000 0.000000
vn -1.000000 0.000000 -0.000010
vn -1.000000 0.000000 -0.000010
vn -1.000000 0.000000 -0.000010
vn -1.000000 0.000000 -0.000010
vn -1.000000 0.000000 -0.000010
vn -1.000000 0.000000 -0.000010
vn -1.000000 0.000000 -0.000010
vn -1.000000 0.000000 -0.000010
vn -1.000000 0.000000 -0.000010
vn -1.000000 0.000000 -0.000010
vn -1.000000 0.000000 -0.000010
vn -1.000000 0.000000 -0.000010
vn 1.000000 0.000000 -0.000010
vn 1.000000 0.000000 -0.000010
vn 1.000000 0.000000 -0.000010
vn 1.000000 0.000000 -0.000010
vn 1.000000 0.000000 -0.000010
vn 1.000000 0.000000 -0.000010
vn 1.000000 0.000000 -0.000010
vn 1.000000 0.000000 -0.000010
vn 1.000000 0.000000 -0.000007
vn 1.000000 0.000000 -0.000007
vn 1.000000 0.000000 -0.000007
vn 1.000000 0.000000 -0.000007
vn 0.003584 -0.962289 0.272004
vn 0.005108 -0.962283 0.272003
vn 0.135109 -0.953472 0.269512
vn 0.135109 -0.953472 0.269512
vn -0.013804 0.000000 -0.999905
vn -0.015168 0.000000 -0.999885
vn -0.075267 0.000000 -0.997163
vn -0.075267 0.000000 -0.997163
vn -0.094867 0.957956 0.270778
vn -0.094867 0.957956 0.270778
vn 0.002393 0.962293 0.272004
vn 0.004737 0.962285 0.272002
vn 0.075267 0.000000 0.997163
vn 0.075267 0.000000 0.997163
vn 0.015167 0.000000 0.999885
vn 0.013804 0.000000 0.999905
vn 0.000000 0.000000 1.000000
vn 0.000000 0.000000 1.000000
vn 0.000000 -0.016758 0.999860
vn 0.000000 -0.015204 0.999884
vn 0.999867 0.016340 0.000000
vn 0.999867 0.016340 0.000000
vn 1.000000 -0.000416 0.000000
vn 0.999997 -0.002537 0.000000
vn 0.000000 0.015204 -0.999884
vn 0.000000 0.016758 -0.999860
vn 0.000000 0.000000 -1.000000
vn 0.000000 0.000000 -1.000000
vn -0.999867 -0.016340 0.000000
vn -0.999867 -0.016340 0.000000
vn -0.999997 0.002537 0.000000
vn -1.000000 0.000416 0.000000
vn 0.000000 -0.116245 0.993221
vn 0.000000 -0.116245 0.993221
vn 0.000000 -0.029839 0.999555
vn 0.000000 -0.028885 0.999583
vn 0.998997 0.044771 0.000000
vn 0.998997 0.044771 0.000000
vn 0.999991 0.004216 0.000000
vn 0.999996 0.002677 0.000000
vn 0.000000 0.028885 -0.999583
vn 0.000000 0.029839 -0.999555
vn 0.000000 0.116245 -0.993221
vn 0.000000 0.116245 -0.993221
vn -0.998997 -0.044771 0.000000
vn -0.998997 -0.044771 0.000000
vn -0.999996 -0.002677 0.000000
vn -0.999991 -0.004216 0.000000
vn -0.009097 -0.962256 0.271994
vn -0.007396 -0.962270 0.271997
vn -0.010293 -0.962245 0.271990
vn -0.009130 -0.962256 0.271994
vn 0.030453 0.000000 -0.999536
vn 0.030453 0.000000 -0.999536
vn 0.035850 0.000000 -0.999357
vn 0.035850 0.000000 -0.999357
vn -0.009130 0.962255 0.271997
vn -0.010293 0.962244 0.271994
vn -0.007396 0.962269 0.272000
vn -0.009097 0.962255 0.271996
vn -0.035850 0.000000 0.999357
vn -0.035850 0.000000 0.999357
vn -0.030453 0.000000 0.999536
vn -0.030453 0.000000 0.999536
vn -0.009130 -0.962256 0.271994
vn -0.010293 -0.962245 0.271990
vn 0.026895 -0.961948 0.271906
vn 0.026895 -0.961948 0.271907
vn 0.035850 0.000000 -0.999357
vn 0.035850 0.000000 -0.999357
vn -0.098431 0.000000 -0.995144
vn -0.098431 0.000000 -0.995144
vn 0.026895 0.961947 0.271910
vn 0.026895 0.961947 0.271910
vn -0.010293 0.962244 0.271994
vn -0.009130 0.962255 0.271997
vn 0.098431 0.000000 0.995144
vn 0.098431 0.000000 0.995144
vn -0.035850 0.000000 0.999357
vn -0.035850 0.000000 0.999357
s off
f 1/1/1 2/2/2 4/3/3 3/4/4
f 5/5/5 6/6/6 8/7/7 7/8/8
f 2/2/9 8/7/10 6/6/11 4/3/12
f 7/8/13 1/1/14 3/4/15 5/5/16
f 53/53/17 54/54/18 12/11/19 11/12/20
f 13/13/21 14/14/22 55/55/23 56/56/24
f 54/54/25 55/55/26 14/14/27 12/11/28
f 56/56/29 53/53/30 11/12/31 13/13/32
f 57/57/33 58/58/34 20/19/35 19/20/36
f 21/21/37 22/22/38 59/59/39 60/60/40
f 58/58/41 59/59/42 22/22/43 20/19/44
f 60/60/45 57/57/46 19/20/47 21/21/48
f 52/52/49 49/49/50 37/27/51 38/28/52
f 51/51/53 52/52/54 38/28/55 39/30/56
f 40/31/57 37/27/58 49/49/59 50/50/60
f 39/30/61 40/31/62 50/50/63 51/51/64
f 64/64/65 61/61/66 41/35/67 42/36/68
f 63/63/69 64/64/70 42/36/71 43/38/72
f 44/39/73 41/35/74 61/61/75 62/62/76
f 43/38/77 44/39/78 62/62/79 63/63/80
f 28/41/81 25/42/82 45/43/83 46/44/84
f 27/45/85 28/41/86 46/44/87 47/46/88
f 48/47/89 45/43/90 25/42/91 26/48/92
f 47/46/93 48/47/94 26/48/95 27/45/96
f 4/3/97 6/6/98 5/5/99 3/4/100
f 12/11/101 14/14/102 13/13/103 11/12/104
f 20/19/105 22/22/106 21/21/107 19/20/108
f 2/2/109 1/1/110 7/8/111 8/7/112
f 10/10/113 9/9/114 15/16/115 16/15/116
f 18/18/117 17/17/118 23/24/119 24/23/120
f 26/48/121 25/42/122 28/41/123 27/45/124
f 30/40/125 29/34/126 32/33/127 31/37/128
f 34/32/129 33/26/130 36/25/131 35/29/132
f 38/28/133 37/27/134 40/31/135 39/30/136
f 42/36/137 41/35/138 44/39/139 43/38/140
f 46/44/141 45/43/142 48/47/143 47/46/144
f 50/50/145 49/49/146 33/26/147 34/32/148
f 51/51/149 50/50/150 34/32/151 35/29/152
f 35/29/153 36/25/154 52/52/155 51/51/156
f 36/25/157 33/26/158 49/49/159 52/52/160
f 9/9/161 10/10/162 54/54/163 53/53/164
f 10/10/165 16/15/166 55/55/167 54/54/168
f 56/56/169 55/55/170 16/15/171 15/16/172
f 15/16/173 9/9/174 53/53/175 56/56/176
f 17/17/177 18/18/178 58/58/179 57/57/180
f 18/18/181 24/23/182 59/59/183 58/58/184
f 60/60/185 59/59/186 24/23/187 23/24/188
f 23/24/189 17/17/190 57/57/191 60/60/192
f 62/62/193 61/61/194 65/65/195 66/66/196
f 63/63/197 62/62/198 66/66/199 67/67/200
f 67/67/201 68/68/202 64/64/203 63/63/204
f 68/68/205 65/65/206 61/61/207 64/64/208
f 66/66/209 65/65/210 29/34/211 30/40/212
f 67/67/213 66/66/214 30/40/215 31/37/216
f 31/37/217 32/33/218 68/68/219 67/67/220
f 32/33/221 29/34/222 65/65/223 68/68/224
