# This file uses centimeters as units for non-parametric coordinates.

v -6.277344 -6.796595 6.097717
v 6.101008 -6.796595 6.097717
v 6.101008 61.401142 6.097717
v -6.277344 61.401142 -6.101008
v 6.101008 61.401142 -6.101008
v -6.277344 -6.796595 -6.101008
v 6.101008 -6.796595 -6.101008
v -3.182756 61.401142 6.097717
v -6.277344 58.860695 6.097717
v -6.277344 61.401142 0.514533
v -6.277344 -7.596310 17.817650
v 6.277344 -7.596310 17.817650
v -6.277344 56.872284 5.000000
v 6.277344 56.872284 5.000000
v -6.277344 -7.596310 5.000000
v 6.277344 -7.596310 5.000000
v -3.138672 53.990589 17.817650
v -6.277344 49.930099 17.817650
v -6.277344 54.711014 14.613237
v -5.565887 24.882311 17.817650
v 5.079910 15.004858 17.817650
v -6.277344 18.588451 5.000000
v 6.277344 25.248373 5.000000
v 6.277344 56.127880 8.311083
v 2.721100 53.990589 17.817650
v 6.097717 49.741085 17.817650
vt 0.077301 0.173218
vt 0.077207 0.173134
vt 0.077209 0.172296
vt 0.077327 0.172218
vt 0.077442 0.172303
vt 0.077303 0.173060
vt 0.077398 0.173141
vt 0.077267 0.172339
vt 0.077313 0.172801
vt 0.077383 0.172343
vt 0.079146 0.168265
vt 0.079060 0.168261
vt 0.079062 0.177319
vt 0.079143 0.173109
vt 0.079141 0.159619
vt 0.079065 0.159615
vt 0.079056 0.159655
vt 0.079135 0.159659
vt 0.079053 0.175096
vt 0.079143 0.168290
vt 0.079137 0.168423
vt 0.079095 0.168314
vt 0.079136 0.173427
vt 0.079052 0.169358
vt 0.079055 0.168287
vt 0.079072 0.168313
vn 0.000000 0.000000 -1.000000
vn 0.000000 0.000000 -1.000000
vn 0.000000 0.000000 -1.000000
vn 0.000000 0.000000 -1.000000
vn 0.000000 -1.000000 0.000000
vn 0.000000 -1.000000 0.000000
vn 0.000000 -1.000000 0.000000
vn 0.000000 -1.000000 0.000000
vn 1.000000 0.000000 0.000000
vn 1.000000 0.000000 0.000000
vn 1.000000 0.000000 0.000000
vn 1.000000 0.000000 0.000000
vn -0.598572 0.729137 0.331770
vn -0.598572 0.729137 0.331770
vn -0.598572 0.729137 0.331770
vn 0.000000 0.000000 1.000000
vn 0.000000 0.000000 1.000000
vn 0.000000 0.000000 1.000000
vn 0.000000 0.000000 1.000000
vn 0.000000 0.000000 1.000000
vn 0.000000 0.000000 1.000000
vn 0.000000 0.000000 1.000000
vn 0.000000 1.000000 0.000000
vn 0.000000 1.000000 0.000000
vn 0.000000 1.000000 0.000000
vn 0.000000 1.000000 0.000000
vn 0.000000 1.000000 0.000000
vn 0.000000 1.000000 0.000000
vn 0.000000 1.000000 0.000000
vn -1.000000 -0.000000 0.000000
vn -1.000000 -0.000000 0.000000
vn -1.000000 -0.000000 0.000000
vn -1.000000 -0.000000 0.000000
vn -1.000000 -0.000000 0.000000
vn -1.000000 -0.000000 0.000000
vn -1.000000 -0.000000 0.000000
vn 0.000000 0.000000 -1.000000
vn 0.000000 0.000000 -1.000000
vn 0.000000 0.000000 -1.000000
vn 0.000000 0.000000 -1.000000
vn 0.000000 -1.000000 0.000000
vn 0.000000 -1.000000 0.000000
vn 0.000000 -1.000000 0.000000
vn 0.000000 -1.000000 0.000000
vn 0.998240 0.021558 0.055242
vn 0.998240 0.021558 0.055242
vn 0.998240 0.021558 0.055242
vn 0.998240 0.021558 0.055242
vn -0.584453 0.451770 0.674032
vn -0.584453 0.451770 0.674032
vn -0.584453 0.451770 0.674032
vn 0.000000 0.000000 1.000000
vn 0.000000 0.000000 1.000000
vn 0.000000 0.000000 1.000000
vn 0.000000 0.000000 1.000000
vn 0.000000 0.975647 0.219347
vn 0.000000 0.975647 0.219347
vn 0.000000 0.975647 0.219347
vn -0.999620 0.012123 0.024766
vn -0.999620 0.012123 0.024766
vn -0.999620 0.012123 0.024766
vn -0.999620 0.012123 0.024766
vn -0.000000 0.000000 -1.000000
vn -0.000000 0.000000 -1.000000
vn -0.000000 0.000000 -1.000000
vn -0.000000 0.000000 -1.000000
vn -1.000000 -0.000000 -0.000000
vn -1.000000 -0.000000 -0.000000
vn -1.000000 -0.000000 -0.000000
vn -1.000000 -0.000000 -0.000000
vn -0.997197 -0.028324 0.069258
vn -0.997197 -0.028324 0.069258
vn -0.997197 -0.028324 0.069258
vn 0.000000 0.000000 1.000000
vn 0.000000 0.000000 1.000000
vn 0.000000 0.000000 1.000000
vn 0.718536 0.570943 0.397152
vn 0.718536 0.570943 0.397152
vn 0.718536 0.570943 0.397152
vn 0.998976 -0.015760 0.042418
vn 0.998976 -0.015760 0.042418
vn 0.998976 -0.015760 0.042418
vn 0.998976 -0.015760 0.042418
vn 0.998976 -0.015760 0.042418
vn -0.000000 0.975647 0.219347
vn -0.000000 0.975647 0.219347
vn -0.000000 0.975647 0.219347
vn -0.000000 0.975647 0.219347
vn -0.000000 0.975647 0.219347
vn -0.000000 0.000000 1.000000
vn -0.000000 0.000000 1.000000
vn -0.000000 0.000000 1.000000
vn -0.000000 0.000000 1.000000
vn -0.000000 0.000000 1.000000
s off
f 4/5/1 5/4/2 7/6/3 6/7/4
f 6/7/5 7/6/6 2/2/7 1/1/8
f 2/2/9 7/6/10 5/4/11 3/3/12
f 10/10/13 9/9/14 8/8/15
f 9/9/16 1/1/17 2/2/18 8/8/19
f 3/3/20 8/8/21 2/2/22
f 8/8/23 3/3/24 5/4/25 10/10/26
f 10/10/27 5/4/28 4/5/29
f 4/5/30 6/7/31 1/1/32 10/10/33
f 1/1/34 9/9/35 10/10/36
f 13/11/37 14/12/38 23/13/39 22/14/40
f 15/15/41 16/16/42 12/17/43 11/18/44
f 12/17/45 16/16/46 23/13/47 21/19/48
f 19/20/49 18/21/50 17/22/51
f 11/18/52 12/17/53 21/19/54 20/23/55
f 19/20/56 14/12/57 13/11/58
f 15/15/59 11/18/60 20/23/61 22/14/62
f 22/14/63 23/13/64 16/16/65 15/15/66
f 22/14/67 18/21/68 19/20/69 13/11/70
f 22/14/71 20/23/72 18/21/73
f 20/23/74 21/19/75 18/21/76
f 26/24/77 24/25/78 25/26/79
f 21/19/80 23/13/81 14/12/82 24/25/83 26/24/84
f 19/20/85 17/22/86 25/26/87 24/25/88 14/12/89
f 18/21/90 21/19/91 26/24/92 25/26/93 17/22/94
