# This file uses centimeters as units for non-parametric coordinates.

v 10.000000 290.046997 62.386055
v 10.000000 592.576294 -500.013580
v 0.000000 290.046997 62.386055
v 0.000000 592.576294 -500.013580
v 0.000000 290.000000 20.266258
v 0.000000 569.957397 -500.013550
v 10.000000 290.000000 20.266258
v 10.000000 569.957397 -500.013550
v 10.000000 310.035278 -489.985657
v 10.000000 475.528900 -324.492035
v 0.000000 310.035278 -489.985657
v 0.000000 475.528900 -324.492035
v 0.000000 338.284271 -490.020935
v 0.000000 485.415894 -342.889343
v 10.000000 338.284271 -490.020935
v 10.000000 485.415894 -342.889343
v 0.011231 310.035278 -323.860687
v 0.011231 475.569427 -324.014130
v 10.011230 310.035278 -323.860687
v 10.011230 475.569427 -324.014130
v 10.011230 310.000031 -305.609711
v 10.011230 465.689545 -305.609711
v 0.011231 310.000031 -305.609711
v 0.011231 465.689545 -305.609711
v 10.000000 310.000000 -16.650101
v 0.000000 310.000000 -16.650101
v 0.000000 290.000000 20.266266
v 10.000000 290.000000 20.266266
v 10.000000 310.000000 -983.346069
v 0.000000 310.000000 -983.346069
v 0.000000 290.000000 -1020.262451
v 10.000000 290.000000 -1020.262451
v 10.000000 290.046997 -1062.386108
v 10.000000 592.576294 -499.986420
v 0.000000 290.046997 -1062.386108
v 0.000000 592.576294 -499.986420
v 0.000000 290.000000 -1020.266235
v 0.000000 569.957397 -499.986450
v 10.000000 290.000000 -1020.266235
v 10.000000 569.957397 -499.986450
v 0.011231 310.035278 -250.334930
v 0.011231 391.611176 -168.759003
v 10.011230 310.035278 -250.334930
v 10.011230 391.611176 -168.759003
v 10.011230 310.000000 -222.085938
v 10.011230 381.731232 -150.354691
v 0.011231 310.000000 -222.085938
v 0.011231 381.731232 -150.354691
v 0.224211 564.836304 -489.986420
v 0.224211 309.999969 -489.986420
v 10.224211 564.836304 -489.986420
v 10.224211 309.999969 -489.986420
v 10.224211 564.836304 -509.986420
v 10.224211 309.999969 -509.986420
v 0.224211 564.836304 -509.986420
v 0.224211 309.999969 -509.986420
v 10.224211 402.039185 -489.986420
v 10.224211 348.616974 -489.986420
v 5.597197 371.317932 -489.986420
v 10.224211 368.212830 -494.986420
v 10.224211 569.957397 -499.986420
v 0.224211 569.957397 -499.986420
v 10.000000 310.035278 -510.014343
v 10.000000 475.528900 -675.507935
v 0.000000 310.035278 -510.014343
v 0.000000 475.528900 -675.507935
v 0.000000 338.284271 -509.979065
v 0.000000 485.415894 -657.110657
v 10.000000 338.284271 -509.979065
v 10.000000 485.415894 -657.110657
v 0.011231 310.035278 -676.139343
v 0.011231 475.569427 -675.985901
v 10.011230 310.035278 -676.139343
v 10.011230 475.569427 -675.985901
v 10.011230 310.000031 -694.390320
v 10.011230 465.689545 -694.390320
v 0.011231 310.000031 -694.390320
v 0.011231 465.689545 -694.390320
v 0.011231 310.035278 -749.665039
v 0.011231 391.611176 -831.240967
v 10.011230 310.035278 -749.665039
v 10.011230 391.611176 -831.240967
v 10.011230 310.000000 -777.914063
v 10.011230 381.731232 -849.645264
v 0.011231 310.000000 -777.914063
v 0.011231 381.731232 -849.645264
vt 0.038465 0.351812
vt 0.037475 0.351754
vt 0.037474 0.351715
vt 0.038467 0.351771
vt 0.037498 0.351698
vt 0.038474 0.351752
vt 0.037499 0.351736
vt 0.038472 0.351792
vt 0.038465 0.351812
vt 0.037475 0.351754
vt 0.037474 0.351715
vt 0.038467 0.351771
vt 0.037498 0.351698
vt 0.038474 0.351752
vt 0.037499 0.351736
vt 0.038472 0.351792
vt 0.038465 0.351812
vt 0.037475 0.351754
vt 0.037474 0.351715
vt 0.038467 0.351771
vt 0.037498 0.351698
vt 0.038474 0.351752
vt 0.037499 0.351736
vt 0.038472 0.351792
vt 0.038467 0.351771
vt 0.038465 0.351812
vt 0.038465 0.351812
vt 0.038467 0.351771
vt 0.038474 0.351752
vt 0.038474 0.351752
vt 0.038472 0.351792
vt 0.038472 0.351792
vt 0.038465 0.351812
vt 0.037475 0.351754
vt 0.037474 0.351715
vt 0.038467 0.351771
vt 0.037498 0.351698
vt 0.038474 0.351752
vt 0.037499 0.351736
vt 0.038472 0.351792
vt 0.038465 0.351812
vt 0.037475 0.351754
vt 0.037474 0.351715
vt 0.038467 0.351771
vt 0.037498 0.351698
vt 0.038474 0.351752
vt 0.037499 0.351736
vt 0.038472 0.351792
vt 0.037712 0.351748
vt 0.037699 0.351719
vt 0.038082 0.351750
vt 0.038472 0.351792
vt 0.038474 0.351752
vt 0.037498 0.351698
vt 0.037499 0.351736
vt 0.037475 0.351754
vt 0.038465 0.351812
vt 0.038468 0.351802
vt 0.037474 0.351715
vt 0.038467 0.351771
vt 0.038470 0.351762
vt 0.037586 0.351722
vt 0.038465 0.351812
vt 0.037475 0.351754
vt 0.037474 0.351715
vt 0.038467 0.351771
vt 0.037498 0.351698
vt 0.038474 0.351752
vt 0.037499 0.351736
vt 0.038472 0.351792
vt 0.038465 0.351812
vt 0.037475 0.351754
vt 0.037474 0.351715
vt 0.038467 0.351771
vt 0.037498 0.351698
vt 0.038474 0.351752
vt 0.037499 0.351736
vt 0.038472 0.351792
vt 0.038465 0.351812
vt 0.037475 0.351754
vt 0.037474 0.351715
vt 0.038467 0.351771
vt 0.037498 0.351698
vt 0.038474 0.351752
vt 0.037499 0.351736
vt 0.038472 0.351792
vn 0.000000 0.880668 0.473734
vn 0.000000 0.880668 0.473734
vn 0.000000 0.880668 0.473734
vn 0.000000 0.880668 0.473734
vn -1.000000 0.000000 0.000000
vn -1.000000 0.000000 0.000000
vn -1.000000 0.000000 0.000000
vn -1.000000 0.000000 0.000000
vn 0.000000 -0.880608 -0.473846
vn 0.000000 -0.880608 -0.473846
vn 0.000000 -0.880608 -0.473846
vn 0.000000 -0.880608 -0.473846
vn 1.000000 -0.000000 0.000000
vn 1.000000 -0.000000 0.000000
vn 1.000000 -0.000000 0.000000
vn 1.000000 -0.000000 0.000000
vn 0.000000 -0.000001 -1.000000
vn 0.000000 -0.000001 -1.000000
vn 0.000000 -0.000001 -1.000000
vn 0.000000 -0.000001 -1.000000
vn 0.000000 -0.999999 0.001116
vn 0.000000 -0.999999 0.001116
vn 0.000000 -0.999999 0.001116
vn 0.000000 -0.999999 0.001116
vn 0.000000 -0.707107 0.707107
vn 0.000000 -0.707107 0.707107
vn 0.000000 -0.707107 0.707107
vn 0.000000 -0.707107 0.707107
vn -1.000000 0.000000 0.000000
vn -1.000000 0.000000 0.000000
vn -1.000000 0.000000 0.000000
vn -1.000000 0.000000 0.000000
vn 0.000000 0.707107 -0.707107
vn 0.000000 0.707107 -0.707107
vn 0.000000 0.707107 -0.707107
vn 0.000000 0.707107 -0.707107
vn 1.000000 0.000000 0.000000
vn 1.000000 0.000000 0.000000
vn 1.000000 0.000000 0.000000
vn 1.000000 0.000000 0.000000
vn 0.000000 0.880855 0.473386
vn 0.000000 0.880855 0.473386
vn 0.000000 0.880855 0.473386
vn 0.000000 0.880855 0.473386
vn 0.000000 -0.001249 -0.999999
vn 0.000000 -0.001249 -0.999999
vn 0.000000 -0.001249 -0.999999
vn 0.000000 -0.001249 -0.999999
vn 0.000000 -0.000927 -1.000000
vn 0.000000 -0.000927 -1.000000
vn 0.000000 -0.000927 -1.000000
vn 0.000000 -0.000927 -1.000000
vn 1.000000 0.000000 0.000000
vn 1.000000 0.000000 0.000000
vn 1.000000 0.000000 0.000000
vn 1.000000 0.000000 0.000000
vn 0.000000 0.000000 1.000000
vn 0.000000 0.000000 1.000000
vn 0.000000 0.000000 1.000000
vn 0.000000 0.000000 1.000000
vn -1.000000 0.000000 0.000000
vn -1.000000 0.000000 0.000000
vn -1.000000 0.000000 0.000000
vn -1.000000 0.000000 0.000000
vn 0.000000 0.881074 0.472979
vn 0.000000 0.881074 0.472979
vn 0.000000 0.881074 0.472979
vn 0.000000 0.881074 0.472979
vn 0.000000 -0.999998 -0.001932
vn 0.000000 -0.999998 -0.001932
vn 0.000000 -0.999998 -0.001932
vn 0.000000 -0.999998 -0.001932
vn 0.000000 1.000000 0.000000
vn 0.000000 1.000000 0.000000
vn 0.000000 1.000000 0.000000
vn 0.000000 1.000000 0.000000
vn -1.000000 0.000000 0.000000
vn -1.000000 0.000000 0.000000
vn -1.000000 0.000000 0.000000
vn -1.000000 0.000000 0.000000
vn 0.000000 -1.000000 0.000000
vn 0.000000 -1.000000 0.000000
vn 0.000000 -1.000000 0.000000
vn 0.000000 -1.000000 0.000000
vn 1.000000 -0.000000 0.000000
vn 1.000000 -0.000000 0.000000
vn 1.000000 -0.000000 0.000000
vn 1.000000 -0.000000 0.000000
vn 0.000000 0.879256 0.476350
vn 0.000000 0.879256 0.476350
vn 0.000000 0.879256 0.476350
vn 0.000000 0.879256 0.476350
vn 0.000000 0.879256 -0.476350
vn 0.000000 0.879256 -0.476350
vn 0.000000 0.879256 -0.476350
vn 0.000000 0.879256 -0.476350
vn 0.000000 0.880668 -0.473734
vn 0.000000 0.880668 -0.473734
vn 0.000000 0.880668 -0.473734
vn 0.000000 0.880668 -0.473734
vn -1.000000 0.000000 0.000000
vn -1.000000 0.000000 0.000000
vn -1.000000 0.000000 0.000000
vn -1.000000 0.000000 0.000000
vn 0.000000 -0.880608 0.473846
vn 0.000000 -0.880608 0.473846
vn 0.000000 -0.880608 0.473846
vn 0.000000 -0.880608 0.473846
vn 1.000000 0.000000 0.000000
vn 1.000000 0.000000 0.000000
vn 1.000000 0.000000 0.000000
vn 1.000000 0.000000 0.000000
vn 0.000000 -0.000001 1.000000
vn 0.000000 -0.000001 1.000000
vn 0.000000 -0.000001 1.000000
vn 0.000000 -0.000001 1.000000
vn 0.000000 -0.999999 -0.001116
vn 0.000000 -0.999999 -0.001116
vn 0.000000 -0.999999 -0.001116
vn 0.000000 -0.999999 -0.001116
vn 0.000000 0.707107 -0.707107
vn 0.000000 0.707107 -0.707107
vn 0.000000 0.707107 -0.707107
vn 0.000000 0.707107 -0.707107
vn 1.000000 0.000000 0.000000
vn 1.000000 0.000000 0.000000
vn 1.000000 0.000000 0.000000
vn 1.000000 0.000000 0.000000
vn 0.000000 -0.707107 0.707107
vn 0.000000 -0.707107 0.707107
vn 0.000000 -0.707107 0.707107
vn 0.000000 -0.707107 0.707107
vn -1.000000 0.000000 0.000000
vn -1.000000 0.000000 0.000000
vn -1.000000 0.000000 0.000000
vn -1.000000 0.000000 0.000000
vn 0.000000 0.881071 0.472984
vn 0.000000 0.881071 0.472984
vn 0.000000 0.881071 0.472984
vn 0.000000 0.881071 0.472984
vn 0.000000 -0.999999 -0.001249
vn 0.000000 -0.999999 -0.001249
vn 0.000000 -0.999999 -0.001249
vn 0.000000 -0.999999 -0.001249
vn 0.873800 -0.071107 0.481059
vn 0.873800 -0.071107 0.481059
vn 0.873800 -0.071107 0.481059
vn 0.000000 0.000000 -1.000000
vn 0.000000 0.000000 -1.000000
vn 0.000000 0.000000 -1.000000
vn 0.000000 0.000000 -1.000000
vn -1.000000 -0.000000 0.000000
vn -1.000000 -0.000000 0.000000
vn -1.000000 -0.000000 0.000000
vn -1.000000 0.000000 0.000000
vn -1.000000 0.000000 0.000000
vn -1.000000 -0.000000 0.000000
vn -1.000000 -0.000000 0.000000
vn 0.000000 -1.000000 0.000000
vn 0.000000 -1.000000 0.000000
vn 0.000000 -1.000000 0.000000
vn 0.000000 -1.000000 0.000000
vn 0.000000 1.000000 0.000000
vn 0.000000 1.000000 -0.000000
vn 0.000000 1.000000 -0.000000
vn 0.000000 1.000000 0.000000
vn 1.000000 0.000000 -0.000000
vn 1.000000 0.000000 -0.000000
vn 1.000000 0.000000 -0.000000
vn 1.000000 0.000000 -0.000000
vn 1.000000 0.000000 -0.000000
vn 1.000000 0.000000 -0.000000
vn 1.000000 0.000000 -0.000000
vn 1.000000 0.000000 -0.000000
vn 1.000000 0.000000 -0.000000
vn 1.000000 -0.000000 0.000000
vn 1.000000 0.000000 -0.000000
vn 1.000000 0.000000 -0.000000
vn 1.000000 0.000000 -0.000000
vn 1.000000 0.000000 -0.000000
vn 0.000000 -0.000000 1.000000
vn 0.000000 -0.000000 1.000000
vn 0.000000 -0.000000 1.000000
vn 0.000000 -0.000000 1.000000
vn 0.000000 -0.000000 1.000000
vn 0.000000 -0.000000 1.000000
vn 0.000000 -0.000000 1.000000
vn 0.000000 -0.000000 1.000000
vn 0.000000 -0.000000 1.000000
vn 0.000000 -0.000000 1.000000
vn 0.000000 -0.000000 1.000000
vn 0.917172 0.134319 0.375172
vn 0.917172 0.134319 0.375172
vn 0.917172 0.134319 0.375172
vn 0.000000 1.000000 -0.000000
vn 0.000000 1.000000 0.000000
vn 0.000000 1.000000 0.000000
vn 0.000000 1.000000 -0.000000
vn 0.000000 -0.707107 -0.707107
vn 0.000000 -0.707107 -0.707107
vn 0.000000 -0.707107 -0.707107
vn 0.000000 -0.707107 -0.707107
vn -1.000000 0.000000 0.000000
vn -1.000000 0.000000 0.000000
vn -1.000000 0.000000 0.000000
vn -1.000000 0.000000 0.000000
vn 0.000000 0.707107 0.707107
vn 0.000000 0.707107 0.707107
vn 0.000000 0.707107 0.707107
vn 0.000000 0.707107 0.707107
vn 1.000000 0.000000 0.000000
vn 1.000000 0.000000 0.000000
vn 1.000000 0.000000 0.000000
vn 1.000000 0.000000 0.000000
vn 0.000000 0.880855 -0.473386
vn 0.000000 0.880855 -0.473386
vn 0.000000 0.880855 -0.473386
vn 0.000000 0.880855 -0.473386
vn 0.000000 -0.001249 0.999999
vn 0.000000 -0.001249 0.999999
vn 0.000000 -0.001249 0.999999
vn 0.000000 -0.001249 0.999999
vn 0.000000 -0.000927 1.000000
vn 0.000000 -0.000927 1.000000
vn 0.000000 -0.000927 1.000000
vn 0.000000 -0.000927 1.000000
vn 1.000000 -0.000000 0.000000
vn 1.000000 -0.000000 0.000000
vn 1.000000 -0.000000 0.000000
vn 1.000000 -0.000000 0.000000
vn 0.000000 0.000000 -1.000000
vn 0.000000 0.000000 -1.000000
vn 0.000000 0.000000 -1.000000
vn 0.000000 0.000000 -1.000000
vn -1.000000 0.000000 0.000000
vn -1.000000 0.000000 0.000000
vn -1.000000 0.000000 0.000000
vn -1.000000 0.000000 0.000000
vn 0.000000 0.881074 -0.472979
vn 0.000000 0.881074 -0.472979
vn 0.000000 0.881074 -0.472979
vn 0.000000 0.881074 -0.472979
vn 0.000000 -0.999998 0.001932
vn 0.000000 -0.999998 0.001932
vn 0.000000 -0.999998 0.001932
vn 0.000000 -0.999998 0.001932
vn 0.000000 0.707107 0.707107
vn 0.000000 0.707107 0.707107
vn 0.000000 0.707107 0.707107
vn 0.000000 0.707107 0.707107
vn 1.000000 0.000000 0.000000
vn 1.000000 0.000000 0.000000
vn 1.000000 0.000000 0.000000
vn 1.000000 0.000000 0.000000
vn 0.000000 -0.707107 -0.707107
vn 0.000000 -0.707107 -0.707107
vn 0.000000 -0.707107 -0.707107
vn 0.000000 -0.707107 -0.707107
vn -1.000000 0.000000 0.000000
vn -1.000000 0.000000 0.000000
vn -1.000000 0.000000 0.000000
vn -1.000000 0.000000 0.000000
vn 0.000000 0.881071 -0.472984
vn 0.000000 0.881071 -0.472984
vn 0.000000 0.881071 -0.472984
vn 0.000000 0.881071 -0.472984
vn 0.000000 -0.999999 0.001249
vn 0.000000 -0.999999 0.001249
vn 0.000000 -0.999999 0.001249
vn 0.000000 -0.999999 0.001249
s off
f 1/1/1 2/2/2 4/3/3 3/4/4
f 3/4/5 4/3/6 6/5/7 5/6/8
f 5/6/9 6/5/10 8/7/11 7/8/12
f 7/8/13 8/7/14 2/2/15 1/1/16
f 2/2/17 8/7/18 6/5/19 4/3/20
f 7/8/21 1/1/22 3/4/23 5/6/24
f 9/9/25 10/10/26 12/11/27 11/12/28
f 11/12/29 12/11/30 14/13/31 13/14/32
f 13/14/33 14/13/34 16/15/35 15/16/36
f 15/16/37 16/15/38 10/10/39 9/9/40
f 10/10/41 16/15/42 14/13/43 12/11/44
f 15/16/45 9/9/46 11/12/47 13/14/48
f 17/17/49 18/18/50 20/19/51 19/20/52
f 19/20/53 20/19/54 22/21/55 21/22/56
f 21/22/57 22/21/58 24/23/59 23/24/60
f 23/24/61 24/23/62 18/18/63 17/17/64
f 18/18/65 24/23/66 22/21/67 20/19/68
f 23/24/69 17/17/70 19/20/71 21/22/72
f 26/25/73 25/26/74 29/27/75 30/28/76
f 27/29/77 26/25/78 30/28/79 31/30/80
f 28/31/81 27/29/82 31/30/83 32/32/84
f 25/26/85 28/31/86 32/32/87 29/27/88
f 28/31/89 25/26/90 26/25/91 27/29/92
f 32/32/93 31/30/94 30/28/95 29/27/96
f 33/33/97 35/36/98 36/35/99 34/34/100
f 35/36/101 37/38/102 38/37/103 36/35/104
f 37/38/105 39/40/106 40/39/107 38/37/108
f 39/40/109 33/33/110 34/34/111 40/39/112
f 34/34/113 36/35/114 38/37/115 40/39/116
f 39/40/117 37/38/118 35/36/119 33/33/120
f 41/41/121 42/42/122 44/43/123 43/44/124
f 43/44/125 44/43/126 46/45/127 45/46/128
f 45/46/129 46/45/130 48/47/131 47/48/132
f 47/48/133 48/47/134 42/42/135 41/41/136
f 42/42/137 48/47/138 46/45/139 44/43/140
f 47/48/141 41/41/142 43/44/143 45/46/144
f 59/49/145 60/50/146 57/51/147
f 55/52/148 53/53/149 54/54/150 56/55/151
f 56/55/152 50/56/153 49/57/154 62/58/155
f 62/58/156 55/52/157 56/55/158
f 54/54/159 52/59/160 50/56/161 56/55/162
f 62/58/163 49/57/164 51/60/165 61/61/166
f 58/62/167 52/59/168 54/54/169 60/50/170
f 54/54/171 53/53/172 60/50/173
f 60/50/174 53/53/175 61/61/176 51/60/177
f 51/60/178 57/51/179 60/50/180
f 57/51/181 51/60/182 49/57/183 59/49/184
f 49/57/185 50/56/186 59/49/187
f 50/56/188 52/59/189 58/62/190 59/49/191
f 59/49/192 58/62/193 60/50/194
f 55/52/195 62/58/196 61/61/197 53/53/198
f 63/63/199 65/66/200 66/65/201 64/64/202
f 65/66/203 67/68/204 68/67/205 66/65/206
f 67/68/207 69/70/208 70/69/209 68/67/210
f 69/70/211 63/63/212 64/64/213 70/69/214
f 64/64/215 66/65/216 68/67/217 70/69/218
f 69/70/219 67/68/220 65/66/221 63/63/222
f 71/71/223 73/74/224 74/73/225 72/72/226
f 73/74/227 75/76/228 76/75/229 74/73/230
f 75/76/231 77/78/232 78/77/233 76/75/234
f 77/78/235 71/71/236 72/72/237 78/77/238
f 72/72/239 74/73/240 76/75/241 78/77/242
f 77/78/243 75/76/244 73/74/245 71/71/246
f 79/79/247 81/82/248 82/81/249 80/80/250
f 81/82/251 83/84/252 84/83/253 82/81/254
f 83/84/255 85/86/256 86/85/257 84/83/258
f 85/86/259 79/79/260 80/80/261 86/85/262
f 80/80/263 82/81/264 84/83/265 86/85/266
f 85/86/267 83/84/268 81/82/269 79/79/270
