# This file uses centimeters as units for non-parametric coordinates.

v 0.000000 290.000000 0.000000
v 0.000000 0.000000 0.000000
v -24.999998 290.000000 0.000000
v -24.999998 0.000000 0.000000
v -24.999998 290.000000 25.000000
v -24.999998 0.000000 25.000000
v 0.000000 290.000000 25.000000
v 0.000000 0.000000 25.000000
v 0.000000 219.724472 0.000000
v -24.999998 210.254715 0.000000
v 0.000000 230.280960 25.000000
v -24.999998 250.347183 25.000000
v -24.999998 182.847183 25.000000
v -24.999998 218.172089 21.209221
v -21.170481 224.745850 25.000000
vt 0.038465 0.351812
vt 0.037475 0.351754
vt 0.037474 0.351715
vt 0.038467 0.351771
vt 0.037498 0.351698
vt 0.038474 0.351752
vt 0.037499 0.351736
vt 0.038472 0.351792
vt 0.038028 0.351786
vt 0.037994 0.351745
vt 0.038080 0.351769
vt 0.038261 0.351740
vt 0.037773 0.351713
vt 0.038020 0.351736
vt 0.038064 0.351749
vt 0.519862 0.157986
vt 0.517012 0.188264
vt 0.501065 0.181478
vt 0.501065 0.001260
vt 0.519862 0.001260
vt 0.501065 0.249831
vt 0.519862 0.215843
vt 0.519862 0.249831
vt 0.501065 0.198643
vt 0.516983 0.193899
vt 0.519862 0.157986
vt 0.519862 0.001260
vt 0.501065 0.001260
vt 0.519862 0.249831
vt 0.519862 0.215843
vt 0.501065 0.249831
vn -0.000000 0.000000 -1.000000
vn -0.000000 0.000000 -1.000000
vn -0.000000 0.000000 -1.000000
vn -0.000000 0.000000 -1.000000
vn -0.616123 -0.092161 0.782240
vn -0.616123 -0.092161 0.782240
vn -0.616123 -0.092161 0.782240
vn 1.000000 0.000000 0.000000
vn 1.000000 0.000000 0.000000
vn 1.000000 0.000000 0.000000
vn 1.000000 0.000000 0.000000
vn 0.000000 -1.000000 0.000000
vn 0.000000 -1.000000 0.000000
vn 0.000000 -1.000000 0.000000
vn 0.000000 -1.000000 0.000000
vn 0.000000 1.000000 0.000000
vn 0.000000 1.000000 0.000000
vn 0.000000 1.000000 0.000000
vn 0.000000 1.000000 0.000000
vn -0.000000 0.000000 -1.000000
vn -0.000000 0.000000 -1.000000
vn -0.000000 0.000000 -1.000000
vn -0.000000 0.000000 -1.000000
vn 1.000000 0.000000 0.000000
vn 1.000000 0.000000 0.000000
vn 1.000000 0.000000 0.000000
vn 1.000000 0.000000 0.000000
vn -1.000000 0.000000 0.000000
vn -1.000000 0.000000 0.000000
vn -1.000000 0.000000 0.000000
vn -1.000000 0.000000 0.000000
vn -1.000000 0.000000 0.000000
vn 0.000000 0.000000 1.000000
vn 0.000000 0.000000 1.000000
vn 0.000000 0.000000 1.000000
vn 0.000000 0.000000 1.000000
vn 0.000000 0.000000 1.000000
vn 0.000000 0.000000 1.000000
vn 0.000000 0.000000 1.000000
vn 0.000000 0.000000 1.000000
vn 0.000000 0.000000 1.000000
vn 0.000000 0.000000 1.000000
vn -1.000000 0.000000 0.000000
vn -1.000000 0.000000 0.000000
vn -1.000000 0.000000 0.000000
vn -1.000000 0.000000 0.000000
vn -1.000000 0.000000 0.000000
vn -0.759457 0.069414 0.646844
vn -0.759457 0.069414 0.646844
vn -0.759457 0.069414 0.646844
s off
f 1/1/1 9/9/2 10/10/3 3/4/4
f 14/14/5 15/15/6 12/12/7
f 7/8/8 11/11/9 9/9/10 1/1/11
f 2/2/12 8/7/13 6/5/14 4/3/15
f 7/8/16 1/1/17 3/4/18 5/6/19
f 10/10/20 9/9/21 2/2/22 4/3/23
f 9/9/24 11/11/25 8/7/26 2/2/27
f 13/16/28 14/17/29 10/18/30 4/19/31 6/20/32
f 11/24/33 15/25/34 13/26/35 6/27/36 8/28/37
f 5/29/38 12/30/39 15/25/40 11/24/41 7/31/42
f 3/21/43 10/18/44 14/17/45 12/22/46 5/23/47
f 14/14/48 13/13/49 15/15/50
