# This file uses centimeters as units for non-parametric coordinates.

v 0.000000 0.598219 5.000000
v 250.000000 0.598219 5.000000
v 0.000000 19.401781 5.000000
v 250.000000 19.401781 5.000000
v 0.000000 20.000000 -6.101008
v 250.000000 20.000000 -6.101008
v 0.000000 0.000000 -6.101008
v 250.000000 0.000000 -6.101008
v 119.309082 1.164548 5.000000
v 131.288208 18.835451 5.000000
v 132.481812 20.000000 -6.101008
v 119.740479 0.000000 -6.101008
v 0.000000 20.706985 5.000000
v 250.000000 20.706985 5.000000
v 0.000000 39.293015 5.000000
v 250.000000 39.293015 5.000000
v 0.000000 40.000000 -6.101008
v 250.000000 40.000000 -6.101008
v 0.000000 20.000000 -6.101008
v 250.000000 20.000000 -6.101008
v 57.668335 22.030096 5.000000
v 51.713623 37.969902 5.000000
v 51.418945 40.000000 -6.101008
v 57.826660 20.000000 -6.101008
v 118.722656 -7.596310 17.817650
v 131.277344 -7.596310 17.817650
v 131.277344 53.990589 17.817650
v 118.722656 56.872284 5.000000
v 131.277344 56.872284 5.000000
v 118.722656 -7.596310 5.000000
v 131.277344 -7.596310 5.000000
v 121.861328 53.990589 17.817650
v 118.722656 40.492943 17.817650
v 118.722656 54.711014 14.613237
v 119.434105 19.000633 17.817650
v 130.079910 25.660557 17.817650
v 118.722656 18.588451 5.000000
v 131.277344 25.248373 5.000000
v 0.000000 40.435070 5.000000
v 250.000000 40.435070 5.000000
v 0.000000 59.564934 5.000000
v 250.000000 59.564934 5.000000
v 0.000000 60.000000 -6.101008
v 250.000000 60.000000 -6.101008
v 0.000000 40.000000 -6.101008
v 250.000000 40.000000 -6.101008
v 160.033203 41.482628 5.000000
v 179.647583 58.517376 5.000000
v 181.064453 60.000000 -6.101008
v 160.557861 40.000000 -6.101008
v 243.722656 -7.596310 17.817650
v 256.277344 -7.596310 17.817650
v 243.722656 56.872284 5.000000
v 256.277344 56.872284 5.000000
v 243.722656 -7.596310 5.000000
v 256.277344 -7.596310 5.000000
v 246.861328 53.990589 17.817650
v 243.722656 49.930099 17.817650
v 243.722656 54.711014 14.613237
v 244.434113 24.882311 17.817650
v 255.079910 15.004858 17.817650
v 243.722656 18.588451 5.000000
v 256.277344 25.248373 5.000000
v 256.277344 56.127880 8.311083
v 252.721100 53.990589 17.817650
v 256.097717 49.741085 17.817650
vt 0.078063 0.172894
vt 0.077567 0.172798
vt 0.077525 0.172721
vt 0.078070 0.172818
vt 0.077527 0.172711
vt 0.078076 0.172809
vt 0.077572 0.172797
vt 0.078068 0.172890
vt 0.077076 0.172708
vt 0.077084 0.172705
vt 0.077087 0.172632
vt 0.077079 0.172639
vt 0.078063 0.172894
vt 0.077817 0.172844
vt 0.077848 0.172785
vt 0.078070 0.172818
vt 0.077856 0.172772
vt 0.078076 0.172810
vt 0.077822 0.172846
vt 0.078068 0.172891
vt 0.077076 0.172716
vt 0.077084 0.172714
vt 0.077087 0.172640
vt 0.077079 0.172647
vt 0.079146 0.168265
vt 0.079060 0.168261
vt 0.079062 0.168387
vt 0.079143 0.168417
vt 0.079141 0.159619
vt 0.079065 0.159615
vt 0.079056 0.159655
vt 0.079135 0.159659
vt 0.079053 0.170404
vt 0.079143 0.168290
vt 0.079137 0.168423
vt 0.079095 0.168314
vt 0.079136 0.174727
vt 0.079050 0.168312
vt 0.078063 0.172894
vt 0.077409 0.172777
vt 0.077338 0.172699
vt 0.078070 0.172816
vt 0.077340 0.172688
vt 0.078076 0.172809
vt 0.077413 0.172777
vt 0.078068 0.172890
vt 0.077076 0.172724
vt 0.077084 0.172721
vt 0.077087 0.172647
vt 0.077079 0.172653
vt 0.079146 0.168265
vt 0.079060 0.168261
vt 0.079062 0.177319
vt 0.079143 0.173109
vt 0.079141 0.159619
vt 0.079065 0.159615
vt 0.079056 0.159655
vt 0.079135 0.159659
vt 0.079053 0.175096
vt 0.079143 0.168290
vt 0.079137 0.168423
vt 0.079095 0.168314
vt 0.079136 0.173427
vt 0.079052 0.169358
vt 0.079055 0.168287
vt 0.079072 0.168313
vn 0.000000 0.000000 1.000000
vn 0.000000 0.000000 1.000000
vn -0.000000 0.000000 1.000000
vn 0.000000 0.000000 1.000000
vn 0.002114 0.984771 0.173845
vn 0.000322 0.984810 0.173638
vn -0.000327 0.984823 0.173562
vn 0.002114 0.984771 0.173845
vn 0.000000 0.000000 -1.000000
vn 0.000000 0.000000 -1.000000
vn 0.000000 0.000000 -1.000000
vn 0.000000 0.000000 -1.000000
vn 0.002333 -0.984796 0.173697
vn -0.000119 -0.984817 0.173595
vn 0.000119 -0.984815 0.173605
vn 0.002333 -0.984796 0.173697
vn 1.000000 0.000000 0.000000
vn 1.000000 0.000000 0.000000
vn 1.000000 0.000000 0.000000
vn 1.000000 0.000000 0.000000
vn -1.000000 0.000000 0.000000
vn -1.000000 0.000000 0.000000
vn -1.000000 0.000000 0.000000
vn -1.000000 0.000000 0.000000
vn -0.000000 0.000000 1.000000
vn 0.000000 0.000000 1.000000
vn -0.000000 0.000000 1.000000
vn -0.000000 0.000000 1.000000
vn -0.000327 0.984823 0.173562
vn 0.000322 0.984810 0.173638
vn -0.002361 0.984862 0.173326
vn -0.002361 0.984862 0.173326
vn 0.000000 0.000000 -1.000000
vn 0.000000 0.000000 -1.000000
vn 0.000000 0.000000 -1.000000
vn 0.000000 0.000000 -1.000000
vn 0.000119 -0.984815 0.173605
vn -0.000119 -0.984817 0.173595
vn -0.002137 -0.984830 0.173510
vn -0.002137 -0.984830 0.173510
vn 0.000000 0.000000 1.000000
vn 0.000000 0.000000 1.000000
vn 0.000000 0.000000 1.000000
vn 0.000000 0.000000 1.000000
vn 0.012374 0.964542 0.263639
vn -0.000185 0.964522 0.264003
vn 0.000181 0.964525 0.263993
vn 0.012374 0.964542 0.263639
vn 0.000000 0.000000 -1.000000
vn 0.000000 0.000000 -1.000000
vn 0.000000 0.000000 -1.000000
vn 0.000000 0.000000 -1.000000
vn 0.011048 -0.964420 0.264145
vn -0.000094 -0.964524 0.263997
vn 0.000087 -0.964523 0.263999
vn 0.011048 -0.964420 0.264145
vn 1.000000 0.000000 0.000000
vn 1.000000 0.000000 0.000000
vn 1.000000 0.000000 0.000000
vn 1.000000 0.000000 0.000000
vn -1.000000 0.000000 0.000000
vn -1.000000 0.000000 0.000000
vn -1.000000 0.000000 0.000000
vn -1.000000 0.000000 0.000000
vn 0.000000 0.000000 1.000000
vn 0.000000 0.000000 1.000000
vn 0.000000 0.000000 1.000000
vn 0.000000 0.000000 1.000000
vn 0.000181 0.964525 0.263993
vn -0.000185 0.964522 0.264003
vn -0.003216 0.964494 0.264085
vn -0.003216 0.964494 0.264085
vn 0.000000 0.000000 -1.000000
vn 0.000000 0.000000 -1.000000
vn 0.000000 0.000000 -1.000000
vn 0.000000 0.000000 -1.000000
vn 0.000087 -0.964523 0.263999
vn -0.000094 -0.964524 0.263997
vn -0.003319 -0.964531 0.263948
vn -0.003319 -0.964531 0.263948
vn 0.000000 0.000000 -1.000000
vn 0.000000 0.000000 -1.000000
vn 0.000000 0.000000 -1.000000
vn 0.000000 0.000000 -1.000000
vn 0.000000 -1.000000 0.000000
vn 0.000000 -1.000000 0.000000
vn 0.000000 -1.000000 0.000000
vn 0.000000 -1.000000 0.000000
vn 0.998653 0.023489 0.046270
vn 0.998653 0.023489 0.046270
vn 0.998653 0.023489 0.046270
vn 0.998653 0.023489 0.046270
vn -0.687028 0.159758 0.708851
vn -0.687028 0.159758 0.708851
vn -0.687028 0.159758 0.708851
vn -0.000000 0.000000 1.000000
vn -0.000000 0.000000 1.000000
vn -0.000000 0.000000 1.000000
vn -0.000000 0.000000 1.000000
vn 0.000000 0.975647 0.219347
vn 0.000000 0.975647 0.219347
vn 0.000000 0.975647 0.219347
vn -0.999445 0.018916 0.027433
vn -0.999445 0.018916 0.027433
vn -0.999445 0.018916 0.027433
vn -0.999445 0.018916 0.027433
vn 0.000000 0.000000 -1.000000
vn 0.000000 0.000000 -1.000000
vn 0.000000 0.000000 -1.000000
vn 0.000000 0.000000 -1.000000
vn 0.998800 -0.019948 0.044732
vn 0.998800 -0.019948 0.044732
vn 0.998800 -0.019948 0.044732
vn 0.998800 -0.019948 0.044732
vn 0.000000 0.000000 1.000000
vn 0.000000 0.000000 1.000000
vn 0.000000 0.000000 1.000000
vn 0.000000 0.000000 1.000000
vn -1.000000 -0.000000 -0.000000
vn -1.000000 -0.000000 -0.000000
vn -1.000000 -0.000000 -0.000000
vn -1.000000 -0.000000 -0.000000
vn -0.997859 -0.033032 0.056449
vn -0.997859 -0.033032 0.056449
vn -0.997859 -0.033032 0.056449
vn 0.000000 0.000000 1.000000
vn 0.000000 0.000000 1.000000
vn 0.000000 0.000000 1.000000
vn 0.000000 0.975647 0.219347
vn 0.000000 0.975647 0.219347
vn 0.000000 0.975647 0.219347
vn 0.000000 0.975647 0.219347
vn 0.000000 0.000000 1.000000
vn -0.000000 0.000000 1.000000
vn -0.000000 0.000000 1.000000
vn 0.000000 0.000000 1.000000
vn 0.002852 0.982026 0.188726
vn 0.000651 0.982087 0.188426
vn -0.000751 0.982124 0.188235
vn 0.002852 0.982026 0.188726
vn 0.000000 0.000000 -1.000000
vn 0.000000 0.000000 -1.000000
vn 0.000000 0.000000 -1.000000
vn 0.000000 0.000000 -1.000000
vn 0.003209 -0.982068 0.188499
vn -0.000268 -0.982107 0.188324
vn 0.000260 -0.982102 0.188351
vn 0.003209 -0.982068 0.188499
vn 1.000000 0.000000 0.000000
vn 1.000000 0.000000 0.000000
vn 1.000000 0.000000 0.000000
vn 1.000000 0.000000 0.000000
vn -1.000000 0.000000 0.000000
vn -1.000000 0.000000 0.000000
vn -1.000000 0.000000 0.000000
vn -1.000000 0.000000 0.000000
vn -0.000000 0.000000 1.000000
vn -0.000000 0.000000 1.000000
vn -0.000000 0.000000 1.000000
vn -0.000000 0.000000 1.000000
vn -0.000751 0.982124 0.188235
vn 0.000651 0.982087 0.188426
vn -0.007387 0.982271 0.187322
vn -0.007387 0.982271 0.187322
vn 0.000000 0.000000 -1.000000
vn 0.000000 0.000000 -1.000000
vn 0.000000 0.000000 -1.000000
vn 0.000000 0.000000 -1.000000
vn 0.000260 -0.982102 0.188351
vn -0.000268 -0.982107 0.188324
vn -0.005735 -0.982144 0.188044
vn -0.005735 -0.982144 0.188044
vn 0.000000 0.000000 -1.000000
vn 0.000000 0.000000 -1.000000
vn 0.000000 0.000000 -1.000000
vn 0.000000 0.000000 -1.000000
vn 0.000000 -1.000000 0.000000
vn 0.000000 -1.000000 0.000000
vn 0.000000 -1.000000 0.000000
vn 0.000000 -1.000000 0.000000
vn 0.998240 0.021558 0.055242
vn 0.998240 0.021558 0.055242
vn 0.998240 0.021558 0.055242
vn 0.998240 0.021558 0.055242
vn -0.584453 0.451770 0.674032
vn -0.584453 0.451770 0.674032
vn -0.584453 0.451770 0.674032
vn 0.000000 0.000000 1.000000
vn 0.000000 0.000000 1.000000
vn 0.000000 0.000000 1.000000
vn 0.000000 0.000000 1.000000
vn 0.000000 0.975647 0.219347
vn 0.000000 0.975647 0.219347
vn 0.000000 0.975647 0.219347
vn -0.999620 0.012123 0.024766
vn -0.999620 0.012123 0.024766
vn -0.999620 0.012123 0.024766
vn -0.999620 0.012123 0.024766
vn -0.000000 0.000000 -1.000000
vn -0.000000 0.000000 -1.000000
vn -0.000000 0.000000 -1.000000
vn -0.000000 0.000000 -1.000000
vn -1.000000 -0.000000 -0.000000
vn -1.000000 -0.000000 -0.000000
vn -1.000000 -0.000000 -0.000000
vn -1.000000 -0.000000 -0.000000
vn -0.997197 -0.028324 0.069258
vn -0.997197 -0.028324 0.069258
vn -0.997197 -0.028324 0.069258
vn 0.000000 0.000000 1.000000
vn 0.000000 0.000000 1.000000
vn 0.000000 0.000000 1.000000
vn 0.718536 0.570943 0.397152
vn 0.718536 0.570943 0.397152
vn 0.718536 0.570943 0.397152
vn 0.998976 -0.015760 0.042418
vn 0.998976 -0.015760 0.042418
vn 0.998976 -0.015760 0.042418
vn 0.998976 -0.015760 0.042418
vn 0.998976 -0.015760 0.042418
vn -0.000000 0.975647 0.219347
vn -0.000000 0.975647 0.219347
vn -0.000000 0.975647 0.219347
vn -0.000000 0.975647 0.219347
vn -0.000000 0.975647 0.219347
vn -0.000000 0.000000 1.000000
vn -0.000000 0.000000 1.000000
vn -0.000000 0.000000 1.000000
vn -0.000000 0.000000 1.000000
vn -0.000000 0.000000 1.000000
s off
f 1/1/1 9/2/2 10/3/3 3/4/4
f 3/4/5 10/3/6 11/5/7 5/6/8
f 5/6/9 11/5/10 12/7/11 7/8/12
f 7/8/13 12/7/14 9/2/15 1/1/16
f 2/9/17 8/10/18 6/11/19 4/12/20
f 7/8/21 1/1/22 3/4/23 5/6/24
f 10/3/25 9/2/26 2/9/27 4/12/28
f 11/5/29 10/3/30 4/12/31 6/11/32
f 12/7/33 11/5/34 6/11/35 8/10/36
f 9/2/37 12/7/38 8/10/39 2/9/40
f 13/13/41 21/14/42 22/15/43 15/16/44
f 15/16/45 22/15/46 23/17/47 17/18/48
f 17/18/49 23/17/50 24/19/51 19/20/52
f 19/20/53 24/19/54 21/14/55 13/13/56
f 14/21/57 20/22/58 18/23/59 16/24/60
f 19/20/61 13/13/62 15/16/63 17/18/64
f 22/15/65 21/14/66 14/21/67 16/24/68
f 23/17/69 22/15/70 16/24/71 18/23/72
f 24/19/73 23/17/74 18/23/75 20/22/76
f 21/14/77 24/19/78 20/22/79 14/21/80
f 28/25/81 29/26/82 38/27/83 37/28/84
f 30/29/85 31/30/86 26/31/87 25/32/88
f 26/31/89 31/30/90 38/27/91 36/33/92
f 34/34/93 33/35/94 32/36/95
f 25/32/96 26/31/97 36/33/98 35/37/99
f 34/34/100 29/26/101 28/25/102
f 30/29/103 25/32/104 35/37/105 37/28/106
f 37/28/107 38/27/108 31/30/109 30/29/110
f 36/33/111 38/27/112 29/26/113 27/38/114
f 33/35/115 36/33/116 27/38/117 32/36/118
f 37/28/119 33/35/120 34/34/121 28/25/122
f 37/28/123 35/37/124 33/35/125
f 35/37/126 36/33/127 33/35/128
f 34/34/129 32/36/130 27/38/131 29/26/132
f 39/39/133 47/40/134 48/41/135 41/42/136
f 41/42/137 48/41/138 49/43/139 43/44/140
f 43/44/141 49/43/142 50/45/143 45/46/144
f 45/46/145 50/45/146 47/40/147 39/39/148
f 40/47/149 46/48/150 44/49/151 42/50/152
f 45/46/153 39/39/154 41/42/155 43/44/156
f 48/41/157 47/40/158 40/47/159 42/50/160
f 49/43/161 48/41/162 42/50/163 44/49/164
f 50/45/165 49/43/166 44/49/167 46/48/168
f 47/40/169 50/45/170 46/48/171 40/47/172
f 53/51/173 54/52/174 63/53/175 62/54/176
f 55/55/177 56/56/178 52/57/179 51/58/180
f 52/57/181 56/56/182 63/53/183 61/59/184
f 59/60/185 58/61/186 57/62/187
f 51/58/188 52/57/189 61/59/190 60/63/191
f 59/60/192 54/52/193 53/51/194
f 55/55/195 51/58/196 60/63/197 62/54/198
f 62/54/199 63/53/200 56/56/201 55/55/202
f 62/54/203 58/61/204 59/60/205 53/51/206
f 62/54/207 60/63/208 58/61/209
f 60/63/210 61/59/211 58/61/212
f 66/64/213 64/65/214 65/66/215
f 61/59/216 63/53/217 54/52/218 64/65/219 66/64/220
f 59/60/221 57/62/222 65/66/223 64/65/224 54/52/225
f 58/61/226 61/59/227 66/64/228 65/66/229 57/62/230
