# This file uses centimeters as units for non-parametric coordinates.

v 1999.360107 6.437999 1001.422668
v 1999.360107 0.000000 6.549377
v 1999.360107 50.000000 988.478821
v 1999.360107 50.000000 17.587952
v -0.640137 42.561501 1001.422668
v 8.984375 50.000000 1.422668
v -0.640137 4.018929 1001.422668
v -0.640137 8.992964 1.422668
v 1999.360107 45.293617 1.422668
v 1959.885498 50.000000 1.422668
v 1999.360107 4.242525 1.422668
v 1988.062256 0.000000 1.422668
v -0.640137 0.000000 995.797913
v 10.139404 0.000000 1001.422668
v 1999.360107 0.000000 969.733215
v 1986.408447 0.000000 1001.422668
v 13.146484 0.000000 1.422668
v -0.640137 0.000000 28.880676
v -0.640137 37.774639 1.422668
v -0.640381 50.000000 15.760803
v 1999.360107 50.000000 935.418274
v 1999.360107 50.000000 837.038391
v 1984.411377 50.000000 901.208801
v 1999.360107 46.026917 902.953918
v -0.640381 50.000011 132.753479
v -0.640137 50.000000 76.635315
v 7.396729 50.000000 106.051819
v -0.640137 45.205032 106.073547
v 1999.360107 19.081415 1.422668
v 1999.360107 35.754044 1.422668
v 1999.360107 26.744366 8.265442
v 1990.872314 27.866547 1.422913
v -0.640137 28.052666 1001.422668
v -0.640137 10.908145 1001.422668
v 8.959717 19.448067 1001.422668
v -0.640137 19.987759 997.198303
v 23.695801 50.000004 1001.422668
v -0.640137 50.000011 970.231262
v 1979.636475 50.000000 1001.422668
v 1999.360107 43.495407 1001.422668
v 1156.562744 50.000000 1.422668
v 1015.654541 50.000000 1.422668
v 1091.660400 50.000000 20.252991
v 1088.475830 45.148781 1.422668
v 1267.368408 50.000000 1.422668
v 1230.760010 44.882805 1.422668
v 1200.609619 50.000000 1.422668
v 1232.267822 50.000000 12.616272
v 1295.949463 50.000000 1001.422668
v 1101.370361 50.000000 1001.422668
v 1179.747314 50.000000 981.810120
v 1186.388916 43.821827 1001.422668
v 1025.855713 50.000000 1001.422668
v 1020.755127 50.000000 501.422668
v -0.640381 50.000011 497.492615
v 1999.360107 50.000000 502.402771
vt 0.058969 0.354069
vt 0.058945 0.354079
vt 0.058978 0.354104
vt 0.058198 0.354317
vt 0.058196 0.354292
vt 0.058181 0.354289
vt 0.492278 0.763818
vt 0.003444 0.996483
vt 0.057624 0.326493
vt 0.057125 0.326462
vt 0.056914 0.327024
vt 0.057132 0.326546
vt 0.057049 0.326518
vt 0.056986 0.326515
vt 0.056911 0.326596
vt 0.058136 0.353862
vt 0.058180 0.353730
vt 0.058154 0.353771
vt 0.057065 0.326988
vt 0.056922 0.326507
vt 0.057007 0.326479
vt 0.057070 0.326573
vt 0.057071 0.326918
vt 0.057678 0.327046
vt 0.057635 0.327044
vt 0.057056 0.327078
vt 0.056930 0.327092
vt 0.057053 0.327139
vt 0.057103 0.327143
vt 0.057768 0.327095
vt 0.057876 0.327080
vt 0.057657 0.327019
vt 0.057909 0.327050
vt 0.057669 0.326919
vt 0.057657 0.326979
vt 0.057754 0.326526
vt 0.057812 0.326505
vt 0.057886 0.326535
vt 0.059059 0.354304
vt 0.058899 0.354330
vt 0.059073 0.354315
vt 0.058293 0.354101
vt 0.058419 0.354072
vt 0.058307 0.354048
vt 0.058283 0.353716
vt 0.058342 0.353655
vt 0.058272 0.353660
vt 0.058988 0.353778
vt 0.058912 0.353799
vt 0.058909 0.353773
vt 0.058744 0.353776
vt 0.058471 0.353665
vt 0.058460 0.353663
vt 0.058396 0.353655
vt 0.058553 0.353656
vt 0.058177 0.354256
vt 0.058175 0.354184
vt 0.058182 0.354199
vt 0.058165 0.354135
vt 0.058972 0.354025
vt 0.058981 0.353986
vt 0.058968 0.353959
vt 0.058981 0.353895
vt 0.057641 0.326607
vt 0.057657 0.326826
vt 0.057094 0.326999
vt 0.057072 0.327110
vt 0.057072 0.327069
vt 0.057223 0.326527
vt 0.057640 0.326898
vt 0.057666 0.326580
vt 0.057612 0.326584
vt 0.057875 0.326544
vt 0.057893 0.326571
vt 0.059432 0.354034
vt 0.059250 0.353852
vt 0.059488 0.353877
vt 0.058555 0.353587
vt 0.058488 0.353647
vt 0.058534 0.353521
vt 0.056951 0.326497
vt 0.056935 0.326503
vt 0.493707 0.994188
vt 0.056948 0.326556
vt 0.056959 0.326495
vt 0.056962 0.326555
vt 0.056953 0.326497
vt 0.003443 0.996483
vt 0.058558 0.354301
vt 0.058553 0.354226
vt 0.058698 0.354267
vt 0.058003 0.354379
vt 0.058004 0.354274
vt 0.058265 0.354328
vt 0.057698 0.354409
vt 0.058438 0.354304
vt 0.057802 0.326557
vt 0.057782 0.326560
vt 0.010970 0.937510
vt 0.057791 0.326593
vt 0.059567 0.353907
vt 0.059543 0.353774
vt 0.059988 0.353717
vt 0.058988 0.354036
vt 0.416105 0.984942
vt 0.357599 0.996483
vt 0.013374 0.996483
vt 0.003444 0.988866
vt 0.003444 0.957641
vt 0.496155 0.702247
vt 0.493586 0.996483
vt 0.111939 0.989909
vt 0.005998 0.702822
vt 0.496155 0.702247
vt 0.496155 0.986989
vt 0.476383 0.996483
vt 0.129520 0.996483
vt 0.003444 0.996483
vt 0.005904 0.702247
vt 0.491512 0.702247
vt 0.496155 0.710684
vt 0.496155 0.746507
vt 0.057773 0.326561
vt 0.455566 0.996483
vt 0.496155 0.779531
vt 0.057392 0.326552
vt 0.496155 0.994170
vt 0.041513 0.985424
vt 0.057420 0.326481
vt 0.003444 0.720459
vt 0.015124 0.702247
vt 0.496155 0.702247
vt 0.003444 0.702823
vt 0.003444 0.899747
vt 0.096083 0.996483
vt 0.074020 0.996483
vn -0.290289 -0.778612 0.556324
vn -0.290289 -0.778612 0.556324
vn -0.290289 -0.778612 0.556324
vn 0.277904 -0.740072 -0.612423
vn 0.277904 -0.740072 -0.612423
vn 0.277904 -0.740072 -0.612423
vn -1.000000 -0.000004 0.000001
vn -1.000000 -0.000004 0.000001
vn -1.000000 -0.000004 0.000001
vn -1.000000 -0.000004 0.000001
vn -1.000000 -0.000004 0.000001
vn 0.113730 0.953906 -0.277722
vn 0.113730 0.953906 -0.277722
vn 0.113730 0.953906 -0.277722
vn 0.000000 -1.000000 0.000000
vn 0.000000 -1.000000 0.000000
vn 0.000000 -1.000000 0.000000
vn 0.000000 -1.000000 0.000000
vn 0.000000 -1.000000 0.000000
vn 0.000000 -1.000000 0.000000
vn 0.000000 -1.000000 0.000000
vn 0.000000 -1.000000 0.000000
vn 0.000000 0.000000 1.000000
vn 0.000000 0.000000 1.000000
vn 0.000000 0.000000 1.000000
vn 0.000000 0.000000 1.000000
vn 0.000000 0.000000 1.000000
vn 0.000000 0.000000 1.000000
vn 1.000000 -0.000003 0.000000
vn 1.000000 -0.000003 0.000000
vn 1.000000 -0.000003 0.000000
vn 1.000000 -0.000003 0.000000
vn 1.000000 -0.000003 0.000000
vn 0.437933 -0.881010 0.178986
vn 0.437933 -0.881010 0.178986
vn 0.437933 -0.881010 0.178986
vn -0.526876 -0.807724 -0.264544
vn -0.526876 -0.807725 -0.264544
vn -0.526876 -0.807724 -0.264544
vn -0.694985 0.547132 -0.466522
vn -0.694985 0.547132 -0.466522
vn -0.694985 0.547132 -0.466522
vn 0.267839 0.956329 -0.117039
vn 0.267839 0.956329 -0.117039
vn 0.267839 0.956329 -0.117039
vn 0.250068 0.966474 0.058254
vn 0.250068 0.966474 0.058254
vn 0.250068 0.966474 0.058254
vn -0.507143 0.850652 0.138556
vn -0.507143 0.850652 0.138556
vn -0.507143 0.850652 0.138556
vn -0.506672 0.848543 -0.152507
vn -0.506672 0.848543 -0.152507
vn -0.506672 0.848543 -0.152507
vn 0.567581 0.548370 -0.614119
vn 0.567581 0.548370 -0.614119
vn 0.567581 0.548370 -0.614119
vn 0.489953 -0.527246 -0.694232
vn 0.489953 -0.527246 -0.694232
vn 0.489953 -0.527246 -0.694232
vn -0.351325 0.394946 0.848875
vn -0.351325 0.394946 0.848875
vn -0.351325 0.394946 0.848875
vn -0.384013 -0.428422 0.817918
vn -0.384013 -0.428422 0.817918
vn -0.384013 -0.428422 0.817918
vn 0.000000 0.000000 1.000000
vn 0.000000 0.000000 1.000000
vn 0.000000 0.000000 1.000000
vn 0.000000 0.000000 1.000000
vn 0.000000 0.000000 1.000000
vn 0.000000 0.000000 1.000000
vn 0.000000 0.000000 1.000000
vn 1.000000 -0.000010 0.000000
vn 1.000000 -0.000000 0.000000
vn 1.000000 0.000005 0.000000
vn 1.000000 0.000007 0.000000
vn 1.000000 0.000007 0.000000
vn 1.000000 0.000007 0.000000
vn 1.000000 0.000007 0.000000
vn 1.000000 0.000007 0.000000
vn -1.000000 0.000000 0.000000
vn -1.000000 0.000000 0.000000
vn -1.000000 0.000000 0.000000
vn -1.000000 0.000000 0.000000
vn -1.000000 0.000000 0.000000
vn -0.126987 0.908466 -0.398201
vn -0.126987 0.908466 -0.398201
vn -0.126987 0.908466 -0.398201
vn -0.284992 0.932383 0.222354
vn -0.284992 0.932383 0.222354
vn -0.284992 0.932383 0.222354
vn -1.000000 -0.000000 0.000000
vn -1.000000 0.000000 0.000000
vn -1.000000 0.000000 0.000000
vn -1.000000 0.000000 0.000000
vn -1.000000 -0.000006 0.000000
vn 0.000000 1.000000 -0.000000
vn 0.000000 1.000000 0.000000
vn 0.000000 1.000000 -0.000000
vn 0.282658 0.857084 0.430710
vn 0.282658 0.857084 0.430710
vn 0.282658 0.857084 0.430710
vn -0.069029 0.968828 -0.237923
vn -0.069029 0.968828 -0.237923
vn -0.069029 0.968828 -0.237923
vn -0.000000 -0.000009 -1.000000
vn -0.000000 -0.000009 -1.000000
vn -0.000000 -0.000009 -1.000000
vn -0.000000 -0.000009 -1.000000
vn -0.000000 -0.000009 -1.000000
vn -0.000000 -0.000009 -1.000000
vn 0.064200 0.963705 -0.259135
vn 0.064200 0.963705 -0.259135
vn 0.064200 0.963705 -0.259135
vn 0.151248 0.891146 -0.427766
vn 0.151248 0.891146 -0.427766
vn 0.151248 0.891146 -0.427766
vn 0.000000 0.000000 -1.000000
vn 0.000000 0.000000 -1.000000
vn 0.000000 0.000000 -1.000000
vn 0.000000 0.000000 -1.000000
vn -0.000000 0.000000 -1.000000
vn -0.000000 0.000000 -1.000000
vn -0.000000 0.000000 -1.000000
vn -0.000000 0.000000 -1.000000
vn -0.000000 0.000000 -1.000000
vn -0.000000 0.000000 -1.000000
vn 0.000000 0.000002 -1.000000
vn 0.000000 0.000002 -1.000000
vn 0.000000 0.000002 -1.000000
vn 0.000000 0.000002 -1.000000
vn 0.000000 0.000002 -1.000000
vn 0.000000 0.000002 -1.000000
vn 0.000000 0.000002 -1.000000
vn 0.069616 0.957996 0.278205
vn 0.069616 0.957996 0.278205
vn 0.069616 0.957996 0.278205
vn -0.053408 0.947109 0.316436
vn -0.053408 0.947109 0.316436
vn -0.053408 0.947109 0.316436
vn 0.000000 0.000000 1.000000
vn 0.000000 0.000000 1.000000
vn 0.000000 0.000000 1.000000
vn 0.000000 0.000000 1.000000
vn 0.000000 0.000000 1.000000
vn 0.000000 0.000000 1.000000
vn 0.000000 0.000000 1.000000
vn 0.000000 0.000000 1.000000
vn 0.000000 1.000000 0.000000
vn 0.000000 1.000000 0.000000
vn 0.000000 1.000000 0.000000
vn 0.000000 1.000000 0.000000
vn 0.000000 1.000000 0.000000
vn 0.000000 1.000000 -0.000000
vn 0.000000 1.000000 0.000000
vn 0.000000 1.000000 -0.000000
vn 0.000000 1.000000 -0.000000
vn 0.000000 1.000000 -0.000000
vn 0.000000 1.000000 -0.000000
vn 0.000000 1.000000 -0.000000
vn 0.000000 1.000000 0.000000
vn 0.000000 1.000000 -0.000000
vn 0.000000 1.000000 -0.000000
vn 0.000000 1.000000 -0.000000
vn 0.000000 1.000000 -0.000000
vn -1.000000 -0.000003 -0.000000
vn -1.000000 -0.000004 -0.000001
vn -1.000000 0.000000 0.000000
vn -1.000000 -0.000003 -0.000000
vn -1.000000 -0.000006 0.000000
vn -1.000000 -0.000004 -0.000001
vn -1.000000 -0.000004 -0.000001
vn -1.000000 -0.000000 0.000000
vn -1.000000 -0.000006 0.000000
vn -1.000000 -0.000003 -0.000000
vn 1.000000 -0.000010 0.000000
vn 1.000000 -0.000011 0.000000
vn 1.000000 -0.000011 0.000000
vn 1.000000 -0.000011 0.000000
vn 1.000000 -0.000000 0.000000
vn 1.000000 0.000005 0.000000
vn 1.000000 0.000000 0.000000
vn 1.000000 0.000008 0.000000
vn 1.000000 0.000008 0.000000
vn 1.000000 0.000005 0.000000
vn 1.000000 -0.000000 0.000000
vn 1.000000 0.000000 0.000000
vn 0.000000 1.000000 0.000000
vn 0.000000 1.000000 0.000000
vn 0.000000 1.000000 0.000000
vn 0.000000 1.000000 0.000000
vn 0.000000 1.000000 -0.000000
vn 0.000000 1.000000 0.000000
vn 0.000000 1.000000 0.000000
vn 0.000000 1.000000 0.000000
vn 0.000000 1.000000 0.000000
vn 0.000000 1.000000 0.000000
vn 0.000000 1.000000 -0.000000
vn 0.000000 1.000000 -0.000000
vn 0.000000 1.000000 -0.000000
vn 0.000000 1.000000 0.000000
vn 0.000000 1.000000 0.000000
vn 0.000000 1.000000 0.000000
vn 0.000000 1.000000 -0.000000
vn 0.000000 1.000000 0.000000
vn 0.000000 1.000000 0.000000
vn 0.000000 1.000000 0.000000
vn 0.000000 1.000000 0.000000
vn 0.000000 1.000000 -0.000000
vn 0.000000 1.000000 0.000000
vn 0.000000 1.000000 0.000000
vn 0.000000 1.000000 -0.000000
vn 0.000000 1.000000 -0.000000
vn 0.000000 1.000000 0.000000
vn 0.000000 1.000000 0.000000
s off
f 7/1/1 13/2/2 14/3/3
f 2/4/4 12/5/5 11/6/6
f 8/11/7 28/12/8 26/13/9 20/14/10 19/15/11
f 9/16/12 10/17/13 4/18/14
f 15/30/15 16/31/16 14/24/17 13/25/18 18/26/19 17/27/20 12/28/21 2/29/22
f 7/32/23 14/24/24 16/31/25 1/33/26 35/34/27 34/35/28
f 1/33/29 24/36/30 21/37/31 3/38/32 40/74/33
f 16/39/34 15/40/35 1/41/36
f 17/42/37 18/43/38 8/44/39
f 19/45/40 20/46/41 6/47/42
f 21/48/43 24/49/44 23/50/45
f 23/50/46 24/49/47 22/51/48
f 28/52/49 27/53/50 26/54/51
f 25/55/52 27/53/53 28/52/54
f 29/56/55 32/57/56 31/58/57
f 31/58/58 32/57/59 30/59/60
f 34/60/61 35/61/62 36/62/63
f 36/62/64 35/61/65 33/63/66
f 35/34/67 52/100/68 50/98/69 53/123/70 37/71/71 5/64/72 33/65/73
f 31/66/74 56/129/75 15/30/76
f 31/66/77 15/30/78 2/29/79 11/67/80 29/68/81
f 36/70/82 18/26/83 13/25/84 7/32/85 34/35/86
f 46/89/87 48/90/88 45/91/89
f 5/75/90 37/76/91 38/77/92
f 36/70/93 33/65/94 5/64/95 38/72/96 55/126/97
f 48/112/98 54/113/99 56/114/100
f 39/78/101 40/79/102 3/80/103
f 44/92/104 43/93/105 41/94/106
f 32/19/107 46/86/108 45/85/109 10/21/110 9/22/111 30/23/112
f 42/95/113 43/93/114 44/92/115
f 47/96/116 48/90/117 46/89/118
f 46/86/119 44/84/120 41/81/121 47/87/122
f 19/15/123 6/20/124 42/82/125 44/84/126 17/27/127 8/11/128
f 17/27/129 44/84/130 46/86/131 32/19/132 29/68/133 11/67/134 12/28/135
f 52/101/136 51/102/137 50/103/138
f 49/104/139 51/102/140 52/101/141
f 40/74/142 39/73/143 49/97/144 52/100/145 1/33/146
f 1/33/147 52/100/148 35/34/149
f 54/83/150 55/88/151 38/130/152 37/131/153 53/132/154
f 27/7/155 54/8/156 42/119/157 6/120/158 20/121/159 26/122/160
f 23/99/161 51/105/162 49/106/163 39/107/164 3/108/165 21/109/166
f 18/26/167 28/12/168 8/11/169
f 18/26/170 55/126/171 25/69/172 28/12/173
f 36/70/174 55/126/175 18/26/176
f 31/66/177 30/23/178 9/22/179 4/10/180 56/129/181
f 15/30/182 22/9/183 24/36/184 1/33/185
f 15/30/186 56/129/187 22/9/188
f 51/105/189 54/110/190 53/111/191 50/124/192
f 56/133/193 54/110/194 22/134/195
f 22/134/196 54/110/197 51/105/198 23/99/199
f 48/112/200 56/114/201 4/115/202 10/116/203 45/117/204
f 42/118/205 54/113/206 43/128/207
f 43/128/208 54/113/209 48/112/210 47/135/211 41/136/212
f 27/7/213 25/125/214 55/127/215 54/8/216
