# This file uses centimeters as units for non-parametric coordinates.

v 0.642769 -4.802368 -2.862915
v -2.722811 -4.802368 -1.769409
v -2.722811 -4.802368 1.769409
v 0.642769 -4.802368 2.862915
v 2.722811 -4.802368 0.000000
v 0.642769 4.802368 -2.862915
v -2.722811 4.802368 -1.769409
v -2.722811 4.802368 1.769409
v 0.642769 4.802368 2.862915
v 2.722811 4.802368 0.000000
v 0.433722 -4.802368 -1.931824
v -1.837275 -4.802368 -1.193909
v -0.193966 -3.850838 0.000000
v -1.837275 -4.802368 1.193970
v 0.433722 -4.802368 1.931824
v 1.837275 -4.802368 0.000000
v 0.433722 4.802368 -1.931824
v -1.837275 4.802368 -1.193909
v -0.193966 3.850845 0.000000
v -1.837275 4.802368 1.193970
v 0.433722 4.802368 1.931824
v 1.837275 4.802368 0.000000
v 0.572180 0.117035 -2.548523
v -2.423794 0.117035 -1.575073
v -2.423796 0.117035 1.575134
v 0.572180 0.117035 2.548523
v 2.423796 0.117035 0.000000
vt 0.026691 0.303970
vt 0.026840 0.304114
vt 0.026825 0.303367
vt 0.026672 0.303233
vt 0.026578 0.304233
vt 0.026556 0.303478
vt 0.026268 0.304158
vt 0.026238 0.303408
vt 0.026343 0.303996
vt 0.026317 0.303257
vt 0.026737 0.304104
vt 0.026637 0.304007
vt 0.026733 0.278425
vt 0.026561 0.304184
vt 0.026352 0.304134
vt 0.026402 0.304024
vt 0.026618 0.303267
vt 0.026720 0.303358
vt 0.026813 0.278607
vt 0.026539 0.303432
vt 0.026325 0.303385
vt 0.026377 0.303284
vt 0.026587 0.278472
vt 0.026438 0.278412
vt 0.026347 0.278587
vt 0.026577 0.278703
vt 0.026840 0.277897
vt 0.026769 0.277716
vt 0.026626 0.277903
vt 0.026501 0.277703
vt 0.026418 0.277877
vt 0.026626 0.277993
vt 0.026680 0.303542
vt 0.026831 0.303680
vt 0.026566 0.303794
vt 0.026251 0.303722
vt 0.026328 0.303567
vn -0.309012 -0.000030 -0.951058
vn -0.309012 -0.000040 -0.951058
vn -0.308472 -0.059062 -0.949398
vn -0.308472 -0.059062 -0.949398
vn -1.000000 -0.000038 -0.000000
vn -1.000000 -0.000038 -0.000000
vn -0.997970 -0.063690 -0.000000
vn -0.997970 -0.063690 -0.000000
vn -0.309003 -0.000040 0.951061
vn -0.309004 -0.000030 0.951061
vn -0.308464 -0.059056 0.949401
vn -0.308464 -0.059056 0.949401
vn 0.809016 -0.000034 0.587787
vn 0.809016 -0.000028 0.587787
vn 0.807940 -0.051562 0.587005
vn 0.807940 -0.051562 0.587005
vn 0.809016 -0.000028 -0.587787
vn 0.809016 -0.000034 -0.587787
vn 0.807940 -0.051562 -0.587005
vn 0.807940 -0.051562 -0.587005
vn 0.343197 -0.905563 0.249342
vn -0.131087 -0.905564 0.403448
vn 0.000000 -1.000000 0.000002
vn 0.343188 -0.905566 -0.249345
vn 0.343197 -0.905563 0.249342
vn 0.000000 -1.000000 0.000002
vn -0.131090 -0.905564 -0.403447
vn 0.343188 -0.905566 -0.249345
vn 0.000000 -1.000000 0.000002
vn -0.424210 -0.905564 0.000000
vn -0.131090 -0.905564 -0.403447
vn 0.000000 -1.000000 0.000002
vn -0.131087 -0.905564 0.403448
vn -0.424210 -0.905564 0.000000
vn 0.000000 -1.000000 0.000002
vn -0.131086 0.905565 0.403445
vn 0.343195 0.905564 0.249341
vn 0.000000 1.000000 0.000002
vn 0.343195 0.905564 0.249341
vn 0.343185 0.905567 -0.249343
vn 0.000000 1.000000 0.000002
vn 0.343185 0.905567 -0.249343
vn -0.131089 0.905565 -0.403444
vn 0.000000 1.000000 0.000002
vn -0.131089 0.905565 -0.403444
vn -0.424207 0.905565 0.000000
vn 0.000000 1.000000 0.000002
vn -0.424207 0.905565 0.000000
vn -0.131086 0.905565 0.403445
vn 0.000000 1.000000 0.000002
vn 0.000000 -1.000000 0.000000
vn 0.000000 -1.000000 0.000000
vn 0.000000 -1.000000 0.000000
vn 0.000000 -1.000000 0.000000
vn 0.000000 -1.000000 0.000000
vn 0.000000 -1.000000 0.000000
vn 0.000000 -1.000000 0.000000
vn 0.000000 -1.000000 0.000000
vn 0.000000 -1.000000 0.000000
vn 0.000000 -1.000000 0.000000
vn 0.000000 -1.000000 0.000000
vn 0.000000 -1.000000 0.000000
vn 0.000000 -1.000000 -0.000000
vn 0.000000 -1.000000 -0.000000
vn 0.000000 -1.000000 -0.000000
vn 0.000000 -1.000000 -0.000000
vn 0.000000 -1.000000 0.000000
vn 0.000000 -1.000000 0.000000
vn 0.000000 -1.000000 0.000000
vn 0.000000 -1.000000 0.000000
vn 0.000000 1.000000 0.000000
vn 0.000000 1.000000 0.000000
vn 0.000000 1.000000 0.000000
vn 0.000000 1.000000 0.000000
vn 0.000000 1.000000 0.000000
vn 0.000000 1.000000 0.000000
vn 0.000000 1.000000 0.000000
vn 0.000000 1.000000 0.000000
vn 0.000000 1.000000 -0.000000
vn 0.000000 1.000000 -0.000000
vn 0.000000 1.000000 -0.000000
vn 0.000000 1.000000 -0.000000
vn 0.000000 1.000000 -0.000000
vn 0.000000 1.000000 -0.000000
vn 0.000000 1.000000 -0.000000
vn 0.000000 1.000000 -0.000000
vn 0.000000 1.000000 0.000000
vn 0.000000 1.000000 0.000000
vn 0.000000 1.000000 0.000000
vn 0.000000 1.000000 0.000000
vn -0.308522 0.056261 -0.949552
vn -0.308522 0.056261 -0.949552
vn -0.309012 -0.000040 -0.951058
vn -0.309012 -0.000030 -0.951058
vn -0.998158 0.060671 -0.000000
vn -0.998158 0.060671 -0.000000
vn -1.000000 -0.000038 -0.000000
vn -1.000000 -0.000038 -0.000000
vn -0.308514 0.056255 0.949555
vn -0.308514 0.056255 0.949555
vn -0.309004 -0.000030 0.951061
vn -0.309003 -0.000040 0.951061
vn 0.808039 0.049114 0.587078
vn 0.808039 0.049114 0.587078
vn 0.809016 -0.000028 0.587787
vn 0.809016 -0.000034 0.587787
vn 0.808039 0.049114 -0.587078
vn 0.808039 0.049114 -0.587078
vn 0.809016 -0.000034 -0.587787
vn 0.809016 -0.000028 -0.587787
s off
f 23/33/1 24/34/2 7/3/3 6/4/4
f 24/34/5 25/35/6 8/6/7 7/3/8
f 25/35/9 26/36/10 9/8/11 8/6/12
f 26/36/13 27/37/14 10/10/15 9/8/16
f 27/37/17 23/33/18 6/4/19 10/10/20
f 12/13/21 11/19/22 13/23/23
f 14/24/24 12/13/25 13/23/26
f 15/25/27 14/24/28 13/23/29
f 16/26/30 15/25/31 13/23/32
f 11/19/33 16/26/34 13/23/35
f 17/27/36 18/28/37 19/29/38
f 18/28/39 20/30/40 19/29/41
f 20/30/42 21/31/43 19/29/44
f 21/31/45 22/32/46 19/29/47
f 22/32/48 17/27/49 19/29/50
f 2/2/51 1/1/52 11/12/53 12/11/54
f 3/5/55 2/2/56 12/11/57 14/14/58
f 4/7/59 3/5/60 14/14/61 15/15/62
f 5/9/63 4/7/64 15/15/65 16/16/66
f 1/1/67 5/9/68 16/16/69 11/12/70
f 6/4/71 7/3/72 18/18/73 17/17/74
f 7/3/75 8/6/76 20/20/77 18/18/78
f 8/6/79 9/8/80 21/21/81 20/20/82
f 9/8/83 10/10/84 22/22/85 21/21/86
f 10/10/87 6/4/88 17/17/89 22/22/90
f 1/1/91 2/2/92 24/34/93 23/33/94
f 2/2/95 3/5/96 25/35/97 24/34/98
f 3/5/99 4/7/100 26/36/101 25/35/102
f 4/7/103 5/9/104 27/37/105 26/36/106
f 5/9/107 1/1/108 23/33/109 27/37/110
