# This file uses centimeters as units for non-parametric coordinates.

v -9.244659 10.483994 13.433210
v -9.244659 10.280838 12.066114
v -8.955719 5.823425 12.433821
v -5.075562 10.984329 13.844740
v -5.075562 10.802673 12.954130
v -4.217346 5.192978 13.101484
v -9.696686 7.324646 13.464369
v -9.696686 7.121399 12.167952
v -0.480286 8.699905 14.579908
v -0.444733 8.496674 13.794493
v -1.344513 7.097153 13.854017
v -1.081512 10.427261 14.408430
v -1.447693 9.832428 14.379255
v -5.059357 10.385880 13.875257
v -1.072235 8.631546 14.581099
v -1.837463 6.074188 14.743818
v -4.416840 5.395416 14.325712
v -8.819855 5.913376 13.838972
v -9.186096 7.276794 13.537031
v -8.829193 9.894394 13.445616
v -10.244171 10.931442 7.097013
v -11.618317 10.609406 7.483778
v -10.244171 8.991089 7.097013
v -11.618317 9.410538 7.483778
v -10.192139 9.746689 12.625639
v -10.192139 8.547821 12.641218
v -9.696686 8.128372 11.847700
v -1.045959 10.328018 13.663404
v -10.628937 12.216919 -2.998461
v -12.247345 11.773972 -0.715716
v -12.247345 11.024307 -1.221972
v -10.628937 10.494949 -3.817858
v -0.865601 9.621811 13.702726
v -0.467438 8.626541 14.296370
v -0.891937 9.729279 14.178694
v 0.000671 8.627808 13.794493
v 0.000671 8.730042 14.296370
v 0.000671 9.513550 13.702726
v 0.000671 9.598145 14.178694
v -9.155548 7.121399 12.167952
v -1.779877 5.841949 13.854017
v -1.344513 7.097153 14.678724
v -0.943848 7.032791 14.720686
v -0.906891 6.904587 13.827085
v 9.246033 10.483994 13.433210
v 9.246033 10.280838 12.066114
v 8.957092 5.823425 12.433821
v 5.076904 10.984329 13.844740
v 5.076904 10.802673 12.954130
v 4.218689 5.192978 13.101484
v 9.698029 7.324646 13.464369
v 9.698029 7.121399 12.167952
v 0.481628 8.699905 14.579908
v 0.446075 8.496674 13.794493
v 1.345886 7.097153 13.854017
v 1.082855 10.427261 14.408430
v 1.449036 9.832428 14.379255
v 5.060699 10.385880 13.875257
v 1.073608 8.631546 14.581099
v 1.838806 6.074188 14.743818
v 4.418213 5.395416 14.325712
v 8.821198 5.913376 13.838972
v 9.187439 7.276794 13.537031
v 8.830536 9.894394 13.445616
v 10.245514 10.931442 7.097013
v 11.619659 10.609406 7.483778
v 10.245514 8.991089 7.097013
v 11.619659 9.410538 7.483778
v 10.193512 9.746689 12.625639
v 10.193512 8.547821 12.641218
v 9.698029 8.128372 11.847700
v 1.047302 10.328018 13.663404
v 10.630280 12.216919 -2.998461
v 12.248688 11.773972 -0.715716
v 12.248688 11.024307 -1.221972
v 10.630280 10.494949 -3.817858
v 0.866943 9.621811 13.702726
v 0.468811 8.626541 14.296370
v 0.893311 9.729279 14.178694
v 9.156891 7.121399 12.167952
v 1.781219 5.841949 13.854017
v 1.345886 7.097153 14.678724
v 0.945190 7.032791 14.720686
v 0.908264 6.904587 13.827085
vt 0.081167 0.229999
vt 0.081167 0.229999
vt 0.081166 0.229999
vt 0.081166 0.229999
vt 0.091220 0.276102
vt 0.091220 0.276102
vt 0.091220 0.276102
vt 0.091220 0.276102
vt 0.091220 0.276102
vt 0.091220 0.276102
vt 0.091220 0.276102
vt 0.091220 0.276102
vt 0.091220 0.276102
vt 0.091471 0.275788
vt 0.091463 0.275785
vt 0.091322 0.275790
vt 0.091330 0.275793
vt 0.091281 0.275914
vt 0.091273 0.275911
vt 0.081166 0.230003
vt 0.081166 0.230003
vt 0.081166 0.230003
vt 0.081166 0.230003
vt 0.081166 0.230003
vt 0.081166 0.230003
vt 0.081166 0.230003
vt 0.081166 0.230003
vt 0.091634 0.275811
vt 0.091615 0.275824
vt 0.091463 0.275801
vt 0.091663 0.275850
vt 0.091642 0.275858
vt 0.081167 0.229999
vt 0.091288 0.275912
vt 0.091338 0.275806
vt 0.091361 0.276109
vt 0.091290 0.276109
vt 0.091290 0.276073
vt 0.091361 0.276038
vt 0.091290 0.276038
vt 0.091290 0.275967
vt 0.091361 0.275967
vt 0.091361 0.275897
vt 0.091290 0.275932
vt 0.091290 0.275897
vt 0.091255 0.276109
vt 0.091255 0.276179
vt 0.091220 0.276179
vt 0.091220 0.276109
vt 0.091432 0.276179
vt 0.091396 0.276179
vt 0.091432 0.276109
vt 0.091290 0.276179
vt 0.091361 0.275967
vt 0.091290 0.275967
vt 0.091361 0.275932
vt 0.091361 0.276179
vt 0.091290 0.276038
vt 0.091361 0.276038
vt 0.091611 0.275833
vt 0.091629 0.275839
vt 0.091634 0.275831
vt 0.091672 0.275853
vt 0.091666 0.275851
vt 0.091666 0.275851
vt 0.091634 0.275831
vt 0.091629 0.275839
vt 0.091672 0.275853
vt 0.091281 0.275914
vt 0.081167 0.229999
vt 0.091220 0.276102
vt 0.091220 0.276102
vt 0.081166 0.230003
vt 0.091623 0.275959
vt 0.091641 0.275955
vt 0.091220 0.276102
vt 0.091648 0.275954
vt 0.081166 0.229999
vt 0.081166 0.229999
vt 0.081166 0.229999
vt 0.081166 0.229999
vt 0.081167 0.229999
vt 0.081167 0.229999
vt 0.081166 0.229999
vt 0.081166 0.229999
vt 0.091220 0.276102
vt 0.091220 0.276102
vt 0.091220 0.276102
vt 0.091220 0.276102
vt 0.091220 0.276102
vt 0.091220 0.276102
vt 0.091220 0.276102
vt 0.091220 0.276102
vt 0.091220 0.276102
vt 0.091220 0.276102
vt 0.091220 0.276102
vt 0.091220 0.276102
vt 0.091471 0.275788
vt 0.091463 0.275785
vt 0.091322 0.275790
vt 0.091330 0.275793
vt 0.081167 0.229999
vt 0.081167 0.229999
vt 0.081166 0.229999
vt 0.081166 0.229999
vt 0.081166 0.230003
vt 0.081166 0.230003
vt 0.081166 0.230003
vt 0.081166 0.230003
vt 0.081166 0.230003
vt 0.081166 0.230003
vt 0.081166 0.230003
vt 0.081166 0.230003
vt 0.081166 0.230003
vt 0.091634 0.275811
vt 0.091615 0.275824
vt 0.091463 0.275801
vt 0.091663 0.275850
vt 0.091642 0.275858
vt 0.091273 0.275911
vt 0.091338 0.275806
vt 0.091288 0.275912
vt 0.091361 0.276109
vt 0.091290 0.276109
vt 0.091290 0.276073
vt 0.091361 0.276038
vt 0.091290 0.276038
vt 0.091290 0.275967
vt 0.091361 0.275967
vt 0.091361 0.275897
vt 0.091290 0.275932
vt 0.091290 0.275897
vt 0.091255 0.276109
vt 0.091255 0.276179
vt 0.091220 0.276179
vt 0.091220 0.276109
vt 0.091432 0.276179
vt 0.091396 0.276179
vt 0.091432 0.276109
vt 0.091290 0.276179
vt 0.091361 0.275967
vt 0.091290 0.275967
vt 0.091361 0.275932
vt 0.091361 0.276179
vt 0.091290 0.276038
vt 0.091361 0.276038
vt 0.091611 0.275833
vt 0.091629 0.275839
vt 0.091634 0.275831
vt 0.091666 0.275851
vt 0.091634 0.275831
vt 0.091666 0.275851
vt 0.091629 0.275839
vt 0.091672 0.275853
vt 0.091672 0.275853
vt 0.091281 0.275914
vt 0.091281 0.275914
vt 0.091641 0.275955
vt 0.091623 0.275959
vt 0.091648 0.275954
vt 0.081166 0.229999
vt 0.081166 0.229999
vt 0.091667 0.275850
vt 0.091667 0.275850
vt 0.091667 0.275850
vt 0.091667 0.275850
vt 0.091667 0.275850
vt 0.091667 0.275850
vt 0.091667 0.275850
vt 0.091667 0.275850
vn -0.349032 -0.926013 0.143794
vn -0.349032 -0.926013 0.143794
vn -0.349032 -0.926013 0.143794
vn -0.349032 -0.926013 0.143794
vn 0.153628 -0.052060 -0.986756
vn 0.153628 -0.052060 -0.986756
vn 0.168318 -0.069318 -0.983292
vn 0.153628 -0.052060 -0.986756
vn 0.199089 -0.024348 -0.979679
vn 0.199089 -0.024348 -0.979679
vn 0.199089 -0.024348 -0.979679
vn 0.236217 -0.068306 -0.969297
vn 0.188022 -0.026345 -0.981811
vn 0.236217 -0.068306 -0.969297
vn 0.236217 -0.068306 -0.969297
vn -0.115356 0.977618 -0.175943
vn -0.115356 0.977618 -0.175943
vn -0.115356 0.977618 -0.175943
vn -0.115356 0.977618 -0.175943
vn -0.959180 -0.279562 0.042656
vn -0.959180 -0.279562 0.042656
vn -0.959180 -0.279562 0.042656
vn -0.959180 -0.279562 0.042656
vn 0.532305 -0.832732 0.152341
vn 0.532305 -0.832732 0.152341
vn 0.532305 -0.832732 0.152341
vn 0.532305 -0.832732 0.152341
vn -0.131632 0.051815 0.989944
vn -0.131632 0.051815 0.989944
vn -0.131632 0.051815 0.989944
vn -0.147946 0.071970 0.986373
vn -0.147946 0.071970 0.986373
vn -0.147946 0.071970 0.986373
vn -0.146991 0.071466 0.986553
vn -0.146991 0.071466 0.986553
vn -0.146991 0.071466 0.986553
vn -0.169265 0.071905 0.982944
vn -0.169265 0.071905 0.982944
vn -0.169265 0.071905 0.982944
vn -0.127901 0.103412 0.986381
vn -0.124826 0.100159 0.987110
vn -0.127901 0.103412 0.986381
vn -0.127901 0.103412 0.986381
vn -0.129037 0.100852 0.986498
vn -0.129037 0.100852 0.986498
vn -0.129037 0.100852 0.986498
vn -0.134526 0.065779 0.988724
vn -0.134526 0.065779 0.988724
vn -0.134526 0.065779 0.988724
vn -0.134526 0.065779 0.988724
vn -0.079783 0.098595 0.991924
vn -0.079783 0.098595 0.991924
vn -0.079783 0.098595 0.991924
vn -0.079783 0.098595 0.991924
vn -0.079437 0.033041 0.996292
vn -0.079437 0.033041 0.996292
vn -0.079437 0.033041 0.996292
vn -0.079437 0.033041 0.996292
vn -0.114660 -0.006023 0.993387
vn -0.114660 -0.006023 0.993387
vn -0.114660 -0.006023 0.993387
vn -0.114660 -0.006023 0.993387
vn -0.402895 0.905306 -0.134525
vn -0.402895 0.905306 -0.134525
vn -0.402894 0.905306 -0.134525
vn -0.796125 0.286023 -0.533269
vn -0.796125 0.286023 -0.533269
vn -0.796125 0.286023 -0.533269
vn -0.796125 0.286023 -0.533269
vn -0.941965 -0.331662 0.051992
vn -0.941965 -0.331661 0.051992
vn -0.941965 -0.331662 0.051992
vn -0.942464 0.002173 0.334301
vn -0.942464 0.002173 0.334301
vn -0.942464 0.002173 0.334301
vn -0.942464 0.002173 0.334301
vn 0.965205 -0.094301 -0.243900
vn 0.965205 -0.094301 -0.243900
vn 0.965205 -0.094301 -0.243900
vn 0.965205 -0.094301 -0.243900
vn -0.740798 0.085118 0.666313
vn -0.740798 0.085118 0.666313
vn -0.740798 0.085118 0.666314
vn -0.740798 0.085118 0.666314
vn -0.432098 -0.901070 -0.036934
vn -0.432098 -0.901070 -0.036934
vn -0.432098 -0.901070 -0.036934
vn -0.432098 -0.901070 -0.036934
vn -0.880274 -0.143802 -0.452149
vn -0.880274 -0.143802 -0.452149
vn -0.880274 -0.143802 -0.452149
vn 0.877879 -0.145140 -0.456358
vn 0.877879 -0.145140 -0.456358
vn 0.877879 -0.145140 -0.456358
vn -0.179170 0.958885 0.220085
vn -0.179170 0.958885 0.220085
vn -0.179170 0.958885 0.220085
vn -0.179170 0.958885 0.220085
vn 0.967191 0.253977 0.006026
vn 0.904373 0.408600 0.123110
vn 0.952613 0.296620 -0.067411
vn 0.967191 0.253977 0.006026
vn 0.179869 0.963496 -0.198299
vn 0.181014 0.962639 -0.201395
vn 0.181014 0.962639 -0.201395
vn 0.159418 0.976722 -0.143527
vn -0.111075 0.981379 0.156710
vn -0.111075 0.981379 0.156710
vn -0.111075 0.981379 0.156710
vn -0.111075 0.981379 0.156710
vn -0.997320 -0.018397 0.070806
vn -0.997320 -0.018397 0.070806
vn -0.997320 -0.018397 0.070806
vn -0.997320 -0.018397 0.070806
vn -0.420885 -0.896704 -0.137034
vn -0.420885 -0.896704 -0.137034
vn -0.420885 -0.896704 -0.137034
vn -0.420885 -0.896704 -0.137034
vn 0.999341 0.007924 -0.035415
vn 0.999341 0.007924 -0.035415
vn 0.999341 0.007924 -0.035415
vn 0.999341 0.007924 -0.035415
vn 0.904373 0.408600 0.123110
vn 0.904373 0.408600 0.123110
vn 0.937052 0.327137 -0.122123
vn 0.952613 0.296620 -0.067411
vn 0.002419 0.119095 0.992880
vn 0.002419 0.119095 0.992880
vn 0.002419 0.119095 0.992880
vn 0.002419 0.119095 0.992880
vn 0.132339 0.972330 -0.192513
vn 0.132339 0.972330 -0.192513
vn 0.132339 0.972330 -0.192513
vn 0.132339 0.972330 -0.192513
vn 0.001579 -0.090564 -0.995889
vn 0.001579 -0.090564 -0.995889
vn 0.942750 0.329941 -0.048593
vn 0.001579 -0.090564 -0.995889
vn 0.242461 -0.944007 0.223750
vn 0.942750 0.329941 -0.048593
vn 0.242461 -0.944007 0.223750
vn 0.242461 -0.944007 0.223750
vn -0.054186 -0.989695 0.132545
vn -0.959180 -0.279562 0.042656
vn -0.959180 -0.279562 0.042656
vn -0.054186 -0.989695 0.132545
vn -0.067674 0.095588 0.993118
vn -0.067674 0.095588 0.993118
vn -0.041240 0.083623 0.995644
vn -0.041240 0.083623 0.995644
vn 0.958976 -0.267409 0.094113
vn 0.902174 -0.252265 0.349921
vn 0.958768 -0.269134 0.091274
vn 0.958733 -0.269418 0.090807
vn 0.958976 -0.267409 0.094113
vn 0.958768 -0.269134 0.091274
vn 0.958733 -0.269418 0.090807
vn 0.923789 -0.374084 0.081706
vn 0.923789 -0.374084 0.081706
vn 0.923789 -0.374084 0.081706
vn 0.923789 -0.374084 0.081706
vn 0.311333 -0.144467 -0.939256
vn 0.311333 -0.144467 -0.939256
vn 0.311333 -0.144467 -0.939256
vn 0.290254 0.019275 -0.956755
vn 0.290254 0.019275 -0.956755
vn 0.290254 0.019275 -0.956755
vn 0.349032 -0.926013 0.143794
vn 0.349032 -0.926013 0.143794
vn 0.349032 -0.926013 0.143794
vn 0.349032 -0.926013 0.143794
vn -0.153628 -0.052060 -0.986756
vn -0.001491 -0.048850 -0.998805
vn -0.153628 -0.052060 -0.986756
vn -0.153628 -0.052060 -0.986756
vn -0.001491 -0.048850 -0.998805
vn -0.199089 -0.024348 -0.979679
vn -0.199089 -0.024348 -0.979679
vn -0.199089 -0.024348 -0.979679
vn -0.236217 -0.068306 -0.969297
vn -0.236217 -0.068306 -0.969297
vn -0.236217 -0.068306 -0.969297
vn -0.188020 -0.026345 -0.981812
vn 0.115356 0.977618 -0.175943
vn 0.115356 0.977618 -0.175943
vn 0.115356 0.977618 -0.175943
vn 0.115356 0.977618 -0.175943
vn 0.959180 -0.279562 0.042656
vn 0.959180 -0.279562 0.042656
vn 0.959180 -0.279562 0.042656
vn 0.959180 -0.279562 0.042656
vn -0.532305 -0.832732 0.152341
vn -0.532305 -0.832732 0.152341
vn -0.532305 -0.832732 0.152341
vn -0.532305 -0.832732 0.152341
vn 0.131632 0.051815 0.989944
vn 0.131632 0.051815 0.989944
vn 0.131632 0.051815 0.989944
vn 0.147946 0.071970 0.986373
vn 0.147946 0.071970 0.986373
vn 0.147946 0.071970 0.986373
vn 0.146991 0.071466 0.986553
vn 0.146991 0.071466 0.986553
vn 0.146991 0.071466 0.986553
vn 0.169265 0.071905 0.982944
vn 0.169265 0.071905 0.982944
vn 0.169265 0.071905 0.982944
vn 0.127901 0.103412 0.986381
vn 0.127901 0.103412 0.986381
vn 0.127901 0.103412 0.986381
vn 0.124826 0.100159 0.987110
vn 0.129037 0.100852 0.986498
vn 0.129037 0.100852 0.986498
vn 0.129037 0.100852 0.986498
vn 0.134526 0.065779 0.988724
vn 0.134526 0.065779 0.988724
vn 0.134526 0.065779 0.988724
vn 0.134526 0.065779 0.988724
vn 0.079783 0.098595 0.991924
vn 0.079783 0.098595 0.991924
vn 0.079783 0.098595 0.991924
vn 0.079783 0.098595 0.991924
vn 0.079437 0.033041 0.996292
vn 0.079437 0.033041 0.996292
vn 0.079437 0.033041 0.996292
vn 0.079437 0.033041 0.996292
vn 0.114660 -0.006023 0.993387
vn 0.114660 -0.006023 0.993387
vn 0.114660 -0.006023 0.993387
vn 0.114660 -0.006023 0.993387
vn 0.402895 0.905306 -0.134525
vn 0.402894 0.905306 -0.134525
vn 0.402895 0.905306 -0.134525
vn 0.796125 0.286023 -0.533269
vn 0.796125 0.286023 -0.533269
vn 0.796125 0.286023 -0.533269
vn 0.796125 0.286023 -0.533269
vn 0.941965 -0.331662 0.051992
vn 0.941965 -0.331662 0.051992
vn 0.941965 -0.331661 0.051992
vn 0.942464 0.002173 0.334301
vn 0.942464 0.002173 0.334301
vn 0.942464 0.002173 0.334301
vn 0.942464 0.002173 0.334301
vn -0.965205 -0.094301 -0.243900
vn -0.965205 -0.094301 -0.243900
vn -0.965205 -0.094301 -0.243900
vn -0.965205 -0.094301 -0.243900
vn 0.740798 0.085118 0.666313
vn 0.740798 0.085118 0.666314
vn 0.740798 0.085118 0.666314
vn 0.740798 0.085118 0.666313
vn 0.432098 -0.901070 -0.036934
vn 0.432098 -0.901070 -0.036934
vn 0.432098 -0.901070 -0.036934
vn 0.432098 -0.901070 -0.036934
vn 0.880274 -0.143802 -0.452149
vn 0.880274 -0.143802 -0.452149
vn 0.880274 -0.143802 -0.452149
vn -0.877879 -0.145140 -0.456358
vn -0.877879 -0.145140 -0.456358
vn -0.877879 -0.145140 -0.456358
vn 0.179170 0.958885 0.220085
vn 0.179170 0.958885 0.220085
vn 0.179170 0.958885 0.220085
vn 0.179170 0.958885 0.220085
vn -0.967191 0.253977 0.006027
vn -0.967191 0.253977 0.006027
vn -0.952613 0.296620 -0.067410
vn -0.904373 0.408600 0.123110
vn -0.179869 0.963496 -0.198299
vn -0.159418 0.976722 -0.143527
vn -0.181014 0.962639 -0.201395
vn -0.181014 0.962639 -0.201395
vn 0.111075 0.981379 0.156710
vn 0.111075 0.981379 0.156710
vn 0.111075 0.981379 0.156710
vn 0.111075 0.981379 0.156710
vn 0.997320 -0.018397 0.070806
vn 0.997320 -0.018397 0.070806
vn 0.997320 -0.018397 0.070806
vn 0.997320 -0.018397 0.070806
vn 0.420885 -0.896704 -0.137034
vn 0.420885 -0.896704 -0.137034
vn 0.420885 -0.896704 -0.137034
vn 0.420885 -0.896704 -0.137034
vn -0.999341 0.007924 -0.035415
vn -0.999341 0.007924 -0.035415
vn -0.999341 0.007924 -0.035415
vn -0.999341 0.007924 -0.035415
vn -0.904373 0.408600 0.123110
vn -0.952613 0.296620 -0.067410
vn -0.937052 0.327137 -0.122123
vn -0.904373 0.408600 0.123110
vn -0.002418 0.119095 0.992880
vn -0.002418 0.119095 0.992880
vn -0.002418 0.119095 0.992880
vn -0.002418 0.119095 0.992880
vn -0.132340 0.972332 -0.192501
vn -0.132340 0.972332 -0.192501
vn -0.132340 0.972332 -0.192501
vn -0.132340 0.972332 -0.192501
vn -0.001579 -0.090564 -0.995889
vn -0.001579 -0.090564 -0.995889
vn -0.942750 0.329941 -0.048593
vn -0.001579 -0.090564 -0.995889
vn -0.242460 -0.944006 0.223755
vn -0.242460 -0.944006 0.223755
vn -0.242460 -0.944006 0.223755
vn -0.942750 0.329941 -0.048593
vn 0.054186 -0.989696 0.132535
vn 0.054186 -0.989696 0.132535
vn 0.959180 -0.279562 0.042656
vn 0.959180 -0.279562 0.042656
vn 0.067674 0.095588 0.993118
vn 0.041240 0.083624 0.995644
vn 0.041240 0.083624 0.995644
vn 0.067674 0.095588 0.993118
vn -0.958976 -0.267409 0.094116
vn -0.958768 -0.269134 0.091276
vn -0.902174 -0.252265 0.349921
vn -0.958732 -0.269418 0.090808
vn -0.958732 -0.269418 0.090808
vn -0.958768 -0.269134 0.091276
vn -0.958976 -0.267409 0.094116
vn -0.923789 -0.374084 0.081703
vn -0.923789 -0.374084 0.081703
vn -0.923789 -0.374084 0.081703
vn -0.923789 -0.374084 0.081703
vn -0.311338 -0.144469 -0.939254
vn -0.311338 -0.144469 -0.939254
vn -0.311338 -0.144469 -0.939254
vn -0.290254 0.019275 -0.956755
vn -0.290254 0.019275 -0.956755
vn -0.290254 0.019275 -0.956755
vn -0.153628 -0.052060 -0.986756
vn -0.153628 -0.052060 -0.986756
vn -0.153628 -0.052060 -0.986756
vn -0.168318 -0.069318 -0.983293
vn 0.153628 -0.052060 -0.986756
vn 0.001493 -0.048850 -0.998805
vn 0.153628 -0.052060 -0.986756
vn 0.153628 -0.052060 -0.986756
vn 0.001493 -0.048850 -0.998805
vn -0.293483 -0.953762 0.064849
vn -0.293483 -0.953762 0.064849
vn -0.293483 -0.953762 0.064849
vn -0.293483 -0.953762 0.064849
vn 0.293473 -0.953765 0.064855
vn 0.293473 -0.953765 0.064855
vn 0.293473 -0.953765 0.064855
vn 0.293473 -0.953765 0.064855
s off
f 3/1/1 6/4/2 17/3/3 18/2/4
f 28/10/5 11/7/6 41/8/7 5/9/8
f 6/12/9 3/13/10 5/9/11
f 5/9/12 40/71/13 8/72/14 2/76/15
f 5/14/16 2/17/17 1/16/18 4/15/19
f 18/2/20 19/70/21 40/33/22 3/1/23
f 16/78/24 17/3/25 6/4/26 41/79/27
f 20/20/28 19/22/29 14/21/30
f 19/22/31 18/23/32 14/21/33
f 18/23/34 17/24/35 14/21/36
f 17/24/37 16/25/38 14/21/39
f 16/25/40 42/73/41 15/26/42 14/21/43
f 14/21/44 15/26/45 13/27/46
f 4/15/47 14/30/48 13/29/49 12/28/50
f 12/28/51 13/29/52 15/32/53 9/31/54
f 7/19/55 19/34/56 20/35/57 1/16/58
f 1/16/59 20/35/60 14/30/61 4/15/62
f 2/36/63 25/38/64 1/37/65
f 29/39/66 32/42/67 31/41/68 30/40/69
f 8/43/70 7/45/71 26/44/72
f 25/46/73 22/49/74 24/48/75 26/47/76
f 23/50/77 21/52/78 2/36/79 27/51/80
f 7/53/81 1/37/82 25/46/83 26/47/84
f 23/54/85 27/56/86 26/44/87 24/55/88
f 27/56/89 8/43/90 26/44/91
f 2/36/92 8/57/93 27/51/94
f 2/36/95 21/59/96 22/58/97 25/38/98
f 28/60/99 12/28/100 35/62/101 33/61/102
f 5/14/103 4/15/104 12/28/105 28/60/106
f 21/59/107 29/39/108 30/40/109 22/58/110
f 22/58/111 30/40/112 31/41/113 24/55/114
f 24/55/115 31/41/116 32/42/117 23/54/118
f 23/54/119 32/42/120 29/39/121 21/59/122
f 12/28/123 9/31/124 34/64/125 35/62/126
f 34/64/127 37/65/128 39/66/129 35/62/130
f 35/62/131 39/66/132 38/67/133 33/61/134
f 33/61/135 38/67/136 36/68/137 10/63/138
f 10/63/139 36/68/140 37/65/141 34/64/142
f 8/18/143 40/69/144 19/34/145 7/19/146
f 9/31/147 15/32/148 42/74/149 43/75/150
f 34/64/151 9/31/152 43/75/153
f 10/63/154 34/64/155 43/75/156 44/77/157
f 11/80/158 42/81/159 16/78/160 41/79/161
f 3/13/162 40/71/163 5/9/164
f 41/8/165 6/12/166 5/9/167
f 47/82/168 62/83/169 61/84/170 50/85/171
f 54/86/172 77/87/173 72/88/174 55/91/175 84/92/176
f 50/93/177 49/89/178 47/94/179
f 49/89/180 46/95/181 52/96/182 80/97/183
f 49/98/184 48/99/185 45/100/186 46/101/187
f 62/83/188 47/82/189 80/102/190 63/103/191
f 60/104/192 81/105/193 50/85/194 61/84/195
f 64/106/196 58/107/197 63/108/198
f 63/108/199 58/107/200 62/109/201
f 62/109/202 58/107/203 61/110/204
f 61/110/205 58/107/206 60/111/207
f 60/111/208 58/107/209 59/112/210 82/113/211
f 58/107/212 57/114/213 59/112/214
f 48/99/215 56/115/216 57/116/217 58/117/218
f 56/115/219 53/118/220 59/119/221 57/116/222
f 51/120/223 45/100/224 64/121/225 63/122/226
f 45/100/227 48/99/228 58/117/229 64/121/230
f 46/123/231 45/124/232 69/125/233
f 73/126/234 74/127/235 75/128/236 76/129/237
f 52/130/238 70/131/239 51/132/240
f 69/133/241 70/134/242 68/135/243 66/136/244
f 67/137/245 71/138/246 46/123/247 65/139/248
f 51/140/249 70/134/250 69/133/251 45/124/252
f 67/141/253 68/142/254 70/131/255 71/143/256
f 71/143/257 70/131/258 52/130/259
f 46/123/260 71/138/261 52/144/262
f 46/123/263 69/125/264 66/145/265 65/146/266
f 72/147/267 77/148/268 79/149/269 56/115/270
f 49/98/271 72/147/272 56/115/273 48/99/274
f 65/146/275 66/145/276 74/127/277 73/126/278
f 66/145/279 68/142/280 75/128/281 74/127/282
f 68/142/283 67/141/284 76/129/285 75/128/286
f 67/141/287 65/146/288 73/126/289 76/129/290
f 56/115/291 79/149/292 78/150/293 53/118/294
f 78/150/295 79/149/296 39/151/297 37/152/298
f 79/149/299 77/148/300 38/153/301 39/151/302
f 77/148/303 54/154/304 36/155/305 38/153/306
f 54/154/307 78/150/308 37/152/309 36/155/310
f 52/156/311 51/120/312 63/122/313 80/157/314
f 53/118/315 83/158/316 82/159/317 59/119/318
f 78/150/319 83/158/320 53/118/321
f 54/154/322 84/160/323 83/158/324 78/150/325
f 55/161/326 81/105/327 60/104/328 82/162/329
f 47/94/330 49/89/331 80/97/332
f 81/90/333 49/89/334 50/93/335
f 55/91/336 72/88/337 49/89/338 81/90/339
f 10/5/340 44/6/341 11/7/342 28/10/343 33/11/344
f 44/163/345 43/164/346 42/165/347 11/166/348
f 83/167/349 84/168/350 55/169/351 82/170/352
