# This file uses centimeters as units for non-parametric coordinates.

v -0.000061 16.191422 11.795710
v -0.000061 17.237625 13.183219
v -0.000061 18.599762 12.129589
v -0.000061 18.183624 11.647405
v -0.000061 18.836670 7.193100
v -0.000061 21.356812 8.695541
v -0.000061 20.505493 9.953927
v -0.000061 20.091705 9.513136
v 0.861389 18.191437 11.647361
v 6.846680 14.768982 13.881900
v 7.756042 19.985916 9.698178
v 10.090088 15.249786 12.129725
v 10.090088 18.640747 8.964274
v 2.609131 20.371307 9.831736
v 2.609131 15.720428 12.925357
v 0.861389 18.608215 12.129541
v 2.609131 16.088333 13.293143
v 2.609131 20.816040 10.307794
v 6.846680 15.172607 14.252497
v 10.390991 15.650131 12.558589
v 7.756042 20.403183 10.142941
v 10.390991 19.041092 9.393138
v 0.536316 17.237625 13.183219
v 2.074280 14.784332 13.496207
v 7.483948 13.788528 14.422545
v 11.552063 14.760971 12.574046
v 8.393311 21.247284 8.794502
v 11.552063 19.117676 8.507068
v 0.536316 16.191422 11.795712
v 1.875427 13.502457 11.987369
v 6.581024 12.803345 11.176112
v 9.366928 13.553467 10.495387
v 6.996216 18.173340 7.057994
v 9.179077 17.985550 6.550347
v 11.309998 14.870346 11.745616
v 11.309998 18.336334 8.510135
v 13.079771 10.837204 -2.318202
v 13.300103 14.243744 -3.429174
v 11.270566 14.489853 -3.375991
v 10.511738 10.693985 -1.745077
v 10.767410 16.618484 3.098269
v 12.229660 16.323441 3.516886
v 11.856689 13.022659 6.810061
v 10.228180 12.353943 6.760226
v 12.423239 7.927414 -10.624837
v 12.593868 11.978561 -11.202372
v -0.000061 7.179733 -13.008213
v -0.000061 11.460327 -13.755324
v 10.233169 8.290573 -9.075684
v -0.000061 7.539978 -11.086463
v 10.526308 12.425217 -9.937131
v -0.000061 11.820480 -11.831310
v -0.861511 18.191437 11.647361
v -6.846802 14.768982 13.881900
v -7.756165 19.985916 9.698178
v -10.090210 15.249786 12.129725
v -10.090210 18.640747 8.964274
v -2.609253 20.371307 9.831736
v -2.609253 15.720428 12.925357
v -0.861511 18.608215 12.129541
v -2.609253 16.088333 13.293143
v -2.609253 20.816040 10.307794
v -6.846802 15.172607 14.252497
v -10.391113 15.650131 12.558589
v -7.756165 20.403183 10.142941
v -10.391113 19.041092 9.393138
v -0.536438 17.237625 13.183219
v -2.074402 14.784332 13.496207
v -7.484070 13.788528 14.422545
v -11.552185 14.760971 12.574046
v -8.393433 21.247284 8.794502
v -11.552185 19.117676 8.507068
v -0.536438 16.191422 11.795712
v -1.875549 13.502457 11.987369
v -6.581146 12.803345 11.176112
v -9.367050 13.553467 10.495387
v -6.996338 18.173340 7.057994
v -9.179199 17.985550 6.550347
v -11.310120 14.870346 11.745616
v -11.310120 18.336334 8.510135
v -13.079893 10.837204 -2.318202
v -13.300225 14.243744 -3.429174
v -11.270688 14.489853 -3.375991
v -10.511860 10.693985 -1.745077
v -10.767532 16.618484 3.098269
v -12.229782 16.323441 3.516886
v -11.856812 13.022659 6.810061
v -10.228302 12.353943 6.760226
v -12.423361 7.927414 -10.624837
v -12.593990 11.978561 -11.202372
v -10.233291 8.290573 -9.075684
v -10.526430 12.425217 -9.937131
vt 0.080795 0.229509
vt 0.080795 0.229509
vt 0.080795 0.229509
vt 0.080795 0.229509
vt 0.080795 0.229509
vt 0.080795 0.229509
vt 0.080795 0.229509
vt 0.080795 0.229509
vt 0.080795 0.229509
vt 0.080795 0.229509
vt 0.080795 0.229509
vt 0.080795 0.229509
vt 0.080795 0.229509
vt 0.080795 0.229509
vt 0.080795 0.229509
vt 0.080795 0.229509
vt 0.080795 0.229509
vt 0.080795 0.229509
vt 0.080795 0.229509
vt 0.080795 0.229509
vt 0.080795 0.229509
vt 0.080795 0.229509
vt 0.080795 0.229509
vt 0.080795 0.229509
vt 0.080795 0.229509
vt 0.080795 0.229509
vt 0.080795 0.229509
vt 0.080795 0.229509
vt 0.080795 0.229509
vt 0.080795 0.229509
vt 0.080795 0.229509
vt 0.080795 0.229509
vt 0.080795 0.229509
vt 0.080795 0.229509
vt 0.080795 0.229509
vt 0.080795 0.229509
vt 0.080795 0.229509
vt 0.080795 0.229509
vt 0.080795 0.229509
vt 0.080795 0.229509
vt 0.080795 0.229509
vt 0.080795 0.229509
vt 0.080795 0.229509
vt 0.080795 0.229509
vt 0.092390 0.276293
vt 0.092390 0.275500
vt 0.092390 0.275845
vt 0.092390 0.276069
vt 0.089737 0.275500
vt 0.089737 0.278153
vt 0.089737 0.277522
vt 0.089737 0.276708
vt 0.092390 0.278153
vt 0.081690 0.229977
vt 0.079176 0.229977
vt 0.079176 0.227463
vt 0.081690 0.227463
vt 0.081690 0.229977
vt 0.079176 0.229977
vt 0.079176 0.227463
vt 0.081690 0.227463
vt 0.081690 0.229977
vt 0.079176 0.229977
vt 0.079176 0.227463
vt 0.081690 0.227463
vt 0.081690 0.229977
vt 0.079176 0.229977
vt 0.079176 0.227463
vt 0.081690 0.227463
vt 0.081690 0.229977
vt 0.079176 0.229977
vt 0.079176 0.227463
vt 0.081690 0.227463
vt 0.081690 0.229977
vt 0.079176 0.229977
vt 0.079176 0.227463
vt 0.081690 0.227463
vt 0.080795 0.229509
vt 0.080795 0.229509
vt 0.080795 0.229509
vt 0.080795 0.229509
vt 0.080795 0.229509
vt 0.080795 0.229509
vt 0.080795 0.229509
vt 0.080795 0.229509
vt 0.080795 0.229509
vt 0.080795 0.229509
vt 0.080795 0.229509
vt 0.080795 0.229509
vt 0.080795 0.229509
vt 0.080795 0.229509
vt 0.080795 0.229509
vt 0.080795 0.229509
vt 0.080795 0.229509
vt 0.080795 0.229509
vt 0.080795 0.229509
vt 0.080795 0.229509
vt 0.080795 0.229509
vt 0.080795 0.229509
vt 0.080795 0.229509
vt 0.080795 0.229509
vt 0.080795 0.229509
vt 0.080795 0.229509
vt 0.080795 0.229509
vt 0.080795 0.229509
vt 0.080795 0.229509
vt 0.080795 0.229509
vt 0.080795 0.229509
vt 0.080795 0.229509
vt 0.080795 0.229509
vt 0.080795 0.229509
vt 0.080795 0.229509
vt 0.080795 0.229509
vt 0.080795 0.229509
vt 0.080795 0.229509
vt 0.080795 0.229509
vt 0.080795 0.229509
vt 0.080795 0.229509
vt 0.080795 0.229509
vt 0.080795 0.229509
vt 0.080795 0.229509
vt 0.092390 0.276293
vt 0.092390 0.276069
vt 0.092390 0.275845
vt 0.092390 0.275500
vt 0.089737 0.275500
vt 0.089737 0.276708
vt 0.089737 0.277522
vt 0.089737 0.278153
vt 0.092390 0.278153
vt 0.081690 0.229977
vt 0.081690 0.227463
vt 0.079176 0.227463
vt 0.079176 0.229977
vt 0.081690 0.229977
vt 0.081690 0.227463
vt 0.079176 0.227463
vt 0.079176 0.229977
vt 0.081690 0.229977
vt 0.081690 0.227463
vt 0.079176 0.227463
vt 0.079176 0.229977
vt 0.081690 0.229977
vt 0.081690 0.227463
vt 0.079176 0.227463
vt 0.079176 0.229977
vt 0.081690 0.229977
vt 0.081690 0.227463
vt 0.079176 0.227463
vt 0.079176 0.229977
vt 0.081690 0.229977
vt 0.081690 0.227463
vt 0.079176 0.227463
vt 0.079176 0.229977
vn -0.005530 -0.729934 0.683496
vn -0.005530 -0.729934 0.683496
vn -0.005530 -0.729934 0.683496
vn -0.005530 -0.729934 0.683496
vn -0.171974 0.815926 0.551987
vn -0.171974 0.815926 0.551987
vn -0.171974 0.815926 0.551987
vn -0.000000 0.756802 -0.653644
vn -0.000000 0.756802 -0.653644
vn -0.007180 0.756783 -0.653627
vn -0.007180 0.756783 -0.653627
vn 0.835899 0.403297 -0.372322
vn 0.835899 0.403297 -0.372322
vn 0.835899 0.403297 -0.372322
vn 0.835899 0.403297 -0.372322
vn -0.392965 0.718160 -0.574304
vn -0.392965 0.718160 -0.574304
vn -0.392965 0.718159 -0.574304
vn -0.392965 0.718159 -0.574304
vn -0.166220 -0.690760 0.703720
vn -0.166220 -0.690760 0.703720
vn -0.166220 -0.690760 0.703720
vn -0.166220 -0.690760 0.703720
vn -0.889794 0.311414 0.333599
vn -0.889794 0.311414 0.333599
vn -0.889794 0.311414 0.333599
vn -0.889794 0.311414 0.333599
vn -0.036775 -0.729545 0.682943
vn -0.036775 -0.729545 0.682943
vn -0.036775 -0.729545 0.682943
vn -0.036775 -0.729545 0.682943
vn 0.301009 0.659351 -0.688949
vn 0.301009 0.659351 -0.688949
vn 0.301009 0.659351 -0.688949
vn 0.301009 0.659351 -0.688949
vn 0.000000 0.610932 0.791683
vn 0.000000 0.610932 0.791683
vn -0.003666 0.610928 0.791677
vn -0.003666 0.610928 0.791677
vn 0.160641 0.376972 0.912188
vn 0.160641 0.376972 0.912188
vn 0.160641 0.376972 0.912188
vn 0.160641 0.376972 0.912188
vn 0.342111 0.342061 0.875188
vn 0.342111 0.342061 0.875188
vn 0.342111 0.342060 0.875188
vn 0.342111 0.342061 0.875188
vn 0.478926 0.606001 0.635132
vn 0.478926 0.606001 0.635132
vn 0.478926 0.606001 0.635132
vn 0.478926 0.606001 0.635132
vn 0.456335 0.607189 0.650446
vn 0.456335 0.607189 0.650446
vn 0.456335 0.607189 0.650446
vn 0.456335 0.607189 0.650446
vn 0.037241 0.914468 0.402941
vn 0.037241 0.914468 0.402941
vn 0.037241 0.914468 0.402941
vn 0.037241 0.914468 0.402941
vn -0.165464 0.129402 0.977690
vn -0.165464 0.129402 0.977690
vn -0.165464 0.129402 0.977690
vn -0.165464 0.129402 0.977690
vn -0.000002 -0.798458 0.602050
vn -0.000002 -0.798458 0.602050
vn -0.000002 -0.798458 0.602050
vn -0.000002 -0.798458 0.602050
vn -0.818311 -0.419257 0.393180
vn -0.818311 -0.419257 0.393180
vn -0.818311 -0.419257 0.393180
vn -0.818311 -0.419257 0.393180
vn 0.308642 -0.929132 0.203601
vn 0.308642 -0.929132 0.203601
vn 0.308642 -0.929132 0.203600
vn 0.308642 -0.929132 0.203601
vn 0.133868 0.583407 -0.801072
vn 0.133868 0.583407 -0.801072
vn 0.133868 0.583407 -0.801072
vn 0.133868 0.583407 -0.801072
vn 0.022903 0.496646 -0.867651
vn 0.022903 0.496646 -0.867651
vn 0.022903 0.496646 -0.867651
vn 0.022903 0.496646 -0.867651
vn -0.152276 -0.877970 0.453851
vn -0.152276 -0.877970 0.453851
vn -0.152276 -0.877970 0.453851
vn -0.152276 -0.877970 0.453851
vn 0.909894 -0.283079 -0.303247
vn 0.909894 -0.283079 -0.303247
vn 0.909894 -0.283079 -0.303247
vn 0.909894 -0.283079 -0.303247
vn 0.680138 -0.213465 -0.701317
vn 0.680138 -0.213465 -0.701317
vn 0.680138 -0.213465 -0.701317
vn 0.656424 -0.698863 -0.284075
vn 0.656424 -0.698863 -0.284075
vn 0.656424 -0.698863 -0.284075
vn 0.990555 0.062937 0.121821
vn 0.990555 0.062937 0.121821
vn 0.990555 0.062937 0.121821
vn 0.990555 0.062937 0.121821
vn 0.193697 0.929317 -0.314407
vn 0.193697 0.929317 -0.314407
vn 0.193697 0.929317 -0.314407
vn 0.193697 0.929317 -0.314407
vn 0.349475 -0.864752 0.360654
vn 0.349475 -0.864752 0.360654
vn 0.349475 -0.864752 0.360654
vn 0.349475 -0.864752 0.360654
vn 0.175333 0.945089 -0.275801
vn 0.175333 0.945088 -0.275801
vn 0.175333 0.945088 -0.275801
vn 0.175333 0.945088 -0.275801
vn 0.990127 0.004412 0.140103
vn 0.990127 0.004412 0.140103
vn 0.990127 0.004412 0.140103
vn 0.990127 0.004412 0.140103
vn 0.212091 -0.950881 0.225483
vn 0.212091 -0.950881 0.225483
vn 0.212091 -0.950881 0.225483
vn 0.212091 -0.950881 0.225483
vn -0.122374 0.716199 0.687084
vn -0.122374 0.716199 0.687084
vn 0.000000 0.721622 0.692287
vn 0.000000 0.721622 0.692287
vn 0.406927 0.567876 0.715491
vn 0.406927 0.567876 0.715491
vn 0.406927 0.567876 0.715491
vn 0.406927 0.567876 0.715491
vn 0.013799 0.592653 0.805340
vn 0.013799 0.592653 0.805340
vn 0.013799 0.592653 0.805340
vn 0.013799 0.592653 0.805340
vn 0.171609 0.545621 0.820273
vn 0.171609 0.545621 0.820273
vn 0.171609 0.545621 0.820273
vn 0.995798 -0.066468 -0.063002
vn 0.995798 -0.066468 -0.063002
vn 0.995798 -0.066468 -0.063002
vn 0.995798 -0.066468 -0.063002
vn 0.198840 -0.157851 -0.967236
vn 0.198840 -0.157851 -0.967236
vn 0.198840 -0.157851 -0.967236
vn 0.198840 -0.157851 -0.967236
vn 0.022351 -0.975809 0.217480
vn 0.022351 -0.975809 0.217480
vn 0.022351 -0.975809 0.217480
vn 0.022351 -0.975809 0.217480
vn 0.000077 0.969471 -0.245204
vn 0.000077 0.969471 -0.245204
vn 0.000077 0.969471 -0.245204
vn 0.000077 0.969471 -0.245204
vn 0.096861 -0.944135 0.315005
vn 0.096861 -0.944134 0.315005
vn 0.096861 -0.944134 0.315005
vn 0.096861 -0.944134 0.315005
vn 0.066367 0.953293 -0.294667
vn 0.066367 0.953293 -0.294667
vn 0.066367 0.953293 -0.294667
vn 0.066367 0.953293 -0.294667
vn 0.005530 -0.729934 0.683496
vn 0.005530 -0.729934 0.683496
vn 0.005530 -0.729934 0.683496
vn 0.005530 -0.729934 0.683496
vn 0.171974 0.815926 0.551987
vn 0.171974 0.815926 0.551987
vn 0.171974 0.815926 0.551987
vn -0.000000 0.756802 -0.653644
vn 0.007179 0.756783 -0.653627
vn 0.007179 0.756783 -0.653627
vn -0.000000 0.756802 -0.653644
vn -0.835899 0.403297 -0.372322
vn -0.835899 0.403297 -0.372322
vn -0.835899 0.403297 -0.372322
vn -0.835899 0.403297 -0.372322
vn 0.392965 0.718160 -0.574304
vn 0.392965 0.718160 -0.574304
vn 0.392965 0.718160 -0.574304
vn 0.392965 0.718160 -0.574304
vn 0.166221 -0.690759 0.703720
vn 0.166221 -0.690759 0.703720
vn 0.166221 -0.690760 0.703720
vn 0.166221 -0.690759 0.703720
vn 0.889794 0.311414 0.333600
vn 0.889794 0.311414 0.333600
vn 0.889794 0.311414 0.333600
vn 0.889794 0.311414 0.333600
vn 0.036776 -0.729545 0.682944
vn 0.036776 -0.729545 0.682943
vn 0.036776 -0.729545 0.682944
vn 0.036776 -0.729545 0.682944
vn -0.301008 0.659351 -0.688949
vn -0.301008 0.659351 -0.688949
vn -0.301008 0.659351 -0.688949
vn -0.301008 0.659351 -0.688949
vn 0.000000 0.610932 0.791683
vn 0.003666 0.610928 0.791677
vn 0.003666 0.610928 0.791677
vn 0.000000 0.610932 0.791683
vn -0.160641 0.376972 0.912188
vn -0.160641 0.376972 0.912188
vn -0.160641 0.376972 0.912188
vn -0.160641 0.376972 0.912188
vn -0.342111 0.342060 0.875188
vn -0.342111 0.342060 0.875188
vn -0.342111 0.342060 0.875188
vn -0.342111 0.342060 0.875188
vn -0.478926 0.606001 0.635132
vn -0.478926 0.606001 0.635132
vn -0.478926 0.606001 0.635132
vn -0.478926 0.606001 0.635132
vn -0.456335 0.607189 0.650446
vn -0.456335 0.607189 0.650446
vn -0.456335 0.607189 0.650446
vn -0.456335 0.607189 0.650446
vn -0.037241 0.914468 0.402941
vn -0.037241 0.914468 0.402941
vn -0.037241 0.914468 0.402941
vn -0.037241 0.914468 0.402941
vn 0.165464 0.129402 0.977690
vn 0.165464 0.129402 0.977690
vn 0.165464 0.129402 0.977690
vn 0.165464 0.129402 0.977690
vn 0.000002 -0.798458 0.602050
vn 0.000002 -0.798458 0.602050
vn 0.000002 -0.798458 0.602050
vn 0.000002 -0.798458 0.602050
vn 0.818311 -0.419257 0.393181
vn 0.818311 -0.419257 0.393181
vn 0.818311 -0.419257 0.393181
vn 0.818311 -0.419257 0.393181
vn -0.308643 -0.929132 0.203601
vn -0.308642 -0.929132 0.203601
vn -0.308643 -0.929132 0.203601
vn -0.308642 -0.929132 0.203601
vn -0.133868 0.583407 -0.801072
vn -0.133868 0.583407 -0.801072
vn -0.133868 0.583407 -0.801072
vn -0.133868 0.583407 -0.801072
vn -0.022903 0.496646 -0.867651
vn -0.022903 0.496646 -0.867651
vn -0.022903 0.496646 -0.867651
vn -0.022903 0.496646 -0.867651
vn 0.152276 -0.877970 0.453851
vn 0.152276 -0.877970 0.453851
vn 0.152276 -0.877970 0.453851
vn 0.152276 -0.877970 0.453851
vn -0.909895 -0.283078 -0.303246
vn -0.909895 -0.283078 -0.303246
vn -0.909895 -0.283078 -0.303246
vn -0.909895 -0.283078 -0.303246
vn -0.680138 -0.213464 -0.701317
vn -0.680138 -0.213464 -0.701317
vn -0.680138 -0.213464 -0.701317
vn -0.656424 -0.698862 -0.284075
vn -0.656424 -0.698862 -0.284075
vn -0.656424 -0.698862 -0.284075
vn -0.990555 0.062936 0.121821
vn -0.990555 0.062936 0.121821
vn -0.990555 0.062936 0.121821
vn -0.990555 0.062936 0.121821
vn -0.193697 0.929317 -0.314406
vn -0.193697 0.929317 -0.314406
vn -0.193697 0.929317 -0.314406
vn -0.193697 0.929317 -0.314406
vn -0.349475 -0.864752 0.360654
vn -0.349475 -0.864752 0.360654
vn -0.349475 -0.864752 0.360654
vn -0.349475 -0.864752 0.360654
vn -0.175333 0.945089 -0.275801
vn -0.175333 0.945088 -0.275801
vn -0.175333 0.945089 -0.275801
vn -0.175333 0.945088 -0.275801
vn -0.990127 0.004412 0.140103
vn -0.990127 0.004412 0.140103
vn -0.990127 0.004412 0.140103
vn -0.990127 0.004412 0.140103
vn -0.212090 -0.950881 0.225483
vn -0.212091 -0.950881 0.225483
vn -0.212090 -0.950881 0.225483
vn -0.212091 -0.950881 0.225483
vn 0.122374 0.716199 0.687084
vn 0.000000 0.721622 0.692287
vn 0.000000 0.721622 0.692287
vn 0.122374 0.716199 0.687084
vn -0.406927 0.567876 0.715491
vn -0.406927 0.567876 0.715491
vn -0.406927 0.567876 0.715491
vn -0.406927 0.567876 0.715491
vn -0.013799 0.592653 0.805340
vn -0.013799 0.592653 0.805340
vn -0.013799 0.592653 0.805340
vn -0.013799 0.592653 0.805340
vn -0.171609 0.545621 0.820273
vn -0.171609 0.545621 0.820273
vn -0.171609 0.545621 0.820273
vn -0.995798 -0.066468 -0.063002
vn -0.995798 -0.066468 -0.063002
vn -0.995798 -0.066468 -0.063002
vn -0.995798 -0.066468 -0.063002
vn -0.198840 -0.157851 -0.967236
vn -0.198840 -0.157851 -0.967236
vn -0.198840 -0.157851 -0.967236
vn -0.198840 -0.157851 -0.967236
vn -0.022351 -0.975809 0.217480
vn -0.022351 -0.975809 0.217480
vn -0.022351 -0.975809 0.217480
vn -0.022351 -0.975809 0.217480
vn -0.000077 0.969471 -0.245204
vn -0.000077 0.969471 -0.245205
vn -0.000077 0.969471 -0.245205
vn -0.000077 0.969471 -0.245204
vn -0.096861 -0.944135 0.315005
vn -0.096861 -0.944135 0.315005
vn -0.096861 -0.944135 0.315005
vn -0.096861 -0.944135 0.315005
vn -0.066367 0.953293 -0.294666
vn -0.066367 0.953293 -0.294667
vn -0.066367 0.953293 -0.294666
vn -0.066367 0.953293 -0.294666
s off
f 7/1/1 8/2/2 14/3/3 18/4/4
f 6/5/5 7/1/6 18/4/7
f 4/6/8 3/7/9 16/8/10 9/9/11
f 9/9/12 16/8/13 17/10/14 15/11/15
f 10/12/16 19/13/17 20/14/18 12/15/19
f 13/16/20 22/17/21 21/18/22 11/19/23
f 12/15/24 20/14/25 22/17/26 13/16/27
f 11/19/28 21/18/29 18/4/30 14/3/31
f 15/11/32 17/10/33 19/13/34 10/12/35
f 3/7/36 2/20/37 23/21/38 16/8/39
f 16/8/40 23/21/41 24/22/42 17/10/43
f 19/13/44 25/23/45 26/24/46 20/14/47
f 22/17/48 28/25/49 27/26/50 21/18/51
f 20/14/52 26/24/53 28/25/54 22/17/55
f 21/18/56 27/26/57 6/5/58 18/4/59
f 17/10/60 24/22/61 25/23/62 19/13/63
f 2/20/64 1/27/65 29/28/66 23/21/67
f 23/21/68 29/28/69 30/29/70 24/22/71
f 25/23/72 31/30/73 32/31/74 26/24/75
f 28/25/76 34/32/77 33/33/78 27/26/79
f 27/26/80 33/33/81 5/34/82 6/5/83
f 24/22/84 30/29/85 31/30/86 25/23/87
f 26/24/88 35/35/89 36/36/90 28/25/91
f 28/25/92 36/36/93 34/32/94
f 32/31/95 35/35/96 26/24/97
f 35/35/98 43/37/99 42/38/100 36/36/101
f 36/36/102 42/38/103 41/39/104 34/32/105
f 32/31/106 44/40/107 43/37/108 35/35/109
f 42/38/110 38/41/111 39/42/112 41/39/113
f 43/37/114 37/43/115 38/41/116 42/38/117
f 44/40/118 40/44/119 37/43/120 43/37/121
f 9/45/122 14/46/123 8/47/124 4/48/125
f 11/49/126 10/50/127 12/51/128 13/52/129
f 11/49/130 14/46/131 15/53/132 10/50/133
f 15/53/134 14/46/135 9/45/136
f 38/54/137 37/55/138 45/56/139 46/57/140
f 46/58/141 45/59/142 47/60/143 48/61/144
f 47/62/145 45/63/146 49/64/147 50/65/148
f 46/66/149 48/67/150 52/68/151 51/69/152
f 45/70/153 37/71/154 40/72/155 49/73/156
f 38/74/157 46/75/158 51/76/159 39/77/160
f 7/78/161 62/79/162 58/80/163 8/81/164
f 6/82/165 62/79/166 7/78/167
f 4/83/168 53/84/169 60/85/170 3/86/171
f 53/84/172 59/87/173 61/88/174 60/85/175
f 54/89/176 56/90/177 64/91/178 63/92/179
f 57/93/180 55/94/181 65/95/182 66/96/183
f 56/90/184 57/93/185 66/96/186 64/91/187
f 55/94/188 58/80/189 62/79/190 65/95/191
f 59/87/192 54/89/193 63/92/194 61/88/195
f 3/86/196 60/85/197 67/97/198 2/98/199
f 60/85/200 61/88/201 68/99/202 67/97/203
f 63/92/204 64/91/205 70/100/206 69/101/207
f 66/96/208 65/95/209 71/102/210 72/103/211
f 64/91/212 66/96/213 72/103/214 70/100/215
f 65/95/216 62/79/217 6/82/218 71/102/219
f 61/88/220 63/92/221 69/101/222 68/99/223
f 2/98/224 67/97/225 73/104/226 1/105/227
f 67/97/228 68/99/229 74/106/230 73/104/231
f 69/101/232 70/100/233 76/107/234 75/108/235
f 72/103/236 71/102/237 77/109/238 78/110/239
f 71/102/240 6/82/241 5/111/242 77/109/243
f 68/99/244 69/101/245 75/108/246 74/106/247
f 70/100/248 72/103/249 80/112/250 79/113/251
f 72/103/252 78/110/253 80/112/254
f 76/107/255 70/100/256 79/113/257
f 79/113/258 80/112/259 86/114/260 87/115/261
f 80/112/262 78/110/263 85/116/264 86/114/265
f 76/107/266 79/113/267 87/115/268 88/117/269
f 86/114/270 85/116/271 83/118/272 82/119/273
f 87/115/274 86/114/275 82/119/276 81/120/277
f 88/117/278 87/115/279 81/120/280 84/121/281
f 53/122/282 4/123/283 8/124/284 58/125/285
f 55/126/286 57/127/287 56/128/288 54/129/289
f 55/126/290 54/129/291 59/130/292 58/125/293
f 59/130/294 53/122/295 58/125/296
f 82/131/297 90/132/298 89/133/299 81/134/300
f 90/135/301 48/136/302 47/137/303 89/138/304
f 47/139/305 50/140/306 91/141/307 89/142/308
f 90/143/309 92/144/310 52/145/311 48/146/312
f 89/147/313 91/148/314 84/149/315 81/150/316
f 82/151/317 83/152/318 92/153/319 90/154/320
