# This file uses centimeters as units for non-parametric coordinates.

v 0.000251 1.655518 14.173299
v 0.000251 3.682571 14.610472
v 0.000251 2.268738 14.710093
v 6.370703 1.366394 12.204659
v 5.458717 3.978455 12.070183
v 3.438957 0.622711 13.019994
v 5.586056 3.620758 13.953109
v 6.115104 1.256180 14.186440
v 3.024112 4.784378 12.994025
v 3.207581 4.438187 14.313632
v 2.238529 1.572571 14.642331
v 1.781078 1.195999 13.336493
v 3.775164 1.079346 14.567946
v -6.370085 1.529999 12.204659
v -5.458209 3.996277 12.070183
v -3.438450 0.674133 13.020029
v -5.585551 3.630188 13.953109
v -6.114481 1.319000 14.186440
v -3.023611 4.784378 12.994025
v -3.207077 4.438187 14.313632
v -2.238028 1.572571 14.642331
v -1.780576 1.195999 13.336493
v -3.774654 1.089462 14.567946
v 0.000251 4.096191 14.158031
v 5.197102 -1.966751 12.388111
v 6.858917 -0.333969 11.606582
v 6.818540 -0.060623 13.361346
v 5.707575 -1.257919 13.716466
v -5.198741 -1.894043 12.388145
v -6.820733 -0.004944 13.361346
v -6.877027 -0.199005 11.606582
v -5.707044 -1.236069 13.716466
v 7.911431 -1.193298 13.470361
v 8.164336 -1.749161 11.932365
v -8.174707 -1.641327 11.907636
v -7.912672 -1.151123 13.445973
vt 0.050198 0.197444
vt 0.050198 0.197444
vt 0.050198 0.197444
vt 0.050198 0.197444
vt 0.050198 0.197444
vt 0.050198 0.197444
vt 0.050198 0.197444
vt 0.050198 0.197444
vt 0.050198 0.197444
vt 0.050198 0.197444
vt 0.050198 0.197444
vt 0.050198 0.197444
vt 0.050198 0.197444
vt 0.050198 0.197444
vt 0.050198 0.197444
vt 0.050198 0.197444
vt 0.050198 0.197444
vt 0.050198 0.197444
vt 0.050198 0.197444
vt 0.050198 0.197444
vt 0.050198 0.197444
vt 0.050198 0.197444
vt 0.050198 0.197444
vt 0.050198 0.197444
vt 0.050198 0.197444
vt 0.050198 0.197444
vt 0.050198 0.197444
vt 0.050198 0.197444
vt 0.050198 0.197444
vt 0.050198 0.197444
vt 0.050198 0.197444
vt 0.050198 0.197444
vt 0.050198 0.197444
vt 0.050198 0.197444
vt 0.050198 0.197444
vt 0.050198 0.197444
vt 0.050198 0.197444
vt 0.050198 0.197444
vt 0.050198 0.197444
vt 0.050198 0.197444
vt 0.050198 0.197444
vt 0.050198 0.197444
vt 0.050198 0.197444
vt 0.050198 0.197444
vt 0.050198 0.197444
vt 0.050198 0.197444
vt 0.050198 0.197444
vt 0.050198 0.197444
vt 0.050198 0.197444
vt 0.050198 0.197444
vt 0.050198 0.197444
vt 0.050198 0.197444
vt 0.050198 0.197444
vt 0.050198 0.197444
vt 0.050198 0.197444
vt 0.050198 0.197444
vt 0.050198 0.197444
vt 0.050198 0.197444
vt 0.050198 0.197444
vt 0.050198 0.197444
vt 0.050198 0.197444
vt 0.050198 0.197444
vt 0.050198 0.197444
vt 0.050198 0.197444
vt 0.050198 0.197444
vt 0.050198 0.197444
vt 0.050198 0.197444
vt 0.050198 0.197444
vt 0.050198 0.197444
vt 0.050198 0.197444
vt 0.050198 0.197444
vt 0.050198 0.197444
vt 0.050198 0.197444
vt 0.050198 0.197444
vt 0.050198 0.197444
vt 0.050198 0.197444
vt 0.050198 0.197444
vt 0.050198 0.197444
vt 0.050198 0.197444
vt 0.050198 0.197444
vt 0.050198 0.197444
vt 0.050198 0.197444
vt 0.050198 0.197444
vt 0.050198 0.197444
vt 0.050198 0.197444
vt 0.050198 0.197444
vt 0.050198 0.197444
vt 0.050198 0.197444
vt 0.050198 0.197444
vt 0.050198 0.197444
vt 0.050198 0.197444
vt 0.050198 0.197444
vt 0.050198 0.197444
vt 0.050198 0.197444
vn 0.354953 0.919721 0.167698
vn 0.354953 0.919721 0.167698
vn 0.354953 0.919721 0.167698
vn 0.354953 0.919721 0.167698
vn 0.076356 0.088101 0.993181
vn 0.076356 0.088101 0.993181
vn 0.076356 0.088101 0.993181
vn -0.116344 0.908416 0.401553
vn -0.116344 0.908416 0.401553
vn -0.116344 0.908416 0.401553
vn -0.116344 0.908416 0.401553
vn 0.065644 0.084647 0.994246
vn 0.065644 0.084647 0.994246
vn 0.065644 0.084647 0.994246
vn 0.065644 0.084647 0.994246
vn -0.135485 -0.858413 0.494743
vn -0.135485 -0.858413 0.494743
vn -0.135485 -0.858413 0.494743
vn -0.135485 -0.858413 0.494743
vn -0.260860 -0.904756 0.336704
vn -0.260860 -0.904756 0.336704
vn -0.260860 -0.904756 0.336704
vn -0.260860 -0.904756 0.336704
vn 0.184257 0.105128 0.977240
vn 0.184257 0.105128 0.977240
vn 0.184257 0.105128 0.977240
vn 0.149948 0.130261 0.980075
vn 0.149948 0.130261 0.980075
vn 0.149948 0.130261 0.980075
vn -0.350886 0.920723 0.170726
vn -0.350886 0.920723 0.170726
vn -0.350886 0.920723 0.170726
vn -0.350886 0.920723 0.170726
vn -0.075834 0.088281 0.993205
vn -0.075834 0.088281 0.993205
vn -0.075834 0.088281 0.993205
vn 0.116345 0.908416 0.401553
vn 0.116345 0.908416 0.401553
vn 0.116345 0.908416 0.401553
vn 0.116345 0.908416 0.401553
vn -0.065644 0.084647 0.994246
vn -0.065644 0.084647 0.994246
vn -0.065644 0.084647 0.994246
vn -0.065644 0.084647 0.994246
vn 0.135485 -0.858413 0.494743
vn 0.135485 -0.858413 0.494743
vn 0.135485 -0.858413 0.494743
vn 0.135485 -0.858413 0.494743
vn 0.247942 -0.913536 0.322456
vn 0.247942 -0.913536 0.322456
vn 0.247941 -0.913536 0.322456
vn 0.247941 -0.913536 0.322456
vn -0.183935 0.105393 0.977272
vn -0.183935 0.105393 0.977272
vn -0.183935 0.105393 0.977272
vn -0.146822 0.132564 0.980240
vn -0.146822 0.132564 0.980240
vn -0.146822 0.132564 0.980240
vn 0.957142 0.282021 0.065910
vn 0.957142 0.282021 0.065910
vn 0.957142 0.282021 0.065910
vn 0.957142 0.282021 0.065910
vn -0.953062 0.293234 0.075416
vn -0.953062 0.293234 0.075416
vn -0.953062 0.293234 0.075416
vn -0.953062 0.293234 0.075416
vn -0.362476 0.076505 -0.928848
vn -0.362475 0.076505 -0.928848
vn -0.362475 0.076505 -0.928848
vn -0.362475 0.076505 -0.928848
vn 0.937693 0.342364 0.059329
vn 0.937693 0.342364 0.059329
vn 0.937693 0.342364 0.059329
vn 0.937693 0.342364 0.059329
vn 0.286888 -0.220761 0.932180
vn 0.286888 -0.220761 0.932180
vn 0.286888 -0.220761 0.932180
vn 0.286888 -0.220761 0.932180
vn -0.649015 -0.619236 0.441958
vn -0.649015 -0.619236 0.441958
vn -0.649015 -0.619236 0.441958
vn -0.649015 -0.619236 0.441958
vn -0.938563 0.335740 0.079866
vn -0.938563 0.335740 0.079866
vn -0.938563 0.335740 0.079866
vn -0.938563 0.335740 0.079866
vn 0.362922 0.074379 -0.928846
vn 0.362922 0.074378 -0.928846
vn 0.362922 0.074379 -0.928846
vn 0.362922 0.074379 -0.928846
vn 0.655778 -0.623753 0.425307
vn 0.655778 -0.623753 0.425307
vn 0.655779 -0.623753 0.425307
vn 0.655778 -0.623753 0.425307
vn -0.290818 -0.217744 0.931672
vn -0.290818 -0.217744 0.931672
vn -0.290818 -0.217744 0.931672
vn -0.290818 -0.217744 0.931672
vn -0.385313 0.024707 -0.922455
vn -0.385313 0.024707 -0.922455
vn -0.385313 0.024707 -0.922455
vn -0.385313 0.024707 -0.922455
vn 0.385313 0.024707 -0.922455
vn 0.385313 0.024707 -0.922455
vn 0.385313 0.024707 -0.922455
vn 0.385313 0.024707 -0.922455
vn 0.366555 -0.042876 -0.929408
vn 0.366555 -0.042876 -0.929408
vn 0.366555 -0.042876 -0.929408
vn 0.195303 -0.025914 -0.980401
vn 0.195303 -0.025914 -0.980401
vn 0.195303 -0.025914 -0.980401
vn 0.228133 -0.136910 -0.963956
vn 0.228133 -0.136910 -0.963956
vn 0.228133 -0.136910 -0.963956
vn -0.196011 -0.025656 -0.980266
vn -0.196011 -0.025656 -0.980266
vn -0.196011 -0.025656 -0.980266
vn -0.234517 -0.131468 -0.963181
vn -0.234517 -0.131468 -0.963181
vn -0.234517 -0.131468 -0.963181
vn -0.366685 -0.042351 -0.929381
vn -0.366685 -0.042351 -0.929381
vn -0.366685 -0.042351 -0.929381
vn 0.733003 0.672229 -0.103998
vn 0.733003 0.672229 -0.103998
vn 0.733003 0.672229 -0.103998
vn 0.733003 0.672229 -0.103998
vn 0.103274 0.193548 0.975640
vn 0.103274 0.193548 0.975640
vn 0.103274 0.193548 0.975640
vn 0.103288 -0.913404 0.393732
vn 0.103288 -0.913404 0.393732
vn 0.103288 -0.913404 0.393732
vn 0.103288 -0.913404 0.393732
vn -0.120050 -0.326560 -0.937522
vn -0.120050 -0.326560 -0.937522
vn -0.120050 -0.326560 -0.937522
vn 0.125843 -0.309929 -0.942395
vn 0.125843 -0.309929 -0.942395
vn 0.125843 -0.309929 -0.942395
vn -0.112659 -0.925700 0.361091
vn -0.112659 -0.925700 0.361091
vn -0.112659 -0.925700 0.361091
vn -0.112659 -0.925700 0.361091
vn -0.112920 0.179729 0.977214
vn -0.112920 0.179729 0.977214
vn -0.112920 0.179729 0.977214
vn -0.738102 0.671241 -0.068126
vn -0.738102 0.671241 -0.068126
vn -0.738102 0.671241 -0.068126
vn -0.738102 0.671241 -0.068126
s off
f 7/1/1 5/2/2 9/3/3 10/4/4
f 13/5/5 10/6/6 11/7/7
f 10/8/8 9/9/9 24/10/10 2/11/11
f 11/12/12 10/13/13 2/14/14 3/15/15
f 12/16/16 11/17/17 3/18/18 1/19/19
f 6/20/20 13/21/21 11/22/22 12/23/23
f 13/24/24 7/25/25 10/26/26
f 8/27/27 7/28/28 13/29/29
f 17/30/30 20/31/31 19/32/32 15/33/33
f 23/34/34 21/35/35 20/36/36
f 20/37/37 2/38/38 24/39/39 19/40/40
f 21/41/41 3/42/42 2/43/43 20/44/44
f 22/45/45 1/46/46 3/47/47 21/48/48
f 16/49/49 22/50/50 21/51/51 23/52/52
f 23/53/53 20/54/54 17/55/55
f 18/56/56 23/57/57 17/58/58
f 7/59/59 8/60/60 4/61/61 5/62/62
f 18/63/63 17/64/64 15/65/65 14/66/66
f 6/67/67 4/68/68 26/69/69 25/70/70
f 4/68/71 8/71/72 27/72/73 26/69/74
f 8/73/75 13/74/76 28/75/77 27/76/78
f 13/74/79 6/77/80 25/78/81 28/75/82
f 18/79/83 14/80/84 31/81/85 30/82/86
f 14/80/87 16/83/88 29/84/89 31/81/90
f 16/85/91 23/86/92 32/87/93 29/88/94
f 23/86/95 18/89/96 30/90/97 32/87/98
f 9/3/99 12/16/100 1/46/101 24/10/102
f 24/10/103 1/46/104 22/50/105 19/40/106
f 19/40/107 16/83/108 15/33/109
f 19/40/110 22/50/111 16/83/112
f 15/33/113 16/83/114 14/66/115
f 9/3/116 6/20/117 12/16/118
f 6/20/119 5/62/120 4/68/121
f 9/3/122 5/62/123 6/20/124
f 26/69/125 27/76/126 33/91/127 34/92/128
f 27/76/129 28/75/130 33/91/131
f 28/75/132 25/70/133 34/92/134 33/91/135
f 25/70/136 26/69/137 34/92/138
f 31/81/139 29/88/140 35/93/141
f 29/88/142 32/87/143 36/94/144 35/93/145
f 32/87/146 30/82/147 36/94/148
f 30/82/149 31/81/150 35/93/151 36/94/152
