# This file uses centimeters as units for non-parametric coordinates.

v 0.000008 10.678726 13.501595
v 0.000008 10.678726 11.568121
v -9.161925 6.889648 12.734992
v -8.608147 11.674088 12.367270
v -8.608147 11.487930 11.000175
v -9.161925 6.703491 11.367896
v -5.440178 11.811234 12.778815
v -5.440178 11.625076 11.203284
v -5.790155 6.119080 13.285644
v -5.790155 5.932861 11.710120
v -9.682365 8.973709 12.398444
v -9.682365 8.787552 11.102019
v -0.525139 9.746536 13.513968
v -0.525139 9.560318 11.640273
v -1.013673 6.286591 11.945998
v -1.013673 6.514725 13.759498
v -1.244133 11.240311 13.342490
v -1.784904 10.636871 13.234267
v -5.413322 11.101349 12.772605
v -1.351555 9.624466 13.373199
v -1.860186 7.298111 13.568198
v -5.761572 6.929993 13.185217
v -8.504513 7.528870 12.739371
v -8.864250 8.896683 12.462775
v -7.990471 10.989777 12.434882
v -10.546135 11.850540 -2.843545
v -12.094963 11.555496 -2.843545
v -10.546135 10.072769 -2.843545
v -12.094963 10.457047 -2.843545
v -10.158440 11.192886 11.559699
v -10.158440 10.094437 11.575286
v -9.682365 9.710159 10.781760
v 0.000008 9.746536 13.513968
v 0.000008 9.560318 11.640273
v -1.244133 11.240311 11.203284
v -0.816887 10.678726 13.422041
v -0.816887 10.678726 11.385703
v -7.904045 10.738678 11.176192
v -8.749992 8.715897 11.256400
v -5.409416 10.846588 11.336143
v -5.757414 6.843628 11.735274
v -8.412528 7.418518 11.465775
v -1.440910 9.324478 11.680266
v -1.928029 7.162872 11.921027
v -1.524406 10.205215 11.479796
v -1.860588 10.543610 11.336143
v 9.161941 6.889648 12.734992
v 8.608162 11.674088 12.367270
v 8.608162 11.487930 11.000175
v 9.161941 6.703491 11.367896
v 5.440193 11.811234 12.778815
v 5.440193 11.625076 11.203284
v 5.790171 6.119080 13.285644
v 5.790171 5.932861 11.710120
v 9.682381 8.973709 12.398444
v 9.682381 8.787552 11.102019
v 0.525154 9.746536 13.513968
v 0.525154 9.560318 11.640273
v 1.013638 6.286591 11.945998
v 1.013638 6.514725 13.759498
v 1.243904 11.240311 13.342490
v 1.784431 10.637299 13.234436
v 5.413338 11.101837 12.772681
v 1.350838 9.624710 13.373396
v 1.859447 7.297653 13.568437
v 5.761588 6.929504 13.185384
v 8.505049 7.528503 12.739448
v 8.864998 8.896744 12.462798
v 7.990974 10.990265 12.434890
v 10.546150 11.850540 -2.843545
v 12.094978 11.555496 -2.843545
v 10.546150 10.072769 -2.843545
v 12.094978 10.457047 -2.843545
v 10.158455 11.192886 11.559699
v 10.158455 10.094437 11.575286
v 9.682381 9.710159 10.781760
v 1.243904 11.240311 11.203284
v 0.816902 10.678726 13.422041
v 0.816902 10.678726 11.385703
v 7.904548 10.739105 11.175956
v 8.750740 8.715958 11.256178
v 5.409431 10.847076 11.335944
v 5.757430 6.843079 11.735145
v 8.413062 7.418091 11.465598
v 1.440437 9.324661 11.680136
v 1.927525 7.162338 11.920943
v 1.523689 10.205521 11.479620
v 1.860115 10.544037 11.335944
vt 0.081248 0.251227
vt 0.081248 0.251227
vt 0.081248 0.251227
vt 0.081248 0.251227
vt 0.081248 0.251227
vt 0.081248 0.251227
vt 0.081248 0.251227
vt 0.081248 0.251227
vt 0.081248 0.251227
vt 0.081248 0.251227
vt 0.081248 0.251227
vt 0.081248 0.251227
vt 0.081248 0.251227
vt 0.081248 0.251227
vt 0.081248 0.251227
vt 0.081248 0.251227
vt 0.081248 0.251227
vt 0.081248 0.251227
vt 0.081248 0.251227
vt 0.081248 0.251227
vt 0.081248 0.251227
vt 0.081248 0.251227
vt 0.081248 0.251227
vt 0.081248 0.251227
vt 0.081248 0.251227
vt 0.081248 0.251227
vt 0.081248 0.251227
vt 0.081248 0.251227
vt 0.081248 0.251227
vt 0.081248 0.251227
vt 0.081248 0.251227
vt 0.081248 0.251227
vt 0.081248 0.251227
vt 0.081248 0.251227
vt 0.081248 0.251227
vt 0.081248 0.251227
vt 0.081248 0.251227
vt 0.081248 0.251227
vt 0.081248 0.251227
vt 0.081248 0.251227
vt 0.081248 0.251227
vt 0.081248 0.251227
vt 0.081248 0.251227
vt 0.081248 0.251227
vt 0.081248 0.251227
vt 0.081248 0.251227
vt 0.081248 0.251227
vt 0.081248 0.251227
vt 0.081248 0.251227
vt 0.081248 0.251227
vt 0.081248 0.251227
vt 0.081248 0.251227
vt 0.081248 0.251227
vt 0.081248 0.251227
vt 0.081248 0.251227
vt 0.081248 0.251227
vt 0.081248 0.251227
vt 0.081248 0.251227
vt 0.081248 0.251227
vt 0.081248 0.251227
vt 0.081248 0.251227
vt 0.081248 0.251227
vt 0.081248 0.251227
vt 0.081248 0.251227
vt 0.081248 0.251227
vt 0.081248 0.251227
vt 0.081248 0.251227
vt 0.081248 0.251227
vt 0.081248 0.251227
vt 0.081248 0.251227
vt 0.081248 0.251227
vt 0.081248 0.251227
vt 0.081248 0.251227
vt 0.081248 0.251227
vt 0.081248 0.251227
vt 0.081248 0.251227
vt 0.081248 0.251227
vt 0.081248 0.251227
vt 0.081248 0.251227
vt 0.081248 0.251227
vt 0.081248 0.251227
vt 0.081248 0.251227
vt 0.081248 0.251227
vt 0.081248 0.251227
vt 0.081248 0.251227
vt 0.081248 0.251227
vt 0.081248 0.251227
vt 0.081248 0.251227
vn -0.236458 -0.963954 0.121984
vn -0.236458 -0.963954 0.121984
vn -0.236458 -0.963954 0.121984
vn -0.236458 -0.963954 0.121984
vn 0.116304 0.991969 -0.049710
vn 0.116304 0.991969 -0.049710
vn 0.116304 0.991969 -0.049710
vn 0.116304 0.991969 -0.049710
vn -0.030757 0.991621 -0.125464
vn -0.030757 0.991621 -0.125464
vn -0.030757 0.991621 -0.125464
vn -0.030757 0.991621 -0.125464
vn 0.988978 -0.147134 0.016534
vn 0.988978 -0.147134 0.016534
vn 0.988978 -0.147134 0.016534
vn 0.988978 -0.147134 0.016534
vn -0.970788 -0.237629 0.033216
vn -0.970788 -0.237629 0.033216
vn -0.970788 -0.237629 0.033216
vn -0.970788 -0.237629 0.033216
vn 0.000000 -0.995098 0.098898
vn 0.000000 -0.995098 0.098898
vn 0.000000 -0.995098 0.098898
vn 0.000000 -0.995098 0.098898
vn 0.068685 -0.990264 0.121073
vn 0.068685 -0.990265 0.121073
vn 0.068685 -0.990265 0.121073
vn 0.068685 -0.990264 0.121073
vn -0.134248 -0.033761 0.990372
vn -0.134248 -0.033761 0.990372
vn -0.134248 -0.033761 0.990372
vn -0.134248 -0.033761 0.990372
vn -0.195297 0.031612 0.980235
vn -0.195297 0.031612 0.980235
vn -0.195297 0.031612 0.980235
vn -0.195297 0.031612 0.980235
vn -0.153368 0.105389 0.982533
vn -0.153368 0.105389 0.982533
vn -0.153368 0.105389 0.982533
vn -0.153368 0.105389 0.982533
vn -0.108369 0.124865 0.986238
vn -0.108369 0.124865 0.986238
vn -0.108369 0.124865 0.986238
vn -0.108369 0.124865 0.986238
vn -0.131675 0.127402 0.983072
vn -0.131675 0.127402 0.983072
vn -0.131675 0.127402 0.983072
vn -0.131675 0.127402 0.983072
vn -0.102419 0.148595 0.983580
vn -0.102419 0.148595 0.983580
vn -0.102419 0.148595 0.983580
vn -0.102419 0.148595 0.983580
vn -0.069997 0.040728 0.996715
vn -0.069997 0.040728 0.996715
vn -0.069997 0.040728 0.996715
vn -0.069997 0.040728 0.996715
vn -0.128634 -0.015798 0.991566
vn -0.128634 -0.015798 0.991566
vn -0.128634 -0.015798 0.991566
vn -0.128634 -0.015798 0.991566
vn 0.133610 -0.126152 -0.982972
vn 0.133610 -0.126152 -0.982972
vn 0.133610 -0.126152 -0.982972
vn 0.133610 -0.126152 -0.982972
vn 0.000000 0.013273 0.999912
vn 0.000000 0.013273 0.999912
vn 0.000000 0.013273 0.999912
vn -0.230862 0.964090 -0.131279
vn -0.230862 0.964090 -0.131279
vn -0.230862 0.964090 -0.131279
vn 0.000000 0.000000 -1.000000
vn 0.000000 0.000000 -1.000000
vn 0.000000 0.000000 -1.000000
vn 0.000000 0.000000 -1.000000
vn -0.932220 -0.358218 0.051437
vn -0.932220 -0.358218 0.051437
vn -0.932220 -0.358218 0.051437
vn -0.991088 0.000945 0.133204
vn -0.991088 0.000945 0.133204
vn -0.991088 0.000945 0.133204
vn -0.991088 0.000945 0.133204
vn 0.953764 -0.281723 -0.104719
vn 0.953764 -0.281723 -0.104719
vn 0.953764 -0.281723 -0.104719
vn 0.953764 -0.281723 -0.104719
vn -0.583260 0.174697 0.793278
vn -0.583259 0.174697 0.793278
vn -0.583260 0.174697 0.793278
vn -0.583259 0.174697 0.793278
vn -0.351112 -0.936271 0.010848
vn -0.351112 -0.936271 0.010848
vn -0.351112 -0.936271 0.010848
vn -0.351112 -0.936271 0.010848
vn -0.878553 -0.156633 -0.451233
vn -0.878553 -0.156633 -0.451233
vn -0.878553 -0.156633 -0.451233
vn 0.592122 -0.264261 -0.761286
vn 0.592123 -0.264261 -0.761286
vn 0.592122 -0.264261 -0.761286
vn -0.178153 0.982749 0.049668
vn -0.178153 0.982749 0.049668
vn -0.178153 0.982749 0.049668
vn -0.178153 0.982749 0.049668
vn -0.095439 0.068062 0.993106
vn -0.095440 0.068062 0.993106
vn -0.095439 0.068062 0.993106
vn 0.795860 0.605480 0.000000
vn 0.795860 0.605480 0.000000
vn 0.795860 0.605480 0.000000
vn 0.795860 0.605480 0.000000
vn 0.000000 1.000000 0.000000
vn 0.000000 1.000000 0.000000
vn 0.000000 1.000000 0.000000
vn 0.000000 1.000000 0.000000
vn -0.096708 0.067659 0.993011
vn -0.096708 0.067659 0.993011
vn -0.096708 0.067659 0.993011
vn 0.149192 -0.098577 -0.983882
vn 0.149192 -0.098577 -0.983882
vn 0.149192 -0.098577 -0.983882
vn 0.149192 -0.098577 -0.983882
vn 0.070220 -0.165120 -0.983771
vn 0.070220 -0.165120 -0.983771
vn 0.070220 -0.165120 -0.983771
vn 0.070220 -0.165120 -0.983771
vn 0.106275 0.024098 -0.994045
vn 0.106275 0.024098 -0.994045
vn 0.106275 0.024098 -0.994045
vn 0.106275 0.024098 -0.994045
vn 0.181849 -0.091468 -0.979063
vn 0.181849 -0.091468 -0.979063
vn 0.181849 -0.091468 -0.979063
vn 0.181849 -0.091468 -0.979063
vn -0.040619 -0.092736 -0.994862
vn -0.040619 -0.092736 -0.994862
vn -0.040619 -0.092736 -0.994862
vn -0.040619 -0.092736 -0.994862
vn 0.047100 0.023339 -0.998618
vn 0.047100 0.023339 -0.998617
vn 0.047100 0.023339 -0.998618
vn 0.047100 0.023339 -0.998618
vn 0.015204 -0.219201 -0.975561
vn 0.015204 -0.219201 -0.975561
vn 0.015204 -0.219201 -0.975561
vn 0.015204 -0.219201 -0.975561
vn -0.015220 -0.171394 -0.985085
vn -0.015220 -0.171394 -0.985085
vn -0.015220 -0.171394 -0.985085
vn -0.015220 -0.171394 -0.985085
vn 0.081410 -0.277746 -0.957199
vn 0.081410 -0.277746 -0.957199
vn 0.081410 -0.277746 -0.957199
vn 0.081410 -0.277746 -0.957199
vn 0.914815 -0.378537 0.140797
vn 0.914815 -0.378537 0.140797
vn 0.914815 -0.378537 0.140797
vn 0.914815 -0.378537 0.140797
vn 0.024340 -0.982399 0.185205
vn 0.024340 -0.982399 0.185205
vn 0.024340 -0.982399 0.185205
vn 0.024340 -0.982398 0.185205
vn 0.219969 0.973499 -0.062549
vn 0.219969 0.973499 -0.062549
vn 0.219969 0.973500 -0.062549
vn 0.219969 0.973500 -0.062549
vn 0.964012 0.261207 0.049506
vn 0.964012 0.261207 0.049506
vn 0.964012 0.261207 0.049506
vn 0.964012 0.261207 0.049506
vn -0.975750 0.218189 0.017492
vn -0.975750 0.218189 0.017492
vn -0.975750 0.218189 0.017492
vn -0.975750 0.218189 0.017492
vn -0.083282 0.994105 -0.069417
vn -0.083282 0.994105 -0.069417
vn -0.083282 0.994105 -0.069417
vn -0.083282 0.994105 -0.069417
vn -0.994640 -0.079152 0.066524
vn -0.994640 -0.079152 0.066524
vn -0.994640 -0.079152 0.066524
vn -0.112439 -0.988038 0.105540
vn -0.112439 -0.988038 0.105540
vn -0.112439 -0.988038 0.105540
vn -0.112439 -0.988038 0.105540
vn -0.868256 -0.496069 -0.006867
vn -0.868256 -0.496069 -0.006867
vn -0.868256 -0.496069 -0.006867
vn -0.868256 -0.496069 -0.006867
vn 0.236458 -0.963954 0.121984
vn 0.236458 -0.963954 0.121984
vn 0.236458 -0.963954 0.121984
vn 0.236458 -0.963954 0.121984
vn -0.116297 0.991970 -0.049711
vn -0.116297 0.991970 -0.049711
vn -0.116297 0.991970 -0.049711
vn -0.116297 0.991970 -0.049711
vn 0.030757 0.991621 -0.125464
vn 0.030757 0.991621 -0.125464
vn 0.030757 0.991621 -0.125464
vn 0.030757 0.991621 -0.125464
vn -0.988981 -0.147119 0.016533
vn -0.988981 -0.147119 0.016533
vn -0.988981 -0.147119 0.016533
vn -0.988981 -0.147119 0.016533
vn 0.970788 -0.237629 0.033216
vn 0.970788 -0.237629 0.033216
vn 0.970788 -0.237629 0.033216
vn 0.970788 -0.237629 0.033216
vn 0.000000 -0.995098 0.098898
vn 0.000000 -0.995098 0.098898
vn 0.000000 -0.995098 0.098898
vn 0.000000 -0.995098 0.098898
vn -0.068685 -0.990265 0.121073
vn -0.068685 -0.990264 0.121073
vn -0.068685 -0.990265 0.121073
vn -0.068685 -0.990264 0.121073
vn 0.134232 -0.033632 0.990379
vn 0.134232 -0.033632 0.990379
vn 0.134232 -0.033632 0.990379
vn 0.134232 -0.033632 0.990379
vn 0.195192 0.031671 0.980254
vn 0.195192 0.031671 0.980254
vn 0.195192 0.031671 0.980254
vn 0.195192 0.031671 0.980253
vn 0.153271 0.105364 0.982551
vn 0.153271 0.105364 0.982551
vn 0.153271 0.105364 0.982551
vn 0.153271 0.105364 0.982551
vn 0.108358 0.124745 0.986254
vn 0.108358 0.124745 0.986254
vn 0.108358 0.124745 0.986254
vn 0.108358 0.124745 0.986254
vn 0.131706 0.127280 0.983084
vn 0.131706 0.127280 0.983084
vn 0.131706 0.127280 0.983084
vn 0.131706 0.127280 0.983084
vn 0.102527 0.148557 0.983575
vn 0.102527 0.148557 0.983575
vn 0.102527 0.148557 0.983575
vn 0.102527 0.148557 0.983575
vn 0.070075 0.040762 0.996709
vn 0.070075 0.040762 0.996709
vn 0.070075 0.040762 0.996709
vn 0.070075 0.040762 0.996709
vn 0.128639 -0.015706 0.991567
vn 0.128639 -0.015706 0.991567
vn 0.128639 -0.015706 0.991567
vn 0.128639 -0.015706 0.991567
vn -0.133610 -0.126152 -0.982972
vn -0.133610 -0.126152 -0.982972
vn -0.133610 -0.126152 -0.982972
vn -0.133610 -0.126152 -0.982972
vn 0.000000 0.013273 0.999912
vn 0.000000 0.013273 0.999912
vn 0.000000 0.013273 0.999912
vn 0.230862 0.964090 -0.131279
vn 0.230862 0.964090 -0.131279
vn 0.230862 0.964090 -0.131279
vn 0.000000 0.000000 -1.000000
vn 0.000000 0.000000 -1.000000
vn 0.000000 0.000000 -1.000000
vn 0.000000 0.000000 -1.000000
vn 0.932220 -0.358218 0.051437
vn 0.932220 -0.358218 0.051437
vn 0.932220 -0.358218 0.051437
vn 0.991088 0.000945 0.133204
vn 0.991088 0.000945 0.133204
vn 0.991088 0.000945 0.133204
vn 0.991088 0.000945 0.133204
vn -0.953764 -0.281723 -0.104719
vn -0.953764 -0.281723 -0.104719
vn -0.953764 -0.281723 -0.104719
vn -0.953764 -0.281723 -0.104719
vn 0.583260 0.174697 0.793278
vn 0.583259 0.174697 0.793278
vn 0.583260 0.174697 0.793278
vn 0.583259 0.174697 0.793278
vn 0.351112 -0.936271 0.010848
vn 0.351112 -0.936271 0.010848
vn 0.351112 -0.936271 0.010848
vn 0.351112 -0.936271 0.010848
vn 0.878553 -0.156634 -0.451233
vn 0.878553 -0.156634 -0.451233
vn 0.878553 -0.156634 -0.451233
vn -0.592124 -0.264260 -0.761285
vn -0.592124 -0.264260 -0.761285
vn -0.592124 -0.264260 -0.761285
vn 0.178153 0.982749 0.049668
vn 0.178153 0.982749 0.049668
vn 0.178153 0.982749 0.049668
vn 0.178153 0.982749 0.049668
vn 0.095524 0.068033 0.993100
vn 0.095524 0.068033 0.993100
vn 0.095524 0.068033 0.993100
vn -0.796027 0.605261 0.000000
vn -0.796027 0.605261 0.000000
vn -0.796027 0.605261 0.000000
vn -0.796027 0.605261 0.000000
vn 0.000000 1.000000 0.000000
vn 0.000000 1.000000 0.000000
vn 0.000000 1.000000 0.000000
vn 0.000000 1.000000 0.000000
vn 0.096708 0.067660 0.993011
vn 0.096708 0.067660 0.993010
vn 0.096708 0.067660 0.993010
vn -0.149082 -0.098536 -0.983903
vn -0.149082 -0.098536 -0.983903
vn -0.149082 -0.098536 -0.983903
vn -0.149082 -0.098536 -0.983903
vn -0.070218 -0.164968 -0.983796
vn -0.070218 -0.164968 -0.983796
vn -0.070218 -0.164968 -0.983796
vn -0.070218 -0.164968 -0.983796
vn -0.106246 0.023973 -0.994051
vn -0.106246 0.023973 -0.994051
vn -0.106246 0.023973 -0.994051
vn -0.106246 0.023973 -0.994051
vn -0.181741 -0.091486 -0.979082
vn -0.181741 -0.091486 -0.979082
vn -0.181741 -0.091486 -0.979082
vn -0.181741 -0.091486 -0.979082
vn 0.040511 -0.092752 -0.994865
vn 0.040511 -0.092752 -0.994865
vn 0.040511 -0.092752 -0.994865
vn 0.040511 -0.092752 -0.994865
vn -0.047112 0.023226 -0.998620
vn -0.047112 0.023226 -0.998620
vn -0.047112 0.023227 -0.998620
vn -0.047112 0.023227 -0.998620
vn -0.015329 -0.219188 -0.975562
vn -0.015329 -0.219188 -0.975562
vn -0.015329 -0.219188 -0.975562
vn -0.015329 -0.219188 -0.975562
vn 0.015206 -0.171248 -0.985111
vn 0.015206 -0.171248 -0.985111
vn 0.015206 -0.171248 -0.985111
vn 0.015206 -0.171248 -0.985111
vn -0.081504 -0.277658 -0.957217
vn -0.081504 -0.277658 -0.957217
vn -0.081504 -0.277658 -0.957216
vn -0.081504 -0.277658 -0.957217
vn -0.914805 -0.378567 0.140783
vn -0.914805 -0.378567 0.140783
vn -0.914805 -0.378567 0.140783
vn -0.914805 -0.378567 0.140783
vn -0.024345 -0.982401 0.185192
vn -0.024345 -0.982401 0.185192
vn -0.024345 -0.982401 0.185192
vn -0.024345 -0.982401 0.185192
vn -0.219976 0.973496 -0.062579
vn -0.219976 0.973496 -0.062579
vn -0.219976 0.973496 -0.062579
vn -0.219976 0.973496 -0.062579
vn -0.963998 0.261265 0.049482
vn -0.963998 0.261265 0.049482
vn -0.963998 0.261265 0.049482
vn -0.963998 0.261265 0.049482
vn 0.975762 0.218125 0.017628
vn 0.975762 0.218125 0.017628
vn 0.975762 0.218125 0.017628
vn 0.975762 0.218125 0.017628
vn 0.083271 0.994105 -0.069442
vn 0.083271 0.994105 -0.069442
vn 0.083271 0.994105 -0.069442
vn 0.083271 0.994105 -0.069442
vn 0.994659 -0.078846 0.066604
vn 0.994659 -0.078846 0.066604
vn 0.994659 -0.078846 0.066604
vn 0.112440 -0.988040 0.105518
vn 0.112440 -0.988040 0.105518
vn 0.112440 -0.988040 0.105518
vn 0.112440 -0.988040 0.105518
vn 0.868166 -0.496227 -0.006900
vn 0.868166 -0.496227 -0.006900
vn 0.868166 -0.496227 -0.006900
vn 0.868166 -0.496227 -0.006900
s off
f 6/1/1 10/2/2 9/3/3 3/4/4
f 17/5/5 35/6/6 8/7/7 7/8/8
f 8/7/9 5/9/10 4/10/11 7/8/12
f 13/11/13 16/12/14 15/13/15 14/14/16
f 3/4/17 11/15/18 12/16/19 6/1/20
f 14/14/21 34/17/22 33/18/23 13/11/24
f 16/12/25 9/3/26 10/2/27 15/13/28
f 7/8/29 19/19/30 18/20/31 17/5/32
f 17/5/33 18/20/34 20/21/35 13/11/36
f 13/11/37 20/21/38 21/22/39 16/12/40
f 16/12/41 21/22/42 22/23/43 9/3/44
f 9/3/45 22/23/46 23/24/47 3/4/48
f 3/4/49 23/24/50 24/25/51 11/15/52
f 11/15/53 24/25/54 25/26/55 4/10/56
f 4/10/57 25/26/58 19/19/59 7/8/60
f 14/14/61 37/27/62 2/28/63 34/17/64
f 1/29/65 13/11/66 33/18/67
f 5/9/68 30/30/69 4/10/70
f 26/31/71 28/32/72 29/33/73 27/34/74
f 12/16/75 11/15/76 31/35/77
f 30/30/78 27/34/79 29/33/80 31/35/81
f 28/32/82 26/31/83 5/9/84 32/36/85
f 11/15/86 4/10/87 30/30/88 31/35/89
f 28/32/90 32/36/91 31/35/92 29/33/93
f 32/36/94 12/16/95 31/35/96
f 5/9/97 12/16/98 32/36/99
f 5/9/100 26/31/101 27/34/102 30/30/103
f 13/11/104 36/37/105 17/5/106
f 36/37/107 37/27/108 35/6/109 17/5/110
f 2/28/111 37/27/112 36/37/113 1/29/114
f 1/29/115 36/37/116 13/11/117
f 12/16/118 5/9/119 38/38/120 39/39/121
f 5/9/122 8/7/123 40/40/124 38/38/125
f 10/2/126 6/1/127 42/41/128 41/42/129
f 6/1/130 12/16/131 39/39/132 42/41/133
f 14/14/134 15/13/135 44/43/136 43/44/137
f 15/13/138 10/2/139 41/42/140 44/43/141
f 37/27/142 14/14/143 43/44/144 45/45/145
f 8/7/146 35/6/147 46/46/148 40/40/149
f 35/6/150 37/27/151 45/45/152 46/46/153
f 39/39/154 38/38/155 25/26/156 24/25/157
f 38/38/158 40/40/159 19/19/160 25/26/161
f 41/42/162 42/41/163 23/24/164 22/23/165
f 42/41/166 39/39/167 24/25/168 23/24/169
f 43/44/170 44/43/171 21/22/172 20/21/173
f 44/43/174 41/42/175 22/23/176 21/22/177
f 45/45/178 43/44/179 20/21/180
f 40/40/181 46/46/182 18/20/183 19/19/184
f 46/46/185 45/45/186 20/21/187 18/20/188
f 50/47/189 47/48/190 53/49/191 54/50/192
f 61/51/193 51/52/194 52/53/195 77/54/196
f 52/53/197 51/52/198 48/55/199 49/56/200
f 57/57/201 58/58/202 59/59/203 60/60/204
f 47/48/205 50/47/206 56/61/207 55/62/208
f 58/58/209 57/57/210 33/18/211 34/17/212
f 60/60/213 59/59/214 54/50/215 53/49/216
f 51/52/217 61/51/218 62/63/219 63/64/220
f 61/51/221 57/57/222 64/65/223 62/63/224
f 57/57/225 60/60/226 65/66/227 64/65/228
f 60/60/229 53/49/230 66/67/231 65/66/232
f 53/49/233 47/48/234 67/68/235 66/67/236
f 47/48/237 55/62/238 68/69/239 67/68/240
f 55/62/241 48/55/242 69/70/243 68/69/244
f 48/55/245 51/52/246 63/64/247 69/70/248
f 58/58/249 34/17/250 2/28/251 79/71/252
f 1/29/253 33/18/254 57/57/255
f 49/56/256 48/55/257 74/72/258
f 70/73/259 71/74/260 73/75/261 72/76/262
f 56/61/263 75/77/264 55/62/265
f 74/72/266 75/77/267 73/75/268 71/74/269
f 72/76/270 76/78/271 49/56/272 70/73/273
f 55/62/274 75/77/275 74/72/276 48/55/277
f 72/76/278 73/75/279 75/77/280 76/78/281
f 76/78/282 75/77/283 56/61/284
f 49/56/285 76/78/286 56/61/287
f 49/56/288 74/72/289 71/74/290 70/73/291
f 57/57/292 61/51/293 78/79/294
f 78/79/295 61/51/296 77/54/297 79/71/298
f 2/28/299 1/29/300 78/79/301 79/71/302
f 1/29/303 57/57/304 78/79/305
f 56/61/306 81/80/307 80/81/308 49/56/309
f 49/56/310 80/81/311 82/82/312 52/53/313
f 54/50/314 83/83/315 84/84/316 50/47/317
f 50/47/318 84/84/319 81/80/320 56/61/321
f 58/58/322 85/85/323 86/86/324 59/59/325
f 59/59/326 86/86/327 83/83/328 54/50/329
f 79/71/330 87/87/331 85/85/332 58/58/333
f 52/53/334 82/82/335 88/88/336 77/54/337
f 77/54/338 88/88/339 87/87/340 79/71/341
f 81/80/342 68/69/343 69/70/344 80/81/345
f 80/81/346 69/70/347 63/64/348 82/82/349
f 83/83/350 66/67/351 67/68/352 84/84/353
f 84/84/354 67/68/355 68/69/356 81/80/357
f 85/85/358 64/65/359 65/66/360 86/86/361
f 86/86/362 65/66/363 66/67/364 83/83/365
f 87/87/366 64/65/367 85/85/368
f 82/82/369 63/64/370 62/63/371 88/88/372
f 88/88/373 62/63/374 64/65/375 87/87/376
