# This file uses centimeters as units for non-parametric coordinates.

v -10.214601 11.158478 12.517944
v -10.214601 11.124054 11.063232
v -7.914444 6.626633 12.976074
v -4.319413 11.434830 15.219971
v -4.319413 11.672379 14.322144
v -3.901439 6.262451 14.191895
v -10.482519 8.290207 12.486206
v -10.482519 8.104385 11.135132
v -0.324904 9.152054 15.332764
v -0.300887 9.050385 14.524414
v -1.064945 7.555710 14.413086
v -0.731053 10.904510 15.416748
v -1.159406 10.495468 15.325073
v -4.256512 10.861938 15.183105
v -0.858856 9.079712 15.323486
v -1.959821 6.659851 15.066406
v -4.085960 6.392639 14.797852
v -8.085939 6.743851 13.595947
v -10.149897 7.949112 12.566284
v -9.755577 10.723419 12.594849
v -10.117759 11.591522 6.217896
v -11.474859 11.248032 6.604736
v -10.117759 9.521881 6.217896
v -11.474859 9.969284 6.604736
v -11.261413 10.427307 11.639282
v -11.261413 9.139297 11.700317
v -10.714017 8.728592 10.829590
v -0.707036 11.058289 14.680786
v -10.497752 12.962631 -3.877563
v -12.096085 12.490173 -1.594849
v -12.096085 11.690567 -2.101074
v -10.497752 11.125946 -4.696899
v -10.116146 7.803757 11.814087
v -1.898422 6.485291 14.544800
v -1.076812 7.749451 15.155640
v -0.687859 8.096680 15.079712
v -0.660943 8.041504 14.508179
v 10.214633 11.158478 12.517944
v 10.214633 11.124054 11.063232
v 7.914477 6.626633 12.976074
v 4.319413 11.434830 15.219971
v 4.319413 11.672379 14.322144
v 3.901444 6.262451 14.191895
v 10.482518 8.290207 12.486206
v 10.482518 8.104385 11.135132
v 0.324904 9.152054 15.332764
v 0.300887 9.050385 14.524414
v 1.064971 7.555710 14.413086
v 0.731053 10.904510 15.416748
v 1.159406 10.495468 15.325073
v 4.256512 10.861938 15.183105
v 0.858879 9.079712 15.323486
v 1.959821 6.659851 15.066406
v 4.085993 6.392639 14.797852
v 8.085944 6.743851 13.595947
v 10.149897 7.949112 12.566284
v 9.755577 10.723419 12.594849
v 10.117759 11.591522 6.217896
v 11.474859 11.248032 6.604736
v 10.117759 9.521881 6.217896
v 11.474859 9.969284 6.604736
v 11.261445 10.427307 11.639282
v 11.261445 9.139297 11.700317
v 10.714016 8.728592 10.829590
v 0.707036 11.058289 14.680786
v 10.497752 12.962631 -3.877563
v 12.096085 12.490173 -1.594849
v 12.096085 11.690567 -2.101074
v 10.497752 11.125946 -4.696899
v 10.116146 7.803757 11.814087
v 1.898422 6.485291 14.544800
v 1.076836 7.749451 15.155640
v 0.687859 8.096680 15.079712
v 0.660967 8.041504 14.508179
v -0.179500 9.449265 15.268555
v -0.165896 9.428940 14.632080
v -0.342003 10.551239 14.697510
v -0.353842 10.528641 15.298462
v 0.426947 10.553665 15.305176
v 0.219238 9.446152 15.275757
v 0.203367 9.420059 14.630737
v 0.413134 10.576202 14.697754
v -8.210952 10.859833 13.817871
v -8.293101 11.523468 13.872803
v -8.293101 11.755890 12.719482
v 8.210951 10.859833 13.817871
v 8.293120 11.523468 13.872803
v 8.293120 11.755890 12.719482
vt 0.208270 0.346605
vt 0.208270 0.346605
vt 0.208270 0.346605
vt 0.208270 0.346605
vt 0.208270 0.301043
vt 0.208270 0.301043
vt 0.208270 0.301043
vt 0.208270 0.301043
vt 0.208270 0.301043
vt 0.208270 0.301043
vt 0.208270 0.301043
vt 0.208270 0.301043
vt 0.208270 0.300729
vt 0.208270 0.300725
vt 0.208270 0.300731
vt 0.208270 0.300734
vt 0.208270 0.300855
vt 0.208270 0.300852
vt 0.208270 0.346610
vt 0.208270 0.346610
vt 0.208270 0.346610
vt 0.208270 0.346610
vt 0.208270 0.346610
vt 0.208270 0.346610
vt 0.208270 0.346610
vt 0.208270 0.346610
vt 0.208270 0.300762
vt 0.208270 0.300765
vt 0.208270 0.300742
vt 0.208270 0.300791
vt 0.208270 0.300799
vt 0.208270 0.346605
vt 0.208270 0.300853
vt 0.208270 0.300746
vt 0.077988 0.251269
vt 0.078111 0.251384
vt 0.077926 0.251277
vt 0.078592 0.250775
vt 0.078592 0.250952
vt 0.078740 0.250940
vt 0.078739 0.250860
vt 0.078027 0.251750
vt 0.077971 0.251775
vt 0.078099 0.251568
vt 0.078457 0.251137
vt 0.078443 0.251302
vt 0.078258 0.251328
vt 0.078277 0.251069
vt 0.078050 0.251591
vt 0.208270 0.300778
vt 0.208270 0.300794
vt 0.208270 0.300791
vt 0.208270 0.300765
vt 0.208270 0.300766
vt 0.208270 0.300778
vt 0.208270 0.300794
vt 0.208270 0.300791
vt 0.208270 0.300791
vt 0.208270 0.300777
vt 0.208270 0.300794
vt 0.208270 0.300855
vt 0.208270 0.346605
vt 0.208270 0.301043
vt 0.208270 0.301043
vt 0.208270 0.346610
vt 0.208270 0.300900
vt 0.208270 0.300896
vt 0.208270 0.301043
vt 0.208270 0.300895
vt 0.208270 0.346605
vt 0.208270 0.346605
vt 0.208270 0.346605
vt 0.208270 0.346605
vt 0.208270 0.346605
vt 0.208270 0.346605
vt 0.208270 0.346605
vt 0.208270 0.346605
vt 0.208270 0.301043
vt 0.208270 0.301043
vt 0.208270 0.301043
vt 0.208270 0.301043
vt 0.208270 0.301043
vt 0.208270 0.301043
vt 0.208270 0.301043
vt 0.208270 0.301043
vt 0.208270 0.301043
vt 0.208270 0.301043
vt 0.208270 0.301043
vt 0.208270 0.300729
vt 0.208270 0.300725
vt 0.208270 0.300731
vt 0.208270 0.300734
vt 0.208270 0.346605
vt 0.208270 0.346605
vt 0.208270 0.346605
vt 0.208270 0.346605
vt 0.208270 0.346610
vt 0.208270 0.346610
vt 0.208270 0.346610
vt 0.208270 0.346610
vt 0.208270 0.346610
vt 0.208270 0.346610
vt 0.208270 0.346610
vt 0.208270 0.346610
vt 0.208270 0.346610
vt 0.208270 0.300762
vt 0.208270 0.300765
vt 0.208270 0.300742
vt 0.208270 0.300791
vt 0.208270 0.300799
vt 0.208270 0.300852
vt 0.208270 0.300746
vt 0.208270 0.300853
vt 0.078160 0.250855
vt 0.078208 0.250777
vt 0.078294 0.250914
vt 0.077623 0.251442
vt 0.078020 0.251408
vt 0.077985 0.251559
vt 0.077557 0.251777
vt 0.078189 0.251219
vt 0.078282 0.251050
vt 0.078233 0.251138
vt 0.078249 0.251220
vt 0.078263 0.251068
vt 0.078044 0.251255
vt 0.078188 0.251121
vt 0.078064 0.251011
vt 0.208270 0.300791
vt 0.208270 0.300791
vt 0.208270 0.300791
vt 0.208270 0.300791
vt 0.208270 0.300791
vt 0.208270 0.300791
vt 0.208270 0.300791
vt 0.208270 0.346605
vt 0.208270 0.346605
vt 0.208270 0.300777
vt 0.208270 0.300794
vt 0.208270 0.300855
vt 0.208270 0.300855
vt 0.208270 0.300896
vt 0.208270 0.300900
vt 0.208270 0.300895
vt 0.208270 0.346610
vt 0.208270 0.300744
vt 0.208270 0.300728
vt 0.208270 0.301043
vt 0.208270 0.300731
vt 0.208270 0.346610
vt 0.208270 0.300744
vt 0.208270 0.300728
vt 0.208270 0.301043
vt 0.208270 0.300731
vn -0.135056 -0.978129 0.158189
vn -0.135056 -0.978129 0.158189
vn -0.135056 -0.978129 0.158189
vn -0.135056 -0.978129 0.158189
vn 0.049242 0.016868 -0.998644
vn 0.049242 0.016868 -0.998644
vn 0.049242 0.016868 -0.998644
vn 0.049242 0.016868 -0.998644
vn 0.595508 -0.071208 -0.800188
vn 0.394857 -0.005688 -0.918725
vn 0.352093 0.010512 -0.935906
vn -0.123449 0.974697 0.186347
vn -0.192857 0.970655 0.143646
vn -0.303009 0.950253 0.072141
vn -0.303009 0.950253 0.072141
vn -0.518835 -0.850621 0.085171
vn -0.518835 -0.850621 0.085171
vn -0.518835 -0.850621 0.085171
vn -0.518835 -0.850621 0.085171
vn 0.072408 -0.958739 0.274911
vn 0.072408 -0.958739 0.274911
vn 0.072408 -0.958739 0.274911
vn 0.072408 -0.958739 0.274911
vn -0.358359 -0.063675 0.931410
vn -0.374679 -0.058909 0.925281
vn -0.531651 -0.010009 0.846904
vn -0.531651 -0.010009 0.846904
vn -0.081018 -0.070159 0.994240
vn -0.081018 -0.070159 0.994240
vn -0.081018 -0.070159 0.994240
vn -0.081018 -0.070159 0.994240
vn -0.081018 -0.070159 0.994240
vn -0.081018 -0.070159 0.994240
vn -0.064482 -0.105896 0.992284
vn -0.064482 -0.105896 0.992284
vn -0.064482 -0.105896 0.992284
vn -0.064482 -0.105896 0.992284
vn -0.081862 -0.045151 0.995620
vn -0.081862 -0.045151 0.995620
vn -0.081862 -0.045151 0.995620
vn -0.081862 -0.045151 0.995620
vn -0.184022 0.011094 0.982859
vn -0.184022 0.011094 0.982859
vn -0.184022 0.011094 0.982859
vn -0.184022 0.011094 0.982859
vn -0.552681 -0.256370 0.792981
vn -0.552681 -0.256370 0.792981
vn -0.401090 -0.157203 0.902449
vn -0.403606 -0.158812 0.901044
vn -0.561416 0.827302 -0.019577
vn -0.561416 0.827302 -0.019577
vn -0.561416 0.827302 -0.019577
vn -0.803668 0.267322 -0.531654
vn -0.803668 0.267322 -0.531654
vn -0.803668 0.267322 -0.531654
vn -0.803668 0.267322 -0.531654
vn -0.772738 -0.628806 0.086484
vn -0.772738 -0.628806 0.086484
vn -0.772738 -0.628806 0.086484
vn -0.999106 0.001006 0.042267
vn -0.999106 0.001006 0.042267
vn -0.999106 0.001006 0.042267
vn -0.999106 0.001006 0.042267
vn 0.991822 -0.113943 0.057500
vn 0.991822 -0.113943 0.057500
vn 0.991822 -0.113943 0.057500
vn 0.991822 -0.113943 0.057500
vn -0.671236 0.048482 0.739657
vn -0.671236 0.048482 0.739657
vn -0.671236 0.048482 0.739657
vn -0.671236 0.048482 0.739657
vn -0.492489 -0.855032 -0.162402
vn -0.492489 -0.855032 -0.162402
vn -0.492489 -0.855032 -0.162402
vn -0.492489 -0.855033 -0.162402
vn -0.833385 -0.459449 -0.307206
vn -0.833385 -0.459449 -0.307206
vn -0.833385 -0.459449 -0.307206
vn 0.709483 -0.079621 -0.700211
vn 0.709483 -0.079621 -0.700211
vn 0.709483 -0.079621 -0.700211
vn -0.351381 0.927834 0.125123
vn -0.351381 0.927834 0.125123
vn -0.351381 0.927834 0.125123
vn -0.351381 0.927834 0.125123
vn 0.135121 0.963122 0.232675
vn 0.135121 0.963122 0.232675
vn 0.135121 0.963122 0.232675
vn 0.135121 0.963122 0.232675
vn -0.137262 0.979503 0.147423
vn -0.137262 0.979503 0.147423
vn -0.137262 0.979503 0.147423
vn -0.137262 0.979503 0.147423
vn -0.997379 -0.017122 0.070300
vn -0.997379 -0.017122 0.070300
vn -0.997379 -0.017122 0.070300
vn -0.997379 -0.017122 0.070300
vn -0.435144 -0.891097 -0.128820
vn -0.435144 -0.891098 -0.128820
vn -0.435144 -0.891098 -0.128820
vn -0.435144 -0.891098 -0.128820
vn 0.999356 0.007364 -0.035106
vn 0.999356 0.007364 -0.035106
vn 0.999357 0.007364 -0.035106
vn 0.999356 0.007364 -0.035106
vn -0.011294 -0.026944 0.999573
vn -0.011294 -0.026944 0.999573
vn -0.011294 -0.026944 0.999573
vn -0.011294 -0.026944 0.999573
vn -0.032675 0.998767 0.037361
vn -0.032675 0.998768 0.037361
vn -0.032675 0.998768 0.037361
vn -0.032675 0.998767 0.037361
vn -0.001807 0.058059 -0.998312
vn -0.001807 0.058059 -0.998312
vn -0.001807 0.058059 -0.998312
vn -0.001807 0.058059 -0.998312
vn -0.015881 -0.999218 0.036220
vn -0.015881 -0.999218 0.036220
vn -0.015881 -0.999218 0.036220
vn -0.015881 -0.999218 0.036220
vn -0.727399 -0.679561 0.095330
vn -0.727399 -0.679561 0.095330
vn -0.727399 -0.679561 0.095330
vn -0.727399 -0.679561 0.095330
vn 0.165163 -0.210226 0.963601
vn 0.165163 -0.210226 0.963601
vn 0.165163 -0.210226 0.963601
vn 0.165163 -0.210226 0.963601
vn 0.938249 -0.338157 0.073069
vn 0.938249 -0.338157 0.073069
vn 0.938249 -0.338157 0.073069
vn 0.938249 -0.338157 0.073069
vn 0.765756 -0.604185 0.220404
vn 0.765756 -0.604185 0.220404
vn 0.765756 -0.604185 0.220404
vn 0.765756 -0.604185 0.220404
vn 0.169425 0.036801 -0.984856
vn 0.169425 0.036801 -0.984856
vn 0.169425 0.036801 -0.984856
vn 0.135056 -0.978129 0.158190
vn 0.135056 -0.978129 0.158190
vn 0.135056 -0.978129 0.158190
vn 0.135056 -0.978129 0.158190
vn -0.032725 0.057590 -0.997804
vn -0.032725 0.057590 -0.997804
vn -0.032725 0.057590 -0.997804
vn -0.032725 0.057590 -0.997804
vn -0.595509 -0.071205 -0.800186
vn -0.394856 -0.005688 -0.918725
vn -0.717316 -0.133372 -0.683864
vn -0.717316 -0.133372 -0.683864
vn 0.061665 0.972886 0.222913
vn 0.061665 0.972886 0.222913
vn 0.123448 0.974698 0.186347
vn 0.192856 0.970656 0.143646
vn 0.518842 -0.850616 0.085180
vn 0.518842 -0.850616 0.085180
vn 0.518842 -0.850616 0.085180
vn 0.518842 -0.850616 0.085180
vn -0.072407 -0.958738 0.274915
vn -0.072407 -0.958738 0.274915
vn -0.072407 -0.958738 0.274915
vn -0.072407 -0.958738 0.274915
vn 0.358360 -0.063673 0.931410
vn 0.374680 -0.058908 0.925281
vn 0.309291 -0.077677 0.947790
vn 0.309291 -0.077677 0.947790
vn 0.081017 -0.070159 0.994240
vn 0.081017 -0.070159 0.994240
vn 0.081017 -0.070159 0.994240
vn 0.081017 -0.070159 0.994240
vn 0.081017 -0.070159 0.994240
vn 0.081017 -0.070159 0.994240
vn 0.064483 -0.105896 0.992284
vn 0.064483 -0.105896 0.992284
vn 0.064483 -0.105896 0.992284
vn 0.064483 -0.105896 0.992284
vn 0.081860 -0.045150 0.995621
vn 0.081860 -0.045150 0.995621
vn 0.081860 -0.045150 0.995621
vn 0.081860 -0.045150 0.995621
vn 0.184018 0.011092 0.982860
vn 0.184018 0.011092 0.982860
vn 0.184018 0.011092 0.982860
vn 0.184018 0.011092 0.982860
vn 0.401087 -0.157214 0.902448
vn 0.403606 -0.158826 0.901042
vn 0.322873 -0.107685 0.940296
vn 0.322873 -0.107685 0.940296
vn 0.561416 0.827302 -0.019577
vn 0.561416 0.827302 -0.019577
vn 0.561416 0.827302 -0.019577
vn 0.803668 0.267322 -0.531654
vn 0.803668 0.267322 -0.531654
vn 0.803668 0.267322 -0.531654
vn 0.803668 0.267322 -0.531654
vn 0.772724 -0.628823 0.086486
vn 0.772724 -0.628823 0.086486
vn 0.772724 -0.628823 0.086486
vn 0.999106 0.001005 0.042261
vn 0.999106 0.001005 0.042261
vn 0.999106 0.001005 0.042261
vn 0.999106 0.001005 0.042261
vn -0.991823 -0.113936 0.057504
vn -0.991823 -0.113936 0.057504
vn -0.991823 -0.113936 0.057504
vn -0.991823 -0.113936 0.057504
vn 0.671230 0.048477 0.739663
vn 0.671230 0.048477 0.739663
vn 0.671230 0.048477 0.739663
vn 0.671230 0.048477 0.739663
vn 0.492483 -0.855036 -0.162404
vn 0.492483 -0.855036 -0.162404
vn 0.492483 -0.855036 -0.162404
vn 0.492483 -0.855036 -0.162404
vn 0.833374 -0.459455 -0.307229
vn 0.833374 -0.459455 -0.307229
vn 0.833374 -0.459455 -0.307229
vn -0.709492 -0.079613 -0.700202
vn -0.709492 -0.079613 -0.700202
vn -0.709492 -0.079613 -0.700202
vn 0.351381 0.927834 0.125121
vn 0.351381 0.927834 0.125121
vn 0.351381 0.927834 0.125121
vn 0.351381 0.927834 0.125121
vn -0.135122 0.963122 0.232675
vn -0.135122 0.963122 0.232675
vn -0.135122 0.963122 0.232675
vn -0.135122 0.963122 0.232675
vn 0.137262 0.979503 0.147423
vn 0.137262 0.979503 0.147423
vn 0.137262 0.979503 0.147423
vn 0.137262 0.979503 0.147423
vn 0.997379 -0.017122 0.070300
vn 0.997379 -0.017122 0.070300
vn 0.997379 -0.017122 0.070300
vn 0.997379 -0.017122 0.070300
vn 0.435144 -0.891098 -0.128820
vn 0.435144 -0.891098 -0.128820
vn 0.435144 -0.891098 -0.128820
vn 0.435144 -0.891098 -0.128820
vn -0.999356 0.007364 -0.035106
vn -0.999356 0.007364 -0.035106
vn -0.999357 0.007364 -0.035106
vn -0.999356 0.007364 -0.035106
vn -0.385519 0.046206 0.921542
vn -0.385520 0.046206 0.921542
vn -0.385520 0.046206 0.921542
vn -0.385519 0.046206 0.921542
vn -0.813648 0.573018 0.098120
vn -0.813648 0.573018 0.098120
vn -0.813648 0.573018 0.098120
vn -0.813648 0.573018 0.098120
vn -0.331775 0.130546 -0.934282
vn -0.331775 0.130546 -0.934282
vn -0.331775 0.130546 -0.934282
vn -0.331775 0.130546 -0.934282
vn -0.953809 -0.295847 0.052185
vn -0.953809 -0.295847 0.052185
vn -0.953809 -0.295847 0.052185
vn -0.953809 -0.295847 0.052185
vn 0.727400 -0.679560 0.095330
vn 0.727400 -0.679560 0.095330
vn 0.727400 -0.679560 0.095330
vn 0.727400 -0.679560 0.095330
vn -0.165154 -0.210224 0.963603
vn -0.165154 -0.210224 0.963603
vn -0.165154 -0.210224 0.963603
vn -0.165154 -0.210224 0.963603
vn -0.938247 -0.338165 0.073053
vn -0.938247 -0.338165 0.073053
vn -0.938247 -0.338166 0.073053
vn -0.938247 -0.338165 0.073053
vn -0.765766 -0.604174 0.220400
vn -0.765766 -0.604174 0.220400
vn -0.765766 -0.604174 0.220400
vn -0.765766 -0.604174 0.220400
vn -0.169424 0.036801 -0.984856
vn -0.169424 0.036801 -0.984856
vn -0.169424 0.036801 -0.984856
vn -0.049242 0.016868 -0.998644
vn -0.049242 0.016868 -0.998644
vn -0.049242 0.016868 -0.998644
vn -0.049242 0.016868 -0.998644
vn 0.032726 0.057590 -0.997804
vn 0.032726 0.057590 -0.997804
vn 0.032726 0.057590 -0.997804
vn 0.032726 0.057590 -0.997804
vn 0.714326 -0.683430 0.150538
vn 0.714326 -0.683430 0.150538
vn 0.714326 -0.683430 0.150538
vn 0.714326 -0.683430 0.150538
vn -0.714316 -0.683443 0.150526
vn -0.714316 -0.683443 0.150526
vn -0.714316 -0.683443 0.150526
vn -0.714316 -0.683443 0.150526
vn 0.920876 -0.385733 0.056548
vn 0.920876 -0.385733 0.056548
vn 0.920876 -0.385733 0.056548
vn 0.920876 -0.385733 0.056548
vn 0.268097 0.117623 -0.956185
vn 0.268097 0.117623 -0.956185
vn 0.268097 0.117623 -0.956185
vn 0.268097 0.117623 -0.956184
vn 0.767160 0.632956 0.104079
vn 0.767160 0.632956 0.104079
vn 0.767160 0.632956 0.104079
vn 0.767160 0.632956 0.104079
vn 0.333611 0.030491 0.942217
vn 0.333611 0.030491 0.942217
vn 0.333611 0.030491 0.942218
vn 0.333611 0.030491 0.942218
vn -0.309290 -0.077679 0.947790
vn -0.374679 -0.058909 0.925281
vn -0.358359 -0.063675 0.931410
vn -0.309290 -0.077679 0.947790
vn -0.403606 -0.158812 0.901044
vn -0.401090 -0.157203 0.902449
vn -0.322873 -0.107680 0.940297
vn -0.322873 -0.107680 0.940297
vn -0.061665 0.972886 0.222913
vn -0.192857 0.970655 0.143646
vn -0.123449 0.974697 0.186347
vn -0.061665 0.972886 0.222913
vn 0.358360 -0.063673 0.931410
vn 0.531652 -0.010008 0.846904
vn 0.531652 -0.010008 0.846904
vn 0.374680 -0.058908 0.925281
vn 0.552674 -0.256393 0.792978
vn 0.403606 -0.158826 0.901042
vn 0.401087 -0.157214 0.902448
vn 0.552674 -0.256393 0.792978
vn 0.192856 0.970656 0.143646
vn 0.123448 0.974698 0.186347
vn 0.303008 0.950254 0.072142
vn 0.303007 0.950254 0.072142
vn -0.333442 0.013903 -0.942668
vn -0.394856 -0.005688 -0.918725
vn -0.352092 0.010511 -0.935906
vn -0.333442 0.013903 -0.942668
vn -0.352092 0.010511 -0.935906
vn -0.394856 -0.005688 -0.918725
vn -0.595509 -0.071205 -0.800186
vn 0.595508 -0.071208 -0.800188
vn 0.717318 -0.133379 -0.683861
vn 0.717318 -0.133379 -0.683861
vn 0.394857 -0.005688 -0.918725
vn 0.352093 0.010512 -0.935906
vn 0.394857 -0.005688 -0.918725
vn 0.333444 0.013904 -0.942667
vn 0.333444 0.013904 -0.942667
s off
f 3/1/1 6/4/2 17/3/3 18/2/4
f 28/10/5 11/7/6 34/8/7 5/9/8
f 33/63/9 85/148/10 3/12/11
f 84/147/12 85/149/13 2/16/14 1/15/15
f 18/2/16 19/62/17 33/32/18 3/1/19
f 16/70/20 17/3/21 6/4/22 34/71/23
f 18/22/24 83/145/25 20/19/26 19/21/27
f 14/20/28 17/23/29 16/24/30 35/65/31 15/25/32 13/26/33
f 4/14/34 14/29/35 13/28/36 12/27/37
f 12/27/38 13/28/39 15/31/40 9/30/41
f 7/18/42 19/33/43 20/34/44 1/15/45
f 1/15/46 20/34/47 83/146/48 84/147/49
f 2/35/50 25/36/51 1/37/52
f 29/38/53 32/39/54 31/40/55 30/41/56
f 8/42/57 7/43/58 26/44/59
f 25/36/60 22/45/61 24/46/62 26/44/63
f 23/47/64 21/48/65 2/35/66 27/49/67
f 7/43/68 1/37/69 25/36/70 26/44/71
f 23/47/72 27/49/73 26/44/74 24/46/75
f 27/49/76 8/42/77 26/44/78
f 2/35/79 8/42/80 27/49/81
f 2/35/82 21/48/83 22/45/84 25/36/85
f 5/13/86 4/14/87 12/27/88 28/59/89
f 21/48/90 29/38/91 30/41/92 22/45/93
f 22/45/94 30/41/95 31/40/96 24/46/97
f 24/46/98 31/40/99 32/39/100 23/47/101
f 23/47/102 32/39/103 29/38/104 21/48/105
f 78/54/106 75/57/107 80/52/108 79/53/109
f 77/55/110 78/54/111 79/53/112 82/50/113
f 76/56/114 77/55/115 82/50/116 81/51/117
f 80/52/118 75/57/119 76/56/120 81/51/121
f 8/17/122 33/61/123 19/33/124 7/18/125
f 9/30/126 15/31/127 35/66/128 36/67/129
f 10/60/130 9/30/131 36/67/132 37/69/133
f 11/72/134 35/73/135 16/70/136 34/71/137
f 34/8/138 6/11/139 5/9/140
f 40/74/141 55/75/142 54/76/143 43/77/144
f 47/78/145 65/79/146 48/82/147 74/83/148
f 70/88/149 88/153/150 39/86/151 45/87/152
f 42/89/153 41/90/154 87/152/155 88/154/156
f 55/75/157 40/74/158 70/93/159 56/94/160
f 53/95/161 71/96/162 43/77/163 54/76/164
f 55/100/165 86/150/166 51/98/167 54/101/168
f 52/103/169 72/104/170 53/102/171 54/101/172 51/98/173 50/105/174
f 41/90/175 49/106/176 50/107/177 51/108/178
f 49/106/179 46/109/180 52/110/181 50/107/182
f 44/111/183 38/91/184 57/112/185 56/113/186
f 86/151/187 87/152/188 41/90/189 51/108/190
f 39/114/191 38/115/192 62/116/193
f 66/117/194 67/118/195 68/119/196 69/120/197
f 45/121/198 63/122/199 44/123/200
f 62/116/201 63/122/202 61/124/203 59/125/204
f 60/126/205 64/127/206 39/114/207 58/128/208
f 44/123/209 63/122/210 62/116/211 38/115/212
f 60/126/213 61/124/214 63/122/215 64/127/216
f 64/127/217 63/122/218 45/121/219
f 39/114/220 64/127/221 45/121/222
f 39/114/223 62/116/224 59/125/225 58/128/226
f 42/89/227 65/138/228 49/106/229 41/90/230
f 58/128/231 59/125/232 67/118/233 66/117/234
f 59/125/235 61/124/236 68/119/237 67/118/238
f 61/124/239 60/126/240 69/120/241 68/119/242
f 60/126/243 58/128/244 66/117/245 69/120/246
f 46/109/247 49/106/248 79/53/249 80/52/250
f 49/106/251 65/138/252 82/50/253 79/53/254
f 65/138/255 47/139/256 81/51/257 82/50/258
f 47/139/259 46/109/260 80/52/261 81/51/262
f 45/140/263 44/111/264 56/113/265 70/141/266
f 46/109/267 73/142/268 72/143/269 52/110/270
f 47/139/271 74/144/272 73/142/273 46/109/274
f 48/137/275 71/96/276 53/95/277 72/136/278
f 71/81/279 42/80/280 43/84/281
f 48/82/282 65/79/283 42/80/284 71/81/285
f 10/5/286 37/6/287 11/7/288 28/10/289
f 37/135/290 36/134/291 35/133/292 11/132/293
f 73/131/294 74/130/295 48/129/296 72/58/297
f 10/60/298 76/56/299 75/57/300 9/30/301
f 28/59/302 77/55/303 76/56/304 10/60/305
f 12/27/306 78/54/307 77/55/308 28/59/309
f 9/30/310 75/57/311 78/54/312 12/27/313
f 14/20/314 83/145/315 18/22/316 17/23/317
f 84/147/318 83/146/319 14/29/320 4/14/321
f 5/13/322 85/149/323 84/147/324 4/14/325
f 55/100/326 56/99/327 57/97/328 86/150/329
f 38/91/330 87/152/331 86/151/332 57/112/333
f 88/154/334 87/152/335 38/91/336 39/92/337
f 42/80/338 88/153/339 40/85/340 43/84/341
f 40/85/342 88/153/343 70/88/344
f 33/63/345 8/64/346 2/68/347 85/148/348
f 3/12/349 85/148/350 5/9/351 6/11/352
