# This file uses centimeters as units for non-parametric coordinates.

v 6.649669 -5.474716 20.389282
v 5.884803 -5.230728 21.010864
v 6.017073 -4.259628 21.304932
v 6.962791 -3.991074 21.021362
v 7.177784 -4.586609 20.177979
v 0.966696 -0.456238 11.425659
v 0.201830 -0.212250 12.047241
v 0.395363 0.704758 12.437988
v 1.279819 1.027420 12.057861
v 1.632927 0.309906 11.432251
v 6.578300 -4.743774 20.843750
v 0.895327 0.274719 11.880127
v 3.156939 -2.390381 14.880249
v 2.392073 -2.146393 15.501831
v 2.585605 -1.229385 15.892578
v 3.470061 -0.906723 15.512451
v 3.823170 -1.624237 14.886841
v 6.175763 -5.056229 19.641846
v 5.614915 -4.992401 20.585083
v 5.794656 -4.063217 20.954102
v 6.692903 -3.752731 20.595703
v 6.907903 -4.348282 19.752319
v 3.628067 -2.806427 15.623413
v 4.294299 -2.040283 15.630005
v 3.941190 -1.322769 16.255493
v 3.056733 -1.645432 16.635620
v 2.863201 -2.562439 16.244873
vt 0.080664 0.229910
vt 0.080810 0.229896
vt 0.219703 0.493454
vt 0.219668 0.493526
vt 0.080320 0.229901
vt 0.219671 0.492608
vt 0.080023 0.229911
vt 0.219707 0.492560
vt 0.079810 0.229898
vt 0.219356 0.493540
vt 0.080291 0.229889
vt 0.219352 0.492617
vt 0.131039 0.375393
vt 0.131637 0.375372
vt 0.131638 0.374876
vt 0.131038 0.374894
vt 0.130951 0.375508
vt 0.219211 0.493475
vt 0.219204 0.492574
vt 0.219426 0.493424
vt 0.219424 0.492540
vt 0.132910 0.376468
vt 0.100922 0.378760
vt 0.100914 0.378795
vt 0.100818 0.378802
vt 0.100768 0.378773
vt 0.100832 0.378747
vt 0.080663 0.229600
vt 0.080808 0.229598
vt 0.080024 0.229601
vt 0.079812 0.229598
vt 0.080292 0.229597
vt 0.100924 0.378231
vt 0.100832 0.378221
vt 0.100766 0.378241
vt 0.100817 0.378266
vt 0.100916 0.378259
vt 0.130949 0.374994
vt 0.131524 0.375560
vt 0.131524 0.375038
vt 0.131946 0.375472
vt 0.131949 0.374962
vt 0.132716 0.376521
vt 0.132407 0.376482
vt 0.132078 0.376520
vt 0.131910 0.376467
vt 0.132418 0.376436
vn -0.445164 -0.871503 -0.205696
vn -0.445164 -0.871503 -0.205696
vn -0.445166 -0.871503 -0.205694
vn -0.445166 -0.871503 -0.205694
vn -0.854019 -0.040760 0.518642
vn -0.854019 -0.040760 0.518642
vn -0.854022 -0.040758 0.518638
vn -0.854022 -0.040758 0.518638
vn -0.082594 0.846331 0.526214
vn -0.082594 0.846331 0.526214
vn -0.082597 0.846334 0.526210
vn -0.082597 0.846334 0.526210
vn 0.802947 0.563795 -0.193420
vn 0.802947 0.563795 -0.193420
vn 0.802946 0.563796 -0.193419
vn 0.802946 0.563796 -0.193419
vn 0.578907 -0.497856 -0.645760
vn 0.578907 -0.497856 -0.645760
vn 0.578903 -0.497853 -0.645766
vn 0.578903 -0.497853 -0.645766
vn 0.455896 -0.371740 0.808683
vn 0.627838 -0.365847 0.687005
vn 0.561500 -0.391285 0.729118
vn 0.395099 -0.350763 0.849036
vn 0.455896 -0.371740 0.808683
vn 0.561500 -0.391285 0.729118
vn 0.556246 -0.449127 0.699196
vn 0.395099 -0.350763 0.849036
vn 0.561500 -0.391285 0.729118
vn 0.727527 -0.393103 0.562294
vn 0.556246 -0.449127 0.699196
vn 0.561500 -0.391285 0.729118
vn 0.627838 -0.365847 0.687005
vn 0.727527 -0.393103 0.562294
vn 0.561500 -0.391285 0.729118
vn -0.484072 0.427449 -0.763519
vn -0.484138 0.427461 -0.763471
vn -0.484080 0.427495 -0.763489
vn -0.484138 0.427461 -0.763471
vn -0.484125 0.427524 -0.763444
vn -0.484080 0.427495 -0.763489
vn -0.484125 0.427524 -0.763444
vn -0.484052 0.427542 -0.763480
vn -0.484080 0.427495 -0.763489
vn -0.484052 0.427542 -0.763480
vn -0.484014 0.427498 -0.763529
vn -0.484080 0.427495 -0.763489
vn -0.484014 0.427498 -0.763529
vn -0.484072 0.427449 -0.763519
vn -0.484080 0.427495 -0.763489
vn -0.445146 -0.871510 -0.205708
vn -0.445147 -0.871510 -0.205706
vn -0.445148 -0.871509 -0.205708
vn -0.445148 -0.871509 -0.205708
vn -0.854027 -0.040759 0.518630
vn -0.854027 -0.040759 0.518630
vn -0.854023 -0.040763 0.518637
vn -0.854023 -0.040763 0.518637
vn -0.082592 0.846337 0.526205
vn -0.082592 0.846337 0.526205
vn -0.082593 0.846335 0.526209
vn -0.082593 0.846335 0.526209
vn 0.802952 0.563786 -0.193428
vn 0.802952 0.563785 -0.193428
vn 0.802952 0.563785 -0.193428
vn 0.802952 0.563785 -0.193428
vn 0.578886 -0.497871 -0.645768
vn 0.578887 -0.497871 -0.645767
vn 0.578894 -0.497870 -0.645760
vn 0.578894 -0.497870 -0.645760
vn -0.445148 -0.871512 -0.205693
vn -0.445148 -0.871512 -0.205693
vn -0.445147 -0.871510 -0.205706
vn -0.445146 -0.871510 -0.205708
vn -0.854050 -0.040731 0.518594
vn -0.854050 -0.040731 0.518594
vn -0.854027 -0.040759 0.518630
vn -0.854027 -0.040759 0.518630
vn -0.082567 0.846337 0.526210
vn -0.082567 0.846337 0.526210
vn -0.082592 0.846337 0.526205
vn -0.082592 0.846337 0.526205
vn 0.802948 0.563792 -0.193424
vn 0.802948 0.563792 -0.193424
vn 0.802952 0.563785 -0.193428
vn 0.802952 0.563786 -0.193428
vn 0.578867 -0.497874 -0.645782
vn 0.578867 -0.497874 -0.645782
vn 0.578887 -0.497871 -0.645767
vn 0.578886 -0.497871 -0.645768
vn 0.578894 -0.497870 -0.645760
vn 0.578894 -0.497870 -0.645760
vn 0.578907 -0.497856 -0.645760
vn 0.578907 -0.497856 -0.645760
vn 0.802952 0.563785 -0.193428
vn 0.802952 0.563785 -0.193428
vn 0.802947 0.563795 -0.193420
vn 0.802947 0.563795 -0.193420
vn -0.082593 0.846335 0.526209
vn -0.082593 0.846335 0.526209
vn -0.082594 0.846331 0.526214
vn -0.082594 0.846331 0.526214
vn -0.854023 -0.040763 0.518637
vn -0.854023 -0.040763 0.518637
vn -0.854019 -0.040760 0.518642
vn -0.854019 -0.040760 0.518642
vn -0.445148 -0.871509 -0.205708
vn -0.445148 -0.871509 -0.205708
vn -0.445164 -0.871503 -0.205696
vn -0.445164 -0.871503 -0.205696
s off
f 13/3/1 14/4/2 7/6/3 6/8/4
f 14/4/5 15/10/6 8/12/7 7/6/8
f 15/10/9 16/18/10 9/19/11 8/12/12
f 16/18/13 17/20/14 10/21/15 9/19/16
f 17/20/17 13/3/18 6/8/19 10/21/20
f 2/1/21 1/2/22 11/5/23
f 3/7/24 2/1/25 11/5/26
f 4/9/27 3/7/28 11/5/29
f 5/11/30 4/9/31 11/5/32
f 1/2/33 5/11/34 11/5/35
f 6/22/36 7/43/37 12/44/38
f 7/43/39 8/45/40 12/44/41
f 8/45/42 9/46/43 12/44/44
f 9/46/45 10/47/46 12/44/47
f 10/47/48 6/22/49 12/44/50
f 18/23/51 19/24/52 27/37/53 23/33/54
f 19/24/55 20/25/56 26/36/57 27/37/58
f 20/25/59 21/26/60 25/35/61 26/36/62
f 21/26/63 22/27/64 24/34/65 25/35/66
f 22/27/67 18/23/68 23/33/69 24/34/70
f 1/2/71 2/1/72 19/28/73 18/29/74
f 2/1/75 3/7/76 20/30/77 19/28/78
f 3/7/79 4/9/80 21/31/81 20/30/82
f 4/9/83 5/11/84 22/32/85 21/31/86
f 5/11/87 1/2/88 18/29/89 22/32/90
f 24/13/91 23/14/92 13/15/93 17/16/94
f 25/17/95 24/13/96 17/16/97 16/38/98
f 26/39/99 25/17/100 16/38/101 15/40/102
f 27/41/103 26/39/104 15/40/105 14/42/106
f 23/14/107 27/41/108 14/42/109 13/15/110
