# This file uses centimeters as units for non-parametric coordinates.

v 38.622803 26.113937 99.009277
v 66.842529 22.973434 60.359375
v 25.576416 25.373642 88.964355
v 49.330322 22.468033 50.324707
v 24.446289 5.398651 85.859375
v 44.667236 2.202850 53.202637
v 41.517090 3.886948 99.325195
v 65.873047 0.000000 65.683105
v 35.926025 28.441299 64.914551
v 57.711426 30.355576 79.322754
v -23.069092 8.296463 -45.391602
v 10.946289 8.472656 -64.536621
v -22.239990 20.760727 -45.010254
v 10.044434 24.601486 -62.459961
v -25.466064 22.236008 -61.317383
v 0.421387 25.986053 -71.392090
v -26.869629 13.310104 -62.852051
v 0.069824 11.460739 -74.859375
v 5.441895 21.216888 -43.009766
v 5.836426 4.879471 -43.838867
v 39.152588 4.748428 -75.269043
v 23.587158 6.058121 -96.479980
v 38.075195 22.738724 -75.647461
v 24.108887 22.321548 -95.129395
v 23.040771 20.824478 -68.593262
v 13.814209 21.983551 -83.810547
v 22.458008 7.602753 -67.095215
v 11.773926 7.046738 -83.672852
v 38.351318 21.896378 -91.375977
v 39.142334 5.593613 -92.378418
v -40.176270 6.590256 46.589844
v -56.908691 11.122162 11.527344
v -40.637695 19.061752 47.291504
v -56.065674 27.050247 14.509766
v -57.172119 18.465500 49.348145
v -65.696533 25.885773 23.455078
v -58.150391 9.275452 49.543945
v -68.122314 11.188950 21.789551
v -36.802246 24.646820 20.198242
v -36.424561 8.535004 17.790527
v -23.523682 6.009796 -21.409180
v -44.077881 6.203659 -4.951660
v -23.448730 23.811127 -18.959473
v -42.378662 22.412964 -4.295410
v -15.864746 20.049957 -4.434082
v -30.681641 20.621170 5.458496
v -14.647217 6.781052 -4.917480
v -30.805908 5.523407 6.352051
v -39.189941 23.450058 -18.652832
v -40.594482 7.336853 -20.633301
v 12.161377 6.847092 56.890625
v 38.110596 11.234146 54.317871
v 11.509033 24.807327 55.614258
v 35.312012 27.218002 53.584473
v 13.347412 22.386963 39.155273
v 30.953125 25.703903 38.970215
v 13.489014 9.066925 38.290039
v 33.146240 10.888123 37.599121
v 24.857422 25.959991 63.912598
v 26.691162 9.860092 65.597168
vt 0.046751 0.162145
vt 0.047226 0.162341
vt 0.046999 0.162734
vt 0.046645 0.162555
vt 0.047036 0.161789
vt 0.046954 0.161915
vt 0.046627 0.162563
vt 0.047054 0.162789
vt 0.047352 0.162061
vt 0.047341 0.161893
vt 0.047291 0.162456
vt 0.047352 0.162565
vt 0.046834 0.162789
vt 0.046800 0.162663
vt 0.047126 0.161789
vt 0.046526 0.162468
vt 0.046693 0.161795
vt 0.046513 0.162563
vt 0.046695 0.161824
vt 0.047174 0.161846
vt 0.047285 0.162357
vt 0.047352 0.162497
vt 0.046876 0.162789
vt 0.046846 0.162625
vt 0.047113 0.161847
vt 0.046387 0.162371
vt 0.046543 0.161793
vt 0.046352 0.162494
vt 0.046538 0.161849
vt 0.047180 0.161957
vt 0.047291 0.162456
vt 0.047352 0.162565
vt 0.046834 0.162789
vt 0.046800 0.162663
vt 0.047126 0.161789
vt 0.046526 0.162468
vt 0.046693 0.161795
vt 0.046513 0.162563
vt 0.046695 0.161824
vt 0.047174 0.161846
vt 0.047285 0.162357
vt 0.047352 0.162497
vt 0.046876 0.162789
vt 0.046846 0.162625
vt 0.047113 0.161847
vt 0.046387 0.162371
vt 0.046543 0.161793
vt 0.046352 0.162494
vt 0.046538 0.161849
vt 0.047180 0.161957
vt 0.047285 0.162357
vt 0.047352 0.162497
vt 0.046876 0.162789
vt 0.046846 0.162625
vt 0.047113 0.161847
vt 0.046387 0.162371
vt 0.046543 0.161793
vt 0.046352 0.162494
vt 0.046538 0.161849
vt 0.047180 0.161957
vn 0.124343 0.947766 -0.293733
vn 0.124343 0.947766 -0.293733
vn 0.124343 0.947766 -0.293733
vn 0.124343 0.947766 -0.293733
vn -0.917934 0.111134 -0.380849
vn -0.917934 0.111134 -0.380849
vn -0.917934 0.111134 -0.380849
vn -0.115580 -0.992893 0.028360
vn -0.115580 -0.992893 0.028360
vn -0.115579 -0.992893 0.028360
vn -0.115579 -0.992893 0.028360
vn 0.703187 0.101567 0.703713
vn 0.703187 0.101567 0.703713
vn 0.703187 0.101567 0.703713
vn 0.482641 -0.223500 -0.846821
vn 0.482641 -0.223500 -0.846821
vn 0.482641 -0.223500 -0.846821
vn 0.482641 -0.223500 -0.846821
vn -0.614726 -0.077571 0.784917
vn -0.614726 -0.077571 0.784917
vn -0.614726 -0.077571 0.784917
vn -0.614726 -0.077571 0.784917
vn -0.129916 0.988472 0.077751
vn -0.129916 0.988472 0.077751
vn -0.129916 0.988472 0.077751
vn -0.129916 0.988472 0.077751
vn -0.815917 -0.013818 -0.578004
vn -0.815917 -0.013818 -0.578004
vn -0.815917 -0.013818 -0.578004
vn -0.815917 -0.013818 -0.578004
vn 0.841920 -0.015988 0.539366
vn 0.841920 -0.015988 0.539366
vn 0.841920 -0.015988 0.539366
vn 0.841920 -0.015988 0.539366
vn 0.971116 0.017479 0.237966
vn 0.971116 0.017479 0.237966
vn 0.971116 0.017479 0.237966
vn 0.971116 0.017479 0.237966
vn -0.025306 0.985118 0.170009
vn -0.025306 0.985118 0.170009
vn -0.025306 0.985118 0.170009
vn -0.025306 0.985118 0.170009
vn -0.382946 0.220023 -0.897186
vn -0.382946 0.220023 -0.897186
vn -0.382946 0.220023 -0.897186
vn -0.382946 0.220023 -0.897186
vn -0.101019 -0.976869 -0.188472
vn -0.101019 -0.976869 -0.188472
vn -0.101019 -0.976869 -0.188472
vn -0.101019 -0.976869 -0.188472
vn 0.693595 0.140240 -0.706582
vn 0.693595 0.140240 -0.706582
vn 0.693595 0.140240 -0.706582
vn 0.693595 0.140240 -0.706582
vn -0.972476 0.081968 0.218111
vn -0.972476 0.081968 0.218111
vn -0.972476 0.081968 0.218111
vn -0.972476 0.081968 0.218111
vn -0.064749 -0.040927 0.997062
vn -0.064749 -0.040927 0.997062
vn -0.064749 -0.040927 0.997062
vn -0.064749 -0.040927 0.997062
vn -0.100682 0.988888 0.109381
vn -0.100682 0.988888 0.109381
vn -0.100682 0.988888 0.109381
vn -0.171394 -0.956207 -0.237261
vn -0.171394 -0.956207 -0.237261
vn -0.171394 -0.956207 -0.237261
vn 0.256249 0.071767 -0.963943
vn 0.256249 0.071767 -0.963943
vn 0.256249 0.071767 -0.963943
vn 0.256249 0.071767 -0.963943
vn -0.002497 0.999804 -0.019619
vn -0.002497 0.999804 -0.019619
vn -0.002497 0.999804 -0.019619
vn -0.002497 0.999804 -0.019619
vn -0.841539 0.109125 0.529059
vn -0.841539 0.109125 0.529059
vn -0.841539 0.109125 0.529059
vn -0.841539 0.109125 0.529059
vn -0.058858 -0.998096 -0.018436
vn -0.058858 -0.998096 -0.018436
vn -0.058858 -0.998096 -0.018436
vn -0.058858 -0.998096 -0.018436
vn -0.733348 0.086433 -0.674336
vn -0.733348 0.086433 -0.674336
vn -0.733348 0.086433 -0.674336
vn -0.733348 0.086433 -0.674336
vn 0.433350 0.060925 0.899164
vn 0.433350 0.060925 0.899164
vn 0.433350 0.060925 0.899164
vn 0.433350 0.060925 0.899164
vn 0.998494 0.054254 0.008089
vn 0.998494 0.054254 0.008089
vn 0.998494 0.054254 0.008089
vn 0.998494 0.054254 0.008089
vn -0.070622 0.990468 0.118262
vn -0.070622 0.990468 0.118262
vn -0.070622 0.990468 0.118262
vn -0.115998 -0.987374 0.107876
vn -0.115998 -0.987374 0.107876
vn -0.115998 -0.987374 0.107876
vn 0.302192 0.153875 -0.940746
vn 0.302192 0.153875 -0.940746
vn 0.302192 0.153875 -0.940746
vn 0.302192 0.153875 -0.940746
vn 0.065208 0.976127 0.207181
vn 0.065208 0.976127 0.207181
vn 0.065208 0.976127 0.207181
vn 0.065208 0.976127 0.207181
vn -0.933274 0.112001 0.341256
vn -0.933274 0.112001 0.341256
vn -0.933274 0.112001 0.341256
vn -0.933274 0.112001 0.341256
vn -0.093607 -0.992097 -0.083560
vn -0.093607 -0.992097 -0.083560
vn -0.093607 -0.992097 -0.083560
vn -0.093607 -0.992097 -0.083560
vn -0.671612 0.180735 -0.718521
vn -0.671612 0.180736 -0.718521
vn -0.671612 0.180735 -0.718521
vn -0.671612 0.180736 -0.718521
vn 0.142074 -0.026498 0.989501
vn 0.142074 -0.026498 0.989501
vn 0.142074 -0.026498 0.989501
vn 0.142074 -0.026498 0.989501
vn 0.990554 0.014243 0.136382
vn 0.990554 0.014243 0.136382
vn 0.990554 0.014243 0.136382
vn 0.990554 0.014243 0.136382
vn -0.000384 0.961272 0.275602
vn -0.000384 0.961272 0.275602
vn -0.000384 0.961272 0.275602
vn -0.150029 -0.988579 -0.014252
vn -0.150029 -0.988579 -0.014252
vn -0.150029 -0.988579 -0.014252
vn -0.971911 0.110288 -0.207908
vn -0.971911 0.110287 -0.207908
vn -0.971911 0.110288 -0.207908
vn -0.971911 0.110288 -0.207908
vn 0.013286 0.993632 0.111891
vn 0.013286 0.993632 0.111891
vn 0.013286 0.993632 0.111891
vn 0.013286 0.993632 0.111891
vn 0.563280 0.033646 0.825581
vn 0.563280 0.033646 0.825581
vn 0.563280 0.033646 0.825581
vn 0.563280 0.033646 0.825581
vn -0.048888 -0.997587 -0.049306
vn -0.048888 -0.997587 -0.049306
vn -0.048888 -0.997587 -0.049306
vn -0.048888 -0.997587 -0.049306
vn -0.641590 0.043174 0.765832
vn -0.641590 0.043174 0.765832
vn -0.641590 0.043174 0.765832
vn -0.641590 0.043174 0.765832
vn 0.883779 0.076084 -0.461678
vn 0.883779 0.076084 -0.461678
vn 0.883779 0.076084 -0.461678
vn 0.883779 0.076084 -0.461678
vn -0.028846 0.130710 -0.991001
vn -0.028846 0.130710 -0.991001
vn -0.028846 0.130710 -0.991001
vn -0.028846 0.130710 -0.991001
vn 0.152571 0.973153 0.172326
vn 0.152571 0.973153 0.172326
vn 0.152571 0.973153 0.172326
vn 0.080045 -0.996785 0.003533
vn 0.080045 -0.996785 0.003533
vn 0.080045 -0.996785 0.003533
vn 0.685173 0.152602 0.712215
vn 0.685173 0.152602 0.712215
vn 0.685173 0.152602 0.712216
vn 0.685173 0.152602 0.712215
vn -0.103697 0.993974 -0.035548
vn -0.103697 0.993974 -0.035548
vn -0.103697 0.993973 -0.035548
vn -0.103697 0.993974 -0.035548
vn -0.033959 0.076387 -0.996500
vn -0.033959 0.076387 -0.996500
vn -0.033959 0.076387 -0.996500
vn -0.033959 0.076387 -0.996500
vn 0.166917 -0.985968 0.002281
vn 0.166917 -0.985968 0.002281
vn 0.166917 -0.985968 0.002281
vn 0.166917 -0.985968 0.002281
vn 0.943665 0.158949 -0.290227
vn 0.943665 0.158949 -0.290227
vn 0.943665 0.158949 -0.290227
vn 0.943665 0.158949 -0.290227
vn -0.995613 -0.026450 -0.089756
vn -0.995613 -0.026450 -0.089756
vn -0.995613 -0.026450 -0.089756
vn -0.995613 -0.026450 -0.089756
vn -0.524291 0.035693 0.850791
vn -0.524291 0.035693 0.850791
vn -0.524291 0.035693 0.850791
vn -0.524291 0.035693 0.850791
vn -0.184320 0.969236 -0.163118
vn -0.184320 0.969236 -0.163118
vn -0.184320 0.969236 -0.163118
vn 0.087774 -0.989839 -0.111865
vn 0.087774 -0.989839 -0.111865
vn 0.087774 -0.989839 -0.111865
s off
f 9/1/1 10/2/2 2/3/3 4/4/4
f 3/5/5 9/1/6 5/6/7
f 5/6/8 6/7/9 8/8/10 7/9/11
f 7/9/12 10/2/13 1/10/14
f 2/3/15 8/8/16 6/7/17 4/4/18
f 7/9/19 1/10/20 3/5/21 5/6/22
f 1/10/23 10/2/24 9/1/25 3/5/26
f 5/6/27 9/1/28 4/4/29 6/7/30
f 8/8/31 2/3/32 10/2/33 7/9/34
f 19/11/35 20/12/36 12/13/37 14/14/38
f 13/15/39 19/11/40 14/14/41 16/16/42
f 15/17/43 16/16/44 18/18/45 17/19/46
f 11/20/47 18/18/48 12/13/49 20/12/50
f 12/13/51 18/18/52 16/16/53 14/14/54
f 17/19/55 11/20/56 13/15/57 15/17/58
f 11/20/59 20/12/60 19/11/61 13/15/62
f 13/15/63 16/16/64 15/17/65
f 17/19/66 18/18/67 11/20/68
f 29/21/69 30/22/70 22/23/71 24/24/72
f 23/25/73 29/21/74 24/24/75 26/26/76
f 25/27/77 26/26/78 28/28/79 27/29/80
f 21/30/81 28/28/82 22/23/83 30/22/84
f 22/23/85 28/28/86 26/26/87 24/24/88
f 27/29/89 21/30/90 23/25/91 25/27/92
f 21/30/93 30/22/94 29/21/95 23/25/96
f 23/25/97 26/26/98 25/27/99
f 27/29/100 28/28/101 21/30/102
f 39/31/103 40/32/104 32/33/105 34/34/106
f 33/35/107 39/31/108 34/34/109 36/36/110
f 35/37/111 36/36/112 38/38/113 37/39/114
f 31/40/115 38/38/116 32/33/117 40/32/118
f 32/33/119 38/38/120 36/36/121 34/34/122
f 37/39/123 31/40/124 33/35/125 35/37/126
f 31/40/127 40/32/128 39/31/129 33/35/130
f 33/35/131 36/36/132 35/37/133
f 37/39/134 38/38/135 31/40/136
f 49/41/137 50/42/138 42/43/139 44/44/140
f 43/45/141 49/41/142 44/44/143 46/46/144
f 45/47/145 46/46/146 48/48/147 47/49/148
f 41/50/149 48/48/150 42/43/151 50/42/152
f 42/43/153 48/48/154 46/46/155 44/44/156
f 47/49/157 41/50/158 43/45/159 45/47/160
f 41/50/161 50/42/162 49/41/163 43/45/164
f 43/45/165 46/46/166 45/47/167
f 47/49/168 48/48/169 41/50/170
f 59/51/171 60/52/172 52/53/173 54/54/174
f 53/55/175 59/51/176 54/54/177 56/56/178
f 55/57/179 56/56/180 58/58/181 57/59/182
f 51/60/183 58/58/184 52/53/185 60/52/186
f 52/53/187 58/58/188 56/56/189 54/54/190
f 57/59/191 51/60/192 53/55/193 55/57/194
f 51/60/195 60/52/196 59/51/197 53/55/198
f 53/55/199 56/56/200 55/57/201
f 57/59/202 58/58/203 51/60/204
