# This file uses centimeters as units for non-parametric coordinates.

v 4.354004 11.614197 -42.602539
v 29.859375 12.865723 -49.062988
v 5.004883 29.562912 -43.987305
v 28.317139 29.105331 -49.566895
v 4.151611 26.940918 -60.504883
v 21.717529 28.128159 -63.348633
v 3.061035 13.671417 -61.219238
v 22.446045 13.124420 -64.850098
v 19.473389 29.104156 -37.783691
v 20.199463 12.864258 -36.194336
v 7.776367 22.014511 67.695801
v 23.985352 18.588242 32.301758
v 8.701172 34.414505 66.650391
v 24.520508 34.879837 33.383789
v -3.508057 34.801422 55.306641
v 11.485107 36.150650 31.740723
v -5.568604 25.872452 55.514160
v 9.123535 21.425156 30.163574
v 32.249756 33.319702 51.984863
v 32.040527 16.949661 52.220215
v -29.560791 14.491348 10.283203
v -36.598145 12.628555 35.609375
v -30.441162 32.292053 12.575195
v -36.997314 28.976196 35.468750
v -15.497803 31.149963 19.932617
v -21.762695 30.059570 36.592773
v -13.047363 18.217087 18.579590
v -19.353516 15.213165 37.103516
v -42.843506 29.279861 21.946777
v -42.981689 12.960419 20.841309
v 41.701904 23.767181 -4.916016
v 12.297363 23.014786 -22.102539
v -0.646484 31.852753 22.701172
v -13.283691 28.448639 2.647461
v -0.851563 19.530640 27.121094
v -15.793701 15.512527 3.437500
v 41.175293 7.660828 -3.847168
v 10.211182 0.000000 -22.083496
v 16.087158 37.387817 -5.768066
v 26.586426 37.124191 14.524902
v 25.256104 15.075241 20.150391
vt 0.047285 0.162357
vt 0.047352 0.162497
vt 0.046876 0.162789
vt 0.046846 0.162625
vt 0.047113 0.161847
vt 0.046387 0.162371
vt 0.046543 0.161793
vt 0.046352 0.162494
vt 0.046538 0.161849
vt 0.047180 0.161957
vt 0.047291 0.162456
vt 0.047352 0.162565
vt 0.046834 0.162789
vt 0.046800 0.162663
vt 0.047126 0.161789
vt 0.046526 0.162468
vt 0.046693 0.161795
vt 0.046513 0.162563
vt 0.046695 0.161824
vt 0.047174 0.161846
vt 0.047285 0.162357
vt 0.047352 0.162497
vt 0.046876 0.162789
vt 0.046846 0.162625
vt 0.047113 0.161847
vt 0.046387 0.162371
vt 0.046543 0.161793
vt 0.046352 0.162494
vt 0.046538 0.161849
vt 0.047180 0.161957
vt 0.046359 0.162450
vt 0.046875 0.162289
vt 0.046972 0.162646
vt 0.046901 0.161962
vt 0.046352 0.162531
vt 0.047002 0.162789
vt 0.047352 0.162230
vt 0.047326 0.162150
vt 0.046901 0.161905
vt 0.046413 0.162032
vt 0.046416 0.162040
vn 0.796215 0.094124 0.597648
vn 0.796215 0.094124 0.597648
vn 0.796215 0.094124 0.597648
vn 0.796215 0.094124 0.597648
vn 0.010708 0.999250 -0.037209
vn 0.010708 0.999250 -0.037209
vn 0.010708 0.999250 -0.037209
vn 0.010708 0.999250 -0.037209
vn -0.173381 0.079155 -0.981669
vn -0.173381 0.079155 -0.981669
vn -0.173381 0.079155 -0.981669
vn -0.173381 0.079155 -0.981669
vn 0.047662 -0.998849 -0.005332
vn 0.047662 -0.998849 -0.005332
vn 0.047662 -0.998849 -0.005332
vn 0.047662 -0.998849 -0.005332
vn 0.900083 0.079098 -0.428479
vn 0.900083 0.079098 -0.428479
vn 0.900083 0.079098 -0.428479
vn 0.900083 0.079098 -0.428479
vn -0.996579 0.056880 0.059963
vn -0.996579 0.056880 0.059963
vn -0.996579 0.056880 0.059963
vn -0.996579 0.056880 0.059963
vn -0.384678 0.079156 0.919651
vn -0.384678 0.079156 0.919651
vn -0.384678 0.079156 0.919651
vn -0.384678 0.079156 0.919651
vn -0.091055 0.984249 -0.151536
vn -0.091055 0.984249 -0.151536
vn -0.091055 0.984249 -0.151536
vn -0.047957 -0.993164 -0.106418
vn -0.047957 -0.993164 -0.106418
vn -0.047957 -0.993164 -0.106418
vn 0.924938 -0.011231 -0.379951
vn 0.924938 -0.011231 -0.379951
vn 0.924938 -0.011231 -0.379951
vn 0.924938 -0.011231 -0.379951
vn 0.083419 0.995073 0.053587
vn 0.083419 0.995073 0.053587
vn 0.083419 0.995073 0.053587
vn 0.083419 0.995073 0.053587
vn -0.834699 0.186056 -0.518326
vn -0.834699 0.186056 -0.518326
vn -0.834698 0.186056 -0.518326
vn -0.834699 0.186056 -0.518326
vn -0.196315 -0.980528 0.005015
vn -0.196315 -0.980528 0.005015
vn -0.196315 -0.980528 0.005015
vn -0.196315 -0.980528 0.005015
vn 0.144253 0.071144 -0.986980
vn 0.144253 0.071144 -0.986980
vn 0.144253 0.071144 -0.986980
vn 0.144253 0.071144 -0.986980
vn -0.658743 0.135674 0.740034
vn -0.658743 0.135674 0.740034
vn -0.658743 0.135674 0.740034
vn -0.658743 0.135674 0.740034
vn 0.534730 0.016533 0.844861
vn 0.534730 0.016533 0.844861
vn 0.534730 0.016533 0.844861
vn 0.534730 0.016533 0.844861
vn -0.013498 0.998727 0.048593
vn -0.013498 0.998727 0.048593
vn -0.013498 0.998728 0.048593
vn -0.281883 -0.959436 0.004948
vn -0.281883 -0.959436 0.004948
vn -0.281883 -0.959436 0.004948
vn -0.917891 -0.019040 0.396375
vn -0.917891 -0.019040 0.396375
vn -0.917891 -0.019040 0.396375
vn -0.917891 -0.019040 0.396375
vn -0.113330 0.987387 0.110556
vn -0.113330 0.987387 0.110556
vn -0.113330 0.987387 0.110556
vn -0.113330 0.987387 0.110556
vn 0.925149 0.151286 0.348155
vn 0.925149 0.151286 0.348155
vn 0.925149 0.151286 0.348155
vn 0.925149 0.151286 0.348155
vn 0.121528 -0.991814 -0.039181
vn 0.121528 -0.991814 -0.039181
vn 0.121528 -0.991814 -0.039181
vn 0.121528 -0.991814 -0.039181
vn -0.081850 0.013440 0.996554
vn -0.081850 0.013440 0.996554
vn -0.081850 0.013440 0.996554
vn -0.081850 0.013440 0.996554
vn 0.430282 0.152161 -0.889778
vn 0.430282 0.152161 -0.889778
vn 0.430282 0.152161 -0.889778
vn 0.430282 0.152161 -0.889778
vn -0.616803 0.064694 -0.784455
vn -0.616803 0.064694 -0.784455
vn -0.616803 0.064694 -0.784455
vn -0.616803 0.064694 -0.784455
vn 0.037155 0.996168 0.079170
vn 0.037155 0.996168 0.079170
vn 0.037155 0.996168 0.079170
vn 0.253034 -0.964898 -0.070331
vn 0.253034 -0.964898 -0.070331
vn 0.253034 -0.964898 -0.070331
vn -0.383821 0.735586 -0.558206
vn -0.383821 0.735586 -0.558206
vn -0.383821 0.735586 -0.558206
vn -0.081909 -0.929041 0.360796
vn -0.081909 -0.929041 0.360796
vn -0.081909 -0.929041 0.360796
vn -0.081909 -0.929041 0.360796
vn 0.511232 -0.057989 -0.857484
vn 0.511232 -0.057989 -0.857484
vn 0.511232 -0.057989 -0.857484
vn 0.511232 -0.057989 -0.857484
vn -0.681300 0.070705 -0.728581
vn -0.681300 0.070705 -0.728581
vn -0.681300 0.070705 -0.728581
vn -0.681300 0.070705 -0.728581
vn 0.825277 0.058386 0.561701
vn 0.825277 0.058386 0.561701
vn 0.825277 0.058386 0.561701
vn 0.825277 0.058386 0.561701
vn 0.462999 0.856420 -0.228423
vn 0.462999 0.856420 -0.228423
vn 0.462999 0.856420 -0.228423
vn 0.369447 0.653445 -0.660696
vn 0.369447 0.653445 -0.660695
vn 0.369447 0.653445 -0.660696
vn -0.844343 0.193798 0.499528
vn -0.844343 0.193798 0.499528
vn -0.844343 0.193798 0.499528
vn -0.844343 0.193798 0.499528
vn -0.250710 0.957568 0.142153
vn -0.250710 0.957568 0.142153
vn -0.250710 0.957568 0.142153
vn 0.260076 0.260153 0.929882
vn 0.260076 0.260153 0.929882
vn 0.260076 0.260153 0.929882
vn 0.260076 0.260153 0.929882
vn -0.103820 -0.967713 0.229681
vn -0.103820 -0.967713 0.229681
vn -0.103820 -0.967713 0.229681
vn -0.201259 0.978749 -0.039315
vn -0.201259 0.978749 -0.039315
vn -0.201259 0.978749 -0.039315
s off
f 9/1/1 10/2/2 2/3/3 4/4/4
f 3/5/5 9/1/6 4/4/7 6/6/8
f 5/7/9 6/6/10 8/8/11 7/9/12
f 1/10/13 8/8/14 2/3/15 10/2/16
f 2/3/17 8/8/18 6/6/19 4/4/20
f 7/9/21 1/10/22 3/5/23 5/7/24
f 1/10/25 10/2/26 9/1/27 3/5/28
f 3/5/29 6/6/30 5/7/31
f 7/9/32 8/8/33 1/10/34
f 19/11/35 20/12/36 12/13/37 14/14/38
f 13/15/39 19/11/40 14/14/41 16/16/42
f 15/17/43 16/16/44 18/18/45 17/19/46
f 11/20/47 18/18/48 12/13/49 20/12/50
f 12/13/51 18/18/52 16/16/53 14/14/54
f 17/19/55 11/20/56 13/15/57 15/17/58
f 11/20/59 20/12/60 19/11/61 13/15/62
f 13/15/63 16/16/64 15/17/65
f 17/19/66 18/18/67 11/20/68
f 29/21/69 30/22/70 22/23/71 24/24/72
f 23/25/73 29/21/74 24/24/75 26/26/76
f 25/27/77 26/26/78 28/28/79 27/29/80
f 21/30/81 28/28/82 22/23/83 30/22/84
f 22/23/85 28/28/86 26/26/87 24/24/88
f 27/29/89 21/30/90 23/25/91 25/27/92
f 21/30/93 30/22/94 29/21/95 23/25/96
f 23/25/97 26/26/98 25/27/99
f 27/29/100 28/28/101 21/30/102
f 34/31/103 39/32/104 32/33/105
f 41/34/106 36/35/107 38/36/108 37/37/109
f 37/37/110 38/36/111 32/33/112 31/38/113
f 32/33/114 38/36/115 36/35/116 34/31/117
f 37/37/118 31/38/119 40/39/120 41/34/121
f 31/38/122 39/32/123 40/39/124
f 31/38/125 32/33/126 39/32/127
f 33/40/128 34/31/129 36/35/130 35/41/131
f 40/39/132 39/32/133 34/31/134
f 41/34/135 40/39/136 33/40/137 35/41/138
f 35/41/139 36/35/140 41/34/141
f 40/39/142 34/31/143 33/40/144
