# This file uses centimeters as units for non-parametric coordinates.

v -79.005829 -1.452325 81.622017
v -56.239540 -1.452325 94.069077
v -40.859818 -1.452325 105.839722
v 11.290459 -1.376413 111.083130
v 46.389320 -1.279433 97.117615
v 84.530869 -1.452325 80.710533
v -71.207611 0.901118 73.823746
v -52.922356 1.290422 80.649025
v 11.753677 2.886598 92.806900
v 30.169159 5.448699 70.630035
v 58.057632 1.544914 82.546776
v -15.223080 2.718016 77.063797
v 45.456963 7.016471 52.708603
v 91.334579 3.014266 31.993416
v 109.300430 -0.913652 27.431973
v -79.360374 1.246677 25.654362
v -0.329294 9.626869 39.924721
v 28.095341 7.919761 44.415787
v -102.204544 -1.452325 37.905231
v -40.070625 5.824406 58.555206
v -48.104591 9.303967 17.852510
v -1.202923 11.544110 11.280132
v -39.896629 10.618332 18.637943
v -8.897980 11.218467 3.338747
v 22.762928 9.407454 19.274334
v 51.719208 6.372658 -17.402456
v -74.692993 1.654915 -2.905504
v 92.771317 2.610284 -4.322027
v 100.994583 -1.019587 -42.188072
v -104.340958 -1.452325 -25.041340
v -40.624538 5.835390 -28.682518
v -1.241217 9.838385 -14.353777
v 22.437302 8.808589 -4.183074
v -81.508560 0.901118 -30.325191
v -64.984016 1.364510 -32.982006
v 54.703766 4.928647 -34.886490
v 60.338051 4.166762 -66.592392
v -1.342904 7.124434 -54.569992
v 22.488125 6.341364 -32.263683
v -48.167519 1.924914 -52.234619
v 30.157616 6.311763 -58.718628
v -63.994377 0.968671 -64.364861
v -19.323406 1.855357 -78.211494
v -3.695732 6.548223 -69.400124
v 77.026375 1.759131 -68.674210
v -76.766602 -1.452325 -74.348831
v 6.407302 3.722206 -85.491547
v 39.579384 5.118878 -73.076111
v -38.895695 -1.452325 -98.135803
v -8.560070 -1.452325 -104.092239
v 14.774958 -1.452325 -104.943344
v 45.149002 -1.386246 -102.008133
v 67.090782 -1.452325 -90.325058
v 90.548340 -1.340462 -70.528229
v 107.988602 -1.051752 -3.427841
vt 0.512946 0.145752
vt 0.512946 0.145752
vt 0.512946 0.145752
vt 0.512946 0.145752
vt 0.512946 0.145752
vt 0.512946 0.145752
vt 0.512946 0.145752
vt 0.512946 0.145752
vt 0.512946 0.145752
vt 0.512946 0.145752
vt 0.512946 0.145752
vt 0.512946 0.145752
vt 0.512946 0.145752
vt 0.512946 0.145752
vt 0.512946 0.145752
vt 0.512946 0.145752
vt 0.512946 0.145752
vt 0.512946 0.145752
vt 0.512946 0.145752
vt 0.512946 0.145752
vt 0.512946 0.145752
vt 0.512946 0.145752
vt 0.512946 0.145752
vt 0.512946 0.145752
vt 0.512946 0.145752
vt 0.512946 0.145752
vt 0.512946 0.145752
vt 0.512946 0.145752
vt 0.512946 0.145752
vt 0.512946 0.145752
vt 0.512946 0.145752
vt 0.512946 0.145752
vt 0.512946 0.145752
vt 0.512946 0.145752
vt 0.512946 0.145752
vt 0.512946 0.145752
vt 0.512946 0.145752
vt 0.512946 0.145752
vt 0.512946 0.145752
vt 0.512946 0.145752
vt 0.512946 0.145752
vt 0.512946 0.145752
vt 0.512946 0.145752
vt 0.512946 0.145752
vt 0.512946 0.145752
vt 0.512946 0.145752
vt 0.512946 0.145752
vt 0.512946 0.145752
vt 0.512946 0.145752
vt 0.512946 0.145752
vt 0.512946 0.145752
vt 0.512946 0.145752
vt 0.512946 0.145752
vt 0.512946 0.145752
vt 0.512946 0.145752
vn -0.095127 0.975327 0.199218
vn -0.095127 0.975327 0.199218
vn -0.095127 0.975327 0.199218
vn -0.096427 0.979589 0.176370
vn -0.096427 0.979589 0.176370
vn -0.096427 0.979589 0.176370
vn -0.110772 0.978735 0.172650
vn -0.110772 0.978735 0.172650
vn -0.110772 0.978735 0.172650
vn 0.038820 0.990110 0.134813
vn 0.038820 0.990110 0.134813
vn 0.038820 0.990110 0.134813
vn 0.002520 0.994992 0.099921
vn 0.002520 0.994992 0.099921
vn 0.002520 0.994992 0.099921
vn -0.073516 0.979070 0.189781
vn -0.073516 0.979070 0.189781
vn -0.073516 0.979070 0.189781
vn 0.068956 0.981270 0.179871
vn 0.068957 0.981270 0.179871
vn 0.068957 0.981270 0.179871
vn 0.080610 0.989114 0.123104
vn 0.080610 0.989114 0.123104
vn 0.080610 0.989115 0.123104
vn -0.003011 0.983069 0.183210
vn -0.003011 0.983069 0.183210
vn -0.003011 0.983069 0.183210
vn 0.107431 0.965957 0.235343
vn 0.107431 0.965957 0.235343
vn 0.107431 0.965957 0.235343
vn -0.049000 0.989079 0.139005
vn -0.049000 0.989079 0.139005
vn -0.049000 0.989079 0.139005
vn -0.032221 0.998159 0.051381
vn -0.032221 0.998159 0.051381
vn -0.032221 0.998159 0.051381
vn 0.114560 0.990181 0.080114
vn 0.114560 0.990181 0.080114
vn 0.114560 0.990181 0.080114
vn 0.112912 0.990174 0.082501
vn 0.112912 0.990174 0.082501
vn 0.112912 0.990174 0.082501
vn 0.188947 0.980650 0.051237
vn 0.188947 0.980650 0.051237
vn 0.188947 0.980650 0.051237
vn -0.049177 0.998476 0.025048
vn -0.049177 0.998476 0.025048
vn -0.049177 0.998476 0.025048
vn -0.180281 0.979705 0.087617
vn -0.180281 0.979705 0.087617
vn -0.180281 0.979705 0.087617
vn -0.015540 0.999795 0.012971
vn -0.015540 0.999795 0.012971
vn -0.015540 0.999795 0.012971
vn -0.031612 0.999304 -0.019780
vn -0.031612 0.999304 -0.019780
vn -0.031612 0.999304 -0.019780
vn 0.040076 0.994108 0.100717
vn 0.040076 0.994108 0.100717
vn 0.040076 0.994108 0.100717
vn -0.190468 0.976156 0.104127
vn -0.190468 0.976156 0.104127
vn -0.190468 0.976156 0.104127
vn -0.090078 0.995869 0.011466
vn -0.090078 0.995869 0.011466
vn -0.090078 0.995869 0.011466
vn 0.051795 0.998658 0.000039
vn 0.051795 0.998658 0.000039
vn 0.051795 0.998658 0.000039
vn -0.044941 0.998589 0.028277
vn -0.044941 0.998589 0.028277
vn -0.044941 0.998589 0.028277
vn -0.030843 0.999234 0.024080
vn -0.030843 0.999234 0.024080
vn -0.030843 0.999234 0.024080
vn -0.139560 0.988177 0.063479
vn -0.139560 0.988177 0.063479
vn -0.139560 0.988177 0.063479
vn 0.016672 0.997966 0.061528
vn 0.016672 0.997966 0.061528
vn 0.016672 0.997966 0.061528
vn -0.072509 0.997363 0.003078
vn -0.072509 0.997363 0.003078
vn -0.072509 0.997363 0.003078
vn 0.008179 0.999444 -0.032325
vn 0.008179 0.999444 -0.032325
vn 0.008179 0.999444 -0.032325
vn -0.045346 0.998930 -0.009130
vn -0.045346 0.998930 -0.009130
vn -0.045346 0.998930 -0.009130
vn 0.040622 0.998743 -0.029369
vn 0.040622 0.998743 -0.029369
vn 0.040622 0.998743 -0.029369
vn 0.104498 0.992594 0.061946
vn 0.104498 0.992594 0.061946
vn 0.104498 0.992594 0.061946
vn 0.010207 0.999275 -0.036673
vn 0.010207 0.999275 -0.036673
vn 0.010207 0.999275 -0.036673
vn -0.121044 0.992543 -0.014398
vn -0.121044 0.992543 -0.014398
vn -0.121044 0.992543 -0.014398
vn -0.179197 0.983443 -0.026983
vn -0.179197 0.983443 -0.026983
vn -0.179197 0.983443 -0.026983
vn 0.116823 0.992808 0.026159
vn 0.116823 0.992808 0.026159
vn 0.116823 0.992808 0.026159
vn 0.040235 0.998457 -0.038271
vn 0.040235 0.998457 -0.038271
vn 0.040235 0.998457 -0.038271
vn 0.172277 0.984822 0.021122
vn 0.172277 0.984822 0.021122
vn 0.172277 0.984822 0.021122
vn -0.176379 0.983861 -0.030141
vn -0.176379 0.983861 -0.030141
vn -0.176379 0.983861 -0.030141
vn 0.000663 0.999134 -0.041612
vn 0.000663 0.999134 -0.041612
vn 0.000663 0.999134 -0.041612
vn 0.015100 0.999694 -0.019583
vn 0.015100 0.999694 -0.019583
vn 0.015100 0.999694 -0.019583
vn 0.190622 0.981660 0.002705
vn 0.190622 0.981660 0.002705
vn 0.190622 0.981660 0.002705
vn -0.102694 0.994713 0.000000
vn -0.102694 0.994713 0.000000
vn -0.102694 0.994713 0.000000
vn 0.049600 0.996792 -0.062810
vn 0.049600 0.996792 -0.062810
vn 0.049600 0.996792 -0.062810
vn 0.007040 0.999861 -0.015092
vn 0.007040 0.999861 -0.015092
vn 0.007040 0.999861 -0.015092
vn -0.104203 0.994553 0.002368
vn -0.104203 0.994553 0.002368
vn -0.104203 0.994553 0.002368
vn -0.175226 0.984323 0.020099
vn -0.175226 0.984323 0.020099
vn -0.175226 0.984323 0.020099
vn 0.038003 0.996293 -0.077181
vn 0.038003 0.996293 -0.077181
vn 0.038003 0.996293 -0.077181
vn 0.008121 0.999960 0.003843
vn 0.008121 0.999960 0.003843
vn 0.008121 0.999960 0.003843
vn -0.060200 0.994309 -0.087896
vn -0.060200 0.994309 -0.087896
vn -0.060200 0.994309 -0.087896
vn -0.091750 0.995692 0.013376
vn -0.091750 0.995692 0.013376
vn -0.091750 0.995692 0.013376
vn 0.007603 0.996823 0.079286
vn 0.007603 0.996823 0.079286
vn 0.007603 0.996823 0.079286
vn 0.109776 0.993665 0.024059
vn 0.109776 0.993665 0.024059
vn 0.109776 0.993665 0.024059
vn -0.002457 0.998937 -0.046024
vn -0.002457 0.998937 -0.046024
vn -0.002457 0.998937 -0.046024
vn -0.006931 0.998691 -0.050680
vn -0.006931 0.998691 -0.050680
vn -0.006931 0.998691 -0.050680
vn 0.069071 0.997072 -0.032826
vn 0.069071 0.997072 -0.032826
vn 0.069071 0.997072 -0.032826
vn 0.060607 0.997866 -0.024301
vn 0.060607 0.997866 -0.024301
vn 0.060607 0.997866 -0.024301
vn 0.014934 0.998857 0.045403
vn 0.014934 0.998857 0.045403
vn 0.014934 0.998857 0.045403
vn 0.096440 0.994698 -0.035714
vn 0.096440 0.994698 -0.035714
vn 0.096440 0.994698 -0.035714
vn -0.112929 0.993285 -0.025144
vn -0.112929 0.993285 -0.025144
vn -0.112929 0.993285 -0.025144
vn -0.029918 0.999550 -0.002322
vn -0.029918 0.999550 -0.002322
vn -0.029918 0.999550 -0.002322
vn -0.109196 0.992365 -0.057344
vn -0.109196 0.992365 -0.057344
vn -0.109196 0.992365 -0.057344
vn -0.058917 0.997319 0.043404
vn -0.058917 0.997319 0.043404
vn -0.058917 0.997319 0.043404
vn -0.006106 0.997841 0.065385
vn -0.006106 0.997841 0.065385
vn -0.006106 0.997841 0.065385
vn 0.066556 0.997782 0.000673
vn 0.066556 0.997783 0.000673
vn 0.066556 0.997782 0.000673
vn -0.087216 0.991298 -0.098598
vn -0.087216 0.991298 -0.098598
vn -0.087216 0.991298 -0.098598
vn -0.250094 0.954145 -0.164502
vn -0.250094 0.954145 -0.164502
vn -0.250094 0.954145 -0.164502
vn 0.088296 0.995714 0.027524
vn 0.088296 0.995714 0.027524
vn 0.088296 0.995714 0.027524
vn -0.022046 0.998098 0.057574
vn -0.022046 0.998098 0.057574
vn -0.022046 0.998098 0.057574
vn 0.049916 0.998727 0.007325
vn 0.049916 0.998727 0.007325
vn 0.049916 0.998727 0.007325
vn 0.100306 0.994954 0.002171
vn 0.100306 0.994954 0.002171
vn 0.100306 0.994954 0.002171
vn -0.149947 0.987075 -0.056557
vn -0.149947 0.987075 -0.056557
vn -0.149947 0.987075 -0.056557
vn -0.029373 0.999419 -0.017308
vn -0.029373 0.999419 -0.017308
vn -0.029373 0.999419 -0.017308
vn 0.022206 0.995711 -0.089810
vn 0.022206 0.995711 -0.089810
vn 0.022206 0.995711 -0.089810
vn 0.028903 0.999558 -0.006916
vn 0.028903 0.999558 -0.006916
vn 0.028903 0.999558 -0.006916
vn -0.014325 0.997610 -0.067590
vn -0.014325 0.997610 -0.067590
vn -0.014325 0.997610 -0.067590
vn -0.019033 0.990115 -0.138958
vn -0.019033 0.990115 -0.138958
vn -0.019033 0.990115 -0.138958
vn -0.127985 0.974457 -0.184537
vn -0.127985 0.974457 -0.184537
vn -0.127985 0.974457 -0.184537
vn -0.062822 0.978812 -0.194885
vn -0.062822 0.978812 -0.194885
vn -0.062822 0.978812 -0.194885
vn -0.000143 0.970059 -0.242871
vn -0.000143 0.970059 -0.242871
vn -0.000143 0.970059 -0.242871
vn 0.064712 0.974474 -0.214971
vn 0.064712 0.974474 -0.214971
vn 0.064712 0.974474 -0.214971
vn 0.062577 0.996289 -0.059088
vn 0.062577 0.996289 -0.059088
vn 0.062577 0.996289 -0.059088
vn -0.056842 0.968166 -0.243770
vn -0.056842 0.968166 -0.243770
vn -0.056842 0.968166 -0.243770
vn -0.056622 0.993765 -0.096048
vn -0.056622 0.993765 -0.096048
vn -0.056622 0.993765 -0.096048
vn 0.009443 0.984213 -0.176734
vn 0.009443 0.984213 -0.176734
vn 0.009443 0.984213 -0.176734
vn 0.112872 0.976003 -0.186220
vn 0.112872 0.976003 -0.186220
vn 0.112872 0.976003 -0.186220
vn 0.066401 0.987836 -0.140612
vn 0.066401 0.987836 -0.140612
vn 0.066401 0.987836 -0.140612
vn 0.147937 0.973092 -0.176654
vn 0.147937 0.973092 -0.176654
vn 0.147937 0.973092 -0.176654
vn 0.166408 0.984433 -0.056571
vn 0.166408 0.984433 -0.056571
vn 0.166408 0.984433 -0.056571
vn 0.189930 0.981697 0.014049
vn 0.189930 0.981697 0.014049
vn 0.189930 0.981697 0.014049
s off
f 7/7/1 1/1/2 8/8/3
f 1/1/4 2/2/5 8/8/6
f 2/2/7 3/3/8 8/8/9
f 20/20/10 3/3/11 12/12/12
f 3/3/13 4/4/14 12/12/15
f 12/12/16 4/4/17 9/9/18
f 4/4/19 5/5/20 9/9/21
f 9/9/22 5/5/23 10/10/24
f 10/10/25 5/5/26 11/11/27
f 11/11/28 5/5/29 6/6/30
f 8/8/31 3/3/32 20/20/33
f 12/12/34 9/9/35 10/10/36
f 11/11/37 6/6/38 13/13/39
f 13/13/40 6/6/41 14/14/42
f 14/14/43 6/6/44 15/15/45
f 7/7/46 8/8/47 16/16/48
f 16/16/49 8/8/50 20/20/51
f 17/17/52 12/12/53 18/18/54
f 12/12/55 10/10/56 18/18/57
f 10/10/58 11/11/59 13/13/60
f 1/1/61 7/7/62 19/19/63
f 19/19/64 7/7/65 16/16/66
f 20/20/67 12/12/68 17/17/69
f 18/18/70 10/10/71 13/13/72
f 17/17/73 18/18/74 22/22/75
f 16/16/76 20/20/77 21/21/78
f 21/21/79 20/20/80 23/23/81
f 17/17/82 22/22/83 24/24/84
f 22/22/85 18/18/86 25/25/87
f 18/18/88 13/13/89 25/25/90
f 13/13/91 14/14/92 25/25/93
f 23/23/94 20/20/95 17/17/96
f 25/25/97 14/14/98 26/26/99
f 19/19/100 16/16/101 27/27/102
f 16/16/103 21/21/104 27/27/105
f 23/23/106 17/17/107 24/24/108
f 26/26/109 14/14/110 28/28/111
f 14/14/112 15/15/113 28/28/114
f 27/27/115 21/21/116 23/23/117
f 24/24/118 22/22/119 33/33/120
f 22/22/121 25/25/122 33/33/123
f 28/28/124 55/55/125 29/29/126
f 19/19/127 27/27/128 30/30/129
f 23/23/130 24/24/131 31/31/132
f 24/24/133 33/33/134 32/32/135
f 30/30/136 27/27/137 34/34/138
f 27/27/139 23/23/140 34/34/141
f 31/31/142 24/24/143 32/32/144
f 33/33/145 25/25/146 26/26/147
f 34/34/148 23/23/149 35/35/150
f 35/35/151 23/23/152 31/31/153
f 32/32/154 33/33/155 38/38/156
f 38/38/157 33/33/158 39/39/159
f 39/39/160 33/33/161 36/36/162
f 33/33/163 26/26/164 36/36/165
f 26/26/166 28/28/167 36/36/168
f 36/36/169 28/28/170 37/37/171
f 31/31/172 32/32/173 38/38/174
f 28/28/175 29/29/176 37/37/177
f 30/30/178 34/34/179 42/42/180
f 34/34/181 35/35/182 42/42/183
f 35/35/184 31/31/185 40/40/186
f 31/31/187 38/38/188 44/44/189
f 39/39/190 36/36/191 41/41/192
f 36/36/193 37/37/194 48/48/195
f 40/40/196 31/31/197 43/43/198
f 31/31/199 44/44/200 43/43/201
f 38/38/202 39/39/203 44/44/204
f 39/39/205 41/41/206 44/44/207
f 41/41/208 36/36/209 48/48/210
f 37/37/211 29/29/212 45/45/213
f 30/30/214 42/42/215 46/46/216
f 35/35/217 40/40/218 42/42/219
f 47/47/220 44/44/221 48/48/222
f 44/44/223 41/41/224 48/48/225
f 42/42/226 40/40/227 43/43/228
f 49/49/229 43/43/230 50/50/231
f 43/43/232 44/44/233 50/50/234
f 44/44/235 47/47/236 50/50/237
f 50/50/238 47/47/239 51/51/240
f 47/47/241 48/48/242 51/51/243
f 48/48/244 37/37/245 45/45/246
f 42/42/247 43/43/248 46/46/249
f 46/46/250 43/43/251 49/49/252
f 51/51/253 48/48/254 52/52/255
f 48/48/256 45/45/257 52/52/258
f 52/52/259 45/45/260 53/53/261
f 53/53/262 45/45/263 54/54/264
f 45/45/265 29/29/266 54/54/267
f 28/28/268 15/15/269 55/55/270
