# This file uses centimeters as units for non-parametric coordinates.

v -37.380615 23.225754 13.088867
v -29.720215 20.605530 -12.008789
v -37.558838 5.190750 12.704102
v -30.738770 4.429047 -10.270020
v -20.971191 5.733032 14.433594
v -17.318359 3.807190 -2.935547
v -19.145996 18.860733 15.421875
v -14.461670 18.520187 -3.739746
v -42.909180 6.110870 -2.086426
v -43.011963 22.442352 -3.068848
v 57.257568 19.524628 46.995117
v 43.791260 23.410858 15.873047
v 6.318115 19.346649 44.395996
v 8.265381 21.575211 20.675781
v 5.071289 6.125854 45.827148
v 7.356934 8.759262 17.802734
v 58.157715 3.561935 45.040527
v 44.885498 1.015442 11.105957
v 35.598389 32.829010 33.080078
v 32.241943 26.953018 55.143555
v 30.567383 3.929703 55.346680
v 1.010010 1.416672 -81.687988
v 7.268555 3.833908 -56.190918
v 3.286865 19.250702 -81.808594
v 8.602295 19.886948 -58.437500
v 19.650391 15.402664 -82.329102
v 22.375000 17.506363 -64.804199
v 19.708252 2.054749 -82.826172
v 23.113281 2.489792 -63.397949
v -3.071777 20.161911 -67.421875
v -5.480713 4.134064 -66.004883
v -49.296387 12.626541 62.396973
v -58.867188 20.555038 25.137207
v -47.729736 0.709641 59.628906
v -56.613281 4.480286 24.016113
v -33.853027 5.625290 51.352539
v -43.589355 6.484909 25.158691
v -33.544922 14.637283 53.128906
v -43.715332 21.563873 26.009766
v -67.761719 0.000000 40.423828
v -70.586426 15.775421 42.752441
v 22.330078 6.379684 -22.508789
v 9.176025 6.829651 0.298828
v 25.115234 23.697052 -19.333984
v 12.662109 22.610794 1.131836
v 36.923340 17.329849 -8.812012
v 26.783447 18.325439 5.820801
v 36.505127 4.113602 -10.395996
v 25.423828 3.277023 5.910645
v 10.608887 25.058090 -13.313965
v 6.934570 9.502304 -15.478027
v 69.306396 0.901764 67.692871
v 43.144531 3.440506 65.590332
v 68.901123 18.923111 68.292480
v 45.033936 19.626663 66.107910
v 64.339111 17.179749 84.273926
v 46.845215 19.164902 81.297852
v 64.660889 3.929398 85.672363
v 45.130371 4.292755 82.904785
v 57.168701 18.655151 57.791016
v 56.398438 2.379395 56.508301
vt 0.047285 0.162357
vt 0.047352 0.162497
vt 0.046876 0.162789
vt 0.046846 0.162625
vt 0.047113 0.161847
vt 0.046387 0.162371
vt 0.046543 0.161793
vt 0.046352 0.162494
vt 0.046538 0.161849
vt 0.047180 0.161957
vt 0.046359 0.162450
vt 0.046875 0.162289
vt 0.046972 0.162646
vt 0.046901 0.161962
vt 0.046352 0.162531
vt 0.047002 0.162789
vt 0.047352 0.162230
vt 0.047326 0.162150
vt 0.046901 0.161905
vt 0.046413 0.162032
vt 0.046416 0.162040
vt 0.047285 0.162357
vt 0.047352 0.162497
vt 0.046876 0.162789
vt 0.046846 0.162625
vt 0.047113 0.161847
vt 0.046387 0.162371
vt 0.046543 0.161793
vt 0.046352 0.162494
vt 0.046538 0.161849
vt 0.047180 0.161957
vt 0.047291 0.162456
vt 0.047352 0.162565
vt 0.046834 0.162789
vt 0.046800 0.162663
vt 0.047126 0.161789
vt 0.046526 0.162468
vt 0.046693 0.161795
vt 0.046513 0.162563
vt 0.046695 0.161824
vt 0.047174 0.161846
vt 0.047285 0.162357
vt 0.047352 0.162497
vt 0.046876 0.162789
vt 0.046846 0.162625
vt 0.047113 0.161847
vt 0.046387 0.162371
vt 0.046543 0.161793
vt 0.046352 0.162494
vt 0.046538 0.161849
vt 0.047180 0.161957
vt 0.047285 0.162357
vt 0.047352 0.162497
vt 0.046876 0.162789
vt 0.046846 0.162625
vt 0.047113 0.161847
vt 0.046387 0.162371
vt 0.046543 0.161793
vt 0.046352 0.162494
vt 0.046538 0.161849
vt 0.047180 0.161957
vn -0.562316 -0.053236 -0.825207
vn -0.562316 -0.053236 -0.825207
vn -0.562316 -0.053236 -0.825207
vn -0.562316 -0.053236 -0.825207
vn -0.089442 -0.995971 0.006469
vn -0.089442 -0.995971 0.006469
vn -0.089442 -0.995971 0.006469
vn -0.089442 -0.995971 0.006469
vn 0.959670 -0.162900 0.229125
vn 0.959669 -0.162900 0.229125
vn 0.959669 -0.162900 0.229125
vn 0.959669 -0.162900 0.229125
vn 0.134400 0.988971 -0.062228
vn 0.134400 0.988971 -0.062228
vn 0.134400 0.988971 -0.062228
vn 0.134400 0.988971 -0.062228
vn 0.464316 -0.130369 -0.876022
vn 0.464316 -0.130369 -0.876022
vn 0.464316 -0.130369 -0.876022
vn 0.464316 -0.130369 -0.876022
vn -0.119703 -0.036019 0.992156
vn -0.119703 -0.036019 0.992156
vn -0.119703 -0.036019 0.992156
vn -0.119703 -0.036019 0.992156
vn -0.942387 0.007885 0.334432
vn -0.942387 0.007885 0.334432
vn -0.942387 0.007885 0.334432
vn -0.942387 0.007885 0.334432
vn 0.020538 -0.993217 0.114444
vn 0.020538 -0.993217 0.114444
vn 0.020538 -0.993217 0.114444
vn 0.227977 0.972907 0.038441
vn 0.227977 0.972907 0.038442
vn 0.227977 0.972907 0.038441
vn -0.113851 0.847665 -0.518172
vn -0.113851 0.847665 -0.518172
vn -0.113851 0.847665 -0.518172
vn -0.116433 -0.992812 0.027717
vn -0.116433 -0.992812 0.027717
vn -0.116433 -0.992812 0.027717
vn -0.116433 -0.992812 0.027717
vn 0.919753 0.113654 -0.375682
vn 0.919753 0.113654 -0.375682
vn 0.919753 0.113654 -0.375682
vn 0.919753 0.113654 -0.375682
vn -0.135500 0.209407 -0.968395
vn -0.135500 0.209407 -0.968395
vn -0.135500 0.209407 -0.968395
vn -0.135500 0.209407 -0.968395
vn 0.324176 -0.048882 0.944733
vn 0.324176 -0.048882 0.944733
vn 0.324176 -0.048882 0.944733
vn 0.324176 -0.048882 0.944733
vn 0.358175 0.887221 0.290775
vn 0.358176 0.887221 0.290775
vn 0.358176 0.887221 0.290775
vn 0.587472 0.794258 -0.155016
vn 0.587472 0.794258 -0.155016
vn 0.587472 0.794258 -0.155016
vn -0.993579 0.086299 -0.073170
vn -0.993579 0.086299 -0.073170
vn -0.993579 0.086299 -0.073170
vn -0.993579 0.086299 -0.073170
vn -0.439576 0.882333 0.168113
vn -0.439576 0.882333 0.168113
vn -0.439576 0.882333 0.168113
vn -0.372272 0.071731 0.925348
vn -0.372272 0.071731 0.925348
vn -0.372272 0.071731 0.925348
vn -0.372272 0.071731 0.925348
vn -0.049247 -0.994024 -0.097423
vn -0.049247 -0.994024 -0.097423
vn -0.049247 -0.994024 -0.097423
vn -0.305374 0.950067 0.064191
vn -0.305374 0.950066 0.064191
vn -0.305374 0.950066 0.064191
vn -0.599767 0.159515 0.784114
vn -0.599767 0.159515 0.784114
vn -0.599767 0.159515 0.784114
vn -0.599767 0.159515 0.784114
vn 0.108924 0.992700 -0.051798
vn 0.108924 0.992700 -0.051798
vn 0.108924 0.992700 -0.051798
vn 0.108924 0.992700 -0.051798
vn 0.986024 0.022384 -0.165096
vn 0.986024 0.022384 -0.165095
vn 0.986024 0.022384 -0.165095
vn 0.986024 0.022384 -0.165095
vn -0.067094 -0.991611 0.110478
vn -0.067094 -0.991611 0.110478
vn -0.067094 -0.991611 0.110478
vn -0.067094 -0.991611 0.110478
vn 0.424764 0.097674 0.900020
vn 0.424764 0.097674 0.900020
vn 0.424764 0.097674 0.900020
vn 0.424764 0.097674 0.900020
vn -0.045850 0.015322 -0.998831
vn -0.045850 0.015322 -0.998831
vn -0.045850 0.015322 -0.998831
vn -0.045850 0.015322 -0.998831
vn -0.909464 0.107615 -0.401616
vn -0.909464 0.107615 -0.401616
vn -0.909464 0.107615 -0.401616
vn -0.909464 0.107615 -0.401616
vn 0.221792 0.963466 -0.150137
vn 0.221792 0.963466 -0.150137
vn 0.221792 0.963466 -0.150137
vn 0.035087 -0.999253 0.016226
vn 0.035087 -0.999253 0.016226
vn 0.035087 -0.999252 0.016226
vn -0.819188 -0.068954 -0.569364
vn -0.819188 -0.068954 -0.569364
vn -0.819188 -0.068954 -0.569364
vn -0.819188 -0.068954 -0.569364
vn 0.169603 -0.974711 -0.145509
vn 0.169603 -0.974711 -0.145509
vn 0.169603 -0.974711 -0.145509
vn 0.169603 -0.974711 -0.145509
vn 0.937841 0.030614 -0.345713
vn 0.937841 0.030614 -0.345713
vn 0.937841 0.030614 -0.345713
vn 0.937841 0.030614 -0.345713
vn -0.069402 0.971965 0.224651
vn -0.069402 0.971965 0.224651
vn -0.069402 0.971965 0.224651
vn -0.069402 0.971965 0.224651
vn 0.063945 0.067913 -0.995640
vn 0.063945 0.067913 -0.995640
vn 0.063945 0.067913 -0.995640
vn 0.063945 0.067913 -0.995640
vn 0.529439 -0.149488 0.835074
vn 0.529439 -0.149488 0.835074
vn 0.529439 -0.149488 0.835074
vn 0.529439 -0.149488 0.835074
vn -0.673018 -0.235751 0.701048
vn -0.673018 -0.235751 0.701048
vn -0.673018 -0.235751 0.701048
vn -0.673018 -0.235751 0.701048
vn 0.262002 -0.956437 -0.128775
vn 0.262002 -0.956437 -0.128775
vn 0.262002 -0.956437 -0.128775
vn 0.017989 0.970336 0.241090
vn 0.017989 0.970336 0.241090
vn 0.017989 0.970336 0.241090
vn -0.963866 0.203839 0.171498
vn -0.963866 0.203839 0.171498
vn -0.963866 0.203839 0.171498
vn -0.963866 0.203839 0.171498
vn 0.198314 0.964949 0.171887
vn 0.198314 0.964949 0.171887
vn 0.198314 0.964949 0.171887
vn 0.198314 0.964949 0.171887
vn 0.821721 -0.081502 0.564032
vn 0.821721 -0.081502 0.564032
vn 0.821721 -0.081502 0.564032
vn 0.821721 -0.081502 0.564032
vn -0.209705 -0.972455 -0.101760
vn -0.209705 -0.972455 -0.101760
vn -0.209705 -0.972455 -0.101760
vn -0.209705 -0.972455 -0.101760
vn -0.314927 0.026629 0.948742
vn -0.314927 0.026629 0.948742
vn -0.314927 0.026629 0.948742
vn -0.314927 0.026629 0.948742
vn 0.664871 0.046438 -0.745514
vn 0.664871 0.046438 -0.745514
vn 0.664871 0.046438 -0.745514
vn 0.664871 0.046438 -0.745514
vn -0.362665 0.218399 -0.905967
vn -0.362665 0.218399 -0.905967
vn -0.362665 0.218399 -0.905967
vn -0.362665 0.218399 -0.905967
vn 0.342383 0.923225 0.174442
vn 0.342383 0.923225 0.174442
vn 0.342383 0.923225 0.174442
vn -0.072835 -0.992277 -0.100402
vn -0.072835 -0.992278 -0.100402
vn -0.072835 -0.992277 -0.100402
vn -0.557936 0.091457 -0.824829
vn -0.557936 0.091457 -0.824829
vn -0.557936 0.091457 -0.824829
vn -0.557936 0.091457 -0.824829
vn 0.030232 0.999508 -0.008398
vn 0.030232 0.999508 -0.008398
vn 0.030232 0.999508 -0.008398
vn 0.030232 0.999508 -0.008398
vn -0.145372 0.112250 0.982989
vn -0.145372 0.112250 0.982989
vn -0.145372 0.112250 0.982989
vn -0.145372 0.112250 0.982989
vn -0.098921 -0.994647 0.029870
vn -0.098921 -0.994647 0.029870
vn -0.098921 -0.994647 0.029870
vn -0.098921 -0.994647 0.029870
vn -0.986415 0.118463 0.113808
vn -0.986415 0.118463 0.113808
vn -0.986415 0.118463 0.113808
vn -0.986415 0.118463 0.113808
vn 0.965025 0.029092 0.260538
vn 0.965025 0.029092 0.260538
vn 0.965025 0.029092 0.260538
vn 0.965025 0.029092 0.260538
vn 0.661229 0.034093 -0.749409
vn 0.661229 0.034093 -0.749409
vn 0.661229 0.034093 -0.749409
vn 0.661229 0.034093 -0.749409
vn 0.089351 0.987056 0.133181
vn 0.089351 0.987056 0.133181
vn 0.089351 0.987056 0.133181
vn -0.040433 -0.986968 0.155752
vn -0.040433 -0.986968 0.155752
vn -0.040433 -0.986968 0.155752
s off
f 9/1/1 10/2/2 2/3/3 4/4/4
f 3/5/5 9/1/6 4/4/7 6/6/8
f 5/7/9 6/6/10 8/8/11 7/9/12
f 1/10/13 8/8/14 2/3/15 10/2/16
f 2/3/17 8/8/18 6/6/19 4/4/20
f 7/9/21 1/10/22 3/5/23 5/7/24
f 1/10/25 10/2/26 9/1/27 3/5/28
f 3/5/29 6/6/30 5/7/31
f 7/9/32 8/8/33 1/10/34
f 14/11/35 19/12/36 12/13/37
f 21/14/38 16/15/39 18/16/40 17/17/41
f 17/17/42 18/16/43 12/13/44 11/18/45
f 12/13/46 18/16/47 16/15/48 14/11/49
f 17/17/50 11/18/51 20/19/52 21/14/53
f 11/18/54 19/12/55 20/19/56
f 11/18/57 12/13/58 19/12/59
f 13/20/60 14/11/61 16/15/62 15/21/63
f 20/19/64 19/12/65 14/11/66
f 21/14/67 20/19/68 13/20/69 15/21/70
f 15/21/71 16/15/72 21/14/73
f 20/19/74 14/11/75 13/20/76
f 30/22/77 31/23/78 23/24/79 25/25/80
f 24/26/81 30/22/82 25/25/83 27/27/84
f 26/28/85 27/27/86 29/29/87 28/30/88
f 22/31/89 29/29/90 23/24/91 31/23/92
f 23/24/93 29/29/94 27/27/95 25/25/96
f 28/30/97 22/31/98 24/26/99 26/28/100
f 22/31/101 31/23/102 30/22/103 24/26/104
f 24/26/105 27/27/106 26/28/107
f 28/30/108 29/29/109 22/31/110
f 40/32/111 41/33/112 33/34/113 35/35/114
f 34/36/115 40/32/116 35/35/117 37/37/118
f 36/38/119 37/37/120 39/39/121 38/40/122
f 32/41/123 39/39/124 33/34/125 41/33/126
f 33/34/127 39/39/128 37/37/129 35/35/130
f 38/40/131 32/41/132 34/36/133 36/38/134
f 32/41/135 41/33/136 40/32/137 34/36/138
f 34/36/139 37/37/140 36/38/141
f 38/40/142 39/39/143 32/41/144
f 50/42/145 51/43/146 43/44/147 45/45/148
f 44/46/149 50/42/150 45/45/151 47/47/152
f 46/48/153 47/47/154 49/49/155 48/50/156
f 42/51/157 49/49/158 43/44/159 51/43/160
f 43/44/161 49/49/162 47/47/163 45/45/164
f 48/50/165 42/51/166 44/46/167 46/48/168
f 42/51/169 51/43/170 50/42/171 44/46/172
f 44/46/173 47/47/174 46/48/175
f 48/50/176 49/49/177 42/51/178
f 60/52/179 61/53/180 53/54/181 55/55/182
f 54/56/183 60/52/184 55/55/185 57/57/186
f 56/58/187 57/57/188 59/59/189 58/60/190
f 52/61/191 59/59/192 53/54/193 61/53/194
f 53/54/195 59/59/196 57/57/197 55/55/198
f 58/60/199 52/61/200 54/56/201 56/58/202
f 52/61/203 61/53/204 60/52/205 54/56/206
f 54/56/207 57/57/208 56/58/209
f 58/60/210 59/59/211 52/61/212
