# This file uses centimeters as units for non-parametric coordinates.

v -0.614607 -5.000004 0.614607
v 0.614604 -5.000004 0.614607
v -0.614607 4.999996 0.614607
v 0.614604 4.999996 0.614607
v -0.614607 4.999996 -0.614604
v 0.614604 4.999996 -0.614604
v -0.614607 -5.000004 -0.614604
v 0.614604 -5.000004 -0.614604
v -0.000002 -6.684333 0.000002
v 1.841646 5.821151 0.736772
v 0.736768 5.821151 1.841650
v 1.841646 4.999996 0.736772
v 0.736768 4.999996 1.841650
v -0.736772 5.821151 1.841650
v -1.841650 5.821151 0.736772
v -1.841650 4.999996 0.736772
v -0.736772 4.999996 1.841650
v 0.736768 5.821151 -1.841646
v 1.841646 5.821151 -0.736768
v 0.736768 4.999996 -1.841646
v 1.841646 4.999996 -0.736768
v -1.841650 5.821151 -0.736768
v -0.736772 5.821151 -1.841646
v -1.841650 4.999996 -0.736768
v -0.736772 4.999996 -1.841646
v -0.000002 5.821151 0.000002
vt 0.124043 0.377073
vt 0.123909 0.377056
vt 0.123889 0.376410
vt 0.124045 0.376429
vt 0.124068 0.376304
vt 0.123915 0.376285
vt 0.123930 0.376940
vt 0.124063 0.376958
vt 0.123987 0.377098
vt 0.124038 0.376498
vt 0.124038 0.376560
vt 0.123848 0.376536
vt 0.123846 0.376475
vt 0.123728 0.376341
vt 0.123732 0.376404
vt 0.123764 0.376255
vt 0.123761 0.376191
vt 0.123922 0.376098
vt 0.123924 0.376162
vt 0.124106 0.376184
vt 0.124107 0.376120
vt 0.124227 0.376247
vt 0.124225 0.376310
vt 0.124200 0.376461
vt 0.124202 0.376399
vt 0.123979 0.376294
vn 0.000000 0.000000 1.000000
vn 0.000000 0.000000 1.000000
vn 0.000000 0.000000 1.000000
vn 0.000000 0.000000 1.000000
vn 0.000000 0.000000 -1.000000
vn 0.000000 0.000000 -1.000000
vn 0.000000 0.000000 -1.000000
vn 0.000000 0.000000 -1.000000
vn 1.000000 0.000000 0.000000
vn 1.000000 0.000000 0.000000
vn 1.000000 0.000000 0.000000
vn 1.000000 0.000000 0.000000
vn -1.000000 0.000000 0.000000
vn -1.000000 0.000000 0.000000
vn -1.000000 0.000000 0.000000
vn -1.000000 0.000000 0.000000
vn 0.000000 -0.342788 -0.939413
vn 0.000000 -0.342788 -0.939413
vn 0.000000 -0.342788 -0.939413
vn 0.939413 -0.342788 0.000000
vn 0.939413 -0.342788 0.000000
vn 0.939413 -0.342788 0.000000
vn 0.000000 -0.342788 0.939413
vn 0.000000 -0.342788 0.939413
vn 0.000000 -0.342788 0.939413
vn -0.939413 -0.342788 0.000000
vn -0.939413 -0.342788 0.000000
vn -0.939413 -0.342788 0.000000
vn 0.000000 0.000000 1.000000
vn 0.000000 0.000000 1.000000
vn 0.000000 0.000000 1.000000
vn 0.000000 0.000000 1.000000
vn 1.000000 0.000000 0.000000
vn 1.000000 0.000000 0.000000
vn 1.000000 0.000000 0.000000
vn 1.000000 0.000000 0.000000
vn 0.000000 0.000000 -1.000000
vn 0.000000 0.000000 -1.000000
vn 0.000000 0.000000 -1.000000
vn 0.000000 0.000000 -1.000000
vn -1.000000 0.000000 0.000000
vn -1.000000 0.000000 0.000000
vn -1.000000 0.000000 0.000000
vn -1.000000 0.000000 0.000000
vn 0.000000 -1.000000 0.000000
vn 0.000000 -1.000000 0.000000
vn 0.000000 -1.000000 0.000000
vn 0.000000 -1.000000 0.000000
vn 0.000000 -1.000000 0.000000
vn 0.000000 -1.000000 0.000000
vn 0.000000 -1.000000 0.000000
vn 0.000000 -1.000000 0.000000
vn 0.000000 -1.000000 0.000000
vn 0.000000 -1.000000 0.000000
vn 0.000000 -1.000000 0.000000
vn 0.000000 -1.000000 0.000000
vn 0.000000 -1.000000 0.000000
vn 0.000000 -1.000000 0.000000
vn 0.000000 -1.000000 0.000000
vn 0.000000 -1.000000 0.000000
vn 0.707107 0.000000 0.707107
vn 0.707107 0.000000 0.707107
vn 0.707107 0.000000 0.707107
vn 0.707107 0.000000 0.707107
vn -0.707107 0.000000 0.707107
vn -0.707107 0.000000 0.707107
vn -0.707107 0.000000 0.707107
vn -0.707107 0.000000 0.707107
vn 0.707107 0.000000 -0.707107
vn 0.707107 0.000000 -0.707107
vn 0.707107 0.000000 -0.707107
vn 0.707107 0.000000 -0.707107
vn -0.707107 0.000000 -0.707107
vn -0.707107 0.000000 -0.707107
vn -0.707107 0.000000 -0.707107
vn -0.707107 0.000000 -0.707107
vn 0.000000 -1.000000 0.000000
vn 0.000000 -1.000000 0.000000
vn 0.000000 -1.000000 0.000000
vn 0.000000 -1.000000 0.000000
vn 0.000000 -1.000000 0.000000
vn 0.000000 -1.000000 0.000000
vn 0.000000 -1.000000 0.000000
vn 0.000000 -1.000000 0.000000
vn 0.000000 -1.000000 0.000000
vn 0.000000 -1.000000 0.000000
vn 0.000000 -1.000000 0.000000
vn 0.000000 -1.000000 0.000000
vn -0.000000 1.000000 0.000001
vn -0.000000 1.000000 0.000001
vn -0.000000 1.000000 0.000001
vn 0.000000 1.000000 0.000000
vn 0.000000 1.000000 0.000000
vn 0.000000 1.000000 0.000000
vn 0.000000 1.000000 -0.000000
vn 0.000000 1.000000 -0.000000
vn 0.000000 1.000000 -0.000000
vn 0.000000 1.000000 0.000000
vn 0.000000 1.000000 0.000000
vn 0.000000 1.000000 0.000000
vn 0.000000 1.000000 0.000001
vn 0.000000 1.000000 0.000001
vn 0.000000 1.000000 0.000001
vn 0.000000 1.000000 0.000000
vn 0.000000 1.000000 0.000000
vn 0.000000 1.000000 0.000000
vn -0.000000 1.000000 -0.000000
vn -0.000000 1.000000 -0.000000
vn -0.000000 1.000000 -0.000000
vn -0.000000 1.000000 0.000000
vn -0.000000 1.000000 0.000000
vn -0.000000 1.000000 0.000000
s off
f 1/1/1 2/2/2 4/3/3 3/4/4
f 5/5/5 6/6/6 8/7/7 7/8/8
f 2/2/9 8/7/10 6/6/11 4/3/12
f 7/8/13 1/1/14 3/4/15 5/5/16
f 7/8/17 8/7/18 9/9/19
f 8/7/20 2/2/21 9/9/22
f 2/2/23 1/1/24 9/9/25
f 1/1/26 7/8/27 9/9/28
f 14/10/29 17/11/30 13/12/31 11/13/32
f 10/14/33 12/15/34 21/16/35 19/17/36
f 18/18/37 20/19/38 25/20/39 23/21/40
f 22/22/41 24/23/42 16/24/43 15/25/44
f 3/4/45 4/3/46 13/12/47 17/11/48
f 4/3/49 6/6/50 21/16/51 12/15/52
f 6/6/53 5/5/54 25/20/55 20/19/56
f 5/5/57 3/4/58 16/24/59 24/23/60
f 10/14/61 11/13/62 13/12/63 12/15/64
f 14/10/65 15/25/66 16/24/67 17/11/68
f 18/18/69 19/17/70 21/16/71 20/19/72
f 22/22/73 23/21/74 25/20/75 24/23/76
f 12/15/77 13/12/78 4/3/79
f 16/24/80 3/4/81 17/11/82
f 20/19/83 21/16/84 6/6/85
f 24/23/86 25/20/87 5/5/88
f 15/25/89 14/10/90 26/26/91
f 14/10/92 11/13/93 26/26/94
f 11/13/95 10/14/96 26/26/97
f 10/14/98 19/17/99 26/26/100
f 19/17/101 18/18/102 26/26/103
f 18/18/104 23/21/105 26/26/106
f 23/21/107 22/22/108 26/26/109
f 22/22/110 15/25/111 26/26/112
