# This file uses centimeters as units for non-parametric coordinates.

v 0.709847 -4.984621 -0.515725
v -0.271133 -5.000000 -0.834468
v -0.877429 -4.362263 0.000021
v -0.271133 -5.000000 0.834510
v 0.709847 -4.362263 0.515768
v 0.726591 5.173231 0.872674
v -0.287583 5.321013 0.756352
v -0.767044 4.888551 1.560752
v -0.049166 4.473490 2.174220
v 0.873942 4.649428 1.748970
v 0.000000 -6.684333 0.000021
v 1.644901 6.212601 0.601872
v -0.601587 6.539943 0.344227
v -1.663602 5.582010 2.126022
v -0.073478 4.662621 3.484896
v 1.971292 5.052347 2.542921
v 1.589253 5.505303 0.188445
v -0.657234 5.832645 -0.069201
v -1.719250 4.874712 1.712596
v -0.129125 3.955323 3.071468
v 1.915644 4.345049 2.129493
v 0.709847 1.096944 -0.515725
v -0.271133 1.096945 -0.834468
v -0.877471 1.096945 0.000021
v -0.271133 1.096945 0.834510
v 0.709869 1.096945 0.515768
v 0.565698 3.127940 -0.322835
v -0.448498 3.275723 -0.439154
v -0.927980 2.843259 0.365250
v -0.210081 2.428199 0.978714
v 0.713048 2.604138 0.553461
vt 0.125152 0.377115
vt 0.125098 0.377124
vt 0.125102 0.377980
vt 0.125154 0.377956
vt 0.125241 0.377118
vt 0.125237 0.377914
vt 0.125244 0.377130
vt 0.125240 0.377997
vt 0.125154 0.377134
vt 0.125155 0.377955
vt 0.125178 0.378115
vt 0.125098 0.377124
vt 0.125152 0.377115
vt 0.125241 0.377118
vt 0.125244 0.377130
vt 0.125154 0.377134
vt 0.125098 0.377124
vt 0.125152 0.377115
vt 0.125241 0.377118
vt 0.125244 0.377130
vt 0.125154 0.377134
vt 0.125099 0.377459
vt 0.125153 0.377443
vt 0.125239 0.377450
vt 0.125242 0.377468
vt 0.125154 0.377476
vt 0.125099 0.377328
vt 0.125152 0.377315
vt 0.125240 0.377320
vt 0.125243 0.377336
vt 0.125154 0.377342
vn 0.169269 0.487392 -0.856619
vn 0.169269 0.487392 -0.856619
vn 0.169269 0.487392 -0.856619
vn 0.169269 0.487392 -0.856619
vn -0.882801 0.286881 -0.371969
vn -0.882801 0.286881 -0.371969
vn -0.882801 0.286881 -0.371969
vn -0.882801 0.286881 -0.371969
vn -0.714866 -0.310095 0.626744
vn -0.714866 -0.310095 0.626744
vn -0.714866 -0.310095 0.626744
vn -0.714866 -0.310095 0.626744
vn 0.440990 -0.478520 0.759306
vn 0.440990 -0.478520 0.759306
vn 0.440990 -0.478520 0.759306
vn 0.440990 -0.478520 0.759306
vn 0.987422 0.014359 -0.157454
vn 0.987422 0.014359 -0.157454
vn 0.987422 0.014359 -0.157454
vn 0.987422 0.014359 -0.157454
vn 0.067767 0.861349 0.503473
vn 0.067767 0.861349 0.503473
vn 0.067767 0.861349 0.503473
vn 0.067767 0.861349 0.503473
vn 0.067767 0.861349 0.503473
vn 0.924511 -0.326354 0.196908
vn 0.924511 -0.326354 0.196908
vn 0.924511 -0.326354 0.196908
vn 0.477600 -0.327109 0.815413
vn 0.477600 -0.327109 0.815413
vn 0.477600 -0.327109 0.815413
vn -0.865670 -0.327106 0.378968
vn -0.865670 -0.327106 0.378968
vn -0.865670 -0.327106 0.378968
vn -0.865670 -0.327106 -0.378967
vn -0.865670 -0.327106 -0.378967
vn -0.865670 -0.327106 -0.378967
vn 0.290439 -0.386860 -0.875205
vn 0.290439 -0.386860 -0.875205
vn 0.290439 -0.386860 -0.875205
vn 0.169263 0.487392 -0.856621
vn 0.169263 0.487392 -0.856621
vn 0.169263 0.487392 -0.856621
vn 0.169263 0.487392 -0.856621
vn -0.882809 0.286871 -0.371958
vn -0.882809 0.286871 -0.371958
vn -0.882809 0.286871 -0.371958
vn -0.882809 0.286871 -0.371958
vn -0.714878 -0.310092 0.626732
vn -0.714878 -0.310092 0.626732
vn -0.714878 -0.310092 0.626732
vn -0.714878 -0.310092 0.626732
vn 0.440997 -0.478521 0.759302
vn 0.440997 -0.478521 0.759302
vn 0.440997 -0.478521 0.759302
vn 0.440997 -0.478521 0.759302
vn 0.987421 0.014351 -0.157458
vn 0.987421 0.014351 -0.157458
vn 0.987421 0.014351 -0.157458
vn 0.987421 0.014351 -0.157458
vn -0.067767 -0.861350 -0.503472
vn -0.067767 -0.861350 -0.503472
vn -0.067767 -0.861350 -0.503472
vn -0.067767 -0.861350 -0.503472
vn -0.067768 -0.861350 -0.503472
vn -0.067768 -0.861350 -0.503472
vn -0.067768 -0.861350 -0.503472
vn -0.067768 -0.861350 -0.503472
vn -0.067768 -0.861349 -0.503473
vn -0.067768 -0.861349 -0.503473
vn -0.067768 -0.861349 -0.503473
vn -0.067768 -0.861349 -0.503473
vn -0.067768 -0.861349 -0.503473
vn -0.067768 -0.861349 -0.503473
vn -0.067768 -0.861349 -0.503473
vn -0.067768 -0.861349 -0.503473
vn -0.067768 -0.861349 -0.503473
vn -0.067768 -0.861349 -0.503473
vn -0.067768 -0.861349 -0.503473
vn -0.067768 -0.861349 -0.503473
vn 0.309019 0.000000 -0.951056
vn 0.309019 0.000000 -0.951056
vn 0.309019 0.000000 -0.951056
vn 0.309019 0.000000 -0.951056
vn -0.809006 -0.000003 -0.587801
vn -0.809006 -0.000003 -0.587801
vn -0.809006 -0.000003 -0.587801
vn -0.809006 -0.000003 -0.587801
vn -0.809006 -0.000003 0.587800
vn -0.809006 -0.000003 0.587800
vn -0.809006 -0.000003 0.587800
vn -0.809006 -0.000003 0.587800
vn 0.309016 -0.000001 0.951057
vn 0.309016 -0.000001 0.951057
vn 0.309016 -0.000001 0.951057
vn 0.309016 -0.000001 0.951057
vn 1.000000 -0.000002 -0.000010
vn 1.000000 -0.000002 -0.000010
vn 1.000000 -0.000002 -0.000010
vn 1.000000 -0.000002 -0.000010
vn 0.221290 0.151506 -0.963367
vn 0.221290 0.151506 -0.963367
vn 0.221290 0.151506 -0.963367
vn 0.221290 0.151506 -0.963367
vn -0.839079 0.056134 -0.541105
vn -0.839079 0.056134 -0.541105
vn -0.839079 0.056134 -0.541105
vn -0.839079 0.056134 -0.541105
vn -0.748703 -0.105761 0.654415
vn -0.748703 -0.105761 0.654415
vn -0.748703 -0.105761 0.654415
vn -0.748703 -0.105761 0.654415
vn 0.368521 -0.067754 0.927147
vn 0.368521 -0.067754 0.927147
vn 0.368521 -0.067754 0.927147
vn 0.368521 -0.067754 0.927147
vn 0.996921 0.043952 -0.064942
vn 0.996921 0.043952 -0.064942
vn 0.996921 0.043952 -0.064942
vn 0.996921 0.043952 -0.064942
s off
f 7/1/1 6/2/2 27/27/3 28/28/4
f 8/5/5 7/1/6 28/28/7 29/29/8
f 9/7/9 8/5/10 29/29/11 30/30/12
f 10/9/13 9/7/14 30/30/15 31/31/16
f 6/2/17 10/9/18 31/31/19 27/27/20
f 12/12/21 13/13/22 14/14/23 15/15/24 16/16/25
f 1/3/26 5/10/27 11/11/28
f 5/10/29 4/8/30 11/11/31
f 4/8/32 3/6/33 11/11/34
f 3/6/35 2/4/36 11/11/37
f 2/4/38 1/3/39 11/11/40
f 17/17/41 18/18/42 13/13/43 12/12/44
f 18/18/45 19/19/46 14/14/47 13/13/48
f 19/19/49 20/20/50 15/15/51 14/14/52
f 20/20/53 21/21/54 16/16/55 15/15/56
f 21/21/57 17/17/58 12/12/59 16/16/60
f 6/2/61 7/1/62 18/18/63 17/17/64
f 7/1/65 8/5/66 19/19/67 18/18/68
f 8/5/69 9/7/70 20/20/71 19/19/72
f 9/7/73 10/9/74 21/21/75 20/20/76
f 10/9/77 6/2/78 17/17/79 21/21/80
f 23/23/81 22/22/82 1/3/83 2/4/84
f 24/24/85 23/23/86 2/4/87 3/6/88
f 25/25/89 24/24/90 3/6/91 4/8/92
f 26/26/93 25/25/94 4/8/95 5/10/96
f 22/22/97 26/26/98 5/10/99 1/3/100
f 28/28/101 27/27/102 22/22/103 23/23/104
f 29/29/105 28/28/106 23/23/107 24/24/108
f 30/30/109 29/29/110 24/24/111 25/25/112
f 31/31/113 30/30/114 25/25/115 26/26/116
f 27/27/117 31/31/118 26/26/119 22/22/120
