# This file uses centimeters as units for non-parametric coordinates.

v -1.063490 -1.842201 10.084319
v -1.173258 -1.869167 -15.080158
v 1.063490 -1.842201 10.084319
v 1.173258 -1.869167 -15.080158
v 1.173258 1.869311 -15.080159
v -1.173258 1.869311 -15.080159
v -1.173258 1.970100 -19.328232
v -1.173258 -1.970053 -19.328232
v 1.173258 1.970100 -19.328232
v 1.173258 -1.970053 -19.328232
v -1.173258 0.000048 -20.192289
v 1.173258 0.000048 -20.192289
v 1.063490 -1.090018 8.710349
v 1.173258 -1.134385 -14.114403
v 1.173258 1.134493 -14.114404
v 1.063490 1.232575 8.710359
v -1.063490 1.232575 8.710359
v -1.173258 1.134493 -14.114404
v -1.173258 -1.134385 -14.114403
v -1.063490 -1.090018 8.710349
v 0.741291 -0.723533 7.672699
v 0.817823 -0.776374 -12.969589
v 0.817823 0.776482 -12.969589
v 0.741291 0.866094 7.672699
v -0.741291 0.866094 7.672699
v -0.817823 0.776482 -12.969589
v -0.817823 -0.776374 -12.969589
v -0.741291 -0.723533 7.672699
v -1.173258 1.338005 -16.242802
v -1.173258 -1.338100 -16.242802
v -1.173258 1.338005 -18.911016
v -1.173258 -1.338100 -18.911016
v 1.173258 -1.338100 -16.242802
v 1.173258 1.338005 -16.242802
v 1.173258 -1.338100 -18.911016
v 1.173258 1.338005 -18.911016
v 1.173258 0.000053 -15.080159
v -1.173258 0.000053 -15.080159
v -1.173258 0.000048 -15.672738
v -1.173258 0.000048 -19.481081
v 1.173258 0.000048 -19.481081
v 1.173258 0.000048 -15.672738
v -1.173258 2.504158 -17.576939
v 1.173258 2.504158 -17.576939
v 1.173258 1.909733 -17.576939
v 1.173258 -1.909637 -17.576939
v 1.173258 -2.504015 -17.576939
v -1.173258 -2.504015 -17.576939
v -1.173258 -1.909637 -17.576939
v -1.173258 1.909733 -17.576939
v -1.063490 3.757239 10.644770
v -1.063490 -3.214679 12.580309
v 1.063490 -3.214679 12.580309
v 1.063490 3.757239 10.644770
v -1.063490 5.540884 12.304335
v 1.063490 5.540884 12.304335
v -1.063490 5.867512 16.870365
v 1.063490 5.867512 16.870365
v -1.063490 4.487629 18.282310
v 1.063490 4.487629 18.282310
v 0.000000 4.487629 18.282310
v 1.063538 6.263226 14.808702
v -1.063490 6.263226 14.808702
v -1.063490 -3.362700 15.449234
v 1.063490 -3.362627 15.449215
v 1.063490 2.468143 13.601945
v 1.063490 3.308043 14.107067
v -1.063490 2.468143 13.601945
v -1.063490 3.308043 14.107067
v -1.063490 -2.130760 18.145105
v 1.063490 -2.130688 18.145086
v 1.063490 0.125443 17.393822
v -1.063490 0.125443 17.393822
v 1.063490 0.621155 19.385508
v -1.063490 0.621155 19.385508
v -1.063490 -0.437532 15.131889
v -1.063490 -0.012848 14.425741
v 1.063490 -0.437532 15.131889
v 1.063490 -0.012848 14.425741
v 1.063490 -3.219460 12.604902
v 1.068310 1.993641 7.818316
v 1.063490 2.421959 9.360329
v -1.063490 2.421959 9.360329
v -1.068310 1.993641 7.818316
vt 0.122380 0.306014
vt 0.122380 0.306014
vt 0.122380 0.306014
vt 0.122380 0.306014
vt 0.122380 0.306014
vt 0.122380 0.306014
vt 0.122380 0.306014
vt 0.122380 0.306014
vt 0.122380 0.306014
vt 0.122380 0.306014
vt 0.122380 0.306014
vt 0.122380 0.306014
vt 0.122380 0.306014
vt 0.122380 0.306014
vt 0.122380 0.306014
vt 0.122380 0.306014
vt 0.122380 0.306014
vt 0.122380 0.306014
vt 0.122380 0.306014
vt 0.122380 0.306014
vt 0.122380 0.306014
vt 0.122380 0.306014
vt 0.122380 0.306014
vt 0.122380 0.306014
vt 0.122380 0.306014
vt 0.122380 0.306014
vt 0.122380 0.306014
vt 0.122380 0.306014
vt 0.122380 0.306014
vt 0.122380 0.306014
vt 0.122380 0.306014
vt 0.122380 0.306014
vt 0.122380 0.306014
vt 0.122380 0.306014
vt 0.122380 0.306014
vt 0.122380 0.306014
vt 0.122380 0.306014
vt 0.122380 0.306014
vt 0.122380 0.306014
vt 0.122380 0.306014
vt 0.122380 0.306014
vt 0.122380 0.306014
vt 0.122380 0.306014
vt 0.122380 0.306014
vt 0.122380 0.306014
vt 0.122380 0.306014
vt 0.122380 0.306014
vt 0.122380 0.306014
vt 0.122380 0.306014
vt 0.122380 0.306014
vt 0.122380 0.306014
vt 0.122380 0.306014
vt 0.122380 0.306014
vt 0.122380 0.306014
vt 0.122380 0.306014
vt 0.122380 0.306014
vt 0.122380 0.306014
vt 0.122380 0.306014
vt 0.122380 0.306014
vt 0.122380 0.306014
vt 0.122380 0.306014
vt 0.122380 0.306014
vt 0.122380 0.306014
vt 0.122380 0.306014
vt 0.122380 0.306014
vt 0.122380 0.306014
vt 0.122380 0.306014
vt 0.122380 0.306014
vt 0.122380 0.306014
vt 0.122380 0.306014
vt 0.122380 0.306014
vt 0.122380 0.306014
vt 0.122380 0.306014
vt 0.122380 0.306014
vt 0.122380 0.306014
vt 0.122380 0.306014
vt 0.122380 0.306014
vt 0.122380 0.306014
vt 0.122380 0.306014
vt 0.122380 0.306014
vt 0.122380 0.306014
vt 0.122380 0.306014
vt 0.122380 0.306014
vt 0.122380 0.306014
vt 0.122380 0.306014
vt 0.122380 0.306014
vt 0.122380 0.306014
vt 0.122380 0.306014
vt 0.122380 0.306014
vt 0.122380 0.306014
vt 0.122380 0.306014
vt 0.122380 0.306014
vt 0.122380 0.306014
vt 0.122380 0.306014
vt 0.122380 0.306014
vt 0.122380 0.306014
vt 0.122380 0.306014
vt 0.122380 0.306014
vt 0.122380 0.306014
vt 0.122380 0.306014
vt 0.122380 0.306014
vt 0.122380 0.306014
vt 0.122380 0.306014
vt 0.122380 0.306014
vt 0.122380 0.306014
vt 0.122380 0.306014
vt 0.122380 0.306014
vt 0.122380 0.306014
vt 0.122380 0.306014
vt 0.122380 0.306014
vt 0.122380 0.306014
vt 0.122380 0.306014
vt 0.122380 0.306014
vt 0.122380 0.306014
vt 0.122380 0.306014
vt 0.122380 0.306014
vn 0.000000 -1.000000 0.001072
vn 0.000000 -1.000000 0.001072
vn 0.000000 -1.000000 0.001072
vn 0.000000 -1.000000 0.001072
vn 0.999993 -0.000000 0.003708
vn 0.999993 -0.000000 0.003708
vn 0.999993 -0.000000 0.003708
vn 0.999993 -0.000000 0.003708
vn 0.000000 0.999985 -0.005430
vn 0.000000 0.999985 -0.005430
vn 0.000000 0.999985 -0.005430
vn 0.000000 0.999985 -0.005430
vn -0.999993 -0.000000 0.003708
vn -0.999993 -0.000000 0.003708
vn -0.999993 -0.000000 0.003708
vn -0.999993 -0.000000 0.003708
vn 0.000000 0.956513 -0.291689
vn 0.000000 0.956513 -0.291689
vn 0.000000 0.956513 -0.291689
vn 0.000000 0.956513 -0.291689
vn 0.000000 -0.956528 -0.291641
vn 0.000000 -0.956528 -0.291641
vn 0.000000 -0.956528 -0.291641
vn 0.000000 -0.956528 -0.291641
vn 0.000000 0.401661 -0.915788
vn 0.000000 0.401661 -0.915788
vn 0.000000 0.401661 -0.915788
vn 0.000000 0.401661 -0.915788
vn 0.000000 -0.401653 -0.915792
vn 0.000000 -0.401653 -0.915792
vn 0.000000 -0.401653 -0.915792
vn 0.000000 -0.401653 -0.915792
vn 0.999989 0.001255 0.004573
vn 0.999989 0.001255 0.004573
vn 0.999989 0.001255 0.004573
vn 0.999989 0.001255 0.004573
vn 1.000000 -0.000000 0.000000
vn 1.000000 -0.000000 0.000000
vn 1.000000 -0.000000 0.000000
vn 0.999986 0.002594 0.004683
vn 0.999986 0.002594 0.004683
vn 0.999986 0.002594 0.004683
vn 0.999986 0.002594 0.004683
vn 1.000000 -0.000342 0.000626
vn 1.000000 -0.000342 0.000626
vn 1.000000 -0.000342 0.000626
vn 1.000000 -0.000342 0.000626
vn -1.000000 0.000000 0.000000
vn -1.000000 0.000000 0.000000
vn -1.000000 0.000000 0.000000
vn -0.999989 0.001255 0.004573
vn -0.999989 0.001255 0.004573
vn -0.999989 0.001255 0.004573
vn -0.999989 0.001255 0.004573
vn -1.000000 0.000000 -0.000000
vn -1.000000 0.000000 -0.000000
vn -1.000000 0.000000 -0.000000
vn -1.000000 0.000000 -0.000000
vn 0.730450 0.682965 0.001603
vn 0.730450 0.682965 0.001603
vn 0.730450 0.682965 0.001603
vn 0.730450 0.682965 0.001603
vn 0.955029 -0.000000 0.296511
vn 0.955029 -0.000000 0.296511
vn 0.955029 -0.000000 0.296511
vn 0.955029 -0.000000 0.296511
vn 0.730766 -0.682601 0.006080
vn 0.730766 -0.682601 0.006080
vn 0.730766 -0.682601 0.006080
vn 0.730766 -0.682601 0.006080
vn 0.955020 0.000001 -0.296540
vn 0.955020 0.000001 -0.296540
vn 0.955020 0.000001 -0.296540
vn 0.955020 0.000001 -0.296540
vn -0.730766 -0.682601 0.006080
vn -0.730766 -0.682601 0.006080
vn -0.730766 -0.682601 0.006080
vn -0.730766 -0.682601 0.006080
vn -0.955029 -0.000000 0.296511
vn -0.955029 -0.000000 0.296511
vn -0.955029 -0.000000 0.296511
vn -0.955029 -0.000000 0.296511
vn -0.730450 0.682965 0.001603
vn -0.730450 0.682965 0.001603
vn -0.730450 0.682965 0.001603
vn -0.730450 0.682965 0.001603
vn -0.955020 0.000001 -0.296540
vn -0.955020 0.000001 -0.296540
vn -0.955020 0.000001 -0.296540
vn -0.955020 0.000001 -0.296540
vn -1.000000 -0.000000 0.000000
vn -1.000000 -0.000000 0.000000
vn -1.000000 -0.000000 0.000000
vn -1.000000 -0.000000 0.000000
vn -1.000000 0.000000 0.000000
vn -1.000000 0.000000 0.000000
vn -1.000000 0.000000 0.000000
vn -1.000000 0.000000 0.000000
vn -1.000000 0.000000 0.000000
vn -1.000000 0.000000 0.000000
vn -1.000000 0.000000 0.000000
vn -1.000000 0.000000 0.000000
vn -1.000000 0.000000 0.000000
vn -1.000000 0.000000 0.000000
vn -1.000000 0.000000 0.000000
vn -1.000000 0.000000 0.000000
vn 1.000000 0.000000 0.000000
vn 1.000000 0.000000 0.000000
vn 1.000000 0.000000 0.000000
vn 1.000000 0.000000 0.000000
vn 1.000000 0.000000 0.000000
vn 1.000000 0.000000 0.000000
vn 1.000000 0.000000 0.000000
vn 1.000000 0.000000 0.000000
vn 1.000000 0.000000 -0.000000
vn 1.000000 0.000000 -0.000000
vn 1.000000 0.000000 -0.000000
vn 1.000000 0.000000 -0.000000
vn 1.000000 0.000000 0.000000
vn 1.000000 0.000000 0.000000
vn 1.000000 0.000000 0.000000
vn 1.000000 0.000000 0.000000
vn 1.000000 0.000000 0.000000
vn 1.000000 0.000000 0.000000
vn 1.000000 0.000000 0.000000
vn 1.000000 -0.000000 0.000000
vn 1.000000 -0.000000 0.000000
vn 1.000000 -0.000000 0.000000
vn -1.000000 -0.000000 0.000000
vn -1.000000 -0.000000 0.000000
vn -1.000000 -0.000000 0.000000
vn -1.000000 -0.000000 0.000000
vn -1.000000 -0.000000 0.000000
vn -1.000000 -0.000000 0.000000
vn -1.000000 0.000000 0.000000
vn -1.000000 0.000000 0.000000
vn -1.000000 0.000000 0.000000
vn -1.000000 0.000000 0.000000
vn -1.000000 0.000000 -0.000000
vn -1.000000 0.000000 -0.000000
vn -1.000000 0.000000 -0.000000
vn -1.000000 0.000000 -0.000000
vn 1.000000 0.000000 -0.000000
vn 1.000000 0.000000 -0.000000
vn 1.000000 0.000000 -0.000000
vn 1.000000 0.000000 -0.000000
vn 1.000000 0.000000 0.000000
vn 1.000000 0.000000 0.000000
vn 1.000000 0.000000 0.000000
vn 1.000000 0.000000 0.000000
vn 0.000000 0.969162 0.246426
vn 0.000000 0.969162 0.246426
vn 0.000000 0.969162 0.246426
vn 0.000000 0.969162 0.246426
vn 1.000000 0.000000 0.000000
vn 1.000000 0.000000 0.000000
vn 1.000000 0.000000 0.000000
vn 1.000000 0.000000 0.000000
vn 1.000000 0.000000 0.000000
vn 1.000000 0.000000 0.000000
vn 1.000000 0.000000 0.000000
vn 1.000000 0.000000 0.000000
vn 0.000000 -0.969162 0.246426
vn 0.000000 -0.969162 0.246426
vn 0.000000 -0.969162 0.246426
vn 0.000000 -0.969162 0.246426
vn -1.000000 0.000000 0.000000
vn -1.000000 0.000000 0.000000
vn -1.000000 0.000000 0.000000
vn -1.000000 0.000000 0.000000
vn -1.000000 0.000000 0.000000
vn -1.000000 0.000000 0.000000
vn -1.000000 0.000000 0.000000
vn -1.000000 0.000000 0.000000
vn 0.000000 0.919198 0.393797
vn 0.000000 0.919198 0.393797
vn 0.000000 0.919198 0.393797
vn 0.000000 0.919198 0.393797
vn 0.000000 0.391927 -0.919997
vn 0.000000 0.391927 -0.919997
vn 0.000000 0.391927 -0.919997
vn 0.000000 0.391927 -0.919997
vn 0.000000 0.919204 -0.393782
vn 0.000000 0.919204 -0.393782
vn 0.000000 0.919204 -0.393782
vn 0.000000 0.919204 -0.393782
vn 0.000000 -0.391974 -0.919976
vn 0.000000 -0.391974 -0.919976
vn 0.000000 -0.391974 -0.919976
vn 0.000000 -0.391974 -0.919976
vn 0.000000 0.391928 0.919996
vn 0.000000 0.391928 0.919996
vn 0.000000 0.391928 0.919996
vn 0.000000 0.391928 0.919996
vn 0.000000 -0.391975 0.919976
vn 0.000000 -0.391975 0.919976
vn 0.000000 -0.391975 0.919976
vn 0.000000 -0.391975 0.919976
vn 0.000000 -0.919150 0.393908
vn 0.000000 -0.919150 0.393908
vn 0.000000 -0.919150 0.393908
vn 0.000000 -0.919150 0.393908
vn 0.000000 -0.919156 -0.393893
vn 0.000000 -0.919156 -0.393893
vn 0.000000 -0.919156 -0.393893
vn 0.000000 -0.919156 -0.393893
vn 0.000000 -0.876263 -0.481833
vn 0.000000 -0.876263 -0.481833
vn 0.000000 -0.876263 -0.481833
vn 0.000000 -0.876263 -0.481833
vn 0.000000 0.693254 -0.720693
vn 0.000000 0.693254 -0.720693
vn 0.000000 0.693254 -0.720693
vn 0.000000 0.693254 -0.720693
vn -0.000811 -0.998703 -0.050901
vn -0.000811 -0.998703 -0.050901
vn -0.000811 -0.998703 -0.050901
vn -0.000811 -0.998703 -0.050901
vn 0.000000 0.681183 -0.732113
vn 0.000000 0.681183 -0.732113
vn 0.000000 0.681183 -0.732113
vn 0.000000 0.681183 -0.732113
vn 0.000000 0.982073 0.188498
vn 0.000000 0.982073 0.188498
vn 0.000000 0.982073 0.188498
vn 0.000000 0.982073 0.188498
vn 0.000000 0.715180 0.698940
vn 0.000000 0.715180 0.698940
vn 0.000000 0.715180 0.698940
vn 0.000000 0.715180 0.698940
vn 1.000000 0.000000 -0.000000
vn 1.000000 0.000000 -0.000000
vn 1.000000 0.000000 -0.000000
vn 1.000000 0.000000 -0.000000
vn 1.000000 0.000000 -0.000000
vn 1.000000 0.000000 -0.000000
vn 1.000000 0.000000 -0.000000
vn -1.000000 0.000000 -0.000000
vn -1.000000 0.000000 -0.000000
vn -1.000000 0.000000 -0.000000
vn -1.000000 0.000000 0.000000
vn -1.000000 0.000000 0.000000
vn -1.000000 0.000000 0.000000
vn 0.000000 0.000000 0.000000
vn 0.000000 0.000000 0.000000
vn 0.000000 0.000000 0.000000
vn 0.000000 0.315126 0.949050
vn 0.000000 0.315126 0.949050
vn 0.000000 0.315126 0.949050
vn 0.000000 0.315126 0.949050
vn 0.000000 -0.962332 0.271877
vn 0.000000 -0.962332 0.271877
vn 0.000000 -0.962332 0.271877
vn 0.000000 -0.962332 0.271877
vn 0.000000 -0.962332 0.271877
vn 0.000011 -0.410934 0.911665
vn 0.000011 -0.410934 0.911665
vn 0.000011 -0.410934 0.911665
vn 0.000011 -0.410934 0.911665
vn 1.000000 -0.000012 -0.000015
vn 1.000000 -0.000012 -0.000015
vn 1.000000 -0.000012 -0.000015
vn 0.000000 0.960831 -0.277135
vn 0.000000 0.960831 -0.277135
vn 0.000000 0.960831 -0.277135
vn 0.000000 0.960831 -0.277135
vn -1.000000 -0.000000 0.000000
vn -1.000000 -0.000000 0.000000
vn -1.000000 -0.000000 0.000000
vn 1.000000 -0.000021 0.000019
vn 1.000000 -0.000021 0.000019
vn 1.000000 -0.000021 0.000019
vn -1.000000 0.000000 -0.000000
vn -1.000000 0.000000 -0.000000
vn -1.000000 0.000000 -0.000000
vn -1.000000 0.000000 -0.000000
vn 0.000000 -0.515382 0.856960
vn 0.000000 -0.515382 0.856960
vn 0.000000 -0.515382 0.856960
vn 0.000000 -0.515382 0.856960
vn 1.000000 0.000000 -0.000000
vn 1.000000 0.000000 -0.000000
vn 1.000000 0.000000 -0.000000
vn 1.000000 0.000000 -0.000000
vn 0.000035 -0.909533 0.415631
vn 0.000035 -0.909533 0.415631
vn 0.000035 -0.909533 0.415631
vn 0.000035 -0.909533 0.415631
vn 1.000000 -0.000000 0.000000
vn 1.000000 -0.000000 0.000000
vn 1.000000 -0.000000 0.000000
vn 1.000000 -0.000000 0.000000
vn 0.000000 0.970395 -0.241523
vn 0.000000 0.970395 -0.241523
vn 0.000000 0.970395 -0.241523
vn 0.000000 0.970395 -0.241523
vn 1.000000 0.000000 0.000000
vn 1.000000 0.000000 0.000000
vn 1.000000 0.000000 0.000000
vn 0.000000 0.970395 -0.241522
vn 0.000000 0.970395 -0.241522
vn 0.000000 0.970395 -0.241522
vn 0.000000 0.970395 -0.241522
vn -1.000000 0.000000 0.000000
vn -1.000000 0.000000 0.000000
vn -1.000000 0.000000 0.000000
vn -1.000000 0.000000 0.000000
vn -1.000000 0.000000 0.000000
vn -1.000000 0.000000 0.000000
vn -1.000000 0.000000 0.000000
vn 0.000000 0.856959 0.515384
vn 0.000000 0.856959 0.515384
vn 0.000000 0.856959 0.515384
vn 0.000000 0.856959 0.515384
vn -1.000000 -0.000000 0.000000
vn -1.000000 -0.000000 0.000000
vn -1.000000 -0.000000 0.000000
vn -1.000000 -0.000000 0.000000
vn 0.000000 -0.981624 -0.190825
vn 0.000000 -0.981624 -0.190825
vn 0.000000 -0.981624 -0.190825
vn -1.000000 0.000000 0.000000
vn -1.000000 0.000000 0.000000
vn -1.000000 0.000000 0.000000
vn -0.999986 0.002594 0.004683
vn -0.999986 0.002594 0.004683
vn -0.999986 0.002594 0.004683
vn -0.999986 0.002594 0.004683
vn 0.000000 0.963521 -0.267633
vn 0.000000 0.963521 -0.267633
vn 0.000000 0.963521 -0.267633
vn 0.000000 0.963521 -0.267633
vn -1.000000 0.000000 0.000000
vn -1.000000 0.000000 0.000000
vn -1.000000 0.000000 0.000000
vn -1.000000 0.000000 0.000000
vn -1.000000 -0.000342 0.000626
vn -1.000000 -0.000342 0.000626
vn -1.000000 -0.000342 0.000626
vn -1.000000 -0.000342 0.000626
vn 1.000000 0.000000 -0.000000
vn 1.000000 0.000000 -0.000000
vn 1.000000 0.000000 -0.000000
vn 1.000000 0.000000 -0.000000
vn 1.000000 0.000000 0.000000
vn 1.000000 0.000000 0.000000
vn 1.000000 0.000000 0.000000
vn 1.000000 0.000000 0.000000
vn 1.000000 0.000000 -0.000000
vn 1.000000 0.000000 -0.000000
vn 1.000000 0.000000 -0.000000
vn 1.000000 0.000000 -0.000000
s off
f 1/111/1 2/1/2 4/2/3 3/106/4
f 21/3/5 22/4/6 23/5/7 24/6/8
f 84/114/9 81/115/10 5/109/11 6/48/12
f 25/7/13 26/8/14 27/9/15 28/10/16
f 43/11/17 44/12/18 9/13/19 7/14/20
f 47/15/21 48/16/22 8/17/23 10/18/24
f 7/14/25 9/13/26 12/19/27 11/20/28
f 10/18/29 8/17/30 11/21/31 12/19/32
f 3/106/33 4/2/34 14/22/35 13/23/36
f 14/22/37 37/24/38 15/25/39
f 5/109/40 81/115/41 16/108/42 15/25/43
f 16/108/44 81/115/45 82/113/46 79/107/47
f 19/28/48 38/29/49 2/30/50
f 2/30/51 1/111/52 20/31/53 19/28/54
f 77/100/55 68/110/56 51/112/57 83/116/58
f 13/23/59 14/22/60 22/4/61 21/3/62
f 14/22/63 15/25/64 23/5/65 22/4/66
f 15/25/67 16/108/68 24/6/69 23/5/70
f 16/108/71 13/23/72 21/3/73 24/6/74
f 17/27/75 18/26/76 26/8/77 25/7/78
f 18/26/79 19/28/80 27/9/81 26/8/82
f 19/28/83 20/31/84 28/10/85 27/9/86
f 20/31/87 17/27/88 25/7/89 28/10/90
f 2/1/91 38/32/92 39/33/93 30/34/94
f 50/35/95 43/11/96 7/14/97 31/36/98
f 40/37/99 11/21/100 8/17/101 32/38/102
f 8/17/103 48/16/104 49/39/105 32/38/106
f 42/40/107 37/41/108 4/2/109 33/42/110
f 46/43/111 47/15/112 10/18/113 35/44/114
f 10/18/115 12/19/116 41/45/117 35/44/118
f 9/13/119 44/12/120 45/46/121 36/47/122
f 4/2/123 37/24/124 14/22/125
f 15/25/126 37/24/127 5/109/128
f 6/48/129 38/29/130 18/26/131
f 18/26/132 38/29/133 19/28/134
f 39/33/135 38/32/136 6/48/137 29/49/138
f 7/14/139 11/21/140 40/37/141 31/36/142
f 41/45/143 12/19/144 9/13/145 36/47/146
f 5/109/147 37/41/148 42/40/149 34/50/150
f 6/48/151 5/109/152 44/12/153 43/11/154
f 45/46/155 44/12/156 5/109/157 34/50/158
f 4/2/159 47/15/160 46/43/161 33/42/162
f 4/2/163 2/1/164 48/16/165 47/15/166
f 49/39/167 48/16/168 2/1/169 30/34/170
f 6/48/171 43/11/172 50/35/173 29/49/174
f 32/38/175 49/39/176 46/53/177 35/54/178
f 30/55/179 39/56/180 42/57/181 33/58/182
f 49/59/183 30/60/184 33/61/185 46/62/186
f 39/63/187 29/64/188 34/65/189 42/66/190
f 32/38/191 35/67/192 41/68/193 40/37/194
f 40/69/195 41/70/196 36/71/197 31/72/198
f 31/73/199 36/74/200 45/75/201 50/76/202
f 50/77/203 45/78/204 34/79/205 29/80/206
f 1/111/207 3/106/208 53/98/209 52/51/210
f 82/113/211 83/116/212 51/112/213 54/105/214
f 52/51/215 80/103/216 65/97/217 64/96/218
f 51/112/219 55/85/220 56/82/221 54/105/222
f 62/81/223 63/86/224 57/84/225 58/83/226
f 58/83/227 57/84/228 59/88/229 60/87/230
f 54/105/231 56/82/232 67/90/233 66/104/234
f 60/87/235 67/90/236 58/83/237
f 57/84/238 69/89/239 59/88/240
f 63/86/241 69/89/242 57/84/243
f 60/87/244 59/88/245 61/52/246
f 66/104/247 68/110/248 77/100/249 79/107/250
f 69/89/251 67/90/252 60/87/253 61/52/254 59/88/255
f 71/92/256 74/93/257 75/94/258 70/91/259
f 62/81/260 67/90/261 56/82/262
f 56/82/263 55/85/264 63/86/265 62/81/266
f 55/85/267 69/89/268 63/86/269
f 67/90/270 62/81/271 58/83/272
f 68/110/273 69/89/274 55/85/275 51/112/276
f 66/104/277 67/90/278 69/89/279 68/110/280
f 78/101/281 65/97/282 80/103/283 79/107/284
f 64/96/285 65/97/286 71/92/287 70/91/288
f 65/97/289 78/101/290 72/99/291 71/92/292
f 78/101/293 76/102/294 73/95/295 72/99/296
f 71/92/297 72/99/298 74/93/299
f 72/99/300 73/95/301 75/94/302 74/93/303
f 73/95/304 70/91/305 75/94/306
f 76/102/307 64/96/308 70/91/309 73/95/310
f 77/100/311 76/102/312 78/101/313 79/107/314
f 64/96/315 76/102/316 77/100/317 52/51/318
f 52/51/319 53/98/320 80/103/321
f 77/100/322 1/111/323 52/51/324
f 17/27/325 84/114/326 6/48/327 18/26/328
f 82/113/329 81/115/330 84/114/331 83/116/332
f 77/100/333 17/27/334 20/31/335 1/111/336
f 77/100/337 83/116/338 84/114/339 17/27/340
f 79/107/341 82/113/342 54/105/343 66/104/344
f 16/108/345 79/107/346 3/106/347 13/23/348
f 3/106/349 79/107/350 80/103/351 53/98/352
