# This file uses centimeters as units for non-parametric coordinates.

v -0.551846 -6.190533 -0.958377
v -0.284057 -6.190533 -1.226166
v -0.275950 9.571609 -1.226166
v -0.551846 9.571609 -0.950271
v 0.284057 -6.190533 -1.226166
v 0.551847 -6.190533 -0.958377
v 0.551847 9.571609 -0.950271
v 0.275951 9.571609 -1.226166
v -0.284057 -6.190533 1.226166
v -0.551846 -6.190533 0.958377
v -0.551846 9.571609 0.950271
v -0.275951 9.571609 1.226166
v 0.551847 -6.190533 0.958377
v 0.284057 -6.190533 1.226166
v 0.275951 9.571609 1.226166
v 0.551847 9.571609 0.950271
v 0.000000 -7.962485 -0.491780
v 0.000000 -7.962486 0.491780
v -0.232702 -7.962485 -0.378579
v 0.232703 -7.962485 -0.378579
v -0.232703 -7.962485 0.378579
v 0.232703 -7.962485 0.378579
v 0.070016 -8.865147 -0.378579
v 0.070016 -8.865148 0.378579
v -0.070015 -8.865148 0.378579
v -0.070015 -8.865147 -0.378579
v 0.131056 9.571609 0.512780
v 0.131056 9.571609 -0.512780
v -0.131056 9.571609 -0.512780
v -0.131056 9.571609 0.512780
vt 0.004991 0.375212
vt 0.005086 0.375226
vt 0.139483 0.469081
vt 0.139492 0.468282
vt 0.005671 0.380859
vt 0.004878 0.375226
vt 0.005013 0.375299
vt 0.139455 0.469081
vt 0.139466 0.468290
vt 0.007075 0.380873
vt 0.004943 0.375203
vt 0.005188 0.375228
vt 0.139481 0.469081
vt 0.139471 0.468254
vt 0.005646 0.381316
vt 0.004777 0.375205
vt 0.004875 0.375216
vt 0.005014 0.375294
vt 0.139452 0.469081
vt 0.139445 0.468262
vt 0.005249 0.381329
vt 0.139465 0.469081
vt 0.139484 0.468287
vt 0.139491 0.469081
vt 0.139482 0.468256
vt 0.139471 0.469081
vt 0.139453 0.468257
vt 0.139444 0.469081
vt 0.139455 0.468287
vt 0.004779 0.375213
vt 0.004830 0.375203
vt 0.004996 0.375204
vt 0.004939 0.375214
vt 0.004831 0.375214
vt 0.005423 0.380831
vt 0.005776 0.380930
vt 0.005501 0.381358
vt 0.005142 0.381258
vt 0.005999 0.375422
vt 0.005974 0.375422
vt 0.005999 0.375420
vt 0.005975 0.375420
vt 0.079610 0.324761
vt 0.080382 0.324779
vt 0.080417 0.324766
vt 0.079651 0.324749
vt 0.079517 0.323811
vt 0.079561 0.323820
vt 0.080340 0.323827
vt 0.080517 0.323820
vt 0.080459 0.323811
vt 0.079698 0.323804
vt 0.005195 0.381294
vt 0.006249 0.380852
vt 0.005723 0.380895
vt 0.005574 0.381337
vt 0.081883 0.325238
vt 0.080893 0.325163
vt 0.080916 0.324958
vt 0.081893 0.325031
vn -0.984165 -0.177257 -0.000000
vn -0.984165 -0.177257 -0.000000
vn -0.984165 -0.177257 -0.000000
vn -0.984165 -0.177257 -0.000000
vn -0.707107 0.000364 -0.707107
vn -0.707107 0.000364 -0.707107
vn -0.707107 0.000364 -0.707107
vn -0.707107 0.000364 -0.707107
vn 0.984165 -0.177257 0.000000
vn 0.984165 -0.177257 0.000000
vn 0.984165 -0.177257 0.000000
vn 0.984165 -0.177257 0.000000
vn 0.707107 0.000364 -0.707107
vn 0.707107 0.000364 -0.707107
vn 0.707107 0.000364 -0.707107
vn 0.707107 0.000364 -0.707107
vn -0.707107 0.000364 0.707107
vn -0.707107 0.000364 0.707107
vn -0.707107 0.000364 0.707107
vn -0.707107 0.000364 0.707107
vn 0.707107 0.000364 0.707107
vn 0.707107 0.000364 0.707107
vn 0.707107 0.000364 0.707107
vn 0.707107 0.000364 0.707107
vn 0.000000 1.000000 0.000000
vn 0.000000 1.000000 0.000001
vn 0.000000 1.000000 0.000000
vn 0.000000 1.000000 0.000002
vn 0.000000 0.000000 -1.000000
vn 0.000000 0.000000 -1.000000
vn 0.000000 0.000000 -1.000000
vn 0.000000 0.000000 -1.000000
vn -1.000000 0.000000 -0.000000
vn -1.000000 0.000000 -0.000000
vn -1.000000 0.000000 -0.000000
vn -1.000000 0.000000 -0.000000
vn 0.000000 0.000000 1.000000
vn 0.000000 0.000000 1.000000
vn 0.000000 0.000000 1.000000
vn 0.000000 0.000000 1.000000
vn 1.000000 0.000000 0.000000
vn 1.000000 0.000000 0.000000
vn 1.000000 0.000000 0.000000
vn 1.000000 0.000000 0.000000
vn 0.000000 -0.382870 0.923802
vn 0.000000 -0.382870 0.923802
vn 0.000000 -0.382870 0.923802
vn 0.000000 -0.382870 -0.923802
vn 0.000000 -0.382870 -0.923802
vn 0.000000 -0.382870 -0.923802
vn 0.562738 -0.369917 -0.739248
vn 0.562738 -0.369917 -0.739248
vn 0.562738 -0.369917 -0.739248
vn 0.562738 -0.369917 -0.739248
vn 0.562738 -0.369917 0.739248
vn 0.562738 -0.369917 0.739248
vn 0.562738 -0.369917 0.739248
vn 0.562738 -0.369917 0.739248
vn -0.562738 -0.369917 -0.739248
vn -0.562738 -0.369917 -0.739248
vn -0.562738 -0.369917 -0.739248
vn -0.562738 -0.369917 -0.739248
vn 0.000000 -1.000000 -0.000001
vn 0.000000 -1.000000 -0.000001
vn 0.000000 -1.000000 -0.000001
vn 0.000000 -1.000000 -0.000001
vn -0.562739 -0.369918 0.739247
vn -0.562739 -0.369918 0.739247
vn -0.562739 -0.369918 0.739247
vn -0.562739 -0.369918 0.739247
vn 0.436093 -0.078597 -0.896463
vn 0.436093 -0.078597 -0.896463
vn 0.436093 -0.078597 -0.896463
vn 0.984144 -0.177373 -0.000000
vn 0.984144 -0.177373 -0.000000
vn 0.984144 -0.177373 -0.000000
vn 0.984144 -0.177373 -0.000000
vn 0.000000 -0.124433 0.992228
vn 0.000000 -0.124433 0.992228
vn 0.000000 -0.124433 0.992228
vn -0.984144 -0.177373 -0.000000
vn -0.984144 -0.177373 -0.000000
vn -0.984144 -0.177373 -0.000000
vn -0.984144 -0.177373 -0.000000
vn -0.436093 -0.078597 -0.896463
vn -0.436093 -0.078597 -0.896463
vn -0.436093 -0.078597 -0.896463
vn 0.000000 -0.124433 -0.992228
vn 0.000000 -0.124433 -0.992228
vn 0.000000 -0.124433 -0.992228
vn 0.436092 -0.078597 0.896463
vn 0.436092 -0.078597 0.896463
vn 0.436092 -0.078597 0.896463
vn -0.436092 -0.078597 0.896463
vn -0.436092 -0.078597 0.896463
vn -0.436092 -0.078597 0.896463
vn 0.000000 1.000000 0.000001
vn 0.000000 1.000000 -0.000001
vn 0.000000 1.000000 0.000000
vn 0.000000 1.000000 -0.000001
vn 0.000000 1.000000 0.000000
vn 0.000000 1.000000 0.000001
vn 0.000000 1.000000 0.000000
vn 0.000000 1.000000 0.000000
vn 0.000000 1.000000 0.000000
vn 0.000000 1.000000 0.000001
vn 0.000000 1.000000 0.000000
vn 0.000000 1.000000 0.000000
vn 0.000000 1.000000 0.000000
vn 0.000000 1.000000 0.000001
vn 0.000000 1.000000 0.000000
vn 0.000000 1.000000 0.000000
vn 0.000000 1.000000 0.000000
vn 0.000000 1.000000 0.000000
vn 0.000000 1.000000 0.000000
vn 0.000000 1.000000 0.000002
vn 0.000000 1.000000 0.000000
vn 0.000000 1.000000 0.000000
vn 0.000000 1.000000 0.000002
vn 0.000000 1.000000 0.000002
vn 0.000000 1.000000 0.000002
vn 0.000000 1.000000 0.000001
vn 0.000000 1.000000 0.000000
vn 0.000000 1.000000 0.000002
s off
f 1/1/1 19/39/2 21/41/3 10/32/4
f 2/3/5 1/24/6 4/4/7 3/23/8
f 13/16/9 22/42/10 20/40/11 6/30/12
f 6/8/13 5/22/14 8/9/15 7/29/16
f 10/13/17 9/26/18 12/14/19 11/25/20
f 14/19/21 13/28/22 16/20/23 15/27/24
f 27/57/25 28/58/26 29/59/27 30/60/28
f 5/22/29 2/3/30 3/23/31 8/9/32
f 4/4/33 1/24/34 10/13/35 11/25/36
f 9/26/37 14/19/38 15/27/39 12/14/40
f 16/20/41 13/28/42 6/8/43 7/29/44
f 14/31/45 9/11/46 18/18/47
f 2/33/48 5/34/49 17/7/50
f 5/6/51 6/30/52 20/40/53 17/7/54
f 13/16/55 14/17/56 18/18/57 22/42/58
f 1/1/59 2/2/60 17/7/61 19/39/62
f 23/43/63 24/44/64 25/45/65 26/46/66
f 9/11/67 10/12/68 21/41/69 18/18/70
f 17/47/71 20/48/72 23/43/73
f 20/48/74 22/49/75 24/44/76 23/43/77
f 24/44/78 18/50/79 25/45/80
f 21/51/81 19/52/82 26/46/83 25/45/84
f 19/52/85 17/47/86 26/46/87
f 23/43/88 26/46/89 17/47/90
f 22/49/91 18/50/92 24/44/93
f 18/50/94 21/51/95 25/45/96
f 15/21/97 16/38/98 27/53/99
f 16/38/100 7/10/101 28/54/102 27/53/103
f 7/10/104 8/35/105 28/54/106
f 8/35/107 3/5/108 29/55/109 28/54/110
f 3/5/111 4/36/112 29/55/113
f 4/36/114 11/15/115 30/56/116 29/55/117
f 11/15/118 12/37/119 30/56/120
f 12/37/121 15/21/122 27/53/123 30/56/124
