# This file uses centimeters as units for non-parametric coordinates.

v 0.381199 -5.000000 -0.660256
v -0.381199 -5.000000 -0.660256
v -0.762398 -5.000000 -0.000000
v -0.381199 -5.000000 0.660256
v 0.381199 -5.000000 0.660256
v 0.762398 -5.000000 -0.000000
v 0.381199 5.000000 -0.660256
v -0.381199 5.000000 -0.660256
v -0.762398 5.000000 -0.000000
v -0.381199 5.000000 0.660256
v 0.381199 5.000000 0.660256
v 0.762398 5.000000 -0.000000
v 0.000000 -6.684333 -0.000000
v 0.968138 5.821151 -1.676864
v -0.968138 5.821151 -1.676865
v -1.936277 5.821151 -0.000000
v -0.968139 5.821151 1.676864
v 0.968138 5.821151 1.676864
v 1.936276 5.821151 0.000000
v 0.968138 5.000000 -1.676864
v -0.968138 5.000000 -1.676865
v -1.936277 5.000000 -0.000000
v -0.968139 5.000000 1.676864
v 0.968138 5.000000 1.676864
v 1.936276 5.000000 0.000000
vt 0.125048 0.377971
vt 0.125117 0.377972
vt 0.125123 0.377194
vt 0.125053 0.377193
vt 0.125153 0.377985
vt 0.125159 0.377205
vt 0.125118 0.377998
vt 0.125124 0.377217
vt 0.125048 0.377998
vt 0.125054 0.377216
vt 0.125013 0.377984
vt 0.125018 0.377205
vt 0.125011 0.377115
vt 0.125166 0.377116
vt 0.125244 0.377141
vt 0.125167 0.377166
vt 0.125012 0.377165
vt 0.124934 0.377140
vt 0.125082 0.378115
vt 0.125011 0.377179
vt 0.125165 0.377180
vt 0.125243 0.377206
vt 0.125167 0.377231
vt 0.125011 0.377230
vt 0.124934 0.377204
vn 0.000000 0.000000 -1.000000
vn 0.000000 0.000000 -1.000000
vn 0.000000 0.000000 -1.000000
vn 0.000000 0.000000 -1.000000
vn -0.866025 0.000000 -0.500000
vn -0.866025 0.000000 -0.500000
vn -0.866025 0.000000 -0.500000
vn -0.866025 0.000000 -0.500000
vn -0.866025 0.000000 0.500000
vn -0.866025 0.000000 0.500000
vn -0.866025 0.000000 0.500000
vn -0.866025 0.000000 0.500000
vn -0.000000 0.000000 1.000000
vn -0.000000 0.000000 1.000000
vn -0.000000 0.000000 1.000000
vn -0.000000 0.000000 1.000000
vn 0.866025 0.000000 0.500000
vn 0.866025 0.000000 0.500000
vn 0.866025 0.000000 0.500000
vn 0.866025 0.000000 0.500000
vn 0.866025 -0.000000 -0.500000
vn 0.866025 -0.000000 -0.500000
vn 0.866025 -0.000000 -0.500000
vn 0.866025 -0.000000 -0.500000
vn 0.000000 1.000000 0.000000
vn 0.000000 1.000000 0.000000
vn 0.000000 1.000000 0.000000
vn 0.000000 1.000000 0.000000
vn 0.806290 -0.364960 -0.465512
vn 0.806290 -0.364960 -0.465512
vn 0.806290 -0.364960 -0.465512
vn 0.806290 -0.364960 0.465512
vn 0.806290 -0.364960 0.465512
vn 0.806290 -0.364960 0.465512
vn -0.000000 -0.364960 0.931023
vn -0.000000 -0.364960 0.931023
vn -0.000000 -0.364960 0.931023
vn -0.806290 -0.364960 0.465512
vn -0.806290 -0.364960 0.465512
vn -0.806290 -0.364960 0.465512
vn -0.806290 -0.364960 -0.465512
vn -0.806290 -0.364960 -0.465512
vn -0.806290 -0.364960 -0.465512
vn 0.000000 -0.364960 -0.931023
vn 0.000000 -0.364960 -0.931023
vn 0.000000 -0.364960 -0.931023
vn 0.000000 0.000000 -1.000000
vn 0.000000 0.000000 -1.000000
vn 0.000000 0.000000 -1.000000
vn 0.000000 0.000000 -1.000000
vn -0.866025 0.000000 -0.500001
vn -0.866025 0.000000 -0.500001
vn -0.866025 0.000000 -0.500001
vn -0.866025 0.000000 -0.500001
vn -0.866025 0.000000 0.500000
vn -0.866025 0.000000 0.500000
vn -0.866025 0.000000 0.500000
vn -0.866025 0.000000 0.500000
vn 0.000000 0.000000 1.000000
vn 0.000000 0.000000 1.000000
vn 0.000000 0.000000 1.000000
vn 0.000000 0.000000 1.000000
vn 0.866025 0.000000 0.500000
vn 0.866025 0.000000 0.500000
vn 0.866025 0.000000 0.500000
vn 0.866025 0.000000 0.500000
vn 0.866025 0.000000 -0.500000
vn 0.866025 0.000000 -0.500000
vn 0.866025 0.000000 -0.500000
vn 0.866025 0.000000 -0.500000
vn 0.000000 -1.000000 0.000001
vn 0.000000 -1.000000 0.000001
vn 0.000000 -1.000000 0.000001
vn 0.000000 -1.000000 0.000001
vn 0.000000 -1.000000 0.000000
vn 0.000000 -1.000000 0.000000
vn 0.000000 -1.000000 0.000000
vn 0.000000 -1.000000 0.000000
vn 0.000000 -1.000000 0.000000
vn 0.000000 -1.000000 0.000000
vn 0.000000 -1.000000 0.000000
vn 0.000000 -1.000000 0.000000
vn 0.000000 -1.000000 0.000000
vn 0.000000 -1.000000 0.000000
vn 0.000000 -1.000000 0.000000
vn 0.000000 -1.000000 0.000000
vn 0.000000 -1.000000 0.000000
vn 0.000000 -1.000000 0.000000
vn 0.000000 -1.000000 0.000000
vn 0.000000 -1.000000 0.000000
vn 0.000000 -1.000000 0.000000
vn 0.000000 -1.000000 0.000000
vn 0.000000 -1.000000 0.000000
vn 0.000000 -1.000000 0.000000
vn 0.000000 1.000000 0.000000
vn 0.000000 1.000000 0.000000
vn 0.000000 1.000000 -0.000000
vn 0.000000 1.000000 -0.000000
s off
f 1/1/1 2/2/2 8/3/3 7/4/4
f 2/2/5 3/5/6 9/6/7 8/3/8
f 3/5/9 4/7/10 10/8/11 9/6/12
f 4/7/13 5/9/14 11/10/15 10/8/16
f 5/9/17 6/11/18 12/12/19 11/10/20
f 6/11/21 1/1/22 7/4/23 12/12/24
f 14/13/25 15/14/26 16/15/27 19/18/28
f 1/1/29 6/11/30 13/19/31
f 6/11/32 5/9/33 13/19/34
f 5/9/35 4/7/36 13/19/37
f 4/7/38 3/5/39 13/19/40
f 3/5/41 2/2/42 13/19/43
f 2/2/44 1/1/45 13/19/46
f 20/20/47 21/21/48 15/14/49 14/13/50
f 21/21/51 22/22/52 16/15/53 15/14/54
f 22/22/55 23/23/56 17/16/57 16/15/58
f 23/23/59 24/24/60 18/17/61 17/16/62
f 24/24/63 25/25/64 19/18/65 18/17/66
f 25/25/67 20/20/68 14/13/69 19/18/70
f 7/4/71 8/3/72 21/21/73 20/20/74
f 8/3/75 9/6/76 22/22/77 21/21/78
f 9/6/79 10/8/80 23/23/81 22/22/82
f 10/8/83 11/10/84 24/24/85 23/23/86
f 11/10/87 12/12/88 25/25/89 24/24/90
f 12/12/91 7/4/92 20/20/93 25/25/94
f 19/18/95 16/15/96 17/16/97 18/17/98
