# This file uses centimeters as units for non-parametric coordinates.

v -0.614635 -5.000004 0.614635
v 0.614576 -5.000004 0.614635
v 0.479057 5.073690 0.233808
v 1.612074 4.606636 0.329174
v 0.541019 4.974152 -0.989829
v 1.674035 4.507098 -0.894463
v -0.614635 -5.000004 -0.614606
v 0.614576 -5.000004 -0.614606
v -0.000030 -6.684333 0.000030
v 3.052672 4.906951 0.500393
v 1.978563 5.416234 1.514530
v 2.736927 4.150298 0.545956
v 1.662819 4.659580 1.560093
v 0.620341 5.976123 1.400208
v -0.342365 6.306461 0.214632
v -0.658110 5.549808 0.260195
v 0.304597 5.219470 1.445770
v 2.164228 5.117976 -2.151989
v 3.126946 4.787632 -0.966412
v 1.848482 4.361323 -2.106426
v 2.811203 4.030979 -0.920849
v -0.268090 6.187142 -1.252172
v 0.806005 5.677866 -2.266313
v -0.583836 5.430489 -1.206611
v 0.490260 4.921212 -2.220749
v 1.392290 5.547049 -0.375875
v -0.614651 1.096945 0.614635
v 0.614576 1.096945 0.614635
v -0.614651 1.096945 -0.614606
v 0.614561 1.096945 -0.614606
v -0.372026 2.786159 -0.858078
v 0.761003 2.319098 -0.762711
v -0.433988 2.885697 0.365559
v 0.699042 2.418637 0.460926
vt 0.124043 0.377073
vt 0.123909 0.377056
vt 0.123889 0.376410
vt 0.124045 0.376429
vt 0.124068 0.376304
vt 0.123915 0.376285
vt 0.123930 0.376940
vt 0.124063 0.376958
vt 0.123987 0.377098
vt 0.124038 0.376498
vt 0.124038 0.376560
vt 0.123848 0.376536
vt 0.123846 0.376475
vt 0.123728 0.376341
vt 0.123732 0.376404
vt 0.123764 0.376255
vt 0.123761 0.376191
vt 0.123922 0.376098
vt 0.123924 0.376162
vt 0.124106 0.376184
vt 0.124107 0.376120
vt 0.124227 0.376247
vt 0.124225 0.376310
vt 0.124200 0.376461
vt 0.124202 0.376399
vt 0.123979 0.376294
vt 0.124045 0.376680
vt 0.123897 0.376662
vt 0.124066 0.376559
vt 0.123921 0.376541
vt 0.124067 0.376459
vt 0.123918 0.376441
vt 0.124045 0.376582
vt 0.123894 0.376563
vn 0.000000 0.000000 1.000000
vn 0.000000 0.000000 1.000000
vn 0.000000 0.000000 1.000000
vn 0.000000 0.000000 1.000000
vn 0.050406 -0.080975 -0.995441
vn 0.050406 -0.080975 -0.995441
vn 0.050406 -0.080975 -0.995441
vn 0.050406 -0.080975 -0.995441
vn 1.000000 0.000001 -0.000006
vn 1.000000 0.000001 -0.000006
vn 1.000000 0.000001 -0.000006
vn 1.000000 0.000001 -0.000006
vn -1.000000 -0.000002 0.000000
vn -1.000000 -0.000002 0.000000
vn -1.000000 -0.000002 0.000000
vn -1.000000 -0.000002 0.000000
vn 0.000000 -0.342803 -0.939407
vn 0.000000 -0.342803 -0.939407
vn 0.000000 -0.342803 -0.939407
vn 0.939413 -0.342788 0.000000
vn 0.939413 -0.342788 0.000000
vn 0.939413 -0.342788 0.000000
vn 0.000000 -0.342788 0.939413
vn 0.000000 -0.342788 0.939413
vn 0.000000 -0.342788 0.939413
vn -0.939413 -0.342788 0.000000
vn -0.939413 -0.342788 0.000000
vn -0.939413 -0.342788 0.000000
vn -0.050407 0.080976 0.995441
vn -0.050407 0.080976 0.995441
vn -0.050407 0.080976 0.995441
vn -0.050407 0.080976 0.995441
vn 0.921742 -0.379963 0.077583
vn 0.921742 -0.379963 0.077583
vn 0.921742 -0.379963 0.077583
vn 0.921742 -0.379963 0.077583
vn 0.050407 -0.080976 -0.995441
vn 0.050407 -0.080976 -0.995441
vn 0.050407 -0.080976 -0.995441
vn 0.050407 -0.080976 -0.995441
vn -0.921742 0.379963 -0.077583
vn -0.921742 0.379963 -0.077583
vn -0.921742 0.379963 -0.077583
vn -0.921742 0.379963 -0.077583
vn -0.384513 -0.921451 0.055485
vn -0.384513 -0.921451 0.055485
vn -0.384513 -0.921451 0.055485
vn -0.384513 -0.921451 0.055485
vn -0.384513 -0.921451 0.055486
vn -0.384513 -0.921451 0.055486
vn -0.384513 -0.921451 0.055486
vn -0.384513 -0.921451 0.055486
vn -0.384512 -0.921451 0.055486
vn -0.384512 -0.921451 0.055486
vn -0.384512 -0.921451 0.055486
vn -0.384512 -0.921451 0.055486
vn -0.384512 -0.921451 0.055486
vn -0.384512 -0.921451 0.055486
vn -0.384512 -0.921451 0.055486
vn -0.384512 -0.921451 0.055486
vn 0.616132 -0.211419 0.758738
vn 0.616132 -0.211419 0.758738
vn 0.616132 -0.211419 0.758738
vn 0.616132 -0.211419 0.758738
vn -0.687421 0.325935 0.649013
vn -0.687421 0.325935 0.649013
vn -0.687421 0.325935 0.649013
vn -0.687421 0.325935 0.649013
vn 0.687417 -0.325935 -0.649018
vn 0.687417 -0.325935 -0.649018
vn 0.687417 -0.325935 -0.649018
vn 0.687417 -0.325935 -0.649018
vn -0.616137 0.211421 -0.758734
vn -0.616137 0.211421 -0.758734
vn -0.616137 0.211421 -0.758734
vn -0.616137 0.211421 -0.758734
vn -0.384513 -0.921450 0.055485
vn -0.384513 -0.921450 0.055485
vn -0.384513 -0.921450 0.055485
vn -0.384513 -0.921451 0.055485
vn -0.384513 -0.921451 0.055485
vn -0.384513 -0.921451 0.055485
vn -0.384513 -0.921450 0.055487
vn -0.384513 -0.921450 0.055487
vn -0.384513 -0.921450 0.055487
vn -0.384512 -0.921451 0.055486
vn -0.384512 -0.921451 0.055486
vn -0.384512 -0.921451 0.055486
vn 0.384512 0.921451 -0.055486
vn 0.384512 0.921451 -0.055486
vn 0.384512 0.921451 -0.055486
vn 0.384513 0.921451 -0.055485
vn 0.384513 0.921451 -0.055485
vn 0.384513 0.921451 -0.055485
vn 0.384513 0.921451 -0.055485
vn 0.384513 0.921451 -0.055485
vn 0.384513 0.921451 -0.055485
vn 0.384513 0.921450 -0.055486
vn 0.384513 0.921450 -0.055486
vn 0.384513 0.921450 -0.055486
vn 0.384513 0.921451 -0.055486
vn 0.384513 0.921451 -0.055486
vn 0.384513 0.921451 -0.055486
vn 0.384513 0.921451 -0.055487
vn 0.384513 0.921451 -0.055487
vn 0.384513 0.921451 -0.055487
vn 0.384513 0.921451 -0.055486
vn 0.384513 0.921451 -0.055486
vn 0.384513 0.921451 -0.055486
vn 0.384512 0.921451 -0.055486
vn 0.384512 0.921451 -0.055486
vn 0.384512 0.921451 -0.055486
vn -0.014399 0.129616 0.991460
vn -0.014399 0.129616 0.991460
vn -0.014399 0.129616 0.991460
vn -0.014399 0.129616 0.991460
vn 0.000000 0.000000 -1.000000
vn 0.000000 0.000000 -1.000000
vn 0.000000 0.000000 -1.000000
vn 0.000000 0.000000 -1.000000
vn 0.995797 -0.086988 0.028679
vn 0.995797 -0.086988 0.028679
vn 0.995797 -0.086988 0.028679
vn 0.995797 -0.086988 0.028679
vn -0.992732 0.116599 -0.029809
vn -0.992732 0.116599 -0.029809
vn -0.992732 0.116599 -0.029809
vn -0.992732 0.116599 -0.029809
vn 0.013300 -0.135033 -0.990752
vn 0.013300 -0.135033 -0.990752
vn 0.013300 -0.135033 -0.990752
vn 0.013300 -0.135033 -0.990752
vn -0.050407 0.080975 0.995441
vn -0.050407 0.080975 0.995441
vn -0.050407 0.080975 0.995441
vn -0.050407 0.080975 0.995441
vn 0.921743 -0.379963 0.077583
vn 0.921743 -0.379963 0.077583
vn 0.921743 -0.379963 0.077583
vn 0.921743 -0.379963 0.077583
vn -0.921740 0.379969 -0.077584
vn -0.921740 0.379969 -0.077584
vn -0.921740 0.379969 -0.077584
vn -0.921740 0.379969 -0.077584
s off
f 1/1/1 2/2/2 28/28/3 27/27/4
f 5/5/5 6/6/6 32/32/7 31/31/8
f 2/2/9 8/7/10 30/30/11 28/28/12
f 7/8/13 1/1/14 27/27/15 29/29/16
f 7/8/17 8/7/18 9/9/19
f 8/7/20 2/2/21 9/9/22
f 2/2/23 1/1/24 9/9/25
f 1/1/26 7/8/27 9/9/28
f 14/10/29 17/11/30 13/12/31 11/13/32
f 10/14/33 12/15/34 21/16/35 19/17/36
f 18/18/37 20/19/38 25/20/39 23/21/40
f 22/22/41 24/23/42 16/24/43 15/25/44
f 3/4/45 4/3/46 13/12/47 17/11/48
f 4/3/49 6/6/50 21/16/51 12/15/52
f 6/6/53 5/5/54 25/20/55 20/19/56
f 5/5/57 3/4/58 16/24/59 24/23/60
f 10/14/61 11/13/62 13/12/63 12/15/64
f 14/10/65 15/25/66 16/24/67 17/11/68
f 18/18/69 19/17/70 21/16/71 20/19/72
f 22/22/73 23/21/74 25/20/75 24/23/76
f 12/15/77 13/12/78 4/3/79
f 16/24/80 3/4/81 17/11/82
f 20/19/83 21/16/84 6/6/85
f 24/23/86 25/20/87 5/5/88
f 15/25/89 14/10/90 26/26/91
f 14/10/92 11/13/93 26/26/94
f 11/13/95 10/14/96 26/26/97
f 10/14/98 19/17/99 26/26/100
f 19/17/101 18/18/102 26/26/103
f 18/18/104 23/21/105 26/26/106
f 23/21/107 22/22/108 26/26/109
f 22/22/110 15/25/111 26/26/112
f 27/27/113 28/28/114 34/34/115 33/33/116
f 29/29/117 30/30/118 8/7/119 7/8/120
f 28/28/121 30/30/122 32/32/123 34/34/124
f 29/29/125 27/27/126 33/33/127 31/31/128
f 31/31/129 32/32/130 30/30/131 29/29/132
f 33/33/133 34/34/134 4/3/135 3/4/136
f 34/34/137 32/32/138 6/6/139 4/3/140
f 31/31/141 33/33/142 3/4/143 5/5/144
