# This file uses centimeters as units for non-parametric coordinates.

v -0.381091 -5.000000 -0.660256
v 0.381091 -5.000000 -0.660256
v 0.762182 -5.000000 -0.000000
v 0.381091 -5.000000 0.660256
v -0.381091 -5.000000 0.660256
v -0.762182 -5.000000 -0.000000
v -0.381091 5.000000 -0.660256
v 0.381091 5.000000 -0.660256
v 0.762182 5.000000 -0.000000
v 0.381091 5.000000 0.660256
v -0.381091 5.000000 0.660256
v -0.762182 5.000000 -0.000000
v -0.000000 -6.684333 -0.000000
v -0.967865 5.821151 -1.676864
v 0.967864 5.821151 -1.676865
v 1.935729 5.821151 -0.000000
v 0.967865 5.821151 1.676864
v -0.967864 5.821151 1.676864
v -1.935729 5.821151 0.000000
v -0.967865 5.000000 -1.676864
v 0.967864 5.000000 -1.676865
v 1.935729 5.000000 -0.000000
v 0.967865 5.000000 1.676864
v -0.967864 5.000000 1.676864
v -1.935729 5.000000 0.000000
v 0.000000 5.821151 -0.000000
v -1.130944 -4.166667 0.000000
v -0.556904 -3.333333 -0.000000
v -1.130944 -2.500000 0.000000
v -0.556904 -1.666666 -0.000000
v -1.130944 -0.833333 0.000000
v -0.556904 0.000000 -0.000000
v -0.762182 0.833333 -0.000000
v -0.278452 -4.166667 0.482429
v -0.565472 -3.333333 0.979703
v -0.278452 -2.500000 0.482429
v -0.565472 -1.666666 0.979704
v -0.278452 -0.833333 0.482429
v -0.565472 0.000000 0.979703
v -0.381091 0.833333 0.660256
v 0.565472 -4.166667 0.979703
v 0.278452 -3.333333 0.482429
v 0.565472 -2.500000 0.979703
v 0.278452 -1.666666 0.482429
v 0.565472 -0.833333 0.979703
v 0.278452 0.000000 0.482429
v 0.381091 0.833333 0.660256
v 0.556904 -4.166667 -0.000000
v 1.130944 -3.333333 -0.000000
v 0.556904 -2.500000 -0.000000
v 1.130944 -1.666666 -0.000000
v 0.556904 -0.833333 -0.000000
v 1.130944 0.000000 -0.000000
v 0.762182 0.833333 -0.000000
v 0.565472 -4.166667 -0.979703
v 0.278452 -3.333333 -0.482430
v 0.565472 -2.500000 -0.979703
v 0.278452 -1.666666 -0.482430
v 0.565472 -0.833333 -0.979703
v 0.278452 0.000000 -0.482430
v 0.381091 0.833333 -0.660256
v -0.278452 -4.166667 -0.482430
v -0.565472 -3.333333 -0.979704
v -0.278452 -2.500000 -0.482430
v -0.565472 -1.666666 -0.979703
v -0.278452 -0.833333 -0.482430
v -0.565472 0.000000 -0.979704
v -0.381091 0.833333 -0.660256
vt 0.095166 0.378134
vt 0.095235 0.378135
vt 0.095241 0.377357
vt 0.095171 0.377356
vt 0.095271 0.378148
vt 0.095277 0.377369
vt 0.095236 0.378161
vt 0.095242 0.377380
vt 0.095166 0.378161
vt 0.095172 0.377380
vt 0.095131 0.378147
vt 0.095136 0.377368
vt 0.095129 0.377278
vt 0.095284 0.377279
vt 0.095362 0.377305
vt 0.095285 0.377330
vt 0.095130 0.377329
vt 0.095052 0.377303
vt 0.095200 0.378278
vt 0.095129 0.377342
vt 0.095283 0.377343
vt 0.095361 0.377369
vt 0.095285 0.377394
vt 0.095129 0.377393
vt 0.095052 0.377367
vt 0.077409 0.377304
vt 0.095131 0.378082
vt 0.095132 0.378017
vt 0.095132 0.377953
vt 0.095133 0.377888
vt 0.095133 0.377823
vt 0.095133 0.377758
vt 0.095134 0.377693
vt 0.095166 0.378096
vt 0.095167 0.378031
vt 0.095167 0.377966
vt 0.095168 0.377901
vt 0.095168 0.377835
vt 0.095169 0.377770
vt 0.095169 0.377705
vt 0.095236 0.378096
vt 0.095237 0.378031
vt 0.095238 0.377966
vt 0.095238 0.377901
vt 0.095239 0.377836
vt 0.095239 0.377771
vt 0.095240 0.377706
vt 0.095271 0.378083
vt 0.095272 0.378018
vt 0.095272 0.377953
vt 0.095273 0.377888
vt 0.095273 0.377823
vt 0.095274 0.377759
vt 0.095274 0.377694
vt 0.095236 0.378070
vt 0.095236 0.378005
vt 0.095237 0.377940
vt 0.095237 0.377876
vt 0.095238 0.377811
vt 0.095238 0.377746
vt 0.095239 0.377681
vt 0.095166 0.378070
vt 0.095167 0.378005
vt 0.095167 0.377940
vt 0.095167 0.377875
vt 0.095168 0.377810
vt 0.095168 0.377745
vt 0.095169 0.377681
vn -0.000000 0.208693 -0.977981
vn -0.000000 0.208693 -0.977981
vn -0.000000 0.208693 -0.977981
vn -0.462350 -0.412979 -0.784654
vn -0.462350 -0.412979 -0.784654
vn -0.462350 -0.412979 -0.784654
vn -0.462350 -0.412979 -0.784654
vn 0.808726 -0.357873 -0.466786
vn 0.808726 -0.357873 -0.466786
vn 0.808726 -0.357873 -0.466786
vn 0.959681 0.280965 0.008393
vn 0.959681 0.280965 0.008393
vn 0.959681 0.280965 0.008393
vn 0.959681 0.280965 0.008393
vn 0.847024 0.208651 0.488891
vn 0.847024 0.208651 0.488891
vn 0.847024 0.208651 0.488891
vn 0.910738 -0.412907 -0.007965
vn 0.910738 -0.412907 -0.007965
vn 0.910738 -0.412907 -0.007965
vn 0.910738 -0.412907 -0.007965
vn 0.000000 -0.357939 0.933745
vn 0.000000 -0.357939 0.933745
vn 0.000000 -0.357939 0.933745
vn -0.487205 0.281020 0.826837
vn -0.487205 0.281020 0.826837
vn -0.487205 0.281020 0.826837
vn -0.487205 0.281020 0.826837
vn -0.847024 0.208651 0.488891
vn -0.847024 0.208651 0.488891
vn -0.847024 0.208651 0.488891
vn -0.448549 -0.412980 0.792623
vn -0.448549 -0.412980 0.792623
vn -0.448549 -0.412980 0.792623
vn -0.448549 -0.412980 0.792623
vn -0.808726 -0.357873 -0.466786
vn -0.808726 -0.357873 -0.466786
vn -0.808726 -0.357873 -0.466786
vn -0.472663 0.281021 -0.835234
vn -0.472663 0.281021 -0.835234
vn -0.472663 0.281021 -0.835234
vn -0.472663 0.281021 -0.835234
vn -0.806370 -0.364893 -0.465426
vn -0.806370 -0.364893 -0.465426
vn -0.806370 -0.364893 -0.465426
vn -0.806370 -0.364893 0.465426
vn -0.806370 -0.364893 0.465426
vn -0.806370 -0.364893 0.465426
vn 0.000000 -0.364960 0.931023
vn 0.000000 -0.364960 0.931023
vn 0.000000 -0.364960 0.931023
vn 0.806370 -0.364893 0.465426
vn 0.806370 -0.364893 0.465426
vn 0.806370 -0.364893 0.465426
vn 0.806370 -0.364893 -0.465426
vn 0.806370 -0.364893 -0.465426
vn 0.806370 -0.364893 -0.465426
vn -0.000000 -0.364960 -0.931023
vn -0.000000 -0.364960 -0.931023
vn -0.000000 -0.364960 -0.931023
vn -0.000000 0.000000 -1.000000
vn -0.000000 0.000000 -1.000000
vn -0.000000 0.000000 -1.000000
vn -0.000000 0.000000 -1.000000
vn 0.866086 0.000000 -0.499894
vn 0.866086 0.000000 -0.499894
vn 0.866086 0.000000 -0.499894
vn 0.866086 0.000000 -0.499894
vn 0.866087 0.000000 0.499894
vn 0.866087 0.000000 0.499894
vn 0.866087 0.000000 0.499894
vn 0.866087 0.000000 0.499894
vn 0.000000 0.000000 1.000000
vn 0.000000 0.000000 1.000000
vn 0.000000 0.000000 1.000000
vn 0.000000 0.000000 1.000000
vn -0.866086 0.000000 0.499894
vn -0.866086 0.000000 0.499894
vn -0.866086 0.000000 0.499894
vn -0.866086 0.000000 0.499894
vn -0.866087 0.000000 -0.499894
vn -0.866087 0.000000 -0.499894
vn -0.866087 0.000000 -0.499894
vn -0.866087 0.000000 -0.499894
vn 0.000000 -1.000000 0.000000
vn 0.000000 -1.000000 0.000000
vn 0.000000 -1.000000 0.000000
vn 0.000000 -1.000000 0.000000
vn 0.000000 -1.000000 0.000000
vn 0.000000 -1.000000 0.000000
vn 0.000000 -1.000000 0.000000
vn 0.000000 -1.000000 0.000000
vn 0.000000 -1.000000 0.000000
vn 0.000000 -1.000000 0.000000
vn 0.000000 -1.000000 0.000000
vn 0.000000 -1.000000 0.000000
vn 0.000000 -1.000000 -0.000000
vn 0.000000 -1.000000 -0.000000
vn 0.000000 -1.000000 -0.000000
vn 0.000000 -1.000000 -0.000000
vn 0.000000 -1.000000 -0.000000
vn 0.000000 -1.000000 -0.000000
vn 0.000000 -1.000000 -0.000000
vn 0.000000 -1.000000 -0.000000
vn 0.000000 -1.000000 0.000000
vn 0.000000 -1.000000 0.000000
vn 0.000000 -1.000000 0.000000
vn 0.000000 -1.000000 0.000000
vn -0.000000 1.000000 0.000000
vn -0.000000 1.000000 0.000000
vn -0.000000 1.000000 0.000000
vn 0.000000 1.000000 -0.000000
vn 0.000000 1.000000 -0.000000
vn 0.000000 1.000000 -0.000000
vn -0.000000 1.000000 0.000001
vn -0.000000 1.000000 0.000001
vn -0.000000 1.000000 0.000001
vn 0.000000 1.000000 0.000001
vn 0.000000 1.000000 0.000001
vn 0.000000 1.000000 0.000001
vn 0.000000 1.000000 -0.000000
vn 0.000000 1.000000 -0.000000
vn 0.000000 1.000000 -0.000000
vn -0.000000 1.000000 -0.000001
vn -0.000000 1.000000 -0.000001
vn -0.000000 1.000000 -0.000001
vn -0.866087 -0.000000 -0.499894
vn -0.866087 -0.000000 -0.499894
vn -0.866087 -0.000000 -0.499894
vn -0.866087 -0.000000 -0.499894
vn -0.808726 0.357873 -0.466786
vn -0.808726 0.357873 -0.466786
vn -0.808726 0.357873 -0.466786
vn -0.959681 -0.280966 0.008393
vn -0.959681 -0.280966 0.008393
vn -0.959681 -0.280966 0.008393
vn -0.959681 -0.280966 0.008393
vn -0.438014 0.457230 -0.774006
vn -0.438014 0.457230 -0.774006
vn -0.438014 0.457230 -0.774006
vn -0.438014 0.457230 -0.774006
vn -0.889355 -0.457152 0.007778
vn -0.889355 -0.457152 0.007778
vn -0.889355 -0.457152 0.007778
vn -0.889355 -0.457152 0.007778
vn -0.438014 0.457229 -0.774006
vn -0.438014 0.457229 -0.774006
vn -0.438014 0.457229 -0.774006
vn -0.438014 0.457229 -0.774006
vn -0.889355 -0.457152 0.007778
vn -0.889355 -0.457152 0.007778
vn -0.889355 -0.457152 0.007778
vn -0.889355 -0.457152 0.007778
vn -0.866087 0.000000 0.499894
vn -0.866087 0.000000 0.499894
vn -0.866087 0.000000 0.499894
vn -0.866087 0.000000 0.499894
vn -0.847024 -0.208651 0.488891
vn -0.847024 -0.208651 0.488891
vn -0.847024 -0.208651 0.488891
vn -0.910738 0.412907 -0.007965
vn -0.910738 0.412907 -0.007965
vn -0.910738 0.412907 -0.007965
vn -0.910738 0.412907 -0.007965
vn -0.438014 -0.457230 0.774006
vn -0.438014 -0.457230 0.774006
vn -0.438014 -0.457230 0.774006
vn -0.438014 -0.457230 0.774006
vn -0.889355 0.457152 -0.007778
vn -0.889355 0.457152 -0.007778
vn -0.889355 0.457152 -0.007778
vn -0.889355 0.457152 -0.007778
vn -0.438014 -0.457229 0.774006
vn -0.438014 -0.457229 0.774006
vn -0.438014 -0.457229 0.774006
vn -0.438014 -0.457229 0.774006
vn -0.889355 0.457152 -0.007778
vn -0.889355 0.457152 -0.007778
vn -0.889355 0.457152 -0.007778
vn -0.889355 0.457152 -0.007778
vn 0.000000 0.000000 1.000000
vn 0.000000 0.000000 1.000000
vn 0.000000 0.000000 1.000000
vn 0.000000 0.000000 1.000000
vn 0.000000 0.357939 0.933745
vn 0.000000 0.357939 0.933745
vn 0.000000 0.357939 0.933745
vn 0.487205 -0.281020 0.826837
vn 0.487205 -0.281020 0.826837
vn 0.487205 -0.281020 0.826837
vn 0.487205 -0.281020 0.826837
vn -0.451490 0.457228 0.766224
vn -0.451490 0.457228 0.766224
vn -0.451490 0.457228 0.766224
vn -0.451490 0.457228 0.766224
vn 0.451490 -0.457228 0.766224
vn 0.451490 -0.457228 0.766224
vn 0.451490 -0.457228 0.766224
vn 0.451490 -0.457228 0.766224
vn -0.451490 0.457228 0.766224
vn -0.451490 0.457228 0.766224
vn -0.451490 0.457228 0.766224
vn -0.451490 0.457228 0.766224
vn 0.451490 -0.457228 0.766224
vn 0.451490 -0.457228 0.766224
vn 0.451490 -0.457228 0.766224
vn 0.451490 -0.457228 0.766224
vn 0.866087 -0.000000 0.499894
vn 0.866087 -0.000000 0.499894
vn 0.866087 -0.000000 0.499894
vn 0.866087 -0.000000 0.499894
vn 0.847024 -0.208651 0.488891
vn 0.847024 -0.208651 0.488891
vn 0.847024 -0.208651 0.488891
vn 0.448549 0.412981 0.792623
vn 0.448549 0.412981 0.792623
vn 0.448549 0.412981 0.792623
vn 0.448549 0.412981 0.792623
vn 0.889355 -0.457152 -0.007778
vn 0.889355 -0.457152 -0.007778
vn 0.889355 -0.457152 -0.007778
vn 0.889355 -0.457152 -0.007778
vn 0.438014 0.457229 0.774006
vn 0.438014 0.457229 0.774006
vn 0.438014 0.457229 0.774006
vn 0.438014 0.457229 0.774006
vn 0.889355 -0.457152 -0.007778
vn 0.889355 -0.457152 -0.007778
vn 0.889355 -0.457152 -0.007778
vn 0.889355 -0.457152 -0.007778
vn 0.438014 0.457229 0.774006
vn 0.438014 0.457229 0.774006
vn 0.438014 0.457229 0.774006
vn 0.438014 0.457229 0.774006
vn 0.866087 0.000000 -0.499894
vn 0.866087 0.000000 -0.499894
vn 0.866087 0.000000 -0.499894
vn 0.866087 0.000000 -0.499894
vn 0.808726 0.357873 -0.466786
vn 0.808726 0.357873 -0.466786
vn 0.808726 0.357873 -0.466786
vn 0.472663 -0.281021 -0.835234
vn 0.472663 -0.281021 -0.835234
vn 0.472663 -0.281021 -0.835234
vn 0.472663 -0.281021 -0.835234
vn 0.889355 0.457152 0.007778
vn 0.889355 0.457152 0.007778
vn 0.889355 0.457152 0.007778
vn 0.889355 0.457152 0.007778
vn 0.438014 -0.457229 -0.774006
vn 0.438014 -0.457229 -0.774006
vn 0.438014 -0.457229 -0.774006
vn 0.438014 -0.457229 -0.774006
vn 0.889355 0.457152 0.007778
vn 0.889355 0.457152 0.007778
vn 0.889355 0.457152 0.007778
vn 0.889355 0.457152 0.007778
vn 0.438014 -0.457229 -0.774006
vn 0.438014 -0.457229 -0.774006
vn 0.438014 -0.457229 -0.774006
vn 0.438014 -0.457229 -0.774006
vn -0.000000 0.000000 -1.000000
vn -0.000000 0.000000 -1.000000
vn -0.000000 0.000000 -1.000000
vn -0.000000 0.000000 -1.000000
vn -0.000000 -0.208693 -0.977981
vn -0.000000 -0.208693 -0.977981
vn -0.000000 -0.208693 -0.977981
vn 0.462349 0.412979 -0.784654
vn 0.462349 0.412979 -0.784654
vn 0.462349 0.412979 -0.784654
vn 0.462349 0.412979 -0.784654
vn -0.451490 -0.457228 -0.766224
vn -0.451490 -0.457228 -0.766224
vn -0.451490 -0.457228 -0.766224
vn -0.451490 -0.457228 -0.766224
vn 0.451490 0.457228 -0.766224
vn 0.451490 0.457228 -0.766224
vn 0.451490 0.457228 -0.766224
vn 0.451490 0.457228 -0.766224
vn -0.451490 -0.457228 -0.766224
vn -0.451490 -0.457228 -0.766224
vn -0.451490 -0.457228 -0.766224
vn -0.451490 -0.457228 -0.766224
vn 0.451490 0.457228 -0.766224
vn 0.451490 0.457228 -0.766224
vn 0.451490 0.457228 -0.766224
vn 0.451490 0.457228 -0.766224
s off
f 1/1/1 62/62/2 2/2/3
f 62/62/4 63/63/5 55/55/6 2/2/7
f 2/2/8 55/55/9 3/5/10
f 55/55/11 56/56/12 48/48/13 3/5/14
f 3/5/15 48/48/16 4/7/17
f 48/48/18 49/49/19 41/41/20 4/7/21
f 4/7/22 41/41/23 5/9/24
f 41/41/25 42/42/26 34/34/27 5/9/28
f 5/9/29 34/34/30 6/11/31
f 34/34/32 35/35/33 27/27/34 6/11/35
f 6/11/36 27/27/37 1/1/38
f 27/27/39 28/28/40 62/62/41 1/1/42
f 1/1/43 13/19/44 6/11/45
f 6/11/46 13/19/47 5/9/48
f 5/9/49 13/19/50 4/7/51
f 4/7/52 13/19/53 3/5/54
f 3/5/55 13/19/56 2/2/57
f 2/2/58 13/19/59 1/1/60
f 20/20/61 14/13/62 15/14/63 21/21/64
f 21/21/65 15/14/66 16/15/67 22/22/68
f 22/22/69 16/15/70 17/16/71 23/23/72
f 23/23/73 17/16/74 18/17/75 24/24/76
f 24/24/77 18/17/78 19/18/79 25/25/80
f 25/25/81 19/18/82 14/13/83 20/20/84
f 7/4/85 20/20/86 21/21/87 8/3/88
f 8/3/89 21/21/90 22/22/91 9/6/92
f 9/6/93 22/22/94 23/23/95 10/8/96
f 10/8/97 23/23/98 24/24/99 11/10/100
f 11/10/101 24/24/102 25/25/103 12/12/104
f 12/12/105 25/25/106 20/20/107 7/4/108
f 14/13/109 26/26/110 15/14/111
f 15/14/112 26/26/113 16/15/114
f 19/18/115 26/26/116 14/13/117
f 16/15/118 26/26/119 17/16/120
f 17/16/121 26/26/122 18/17/123
f 18/17/124 26/26/125 19/18/126
f 33/33/127 12/12/128 7/4/129 68/68/130
f 33/33/131 68/68/132 67/67/133
f 32/32/134 33/33/135 67/67/136 66/66/137
f 31/31/138 32/32/139 66/66/140 65/65/141
f 30/30/142 31/31/143 65/65/144 64/64/145
f 29/29/146 30/30/147 64/64/148 63/63/149
f 28/28/150 29/29/151 63/63/152 62/62/153
f 40/40/154 11/10/155 12/12/156 33/33/157
f 40/40/158 33/33/159 32/32/160
f 39/39/161 40/40/162 32/32/163 31/31/164
f 38/38/165 39/39/166 31/31/167 30/30/168
f 37/37/169 38/38/170 30/30/171 29/29/172
f 36/36/173 37/37/174 29/29/175 28/28/176
f 35/35/177 36/36/178 28/28/179 27/27/180
f 47/47/181 10/8/182 11/10/183 40/40/184
f 47/47/185 40/40/186 39/39/187
f 46/46/188 47/47/189 39/39/190 38/38/191
f 45/45/192 46/46/193 38/38/194 37/37/195
f 44/44/196 45/45/197 37/37/198 36/36/199
f 43/43/200 44/44/201 36/36/202 35/35/203
f 42/42/204 43/43/205 35/35/206 34/34/207
f 54/54/208 9/6/209 10/8/210 47/47/211
f 54/54/212 47/47/213 46/46/214
f 53/53/215 54/54/216 46/46/217 45/45/218
f 52/52/219 53/53/220 45/45/221 44/44/222
f 51/51/223 52/52/224 44/44/225 43/43/226
f 50/50/227 51/51/228 43/43/229 42/42/230
f 49/49/231 50/50/232 42/42/233 41/41/234
f 61/61/235 8/3/236 9/6/237 54/54/238
f 61/61/239 54/54/240 53/53/241
f 60/60/242 61/61/243 53/53/244 52/52/245
f 59/59/246 60/60/247 52/52/248 51/51/249
f 58/58/250 59/59/251 51/51/252 50/50/253
f 57/57/254 58/58/255 50/50/256 49/49/257
f 56/56/258 57/57/259 49/49/260 48/48/261
f 7/4/262 8/3/263 61/61/264 68/68/265
f 68/68/266 61/61/267 60/60/268
f 67/67/269 68/68/270 60/60/271 59/59/272
f 66/66/273 67/67/274 59/59/275 58/58/276
f 65/65/277 66/66/278 58/58/279 57/57/280
f 64/64/281 65/65/282 57/57/283 56/56/284
f 63/63/285 64/64/286 56/56/287 55/55/288
