# This file uses centimeters as units for non-parametric coordinates.

v 1.022375 2.513840 -10.552740
v -1.022350 2.513840 -10.552740
v -2.044699 0.000000 -10.552740
v -1.022350 -2.513840 -10.552740
v 1.022375 -2.513840 -10.552740
v 2.044699 0.000000 -10.552740
v 0.855720 2.104098 26.874535
v -0.855695 2.104098 26.874535
v -1.711439 0.000000 26.874537
v -0.855695 -2.104099 26.874537
v 0.855720 -2.104099 26.874537
v 1.711439 0.000000 26.874537
v 1.022375 2.513840 8.661732
v 2.044699 0.000000 8.661731
v 1.022375 -2.513840 8.661732
v -1.022350 -2.513840 8.661731
v -2.044699 0.000000 8.661731
v -1.022350 2.513840 8.661731
v 0.657652 1.617029 37.263809
v -0.657627 1.617029 37.263813
v -1.315255 0.000000 37.263809
v -0.657627 -1.617029 37.263809
v 0.657652 -1.617029 37.263809
v 1.315255 0.000000 37.263809
v 0.657652 1.617029 36.343094
v -0.657627 1.617029 36.343094
v -1.315255 0.000000 36.343090
v -0.657627 -1.617029 36.343090
v 0.657652 -1.617029 36.343090
v 1.315255 0.000000 36.343090
v -3.155951 -3.645103 36.475632
v 3.155951 -3.645103 36.475632
v -3.155951 3.645103 36.475632
v 3.155951 3.645103 36.475632
v -3.155951 3.645103 27.493364
v 3.155951 3.645103 27.493364
v -3.155951 -3.645103 27.493364
v 3.155951 -3.645103 27.493364
v -1.623309 5.497859 34.280289
v 1.649727 5.497859 34.280289
v 1.649727 5.497859 29.688707
v -1.623309 5.497859 29.688707
v -2.245026 -6.622558 28.835039
v 2.245026 -6.622558 28.835039
v 2.245026 -6.622558 35.133957
v -2.245026 -6.622558 35.133957
v -3.847513 6.597237 33.625504
v -1.623383 5.497949 34.280388
v -1.456732 6.597237 36.016273
v 0.129067 10.470600 31.984499
v 1.714867 6.597237 36.016273
v 1.649776 5.497949 34.280388
v 4.105623 6.597237 33.625504
v 4.105623 6.597237 30.343493
v 1.649776 5.497949 29.688612
v 1.714867 6.597237 27.952726
v -1.456732 6.597237 27.952726
v -1.623383 5.497949 29.688612
v -3.847513 6.597237 30.343493
v -4.300574 -7.580187 30.156523
v -2.245126 -6.622654 28.834906
v -1.637397 -7.580187 27.493364
v -4.300574 -12.551486 30.156523
v -1.637397 -12.551486 27.493364
v 1.895531 -7.580187 27.493364
v 2.245126 -6.622654 28.834906
v 4.558709 -7.580187 30.156523
v 4.558709 -12.551486 30.156523
v 1.895531 -12.551486 27.493364
v 4.558709 -7.580187 33.812477
v 2.245126 -6.622654 35.134094
v 1.895531 -7.580187 36.475632
v 1.895531 -12.551486 36.475632
v 4.558709 -12.551486 33.812477
v -1.637397 -7.580187 36.475632
v -2.245126 -6.622654 35.134094
v -4.300574 -7.580187 33.812477
v -4.300574 -12.551486 33.812477
v -1.637397 -12.551486 36.475632
v -2.830324 9.280662 33.205757
v -2.830324 9.280662 30.763243
v -1.051084 9.280662 28.984003
v 1.309244 9.280662 28.984003
v 3.088483 9.280662 30.763243
v 3.088483 9.280662 33.205757
v 1.309244 9.280662 34.984993
v -1.051084 9.280662 34.984993
v 0.129067 -12.551486 31.984499
vt 0.007477 0.252257
vt 0.007477 0.252257
vt 0.007477 0.252257
vt 0.016205 0.252257
vt 0.007477 0.252257
vt 0.007477 0.252257
vt 0.007477 0.252257
vt 0.007477 0.252257
vt 0.007477 0.252257
vt 0.007477 0.252257
vt 0.016205 0.252257
vt 0.007477 0.252257
vt 0.007477 0.252257
vt 0.007477 0.252257
vt 0.007477 0.252257
vt 0.007477 0.252257
vt 0.007477 0.252257
vt 0.007477 0.252257
vt 0.007477 0.252257
vt 0.007477 0.252257
vt 0.007477 0.252257
vt 0.007477 0.252257
vt 0.007477 0.252257
vt 0.007477 0.252257
vt 0.007477 0.252257
vt 0.007477 0.252257
vt 0.007477 0.252257
vt 0.007477 0.252257
vt 0.007477 0.252257
vt 0.007477 0.252257
vt 0.102356 0.230917
vt 0.102356 0.230917
vt 0.102356 0.230917
vt 0.102356 0.230917
vt 0.102356 0.230917
vt 0.102356 0.230917
vt 0.102356 0.230917
vt 0.102356 0.230917
vt 0.102356 0.230917
vt 0.102356 0.230917
vt 0.102356 0.230917
vt 0.102356 0.230917
vt 0.102356 0.230917
vt 0.102356 0.230917
vt 0.102356 0.230917
vt 0.102356 0.230917
vt 0.102356 0.230917
vt 0.102356 0.230917
vt 0.102356 0.230917
vt 0.102356 0.230917
vt 0.102356 0.230917
vt 0.102356 0.230917
vt 0.102356 0.230917
vt 0.102356 0.230917
vt 0.102356 0.230917
vt 0.102356 0.230917
vt 0.102356 0.230917
vt 0.102356 0.230917
vt 0.102356 0.230917
vt 0.102356 0.230917
vt 0.102356 0.230917
vt 0.102356 0.230917
vt 0.102356 0.230917
vt 0.102356 0.230917
vt 0.102356 0.230917
vt 0.102356 0.230917
vt 0.102356 0.230917
vt 0.102356 0.230917
vt 0.102356 0.230917
vt 0.102356 0.230917
vt 0.102356 0.230917
vt 0.102356 0.230917
vt 0.102356 0.230917
vt 0.102356 0.230917
vt 0.102356 0.230917
vt 0.102356 0.230917
vt 0.102356 0.230917
vt 0.102356 0.230917
vt 0.102356 0.230917
vt 0.102356 0.230917
vt 0.102356 0.230917
vt 0.102356 0.230917
vt 0.102356 0.230917
vt 0.102356 0.230917
vt 0.102356 0.230917
vt 0.102356 0.230917
vt 0.102356 0.230917
vt 0.102356 0.230917
vn 0.000000 1.000000 -0.000000
vn 0.000000 1.000000 -0.000000
vn 0.000000 0.999946 0.010437
vn 0.000000 0.999946 0.010437
vn -0.926325 0.376726 -0.000000
vn -0.926325 0.376726 -0.000000
vn -0.926295 0.376717 0.007870
vn -0.926295 0.376717 0.007842
vn -0.926325 -0.376725 0.000000
vn -0.926325 -0.376725 0.000000
vn -0.926295 -0.376716 0.007842
vn -0.926295 -0.376716 0.007870
vn -0.000000 -1.000000 0.000000
vn -0.000000 -1.000000 0.000000
vn -0.000000 -0.999946 0.010437
vn -0.000000 -0.999946 0.010437
vn 0.926328 -0.376718 -0.000000
vn 0.926328 -0.376718 -0.000000
vn 0.926299 -0.376708 0.007870
vn 0.926299 -0.376708 0.007842
vn 0.926328 0.376718 0.000000
vn 0.926328 0.376718 0.000000
vn 0.926299 0.376708 0.007842
vn 0.926298 0.376708 0.007870
vn -0.000000 0.000000 -1.000000
vn -0.000000 0.000000 -1.000000
vn -0.000000 0.000000 -1.000000
vn -0.000000 0.000000 -1.000000
vn 0.000000 -0.000001 1.000000
vn 0.000000 -0.000001 1.000000
vn 0.000000 -0.000001 1.000000
vn 0.000000 -0.000001 1.000000
vn 0.926298 0.376708 0.007870
vn 0.926299 0.376708 0.007842
vn 0.926193 0.376669 0.016948
vn 0.926193 0.376669 0.016948
vn 0.926299 -0.376708 0.007842
vn 0.926299 -0.376708 0.007870
vn 0.926193 -0.376668 0.016948
vn 0.926193 -0.376668 0.016948
vn -0.000000 -0.999946 0.010437
vn -0.000000 -0.999946 0.010437
vn -0.000000 -0.999747 0.022492
vn -0.000000 -0.999747 0.022492
vn -0.926295 -0.376716 0.007870
vn -0.926295 -0.376716 0.007842
vn -0.926190 -0.376677 0.016948
vn -0.926190 -0.376677 0.016948
vn -0.926295 0.376717 0.007842
vn -0.926295 0.376717 0.007870
vn -0.926190 0.376677 0.016948
vn -0.926190 0.376677 0.016948
vn 0.000000 0.999946 0.010437
vn 0.000000 0.999946 0.010437
vn 0.000000 0.999747 0.022492
vn 0.000000 0.999747 0.022492
vn 0.000000 1.000000 0.000000
vn 0.000000 1.000000 0.000000
vn 0.000000 1.000000 0.000000
vn 0.000000 1.000000 0.000000
vn -0.926324 0.376727 0.000000
vn -0.926324 0.376727 0.000000
vn -0.926324 0.376727 0.000000
vn -0.926324 0.376727 0.000000
vn -0.926325 -0.376726 0.000000
vn -0.926325 -0.376726 0.000000
vn -0.926325 -0.376726 0.000000
vn -0.926325 -0.376726 0.000000
vn 0.000000 -1.000000 0.000000
vn 0.000000 -1.000000 0.000000
vn 0.000000 -1.000000 0.000000
vn 0.000000 -1.000000 0.000000
vn 0.926330 -0.376713 0.000000
vn 0.926330 -0.376713 0.000000
vn 0.926330 -0.376713 0.000000
vn 0.926330 -0.376713 0.000000
vn 0.926330 0.376714 0.000000
vn 0.926330 0.376714 0.000000
vn 0.926330 0.376714 0.000000
vn 0.926330 0.376714 0.000000
vn 0.000000 0.998680 0.051373
vn 0.000000 0.998680 0.051373
vn 0.000000 0.998680 0.051373
vn 0.000000 0.998680 0.051373
vn -0.925627 0.376450 0.038729
vn -0.925627 0.376450 0.038729
vn -0.925627 0.376450 0.038729
vn -0.925627 0.376450 0.038729
vn -0.925627 -0.376450 0.038729
vn -0.925627 -0.376450 0.038729
vn -0.925627 -0.376450 0.038729
vn -0.925627 -0.376450 0.038729
vn 0.000000 -0.998680 0.051373
vn 0.000000 -0.998680 0.051373
vn 0.000000 -0.998680 0.051373
vn 0.000000 -0.998680 0.051373
vn 0.925632 -0.376439 0.038729
vn 0.925632 -0.376439 0.038729
vn 0.925632 -0.376439 0.038729
vn 0.925632 -0.376439 0.038729
vn 0.925632 0.376439 0.038729
vn 0.925631 0.376439 0.038729
vn 0.925632 0.376439 0.038729
vn 0.925632 0.376439 0.038729
vn 0.000000 0.000000 -1.000000
vn -0.000000 0.000000 -1.000000
vn -0.000000 0.000000 -1.000000
vn 0.000000 0.000000 -1.000000
vn 0.000000 -0.000001 1.000000
vn 0.000000 -0.000001 1.000000
vn 0.000000 0.000000 1.000000
vn 0.000000 0.000000 1.000000
vn 0.000000 -0.000000 1.000000
vn 0.000000 -0.000000 1.000000
vn 0.000000 -0.000000 1.000000
vn 0.000000 -0.000000 1.000000
vn 0.000000 0.000000 -1.000000
vn 0.000000 0.000000 -1.000000
vn 0.000000 0.000000 -1.000000
vn 0.000000 0.000000 -1.000000
vn 1.000000 0.000000 0.000000
vn 1.000000 0.000000 0.000000
vn 1.000000 0.000000 0.000000
vn 1.000000 0.000000 0.000000
vn -1.000000 0.000000 0.000000
vn -1.000000 0.000000 0.000000
vn -1.000000 0.000000 0.000000
vn -1.000000 0.000000 0.000000
vn 0.000000 0.410828 0.911713
vn 0.000000 0.410828 0.911713
vn 0.000000 0.410828 0.911713
vn 0.000000 0.410828 0.911713
vn 0.956249 0.292554 -0.000000
vn 0.956249 0.292554 -0.000000
vn 0.956249 0.292554 -0.000000
vn 0.956249 0.292554 -0.000000
vn 0.000000 0.410828 -0.911713
vn 0.000000 0.410828 -0.911713
vn 0.000000 0.410828 -0.911713
vn 0.000000 0.410828 -0.911713
vn -0.956249 0.292554 -0.000000
vn -0.956249 0.292554 -0.000000
vn -0.956249 0.292554 -0.000000
vn -0.956249 0.292554 -0.000000
vn 0.000000 -0.410828 -0.911713
vn 0.000000 -0.410828 -0.911713
vn 0.000000 -0.410828 -0.911713
vn 0.000000 -0.410828 -0.911713
vn 0.956249 -0.292554 0.000000
vn 0.956249 -0.292554 0.000000
vn 0.956249 -0.292554 0.000000
vn 0.956249 -0.292554 0.000000
vn 0.000000 -0.410828 0.911713
vn 0.000000 -0.410828 0.911713
vn 0.000000 -0.410828 0.911713
vn 0.000000 -0.410828 0.911713
vn -0.956249 -0.292554 0.000000
vn -0.956249 -0.292554 0.000000
vn -0.956249 -0.292554 0.000000
vn -0.956249 -0.292554 0.000000
vn -0.000000 -0.813937 0.580953
vn -0.000000 -0.813937 0.580953
vn -0.000000 -0.813937 0.580953
vn -0.000000 -0.813937 0.580953
vn -0.000000 -0.813937 0.580953
vn -0.000000 -0.813937 0.580953
vn 0.382442 -0.923980 0.000000
vn 0.382442 -0.923980 0.000000
vn 0.382442 -0.923980 0.000000
vn 0.382442 -0.923980 0.000000
vn 0.382442 -0.923980 0.000000
vn 0.382442 -0.923980 0.000000
vn 0.000000 -0.813937 -0.580953
vn 0.000000 -0.813937 -0.580953
vn 0.000000 -0.813937 -0.580953
vn 0.000000 -0.813937 -0.580953
vn 0.000000 -0.813937 -0.580953
vn 0.000000 -0.813937 -0.580953
vn -0.422304 -0.906454 -0.000000
vn -0.422304 -0.906454 -0.000000
vn -0.422304 -0.906454 -0.000000
vn -0.422304 -0.906454 -0.000000
vn -0.422304 -0.906454 -0.000000
vn -0.422304 -0.906454 -0.000000
vn -0.000000 0.813937 -0.580953
vn -0.000000 0.813937 -0.580953
vn -0.000000 0.813937 -0.580953
vn -0.000000 0.813937 -0.580953
vn -0.000000 0.813937 -0.580953
vn -0.000000 0.813937 -0.580953
vn 0.382442 0.923980 -0.000000
vn 0.382442 0.923980 -0.000000
vn 0.382442 0.923980 -0.000000
vn 0.382442 0.923980 -0.000000
vn 0.382442 0.923980 -0.000000
vn 0.382442 0.923980 -0.000000
vn 0.000000 0.813937 0.580953
vn 0.000000 0.813937 0.580953
vn 0.000000 0.813937 0.580953
vn 0.000000 0.813937 0.580953
vn 0.000000 0.813937 0.580953
vn 0.000000 0.813937 0.580953
vn -0.422304 0.906454 0.000000
vn -0.422304 0.906454 0.000000
vn -0.422304 0.906454 0.000000
vn -0.422304 0.906454 0.000000
vn -0.422304 0.906454 0.000000
vn -0.422304 0.906454 0.000000
vn 0.000000 0.441082 0.897467
vn 0.000000 0.441082 0.897467
vn 0.000000 0.441082 0.897467
vn 0.000000 0.441082 0.897467
vn 0.899851 0.436197 -0.000000
vn 0.899851 0.436197 -0.000000
vn 0.899851 0.436197 -0.000000
vn 0.899851 0.436197 -0.000000
vn 0.000000 0.441082 -0.897467
vn 0.000000 0.441082 -0.897467
vn 0.000000 0.441082 -0.897467
vn 0.000000 0.441082 -0.897467
vn -0.899851 0.436197 -0.000000
vn -0.899851 0.436197 -0.000000
vn -0.899851 0.436197 -0.000000
vn -0.899851 0.436197 -0.000000
vn 0.000000 0.000000 -1.000000
vn 0.000000 0.000000 -1.000000
vn 0.000000 0.000000 -1.000000
vn 0.000000 0.000000 -1.000000
vn 1.000000 0.000000 0.000000
vn 1.000000 0.000000 0.000000
vn 1.000000 0.000000 0.000000
vn 1.000000 0.000000 0.000000
vn 0.000000 -0.000000 1.000000
vn 0.000000 -0.000000 1.000000
vn 0.000000 -0.000000 1.000000
vn 0.000000 -0.000000 1.000000
vn -1.000000 0.000000 0.000000
vn -1.000000 0.000000 0.000000
vn -1.000000 0.000000 0.000000
vn -1.000000 0.000000 0.000000
vn -0.636423 0.435811 0.636423
vn -0.636423 0.435811 0.636423
vn -0.636423 0.435811 0.636423
vn -0.636423 0.435811 0.636423
vn 0.636423 0.435811 0.636423
vn 0.636423 0.435811 0.636423
vn 0.636423 0.435811 0.636423
vn 0.636423 0.435811 0.636423
vn 0.636423 0.435811 -0.636423
vn 0.636423 0.435811 -0.636423
vn 0.636423 0.435811 -0.636423
vn 0.636423 0.435811 -0.636423
vn -0.636423 0.435811 -0.636423
vn -0.636423 0.435811 -0.636423
vn -0.636423 0.435811 -0.636423
vn -0.636423 0.435811 -0.636423
vn -0.707107 0.000000 -0.707107
vn -0.707107 0.000000 -0.707107
vn -0.707107 0.000000 -0.707107
vn -0.707107 0.000000 -0.707107
vn 0.707107 0.000000 -0.707107
vn 0.707107 0.000000 -0.707107
vn 0.707107 0.000000 -0.707107
vn 0.707107 0.000000 -0.707107
vn 0.707107 -0.000000 0.707107
vn 0.707107 -0.000000 0.707107
vn 0.707107 -0.000000 0.707107
vn 0.707107 -0.000000 0.707107
vn -0.707107 -0.000000 0.707107
vn -0.707107 -0.000000 0.707107
vn -0.707107 -0.000000 0.707107
vn -0.707107 -0.000000 0.707107
vn -0.621692 -0.476444 0.621692
vn -0.621692 -0.476444 0.621692
vn -0.621692 -0.476444 0.621692
vn 0.570433 -0.590942 0.570433
vn 0.570433 -0.590942 0.570433
vn 0.570433 -0.590942 0.570433
vn 0.570433 -0.590942 -0.570433
vn 0.570433 -0.590942 -0.570433
vn 0.570433 -0.590942 -0.570433
vn -0.621692 -0.476444 -0.621692
vn -0.621692 -0.476444 -0.621692
vn -0.621692 -0.476444 -0.621692
vn -0.621692 0.476444 -0.621692
vn -0.621692 0.476444 -0.621692
vn -0.621692 0.476444 -0.621692
vn 0.570433 0.590942 -0.570433
vn 0.570433 0.590942 -0.570433
vn 0.570433 0.590942 -0.570433
vn 0.570433 0.590942 0.570433
vn 0.570433 0.590942 0.570433
vn 0.570433 0.590942 0.570433
vn -0.621692 0.476444 0.621692
vn -0.621692 0.476444 0.621692
vn -0.621692 0.476444 0.621692
vn -0.299939 0.953958 -0.000000
vn -0.299939 0.953958 -0.000000
vn -0.299939 0.953958 -0.000000
vn -0.212302 0.953864 -0.212300
vn -0.212302 0.953864 -0.212300
vn -0.212302 0.953864 -0.212300
vn 0.000000 0.955127 -0.296196
vn 0.000000 0.955127 -0.296196
vn 0.000000 0.955127 -0.296196
vn 0.212302 0.953864 -0.212300
vn 0.212302 0.953864 -0.212300
vn 0.212302 0.953864 -0.212300
vn 0.299939 0.953958 -0.000000
vn 0.299939 0.953958 -0.000000
vn 0.299939 0.953958 -0.000000
vn 0.212302 0.953864 0.212300
vn 0.212302 0.953864 0.212300
vn 0.212302 0.953864 0.212300
vn 0.000000 0.955127 0.296196
vn 0.000000 0.955127 0.296196
vn 0.000000 0.955127 0.296196
vn -0.212302 0.953864 0.212300
vn -0.212302 0.953864 0.212300
vn -0.212302 0.953864 0.212300
vn 0.000000 -1.000000 0.000000
vn 0.000000 -1.000000 0.000000
vn 0.000000 -1.000000 0.000000
vn 0.000000 -1.000000 -0.000000
vn 0.000000 -1.000000 -0.000000
vn 0.000000 -1.000000 0.000000
vn 0.000000 -1.000000 -0.000000
vn 0.000000 -1.000000 -0.000000
vn 0.000000 -1.000000 0.000000
vn 0.000000 -1.000000 0.000000
vn 0.000000 -1.000000 0.000000
vn 0.000000 -1.000000 0.000000
vn 0.000000 -1.000000 0.000000
vn 0.000000 -1.000000 0.000000
vn 0.000000 -1.000000 0.000000
vn 0.000000 -1.000000 0.000000
vn 0.000000 -1.000000 0.000000
vn 0.000000 -1.000000 0.000000
vn 0.000000 -1.000000 0.000000
vn 0.000000 -1.000000 0.000000
vn 0.000000 -1.000000 0.000000
vn 0.000000 -1.000000 0.000000
vn 0.000000 -1.000000 0.000000
vn 0.000000 -1.000000 0.000000
s off
f 1/1/1 2/2/2 18/3/3 13/4/4
f 2/2/5 3/5/6 17/6/7 18/3/8
f 3/5/9 4/7/10 16/8/11 17/6/12
f 4/7/13 5/9/14 15/10/15 16/8/16
f 5/9/17 6/11/18 14/12/19 15/10/20
f 6/11/21 1/1/22 13/4/23 14/12/24
f 3/5/25 6/11/26 5/9/27 4/7/28
f 19/13/29 20/14/30 21/15/31 24/18/32
f 14/12/33 13/4/34 7/19/35 12/20/36
f 15/10/37 14/12/38 12/20/39 11/21/40
f 16/8/41 15/10/42 11/21/43 10/22/44
f 17/6/45 16/8/46 10/22/47 9/23/48
f 18/3/49 17/6/50 9/23/51 8/24/52
f 13/4/53 18/3/54 8/24/55 7/19/56
f 25/25/57 26/26/58 20/14/59 19/13/60
f 26/26/61 27/27/62 21/15/63 20/14/64
f 27/27/65 28/28/66 22/16/67 21/15/68
f 28/28/69 29/29/70 23/17/71 22/16/72
f 29/29/73 30/30/74 24/18/75 23/17/76
f 30/30/77 25/25/78 19/13/79 24/18/80
f 7/19/81 8/24/82 26/26/83 25/25/84
f 8/24/85 9/23/86 27/27/87 26/26/88
f 9/23/89 10/22/90 28/28/91 27/27/92
f 10/22/93 11/21/94 29/29/95 28/28/96
f 11/21/97 12/20/98 30/30/99 29/29/100
f 12/20/101 7/19/102 25/25/103 30/30/104
f 1/1/105 6/11/106 3/5/107 2/2/108
f 24/18/109 21/15/110 22/16/111 23/17/112
f 31/31/113 32/32/114 34/33/115 33/34/116
f 35/35/117 36/36/118 38/37/119 37/38/120
f 32/32/121 38/37/122 36/36/123 34/33/124
f 37/38/125 31/31/126 33/34/127 35/35/128
f 33/34/129 34/33/130 40/39/131 39/40/132
f 34/33/133 36/36/134 41/41/135 40/39/136
f 36/36/137 35/35/138 42/42/139 41/41/140
f 35/35/141 33/34/142 39/40/143 42/42/144
f 37/38/145 38/37/146 44/43/147 43/44/148
f 38/37/149 32/32/150 45/45/151 44/43/152
f 32/32/153 31/31/154 46/46/155 45/45/156
f 31/31/157 37/38/158 43/44/159 46/46/160
f 39/40/161 40/39/162 52/47/163 51/48/164 49/49/165 48/50/166
f 40/39/167 41/41/168 55/51/169 54/52/170 53/53/171 52/47/172
f 41/41/173 42/42/174 58/54/175 57/55/176 56/56/177 55/51/178
f 42/42/179 39/40/180 48/50/181 47/57/182 59/58/183 58/54/184
f 43/44/185 44/43/186 66/59/187 65/60/188 62/61/189 61/62/190
f 44/43/191 45/45/192 71/63/193 70/64/194 67/65/195 66/59/196
f 45/45/197 46/46/198 76/66/199 75/67/200 72/68/201 71/63/202
f 46/46/203 43/44/204 61/62/205 60/69/206 77/70/207 76/66/208
f 86/71/209 87/72/210 49/49/211 51/48/212
f 84/73/213 85/74/214 53/53/215 54/52/216
f 82/75/217 83/76/218 56/56/219 57/55/220
f 80/77/221 81/78/222 59/58/223 47/57/224
f 64/79/225 62/61/226 65/60/227 69/80/228
f 68/81/229 67/65/230 70/64/231 74/82/232
f 73/83/233 72/68/234 75/67/235 79/84/236
f 78/85/237 77/70/238 60/69/239 63/86/240
f 47/57/241 49/49/242 87/72/243 80/77/244
f 51/48/245 53/53/246 85/74/247 86/71/248
f 54/52/249 56/56/250 83/76/251 84/73/252
f 57/55/253 59/58/254 81/78/255 82/75/256
f 60/69/257 62/61/258 64/79/259 63/86/260
f 65/60/261 67/65/262 68/81/263 69/80/264
f 70/64/265 72/68/266 73/83/267 74/82/268
f 75/67/269 77/70/270 78/85/271 79/84/272
f 47/57/273 48/50/274 49/49/275
f 51/48/276 52/47/277 53/53/278
f 54/52/279 55/51/280 56/56/281
f 57/55/282 58/54/283 59/58/284
f 60/69/285 61/62/286 62/61/287
f 65/60/288 66/59/289 67/65/290
f 70/64/291 71/63/292 72/68/293
f 75/67/294 76/66/295 77/70/296
f 50/87/297 81/78/298 80/77/299
f 82/75/300 81/78/301 50/87/302
f 50/87/303 83/76/304 82/75/305
f 84/73/306 83/76/307 50/87/308
f 50/87/309 85/74/310 84/73/311
f 86/71/312 85/74/313 50/87/314
f 50/87/315 87/72/316 86/71/317
f 80/77/318 87/72/319 50/87/320
f 63/86/321 64/79/322 88/88/323
f 64/79/324 69/80/325 88/88/326
f 69/80/327 68/81/328 88/88/329
f 68/81/330 74/82/331 88/88/332
f 74/82/333 73/83/334 88/88/335
f 73/83/336 79/84/337 88/88/338
f 79/84/339 78/85/340 88/88/341
f 78/85/342 63/86/343 88/88/344
