# This file uses centimeters as units for non-parametric coordinates.

v -41.252972 -56.614403 0.000003
v 39.585705 -60.651142 0.000003
v -41.088623 60.048676 0.000003
v 38.489746 59.664139 0.000003
v -41.252972 -56.614403 3.312392
v 39.585705 -60.651142 3.312392
v 38.489746 59.664139 3.312392
v -41.088623 60.048676 3.312392
v 40.015396 28.787453 1.764044
v -0.444924 58.766064 1.764044
v 40.018856 28.553318 5.076433
v -0.683592 58.761139 5.076433
v 40.412998 20.619787 0.000003
v 40.412117 20.678596 3.312389
v -11.946179 60.650017 0.000003
v -11.885007 60.651142 3.312392
v 9.597683 59.067970 0.000003
v 9.284488 59.061508 3.312392
v 38.801971 38.398048 0.000003
v 38.806694 38.076317 3.312392
v 40.565910 -41.534740 0.985498
v -38.500126 -5.694918 0.985499
v -38.670563 -10.492584 4.297886
v 40.395493 -46.332283 4.297886
v -40.226196 1.310438 0.000003
v -40.195122 -0.805906 3.312391
v 41.221882 -34.465565 0.000003
v 41.252972 -36.581768 3.312389
vt 0.796014 0.374199
vt 0.763606 0.374199
vt 0.796014 0.351675
vt 0.711517 0.250967
vt 0.711517 0.306093
vt 0.796014 0.268772
vt 0.796014 0.250967
vt 0.796014 0.250967
vt 0.711517 0.250967
vt 0.796014 0.263776
vt 0.796014 0.374199
vt 0.763938 0.374199
vt 0.711517 0.374199
vt 0.711517 0.313388
vt 0.711517 0.311185
vt 0.711517 0.374199
vt 0.796014 0.341758
vt 0.753044 0.374199
vt 0.741175 0.374199
vt 0.796014 0.333557
vt 0.796014 0.342002
vt 0.753297 0.374199
vt 0.796014 0.352010
vt 0.741111 0.374199
vt 0.796014 0.333496
vt 0.796014 0.273929
vt 0.796014 0.276133
vt 0.711517 0.301097
vt 0.790456 0.296300
vt 0.790438 0.295671
vt 0.791080 0.295819
vt 0.791085 0.296025
vt 0.791057 0.295037
vt 0.790730 0.294749
vt 0.790831 0.294730
vt 0.791063 0.294929
vt 0.791078 0.295134
vt 0.790648 0.294748
vt 0.791057 0.294674
vt 0.790426 0.295591
vt 0.791093 0.295744
vt 0.790376 0.294812
vn 0.000000 -0.000000 1.000000
vn 0.000000 -0.000000 1.000000
vn 0.000000 -0.000000 1.000000
vn 0.006923 0.027762 -0.999591
vn 0.006923 0.027762 -0.999591
vn 0.006923 0.027762 -0.999591
vn 0.006923 0.027762 -0.999591
vn -0.049874 -0.998756 -0.000000
vn -0.049874 -0.998756 -0.000000
vn -0.049874 -0.998756 -0.000000
vn -0.049874 -0.998756 -0.000000
vn 0.998531 -0.052723 -0.012463
vn 0.998531 -0.052723 -0.012463
vn 0.998531 -0.052723 -0.012463
vn 0.998531 -0.052723 -0.012463
vn -0.020630 0.999787 0.000000
vn -0.020630 0.999787 0.000000
vn -0.020630 0.999787 0.000000
vn -0.020630 0.999787 0.000000
vn -0.999892 -0.014681 -0.000000
vn -0.999892 -0.014681 -0.000000
vn -0.999892 -0.014681 -0.000000
vn -0.999892 -0.014681 -0.000000
vn -0.179703 -0.238134 0.954463
vn -0.179703 -0.238134 0.954463
vn -0.179703 -0.238134 0.954463
vn -0.179703 -0.238134 0.954463
vn -0.151741 -0.208712 -0.966133
vn -0.151741 -0.208712 -0.966133
vn -0.151741 -0.208712 -0.966133
vn -0.151741 -0.208712 -0.966133
vn 0.991795 0.127485 0.009484
vn 0.991795 0.127485 0.009484
vn 0.991795 0.127485 0.009484
vn 0.991795 0.127485 0.009484
vn 0.163259 0.986571 0.004942
vn 0.163259 0.986571 0.004942
vn 0.163259 0.986571 0.004942
vn 0.163259 0.986571 0.004942
vn 0.173806 0.230436 -0.957440
vn 0.173806 0.230436 -0.957440
vn 0.173806 0.230436 -0.957440
vn 0.173806 0.230436 -0.957440
vn 0.998797 0.049034 0.000905
vn 0.998797 0.049034 0.000905
vn 0.998797 0.049034 0.000905
vn 0.998797 0.049034 0.000905
vn 0.000000 -0.000000 1.000000
vn 0.000000 -0.000000 1.000000
vn 0.000000 -0.000000 1.000000
vn 0.000000 -0.000000 1.000000
vn 0.000000 -0.000000 1.000000
vn 0.000000 -0.000000 1.000000
vn 0.000000 -0.000000 1.000000
vn -0.020630 0.999787 0.000020
vn -0.020630 0.999787 0.000020
vn -0.020630 0.999787 0.000020
vn -0.020630 0.999787 0.000020
vn 0.153236 0.210204 0.965574
vn 0.153236 0.210204 0.965574
vn 0.153236 0.210204 0.965574
vn 0.153236 0.210204 0.965574
vn -0.030226 0.999543 -0.000800
vn -0.030226 0.999543 -0.000800
vn -0.030226 0.999543 -0.000800
vn -0.030226 0.999543 -0.000800
vn -0.000000 0.000000 -1.000000
vn -0.000000 0.000000 -1.000000
vn -0.000000 0.000000 -1.000000
vn 0.999892 0.014681 0.000000
vn 0.999892 0.014681 0.000000
vn 0.999892 0.014681 0.000000
vn 0.999892 0.014681 0.000000
vn -0.063876 -0.143165 -0.987635
vn -0.063876 -0.143165 -0.987635
vn -0.063876 -0.143165 -0.987635
vn -0.063876 -0.143165 -0.987635
vn 0.991687 -0.098874 -0.082345
vn 0.991687 -0.098874 -0.082345
vn 0.991687 -0.098874 -0.082345
vn 0.991687 -0.098874 -0.082345
vn -0.998411 0.054612 0.013900
vn -0.998411 0.054612 0.013900
vn -0.998411 0.054612 0.013900
vn -0.998411 0.054612 0.013900
vn -0.008016 -0.032143 0.999451
vn -0.008016 -0.032143 0.999451
vn -0.008016 -0.032143 0.999451
vn -0.008016 -0.032143 0.999451
vn -0.946591 -0.212926 -0.242133
vn -0.946591 -0.212926 -0.242133
vn -0.946591 -0.212926 -0.242133
vn -0.946591 -0.212926 -0.242133
vn 0.045657 0.102332 0.993702
vn 0.045657 0.102332 0.993702
vn 0.045657 0.102332 0.993702
vn 0.045657 0.102332 0.993702
vn -0.000000 0.000000 -1.000000
vn -0.000000 0.000000 -1.000000
vn -0.000000 0.000000 -1.000000
vn -0.000000 0.000000 -1.000000
vn -0.000000 0.000000 -1.000000
vn -0.000000 0.000000 -1.000000
vn -0.000000 0.000000 -1.000000
vn 0.999892 0.014681 -0.000034
vn 0.999892 0.014681 -0.000034
vn 0.999892 0.014686 -0.000027
vn 0.999892 0.014686 -0.000027
s off
f 7/1/1 18/2/2 20/3/3
f 1/29/4 22/30/5 21/31/6 2/32/7
f 1/4/8 2/7/9 6/8/10 5/9/11
f 2/7/12 21/6/13 24/10/14 6/8/15
f 4/11/16 17/12/17 18/2/18 7/1/19
f 3/13/20 25/14/21 26/15/22 8/16/23
f 11/17/24 12/18/25 16/19/26 14/20/27
f 9/33/28 10/34/29 17/35/30 19/36/31
f 11/17/32 9/21/33 19/23/34 20/3/35
f 12/18/36 10/22/37 15/24/38 16/19/39
f 13/37/40 15/38/41 10/34/42 9/33/43
f 14/20/44 13/25/45 9/21/46 11/17/47
f 26/15/48 28/26/49 14/20/50 16/19/51
f 26/15/52 16/19/53 8/16/54
f 16/19/55 15/24/56 3/13/57 8/16/58
f 20/3/59 18/2/60 12/18/61 11/17/62
f 18/2/63 17/12/64 10/22/65 12/18/66
f 19/36/67 17/35/68 4/39/69
f 20/3/70 19/23/71 4/11/72 7/1/73
f 21/31/74 22/30/75 25/40/76 27/41/77
f 24/10/78 21/6/79 27/27/80 28/26/81
f 23/28/82 22/5/83 1/4/84 5/9/85
f 24/10/86 23/28/87 5/9/88 6/8/89
f 26/15/90 25/14/91 22/5/92 23/28/93
f 28/26/94 26/15/95 23/28/96 24/10/97
f 13/37/98 27/41/99 25/40/100 15/38/101
f 25/40/102 3/42/103 15/38/104
f 28/26/105 27/27/106 13/25/107 14/20/108
