# This file uses centimeters as units for non-parametric coordinates.

v 15.600689 78.417107 -280.835938
v -16.880756 78.417114 -280.835938
v -39.848591 55.449272 -280.835938
v -36.193928 24.481646 -280.835999
v -16.880756 0.000000 -280.835938
v 15.600689 0.000000 -280.835938
v 38.568554 22.967840 -280.835938
v 35.186047 54.048218 -280.835938
v 13.528210 73.413719 283.681549
v -16.880756 78.417114 283.681488
v -39.848591 55.449272 283.681488
v -39.848591 22.967840 283.681488
v -15.376850 3.630750 283.681549
v 15.600689 0.000000 283.681488
v 38.568554 22.967840 283.681488
v 38.568554 55.449272 283.681488
v 12.122478 70.019981 -280.835938
v -13.402546 70.019989 -280.835938
v -34.032368 53.040108 -280.835999
v -31.451466 26.446045 -280.835938
v -13.402546 8.397127 -280.835938
v 12.122478 8.397127 -280.835938
v 30.171398 26.446045 -280.835938
v 30.171398 51.971069 -280.835938
v 12.122478 70.019981 283.681549
v -13.402546 70.019989 283.681549
v -31.451466 51.971069 283.681549
v -31.451466 26.446045 283.681549
v -13.402546 8.397128 283.681549
v 12.122478 8.397128 283.681549
v 30.171398 26.446045 283.681549
v 30.171398 51.971069 283.681549
v 6.212505 78.417114 283.681549
v 20.713299 73.304489 283.681488
v 15.600689 78.417107 245.219818
v -16.880756 78.417114 74.889648
v -16.880756 78.417114 181.667572
v -8.368641 78.417114 134.195526
v -20.723164 74.574692 133.220337
v -23.903797 7.023061 283.681488
v -10.819294 0.000000 283.681488
v -16.880756 0.000000 256.152832
v 38.568554 22.967840 -20.710815
v 38.568554 22.967840 79.261826
v 38.568554 31.939442 10.331573
v 33.533886 17.933191 28.790924
v 34.130627 59.887142 -280.835999
v 38.568554 55.449276 -272.637634
v 38.568554 47.529064 -280.835938
v -23.864796 59.557751 -280.835938
v -31.451466 51.971066 -267.510803
v -31.451466 46.915943 -280.835999
v -33.867359 16.986624 -280.835999
v -39.848591 22.967838 -265.245422
v -39.848591 35.762177 -280.835938
v -39.848591 55.449272 -198.484711
v -39.848591 55.449272 -75.216118
v -33.894215 61.403656 -132.409042
v -39.848591 50.005474 -121.473808
v -39.848591 22.967838 28.529297
v -39.848591 22.967840 76.380371
v -39.848591 27.751341 53.110504
v -34.878284 17.997540 52.487793
vt 0.102012 0.328059
vt 0.102012 0.328059
vt 0.102012 0.328059
vt 0.102012 0.295981
vt 0.102012 0.295981
vt 0.102012 0.295981
vt 0.102012 0.328059
vt 0.102012 0.328059
vt 0.102012 0.328059
vt 0.102012 0.328059
vt 0.102012 0.328059
vt 0.102012 0.295981
vt 0.102012 0.295981
vt 0.102012 0.295981
vt 0.102012 0.328059
vt 0.102012 0.328059
vt 0.102012 0.328059
vt 0.102012 0.328059
vt 0.102012 0.328059
vt 0.102012 0.328059
vt 0.102012 0.295981
vt 0.102012 0.295981
vt 0.102012 0.295981
vt 0.102012 0.328059
vt 0.102012 0.328059
vt 0.102012 0.328059
vt 0.102012 0.328059
vt 0.102012 0.295981
vt 0.102012 0.295981
vt 0.102012 0.295981
vt 0.102012 0.328059
vt 0.102012 0.328059
vt 0.102012 0.328059
vt 0.102012 0.328059
vt 0.102012 0.328059
vt 0.102012 0.328059
vt 0.102012 0.328059
vt 0.102012 0.295981
vt 0.102012 0.295981
vt 0.102012 0.295981
vt 0.102012 0.328059
vt 0.102012 0.328059
vt 0.102012 0.328059
vt 0.102012 0.328059
vt 0.102012 0.328059
vt 0.102012 0.295981
vt 0.102012 0.295981
vt 0.102012 0.295981
vt 0.102012 0.328059
vt 0.102012 0.328059
vt 0.102012 0.328059
vt 0.102012 0.328059
vt 0.102012 0.328059
vt 0.102012 0.295981
vt 0.102012 0.295981
vt 0.102012 0.295981
vt 0.102012 0.328059
vt 0.102012 0.328059
vt 0.102012 0.328059
vt 0.102012 0.328059
vt 0.102012 0.328059
vt 0.102012 0.328059
vt 0.102012 0.328059
vt 0.102012 0.328059
vt 0.102012 0.295981
vt 0.102012 0.295981
vt 0.102012 0.295981
vt 0.102012 0.295981
vt 0.102012 0.295981
vt 0.102012 0.295981
vt 0.102012 0.295981
vt 0.102012 0.295981
vt 0.102012 0.295981
vt 0.102012 0.328059
vt 0.102012 0.328059
vt 0.102012 0.328059
vt 0.102012 0.328059
vt 0.102012 0.328059
vt 0.102012 0.328059
vt 0.102012 0.298156
vt 0.102012 0.328059
vt 0.102012 0.328059
vt 0.102012 0.328059
vt 0.102012 0.328059
vt 0.102012 0.328059
vt 0.102012 0.295981
vt 0.102012 0.295981
vt 0.102012 0.328059
vt 0.102012 0.328059
vt 0.102012 0.328059
vt 0.102012 0.328059
vt 0.102012 0.328059
vt 0.102012 0.328059
vt 0.102012 0.328059
vt 0.102012 0.328059
vt 0.102012 0.328059
vt 0.102012 0.328059
vt 0.102012 0.328059
vn 0.559240 0.817690 0.136506
vn 0.559240 0.817690 0.136506
vn 0.559240 0.817690 0.136506
vn -0.707107 0.707107 0.000000
vn -0.707107 0.707107 0.000000
vn -0.707107 0.707107 0.000000
vn -0.707107 0.707107 0.000000
vn -0.922276 -0.298797 -0.245207
vn -0.922276 -0.298797 -0.245207
vn -0.922276 -0.298797 -0.245207
vn -0.925947 -0.287427 -0.244964
vn -0.925947 -0.287427 -0.244964
vn -0.925947 -0.287427 -0.244964
vn -0.000000 -1.000000 0.000000
vn -0.000000 -1.000000 0.000000
vn -0.000000 -1.000000 0.000000
vn -0.000000 -1.000000 0.000000
vn -0.000000 -1.000000 0.000000
vn 0.707106 -0.707107 -0.000000
vn 0.707106 -0.707107 -0.000000
vn 0.707106 -0.707107 -0.000000
vn 0.707106 -0.707107 -0.000000
vn 0.810981 0.420784 -0.406511
vn 0.810981 0.420784 -0.406511
vn 0.810981 0.420784 -0.406511
vn 0.015073 0.991428 0.129784
vn 0.015073 0.991428 0.129784
vn 0.015073 0.991428 0.129784
vn 0.000000 0.000000 -1.000000
vn 0.000000 0.000000 -1.000000
vn 0.000000 0.000000 -1.000000
vn 0.000000 0.000000 -1.000000
vn 0.000000 0.000000 -1.000000
vn 0.000000 0.000000 -1.000000
vn 0.000000 0.000000 -1.000000
vn 0.000000 0.000000 -1.000000
vn 0.000001 0.000000 -1.000000
vn 0.000001 0.000000 -1.000000
vn 0.000001 0.000000 -1.000000
vn 0.000001 0.000000 -1.000000
vn -0.000006 0.000005 1.000000
vn -0.000006 0.000005 1.000000
vn -0.000006 0.000005 1.000000
vn -0.000006 0.000005 1.000000
vn -0.000009 0.000000 1.000000
vn -0.000009 0.000000 1.000000
vn -0.000009 0.000000 1.000000
vn -0.000009 0.000000 1.000000
vn -0.000001 -0.000004 1.000000
vn -0.000001 -0.000004 1.000000
vn -0.000001 -0.000004 1.000000
vn -0.000001 -0.000004 1.000000
vn -0.000001 -0.000004 1.000000
vn 0.000000 -0.000007 1.000000
vn 0.000000 -0.000007 1.000000
vn 0.000000 -0.000007 1.000000
vn 0.000000 -0.000007 1.000000
vn 0.000000 -0.000007 1.000000
vn 0.000003 -0.000005 1.000000
vn 0.000003 -0.000005 1.000000
vn 0.000003 -0.000005 1.000000
vn 0.000003 -0.000005 1.000000
vn 0.000009 0.000000 1.000000
vn 0.000009 0.000000 1.000000
vn 0.000009 0.000000 1.000000
vn 0.000009 0.000000 1.000000
vn -0.000000 -1.000000 0.000000
vn -0.000000 -1.000000 0.000000
vn -0.000000 -1.000000 0.000000
vn -0.000000 -1.000000 0.000000
vn 0.531850 -0.829687 -0.169575
vn 0.531849 -0.829687 -0.169575
vn 0.531850 -0.829687 -0.169575
vn 0.911670 0.384205 -0.145754
vn 0.911670 0.384205 -0.145754
vn 0.911670 0.384205 -0.145754
vn 0.707107 0.707107 -0.000000
vn 0.707107 0.707107 -0.000000
vn 0.707107 0.707107 -0.000000
vn 0.707107 0.707107 -0.000000
vn 0.000000 1.000000 -0.000000
vn 0.000000 1.000000 -0.000000
vn 0.000000 1.000000 -0.000000
vn 0.000000 1.000000 -0.000000
vn -0.707107 0.707107 -0.000000
vn -0.707107 0.707107 -0.000000
vn -0.707107 0.707107 -0.000000
vn -0.707107 0.707107 -0.000000
vn -1.000000 0.000000 0.000000
vn -1.000000 0.000000 0.000000
vn -1.000000 0.000000 0.000000
vn -1.000000 0.000000 0.000000
vn -0.707107 -0.707107 0.000000
vn -0.707107 -0.707107 0.000000
vn -0.707107 -0.707107 0.000000
vn -0.707107 -0.707107 0.000000
vn -0.000001 0.000003 1.000000
vn -0.000001 0.000003 1.000000
vn -0.000001 0.000003 1.000000
vn -0.000001 0.000003 1.000000
vn -0.000001 0.000003 1.000000
vn 0.000006 0.000005 1.000000
vn 0.000006 0.000005 1.000000
vn 0.000006 0.000005 1.000000
vn 0.000006 0.000005 1.000000
vn 0.000006 0.000005 1.000000
vn 0.901911 0.163022 -0.399976
vn 0.901911 0.163022 -0.399976
vn 0.901911 0.163022 -0.399976
vn 0.000000 1.000000 0.000000
vn 0.000000 1.000000 0.000000
vn 0.000000 1.000000 0.000000
vn 0.000000 1.000000 0.000000
vn 0.000000 1.000000 0.000000
vn -0.299802 0.953031 0.043030
vn -0.299802 0.953031 0.043030
vn -0.299802 0.953031 0.043030
vn -0.292791 0.954734 -0.052500
vn -0.292791 0.954734 -0.052500
vn -0.292791 0.954734 -0.052500
vn -0.617310 -0.774889 0.135924
vn -0.617310 -0.774889 0.135924
vn -0.617310 -0.774889 0.135924
vn -0.365945 -0.919845 0.141310
vn -0.365945 -0.919845 0.141310
vn -0.365945 -0.919845 0.141310
vn 0.916142 -0.397501 -0.051737
vn 0.916142 -0.397501 -0.051737
vn 0.916142 -0.397501 -0.051737
vn 0.965195 -0.251248 0.072613
vn 0.965195 -0.251248 0.072613
vn 0.965195 -0.251248 0.072613
vn 0.707106 0.707107 -0.000000
vn 0.707106 0.707107 -0.000000
vn 0.707106 0.707107 -0.000000
vn 0.707106 0.707107 -0.000000
vn 0.707106 0.707107 -0.000000
vn 0.707106 0.707107 -0.000000
vn 1.000000 -0.000000 0.000000
vn 1.000000 -0.000000 0.000000
vn 1.000000 -0.000000 0.000000
vn -0.000002 0.000000 -1.000000
vn -0.000002 0.000000 -1.000000
vn -0.000002 0.000000 -1.000000
vn -0.000002 0.000000 -1.000000
vn -0.000002 0.000000 -1.000000
vn -0.000003 -0.000003 -1.000000
vn -0.000003 -0.000003 -1.000000
vn -0.000003 -0.000003 -1.000000
vn -0.000003 -0.000003 -1.000000
vn -0.000003 -0.000003 -1.000000
vn 0.707107 -0.707107 -0.000000
vn 0.707107 -0.707107 -0.000000
vn 0.707107 -0.707107 -0.000000
vn 0.707107 -0.707107 -0.000000
vn 0.707107 -0.707107 -0.000000
vn 1.000000 0.000001 0.000000
vn 1.000000 0.000001 0.000000
vn 1.000000 0.000001 0.000000
vn 1.000000 0.000001 0.000000
vn 1.000000 0.000001 0.000000
vn -0.000003 0.000002 -1.000000
vn -0.000003 0.000002 -1.000000
vn -0.000003 0.000002 -1.000000
vn -0.000003 0.000002 -1.000000
vn -0.000003 0.000002 -1.000000
vn 0.000003 0.000002 -1.000000
vn 0.000003 0.000002 -1.000000
vn 0.000003 0.000002 -1.000000
vn 0.000003 0.000002 -1.000000
vn 0.000003 0.000002 -1.000000
vn -0.707107 -0.707107 0.000000
vn -0.707107 -0.707107 0.000000
vn -0.707107 -0.707107 0.000000
vn -1.000000 0.000000 0.000000
vn -1.000000 0.000000 0.000000
vn -1.000000 0.000000 0.000000
vn -1.000000 0.000000 0.000000
vn -0.000006 -0.000000 -1.000000
vn -0.000006 -0.000000 -1.000000
vn -0.000006 -0.000000 -1.000000
vn -0.000006 -0.000000 -1.000000
vn -0.000006 -0.000000 -1.000000
vn -0.000006 -0.000000 -1.000000
vn -0.871836 0.488579 0.034537
vn -0.871836 0.488579 0.034537
vn -0.871836 0.488579 0.034537
vn -0.904103 0.424386 -0.049943
vn -0.904103 0.424386 -0.049943
vn -0.904103 0.424386 -0.049944
vn -0.885155 -0.456729 0.088879
vn -0.885155 -0.456729 0.088879
vn -0.885155 -0.456729 0.088879
vn -0.889574 -0.447434 -0.091977
vn -0.889574 -0.447434 -0.091977
vn -0.889575 -0.447434 -0.091977
vn -1.000000 0.000000 0.000000
vn -1.000000 0.000000 0.000000
vn -1.000000 0.000000 0.000000
vn -1.000000 0.000000 0.000000
vn -1.000000 -0.000000 0.000000
vn -1.000000 -0.000000 0.000000
vn -1.000000 -0.000000 0.000000
vn -1.000000 -0.000000 0.000000
vn -1.000000 -0.000000 0.000000
vn -1.000000 -0.000000 0.000000
vn -1.000000 -0.000000 0.000000
vn -1.000000 -0.000000 0.000000
vn -1.000000 -0.000000 0.000000
vn -0.707107 0.707107 -0.000000
vn -0.707107 0.707107 -0.000000
vn -0.707107 0.707107 -0.000000
vn -0.707107 0.707107 -0.000000
vn -0.707107 0.707107 0.000000
vn -0.707107 0.707107 0.000000
vn -0.707107 0.707106 0.000000
vn -0.707107 0.707107 0.000000
vn -0.707107 0.707107 0.000000
vn -0.707107 0.707107 0.000000
vn -0.707107 0.707107 0.000000
vn -0.707107 0.707107 0.000000
vn 0.000000 1.000000 0.000000
vn 0.000000 1.000000 0.000000
vn 0.000000 1.000000 0.000000
vn 0.000000 1.000000 0.000000
vn 0.000000 1.000000 0.000000
vn 0.000000 1.000000 0.000000
vn 0.000000 1.000000 0.000000
vn 1.000000 0.000000 0.000000
vn 1.000000 0.000000 0.000000
vn 1.000000 0.000000 0.000000
vn 1.000000 0.000000 0.000000
vn 1.000000 0.000000 0.000000
vn 1.000000 0.000000 0.000000
vn 1.000000 0.000000 0.000000
vn 1.000000 0.000000 0.000000
vn 1.000000 0.000000 0.000000
vn 0.707106 -0.707107 0.000000
vn 0.707106 -0.707107 0.000000
vn 0.707106 -0.707107 0.000000
vn 0.707106 -0.707107 0.000000
vn 0.707107 -0.707107 0.000000
vn 0.707107 -0.707107 0.000000
vn 0.707107 -0.707107 0.000000
vn -0.707107 -0.707107 0.000000
vn -0.707107 -0.707107 0.000000
vn -0.707107 -0.707107 0.000000
vn -0.707107 -0.707107 0.000000
vn -0.707107 -0.707107 0.000000
vn -0.707107 -0.707107 -0.000000
vn -0.707107 -0.707107 -0.000000
vn -0.707107 -0.707107 -0.000000
vn -0.707107 -0.707107 -0.000000
vn -0.707107 -0.707107 -0.000000
s off
f 35/64/1 33/60/2 9/18/3
f 39/68/4 58/93/5 57/92/6 11/20/7
f 54/88/8 55/89/9 4/12/10
f 4/12/11 53/86/12 54/88/13
f 5/13/14 6/14/15 14/23/16 41/72/17 42/73/18
f 14/23/19 46/77/20 44/75/21 15/24/22
f 48/80/23 49/81/24 8/16/25
f 34/62/26 35/63/27 9/26/28
f 2/2/29 1/1/30 17/36/31 18/35/32
f 6/6/33 5/5/34 21/39/35 22/40/36
f 7/7/37 6/6/38 22/40/39 23/41/40
f 10/32/41 11/31/42 27/45/43 26/44/44
f 11/31/45 12/30/46 28/46/47 27/45/48
f 12/30/49 40/69/50 13/29/51 29/47/52 28/46/53
f 13/29/54 41/71/55 14/28/56 30/48/57 29/47/58
f 14/28/59 15/27/60 31/49/61 30/48/62
f 15/27/63 16/34/64 32/50/65 31/49/66
f 18/35/67 17/36/68 25/52/69 26/51/70
f 19/37/71 50/83/72 51/84/73
f 51/84/74 52/85/75 19/37/76
f 21/39/77 20/38/78 28/54/79 29/55/80
f 22/40/81 21/39/82 29/55/83 30/56/84
f 23/41/85 22/40/86 30/56/87 31/57/88
f 24/42/89 23/41/90 31/57/91 32/58/92
f 17/36/93 24/42/94 32/58/95 25/52/96
f 9/33/97 33/59/98 10/32/99 26/44/100 25/43/101
f 16/34/102 34/61/103 9/33/104 25/43/105 32/50/106
f 8/16/107 47/78/108 48/80/109
f 35/64/110 38/67/111 37/66/112 10/19/113 33/60/114
f 36/65/115 39/68/116 38/67/117
f 38/67/118 39/68/119 37/66/120
f 42/73/121 41/72/122 13/22/123
f 40/70/124 42/73/125 13/22/126
f 46/77/127 45/76/128 44/75/129
f 43/74/130 45/76/131 46/77/132
f 48/80/133 47/78/134 1/17/135 35/63/136 34/62/137 16/25/138
f 45/76/139 48/80/140 16/25/141
f 8/8/142 49/82/143 7/7/144 23/41/145 24/42/146
f 1/1/147 47/79/148 8/8/149 24/42/150 17/36/151
f 51/84/152 50/83/153 18/35/154 26/51/155 27/53/156
f 20/38/157 52/85/158 51/84/159 27/53/160 28/54/161
f 3/3/162 2/2/163 18/35/164 50/83/165 19/37/166
f 5/5/167 53/87/168 4/4/169 20/38/170 21/39/171
f 63/98/172 5/13/173 42/73/174
f 11/20/175 62/97/176 61/96/177 12/21/178
f 4/4/179 55/90/180 3/3/181 19/37/182 52/85/183 20/38/184
f 59/94/185 58/93/186 56/91/187
f 57/92/188 58/93/189 59/94/190
f 63/98/191 62/97/192 60/95/193
f 61/96/194 62/97/195 63/98/196
f 59/94/197 54/88/198 60/95/199 62/97/200
f 59/94/201 62/97/202 11/20/203 57/92/204
f 3/11/205 55/89/206 54/88/207 59/94/208 56/91/209
f 39/68/210 11/20/211 10/19/212 37/66/213
f 2/10/214 3/11/215 56/91/216 58/93/217
f 2/10/218 58/93/219 39/68/220 36/65/221
f 1/9/222 2/10/223 36/65/224 38/67/225
f 1/9/226 38/67/227 35/64/228
f 45/76/229 16/25/230 15/24/231 44/75/232
f 7/15/233 49/81/234 48/80/235 45/76/236 43/74/237
f 6/14/238 7/15/239 43/74/240 46/77/241
f 6/14/242 46/77/243 14/23/244
f 63/98/245 42/73/246 40/70/247 12/21/248 61/96/249
f 54/88/250 53/86/251 5/13/252 63/98/253 60/95/254
