# This file uses centimeters as units for non-parametric coordinates.

v -25.976776 0.000000 28.982605
v -0.402679 0.000000 35.474792
v -18.713959 25.052019 24.308167
v -0.402679 25.052019 35.474792
v -10.715302 25.052019 -31.796814
v 28.292389 25.052019 -23.528870
v -9.944916 0.000000 -29.459351
v 24.686066 0.000000 -22.066895
v 22.260651 25.052019 7.269714
v -29.572357 25.052019 5.403503
v -29.572357 0.000000 5.403503
v 28.292389 0.000000 5.403503
v -0.378143 12.526010 39.167969
v -29.387665 12.526010 31.902100
v -32.565765 12.526010 5.985535
v -13.810516 12.526010 -36.322449
v 31.285797 12.526010 -25.940308
v 31.285797 12.526010 5.985535
v -25.758636 25.052021 21.593262
v -16.406830 25.052021 31.252197
v -25.427582 21.652208 29.978088
vt 0.058866 0.350781
vt 0.058569 0.350877
vt 0.058610 0.350788
vt 0.058952 0.350679
vt 0.058461 0.350137
vt 0.057952 0.350276
vt 0.058031 0.350420
vt 0.058421 0.350316
vt 0.059452 0.304302
vt 0.059363 0.304341
vt 0.058084 0.350653
vt 0.058065 0.350540
vt 0.058803 0.350572
vt 0.058870 0.350450
vt 0.059366 0.304415
vt 0.058620 0.350627
vt 0.058810 0.350565
vt 0.059147 0.304486
vt 0.058914 0.350575
vt 0.058671 0.304240
vt 0.059420 0.304139
vt 0.058886 0.350467
vt 0.058858 0.350324
vt 0.058463 0.350052
vt 0.059357 0.304423
vt 0.058533 0.304516
vt 0.059089 0.304773
vt 0.059429 0.304662
vt 0.058452 0.303958
vt 0.058968 0.303827
vt 0.058919 0.304130
vt 0.058013 0.350166
vt 0.058472 0.304249
vt 0.058204 0.350412
vt 0.058808 0.350500
vn -0.234802 -0.277629 0.931552
vn -0.234802 -0.277629 0.931552
vn -0.234802 -0.277629 0.931552
vn -0.234802 -0.277629 0.931552
vn 0.000000 1.000000 -0.000000
vn 0.000000 1.000000 -0.000000
vn 0.000000 1.000000 -0.000000
vn 0.000000 1.000000 -0.000000
vn 0.000000 1.000000 -0.000000
vn 0.000000 1.000000 -0.000000
vn 0.199022 -0.404307 -0.892707
vn 0.199022 -0.404307 -0.892707
vn 0.199022 -0.404307 -0.892707
vn 0.199022 -0.404307 -0.892707
vn 0.000000 -1.000000 0.000000
vn 0.000000 -1.000000 0.000000
vn 0.000000 -1.000000 0.000000
vn 0.000000 -1.000000 0.000000
vn 0.708733 -0.200792 0.676299
vn 0.708733 -0.200792 0.676299
vn 0.708733 -0.200792 0.676299
vn 0.708733 -0.200792 0.676299
vn -0.955975 -0.262671 0.130829
vn -0.955975 -0.262671 0.130829
vn -0.955975 -0.262671 0.130829
vn -0.955975 -0.262671 0.130829
vn 0.000000 1.000000 0.000000
vn 0.000000 1.000000 0.000000
vn 0.000000 1.000000 0.000000
vn 0.000000 1.000000 0.000000
vn -0.843296 -0.336047 -0.419433
vn -0.843296 -0.336047 -0.419433
vn -0.843296 -0.336047 -0.419433
vn -0.843296 -0.336047 -0.419433
vn 0.000000 -1.000000 0.000000
vn 0.000000 -1.000000 0.000000
vn 0.000000 -1.000000 0.000000
vn 0.000000 -1.000000 0.000000
vn 0.929883 -0.363497 -0.056459
vn 0.929883 -0.363497 -0.056459
vn 0.929883 -0.363497 -0.056459
vn 0.929883 -0.363497 -0.056459
vn -0.237819 0.285510 0.928400
vn -0.237819 0.285510 0.928400
vn -0.237819 0.285510 0.928400
vn -0.237819 0.285510 0.928400
vn -0.237819 0.285510 0.928400
vn -0.930287 0.329099 0.162051
vn -0.930287 0.329099 0.162051
vn -0.930287 0.329099 0.162051
vn -0.930287 0.329099 0.162051
vn -0.930287 0.329099 0.162051
vn -0.868877 0.275874 -0.411032
vn -0.868876 0.275874 -0.411032
vn -0.868877 0.275874 -0.411032
vn -0.868876 0.275874 -0.411032
vn 0.209035 0.260180 -0.942661
vn 0.209035 0.260180 -0.942661
vn 0.209035 0.260180 -0.942662
vn 0.209035 0.260180 -0.942661
vn 0.903142 0.420465 0.086848
vn 0.903142 0.420465 0.086848
vn 0.903142 0.420465 0.086848
vn 0.903142 0.420465 0.086848
vn 0.710235 0.317003 0.628550
vn 0.710235 0.317003 0.628550
vn 0.710235 0.317003 0.628550
vn 0.710235 0.317003 0.628550
vn -0.365022 0.923066 0.121276
vn -0.365022 0.923066 0.121276
vn -0.365022 0.923066 0.121276
vn -0.145172 0.914891 0.376695
vn -0.145172 0.914891 0.376695
vn -0.145172 0.914891 0.376695
s off
f 1/1/1 2/2/2 13/3/3 14/4/4
f 19/9/5 3/10/6 20/15/7 4/18/8 9/20/9 10/21/10
f 16/5/11 17/6/12 8/7/13 7/8/14
f 11/25/15 12/26/16 2/27/17 1/28/18
f 2/2/19 12/11/20 18/12/21 13/3/22
f 11/13/23 1/1/24 14/4/25 15/14/26
f 10/21/27 9/20/28 6/29/29 5/30/30
f 7/8/31 11/13/32 15/14/33 16/5/34
f 7/31/35 8/33/36 12/26/37 11/25/38
f 18/12/39 12/11/40 8/7/41 17/6/42
f 14/4/43 13/3/44 4/16/45 20/17/46 21/19/47
f 15/14/48 14/4/49 21/19/50 19/22/51 10/23/52
f 16/5/53 15/14/54 10/23/55 5/24/56
f 5/24/57 6/32/58 17/6/59 16/5/60
f 9/34/61 18/12/62 17/6/63 6/32/64
f 13/3/65 18/12/66 9/34/67 4/16/68
f 21/19/69 20/17/70 3/35/71
f 19/22/72 21/19/73 3/35/74
