# This file uses centimeters as units for non-parametric coordinates.

v -229.875488 -5.049983 17.361391
v 228.595459 -5.049983 17.361391
v -229.875488 1.014431 17.361391
v 228.595459 5.049983 17.361391
v -229.875488 5.049983 -14.515556
v 228.595459 5.049983 -8.723257
v -229.875488 -5.049983 -14.515556
v 228.595459 -5.049983 -14.515556
v -8.655666 -4.515990 15.676074
v -4.318570 4.515990 10.213323
v -7.800530 4.515990 -12.830117
v -12.962914 -4.515990 -12.830117
v -229.875488 5.049983 11.434873
v -210.226913 5.049983 17.361391
v 207.189636 5.049983 -14.515556
v 228.595459 0.131815 -14.515556
v -24.672047 4.515990 15.676074
v 24.250336 4.515990 15.676074
v -5.200621 1.528644 15.676074
vt 0.005211 0.329261
vt 0.004382 0.328703
vt 0.004380 0.328665
vt 0.005211 0.329214
vt 0.004487 0.328653
vt 0.005380 0.329171
vt 0.004500 0.328690
vt 0.005379 0.329228
vt 0.103757 0.203914
vt 0.103476 0.203872
vt 0.103502 0.203790
vt 0.103759 0.203826
vt 0.104280 0.202966
vt 0.104449 0.202979
vt 0.104452 0.202937
vt 0.104282 0.202914
vt 0.004811 0.328991
vt 0.004815 0.328935
vt 0.004953 0.328920
vt 0.004963 0.328973
vt 0.104421 0.202924
vt 0.005242 0.329196
vt 0.005175 0.329179
vt 0.004539 0.328677
vt 0.004499 0.328671
vt 0.103476 0.203828
vt 0.004839 0.328962
vt 0.004750 0.328904
vt 0.004804 0.328955
vn 0.007791 -0.001479 0.999969
vn 0.007791 -0.001479 0.999969
vn 0.007791 -0.001479 0.999969
vn 0.007791 -0.001479 0.999969
vn 0.007791 -0.001479 0.999969
vn 0.007791 -0.001479 0.999969
vn 0.002423 0.999997 -0.000111
vn 0.002423 0.999997 -0.000111
vn 0.002423 0.999997 -0.000111
vn 0.002423 0.999997 -0.000111
vn 0.002423 0.999997 -0.000111
vn 0.002423 0.999997 -0.000111
vn 0.007679 -0.002072 -0.999968
vn 0.007679 -0.002072 -0.999968
vn 0.007679 -0.002072 -0.999968
vn 0.007679 -0.002072 -0.999968
vn 0.002438 -0.999997 -0.000174
vn 0.002438 -0.999997 -0.000174
vn 0.002438 -0.999997 -0.000174
vn 0.002438 -0.999997 -0.000174
vn 1.000000 0.000000 0.000000
vn 1.000000 0.000000 0.000000
vn 1.000000 0.000000 0.000000
vn 1.000000 0.000000 0.000000
vn 1.000000 0.000000 0.000000
vn -1.000000 0.000002 0.000000
vn -1.000000 0.000002 0.000000
vn -1.000000 0.000002 0.000000
vn -1.000000 0.000002 0.000000
vn -1.000000 0.000002 0.000000
vn -0.007341 0.012625 0.999893
vn -0.007341 0.012625 0.999893
vn -0.007341 0.012625 0.999893
vn -0.007341 0.012625 0.999893
vn -0.007341 0.012626 0.999893
vn -0.002327 0.999995 0.002060
vn -0.002327 0.999995 0.002060
vn -0.002327 0.999995 0.002060
vn -0.002327 0.999995 0.002060
vn -0.002327 0.999995 0.002060
vn -0.002327 0.999995 0.002060
vn -0.007200 -0.006113 -0.999955
vn -0.007200 -0.006113 -0.999955
vn -0.007200 -0.006113 -0.999955
vn -0.007200 -0.006113 -0.999955
vn -0.007200 -0.006113 -0.999955
vn -0.002230 -0.999997 0.000159
vn -0.002230 -0.999998 0.000159
vn -0.002230 -0.999998 0.000159
vn -0.002230 -0.999997 0.000159
vn -0.167371 0.814909 0.554897
vn -0.167371 0.814908 0.554897
vn -0.167371 0.814909 0.554897
vn 0.172515 0.750853 -0.637541
vn 0.172515 0.750853 -0.637541
vn 0.172515 0.750853 -0.637541
vn -0.089249 0.879873 0.466754
vn -0.089249 0.879872 0.466754
vn -0.089249 0.879872 0.466754
vn 0.132030 0.860568 0.491926
vn 0.132030 0.860568 0.491926
vn 0.132030 0.860568 0.491926
s off
f 1/1/1 9/17/2 19/29/3 17/27/4 14/23/5 3/4/6
f 13/22/7 14/23/8 17/27/9 10/18/10 11/19/11 5/6/12
f 5/6/13 11/19/14 12/20/15 7/8/16
f 7/8/17 12/20/18 9/17/19 1/1/20
f 2/9/21 8/10/22 16/26/23 6/11/24 4/12/25
f 7/13/26 1/14/27 3/15/28 13/21/29 5/16/30
f 18/28/31 19/29/32 9/17/33 2/2/34 4/3/35
f 11/19/36 10/18/37 18/28/38 4/3/39 6/5/40 15/24/41
f 12/20/42 11/19/43 15/24/44 16/25/45 8/7/46
f 9/17/47 12/20/48 8/7/49 2/2/50
f 3/4/51 14/23/52 13/22/53
f 16/25/54 15/24/55 6/5/56
f 10/18/57 19/29/58 18/28/59
f 17/27/60 19/29/61 10/18/62
