# This file uses centimeters as units for non-parametric coordinates.

v -81.306318 0.000000 2.676696
v 82.239512 0.890110 2.676696
v -82.240278 107.852196 2.676696
v 81.304675 108.484764 2.676696
v -81.306318 0.000000 -0.000001
v -82.240278 107.852196 -0.000001
v 81.304675 108.484764 -0.000001
v 82.239512 0.890110 -0.000001
vt 0.347829 0.167800
vt 0.347829 0.268161
vt 0.499375 0.268161
vt 0.499375 0.167800
vt 0.347829 0.167800
vt 0.499375 0.167800
vt 0.499375 0.268161
vt 0.347829 0.268161
vt 0.350067 0.228016
vt 0.350061 0.227417
vt 0.350536 0.227495
vt 0.350504 0.228417
vn -0.000000 0.000000 -1.000000
vn -0.000000 0.000000 -1.000000
vn -0.000000 0.000000 -1.000000
vn -0.000000 0.000000 -1.000000
vn 0.000000 0.000000 1.000000
vn 0.000000 0.000000 1.000000
vn 0.000000 0.000000 1.000000
vn 0.000000 0.000000 1.000000
vn -0.999963 -0.008659 0.000000
vn -0.999963 -0.008659 0.000000
vn -0.999963 -0.008659 0.000000
vn -0.999963 -0.008659 0.000000
vn -0.003868 0.999993 0.000000
vn -0.003868 0.999993 0.000000
vn -0.003868 0.999993 0.000000
vn -0.003868 0.999993 0.000000
vn 0.999962 0.008688 0.000000
vn 0.999962 0.008688 0.000000
vn 0.999962 0.008688 0.000000
vn 0.999962 0.008688 0.000000
vn 0.005442 -0.999985 0.000000
vn 0.005442 -0.999985 0.000000
vn 0.005442 -0.999985 0.000000
vn 0.005442 -0.999985 0.000000
s off
f 5/9/1 6/10/2 7/11/3 8/12/4
f 1/5/5 2/6/6 4/7/7 3/8/8
f 1/5/9 3/8/10 6/2/11 5/1/12
f 3/8/13 4/7/14 7/3/15 6/2/16
f 4/7/17 2/6/18 8/4/19 7/3/20
f 2/6/21 1/5/22 5/1/23 8/4/24
