# This file uses centimeters as units for non-parametric coordinates.

v 39.632725 -0.718996 18.002363
v 34.884903 -0.718996 -31.771708
v 38.723228 0.562269 -31.700262
v 32.925289 48.553604 18.204592
v 28.260193 48.553604 -30.702219
v 28.984150 48.123360 19.018103
v 24.236328 48.123360 -30.755968
v 42.688560 0.562269 9.870527
v 42.019474 0.192865 17.402756
v 41.818871 7.760969 17.356255
v 32.924679 27.158775 -31.147152
v 29.334904 43.624172 -30.804733
v 30.825012 37.450726 -29.421623
v 29.560980 36.302078 -30.971914
v -18.806269 40.000000 27.817640
v 30.753233 40.000000 21.195292
v 30.263781 44.000000 20.821226
v -24.939165 44.000000 -21.367796
v 23.756819 44.000000 -27.874758
v -25.428617 40.000000 -21.741861
v 24.130884 40.000000 -28.364210
v -11.127806 44.000000 26.352144
v -18.488312 42.571655 27.401604
v -19.408247 44.000000 20.023790
v 26.657661 44.000000 -6.165795
v 24.425182 44.000000 -22.872948
v 23.757233 44.000000 -16.407757
v 25.523026 42.668877 -15.751506
v 20.171829 36.000000 25.874096
v 19.803677 40.000000 25.380180
v -21.718456 40.000000 -30.326118
v 26.895761 40.000000 -23.234035
v -22.086607 36.000000 -30.820034
v 27.389675 36.000000 -23.602188
v -29.162628 36.000000 17.684063
v -28.332268 36.000000 18.798077
v -28.668716 40.000000 17.315910
v -27.838354 40.000000 18.429924
v -25.000000 0.000000 25.000000
v 25.000000 0.000000 25.000000
v -24.564402 4.000000 24.564402
v 24.564402 4.000000 24.564402
v -24.564402 4.000000 -24.564402
v 24.564402 4.000000 -24.564402
v -25.000000 0.000000 -25.000000
v 25.000000 0.000000 -25.000000
v -20.408571 28.000000 25.747145
v 29.163572 28.000000 19.220076
v -20.033566 32.000000 25.258411
v 28.674839 32.000000 18.845070
v -26.446907 32.000000 -23.449993
v 22.261497 32.000000 -29.863335
v -26.935640 28.000000 -23.824999
v 22.636503 28.000000 -30.352068
v -23.521366 32.000000 24.958679
v 26.339565 32.000000 21.232067
v -23.119446 36.000000 24.491825
v 25.872711 36.000000 20.830147
v -26.781124 36.000000 -24.500332
v 22.211033 36.000000 -28.162010
v -27.247978 32.000000 -24.902252
v 22.612953 32.000000 -28.628864
v -19.930450 4.000000 26.734831
v 29.228210 4.000000 17.601027
v -19.581755 8.000000 26.226990
v 28.720369 8.000000 17.252331
v -28.556414 8.000000 -22.075134
v 19.745710 8.000000 -31.049793
v -29.064255 4.000000 -22.423830
v 20.094406 4.000000 -31.557634
v -30.194481 16.000000 23.834236
v 19.581059 16.000000 28.566631
v 19.188644 20.000000 28.091759
v -25.069672 20.000000 -25.466431
v 23.838581 20.000000 -20.816494
v -25.462086 16.000000 -25.941303
v 24.313454 16.000000 -21.208908
v -25.806950 20.000000 23.813816
v -29.938564 18.155695 23.622755
v -29.347614 20.000000 19.529163
v -26.460733 8.000000 21.051445
v 23.075514 8.000000 27.845562
v -25.969984 12.000000 20.679077
v 22.703146 12.000000 27.354813
v -19.294249 12.000000 -27.994053
v 29.378881 12.000000 -21.318317
v -19.666616 8.000000 -28.484802
v 29.869631 8.000000 -21.690685
v -25.487782 12.000000 27.357023
v 24.354839 12.000000 23.393019
v -25.088089 16.000000 26.888262
v 23.886078 16.000000 22.993326
v -28.983025 16.000000 -22.085905
v 19.991142 16.000000 -25.980841
v -29.451786 12.000000 -22.485598
v 20.390835 12.000000 -26.449602
v -28.422588 20.000000 18.892765
v 21.061317 20.000000 26.058174
v -27.929060 24.000000 18.524088
v 20.692640 24.000000 25.564646
v 27.733198 24.000000 -23.057055
v -21.257179 20.000000 -30.591141
v 28.226727 20.000000 -23.425732
v -12.926372 24.000000 -28.944674
v -21.228724 24.000000 -27.748062
v -20.980673 23.000000 -30.220995
v -21.200060 24.000000 30.270887
v 28.379942 24.000000 23.803785
v -20.824463 28.000000 29.782608
v -27.178883 28.000000 -18.933517
v 21.537243 28.000000 -25.287937
v -27.667162 24.000000 -19.309114
v 21.912840 24.000000 -25.776217
v 23.666832 28.000000 23.979265
v 27.916075 26.072100 23.446966
v 27.573942 28.000000 20.992380
vt 0.066895 0.173295
vt 0.066339 0.173000
vt 0.066343 0.172949
vt 0.066811 0.172762
vt 0.067338 0.172935
vt 0.066810 0.172803
vt 0.067339 0.172986
vt 0.066620 0.173088
vt 0.066895 0.173261
vt 0.067117 0.173081
vt 0.066603 0.172845
vt 0.066763 0.172781
vt 0.066723 0.172810
vt 0.066693 0.172823
vt 0.067338 0.172935
vt 0.066811 0.172762
vt 0.066810 0.172803
vt 0.067339 0.172986
vt 0.066339 0.173000
vt 0.066895 0.173295
vt 0.066693 0.172823
vt 0.067117 0.173081
vt 0.066895 0.173261
vt 0.066620 0.173088
vt 0.066343 0.172949
vt 0.066723 0.172810
vt 0.066763 0.172781
vt 0.066603 0.172845
vt 0.066885 0.173222
vt 0.066884 0.173290
vt 0.066339 0.173000
vt 0.066343 0.172949
vt 0.067338 0.172935
vt 0.066811 0.172762
vt 0.066810 0.172803
vt 0.067339 0.172986
vt 0.066904 0.173289
vt 0.066905 0.173222
vt 0.066895 0.173295
vt 0.066339 0.173000
vt 0.066343 0.172949
vt 0.066896 0.173227
vt 0.066811 0.172762
vt 0.067338 0.172935
vt 0.066810 0.172803
vt 0.067339 0.172986
vt 0.066895 0.173295
vt 0.066339 0.173000
vt 0.066343 0.172949
vt 0.066896 0.173227
vt 0.066811 0.172762
vt 0.067338 0.172935
vt 0.066810 0.172803
vt 0.067339 0.172986
vt 0.066895 0.173295
vt 0.066339 0.173000
vt 0.066343 0.172949
vt 0.066896 0.173227
vt 0.066811 0.172762
vt 0.067338 0.172935
vt 0.066810 0.172803
vt 0.067339 0.172986
vt 0.066895 0.173295
vt 0.066339 0.173000
vt 0.066343 0.172949
vt 0.066896 0.173227
vt 0.066811 0.172762
vt 0.067338 0.172935
vt 0.066810 0.172803
vt 0.067339 0.172986
vt 0.067338 0.172935
vt 0.066811 0.172762
vt 0.066810 0.172803
vt 0.067339 0.172986
vt 0.066339 0.173000
vt 0.066895 0.173295
vt 0.066343 0.172949
vt 0.067117 0.173081
vt 0.066895 0.173261
vt 0.066620 0.173088
vt 0.066895 0.173295
vt 0.066339 0.173000
vt 0.066343 0.172949
vt 0.066896 0.173227
vt 0.066811 0.172762
vt 0.067338 0.172935
vt 0.066810 0.172803
vt 0.067339 0.172986
vt 0.066895 0.173295
vt 0.066339 0.173000
vt 0.066343 0.172949
vt 0.066896 0.173227
vt 0.066811 0.172762
vt 0.067338 0.172935
vt 0.066810 0.172803
vt 0.067339 0.172986
vt 0.066895 0.173295
vt 0.066339 0.173000
vt 0.066343 0.172949
vt 0.066896 0.173227
vt 0.067339 0.172986
vt 0.066810 0.172803
vt 0.066811 0.172762
vt 0.067339 0.172960
vt 0.067117 0.173081
vt 0.067075 0.172849
vt 0.066341 0.172974
vt 0.066577 0.172855
vt 0.066620 0.173088
vt 0.067338 0.172935
vt 0.066811 0.172762
vt 0.066810 0.172803
vt 0.067339 0.172986
vt 0.066339 0.173000
vt 0.066895 0.173295
vt 0.066896 0.173227
vn -0.106445 0.994267 0.010153
vn -0.106445 0.994267 0.010153
vn -0.106445 0.994267 0.010153
vn -0.106445 0.994267 0.010153
vn -0.972433 -0.213938 0.092758
vn -0.972433 -0.213938 0.092758
vn -0.972433 -0.213938 0.092758
vn -0.972433 -0.213938 0.092758
vn 0.010879 0.023161 -0.999673
vn 0.010879 0.023161 -0.999673
vn 0.010879 0.023161 -0.999673
vn 0.995599 0.026941 0.089760
vn 0.995599 0.026941 0.089760
vn 0.995599 0.026941 0.089760
vn 0.316995 -0.947945 -0.030237
vn 0.316995 -0.947945 -0.030237
vn 0.316995 -0.947945 -0.030237
vn 0.972433 0.213938 -0.092758
vn 0.972433 0.213938 -0.092758
vn 0.972433 0.213938 -0.092758
vn 0.972433 0.213938 -0.092758
vn 0.203066 0.022235 0.978913
vn 0.203066 0.022235 0.978913
vn 0.203066 0.022235 0.978913
vn 0.203066 0.022235 0.978913
vn 0.760385 0.038281 -0.648343
vn 0.760385 0.038281 -0.648343
vn 0.760385 0.038281 -0.648343
vn 0.649669 0.252746 -0.716973
vn 0.649669 0.252746 -0.716973
vn 0.649669 0.252746 -0.716973
vn 0.010876 0.023161 -0.999673
vn 0.010876 0.023161 -0.999673
vn 0.010876 0.023161 -0.999673
vn 0.010876 0.023161 -0.999673
vn 0.010876 0.023161 -0.999673
vn 0.010876 0.023161 -0.999673
vn 0.010876 0.023161 -0.999673
vn 0.010876 0.023161 -0.999673
vn 0.972433 0.213938 -0.092758
vn 0.972433 0.213938 -0.092758
vn 0.972433 0.213938 -0.092758
vn 0.972433 0.213938 -0.092758
vn 0.972433 0.213938 -0.092758
vn 0.972433 0.213938 -0.092758
vn 0.972433 0.213938 -0.092758
vn 0.972433 0.213938 -0.092758
vn 0.320151 -0.946926 -0.028891
vn 0.320151 -0.946926 -0.028891
vn 0.320151 -0.946926 -0.028891
vn 0.320151 -0.946926 -0.028891
vn 0.199673 0.023161 0.979589
vn 0.199673 0.023161 0.979589
vn 0.199673 0.023161 0.979589
vn -0.131669 0.108259 -0.985365
vn -0.131669 0.108259 -0.985365
vn -0.131669 0.108259 -0.985365
vn -0.131669 0.108259 -0.985365
vn 0.000000 -1.000000 0.000000
vn 0.000000 -1.000000 0.000000
vn 0.000000 -1.000000 0.000000
vn 0.000000 -1.000000 0.000000
vn 0.985364 0.108262 -0.131669
vn 0.985364 0.108262 -0.131669
vn 0.985364 0.108262 -0.131669
vn -0.157917 0.965591 0.206629
vn -0.157917 0.965591 0.206629
vn -0.157917 0.965591 0.206629
vn 0.131669 0.108259 0.985365
vn 0.131669 0.108259 0.985365
vn 0.131669 0.108259 0.985365
vn -0.000000 1.000000 -0.000000
vn -0.000000 1.000000 -0.000000
vn -0.000000 1.000000 -0.000000
vn -0.000000 1.000000 -0.000000
vn -0.984799 0.111423 0.133248
vn -0.984799 0.111423 0.133248
vn -0.984799 0.111423 0.133248
vn -0.984799 0.111423 0.133248
vn 0.586400 0.807753 0.060584
vn 0.586400 0.807753 0.060584
vn 0.586400 0.807753 0.060584
vn 0.633853 0.752336 -0.179501
vn 0.633853 0.752336 -0.179501
vn 0.633853 0.752336 -0.179501
vn 0.985365 0.108259 -0.131669
vn 0.985365 0.108259 -0.131669
vn 0.985365 0.108259 -0.131669
vn 0.985365 0.108259 -0.131669
vn 0.985365 0.108258 -0.131669
vn 0.985365 0.108258 -0.131669
vn 0.985365 0.108258 -0.131669
vn 0.985365 0.108258 -0.131669
vn 0.000000 1.000000 0.000000
vn 0.000000 1.000000 0.000000
vn 0.000000 1.000000 0.000000
vn 0.000000 1.000000 0.000000
vn 0.000000 1.000000 0.000000
vn 0.000000 1.000000 0.000000
vn 0.000000 1.000000 0.000000
vn 0.000000 1.000000 0.000000
vn 0.129996 0.111422 0.985234
vn 0.129996 0.111422 0.985234
vn 0.129996 0.111422 0.985234
vn 0.129996 0.111422 0.985234
vn -0.985365 0.108259 0.131669
vn -0.985365 0.108259 0.131669
vn -0.985365 0.108259 0.131669
vn -0.143509 0.108259 0.983710
vn -0.143509 0.108259 0.983710
vn -0.143509 0.108259 0.983710
vn -0.143509 0.108259 0.983710
vn 0.143508 0.108259 -0.983710
vn 0.143508 0.108259 -0.983710
vn 0.143508 0.108259 -0.983710
vn 0.143508 0.108259 -0.983710
vn 0.000000 -1.000000 -0.000000
vn 0.000000 -1.000000 -0.000000
vn 0.000000 -1.000000 -0.000000
vn 0.000000 -1.000000 -0.000000
vn 0.983710 0.108259 0.143509
vn 0.983710 0.108259 0.143509
vn 0.983710 0.108259 0.143509
vn 0.983710 0.108259 0.143509
vn -0.983710 0.108258 -0.143509
vn -0.983710 0.108258 -0.143509
vn -0.983710 0.108258 -0.143509
vn -0.983710 0.108258 -0.143509
vn 0.000000 1.000000 0.000000
vn 0.000000 1.000000 0.000000
vn 0.000000 1.000000 0.000000
vn -0.792433 0.152212 0.590662
vn -0.792433 0.152212 0.590662
vn -0.792433 0.152212 0.590662
vn -0.792433 0.152212 0.590662
vn 0.000000 1.000000 0.000000
vn 0.000000 1.000000 0.000000
vn 0.000000 1.000000 0.000000
vn 0.000000 1.000000 0.000000
vn 0.000000 -1.000000 -0.000000
vn 0.000000 -1.000000 -0.000000
vn 0.000000 -1.000000 0.000000
vn 0.000000 0.108260 0.994123
vn 0.000000 0.108260 0.994123
vn 0.000000 0.108260 0.994123
vn 0.000000 0.108260 0.994123
vn 0.000000 1.000000 0.000000
vn 0.000000 1.000000 0.000000
vn 0.000000 1.000000 0.000000
vn 0.000000 1.000000 0.000000
vn 0.000000 0.108260 -0.994123
vn 0.000000 0.108260 -0.994123
vn 0.000000 0.108260 -0.994123
vn 0.000000 0.108260 -0.994123
vn 0.000000 -1.000000 0.000000
vn 0.000000 -1.000000 0.000000
vn 0.000000 -1.000000 0.000000
vn 0.000000 -1.000000 0.000000
vn 0.994123 0.108260 0.000000
vn 0.994123 0.108260 0.000000
vn 0.994123 0.108260 0.000000
vn 0.994123 0.108260 0.000000
vn -0.994123 0.108260 0.000000
vn -0.994123 0.108260 0.000000
vn -0.994123 0.108260 0.000000
vn -0.994123 0.108260 0.000000
vn 0.129774 0.108259 0.985616
vn 0.129774 0.108259 0.985616
vn 0.129774 0.108259 0.985616
vn 0.129774 0.108259 0.985616
vn 0.000000 1.000000 0.000000
vn 0.000000 1.000000 0.000000
vn 0.000000 1.000000 0.000000
vn 0.000000 1.000000 0.000000
vn -0.129774 0.108259 -0.985616
vn -0.129774 0.108259 -0.985616
vn -0.129774 0.108259 -0.985616
vn -0.129774 0.108259 -0.985616
vn 0.000000 -1.000000 0.000000
vn 0.000000 -1.000000 0.000000
vn 0.000000 -1.000000 0.000000
vn 0.000000 -1.000000 0.000000
vn 0.985616 0.108260 -0.129774
vn 0.985616 0.108260 -0.129774
vn 0.985616 0.108260 -0.129774
vn 0.985616 0.108260 -0.129774
vn -0.985616 0.108259 0.129774
vn -0.985616 0.108259 0.129774
vn -0.985616 0.108259 0.129774
vn -0.985616 0.108259 0.129774
vn 0.074094 0.108260 0.991358
vn 0.074094 0.108260 0.991358
vn 0.074094 0.108260 0.991358
vn 0.074094 0.108260 0.991358
vn 0.000000 1.000000 0.000000
vn 0.000000 1.000000 0.000000
vn 0.000000 1.000000 0.000000
vn 0.000000 1.000000 0.000000
vn -0.074094 0.108260 -0.991358
vn -0.074094 0.108260 -0.991358
vn -0.074094 0.108260 -0.991358
vn -0.074094 0.108260 -0.991358
vn 0.000000 -1.000000 0.000000
vn 0.000000 -1.000000 0.000000
vn 0.000000 -1.000000 0.000000
vn 0.000000 -1.000000 0.000000
vn 0.991358 0.108260 -0.074094
vn 0.991358 0.108260 -0.074094
vn 0.991358 0.108260 -0.074094
vn 0.991358 0.108260 -0.074094
vn -0.991358 0.108260 0.074094
vn -0.991358 0.108260 0.074094
vn -0.991358 0.108260 0.074094
vn -0.991358 0.108260 0.074094
vn 0.181602 0.108259 0.977395
vn 0.181602 0.108259 0.977395
vn 0.181602 0.108259 0.977395
vn 0.181602 0.108259 0.977395
vn 0.000000 1.000000 0.000000
vn 0.000000 1.000000 0.000000
vn 0.000000 1.000000 0.000000
vn 0.000000 1.000000 0.000000
vn -0.181602 0.108259 -0.977395
vn -0.181602 0.108259 -0.977395
vn -0.181602 0.108259 -0.977395
vn -0.181603 0.108259 -0.977395
vn 0.000000 -1.000000 0.000000
vn 0.000000 -1.000000 0.000000
vn 0.000000 -1.000000 0.000000
vn 0.000000 -1.000000 0.000000
vn 0.977395 0.108259 -0.181602
vn 0.977395 0.108259 -0.181602
vn 0.977395 0.108259 -0.181602
vn 0.977395 0.108259 -0.181602
vn -0.977395 0.108260 0.181602
vn -0.977395 0.108260 0.181602
vn -0.977395 0.108260 0.181602
vn -0.977395 0.108260 0.181602
vn 0.094092 0.108259 -0.989660
vn 0.094092 0.108259 -0.989660
vn 0.094092 0.108259 -0.989660
vn 0.094092 0.108259 -0.989660
vn 0.000000 -1.000000 0.000000
vn 0.000000 -1.000000 0.000000
vn 0.000000 -1.000000 0.000000
vn 0.000000 -1.000000 0.000000
vn 0.989660 0.108259 0.094092
vn 0.989660 0.108259 0.094092
vn 0.989660 0.108259 0.094092
vn 0.989660 0.108259 0.094092
vn -0.397617 0.856703 0.328574
vn -0.397617 0.856703 0.328574
vn -0.397617 0.856703 0.328574
vn -0.094091 0.108259 0.989660
vn -0.094091 0.108259 0.989660
vn -0.094091 0.108259 0.989660
vn 0.000000 1.000000 0.000000
vn 0.000000 1.000000 0.000000
vn 0.000000 1.000000 0.000000
vn -0.989660 0.108257 -0.094092
vn -0.989660 0.108257 -0.094092
vn -0.989660 0.108257 -0.094092
vn -0.989660 0.108260 -0.094092
vn -0.989660 0.108260 -0.094092
vn -0.989660 0.108260 -0.094092
vn -0.989660 0.108260 -0.094092
vn -0.094092 0.108259 0.989660
vn -0.094092 0.108259 0.989660
vn -0.094092 0.108259 0.989660
vn -0.094092 0.108259 0.989660
vn 0.000000 1.000000 0.000000
vn 0.000000 1.000000 0.000000
vn 0.000000 1.000000 0.000000
vn 0.000000 1.000000 0.000000
vn -0.135084 0.108260 0.984902
vn -0.135084 0.108260 0.984902
vn -0.135084 0.108260 0.984902
vn -0.135084 0.108260 0.984902
vn 0.000000 1.000000 0.000000
vn 0.000000 1.000000 0.000000
vn 0.000000 1.000000 0.000000
vn 0.000000 1.000000 0.000000
vn 0.135084 0.108260 -0.984902
vn 0.135084 0.108260 -0.984902
vn 0.135084 0.108260 -0.984902
vn 0.135084 0.108260 -0.984902
vn 0.000000 -1.000000 0.000000
vn 0.000000 -1.000000 0.000000
vn 0.000000 -1.000000 0.000000
vn 0.000000 -1.000000 0.000000
vn 0.984902 0.108260 0.135084
vn 0.984902 0.108260 0.135084
vn 0.984902 0.108260 0.135084
vn 0.984902 0.108260 0.135084
vn -0.984902 0.108260 -0.135084
vn -0.984902 0.108260 -0.135084
vn -0.984902 0.108260 -0.135084
vn -0.984902 0.108260 -0.135084
vn 0.078814 0.108259 0.990994
vn 0.078814 0.108259 0.990994
vn 0.078814 0.108259 0.990994
vn 0.078814 0.108259 0.990994
vn 0.000000 1.000000 0.000000
vn 0.000000 1.000000 0.000000
vn 0.000000 1.000000 0.000000
vn 0.000000 1.000000 0.000000
vn -0.078814 0.108259 -0.990994
vn -0.078814 0.108259 -0.990994
vn -0.078814 0.108259 -0.990994
vn -0.078814 0.108259 -0.990994
vn 0.000000 -1.000000 0.000000
vn 0.000000 -1.000000 0.000000
vn 0.000000 -1.000000 0.000000
vn 0.000000 -1.000000 0.000000
vn 0.990994 0.108260 -0.078814
vn 0.990993 0.108260 -0.078814
vn 0.990993 0.108260 -0.078814
vn 0.990993 0.108260 -0.078814
vn -0.990994 0.108260 0.078814
vn -0.990993 0.108260 0.078814
vn -0.990993 0.108260 0.078814
vn -0.990993 0.108260 0.078814
vn -0.142466 0.108259 0.983861
vn -0.142466 0.108259 0.983861
vn -0.142466 0.108259 0.983861
vn -0.142466 0.108259 0.983861
vn 0.000000 -1.000000 0.000000
vn 0.000000 -1.000000 0.000000
vn 0.000000 -1.000000 0.000000
vn 0.000000 -1.000000 0.000000
vn 0.983861 0.108259 0.142466
vn 0.983861 0.108259 0.142466
vn 0.983861 0.108259 0.142466
vn 0.983861 0.108259 0.142466
vn -0.054630 0.923770 -0.379032
vn -0.054630 0.923770 -0.379032
vn -0.054630 0.923770 -0.379032
vn -0.000000 1.000000 0.000000
vn -0.000000 1.000000 0.000000
vn -0.000000 1.000000 0.000000
vn -0.000000 1.000000 0.000000
vn 0.142466 0.108259 -0.983861
vn 0.142466 0.108259 -0.983861
vn 0.142466 0.108259 -0.983861
vn 0.142466 0.108259 -0.983861
vn -0.983862 0.108259 -0.142466
vn -0.983862 0.108259 -0.142466
vn -0.983862 0.108259 -0.142466
vn -0.983862 0.108259 -0.142466
vn -0.983862 0.108259 -0.142466
vn -0.983862 0.108259 -0.142466
vn -0.983862 0.108259 -0.142466
vn 0.142466 0.108259 -0.983861
vn 0.142466 0.108259 -0.983861
vn 0.142466 0.108259 -0.983861
vn -0.000000 1.000000 0.000000
vn -0.000000 1.000000 0.000000
vn -0.000000 1.000000 0.000000
vn 0.404642 0.745720 0.529308
vn 0.404642 0.745720 0.529308
vn 0.404642 0.745720 0.529308
vn -0.128582 0.108259 -0.985772
vn -0.128582 0.108259 -0.985772
vn -0.128582 0.108259 -0.985772
vn -0.128582 0.108259 -0.985772
vn 0.000000 -1.000000 0.000000
vn 0.000000 -1.000000 0.000000
vn 0.000000 -1.000000 0.000000
vn 0.000000 -1.000000 0.000000
vn -0.985772 0.108259 0.128582
vn -0.985772 0.108259 0.128582
vn -0.985772 0.108259 0.128582
vn -0.985772 0.108259 0.128582
vn 0.985869 0.109626 -0.126665
vn 0.985869 0.109626 -0.126665
vn 0.985869 0.109626 -0.126665
vn 0.000000 1.000000 0.000000
vn 0.000000 1.000000 0.000000
vn 0.000000 1.000000 0.000000
vn 0.130464 0.110499 0.985276
vn 0.130464 0.110499 0.985276
vn 0.130464 0.110499 0.985276
vn 0.000000 1.000000 0.000000
vn 0.000000 1.000000 0.000000
vn 0.000000 1.000000 0.000000
vn 0.000000 1.000000 0.000000
vn 0.130464 0.110499 0.985276
vn 0.130464 0.110499 0.985276
vn 0.130464 0.110499 0.985276
vn 0.130464 0.110499 0.985276
vn 0.985869 0.109626 -0.126665
vn 0.985869 0.109626 -0.126665
vn 0.985869 0.109626 -0.126665
vn 0.985869 0.109626 -0.126665
s off
f 4/5/1 5/4/2 7/6/3 6/7/4
f 6/7/5 7/6/6 2/2/7 1/1/8
f 2/2/9 7/6/10 14/14/11
f 10/10/12 9/9/13 8/8/14
f 8/8/15 2/2/16 3/3/17
f 10/10/18 8/8/19 13/13/20 4/5/21
f 6/7/22 1/1/23 9/9/24 10/10/25
f 13/13/26 14/14/27 12/12/28
f 11/11/29 14/14/30 13/13/31
f 14/14/32 7/6/33 5/4/34 12/12/35
f 2/2/36 14/14/37 11/11/38 3/3/39
f 13/13/40 8/8/41 3/3/42 11/11/43
f 4/5/44 13/13/45 12/12/46 5/4/47
f 1/1/48 2/2/49 8/8/50 9/9/51
f 6/7/52 10/10/53 4/5/54
f 18/15/55 19/16/56 21/17/57 20/18/58
f 20/18/59 21/17/60 16/19/61 15/20/62
f 16/19/63 21/17/64 28/21/65
f 24/22/66 23/23/67 22/24/68
f 22/24/69 16/19/70 17/25/71
f 24/22/72 22/24/73 27/26/74 18/15/75
f 20/18/76 15/20/77 23/23/78 24/22/79
f 27/26/80 28/21/81 26/27/82
f 25/28/83 28/21/84 27/26/85
f 28/21/86 21/17/87 19/16/88 26/27/89
f 16/19/90 28/21/91 25/28/92 17/25/93
f 27/26/94 22/24/95 17/25/96 25/28/97
f 18/15/98 27/26/99 26/27/100 19/16/101
f 15/20/102 16/19/103 22/24/104 23/23/105
f 20/18/106 24/22/107 18/15/108
f 38/29/109 36/30/110 29/31/111 30/32/112
f 31/33/113 32/34/114 34/35/115 33/36/116
f 33/36/117 34/35/118 29/31/119 36/30/120
f 29/31/121 34/35/122 32/34/123 30/32/124
f 33/36/125 35/37/126 37/38/127 31/33/128
f 37/38/129 38/29/130 31/33/131
f 35/37/132 36/30/133 38/29/134 37/38/135
f 31/33/136 38/29/137 30/32/138 32/34/139
f 33/36/140 36/30/141 35/37/142
f 39/39/143 40/40/144 42/41/145 41/42/146
f 41/42/147 42/41/148 44/43/149 43/44/150
f 43/44/151 44/43/152 46/45/153 45/46/154
f 45/46/155 46/45/156 40/40/157 39/39/158
f 40/40/159 46/45/160 44/43/161 42/41/162
f 45/46/163 39/39/164 41/42/165 43/44/166
f 47/47/167 48/48/168 50/49/169 49/50/170
f 49/50/171 50/49/172 52/51/173 51/52/174
f 51/52/175 52/51/176 54/53/177 53/54/178
f 53/54/179 54/53/180 48/48/181 47/47/182
f 48/48/183 54/53/184 52/51/185 50/49/186
f 53/54/187 47/47/188 49/50/189 51/52/190
f 55/55/191 56/56/192 58/57/193 57/58/194
f 57/58/195 58/57/196 60/59/197 59/60/198
f 59/60/199 60/59/200 62/61/201 61/62/202
f 61/62/203 62/61/204 56/56/205 55/55/206
f 56/56/207 62/61/208 60/59/209 58/57/210
f 61/62/211 55/55/212 57/58/213 59/60/214
f 63/63/215 64/64/216 66/65/217 65/66/218
f 65/66/219 66/65/220 68/67/221 67/68/222
f 67/68/223 68/67/224 70/69/225 69/70/226
f 69/70/227 70/69/228 64/64/229 63/63/230
f 64/64/231 70/69/232 68/67/233 66/65/234
f 69/70/235 63/63/236 65/66/237 67/68/238
f 74/71/239 75/72/240 77/73/241 76/74/242
f 76/74/243 77/73/244 72/75/245 71/76/246
f 72/75/247 77/73/248 75/72/249 73/77/250
f 80/78/251 79/79/252 78/80/253
f 71/76/254 78/80/255 79/79/256
f 80/78/257 78/80/258 74/71/259
f 80/78/260 71/76/261 79/79/262
f 76/74/263 71/76/264 80/78/265 74/71/266
f 71/76/267 72/75/268 73/77/269 78/80/270
f 74/71/271 78/80/272 73/77/273 75/72/274
f 81/81/275 82/82/276 84/83/277 83/84/278
f 83/84/279 84/83/280 86/85/281 85/86/282
f 85/86/283 86/85/284 88/87/285 87/88/286
f 87/88/287 88/87/288 82/82/289 81/81/290
f 82/82/291 88/87/292 86/85/293 84/83/294
f 87/88/295 81/81/296 83/84/297 85/86/298
f 89/89/299 90/90/300 92/91/301 91/92/302
f 91/92/303 92/91/304 94/93/305 93/94/306
f 93/94/307 94/93/308 96/95/309 95/96/310
f 95/96/311 96/95/312 90/90/313 89/89/314
f 90/90/315 96/95/316 94/93/317 92/91/318
f 95/96/319 89/89/320 91/92/321 93/94/322
f 97/97/323 98/98/324 100/99/325 99/100/326
f 102/101/327 103/102/328 98/98/329 97/97/330
f 98/98/331 103/102/332 101/103/333 100/99/334
f 106/104/335 105/105/336 104/106/337
f 99/100/338 100/99/339 101/103/340 104/106/341
f 102/101/342 104/106/343 101/103/344 103/102/345
f 102/101/346 97/97/347 99/100/348 105/105/349
f 102/101/350 105/105/351 106/104/352
f 106/104/353 104/106/354 102/101/355
f 99/100/356 104/106/357 105/105/358
f 115/107/359 116/108/360 114/109/361
f 110/110/362 111/111/363 113/112/364 112/113/365
f 112/113/366 113/112/367 108/114/368 107/115/369
f 112/113/370 107/115/371 109/116/372 110/110/373
f 108/114/374 116/108/375 115/107/376
f 111/111/377 114/109/378 116/108/379
f 114/109/380 108/114/381 115/107/382
f 109/116/383 114/109/384 111/111/385 110/110/386
f 107/115/387 108/114/388 114/109/389 109/116/390
f 108/114/391 113/112/392 111/111/393 116/108/394
