# This file uses centimeters as units for non-parametric coordinates.

v 46.379639 227.030060 1.422775
v -47.658936 227.030090 1.422775
v -114.155029 160.534515 1.422775
v -114.155029 66.495567 1.422775
v -47.658936 0.000000 1.422775
v 46.379639 -0.000000 1.422775
v 112.875244 66.495575 1.422775
v 112.875244 160.534531 1.422775
v 299.360596 227.030060 254.403015
v 299.360596 227.030090 348.442078
v 299.361084 160.534515 414.937195
v 299.361084 66.495567 414.937195
v 299.360596 0.000000 348.442078
v 299.360596 -0.000000 254.403015
v 299.360596 66.495575 187.907394
v 299.360596 160.534531 187.907394
v 40.650635 213.198212 1.422775
v -41.930420 213.198227 1.423264
v -100.322998 72.224915 1.422775
v -41.930420 13.831856 1.423264
v 40.650635 13.831856 1.422775
v 99.043213 72.224915 1.422775
v 99.043213 154.805176 1.422775
v 299.360596 213.198212 260.132507
v 299.360596 213.198227 342.712585
v 299.361084 154.805161 401.105652
v 299.361084 72.224915 401.105652
v 299.360107 13.831856 342.713074
v 299.360596 13.831856 260.132507
v 299.360596 72.224915 201.739426
v 299.360596 154.805176 201.739426
v -100.322998 154.805161 1.422775
v 36.052002 201.508560 13.303146
v -36.783936 201.508591 16.286057
v 312.736084 201.508560 264.974304
v 312.736084 201.508591 337.870789
v -36.783936 25.521488 16.286057
v -88.285889 77.066917 18.394943
v 312.736084 77.066917 389.416199
v 312.736084 25.521488 337.871277
v 36.052002 25.521488 13.303146
v 312.736084 25.521488 264.974304
v 87.553955 77.066917 11.194260
v 312.736084 77.066917 213.429367
v 87.553955 149.963165 11.194260
v 312.736084 149.963165 213.429367
v -88.285889 149.963150 18.394943
v 312.736084 149.963150 389.416199
v 40.888916 213.198212 13.105392
v -41.621826 213.198227 16.484299
v 312.736084 213.198212 260.132507
v 312.736084 213.198227 342.712585
v -41.621826 13.831856 16.484299
v -99.966064 72.224915 18.873459
v 312.736084 13.831856 342.712585
v 312.736084 72.224915 401.105652
v 40.888916 13.831856 13.105392
v 312.736084 13.831856 260.132507
v 99.233643 72.224915 10.716232
v 312.736084 72.224915 201.739914
v 99.233643 154.805176 10.716232
v 312.736084 154.805176 201.739914
v -99.966064 154.805161 18.873459
v 312.736084 154.805161 401.105652
v 116.140381 -0.000000 186.356979
v 161.604248 66.495575 138.420944
v 161.604248 160.534515 138.420944
v 116.140381 227.030060 186.356979
v 49.479248 227.030090 252.216858
v 1.591553 160.534515 298.273010
v 1.591553 66.495575 298.273010
v 49.479248 0.000002 252.216858
v 59.651123 -0.000000 97.766647
v 120.167725 66.495575 72.562057
v 120.167725 160.534515 72.562057
v 59.651123 227.030060 97.766647
v -27.568604 227.030090 132.864304
v -89.259033 160.534515 157.681198
v -89.259033 66.495575 157.681198
v -27.568604 0.000001 132.864304
v 166.239990 0.000002 330.888733
v 140.033936 66.495575 392.862366
v 140.033936 160.534515 392.862366
v 166.239990 227.030090 330.888733
v 201.874756 227.030060 242.615295
v 226.151123 160.534515 179.932663
v 226.151123 66.495575 179.932663
v 201.874756 -0.000000 242.615295
v 116.864014 201.508560 201.927780
v 150.773193 149.963165 163.341843
v 150.773193 77.066917 163.341843
v 116.864014 25.521488 201.927780
v 67.508545 25.521488 255.332092
v 32.004639 77.066917 292.603577
v 32.004639 149.963165 292.603577
v 67.508545 201.508591 255.332092
v 184.209717 201.508591 325.936584
v 166.176514 149.963165 374.977112
v 166.176514 77.066917 374.977112
v 184.209717 25.521488 325.936584
v 208.868896 25.521488 256.342834
v 225.790771 77.066917 207.035202
v 225.790771 149.963165 207.035202
v 208.868896 201.508560 256.342834
v 54.466553 201.508560 112.641159
v 100.667725 149.963165 91.242722
v 100.667725 77.066917 91.242722
v 54.466553 25.521488 112.641159
v -11.931885 25.521488 142.594772
v -58.926025 77.066917 163.772507
v -58.926025 149.963165 163.772507
v -11.931885 201.508591 142.594772
vt 0.101656 0.327410
vt 0.102252 0.326931
vt 0.102113 0.326880
vt 0.101505 0.327335
vt 0.101457 0.326929
vt 0.101365 0.327007
vt 0.102015 0.326596
vt 0.102113 0.326517
vt 0.102261 0.326563
vt 0.102122 0.326544
vt 0.102251 0.326584
vt 0.102244 0.326906
vt 0.102121 0.326862
vt 0.102017 0.326744
vt 0.102037 0.326742
vt 0.101618 0.326997
vt 0.101748 0.327177
vt 0.101724 0.327177
vt 0.101611 0.327020
vt 0.101760 0.327349
vt 0.101735 0.327328
vt 0.101644 0.327382
vt 0.101511 0.327317
vt 0.101388 0.327174
vt 0.101408 0.327174
vt 0.101388 0.327027
vt 0.102229 0.326611
vt 0.102115 0.326575
vt 0.101459 0.326999
vt 0.101583 0.327053
vt 0.102342 0.326713
vt 0.102365 0.326710
vt 0.102337 0.326847
vt 0.102358 0.326864
vt 0.102223 0.326896
vt 0.102305 0.326844
vt 0.101694 0.327325
vt 0.101615 0.327373
vt 0.102115 0.326857
vt 0.101496 0.327315
vt 0.102039 0.326751
vt 0.101404 0.327188
vt 0.102038 0.326635
vt 0.101387 0.327058
vt 0.101469 0.326960
vt 0.102035 0.326612
vt 0.102309 0.326725
vt 0.101683 0.327192
vt 0.102237 0.326593
vt 0.102107 0.326553
vt 0.101448 0.326973
vt 0.101590 0.327034
vt 0.102230 0.326917
vt 0.102323 0.326858
vt 0.101715 0.327344
vt 0.101625 0.327397
vt 0.102108 0.326872
vt 0.101491 0.327331
vt 0.102023 0.326752
vt 0.101387 0.327188
vt 0.102021 0.326621
vt 0.101367 0.327041
vt 0.102328 0.326723
vt 0.101703 0.327192
vt 0.101809 0.327107
vt 0.101702 0.326959
vt 0.101690 0.326802
vt 0.101785 0.326723
vt 0.101940 0.326780
vt 0.102056 0.326944
vt 0.102059 0.327107
vt 0.101954 0.327170
vt 0.101961 0.326994
vt 0.101860 0.326852
vt 0.101852 0.326699
vt 0.101949 0.326620
vt 0.102100 0.326671
vt 0.102211 0.326827
vt 0.102209 0.326985
vt 0.102103 0.327050
vt 0.101805 0.327290
vt 0.101909 0.327228
vt 0.101902 0.327060
vt 0.101779 0.326889
vt 0.101621 0.326826
vt 0.101527 0.326904
vt 0.101545 0.327066
vt 0.101657 0.327221
vt 0.101787 0.326787
vt 0.101712 0.326846
vt 0.101722 0.326969
vt 0.101806 0.327086
vt 0.101919 0.327135
vt 0.102000 0.327084
vt 0.101996 0.326958
vt 0.101906 0.326832
vt 0.101745 0.326943
vt 0.101840 0.327075
vt 0.101847 0.327205
vt 0.101767 0.327254
vt 0.101651 0.327201
vt 0.101563 0.327079
vt 0.101550 0.326952
vt 0.101623 0.326893
vt 0.101951 0.326681
vt 0.101875 0.326741
vt 0.101881 0.326860
vt 0.101960 0.326971
vt 0.102071 0.327015
vt 0.102152 0.326964
vt 0.102153 0.326841
vt 0.102068 0.326722
vn -0.000000 -1.000000 0.000000
vn -0.000000 -1.000000 0.000000
vn -0.000000 -1.000000 0.000000
vn -0.000000 -1.000000 0.000000
vn 0.388863 0.701085 -0.597717
vn 0.388863 0.701085 -0.597717
vn 0.388863 0.701085 -0.597717
vn 0.388863 0.701085 -0.597717
vn -0.000003 -0.000018 -1.000000
vn -0.000003 -0.000018 -1.000000
vn -0.000003 -0.000018 -1.000000
vn -0.000003 -0.000018 -1.000000
vn -0.000003 0.000018 -1.000000
vn -0.000003 0.000018 -1.000000
vn -0.000003 0.000018 -1.000000
vn -0.000003 0.000018 -1.000000
vn -0.000000 0.000000 -1.000000
vn -0.000000 0.000000 -1.000000
vn -0.000000 0.000000 -1.000000
vn -0.000000 0.000000 -1.000000
vn 1.000000 0.000004 -0.000004
vn 1.000000 0.000004 -0.000004
vn 1.000000 0.000004 -0.000004
vn 1.000000 0.000004 -0.000004
vn 1.000000 0.000000 0.000000
vn 1.000000 0.000000 0.000000
vn 1.000000 0.000000 0.000000
vn 1.000000 0.000000 0.000000
vn 1.000000 0.000006 -0.000018
vn 1.000000 0.000006 -0.000018
vn 1.000000 0.000006 -0.000018
vn 1.000000 0.000006 -0.000018
vn 1.000000 0.000018 0.000003
vn 1.000000 0.000018 0.000003
vn 1.000000 0.000018 0.000003
vn 1.000000 0.000018 0.000003
vn 1.000000 -0.000001 0.000000
vn 1.000000 -0.000001 0.000000
vn 1.000000 -0.000001 0.000000
vn 1.000000 -0.000001 0.000000
vn 1.000000 0.000000 0.000000
vn 1.000000 0.000000 0.000000
vn 1.000000 0.000000 0.000000
vn 1.000000 0.000000 0.000000
vn -0.000000 -1.000000 0.000000
vn -0.000000 -1.000000 0.000000
vn -0.000000 -1.000000 0.000000
vn -0.000000 -1.000000 0.000000
vn 0.000014 -0.000011 -1.000000
vn 0.000014 -0.000011 -1.000000
vn 0.000014 -0.000011 -1.000000
vn 0.000014 -0.000011 -1.000000
vn -0.000000 0.000000 -1.000000
vn -0.000000 0.000000 -1.000000
vn -0.000000 0.000000 -1.000000
vn -0.000000 0.000000 -1.000000
vn 0.370872 0.701814 -0.608203
vn 0.370872 0.701814 -0.608203
vn 0.370872 0.701814 -0.608203
vn 0.370872 0.701814 -0.608203
vn 0.000000 1.000000 0.000000
vn 0.000000 1.000000 0.000000
vn 0.000000 1.000000 0.000000
vn 0.000000 1.000000 0.000000
vn -0.360857 0.701697 0.614332
vn -0.360857 0.701697 0.614332
vn -0.360857 0.701697 0.614332
vn -0.360857 0.701697 0.614332
vn -0.503296 0.000000 0.864114
vn -0.503296 0.000000 0.864114
vn -0.503296 0.000000 0.864114
vn -0.503296 0.000000 0.864114
vn -0.360856 -0.701697 0.614332
vn -0.360856 -0.701697 0.614332
vn -0.360856 -0.701697 0.614332
vn -0.360856 -0.701697 0.614332
vn 1.000000 -0.000001 0.000000
vn 1.000000 -0.000001 0.000000
vn 1.000000 -0.000001 0.000000
vn 1.000000 -0.000001 0.000000
vn 1.000000 0.000001 0.000000
vn 1.000000 0.000001 0.000000
vn 1.000000 0.000001 0.000000
vn 1.000000 0.000001 0.000000
vn 0.540917 0.000000 -0.841076
vn 0.540917 0.000000 -0.841076
vn 0.540917 0.000000 -0.841076
vn 0.540917 0.000000 -0.841076
vn -0.000000 0.000000 -1.000000
vn -0.000000 0.000000 -1.000000
vn -0.000000 0.000000 -1.000000
vn -0.000000 0.000000 -1.000000
vn 0.000000 0.000000 -1.000000
vn 0.000000 0.000000 -1.000000
vn 0.000000 0.000000 -1.000000
vn 0.000000 0.000000 -1.000000
vn 0.370872 -0.701814 -0.608203
vn 0.370872 -0.701814 -0.608203
vn 0.370872 -0.701814 -0.608203
vn 0.370872 -0.701814 -0.608203
vn 0.523204 0.000000 -0.852207
vn 0.523204 0.000000 -0.852207
vn 0.523204 0.000000 -0.852207
vn 0.523204 0.000000 -0.852207
vn 0.000014 0.000011 -1.000000
vn 0.000014 0.000011 -1.000000
vn 0.000014 0.000011 -1.000000
vn 0.000014 0.000011 -1.000000
vn -0.400170 -0.701742 0.589425
vn -0.400170 -0.701742 0.589425
vn -0.400170 -0.701742 0.589425
vn -0.400170 -0.701742 0.589425
vn -0.564138 0.000000 0.825681
vn -0.564138 0.000000 0.825681
vn -0.564138 0.000000 0.825681
vn -0.564138 0.000000 0.825681
vn -0.400170 0.701742 0.589425
vn -0.400170 0.701742 0.589425
vn -0.400170 0.701742 0.589425
vn -0.400170 0.701742 0.589425
vn 0.000000 1.000000 -0.000000
vn 0.000000 1.000000 -0.000000
vn 0.000000 1.000000 -0.000000
vn 0.000000 1.000000 -0.000000
vn 0.388863 -0.701085 -0.597717
vn 0.388863 -0.701085 -0.597717
vn 0.388863 -0.701085 -0.597717
vn 0.388863 -0.701085 -0.597717
vn -0.040918 0.000019 -0.999163
vn -0.040918 0.000019 -0.999163
vn -0.040918 0.000019 -0.999163
vn -0.040918 0.000019 -0.999162
vn 1.000000 0.000002 0.000000
vn 1.000000 0.000002 0.000000
vn 1.000000 0.000002 0.000000
vn 1.000000 0.000002 0.000000
vn -0.040925 -0.000011 -0.999162
vn -0.040925 -0.000011 -0.999162
vn -0.040925 -0.000011 -0.999162
vn -0.040925 -0.000011 -0.999162
vn 1.000000 0.000001 0.000000
vn 1.000000 0.000001 0.000000
vn 1.000000 0.000001 0.000000
vn 1.000000 0.000001 0.000000
vn -0.040918 -0.000019 -0.999163
vn -0.040918 -0.000019 -0.999162
vn -0.040918 -0.000019 -0.999162
vn -0.040918 -0.000019 -0.999163
vn 1.000000 -0.000001 0.000000
vn 1.000000 -0.000001 0.000000
vn 1.000000 -0.000001 0.000000
vn 1.000000 -0.000001 0.000000
vn -0.040897 -0.000017 -0.999163
vn -0.040897 -0.000017 -0.999163
vn -0.040897 -0.000017 -0.999163
vn -0.040897 -0.000017 -0.999163
vn 1.000000 -0.000001 0.000000
vn 1.000000 -0.000001 0.000000
vn 1.000000 -0.000001 0.000000
vn 1.000000 -0.000001 0.000000
vn -0.040894 0.000000 -0.999164
vn -0.040894 0.000000 -0.999164
vn -0.040894 0.000000 -0.999164
vn -0.040894 0.000000 -0.999164
vn 1.000000 0.000000 0.000000
vn 1.000000 0.000000 0.000000
vn 1.000000 0.000000 0.000000
vn 1.000000 0.000000 0.000000
vn -0.040898 0.000017 -0.999163
vn -0.040898 0.000017 -0.999163
vn -0.040898 0.000017 -0.999163
vn -0.040898 0.000017 -0.999163
vn 1.000000 0.000000 0.000000
vn 1.000000 0.000000 0.000000
vn 1.000000 0.000000 0.000000
vn 1.000000 0.000000 0.000000
vn -0.040925 0.000011 -0.999162
vn -0.040925 0.000011 -0.999162
vn -0.040925 0.000011 -0.999162
vn -0.040925 0.000011 -0.999162
vn 1.000000 -0.000001 0.000000
vn 1.000000 -0.000001 0.000000
vn 1.000000 -0.000001 0.000000
vn 1.000000 -0.000001 0.000000
vn -0.040934 0.000000 -0.999162
vn -0.040934 0.000000 -0.999162
vn -0.040934 0.000000 -0.999162
vn -0.040934 0.000000 -0.999162
vn 1.000000 0.000000 0.000000
vn 1.000000 0.000000 0.000000
vn 1.000000 0.000000 0.000000
vn 1.000000 0.000000 0.000000
vn -0.000000 -1.000000 0.000001
vn -0.000000 -1.000000 0.000001
vn -0.000000 -1.000000 0.000001
vn -0.000000 -1.000000 0.000001
vn 0.000000 1.000000 -0.000000
vn 0.000000 1.000000 -0.000000
vn 0.000000 1.000000 -0.000000
vn 0.000000 1.000000 -0.000000
vn 0.707034 0.707031 -0.014473
vn 0.707034 0.707032 -0.014473
vn 0.707034 0.707031 -0.014473
vn 0.707034 0.707031 -0.014473
vn 0.000014 -0.707105 0.707109
vn 0.000014 -0.707105 0.707109
vn 0.000014 -0.707105 0.707109
vn 0.000014 -0.707105 0.707109
vn 0.000000 1.000000 -0.000000
vn 0.000000 1.000000 -0.000000
vn 0.000000 1.000000 -0.000000
vn 0.000000 1.000000 -0.000000
vn 0.000000 -1.000000 -0.000000
vn 0.000000 -1.000000 -0.000000
vn 0.000000 -1.000000 -0.000000
vn 0.000000 -1.000000 -0.000000
vn -0.707033 0.707033 0.014450
vn -0.707033 0.707033 0.014450
vn -0.707033 0.707033 0.014450
vn -0.707033 0.707033 0.014450
vn 0.000013 -0.707106 -0.707108
vn 0.000013 -0.707106 -0.707108
vn 0.000013 -0.707106 -0.707108
vn 0.000013 -0.707106 -0.707108
vn -0.999790 0.000000 0.020486
vn -0.999790 0.000000 0.020486
vn -0.999790 0.000000 0.020486
vn -0.999790 0.000000 0.020486
vn 0.000035 0.000000 -1.000000
vn 0.000035 0.000000 -1.000000
vn 0.000035 0.000000 -1.000000
vn 0.000035 0.000000 -1.000000
vn -0.707033 -0.707033 0.014451
vn -0.707033 -0.707033 0.014451
vn -0.707033 -0.707033 0.014451
vn -0.707033 -0.707033 0.014451
vn 0.000012 0.707105 -0.707108
vn 0.000012 0.707105 -0.707108
vn 0.000012 0.707105 -0.707108
vn 0.000012 0.707105 -0.707108
vn 0.707034 -0.707031 -0.014474
vn 0.707034 -0.707031 -0.014474
vn 0.707034 -0.707031 -0.014474
vn 0.707034 -0.707031 -0.014474
vn 0.000000 0.707107 0.707107
vn 0.000000 0.707107 0.707107
vn 0.000000 0.707107 0.707107
vn 0.000000 0.707107 0.707107
vn 0.999791 0.000000 -0.020450
vn 0.999791 0.000000 -0.020450
vn 0.999791 0.000000 -0.020450
vn 0.999791 0.000000 -0.020450
vn 0.000000 0.000000 1.000000
vn 0.000000 0.000000 1.000000
vn 0.000000 0.000000 1.000000
vn 0.000000 0.000000 1.000000
vn 0.606966 -0.695337 -0.384836
vn 0.606966 -0.695337 -0.384836
vn 0.606966 -0.695337 -0.384836
vn 0.606966 -0.695337 -0.384836
vn 0.846408 0.000000 -0.532535
vn 0.846408 0.000000 -0.532535
vn 0.846408 0.000000 -0.532535
vn 0.846408 0.000000 -0.532535
vn 0.606966 0.695337 -0.384836
vn 0.606966 0.695337 -0.384836
vn 0.606966 0.695337 -0.384836
vn 0.606966 0.695337 -0.384836
vn 0.000000 1.000000 -0.000000
vn 0.000000 1.000000 -0.000000
vn 0.000000 1.000000 -0.000000
vn 0.000000 1.000000 -0.000000
vn -0.599567 0.700391 0.387261
vn -0.599567 0.700391 0.387261
vn -0.599567 0.700391 0.387261
vn -0.599567 0.700391 0.387261
vn -0.839899 0.000000 0.542743
vn -0.839899 0.000000 0.542743
vn -0.839899 0.000000 0.542743
vn -0.839899 0.000000 0.542743
vn -0.599567 -0.700391 0.387261
vn -0.599567 -0.700391 0.387261
vn -0.599567 -0.700391 0.387261
vn -0.599567 -0.700391 0.387261
vn -0.000000 -1.000000 0.000000
vn -0.000000 -1.000000 0.000000
vn -0.000000 -1.000000 0.000000
vn -0.000000 -1.000000 0.000000
vn 0.712078 -0.696635 -0.087431
vn 0.712078 -0.696635 -0.087431
vn 0.712078 -0.696635 -0.087431
vn 0.712078 -0.696635 -0.087431
vn 0.994787 0.000000 -0.101975
vn 0.994787 0.000000 -0.101975
vn 0.994787 0.000000 -0.101975
vn 0.994787 0.000000 -0.101976
vn 0.712078 0.696635 -0.087431
vn 0.712078 0.696635 -0.087431
vn 0.712078 0.696635 -0.087431
vn 0.712078 0.696635 -0.087431
vn 0.000000 1.000000 -0.000000
vn 0.000000 1.000000 -0.000000
vn 0.000000 1.000000 -0.000000
vn 0.000000 1.000000 -0.000000
vn -0.705240 0.700340 0.110275
vn -0.705240 0.700340 0.110275
vn -0.705240 0.700340 0.110275
vn -0.705240 0.700340 0.110275
vn -0.987544 0.000000 0.157341
vn -0.987544 0.000000 0.157341
vn -0.987544 0.000000 0.157341
vn -0.987544 0.000000 0.157341
vn -0.705240 -0.700340 0.110275
vn -0.705240 -0.700340 0.110275
vn -0.705240 -0.700340 0.110275
vn -0.705240 -0.700340 0.110275
vn -0.000000 -1.000000 0.000000
vn -0.000000 -1.000000 0.000000
vn -0.000000 -1.000000 0.000000
vn -0.000000 -1.000000 0.000000
vn -0.095726 -0.701275 0.706435
vn -0.095726 -0.701275 0.706435
vn -0.095726 -0.701275 0.706435
vn -0.095726 -0.701275 0.706435
vn -0.137239 0.000000 0.990538
vn -0.137239 0.000000 0.990538
vn -0.137239 0.000000 0.990538
vn -0.137239 0.000000 0.990538
vn -0.095726 0.701275 0.706435
vn -0.095726 0.701275 0.706435
vn -0.095726 0.701275 0.706435
vn -0.095726 0.701275 0.706435
vn 0.000000 1.000000 -0.000000
vn 0.000000 1.000000 -0.000000
vn 0.000000 1.000000 -0.000000
vn 0.000000 1.000000 -0.000000
vn 0.081899 0.702061 -0.707392
vn 0.081899 0.702061 -0.707392
vn 0.081899 0.702061 -0.707392
vn 0.081899 0.702061 -0.707392
vn 0.108290 0.000000 -0.994119
vn 0.108290 0.000000 -0.994119
vn 0.108290 0.000000 -0.994119
vn 0.108290 0.000000 -0.994119
vn 0.081899 -0.702061 -0.707392
vn 0.081899 -0.702061 -0.707392
vn 0.081899 -0.702061 -0.707392
vn 0.081899 -0.702061 -0.707392
vn -0.000000 -1.000000 0.000000
vn -0.000000 -1.000000 0.000000
vn -0.000000 -1.000000 0.000000
vn -0.000000 -1.000000 0.000000
vn -0.588771 -0.696341 0.410436
vn -0.588771 -0.696341 0.410436
vn -0.588771 -0.696341 0.410436
vn -0.588771 -0.696341 0.410436
vn -0.821174 0.000000 0.570677
vn -0.821174 0.000000 0.570677
vn -0.821174 0.000000 0.570677
vn -0.821174 0.000000 0.570677
vn -0.588771 0.696341 0.410436
vn -0.588771 0.696341 0.410436
vn -0.588771 0.696341 0.410436
vn -0.588771 0.696341 0.410436
vn 0.000000 1.000000 0.000000
vn 0.000000 1.000000 0.000000
vn 0.000000 1.000000 0.000000
vn 0.000000 1.000000 0.000000
vn 0.583443 0.700196 -0.411485
vn 0.583443 0.700196 -0.411485
vn 0.583443 0.700196 -0.411485
vn 0.583443 0.700196 -0.411485
vn 0.816995 0.000000 -0.576645
vn 0.816995 0.000000 -0.576645
vn 0.816995 0.000000 -0.576645
vn 0.816995 0.000000 -0.576645
vn 0.583443 -0.700196 -0.411485
vn 0.583443 -0.700196 -0.411485
vn 0.583443 -0.700196 -0.411485
vn 0.583443 -0.700197 -0.411485
vn -0.000000 -1.000000 0.000000
vn -0.000000 -1.000000 0.000000
vn -0.000000 -1.000000 0.000000
vn -0.000000 -1.000000 0.000000
vn 0.067891 -0.702805 -0.708136
vn 0.067891 -0.702805 -0.708136
vn 0.067891 -0.702805 -0.708136
vn 0.067891 -0.702805 -0.708136
vn 0.098046 0.000000 -0.995182
vn 0.098046 0.000000 -0.995182
vn 0.098046 0.000000 -0.995182
vn 0.098046 0.000000 -0.995182
vn 0.067892 0.702803 -0.708137
vn 0.067892 0.702803 -0.708137
vn 0.067892 0.702803 -0.708137
vn 0.067892 0.702803 -0.708137
vn 0.000000 1.000000 0.000000
vn 0.000000 1.000000 0.000000
vn 0.000000 1.000000 0.000000
vn 0.000000 1.000000 0.000000
vn -0.055839 0.702882 0.709112
vn -0.055839 0.702882 0.709112
vn -0.055839 0.702881 0.709112
vn -0.055839 0.702881 0.709112
vn -0.073344 0.000000 0.997307
vn -0.073344 0.000000 0.997307
vn -0.073344 0.000000 0.997307
vn -0.073344 0.000000 0.997307
vn -0.055839 -0.702882 0.709112
vn -0.055839 -0.702882 0.709112
vn -0.055840 -0.702882 0.709112
vn -0.055840 -0.702882 0.709112
vn -0.000000 -1.000000 0.000000
vn -0.000000 -1.000000 0.000000
vn -0.000000 -1.000000 0.000000
vn -0.000000 -1.000000 0.000000
vn -0.705931 -0.697329 0.124072
vn -0.705931 -0.697329 0.124072
vn -0.705931 -0.697329 0.124072
vn -0.705931 -0.697329 0.124072
vn -0.986845 0.000000 0.161668
vn -0.986845 0.000000 0.161668
vn -0.986845 0.000000 0.161668
vn -0.986845 0.000000 0.161668
vn -0.705931 0.697329 0.124072
vn -0.705931 0.697329 0.124072
vn -0.705931 0.697329 0.124072
vn -0.705931 0.697329 0.124072
vn 0.000000 1.000000 -0.000000
vn 0.000000 1.000000 -0.000000
vn 0.000000 1.000000 -0.000000
vn 0.000000 1.000000 -0.000000
vn 0.699999 0.700351 -0.139677
vn 0.699999 0.700351 -0.139677
vn 0.699999 0.700351 -0.139677
vn 0.699999 0.700351 -0.139677
vn 0.980210 0.000000 -0.197959
vn 0.980210 0.000000 -0.197959
vn 0.980210 0.000000 -0.197959
vn 0.980210 0.000000 -0.197959
vn 0.699999 -0.700351 -0.139677
vn 0.699999 -0.700351 -0.139677
vn 0.699999 -0.700351 -0.139677
vn 0.699999 -0.700351 -0.139677
vn -0.000000 -1.000000 0.000000
vn -0.000000 -1.000000 0.000000
vn -0.000000 -1.000000 0.000000
vn -0.000000 -1.000000 0.000000
s off
f 88/88/1 81/81/2 72/72/3 65/65/4
f 85/85/5 86/86/6 67/67/7 68/68/8
f 2/9/9 1/8/10 17/10/11 18/11/12
f 6/3/13 5/2/14 20/12/15 21/13/16
f 7/14/17 6/3/18 21/13/19 22/15/20
f 10/16/21 11/17/22 26/18/23 25/19/24
f 11/17/25 12/20/26 27/21/27 26/18/28
f 12/20/29 13/1/30 28/22/31 27/21/32
f 13/1/33 14/4/34 29/23/35 28/22/36
f 14/4/37 15/24/38 30/25/39 29/23/40
f 15/24/41 16/6/42 31/26/43 30/25/44
f 96/96/45 89/89/46 104/104/47 97/97/48
f 32/31/49 3/32/50 2/9/51 18/11/52
f 32/31/53 19/33/54 4/34/55 3/32/56
f 93/93/57 94/94/58 99/99/59 100/100/60
f 92/92/61 93/93/62 100/100/63 101/101/64
f 91/91/65 92/92/66 101/101/67 102/102/68
f 90/90/69 91/91/70 102/102/71 103/103/72
f 89/89/73 90/90/74 103/103/75 104/104/76
f 9/5/77 10/16/78 25/19/79 24/45/80
f 16/6/81 9/5/82 24/45/83 31/26/84
f 86/86/85 87/87/86 66/66/87 67/67/88
f 8/7/89 7/14/90 22/15/91 23/46/92
f 1/8/93 8/7/94 23/46/95 17/10/96
f 95/95/97 96/96/98 97/97/99 98/98/100
f 94/94/101 95/95/102 98/98/103 99/99/104
f 5/2/105 4/34/106 19/33/107 20/12/108
f 81/81/109 82/82/110 71/71/111 72/72/112
f 70/70/113 71/71/114 82/82/115 83/83/116
f 83/83/117 84/84/118 69/69/119 70/70/120
f 68/68/121 69/69/122 84/84/123 85/85/124
f 65/65/125 66/66/126 87/87/127 88/88/128
f 50/49/129 49/50/130 33/28/131 34/27/132
f 51/51/133 52/52/134 36/30/135 35/29/136
f 53/53/137 54/54/138 38/36/139 37/35/140
f 56/55/141 55/56/142 40/38/143 39/37/144
f 57/57/145 53/53/146 37/35/147 41/39/148
f 55/56/149 58/58/150 42/40/151 40/38/152
f 59/59/153 57/57/154 41/39/155 43/41/156
f 58/58/157 60/60/158 44/42/159 42/40/160
f 61/61/161 59/59/162 43/41/163 45/43/164
f 60/60/165 62/62/166 46/44/167 44/42/168
f 49/50/169 61/61/170 45/43/171 33/28/172
f 62/62/173 51/51/174 35/29/175 46/44/176
f 34/27/177 47/47/178 63/63/179 50/49/180
f 52/52/181 64/64/182 48/48/183 36/30/184
f 47/47/185 38/36/186 54/54/187 63/63/188
f 64/64/189 56/55/190 39/37/191 48/48/192
f 18/11/193 17/10/194 49/50/195 50/49/196
f 24/45/197 25/19/198 52/52/199 51/51/200
f 20/12/201 19/33/202 54/54/203 53/53/204
f 27/21/205 28/22/206 55/56/207 56/55/208
f 21/13/209 20/12/210 53/53/211 57/57/212
f 28/22/213 29/23/214 58/58/215 55/56/216
f 22/15/217 21/13/218 57/57/219 59/59/220
f 29/23/221 30/25/222 60/60/223 58/58/224
f 23/46/225 22/15/226 59/59/227 61/61/228
f 30/25/229 31/26/230 62/62/231 60/60/232
f 17/10/233 23/46/234 61/61/235 49/50/236
f 31/26/237 24/45/238 51/51/239 62/62/240
f 63/63/241 32/31/242 18/11/243 50/49/244
f 25/19/245 26/18/246 64/64/247 52/52/248
f 54/54/249 19/33/250 32/31/251 63/63/252
f 26/18/253 27/21/254 56/55/255 64/64/256
f 73/73/257 74/74/258 66/66/259 65/65/260
f 67/67/261 66/66/262 74/74/263 75/75/264
f 68/68/265 67/67/266 75/75/267 76/76/268
f 76/76/269 77/77/270 69/69/271 68/68/272
f 70/70/273 69/69/274 77/77/275 78/78/276
f 78/78/277 79/79/278 71/71/279 70/70/280
f 72/72/281 71/71/282 79/79/283 80/80/284
f 65/65/285 72/72/286 80/80/287 73/73/288
f 6/3/289 7/14/290 74/74/291 73/73/292
f 75/75/293 74/74/294 7/14/295 8/7/296
f 76/76/297 75/75/298 8/7/299 1/8/300
f 1/8/301 2/9/302 77/77/303 76/76/304
f 78/78/305 77/77/306 2/9/307 3/32/308
f 4/34/309 79/79/310 78/78/311 3/32/312
f 80/80/313 79/79/314 4/34/315 5/2/316
f 73/73/317 80/80/318 5/2/319 6/3/320
f 12/20/321 82/82/322 81/81/323 13/1/324
f 83/83/325 82/82/326 12/20/327 11/17/328
f 10/16/329 84/84/330 83/83/331 11/17/332
f 85/85/333 84/84/334 10/16/335 9/5/336
f 9/5/337 16/6/338 86/86/339 85/85/340
f 15/24/341 87/87/342 86/86/343 16/6/344
f 88/88/345 87/87/346 15/24/347 14/4/348
f 13/1/349 81/81/350 88/88/351 14/4/352
f 105/105/353 106/106/354 90/90/355 89/89/356
f 106/106/357 107/107/358 91/91/359 90/90/360
f 107/107/361 108/108/362 92/92/363 91/91/364
f 108/108/365 109/109/366 93/93/367 92/92/368
f 109/109/369 110/110/370 94/94/371 93/93/372
f 110/110/373 111/111/374 95/95/375 94/94/376
f 111/111/377 112/112/378 96/96/379 95/95/380
f 112/112/381 105/105/382 89/89/383 96/96/384
f 98/98/385 97/97/386 36/30/387 48/48/388
f 99/99/389 98/98/390 48/48/391 39/37/392
f 100/100/393 99/99/394 39/37/395 40/38/396
f 101/101/397 100/100/398 40/38/399 42/40/400
f 102/102/401 101/101/402 42/40/403 44/42/404
f 103/103/405 102/102/406 44/42/407 46/44/408
f 104/104/409 103/103/410 46/44/411 35/29/412
f 97/97/413 104/104/414 35/29/415 36/30/416
f 33/28/417 45/43/418 106/106/419 105/105/420
f 45/43/421 43/41/422 107/107/423 106/106/424
f 43/41/425 41/39/426 108/108/427 107/107/428
f 41/39/429 37/35/430 109/109/431 108/108/432
f 37/35/433 38/36/434 110/110/435 109/109/436
f 38/36/437 47/47/438 111/111/439 110/110/440
f 47/47/441 34/27/442 112/112/443 111/111/444
f 34/27/445 33/28/446 105/105/447 112/112/448
