# This file uses centimeters as units for non-parametric coordinates.

v 38.218262 -89.216896 1.422729
v 41.482056 -87.575775 1.422729
v 38.218262 17.018524 3.923828
v 41.482056 17.018524 3.923828
v 38.218262 17.018524 -1.078430
v 41.482056 17.018524 -1.078430
v -46.153687 -87.575775 1.422729
v -42.889893 -89.216896 1.422729
v -46.153687 17.018524 3.923828
v -42.889893 17.018524 3.923828
v -46.153687 17.018524 -1.078430
v -42.889893 17.018524 -1.078430
v 38.218262 -84.504547 3.923828
v 41.482666 -84.504547 3.923828
v 41.482056 -84.504547 -1.078430
v 38.218262 -84.504547 -1.078430
v -46.153687 -84.504547 3.923828
v -42.889893 -84.504547 3.923828
v -42.889893 -84.504547 -1.078430
v -46.153687 -84.504547 -1.078430
v 38.218262 -89.216896 48.617493
v 41.482056 -87.575775 48.617493
v 41.482666 -84.504547 48.617493
v 38.218262 -84.504547 48.617493
v 41.482056 -84.504547 -45.771912
v 38.218262 -84.504547 -45.771912
v 41.482056 -87.575775 -45.771912
v 38.218262 -89.216896 -45.771912
v -46.153687 -87.575775 48.617493
v -42.889893 -89.216896 48.617493
v -42.889893 -84.504547 48.617493
v -46.153687 -84.504547 48.617493
v -42.889893 -84.504547 -45.771912
v -46.153687 -84.504547 -45.771912
v -42.889893 -89.216896 -45.771912
v -46.153687 -87.575775 -45.771912
v -63.112061 -41.044075 6.807434
v 61.831909 -41.044075 6.807434
v -63.112061 26.909637 6.807434
v 61.831909 26.909637 6.807434
v -63.112061 26.909637 3.834167
v 61.831909 26.909637 3.834167
v -63.112061 -41.044075 3.834167
v 61.831909 -41.044075 3.834167
v -55.055054 -12.598740 4.221252
v -55.055054 -21.275620 4.221252
v 51.066772 -12.598740 4.221252
v 51.066772 -21.275620 4.221252
v 51.066772 -12.598740 2.405579
v 51.066772 -21.275620 2.405579
v -55.055054 -12.598740 2.405579
v -55.055054 -21.275620 2.405579
v -55.055054 10.633301 4.221252
v -55.055054 1.956421 4.221252
v 51.066772 10.633301 4.221252
v 51.066772 1.956421 4.221252
v 51.066772 10.633301 2.405579
v 51.066772 1.956421 2.405579
v -55.055054 10.633301 2.405579
v -55.055054 1.956421 2.405579
v 46.418091 -89.216896 1.422729
v 46.417969 -87.575775 1.422729
v 46.417969 -87.575775 48.617493
v 46.418091 -89.216896 48.617493
v 46.418091 -89.216896 -45.771912
v 46.417969 -87.575775 -45.771912
v -51.089600 -87.575775 1.422729
v -51.089722 -89.216896 1.422729
v -51.089722 -89.216896 48.617493
v -51.089600 -87.575775 48.617493
v -51.089600 -87.575775 -45.771912
v -51.089722 -89.216896 -45.771912
vt 0.091200 0.253877
vt 0.091221 0.253869
vt 0.091281 0.253159
vt 0.091254 0.253165
vt 0.091296 0.253173
vt 0.091269 0.253180
vt 0.091232 0.253885
vt 0.091211 0.253892
vt 0.090926 0.253969
vt 0.090948 0.253962
vt 0.090927 0.253245
vt 0.090897 0.253253
vt 0.090940 0.253261
vt 0.090910 0.253268
vt 0.090958 0.253978
vt 0.090935 0.253986
vt 0.091105 0.253763
vt 0.091125 0.253757
vt 0.091126 0.253741
vt 0.091106 0.253747
vt 0.091225 0.253893
vt 0.091318 0.254038
vt 0.091340 0.254030
vt 0.091338 0.254045
vt 0.091316 0.254053
vt 0.091204 0.253900
vt 0.090844 0.253846
vt 0.090865 0.253840
vt 0.090864 0.253824
vt 0.090843 0.253831
vt 0.090954 0.253986
vt 0.091030 0.254144
vt 0.091054 0.254135
vt 0.091053 0.254150
vt 0.091030 0.254159
vt 0.090931 0.253993
vt 0.348526 0.274081
vt 0.403025 0.274081
vt 0.403025 0.298168
vt 0.348526 0.298168
vt 0.348553 0.274074
vt 0.348498 0.274076
vt 0.348498 0.274074
vt 0.348552 0.274073
vt 0.112919 0.299771
vt 0.113919 0.299486
vt 0.113845 0.299977
vt 0.112983 0.300316
vt 0.348549 0.274086
vt 0.348502 0.274087
vt 0.348502 0.274089
vt 0.348550 0.274087
vt 0.101978 0.327877
vt 0.101989 0.327864
vt 0.101954 0.327212
vt 0.101939 0.327220
vt 0.101978 0.327216
vt 0.101964 0.327224
vt 0.102008 0.327870
vt 0.101997 0.327883
vt 0.101978 0.327877
vt 0.101989 0.327864
vt 0.101954 0.327212
vt 0.101939 0.327220
vt 0.101978 0.327216
vt 0.101964 0.327224
vt 0.102008 0.327870
vt 0.101997 0.327883
vt 0.091225 0.253893
vt 0.091125 0.253757
vt 0.091105 0.253763
vt 0.091204 0.253900
vt 0.091316 0.254053
vt 0.091338 0.254045
vt 0.090954 0.253986
vt 0.090865 0.253840
vt 0.090844 0.253846
vt 0.090931 0.253993
vt 0.091030 0.254159
vt 0.091053 0.254150
vn 0.000000 0.000000 1.000000
vn 0.000000 0.000000 1.000000
vn 0.000000 0.000000 1.000000
vn 0.000000 0.000000 1.000000
vn 0.000000 1.000000 0.000000
vn 0.000000 1.000000 0.000000
vn 0.000000 1.000000 0.000000
vn 0.000000 1.000000 0.000000
vn 0.000000 0.000000 -1.000000
vn 0.000000 0.000000 -1.000000
vn 0.000000 0.000000 -1.000000
vn 0.000000 0.000000 -1.000000
vn 1.000000 0.000002 -0.000062
vn 1.000000 0.000002 -0.000062
vn 1.000000 0.000003 -0.000061
vn 1.000000 0.000003 -0.000061
vn -1.000000 0.000000 0.000000
vn -1.000000 0.000000 0.000000
vn -1.000000 0.000000 0.000000
vn -1.000000 0.000000 0.000000
vn 0.000000 0.000000 1.000000
vn 0.000000 0.000000 1.000000
vn 0.000000 0.000000 1.000000
vn 0.000000 0.000000 1.000000
vn 0.000000 1.000000 0.000000
vn 0.000000 1.000000 0.000000
vn 0.000000 1.000000 0.000000
vn 0.000000 1.000000 0.000000
vn 0.000000 0.000000 -1.000000
vn 0.000000 0.000000 -1.000000
vn 0.000000 0.000000 -1.000000
vn 0.000000 0.000000 -1.000000
vn 1.000000 0.000000 0.000000
vn 1.000000 0.000000 0.000000
vn 1.000000 0.000000 0.000000
vn 1.000000 0.000000 0.000000
vn -1.000000 -0.000000 0.000000
vn -1.000000 -0.000000 0.000000
vn -1.000000 0.000000 0.000000
vn -1.000000 0.000000 0.000000
vn 0.000000 0.000000 1.000000
vn 0.000000 0.000000 1.000000
vn 0.000000 0.000000 1.000000
vn 0.000000 0.000000 1.000000
vn 1.000000 -0.000099 -0.000122
vn 1.000000 0.000002 -0.000062
vn 1.000000 0.000002 -0.000062
vn 0.000001 0.000000 -1.000000
vn 0.000001 0.000000 -1.000000
vn 0.000001 0.000000 -1.000000
vn 0.000001 0.000000 -1.000000
vn -1.000000 0.000000 0.000000
vn -1.000000 0.000000 0.000000
vn -1.000000 0.000000 0.000000
vn 0.000000 0.000000 1.000000
vn 0.000000 0.000000 1.000000
vn 0.000000 0.000000 1.000000
vn 0.000000 0.000000 1.000000
vn 1.000000 0.000001 0.000000
vn 1.000000 0.000000 0.000000
vn 1.000000 0.000000 0.000000
vn -0.000001 0.000000 -1.000000
vn -0.000001 0.000000 -1.000000
vn -0.000001 0.000000 -1.000000
vn -0.000001 0.000000 -1.000000
vn -1.000000 -0.000001 0.000000
vn -1.000000 -0.000000 0.000000
vn -1.000000 -0.000000 0.000000
vn 1.000000 0.000076 0.000000
vn 1.000000 0.000076 0.000000
vn 1.000000 0.000076 0.000000
vn 1.000000 0.000076 0.000000
vn 1.000000 -0.000198 0.000000
vn 1.000000 -0.000198 0.000000
vn 1.000000 -0.000198 0.000000
vn 1.000000 -0.000198 0.000000
vn 0.000000 1.000000 0.000000
vn 0.000000 1.000000 0.000000
vn 0.000000 1.000000 0.000000
vn 0.000000 1.000000 0.000000
vn -1.000000 0.000000 0.000000
vn -1.000000 0.000000 0.000000
vn -1.000000 0.000000 0.000000
vn -1.000000 0.000000 0.000000
vn 0.000000 1.000000 0.000000
vn 0.000000 1.000000 0.000000
vn 0.000000 1.000000 0.000000
vn 0.000000 1.000000 0.000000
vn 1.000000 -0.000001 0.000000
vn 1.000000 -0.000001 0.000000
vn 1.000000 -0.000001 0.000000
vn 1.000000 -0.000001 0.000000
vn 1.000000 0.000072 0.000000
vn 1.000000 0.000072 0.000000
vn 1.000000 0.000072 0.000000
vn 1.000000 0.000072 0.000000
vn -1.000000 0.000000 0.000000
vn -1.000000 0.000000 0.000000
vn -1.000000 0.000000 0.000000
vn -1.000000 0.000000 0.000000
vn -1.000000 0.000072 0.000000
vn -1.000000 0.000072 0.000000
vn -1.000000 0.000072 0.000000
vn -1.000000 0.000072 0.000000
vn 1.000000 0.000000 0.000000
vn 1.000000 0.000000 0.000000
vn 1.000000 0.000000 0.000000
vn 1.000000 0.000000 0.000000
vn 0.000000 1.000000 0.000000
vn 0.000000 1.000000 0.000000
vn 0.000000 1.000000 0.000000
vn 0.000000 1.000000 0.000000
vn -1.000000 0.000002 0.000000
vn -1.000000 0.000002 0.000000
vn -1.000000 0.000002 0.000000
vn -1.000000 0.000002 0.000000
vn 0.000000 1.000000 0.000000
vn 0.000000 1.000000 0.000000
vn 0.000000 1.000000 0.000000
vn 0.000000 1.000000 0.000000
vn 1.000000 -0.000001 0.000000
vn 1.000000 -0.000001 0.000000
vn 1.000000 -0.000001 0.000000
vn 1.000000 -0.000001 0.000000
vn -1.000000 0.000076 0.000000
vn -1.000000 0.000076 0.000000
vn -1.000000 0.000076 0.000000
vn -1.000000 0.000076 0.000000
vn -1.000000 0.000000 0.000000
vn -1.000000 0.000000 0.000000
vn -1.000000 0.000000 0.000000
vn -1.000000 0.000000 0.000000
vn 0.000000 0.000000 1.000000
vn 0.000000 0.000000 1.000000
vn 0.000000 0.000000 1.000000
vn 0.000000 0.000000 1.000000
vn 0.000000 1.000000 0.000000
vn 0.000000 1.000000 0.000000
vn 0.000000 1.000000 0.000000
vn 0.000000 1.000000 0.000000
vn 0.000000 0.000000 -1.000000
vn 0.000000 0.000000 -1.000000
vn 0.000000 0.000000 -1.000000
vn 0.000000 0.000000 -1.000000
vn 0.000000 -1.000000 0.000000
vn 0.000000 -1.000000 0.000000
vn 0.000000 -1.000000 0.000000
vn 0.000000 -1.000000 0.000000
vn 1.000000 0.000000 0.000000
vn 1.000000 0.000000 0.000000
vn 1.000000 0.000000 0.000000
vn 1.000000 0.000000 0.000000
vn -1.000000 0.000000 0.000000
vn -1.000000 0.000000 0.000000
vn -1.000000 0.000000 0.000000
vn -1.000000 0.000000 0.000000
vn 0.000000 0.000000 1.000000
vn 0.000000 0.000000 1.000000
vn 0.000000 0.000000 1.000000
vn 0.000000 0.000000 1.000000
vn 1.000000 0.000000 0.000000
vn 1.000000 0.000000 0.000000
vn 1.000000 0.000000 0.000000
vn 1.000000 0.000000 0.000000
vn 0.000000 0.000000 -1.000000
vn 0.000000 0.000000 -1.000000
vn 0.000000 0.000000 -1.000000
vn 0.000000 0.000000 -1.000000
vn 0.000000 -1.000000 0.000000
vn 0.000000 -1.000000 0.000000
vn 0.000000 -1.000000 0.000000
vn 0.000000 -1.000000 0.000000
vn 0.000000 1.000000 0.000000
vn 0.000000 1.000000 0.000000
vn 0.000000 1.000000 0.000000
vn 0.000000 1.000000 0.000000
vn -1.000000 0.000000 0.000000
vn -1.000000 0.000000 0.000000
vn -1.000000 0.000000 0.000000
vn -1.000000 0.000000 0.000000
vn 0.000000 0.000000 1.000000
vn 0.000000 0.000000 1.000000
vn 0.000000 0.000000 1.000000
vn 0.000000 0.000000 1.000000
vn 1.000000 0.000000 0.000000
vn 1.000000 0.000000 0.000000
vn 1.000000 0.000000 0.000000
vn 1.000000 0.000000 0.000000
vn 0.000000 0.000000 -1.000000
vn 0.000000 0.000000 -1.000000
vn 0.000000 0.000000 -1.000000
vn 0.000000 0.000000 -1.000000
vn 0.000000 -1.000000 0.000000
vn 0.000000 -1.000000 0.000000
vn 0.000000 -1.000000 0.000000
vn 0.000000 -1.000000 0.000000
vn 0.000000 1.000000 0.000000
vn 0.000000 1.000000 0.000000
vn 0.000000 1.000000 0.000000
vn 0.000000 1.000000 0.000000
vn -1.000000 0.000000 0.000000
vn -1.000000 0.000000 0.000000
vn -1.000000 0.000000 0.000000
vn -1.000000 0.000000 0.000000
vn 0.000000 1.000000 0.000000
vn 0.000000 1.000000 0.000000
vn 0.000000 1.000000 0.000000
vn 0.000000 1.000000 0.000000
vn 0.000000 0.000000 1.000000
vn 0.000000 0.000000 1.000000
vn 0.000000 0.000000 1.000000
vn 0.000000 0.000000 1.000000
vn 0.000000 -1.000000 0.000000
vn 0.000000 -1.000000 0.000000
vn 0.000000 -1.000000 0.000000
vn 0.000000 -1.000000 0.000000
vn 0.000000 -1.000000 0.000000
vn 0.000000 -1.000000 0.000000
vn 0.000000 -1.000000 0.000000
vn 0.000000 -1.000000 0.000000
vn 0.000000 0.000000 -1.000000
vn 0.000000 0.000000 -1.000000
vn 0.000000 0.000000 -1.000000
vn 0.000000 0.000000 -1.000000
vn 0.000000 1.000000 0.000000
vn 0.000000 1.000000 0.000000
vn 0.000000 1.000000 0.000000
vn 0.000000 1.000000 0.000000
vn 0.000000 -1.000000 0.000000
vn 0.000000 -1.000000 0.000000
vn 0.000000 -1.000000 0.000000
vn 0.000000 -1.000000 0.000000
vn 0.000000 0.000000 1.000000
vn 0.000000 0.000000 1.000000
vn 0.000000 0.000000 1.000000
vn 0.000000 0.000000 1.000000
vn 0.000000 1.000000 0.000000
vn 0.000000 1.000000 0.000000
vn 0.000000 1.000000 0.000000
vn 0.000000 1.000000 0.000000
vn 0.000000 1.000000 0.000000
vn 0.000000 1.000000 0.000000
vn 0.000000 1.000000 0.000000
vn 0.000000 1.000000 0.000000
vn 0.000000 0.000000 -1.000000
vn 0.000000 0.000000 -1.000000
vn 0.000000 0.000000 -1.000000
vn 0.000000 0.000000 -1.000000
vn 0.000000 -1.000000 0.000000
vn 0.000000 -1.000000 0.000000
vn 0.000000 -1.000000 0.000000
vn 0.000000 -1.000000 0.000000
s off
f 13/1/1 14/2/2 4/3/3 3/4/4
f 3/4/5 4/3/6 6/5/7 5/6/8
f 5/6/9 6/5/10 15/7/11 16/8/12
f 14/2/13 15/7/14 6/5/15 4/3/16
f 16/8/17 13/1/18 3/4/19 5/6/20
f 17/9/21 18/10/22 10/11/23 9/12/24
f 9/12/25 10/11/26 12/13/27 11/14/28
f 11/14/29 12/13/30 19/15/31 20/16/32
f 18/10/33 19/15/34 12/13/35 10/11/36
f 20/16/37 17/9/38 9/12/39 11/14/40
f 21/17/41 22/18/42 23/19/43 24/20/44
f 2/21/45 15/7/46 14/2/47
f 26/22/48 25/23/49 27/24/50 28/25/51
f 1/26/52 13/1/53 16/8/54
f 29/27/55 30/28/56 31/29/57 32/30/58
f 8/31/59 19/15/60 18/10/61
f 34/32/62 33/33/63 35/34/64 36/35/65
f 7/36/66 17/9/67 20/16/68
f 61/72/69 62/69/70 63/70/71 64/71/72
f 2/21/73 14/2/74 23/19/75 22/18/76
f 14/2/77 13/1/78 24/20/79 23/19/80
f 13/1/81 1/26/82 21/17/83 24/20/84
f 16/8/85 15/7/86 25/23/87 26/22/88
f 15/7/89 2/21/90 27/24/91 25/23/92
f 62/69/93 61/72/94 65/73/95 66/74/96
f 1/26/97 16/8/98 26/22/99 28/25/100
f 67/78/101 68/75/102 69/76/103 70/77/104
f 8/31/105 18/10/106 31/29/107 30/28/108
f 18/10/109 17/9/110 32/30/111 31/29/112
f 17/9/113 7/36/114 29/27/115 32/30/116
f 20/16/117 19/15/118 33/33/119 34/32/120
f 19/15/121 8/31/122 35/34/123 33/33/124
f 68/75/125 67/78/126 71/79/127 72/80/128
f 7/36/129 20/16/130 34/32/131 36/35/132
f 37/37/133 38/38/134 40/39/135 39/40/136
f 39/41/137 40/42/138 42/43/139 41/44/140
f 41/45/141 42/46/142 44/47/143 43/48/144
f 43/49/145 44/50/146 38/51/147 37/52/148
f 38/51/149 44/50/150 42/43/151 40/42/152
f 43/49/153 37/52/154 39/41/155 41/44/156
f 45/53/157 46/54/158 48/55/159 47/56/160
f 47/56/161 48/55/162 50/57/163 49/58/164
f 52/59/165 51/60/166 49/58/167 50/57/168
f 46/54/169 52/59/170 50/57/171 48/55/172
f 49/58/173 51/60/174 45/53/175 47/56/176
f 46/54/177 45/53/178 51/60/179 52/59/180
f 53/61/181 54/62/182 56/63/183 55/64/184
f 55/64/185 56/63/186 58/65/187 57/66/188
f 60/67/189 59/68/190 57/66/191 58/65/192
f 54/62/193 60/67/194 58/65/195 56/63/196
f 57/66/197 59/68/198 53/61/199 55/64/200
f 54/62/201 53/61/202 59/68/203 60/67/204
f 2/21/205 22/18/206 63/70/207 62/69/208
f 22/18/209 21/17/210 64/71/211 63/70/212
f 21/17/213 1/26/214 61/72/215 64/71/216
f 1/26/217 28/25/218 65/73/219 61/72/220
f 28/25/221 27/24/222 66/74/223 65/73/224
f 27/24/225 2/21/226 62/69/227 66/74/228
f 8/31/229 30/28/230 69/76/231 68/75/232
f 30/28/233 29/27/234 70/77/235 69/76/236
f 29/27/237 7/36/238 67/78/239 70/77/240
f 7/36/241 36/35/242 71/79/243 67/78/244
f 36/35/245 35/34/246 72/80/247 71/79/248
f 35/34/249 8/31/250 68/75/251 72/80/252
