# This file uses centimeters as units for non-parametric coordinates.

v 17.698471 60.396667 -57.718811
v 12.642578 76.166634 -55.810852
v 17.698471 60.396667 -60.683182
v 12.642578 76.166634 -58.775223
v -18.978516 60.396667 -60.683167
v -13.922623 76.166634 -58.775223
v -18.978516 60.396667 -57.718811
v -13.922623 76.166634 -55.810867
v 17.698471 60.396667 72.650345
v 12.642578 76.166634 70.742386
v 17.698471 60.396667 75.614700
v 12.642578 76.166634 73.706741
v -18.978516 60.396667 75.614700
v -13.922623 76.166634 73.706772
v -18.978516 60.396667 72.650345
v -13.922623 76.166634 70.742386
v 6.968170 83.724701 -55.069473
v 6.968170 83.724701 -39.299500
v 11.226440 84.746452 -55.069473
v 11.226440 84.746452 -39.299500
v 35.439392 1.021754 -65.406387
v 35.439392 1.021754 -46.750839
v 31.181107 0.000000 -65.406387
v 31.181107 0.000000 -46.750839
v 6.968170 83.724701 54.231033
v 6.968170 83.724701 70.000992
v 11.226440 84.746452 54.231033
v 11.226440 84.746452 70.000992
v 35.439392 1.021754 61.682388
v 35.439392 1.021754 80.337936
v 31.181107 0.000000 61.682388
v 31.181107 0.000000 80.337936
v -9.445251 76.166634 84.800766
v 8.165207 76.166634 84.800766
v -9.445251 84.867691 84.800766
v 8.165207 82.834549 84.800766
v -9.445251 83.380539 -69.869217
v 8.165207 84.867691 -69.869217
v -9.445251 76.166634 -69.869217
v 8.165207 76.166634 -69.869217
v -8.248199 83.724701 70.000992
v -8.248199 83.724701 54.231033
v -12.506485 84.746452 70.000992
v -12.506485 84.746452 54.231033
v -36.719452 1.021754 80.337936
v -36.719452 1.021754 61.682388
v -32.461151 0.000000 80.337936
v -32.461151 0.000000 61.682388
v -8.248199 83.724701 -39.299500
v -8.248199 83.724701 -55.069458
v -12.506485 84.746452 -39.299500
v -12.506485 84.746452 -55.069458
v -36.719452 1.021754 -46.750839
v -36.719452 1.021754 -65.406387
v -32.461151 0.000000 -46.750839
v -32.461151 0.000000 -65.406387
v 3.924561 84.867683 84.800766
v 8.165207 84.867691 75.631485
v -4.258759 84.867691 -69.869217
v -9.445251 84.867691 -60.852707
v 7.578766 84.577942 36.370316
v 7.578766 84.577942 9.014557
v 4.889099 84.577942 25.802811
v 7.578766 82.916740 24.543198
v -8.858826 76.456383 -34.591660
v -8.858826 76.456383 -13.508347
v -8.858826 78.000168 -25.443390
v -6.429993 76.456383 -25.911880
v 21.839203 46.473625 74.531784
v 29.457733 21.012520 77.784256
v 25.609467 33.873425 72.255692
v 23.650146 33.031807 76.185623
vt 0.037680 0.301044
vt 0.037678 0.301036
vt 0.037692 0.300948
vt 0.037693 0.300956
vt 0.037772 0.301009
vt 0.037761 0.300929
vt 0.037774 0.301017
vt 0.037763 0.300937
vt 0.037761 0.301442
vt 0.037775 0.301327
vt 0.037778 0.301338
vt 0.037763 0.301455
vt 0.037861 0.301310
vt 0.037876 0.301414
vt 0.037858 0.301299
vt 0.037873 0.301402
vt 0.037708 0.302228
vt 0.037718 0.302270
vt 0.037707 0.302267
vt 0.037697 0.302225
vt 0.037646 0.302728
vt 0.037637 0.302670
vt 0.037657 0.302730
vt 0.037648 0.302671
vt 0.037778 0.302527
vt 0.037792 0.302585
vt 0.037779 0.302583
vt 0.037765 0.302524
vt 0.037702 0.303091
vt 0.037737 0.302933
vt 0.037730 0.303039
vt 0.037715 0.303175
vt 0.037727 0.303176
vt 0.037714 0.303092
vt 0.037746 0.302952
vt 0.037858 0.327706
vt 0.037802 0.327726
vt 0.037802 0.327681
vt 0.037816 0.327663
vt 0.037859 0.327648
vt 0.037766 0.327476
vt 0.037728 0.327206
vt 0.037747 0.327225
vt 0.037742 0.327252
vt 0.037697 0.327264
vt 0.037765 0.327372
vt 0.037766 0.327346
vt 0.037757 0.327486
vt 0.037766 0.327515
vt 0.037794 0.327631
vt 0.037742 0.327211
vt 0.037772 0.327362
vt 0.037840 0.302569
vt 0.037825 0.302512
vt 0.037838 0.302501
vt 0.037853 0.302558
vt 0.037907 0.303007
vt 0.037926 0.303086
vt 0.037895 0.303017
vt 0.037914 0.303096
vt 0.037759 0.302259
vt 0.037748 0.302217
vt 0.037759 0.302208
vt 0.037770 0.302249
vt 0.037811 0.302611
vt 0.037825 0.302666
vt 0.037801 0.302619
vt 0.037815 0.302675
vt 0.037696 0.327215
vt 0.037745 0.327424
vt 0.037781 0.327407
vt 0.037750 0.302860
vt 0.037782 0.301340
vt 0.037937 0.301424
vt 0.038184 0.301786
vt 0.038146 0.301782
vt 0.038171 0.301858
vt 0.038200 0.301757
vt 0.038044 0.301682
vt 0.038064 0.301726
vt 0.037822 0.301313
vt 0.037946 0.301425
vt 0.037916 0.301380
vt 0.037839 0.301291
vt 0.037819 0.301277
vt 0.038175 0.301824
vt 0.038038 0.301686
vt 0.037787 0.301386
vt 0.038004 0.301652
vt 0.037809 0.301284
vt 0.037987 0.301462
vt 0.038205 0.301715
vt 0.038131 0.278787
vt 0.038181 0.278742
vt 0.038225 0.279394
vt 0.038174 0.279462
vt 0.038447 0.279097
vt 0.038456 0.278864
vt 0.038471 0.278933
vt 0.038483 0.279050
vt 0.038383 0.278465
vt 0.038348 0.278494
vt 0.038320 0.278892
vt 0.038355 0.278855
vt 0.038136 0.278668
vt 0.038088 0.278708
vt 0.038060 0.279172
vt 0.038108 0.279120
vt 0.038396 0.278550
vt 0.038431 0.278519
vt 0.038455 0.278775
vt 0.037725 0.276169
vt 0.037503 0.276082
vt 0.037529 0.275869
vt 0.037694 0.275928
vt 0.037926 0.275437
vt 0.037902 0.275270
vt 0.037779 0.275240
vt 0.037761 0.275392
vn 0.952258 0.305296 0.000000
vn 0.952257 0.305296 0.000000
vn 0.952258 0.305296 0.000000
vn 0.952257 0.305296 0.000000
vn -0.000000 0.120111 -0.992761
vn -0.000000 0.120111 -0.992761
vn -0.000000 0.120111 -0.992761
vn -0.000000 0.120111 -0.992761
vn -0.952257 0.305296 0.000000
vn -0.952257 0.305296 0.000000
vn -0.952257 0.305296 0.000000
vn -0.952257 0.305296 0.000000
vn -0.000000 -0.120111 0.992761
vn -0.000000 -0.120111 0.992761
vn -0.000000 -0.120110 0.992761
vn -0.000000 -0.120110 0.992761
vn 0.000000 1.000000 0.000000
vn 0.000000 1.000000 0.000000
vn 0.000000 1.000000 0.000000
vn 0.000000 1.000000 0.000000
vn 0.000000 -1.000000 0.000000
vn 0.000000 -1.000000 0.000000
vn 0.000000 -1.000000 0.000000
vn 0.000000 -1.000000 0.000000
vn 0.952258 0.305296 0.000000
vn 0.952258 0.305296 0.000000
vn 0.952258 0.305296 0.000000
vn 0.952258 0.305296 0.000000
vn 0.000000 0.120110 0.992761
vn 0.000000 0.120110 0.992761
vn 0.000000 0.120110 0.992761
vn 0.000000 0.120110 0.992761
vn -0.952258 0.305296 0.000000
vn -0.952258 0.305296 0.000000
vn -0.952258 0.305296 0.000000
vn -0.952258 0.305296 0.000000
vn 0.000000 -0.120111 -0.992761
vn 0.000000 -0.120111 -0.992761
vn 0.000000 -0.120111 -0.992761
vn 0.000000 -0.120111 -0.992761
vn 0.000000 1.000000 0.000000
vn 0.000000 1.000000 0.000000
vn 0.000000 1.000000 0.000000
vn 0.000000 1.000000 0.000000
vn 0.000000 -1.000000 0.000000
vn 0.000000 -1.000000 0.000000
vn 0.000000 -1.000000 0.000000
vn 0.000000 -1.000000 0.000000
vn -0.233323 0.972399 0.000000
vn -0.233323 0.972399 0.000000
vn -0.233323 0.972399 0.000000
vn -0.233323 0.972399 0.000000
vn 0.960635 0.277813 0.000000
vn 0.960635 0.277813 0.000000
vn 0.960635 0.277813 0.000000
vn 0.960635 0.277813 0.000000
vn 0.233322 -0.972400 0.000000
vn 0.233322 -0.972400 0.000000
vn 0.233322 -0.972400 0.000000
vn 0.233322 -0.972400 0.000000
vn -0.960635 -0.277813 0.000000
vn -0.960635 -0.277813 0.000000
vn -0.960635 -0.277813 0.000000
vn -0.960635 -0.277813 0.000000
vn 0.019896 -0.082920 0.996358
vn 0.019896 -0.082920 0.996358
vn 0.019896 -0.082920 0.996358
vn 0.019896 -0.082920 0.996358
vn -0.027510 0.114647 -0.993025
vn -0.027510 0.114647 -0.993025
vn -0.027510 0.114647 -0.993025
vn -0.027510 0.114647 -0.993025
vn -0.233323 0.972399 0.000000
vn -0.233323 0.972399 0.000000
vn -0.233323 0.972399 0.000000
vn -0.233323 0.972399 0.000000
vn 0.958031 0.286663 -0.000000
vn 0.958031 0.286663 -0.000000
vn 0.958031 0.286663 -0.000000
vn 0.958031 0.286663 -0.000000
vn 0.233322 -0.972400 0.000000
vn 0.233322 -0.972400 0.000000
vn 0.233322 -0.972400 0.000000
vn 0.233322 -0.972400 0.000000
vn -0.960635 -0.277813 0.000000
vn -0.960635 -0.277813 0.000000
vn -0.960635 -0.277813 0.000000
vn -0.960635 -0.277813 0.000000
vn 0.036300 0.132786 0.990480
vn 0.036300 0.132786 0.990480
vn 0.036300 0.132786 0.990480
vn 0.019897 -0.082920 -0.996358
vn 0.019897 -0.082920 -0.996358
vn 0.019897 -0.082920 -0.996358
vn 0.019897 -0.082920 -0.996358
vn -0.000000 0.000000 1.000000
vn -0.000000 0.000000 1.000000
vn -0.000000 0.000000 1.000000
vn -0.000000 0.000000 1.000000
vn -0.000000 0.000000 1.000000
vn 0.016804 0.999859 0.000564
vn 0.016804 0.999859 0.000564
vn 0.016804 0.999859 0.000564
vn 0.016804 0.999859 0.000564
vn -0.002942 -0.999973 0.006793
vn -0.002942 -0.999973 0.006793
vn -0.002942 -0.999973 0.006793
vn -0.002942 -0.999973 0.006793
vn 0.999943 0.002663 -0.010381
vn 0.999943 0.002663 -0.010381
vn 0.999943 0.002663 -0.010381
vn 0.999943 0.002663 -0.010381
vn 0.999943 0.002663 -0.010381
vn -0.996706 -0.081090 0.000780
vn -0.996706 -0.081090 0.000780
vn -0.996706 -0.081090 0.000780
vn -0.996706 -0.081090 0.000780
vn 0.233322 0.972400 0.000000
vn 0.233322 0.972400 0.000000
vn 0.233322 0.972400 0.000000
vn 0.233322 0.972400 0.000000
vn -0.960635 0.277813 0.000000
vn -0.960635 0.277813 0.000000
vn -0.960635 0.277813 0.000000
vn -0.960635 0.277813 0.000000
vn -0.233322 -0.972400 0.000000
vn -0.233322 -0.972400 0.000000
vn -0.233322 -0.972400 0.000000
vn -0.233322 -0.972400 0.000000
vn 0.960635 -0.277813 0.000000
vn 0.960635 -0.277813 0.000000
vn 0.960635 -0.277813 0.000000
vn 0.960635 -0.277813 0.000000
vn -0.019897 -0.082920 -0.996358
vn -0.019897 -0.082920 -0.996358
vn -0.019897 -0.082920 -0.996358
vn -0.019897 -0.082920 -0.996358
vn 0.027510 0.114647 0.993025
vn 0.027510 0.114647 0.993025
vn 0.027510 0.114647 0.993025
vn 0.027510 0.114647 0.993025
vn 0.233322 0.972400 0.000000
vn 0.233322 0.972400 0.000000
vn 0.233322 0.972400 0.000000
vn 0.233322 0.972400 0.000000
vn -0.960635 0.277813 0.000000
vn -0.960635 0.277813 0.000000
vn -0.960635 0.277813 0.000000
vn -0.960635 0.277813 0.000000
vn -0.233322 -0.972400 0.000000
vn -0.233322 -0.972400 0.000000
vn -0.233322 -0.972400 0.000000
vn -0.233322 -0.972400 0.000000
vn 0.960635 -0.277813 0.000000
vn 0.960635 -0.277813 0.000000
vn 0.960635 -0.277813 0.000000
vn 0.960635 -0.277813 0.000000
vn 0.027509 0.114647 -0.993025
vn 0.027509 0.114647 -0.993025
vn 0.027509 0.114647 -0.993025
vn 0.027509 0.114647 -0.993025
vn -0.019897 -0.082920 0.996358
vn -0.019897 -0.082920 0.996358
vn -0.019897 -0.082920 0.996358
vn -0.019897 -0.082920 0.996358
vn 0.423930 0.884219 0.196061
vn 0.423930 0.884219 0.196061
vn 0.423930 0.884219 0.196061
vn -0.272228 0.949405 -0.156592
vn -0.272228 0.949405 -0.156592
vn -0.272228 0.949405 -0.156592
vn -0.000000 0.000000 -1.000000
vn -0.000000 0.000000 -1.000000
vn -0.000000 0.000000 -1.000000
vn -0.000000 0.000000 -1.000000
vn -0.000000 0.000000 -1.000000
vn 0.479546 0.868987 -0.122055
vn 0.479546 0.868987 -0.122055
vn 0.479546 0.868987 -0.122055
vn 0.553123 0.828373 0.088617
vn 0.553123 0.828373 0.088617
vn 0.553123 0.828373 0.088617
vn -0.511111 -0.847532 0.143022
vn -0.511111 -0.847532 0.143022
vn -0.511111 -0.847532 0.143022
vn -0.547984 -0.829578 -0.107304
vn -0.547984 -0.829578 -0.107304
vn -0.547984 -0.829578 -0.107304
vn -0.001648 -0.999995 -0.002662
vn -0.001648 -0.999995 -0.002662
vn -0.001648 -0.999995 -0.002662
vn -0.001648 -0.999995 -0.002662
vn -0.019848 -0.999803 0.000000
vn -0.019848 -0.999803 0.000000
vn -0.019848 -0.999803 0.000000
vn -0.999801 -0.014407 0.013792
vn -0.999801 -0.014407 0.013792
vn -0.999801 -0.014407 0.013792
vn -0.999801 -0.014407 0.013792
vn -0.999965 -0.006319 -0.005424
vn -0.999965 -0.006319 -0.005424
vn -0.999965 -0.006319 -0.005424
vn -0.999965 -0.006319 -0.005424
vn 0.000359 0.999986 -0.005207
vn 0.000359 0.999986 -0.005207
vn 0.000359 0.999986 -0.005207
vn 0.000359 0.999986 -0.005207
vn 0.000359 0.999986 -0.005207
vn 0.003497 0.999989 0.003148
vn 0.003497 0.999989 0.003148
vn 0.003497 0.999989 0.003148
vn 0.003497 0.999989 0.003148
vn 0.999933 0.009605 0.006410
vn 0.999933 0.009605 0.006410
vn 0.999933 0.009605 0.006410
vn 0.999933 0.009605 0.006410
vn 0.996247 0.086553 0.000000
vn 0.996247 0.086553 0.000000
vn 0.996247 0.086553 0.000000
vn 0.865817 0.174351 0.469002
vn 0.865817 0.174351 0.469002
vn 0.865817 0.174351 0.469002
vn 0.766079 0.433303 0.474733
vn 0.766079 0.433303 0.474733
vn 0.766079 0.433303 0.474733
vn 0.962100 0.272485 0.010750
vn 0.962100 0.272485 0.010750
vn 0.962100 0.272485 0.010750
vn 0.962100 0.272485 0.010750
vn 0.959814 0.279660 0.023418
vn 0.959814 0.279660 0.023418
vn 0.959814 0.279660 0.023418
vn -0.028390 0.118300 0.992572
vn -0.028390 0.118300 0.992572
vn -0.028390 0.118300 0.992572
vn -0.028390 0.118300 0.992572
vn -0.012726 0.115721 0.993200
vn -0.012726 0.115721 0.993200
vn -0.012726 0.115721 0.993200
vn -0.012726 0.115721 0.993200
s off
f 1/1/1 3/2/2 4/3/3 2/4/4
f 3/112/5 5/113/6 6/114/7 4/115/8
f 5/5/9 7/7/10 8/8/11 6/6/12
f 7/7/13 1/1/14 2/4/15 8/8/16
f 2/4/17 4/3/18 6/6/19 8/8/20
f 7/7/21 5/5/22 3/2/23 1/1/24
f 9/9/25 10/10/26 12/11/27 11/12/28
f 11/116/29 12/117/30 14/118/31 13/119/32
f 13/14/33 14/13/34 16/15/35 15/16/36
f 15/16/37 16/15/38 10/10/39 9/9/40
f 10/10/41 16/15/42 14/13/43 12/11/44
f 15/16/45 9/9/46 11/12/47 13/14/48
f 17/17/49 18/18/50 20/19/51 19/20/52
f 19/93/53 20/94/54 22/95/55 21/96/56
f 21/22/57 22/21/58 24/23/59 23/24/60
f 23/24/61 24/23/62 18/18/63 17/17/64
f 18/18/65 24/23/66 22/21/67 20/19/68
f 23/24/69 17/17/70 19/20/71 21/22/72
f 25/25/73 26/26/74 28/27/75 27/28/76
f 29/97/77 71/98/78 70/99/79 30/100/80
f 29/29/81 30/32/82 32/33/83 31/34/84
f 31/34/85 32/33/86 26/26/87 25/25/88
f 26/26/89 32/33/90 72/35/91
f 31/34/92 25/25/93 27/28/94 29/29/95
f 33/36/96 34/37/97 36/38/98 57/39/99 35/40/100
f 35/73/101 63/74/102 59/75/103 60/76/104
f 39/77/105 40/78/106 68/79/107 65/80/108
f 34/81/109 64/82/110 61/83/111 58/84/112 36/85/113
f 37/86/114 67/87/115 35/73/116 60/76/117
f 41/53/118 42/54/119 44/55/120 43/56/121
f 43/101/122 44/102/123 46/103/124 45/104/125
f 45/58/126 46/57/127 48/59/128 47/60/129
f 47/60/130 48/59/131 42/54/132 41/53/133
f 42/54/134 48/59/135 46/57/136 44/55/137
f 47/60/138 41/53/139 43/56/140 45/58/141
f 49/61/142 50/62/143 52/63/144 51/64/145
f 51/105/146 52/106/147 54/107/148 53/108/149
f 53/66/150 54/65/151 56/67/152 55/68/153
f 55/68/154 56/67/155 50/62/156 49/61/157
f 50/62/158 56/67/159 54/65/160 52/63/161
f 55/68/162 49/61/163 51/64/164 53/66/165
f 58/50/166 57/39/167 36/38/168
f 60/43/169 59/42/170 37/51/171
f 37/51/172 59/42/173 38/69/174 40/45/175 39/44/176
f 64/48/177 63/41/178 61/49/179
f 62/70/180 63/41/181 64/48/182
f 65/47/183 68/46/184 67/52/185
f 67/52/186 68/46/187 66/71/188
f 68/79/189 34/81/190 33/88/191 66/89/192
f 68/79/193 40/78/194 34/81/195
f 39/77/196 65/80/197 67/87/198 37/86/199
f 35/73/200 67/87/201 66/89/202 33/88/203
f 35/73/204 57/90/205 58/84/206 61/83/207 63/74/208
f 59/75/209 63/74/210 62/91/211 38/92/212
f 64/82/213 40/78/214 38/92/215 62/91/216
f 34/81/217 40/78/218 64/82/219
f 72/35/220 71/30/221 69/72/222
f 70/31/223 71/30/224 72/35/225
f 27/109/226 28/110/227 69/111/228 71/98/229
f 27/109/230 71/98/231 29/97/232
f 72/35/233 32/33/234 30/32/235 70/31/236
f 26/26/237 72/35/238 69/72/239 28/27/240
