# This file uses centimeters as units for non-parametric coordinates.

v 56.117432 80.267288 1.422775
v 22.869385 113.515106 1.422775
v -24.149902 113.515091 1.422775
v -54.416260 79.081024 1.422745
v -57.397705 33.247845 1.422775
v -24.149902 0.000038 1.422775
v 22.869385 0.000000 1.422775
v 53.598633 34.339867 1.422775
v 56.117432 80.267288 51.422806
v 22.869385 113.515106 51.422775
v -24.149902 113.515091 51.422775
v -57.397705 80.267303 51.422775
v -54.452393 34.495487 51.422806
v -24.149902 0.000038 51.422775
v 22.869385 0.000000 51.422775
v 56.117432 33.247787 51.422775
v 49.201416 77.402618 1.422775
v 20.004639 106.599167 1.422775
v -50.481689 77.402634 1.422775
v -50.481689 36.112507 1.422775
v -21.285156 6.915962 1.422775
v 20.004883 6.915970 1.422775
v 49.201416 36.112503 1.422775
v 49.201416 77.402618 51.422806
v 20.004639 106.599167 51.422806
v -21.285400 106.599167 51.422806
v -50.481689 77.402634 51.422806
v -50.481689 36.112511 51.422806
v -21.285156 6.915962 51.422806
v 20.004883 6.915970 51.422806
v 49.201416 36.112503 51.422806
v -57.397705 47.625343 51.422775
v -51.193115 27.043369 51.422775
v -57.397705 33.247845 37.697197
v 56.117432 42.332996 1.422745
v 56.117432 33.247795 5.510391
v 48.010254 25.140713 1.422775
v -21.285400 106.599152 1.422775
v -57.397705 68.022629 1.422745
v -57.397705 80.267303 9.196091
v -44.301514 93.363510 1.422775
v 43.356689 74.981613 8.110565
v 17.583740 100.754333 8.110565
v 43.356689 74.981613 58.110519
v 17.583740 100.754333 58.110519
v -44.636963 38.533493 8.110565
v -44.636963 74.981628 8.110565
v -44.636963 74.981628 58.110519
v -44.636963 38.533493 58.110519
v -18.864258 12.760773 8.110565
v -18.864258 12.760777 58.110519
v 17.583740 12.760780 8.110565
v 17.583740 12.760780 58.110519
v 43.356689 38.533504 8.110565
v 43.356689 38.533504 58.110519
v -18.864258 100.754333 8.110535
v -18.864258 100.754333 58.110519
v 49.201416 77.402618 8.110565
v 20.004639 106.599167 8.110565
v 49.201416 77.402618 58.110519
v 20.004639 106.599167 58.110519
v -50.481689 36.112507 8.110565
v -50.481689 77.402634 8.110565
v -50.481689 36.112511 58.110519
v -50.481689 77.402634 58.110519
v -21.285156 6.915962 8.110565
v -21.285156 6.915962 58.110519
v 20.004883 6.915970 8.110565
v 20.004883 6.915970 58.110519
v 49.201416 36.112503 8.110565
v 49.201416 36.112503 58.110519
v -21.285400 106.599152 8.110535
v -21.285400 106.599167 58.110519
vt 0.102012 0.338327
vt 0.102012 0.338327
vt 0.102012 0.338327
vt 0.102012 0.309623
vt 0.102012 0.309623
vt 0.102012 0.309623
vt 0.102012 0.309623
vt 0.102012 0.309623
vt 0.102012 0.309623
vt 0.102012 0.309623
vt 0.102012 0.338327
vt 0.102012 0.317956
vt 0.102012 0.338327
vt 0.102012 0.338327
vt 0.102012 0.338327
vt 0.102012 0.338327
vt 0.102012 0.338327
vt 0.102012 0.338327
vt 0.102012 0.338327
vt 0.102012 0.309623
vt 0.102012 0.309623
vt 0.102012 0.309623
vt 0.102012 0.309623
vt 0.102012 0.338327
vt 0.102012 0.338327
vt 0.102012 0.338327
vt 0.102012 0.338327
vt 0.102012 0.338327
vt 0.102012 0.338327
vt 0.102012 0.309623
vt 0.102012 0.309623
vt 0.102012 0.309623
vt 0.102012 0.309623
vt 0.102012 0.309623
vt 0.102012 0.309623
vt 0.102012 0.309623
vt 0.102012 0.309623
vt 0.102012 0.338327
vt 0.102012 0.338327
vt 0.102012 0.338327
vt 0.102012 0.338327
vt 0.102012 0.338327
vt 0.102012 0.338327
vt 0.102012 0.338327
vt 0.102012 0.338327
vt 0.102012 0.338327
vt 0.102012 0.338327
vt 0.102012 0.309623
vt 0.102012 0.309623
vt 0.102012 0.338327
vt 0.102012 0.309623
vt 0.102012 0.309623
vt 0.102012 0.309623
vt 0.102012 0.309623
vt 0.102012 0.309623
vt 0.102012 0.309623
vt 0.102012 0.338327
vt 0.102012 0.338327
vt 0.102012 0.338327
vt 0.102012 0.338327
vt 0.102012 0.338327
vt 0.102012 0.338327
vt 0.102012 0.338327
vt 0.102012 0.309623
vt 0.102012 0.309623
vt 0.102012 0.338327
vt 0.102012 0.338327
vt 0.102012 0.338327
vt 0.102012 0.338327
vt 0.102012 0.338327
vt 0.102012 0.338327
vt 0.102012 0.338327
vt 0.102012 0.338327
vt 0.102012 0.309623
vt 0.102012 0.309623
vt 0.102012 0.338327
vt 0.102012 0.338327
vt 0.102012 0.338327
vt 0.102012 0.338327
vt 0.102012 0.338327
vt 0.102012 0.338327
vt 0.102012 0.338327
vt 0.102012 0.338327
vt 0.102012 0.338327
vt 0.102012 0.338327
vt 0.102012 0.309623
vt 0.102012 0.309623
vt 0.102012 0.309623
vt 0.102012 0.309623
vt 0.102012 0.309623
vt 0.102012 0.309623
vt 0.102012 0.338327
vt 0.102012 0.338327
vt 0.102012 0.338327
vt 0.102012 0.338327
vt 0.102012 0.338327
vt 0.102012 0.338327
vt 0.102012 0.338327
vt 0.102012 0.338327
vt 0.102012 0.309623
vt 0.102012 0.309623
vt 0.102012 0.309623
vt 0.102012 0.338327
vt 0.102012 0.338327
vt 0.102012 0.338327
vn 0.707104 0.707109 0.000000
vn 0.707104 0.707109 0.000000
vn 0.707104 0.707109 0.000000
vn 0.707104 0.707109 0.000000
vn -0.757395 0.536382 -0.372353
vn -0.757395 0.536382 -0.372353
vn -0.757395 0.536382 -0.372353
vn -0.893337 0.240852 -0.379393
vn -0.893337 0.240852 -0.379393
vn -0.893337 0.240852 -0.379393
vn -0.707107 -0.707107 0.000001
vn -0.707107 -0.707107 0.000001
vn -0.707107 -0.707107 0.000001
vn -0.707107 -0.707107 0.000001
vn -0.707107 -0.707107 0.000001
vn 0.711549 -0.432257 -0.553943
vn 0.711549 -0.432257 -0.553943
vn 0.711549 -0.432257 -0.553943
vn 1.000000 0.000000 0.000000
vn 1.000000 0.000000 0.000000
vn 1.000000 0.000000 0.000000
vn 1.000000 0.000000 0.000000
vn 1.000000 0.000000 0.000000
vn 0.000000 0.000000 -1.000000
vn 0.000000 0.000000 -1.000000
vn 0.000000 0.000000 -1.000000
vn 0.000000 0.000000 -1.000000
vn 0.000000 0.000000 -1.000000
vn 0.000000 0.000000 -1.000000
vn 0.000000 0.000000 -1.000000
vn 0.000000 0.000000 -1.000000
vn 0.000000 0.000000 -1.000000
vn 0.000000 0.000000 -1.000000
vn 0.000000 0.000000 -1.000000
vn 0.000000 0.000000 -1.000000
vn 0.000000 0.000004 1.000000
vn 0.000000 0.000004 1.000000
vn 0.000000 0.000004 1.000000
vn 0.000000 0.000004 1.000000
vn -0.000003 0.000003 1.000000
vn -0.000003 0.000003 1.000000
vn -0.000003 0.000003 1.000000
vn -0.000003 0.000003 1.000000
vn -0.000004 0.000000 1.000000
vn -0.000004 0.000000 1.000000
vn -0.000004 0.000000 1.000000
vn -0.000004 0.000000 1.000000
vn -0.000004 0.000000 1.000000
vn -0.000002 -0.000003 1.000000
vn -0.000002 -0.000003 1.000000
vn -0.000002 -0.000003 1.000000
vn -0.000002 -0.000003 1.000000
vn -0.000002 -0.000003 1.000000
vn 0.000000 -0.000004 1.000000
vn 0.000000 -0.000004 1.000000
vn 0.000000 -0.000004 1.000000
vn 0.000000 -0.000004 1.000000
vn 0.000003 -0.000003 1.000000
vn 0.000003 -0.000003 1.000000
vn 0.000003 -0.000003 1.000000
vn 0.000003 -0.000003 1.000000
vn -0.707104 -0.707110 0.000000
vn -0.707104 -0.707110 0.000000
vn -0.707104 -0.707110 0.000000
vn -0.707104 -0.707110 0.000000
vn -0.000000 0.000000 -1.000000
vn -0.000000 0.000000 -1.000000
vn -0.000000 0.000000 -1.000000
vn -0.000000 0.000000 -1.000000
vn 0.000001 -0.000000 -1.000000
vn 0.000001 -0.000000 -1.000000
vn 0.000001 -0.000000 -1.000000
vn 0.000001 -0.000000 -1.000000
vn 0.000001 -0.000000 -1.000000
vn 1.000000 0.000000 0.000000
vn 1.000000 0.000000 0.000000
vn 1.000000 0.000000 0.000000
vn 1.000000 0.000000 0.000000
vn 0.707107 0.707107 -0.000000
vn 0.707107 0.707107 -0.000000
vn 0.707107 0.707107 -0.000000
vn 0.707107 0.707107 -0.000000
vn -0.000000 1.000000 -0.000000
vn -0.000000 1.000000 -0.000000
vn -0.000000 1.000000 -0.000000
vn -0.000000 1.000000 -0.000000
vn -0.707104 0.707110 0.000000
vn -0.707104 0.707110 0.000000
vn -0.707104 0.707110 0.000000
vn -0.707104 0.707110 0.000000
vn -1.000000 0.000000 0.000000
vn -1.000000 0.000000 0.000000
vn -1.000000 0.000000 0.000000
vn -1.000000 0.000000 0.000000
vn 0.000001 0.000002 1.000000
vn 0.000001 0.000002 1.000000
vn 0.000001 0.000002 1.000000
vn 0.000001 0.000002 1.000000
vn 0.000002 -0.000000 1.000000
vn 0.000002 -0.000000 1.000000
vn 0.000002 -0.000000 1.000000
vn 0.000002 -0.000000 1.000000
vn 0.793088 -0.249920 -0.555473
vn 0.793088 -0.249920 -0.555473
vn 0.793088 -0.249921 -0.555473
vn -0.892297 -0.390259 0.226948
vn -0.892297 -0.390259 0.226948
vn -0.892297 -0.390258 0.226948
vn -0.951073 -0.213346 0.223479
vn -0.951073 -0.213346 0.223479
vn -0.951073 -0.213346 0.223479
vn 0.707104 -0.707109 -0.000000
vn 0.707104 -0.707110 -0.000000
vn 0.707104 -0.707109 -0.000000
vn 0.707104 -0.707109 -0.000000
vn 0.707104 -0.707110 -0.000000
vn 0.000000 0.000000 -1.000000
vn 0.000000 0.000000 -1.000000
vn 0.000000 0.000000 -1.000000
vn 0.000000 0.000000 -1.000000
vn 0.000000 0.000000 -1.000000
vn -0.000002 0.000000 -1.000000
vn -0.000002 0.000000 -1.000000
vn -0.000002 0.000000 -1.000000
vn -0.000002 0.000000 -1.000000
vn -0.000002 0.000000 -1.000000
vn 0.000000 -1.000000 0.000000
vn 0.000000 -1.000000 0.000000
vn 0.000000 -1.000000 0.000000
vn 0.000000 -1.000000 0.000000
vn 0.707107 -0.707107 0.000000
vn 0.707107 -0.707107 0.000000
vn 0.707107 -0.707107 0.000000
vn 0.707107 -0.707107 0.000000
vn 0.000003 -0.000001 -1.000000
vn 0.000003 -0.000001 -1.000000
vn 0.000003 -0.000001 -1.000000
vn 0.000003 -0.000001 -1.000000
vn 0.000003 -0.000001 -1.000000
vn -1.000000 0.000000 0.000000
vn -1.000000 0.000000 0.000000
vn -1.000000 0.000000 0.000000
vn -1.000000 0.000000 0.000000
vn -1.000000 0.000000 0.000000
vn -1.000000 0.000000 0.000000
vn -0.707107 0.707107 0.000000
vn -0.707107 0.707107 0.000000
vn -0.707107 0.707107 0.000000
vn -0.707107 0.707107 0.000000
vn -0.707107 0.707107 0.000000
vn -0.000000 1.000000 0.000000
vn -0.000000 1.000000 0.000000
vn -0.000000 1.000000 0.000000
vn -0.000000 1.000000 0.000000
vn -0.000001 -1.000000 0.000000
vn -0.000001 -1.000000 0.000000
vn -0.000001 -1.000000 0.000000
vn -0.000001 -1.000000 0.000000
vn -0.000000 0.000000 -1.000000
vn -0.000000 0.000000 -1.000000
vn -0.000000 0.000000 -1.000000
vn -0.000000 0.000000 -1.000000
vn 0.000000 0.000000 1.000000
vn 0.000000 0.000000 1.000000
vn 0.000000 0.000000 1.000000
vn 0.000000 0.000000 1.000000
vn 0.000000 0.000000 -1.000000
vn 0.000000 0.000000 -1.000000
vn 0.000000 0.000000 -1.000000
vn 0.000000 0.000000 -1.000000
vn -0.000000 0.000000 1.000000
vn -0.000000 0.000000 1.000000
vn -0.000000 0.000000 1.000000
vn -0.000000 0.000000 1.000000
vn 0.000000 0.000000 -1.000000
vn 0.000000 0.000000 -1.000000
vn 0.000000 0.000000 -1.000000
vn 0.000000 0.000000 -1.000000
vn 0.000000 0.000000 1.000000
vn 0.000000 0.000000 1.000000
vn 0.000000 0.000000 1.000000
vn 0.000000 0.000000 1.000000
vn 0.000000 0.000000 -1.000000
vn 0.000000 0.000000 -1.000000
vn 0.000000 0.000000 -1.000000
vn 0.000000 0.000000 -1.000000
vn 0.000000 0.000000 1.000000
vn 0.000000 0.000000 1.000000
vn 0.000000 0.000000 1.000000
vn 0.000000 0.000000 1.000000
vn -0.000000 0.000000 -1.000000
vn -0.000000 0.000000 -1.000000
vn -0.000000 0.000000 -1.000000
vn -0.000000 0.000000 -1.000000
vn -0.000000 0.000000 1.000000
vn -0.000000 0.000000 1.000000
vn -0.000000 0.000000 1.000000
vn -0.000000 0.000000 1.000000
vn 0.000000 0.000000 -1.000000
vn 0.000000 0.000000 -1.000000
vn 0.000000 0.000000 -1.000000
vn 0.000000 0.000000 -1.000000
vn -0.000001 0.000000 1.000000
vn -0.000001 0.000000 1.000000
vn -0.000001 0.000000 1.000000
vn -0.000001 0.000000 1.000000
vn 0.000001 0.000000 -1.000000
vn 0.000001 0.000000 -1.000000
vn 0.000001 0.000000 -1.000000
vn 0.000001 0.000000 -1.000000
vn 0.000000 0.000000 1.000000
vn 0.000000 0.000000 1.000000
vn 0.000000 0.000000 1.000000
vn 0.000000 0.000000 1.000000
vn -0.000001 -0.000001 -1.000000
vn -0.000001 -0.000001 -1.000000
vn -0.000001 -0.000001 -1.000000
vn -0.000001 -0.000001 -1.000000
vn 0.000000 0.000000 1.000000
vn 0.000000 0.000000 1.000000
vn 0.000000 0.000000 1.000000
vn 0.000000 0.000000 1.000000
vn -0.707104 -0.707110 0.000000
vn -0.707104 -0.707110 0.000000
vn -0.707104 -0.707110 0.000000
vn -0.707104 -0.707110 0.000000
vn 0.707104 0.707110 0.000000
vn 0.707104 0.707110 0.000000
vn 0.707104 0.707110 0.000000
vn 0.707104 0.707110 0.000000
vn 1.000000 0.000000 0.000000
vn 1.000000 0.000000 0.000000
vn 1.000000 0.000000 0.000000
vn 1.000000 0.000000 0.000000
vn -1.000000 0.000000 0.000000
vn -1.000000 0.000000 0.000000
vn -1.000000 0.000000 0.000000
vn -1.000000 0.000000 0.000000
vn 0.707107 0.707107 0.000000
vn 0.707107 0.707107 0.000000
vn 0.707107 0.707107 0.000000
vn 0.707107 0.707107 0.000000
vn -0.707107 -0.707107 0.000000
vn -0.707107 -0.707107 0.000000
vn -0.707107 -0.707107 0.000000
vn -0.707107 -0.707107 0.000000
vn -0.000000 1.000000 0.000000
vn -0.000000 1.000000 0.000000
vn -0.000000 1.000000 0.000000
vn -0.000000 1.000000 0.000000
vn 0.000000 -1.000000 0.000000
vn 0.000000 -1.000000 0.000000
vn 0.000000 -1.000000 0.000000
vn 0.000000 -1.000000 0.000000
vn -0.707107 0.707107 0.000000
vn -0.707107 0.707107 0.000000
vn -0.707107 0.707107 0.000000
vn -0.707107 0.707107 0.000000
vn 0.707107 -0.707107 0.000000
vn 0.707107 -0.707107 0.000000
vn 0.707107 -0.707107 0.000000
vn 0.707107 -0.707107 0.000000
vn -1.000000 0.000000 0.000000
vn -1.000000 0.000000 0.000000
vn -1.000000 0.000000 0.000000
vn -1.000000 0.000000 0.000000
vn 1.000000 0.000000 0.000000
vn 1.000000 0.000000 0.000000
vn 1.000000 0.000000 0.000000
vn 1.000000 0.000000 0.000000
vn 0.000000 -1.000000 0.000000
vn 0.000000 -1.000000 0.000000
vn 0.000000 -1.000000 0.000000
vn 0.000000 -1.000000 0.000000
vn 0.000000 1.000000 0.000000
vn 0.000000 1.000000 0.000000
vn 0.000000 1.000000 0.000000
vn 0.000000 1.000000 0.000000
vn 0.707110 -0.707104 0.000000
vn 0.707110 -0.707104 0.000000
vn 0.707110 -0.707104 0.000000
vn 0.707110 -0.707104 0.000000
vn -0.707110 0.707104 0.000000
vn -0.707110 0.707104 0.000000
vn -0.707110 0.707104 0.000000
vn -0.707110 0.707104 0.000000
s off
f 9/1/1 1/80/2 2/78/3 10/79/4
f 40/2/5 41/3/6 4/4/7
f 4/4/8 39/5/9 40/2/10
f 5/6/11 6/7/12 14/8/13 33/9/14 34/10/15
f 36/12/16 37/13/17 8/14/18
f 9/15/19 16/67/20 36/12/21 35/63/22 1/66/23
f 2/16/24 1/17/25 17/18/26 18/19/27
f 6/20/28 5/21/29 20/22/30 21/23/31
f 7/24/32 6/20/33 21/23/34 22/25/35
f 10/26/36 11/27/37 26/28/38 25/29/39
f 11/27/40 12/30/41 27/31/42 26/28/43
f 12/30/44 32/32/45 13/33/46 28/34/47 27/31/48
f 13/33/49 33/35/50 14/36/51 29/37/52 28/34/53
f 14/36/54 15/38/55 30/39/56 29/37/57
f 15/38/58 16/40/59 31/41/60 30/39/61
f 43/42/62 42/43/63 44/44/64 45/45/65
f 38/46/66 3/47/67 2/16/68 18/19/69
f 38/46/70 19/48/71 4/49/72 41/50/73 3/47/74
f 46/51/75 47/52/76 48/53/77 49/54/78
f 50/55/79 46/51/80 49/54/81 51/56/82
f 52/57/83 50/55/84 51/56/85 53/58/86
f 54/59/87 52/57/88 53/58/89 55/60/90
f 42/43/91 54/59/92 55/60/93 44/44/94
f 9/61/95 10/26/96 25/29/97 24/62/98
f 16/40/99 9/61/100 24/62/101 31/41/102
f 8/14/103 35/63/104 36/12/105
f 34/10/106 33/9/107 13/64/108
f 32/65/109 34/10/110 13/64/111
f 36/12/112 16/67/113 15/11/114 7/81/115 37/13/116
f 8/68/117 37/69/118 7/24/119 22/25/120 23/70/121
f 1/17/122 35/71/123 8/68/124 23/70/125 17/18/126
f 56/72/127 43/42/128 45/45/129 57/73/130
f 47/52/131 56/72/132 57/73/133 48/53/134
f 5/21/135 39/74/136 4/49/137 19/48/138 20/22/139
f 40/2/140 39/5/141 5/6/142 34/10/143 32/65/144 12/75/145
f 3/76/146 41/3/147 40/2/148 12/75/149 11/77/150
f 2/78/151 3/76/152 11/77/153 10/79/154
f 6/7/155 7/81/156 15/11/157 14/8/158
f 59/82/159 58/83/160 42/43/161 43/42/162
f 60/84/163 61/85/164 45/45/165 44/44/166
f 62/86/167 63/87/168 47/52/169 46/51/170
f 65/88/171 64/89/172 49/54/173 48/53/174
f 66/90/175 62/86/176 46/51/177 50/55/178
f 64/89/179 67/91/180 51/56/181 49/54/182
f 68/92/183 66/90/184 50/55/185 52/57/186
f 67/91/187 69/93/188 53/58/189 51/56/190
f 70/94/191 68/92/192 52/57/193 54/59/194
f 69/93/195 71/95/196 55/60/197 53/58/198
f 58/83/199 70/94/200 54/59/201 42/43/202
f 71/95/203 60/84/204 44/44/205 55/60/206
f 43/42/207 56/72/208 72/96/209 59/82/210
f 61/85/211 73/97/212 57/73/213 45/45/214
f 56/72/215 47/52/216 63/87/217 72/96/218
f 73/97/219 65/88/220 48/53/221 57/73/222
f 18/19/223 17/18/224 58/83/225 59/82/226
f 24/98/227 25/99/228 61/85/229 60/84/230
f 20/22/231 19/48/232 63/87/233 62/86/234
f 27/100/235 28/101/236 64/89/237 65/88/238
f 21/23/239 20/22/240 62/86/241 66/90/242
f 28/101/243 29/102/244 67/91/245 64/89/246
f 22/25/247 21/23/248 66/90/249 68/92/250
f 29/102/251 30/103/252 69/93/253 67/91/254
f 23/70/255 22/25/256 68/92/257 70/94/258
f 30/103/259 31/104/260 71/95/261 69/93/262
f 17/18/263 23/70/264 70/94/265 58/83/266
f 31/104/267 24/98/268 60/84/269 71/95/270
f 72/96/271 38/46/272 18/19/273 59/82/274
f 25/99/275 26/105/276 73/97/277 61/85/278
f 63/87/279 19/48/280 38/46/281 72/96/282
f 26/105/283 27/100/284 65/88/285 73/97/286
