# This file uses centimeters as units for non-parametric coordinates.

v -1.763550 -28.879433 0.345795
v -2.887207 -28.879433 2.737915
v -1.678589 -28.879433 4.247986
v 0.398560 -28.879433 4.247986
v 1.607178 -28.879433 2.737915
v 0.483521 -28.879433 0.345795
v -0.640015 -52.391281 2.653046
v -3.061523 -49.772240 2.653046
v -1.550537 -49.772240 3.980988
v 0.270508 -49.772240 3.980988
v 1.781494 -49.772240 2.653046
v -4.033081 -29.780487 2.653046
v -2.336548 -29.780487 -0.285400
v -1.915771 -29.780487 4.750488
v 0.635742 -29.780487 4.750488
v 2.753052 -29.780487 2.653046
v 1.056519 -29.780487 -0.285400
v -1.794312 -42.478920 4.427887
v 0.514282 -42.478920 4.427887
v 2.429932 -42.478920 2.653046
v 1.056519 -42.478920 -0.285400
v -2.336548 -42.478920 -0.285400
v -3.709961 -42.478920 2.653046
v 11.721436 -73.330200 2.468964
v -13.001465 -73.330200 2.468964
v -0.640015 -74.170029 2.675323
v -11.599243 -71.815491 4.136902
v 10.319214 -71.815491 4.136902
v 11.721436 -44.288216 2.468964
v 10.355957 -44.288216 4.725433
v -13.001465 -44.288216 2.468964
v -11.635986 -44.288216 4.725433
v 1.607178 67.959175 2.737915
v 0.398560 67.959175 4.247986
v -1.678589 67.959175 4.247986
v -2.887207 67.959175 2.737915
v -1.763550 67.959175 0.345795
v 0.483521 67.959175 0.345795
v -0.640015 -72.494644 4.093689
v -0.640015 -44.288216 -1.780243
v -0.640015 -62.542183 -1.904968
v -0.640015 -62.000740 2.645020
v 8.495605 67.878380 0.059570
v 8.495605 66.554482 2.878113
v 8.495605 67.978462 4.657349
v 8.495605 70.425987 4.657349
v 8.495605 71.849968 2.878113
v 8.495605 70.525963 0.059570
v -9.331055 71.849968 2.878113
v -9.331055 70.425987 4.657349
v -9.331055 67.978462 4.657349
v -9.331055 66.554482 2.878113
v -9.331055 67.878380 0.059570
v -9.331055 70.525963 0.059570
v 9.163086 69.202232 2.531677
v -9.998413 69.202232 2.531677
vt 0.090446 0.229882
vt 0.090181 0.229718
vt 0.090192 0.230027
vt 0.090413 0.229873
vt 0.090193 0.229996
vt 0.090210 0.229473
vt 0.090239 0.229469
vt 0.090189 0.229524
vt 0.090172 0.229473
vt 0.090138 0.229470
vt 0.090219 0.229309
vt 0.090253 0.229315
vt 0.090260 0.229048
vt 0.035922 0.302853
vt 0.035947 0.302853
vt 0.035946 0.301900
vt 0.035919 0.301900
vt 0.035961 0.302867
vt 0.035962 0.301909
vt 0.035948 0.302876
vt 0.035948 0.301915
vt 0.035925 0.302877
vt 0.035922 0.301915
vt 0.035911 0.302868
vt 0.035906 0.301910
vt 0.090219 0.229046
vt 0.090216 0.229320
vt 0.090219 0.229050
vt 0.090167 0.229320
vt 0.090165 0.229050
vt 0.090124 0.229316
vt 0.090117 0.229049
vt 0.090149 0.229310
vt 0.090149 0.229046
vt 0.090239 0.229029
vt 0.090210 0.229027
vt 0.090215 0.229031
vt 0.090168 0.229031
vt 0.090138 0.229030
vt 0.090160 0.229027
vt 0.089967 0.229879
vt 0.089928 0.229890
vt 0.089928 0.229355
vt 0.089958 0.229361
vt 0.090181 0.229343
vt 0.090447 0.229352
vt 0.090425 0.229357
vt 0.090188 0.229726
vt 0.089187 0.229681
vt 0.089186 0.229820
vt 0.090149 0.229837
vt 0.090157 0.229697
vt 0.089179 0.229931
vt 0.090156 0.229949
vt 0.089176 0.229882
vt 0.090168 0.229900
vt 0.089178 0.229750
vt 0.090176 0.229767
vt 0.089183 0.229648
vt 0.090173 0.229664
vt 0.089182 0.229785
vt 0.090163 0.229802
vn 0.000000 0.000000 -1.000000
vn 0.000000 0.000000 -1.000000
vn 0.000000 0.000000 -1.000000
vn 0.000000 0.000000 -1.000000
vn -0.905131 -0.000000 -0.425133
vn -0.905131 -0.000000 -0.425133
vn -0.905131 -0.000000 -0.425133
vn -0.905131 -0.000000 -0.425133
vn -0.780749 0.000000 0.624845
vn -0.780749 0.000000 0.624845
vn -0.780749 0.000000 0.624845
vn -0.780749 0.000000 0.624845
vn -0.000000 0.000000 1.000000
vn -0.000000 0.000000 1.000000
vn -0.000000 0.000000 1.000000
vn -0.000000 0.000000 1.000000
vn 0.780749 0.000000 0.624845
vn 0.780749 0.000000 0.624845
vn 0.780749 0.000000 0.624845
vn 0.780749 0.000000 0.624845
vn 0.905131 0.000000 -0.425133
vn 0.905131 0.000000 -0.425133
vn 0.905131 0.000000 -0.425133
vn 0.905131 0.000000 -0.425133
vn -0.067750 -0.433088 -0.898802
vn 0.000000 -0.434086 -0.900872
vn 0.000000 -0.434086 -0.900872
vn -0.362851 -0.499815 0.786463
vn -0.362851 -0.499815 0.786463
vn -0.362851 -0.499815 0.786463
vn -0.362851 -0.499815 0.786463
vn -0.563474 -0.520975 0.641157
vn -0.563474 -0.520975 0.641157
vn -0.563474 -0.520975 0.641157
vn -0.000000 -0.452222 0.891906
vn -0.000000 -0.452222 0.891906
vn -0.000000 -0.452222 0.891906
vn 0.563471 -0.520972 0.641162
vn 0.563471 -0.520972 0.641162
vn 0.563471 -0.520972 0.641162
vn -0.885688 -0.038786 -0.462657
vn -0.885688 -0.038786 -0.462657
vn -0.885688 -0.038786 -0.462657
vn -0.885688 -0.038786 -0.462657
vn -0.690749 -0.073075 0.719393
vn -0.690749 -0.073075 0.719393
vn -0.690749 -0.073075 0.719393
vn -0.690749 -0.073075 0.719393
vn 0.000000 -0.087108 0.996199
vn 0.000000 -0.087108 0.996199
vn 0.000000 -0.087108 0.996199
vn 0.000000 -0.087108 0.996199
vn 0.690748 -0.073075 0.719394
vn 0.690748 -0.073075 0.719394
vn 0.690748 -0.073075 0.719394
vn 0.690748 -0.073075 0.719394
vn 0.885689 -0.038786 -0.462656
vn 0.885689 -0.038786 -0.462656
vn 0.885689 -0.038786 -0.462656
vn 0.885689 -0.038786 -0.462656
vn 0.000000 -0.000000 -1.000000
vn 0.000000 -0.000000 -1.000000
vn 0.000000 -0.000000 -1.000000
vn 0.000000 -0.000000 -1.000000
vn -0.661025 0.664504 -0.348541
vn -0.661025 0.664504 -0.348541
vn -0.661025 0.664504 -0.348541
vn -0.661025 0.664504 -0.348541
vn -0.640147 0.494441 0.587996
vn -0.640147 0.494441 0.587996
vn -0.640147 0.494441 0.587996
vn -0.640147 0.494441 0.587996
vn 0.000000 0.379080 0.925364
vn 0.000000 0.379079 0.925364
vn 0.000000 0.379080 0.925364
vn 0.000000 0.379079 0.925364
vn 0.640149 0.494443 0.587993
vn 0.640149 0.494443 0.587993
vn 0.640149 0.494443 0.587993
vn 0.640149 0.494443 0.587993
vn 0.661025 0.664504 -0.348542
vn 0.661024 0.664504 -0.348542
vn 0.661025 0.664504 -0.348542
vn 0.661025 0.664504 -0.348542
vn 0.000000 0.483600 -0.875289
vn 0.000000 0.483600 -0.875289
vn 0.000000 0.483600 -0.875289
vn 0.000000 0.483600 -0.875289
vn -0.000000 -0.061161 0.998128
vn -0.000000 -0.061161 0.998128
vn -0.000000 -0.061161 0.998128
vn -0.000000 -0.061161 0.998128
vn 0.669850 -0.063638 0.739764
vn 0.669850 -0.063638 0.739764
vn 0.669850 -0.063638 0.739764
vn 0.669850 -0.063638 0.739764
vn 0.775543 -0.014378 0.631131
vn 0.775543 -0.014378 0.631131
vn 0.775543 -0.014378 0.631131
vn 0.775543 -0.014378 0.631131
vn 0.000000 0.002857 -0.999996
vn 0.000000 0.002857 -0.999996
vn -0.330027 0.002697 -0.943967
vn -0.330027 0.002697 -0.943968
vn -0.775544 -0.014378 0.631130
vn -0.775544 -0.014378 0.631130
vn -0.775544 -0.014378 0.631130
vn -0.775544 -0.014378 0.631130
vn -0.669851 -0.063638 0.739764
vn -0.669851 -0.063638 0.739764
vn -0.669851 -0.063638 0.739764
vn -0.669851 -0.063638 0.739764
vn 0.107632 0.020659 0.993976
vn 0.107632 0.020659 0.993976
vn 0.045549 0.133342 0.990023
vn 0.079827 0.071571 0.994236
vn -0.107633 0.020659 0.993976
vn -0.107633 0.020659 0.993976
vn -0.079827 0.071571 0.994236
vn -0.045549 0.133342 0.990023
vn 0.191131 0.981565 -0.000298
vn 0.191131 0.981565 -0.000298
vn 0.191131 0.981565 -0.000298
vn 0.191131 0.981565 -0.000298
vn -0.228791 -0.010126 0.973423
vn -0.228792 -0.010126 0.973423
vn -0.228791 -0.010126 0.973423
vn -0.228792 -0.010126 0.973423
vn -0.261350 0.457256 -0.850067
vn 0.261351 0.457260 -0.850064
vn 0.000000 0.490607 -0.871381
vn 0.228792 -0.010126 0.973423
vn 0.228792 -0.010126 0.973423
vn 0.228792 -0.010126 0.973423
vn 0.228792 -0.010126 0.973423
vn -0.191131 0.981565 -0.000293
vn -0.191131 0.981565 -0.000293
vn -0.191131 0.981565 -0.000293
vn -0.191131 0.981565 -0.000293
vn 0.362850 -0.499813 0.786465
vn 0.362850 -0.499813 0.786465
vn 0.362850 -0.499813 0.786465
vn 0.362850 -0.499813 0.786465
vn 0.000000 0.490607 -0.871381
vn 0.261351 0.457260 -0.850064
vn 0.293465 0.430168 -0.853718
vn -0.261350 0.457256 -0.850067
vn 0.000000 0.490607 -0.871381
vn -0.293463 0.430164 -0.853721
vn 0.330028 0.002697 -0.943967
vn 0.000000 0.002857 -0.999996
vn 0.000000 0.002857 -0.999996
vn 0.330027 0.002697 -0.943967
vn 0.000000 -0.434086 -0.900872
vn 0.000000 -0.434086 -0.900872
vn 0.067750 -0.433088 -0.898802
vn 0.079827 0.071571 0.994236
vn 0.045549 0.133342 0.990023
vn 0.000589 0.212745 0.977108
vn -0.045549 0.133342 0.990023
vn -0.079827 0.071571 0.994236
vn -0.000589 0.212744 0.977108
vn -0.000000 0.000000 -1.000000
vn -0.000000 0.000000 -1.000000
vn -0.000000 0.000000 -1.000000
vn -0.000000 0.000000 -1.000000
vn 0.000000 -0.905131 -0.425134
vn 0.000000 -0.905131 -0.425134
vn 0.000000 -0.905131 -0.425134
vn 0.000000 -0.905131 -0.425134
vn -0.000000 -0.780749 0.624845
vn -0.000000 -0.780749 0.624845
vn -0.000000 -0.780749 0.624845
vn -0.000000 -0.780749 0.624845
vn -0.000000 -0.000000 1.000000
vn -0.000000 -0.000000 1.000000
vn -0.000000 -0.000000 1.000000
vn -0.000000 -0.000000 1.000000
vn -0.000000 0.780749 0.624845
vn -0.000000 0.780749 0.624845
vn -0.000000 0.780749 0.624845
vn -0.000000 0.780749 0.624845
vn -0.000000 0.905131 -0.425133
vn -0.000000 0.905131 -0.425133
vn -0.000000 0.905131 -0.425133
vn -0.000000 0.905131 -0.425133
vn 0.965428 0.000000 -0.260669
vn 0.965428 0.000000 -0.260669
vn 0.965428 0.000000 -0.260669
vn 0.958676 0.257505 -0.120963
vn 0.958676 0.257505 -0.120963
vn 0.958676 0.257505 -0.120963
vn 0.959841 0.219034 0.175300
vn 0.959841 0.219034 0.175300
vn 0.959841 0.219034 0.175300
vn 0.954069 0.000000 0.299586
vn 0.954069 0.000000 0.299586
vn 0.954069 0.000000 0.299586
vn 0.959841 -0.219033 0.175300
vn 0.959841 -0.219033 0.175300
vn 0.959841 -0.219033 0.175300
vn 0.958678 -0.257502 -0.120952
vn 0.958678 -0.257502 -0.120952
vn 0.958678 -0.257502 -0.120952
vn -0.965440 0.000000 -0.260626
vn -0.965440 0.000000 -0.260626
vn -0.965440 0.000000 -0.260626
vn -0.958692 -0.257458 -0.120931
vn -0.958692 -0.257459 -0.120931
vn -0.958692 -0.257458 -0.120931
vn -0.959855 -0.218996 0.175271
vn -0.959855 -0.218996 0.175271
vn -0.959855 -0.218996 0.175271
vn -0.954085 0.000000 0.299537
vn -0.954085 0.000000 0.299537
vn -0.954085 0.000000 0.299537
vn -0.959854 0.218998 0.175270
vn -0.959854 0.218998 0.175270
vn -0.959854 0.218998 0.175270
vn -0.958690 0.257461 -0.120941
vn -0.958690 0.257461 -0.120941
vn -0.958690 0.257461 -0.120941
s off
f 6/14/1 1/15/2 37/16/3 38/17/4
f 1/15/5 2/18/6 36/19/7 37/16/8
f 2/18/9 3/20/10 35/21/11 36/19/12
f 3/20/13 4/22/14 34/23/15 35/21/16
f 4/22/17 5/24/18 33/25/19 34/23/20
f 5/24/21 6/14/22 38/17/23 33/25/24
f 25/1/25 41/2/26 26/3/27
f 27/4/28 25/1/29 26/3/30 39/5/31
f 9/6/32 8/7/33 7/8/34
f 10/9/35 9/6/36 7/8/37
f 11/10/38 10/9/39 7/8/40
f 22/11/41 23/12/42 12/13/43 13/26/44
f 23/12/45 18/27/46 14/28/47 12/13/48
f 18/27/49 19/29/50 15/30/51 14/28/52
f 19/29/53 20/31/54 16/32/55 15/30/56
f 20/31/57 21/33/58 17/34/59 16/32/60
f 21/33/61 22/11/62 13/26/63 17/34/64
f 2/35/65 1/36/66 13/26/67 12/13/68
f 3/37/69 2/35/70 12/13/71 14/28/72
f 4/38/73 3/37/74 14/28/75 15/30/76
f 5/39/77 4/38/78 15/30/79 16/32/80
f 6/40/81 5/39/82 16/32/83 17/34/84
f 1/36/85 6/40/86 17/34/87 13/26/88
f 9/6/89 10/9/90 19/29/91 18/27/92
f 10/9/93 11/10/94 20/31/95 19/29/96
f 28/41/97 24/42/98 29/43/99 30/44/100
f 40/45/101 41/2/102 25/1/103 31/46/104
f 25/1/105 27/4/106 32/47/107 31/46/108
f 8/7/109 9/6/110 18/27/111 23/12/112
f 7/8/113 8/7/114 27/4/115 42/48/116
f 11/10/117 7/8/118 42/48/119 28/41/120
f 21/33/121 20/31/122 30/44/123 29/43/124
f 20/31/125 11/10/126 28/41/127 30/44/128
f 22/11/129 21/33/130 40/45/131
f 8/7/132 23/12/133 32/47/134 27/4/135
f 23/12/136 22/11/137 31/46/138 32/47/139
f 28/41/140 39/5/141 26/3/142 24/42/143
f 40/45/144 21/33/145 29/43/146
f 22/11/147 40/45/148 31/46/149
f 24/42/150 41/2/151 40/45/152 29/43/153
f 26/3/154 41/2/155 24/42/156
f 42/48/157 27/4/158 39/5/159
f 28/41/160 42/48/161 39/5/162
f 48/49/163 43/50/164 53/51/165 54/52/166
f 43/50/167 44/53/168 52/54/169 53/51/170
f 44/53/171 45/55/172 51/56/173 52/54/174
f 45/55/175 46/57/176 50/58/177 51/56/178
f 46/57/179 47/59/180 49/60/181 50/58/182
f 47/59/183 48/49/184 54/52/185 49/60/186
f 43/50/187 48/49/188 55/61/189
f 48/49/190 47/59/191 55/61/192
f 47/59/193 46/57/194 55/61/195
f 46/57/196 45/55/197 55/61/198
f 45/55/199 44/53/200 55/61/201
f 44/53/202 43/50/203 55/61/204
f 54/52/205 53/51/206 56/62/207
f 53/51/208 52/54/209 56/62/210
f 52/54/211 51/56/212 56/62/213
f 51/56/214 50/58/215 56/62/216
f 50/58/217 49/60/218 56/62/219
f 49/60/220 54/52/221 56/62/222
