# This file uses centimeters as units for non-parametric coordinates.

v -32.894917 0.000000 29.052525
v 31.614882 0.000000 33.677673
v -32.894917 64.509796 33.677673
v 31.525915 63.013279 33.588703
v -32.744118 61.973160 -30.681322
v 31.614882 64.509796 -30.832123
v -32.894917 0.000000 -30.832123
v 31.614882 0.000000 -26.807316
v -0.638983 64.509796 32.740738
v -0.638983 64.509796 -29.895184
v 0.665348 66.585480 -29.895185
v 0.665363 66.585480 32.740738
v -1.943323 66.585480 32.740738
v -1.943330 66.585480 -29.895184
v -32.894917 59.553444 33.677673
v 31.320232 59.553444 33.383026
v 31.614882 59.553452 -30.832123
v -32.600269 59.553452 -30.537474
v -32.894917 53.112679 33.677673
v 31.614882 53.112679 33.677673
v 31.614882 53.112671 -30.832123
v -32.894917 53.112671 -30.832123
v -32.894917 0.000000 -11.479183
v -32.894917 0.000000 14.324734
v -32.894917 9.044459 -11.479183
v -32.894917 9.044472 14.324734
v 31.614882 0.000000 -11.479183
v 31.614882 0.000000 14.324734
v 31.614882 9.044472 14.324734
v 31.614882 9.044459 -11.479183
v 2.190903 5.425040 33.677673
v 27.635605 5.425040 33.677673
v 27.635605 23.750340 33.677673
v 2.190903 23.750340 33.677673
v -3.210522 35.173264 -30.832123
v -21.463106 32.967281 -30.832123
v -1.394292 20.145388 -30.832123
v -19.646866 17.939415 -30.832123
v 31.605959 49.339653 21.672796
v 31.605959 42.377151 21.672794
v 31.605959 42.377151 7.672790
v 31.605959 49.339649 7.672786
v -26.199362 0.000000 33.677673
v -32.894917 4.617745 33.677673
v 26.562433 0.000000 -30.832123
v 31.614882 3.942647 -30.832123
v -30.204580 64.572449 -30.778437
v -32.894917 64.509796 -21.128128
v 28.391979 64.588585 33.612480
v 31.614882 64.509796 22.315044
vt 0.039022 0.302025
vt 0.038463 0.311043
vt 0.038425 0.315180
vt 0.039082 0.329159
vt 0.038121 0.329132
vt 0.038682 0.316728
vt 0.038170 0.301798
vt 0.038652 0.310573
vt 0.038734 0.304455
vt 0.038421 0.304356
vt 0.038415 0.329108
vt 0.038727 0.329207
vt 0.038741 0.329205
vt 0.038427 0.329107
vt 0.039078 0.329210
vt 0.038428 0.329326
vt 0.038124 0.329177
vt 0.038680 0.329110
vt 0.039056 0.335869
vt 0.038446 0.329711
vt 0.038143 0.329467
vt 0.038665 0.329362
vt 0.079786 0.284634
vt 0.080268 0.278223
vt 0.080268 0.278167
vt 0.079783 0.278226
vt 0.080779 0.278295
vt 0.080783 0.278226
vt 0.080307 0.278323
vt 0.080306 0.278414
vt 0.038767 0.310642
vt 0.038921 0.310735
vt 0.038769 0.329629
vt 0.038923 0.329718
vt 0.038251 0.310811
vt 0.038373 0.310944
vt 0.038370 0.329921
vt 0.038249 0.329793
vt 0.081283 0.259055
vt 0.080762 0.259527
vt 0.080283 0.259471
vt 0.080704 0.258967
vt 0.081279 0.277997
vt 0.080705 0.277908
vt 0.080285 0.278424
vt 0.080762 0.278482
vt 0.039036 0.329820
vt 0.038463 0.330059
vt 0.038446 0.329711
vt 0.039056 0.329531
vt 0.294164 0.251232
vt 0.317167 0.251232
vt 0.317167 0.270343
vt 0.294164 0.270343
vt 0.038665 0.329362
vt 0.038143 0.329467
vt 0.038160 0.329728
vt 0.038652 0.329589
vt 0.340842 0.270267
vt 0.318625 0.270267
vt 0.318625 0.259082
vt 0.340842 0.259082
vt 0.038446 0.329711
vt 0.038370 0.329921
vt 0.038249 0.329793
vt 0.038143 0.329467
vt 0.294318 0.279723
vt 0.294318 0.269182
vt 0.317306 0.269182
vt 0.317306 0.279723
vt 0.039006 0.303631
vt 0.039038 0.303338
vt 0.038180 0.302380
vt 0.038159 0.302883
vt 0.038660 0.312979
vt 0.038742 0.314980
vt 0.038456 0.313295
vt 0.038371 0.315565
vn 0.002451 -0.022745 0.999738
vn 0.002451 -0.022745 0.999738
vn 0.002451 -0.022745 0.999738
vn 0.002451 -0.022745 0.999738
vn 0.002451 -0.022745 0.999738
vn -0.067174 0.997741 -0.000930
vn -0.067174 0.997741 -0.000930
vn -0.067174 0.997741 -0.000930
vn -0.067174 0.997741 -0.000930
vn -0.067174 0.997741 -0.000930
vn 0.000000 -1.000000 0.000000
vn 0.000000 -1.000000 0.000000
vn 0.000000 -1.000000 0.000000
vn 0.000000 -1.000000 0.000000
vn 0.999578 -0.028968 0.002351
vn 0.999578 -0.028968 0.002351
vn 0.999578 -0.028968 0.002351
vn 0.999578 -0.028968 0.002351
vn 0.999578 -0.028968 0.002351
vn -0.999588 -0.028590 -0.002380
vn -0.999588 -0.028590 -0.002380
vn -0.999588 -0.028590 -0.002380
vn -0.999588 -0.028590 -0.002380
vn -0.999588 -0.028590 -0.002380
vn -0.001333 0.998945 -0.045912
vn -0.001333 0.998945 -0.045912
vn -0.001333 0.998945 -0.045912
vn 0.067281 0.997733 0.001088
vn 0.067281 0.997733 0.001088
vn 0.067281 0.997734 0.001088
vn 0.067281 0.997734 0.001088
vn 0.067281 0.997734 0.001088
vn -0.846706 0.532061 0.000000
vn -0.846706 0.532061 0.000000
vn -0.846706 0.532061 0.000000
vn -0.846706 0.532061 0.000000
vn -0.030060 0.018890 0.999370
vn -0.030060 0.018890 0.999370
vn -0.030060 0.018890 0.999370
vn -0.029032 0.018242 -0.999412
vn -0.029032 0.018242 -0.999412
vn -0.029032 0.018242 -0.999412
vn 0.029030 0.018242 0.999412
vn 0.029030 0.018242 0.999412
vn 0.029030 0.018242 0.999412
vn 0.846705 0.532063 -0.000000
vn 0.846705 0.532063 -0.000000
vn 0.846705 0.532063 -0.000000
vn 0.846705 0.532063 -0.000000
vn 0.029896 0.018786 -0.999376
vn 0.029896 0.018786 -0.999377
vn 0.029896 0.018786 -0.999376
vn 0.002288 0.022920 0.999735
vn 0.002288 0.022920 0.999735
vn 0.002288 0.022920 0.999735
vn 0.002288 0.022920 0.999735
vn 0.999735 0.022920 0.002288
vn 0.999735 0.022920 0.002288
vn 0.999735 0.022920 0.002288
vn 0.999735 0.022920 0.002288
vn -0.002288 0.022920 -0.999735
vn -0.002288 0.022920 -0.999735
vn -0.002288 0.022920 -0.999735
vn -0.002288 0.022920 -0.999735
vn -0.999735 0.022920 -0.002288
vn -0.999735 0.022920 -0.002288
vn -0.999735 0.022920 -0.002288
vn -0.999735 0.022920 -0.002288
vn 1.000000 0.000000 0.000000
vn 1.000000 0.000000 0.000000
vn 1.000000 0.000000 0.000000
vn 1.000000 0.000000 0.000000
vn -1.000000 0.000000 0.000000
vn -1.000000 0.000000 0.000000
vn -1.000000 0.000000 0.000000
vn -1.000000 0.000000 0.000000
vn 0.000000 0.000000 1.000000
vn 0.000000 0.000000 1.000000
vn 0.000000 0.000000 1.000000
vn 0.000000 0.000000 1.000000
vn 1.000000 0.000000 0.000000
vn 1.000000 0.000000 0.000000
vn 1.000000 0.000000 0.000000
vn 1.000000 0.000000 0.000000
vn 0.000000 0.000000 -1.000000
vn 0.000000 0.000000 -1.000000
vn 0.000000 0.000000 -1.000000
vn 0.000000 0.000000 -1.000000
vn -1.000000 0.000000 0.000000
vn -1.000000 0.000000 0.000000
vn -1.000000 0.000000 0.000000
vn -1.000000 0.000000 0.000000
vn -1.000000 0.000000 0.000000
vn -1.000000 0.000000 0.000000
vn -1.000000 0.000000 0.000000
vn -1.000000 0.000000 0.000000
vn -1.000000 0.000000 0.000000
vn -1.000000 0.000000 0.000000
vn -1.000000 0.000000 0.000000
vn -1.000000 0.000000 0.000000
vn -1.000000 0.000000 0.000000
vn 1.000000 0.000000 0.000000
vn 1.000000 0.000000 0.000000
vn 1.000000 0.000000 0.000000
vn 1.000000 0.000000 0.000000
vn 1.000000 0.000000 0.000000
vn 1.000000 0.000000 0.000000
vn 1.000000 0.000000 0.000000
vn 1.000000 0.000000 0.000000
vn 1.000000 0.000000 0.000000
vn 0.000000 -1.000000 0.000000
vn 0.000000 -1.000000 0.000000
vn 0.000000 -1.000000 0.000000
vn 0.000000 -1.000000 0.000000
vn 0.000000 -1.000000 0.000000
vn 0.000000 -1.000000 0.000000
vn 0.000000 -1.000000 0.000000
vn 0.000000 -1.000000 0.000000
vn 0.000000 -1.000000 0.000000
vn 0.000000 -1.000000 0.000000
vn -0.000000 0.000000 1.000000
vn -0.000000 0.000000 1.000000
vn -0.000000 0.000000 1.000000
vn -0.000000 0.000000 1.000000
vn 0.000000 0.000000 1.000000
vn 0.000000 0.000000 1.000000
vn 0.000000 0.000000 1.000000
vn 0.000000 0.000000 1.000000
vn 0.000000 0.000000 1.000000
vn 0.000000 0.000000 1.000000
vn 0.000000 0.000000 1.000000
vn 0.000000 0.000000 1.000000
vn 0.000000 0.000000 1.000000
vn 0.000000 0.000000 -1.000000
vn 0.000000 0.000000 -1.000000
vn 0.000000 0.000000 -1.000000
vn 0.000000 0.000000 -1.000000
vn -0.000000 0.000000 -1.000000
vn -0.000000 0.000000 -1.000000
vn -0.000000 0.000000 -1.000000
vn -0.000000 0.000000 -1.000000
vn -0.000000 0.000000 -1.000000
vn 0.000000 0.000000 -1.000000
vn 0.000000 0.000000 -1.000000
vn 0.000000 0.000000 -1.000000
vn 0.000000 0.000000 -1.000000
vn 0.999999 0.000537 -0.001224
vn 0.999999 0.000537 -0.001224
vn 0.999999 0.000537 -0.001224
vn 1.000000 0.000268 -0.000000
vn 1.000000 0.000268 -0.000000
vn 1.000000 0.000268 -0.000000
vn 1.000000 0.000268 -0.000000
vn 1.000000 0.000098 0.000259
vn 1.000000 0.000098 0.000259
vn 1.000000 0.000098 0.000259
vn 1.000000 0.000098 0.000259
vn 0.999997 -0.002365 0.000000
vn 0.999997 -0.002365 0.000000
vn 0.999997 -0.002365 0.000000
vn 0.999997 -0.002365 0.000000
vn 1.000000 0.000000 -0.000743
vn 1.000000 0.000000 -0.000743
vn 1.000000 0.000000 -0.000743
vn 0.000000 0.000000 1.000000
vn 0.000000 0.000000 1.000000
vn 0.000000 0.000000 1.000000
vn 0.000000 0.000000 1.000000
vn -0.438611 -0.635970 0.634951
vn -0.438611 -0.635970 0.634951
vn -0.438611 -0.635970 0.634951
vn 0.486905 -0.623962 -0.611225
vn 0.486905 -0.623962 -0.611225
vn 0.486905 -0.623962 -0.611225
vn 0.000000 0.000000 -1.000000
vn 0.000000 0.000000 -1.000000
vn 0.000000 0.000000 -1.000000
vn 0.000000 0.000000 -1.000000
vn -0.705518 0.682116 -0.192257
vn -0.705518 0.682116 -0.192257
vn -0.705518 0.682116 -0.192257
vn -0.002528 -0.023838 -0.999713
vn -0.002528 -0.023838 -0.999713
vn -0.002528 -0.023838 -0.999713
vn -0.002528 -0.023838 -0.999713
vn -0.002528 -0.023838 -0.999713
vn 0.001044 0.999354 0.035936
vn 0.001044 0.999354 0.035936
vn 0.001044 0.999354 0.035936
vn 0.446537 0.886518 0.121204
vn 0.446537 0.886518 0.121204
vn 0.446537 0.886518 0.121204
s off
f 15/15/1 16/16/2 4/3/3 49/77/4 3/4/5
f 3/4/6 13/13/7 14/14/8 47/75/9 48/76/10
f 23/39/11 27/40/12 28/41/13 24/42/14
f 16/16/15 17/17/16 6/5/17 50/78/18 4/3/19
f 18/18/20 15/15/21 3/4/22 48/76/23 5/6/24
f 3/4/25 49/77/26 9/9/27
f 11/11/28 12/12/29 49/77/30 50/78/31 6/5/32
f 10/10/33 9/9/34 12/12/35 11/11/36
f 9/9/37 49/77/38 12/12/39
f 6/5/40 10/10/41 11/11/42
f 3/4/43 9/9/44 13/13/45
f 9/9/46 10/10/47 14/14/48 13/13/49
f 10/10/50 47/75/51 14/14/52
f 19/23/53 20/24/54 16/25/55 15/26/56
f 20/24/57 21/27/58 17/28/59 16/25/60
f 18/29/61 17/28/62 21/27/63 22/30/64
f 22/30/65 19/23/66 15/26/67 18/29/68
f 39/67/69 40/68/70 41/69/71 42/70/72
f 22/22/73 25/33/74 26/34/75 19/19/76
f 31/51/77 32/52/78 33/53/79 34/54/80
f 2/2/81 28/36/82 29/37/83 20/20/84
f 36/59/85 35/60/86 37/61/87 38/62/88
f 7/8/89 23/31/90 25/33/91 22/22/92
f 26/34/93 24/32/94 1/1/95 44/72/96 19/19/97
f 25/43/98 23/39/99 24/42/100 26/44/101
f 30/38/102 27/35/103 8/7/104 46/74/105 21/21/106
f 29/45/107 28/41/108 27/40/109 30/46/110
f 24/32/111 28/36/112 2/2/113 43/71/114 1/1/115
f 7/8/116 45/73/117 8/7/118 27/35/119 23/31/120
f 2/2/121 20/20/122 33/49/123 32/48/124
f 20/20/125 19/19/126 34/50/127 33/49/128
f 19/19/129 44/72/130 43/71/131 31/47/132 34/50/133
f 22/22/134 21/21/135 35/56/136 36/55/137
f 21/21/138 46/74/139 45/73/140 37/57/141 35/56/142
f 7/8/143 22/22/144 36/55/145 38/58/146
f 20/20/147 29/37/148 40/64/149
f 29/37/150 30/38/151 41/65/152 40/64/153
f 30/38/154 21/21/155 42/66/156 41/65/157
f 21/21/158 20/20/159 39/63/160 42/66/161
f 20/20/162 40/64/163 39/63/164
f 43/71/165 2/2/166 32/48/167 31/47/168
f 43/71/169 44/72/170 1/1/171
f 45/73/172 46/74/173 8/7/174
f 45/73/175 7/8/176 38/58/177 37/57/178
f 48/76/179 47/75/180 5/6/181
f 5/6/182 47/75/183 6/5/184 17/17/185 18/18/186
f 47/75/187 10/10/188 6/5/189
f 50/78/190 49/77/191 4/3/192
