# This file uses centimeters as units for non-parametric coordinates.

v -22.033325 0.000000 10.618484
v 22.033173 0.000000 10.618484
v -24.144012 12.731511 -27.392647
v 24.143860 12.731511 -27.392647
v 23.896393 9.117506 -26.245735
v -23.896545 9.117506 -26.245735
v -22.604675 12.731518 -26.104801
v 23.896393 5.388905 6.738922
v 23.817871 3.242303 9.050949
v -23.896545 5.388905 6.738922
v -23.818024 3.242303 9.050949
v 22.096405 7.956735 -15.977097
v -22.096558 7.956735 -15.977097
v -22.096558 8.891653 -24.247757
v 22.096405 8.891653 -24.247757
v -15.466064 8.891653 -24.247757
v 15.465912 8.891653 -24.247757
v 15.465912 7.956735 -15.977097
v -15.466064 7.956735 -15.977097
v -17.192505 0.000000 -24.247757
v -17.192505 0.000000 -20.228027
v -22.096558 0.000000 -20.228027
v -22.096558 0.000000 -24.247757
v 22.096405 0.000000 -20.228027
v 17.192352 0.000000 -20.228027
v 17.192352 0.000000 -24.247757
v 22.096405 0.000000 -24.247757
v -22.033325 0.000000 22.350853
v -19.984497 0.000000 24.314247
v -21.995544 12.731511 27.392647
v -24.117310 12.731511 25.087570
v 22.033173 0.000000 22.350853
v 19.984344 0.000000 24.314247
v 21.995422 12.731511 27.392647
v 24.117188 12.731511 25.087570
v 20.707245 12.731511 25.928406
v 22.604523 12.731511 24.251007
v -20.707397 12.731511 25.928406
v -22.604675 12.731511 24.251022
v -23.737152 1.382075 23.276390
v -21.544189 1.380631 25.521400
v 21.544037 1.380631 25.521400
v 23.737030 1.382075 23.276390
v 23.741943 1.379096 9.402962
v -23.742096 1.379096 9.402962
v 20.380585 7.870794 25.105125
v 22.376740 7.045514 23.003738
v 22.432434 7.858727 17.067818
v 22.447021 7.728951 12.224625
v 22.538300 10.628680 2.632835
v 22.544495 11.223996 -19.984802
v -20.325989 7.056352 24.967178
v -22.324341 5.734572 22.716179
v -22.387390 6.857015 15.591156
v -22.395111 6.892881 10.214668
v -21.368378 12.731518 -26.104805
v -20.833374 12.731511 -27.392647
v 22.695740 12.731511 -27.392647
v 9.969879 9.307448 25.348457
v -4.392792 6.406375 24.857094
v -22.501953 9.869748 -8.108795
v -20.726715 11.109102 -26.877769
v -13.532257 9.117506 -26.245735
v -1.645020 9.117506 -26.245735
v 13.219757 10.937674 -26.823368
v 21.560242 11.234657 -26.917618
v 22.604523 12.731520 -26.104797
v 21.793640 9.762945 -25.298744
v 22.438049 10.317883 -24.820946
v 21.551819 1.500000 10.906654
v 22.193512 2.108718 11.380280
v 21.552460 1.500000 21.540810
v 22.178925 2.098569 21.814400
v -21.549011 1.500000 10.906654
v -22.184814 2.098556 11.371964
v -22.177704 2.074723 21.913353
v -21.545715 1.500000 21.537979
v 21.785187 5.993032 8.051392
v 22.410492 6.568372 8.347229
v 21.662598 3.356573 10.430984
v 22.283417 3.651632 10.981735
v -21.793182 9.762945 -25.298744
v -22.435760 10.305651 -24.831528
v -21.757172 5.993032 8.051392
v -22.383545 6.570384 8.348297
v -21.647675 3.356572 10.430984
v -22.268646 3.654810 10.987572
v 19.713898 1.500000 23.456879
v 19.991425 2.061419 24.119881
v -19.714325 1.500000 23.457527
v -19.990265 2.060941 24.121086
v -22.510681 11.410093 -25.746002
vt 0.132678 0.227251
vt 0.132442 0.226885
vt 0.133027 0.226629
vt 0.133288 0.226972
vt 0.132451 0.226875
vt 0.132769 0.227209
vt 0.132678 0.227251
vt 0.132941 0.226666
vt 0.133288 0.226972
vt 0.133197 0.227014
vt 0.132537 0.226838
vt 0.132769 0.227209
vt 0.132537 0.226838
vt 0.132451 0.226875
vt 0.132678 0.227251
vt 0.133027 0.226629
vt 0.132941 0.226666
vt 0.133197 0.227014
vt 0.133288 0.226972
vt 0.132370 0.226702
vt 0.132907 0.226510
vt 0.132356 0.226581
vt 0.132894 0.226389
vt 0.133027 0.226629
vt 0.132866 0.226497
vt 0.132854 0.226361
vt 0.133000 0.226647
vt 0.133007 0.226623
vt 0.132358 0.226737
vt 0.132848 0.226382
vt 0.132331 0.226573
vt 0.132896 0.226382
vt 0.132682 0.227251
vt 0.132451 0.226875
vt 0.132321 0.226615
vt 0.132439 0.226865
vt 0.132354 0.226723
vt 0.132365 0.226687
vt 0.132865 0.226481
vt 0.132906 0.226494
vt 0.133003 0.226637
vt 0.132441 0.226876
vt 0.132852 0.226434
vt 0.132896 0.226453
vt 0.132938 0.226503
vt 0.132972 0.226553
vt 0.133052 0.226643
vt 0.132376 0.226638
vt 0.132365 0.226686
vt 0.132407 0.226752
vt 0.132444 0.226809
vt 0.132710 0.227210
vt 0.132724 0.227231
vt 0.132727 0.226469
vt 0.132564 0.226568
vt 0.132722 0.227231
vt 0.132809 0.227191
vt 0.132962 0.227121
vt 0.133157 0.227033
vt 0.133266 0.226983
vt 0.037210 0.377108
vt 0.037179 0.377130
vt 0.037013 0.377162
vt 0.036270 0.377287
vt 0.036712 0.377236
vt 0.036450 0.377281
vt 0.133286 0.226974
vt 0.133276 0.226953
vt 0.133304 0.226966
vt 0.036263 0.377267
vt 0.133224 0.226893
vt 0.132693 0.227217
vt 0.132335 0.226616
vt 0.132570 0.227015
vt 0.132694 0.227217
vt 0.037193 0.377091
vt 0.036227 0.377271
vt 0.036806 0.376827
vt 0.036232 0.376913
vt 0.036889 0.376909
vt 0.036894 0.376889
vt 0.036238 0.376998
vt 0.036227 0.376962
vt 0.037161 0.377134
vt 0.036911 0.376871
vt 0.036233 0.376977
vt 0.036847 0.376757
vt 0.036901 0.376880
vt 0.036901 0.376817
vt 0.036876 0.376783
vt 0.037172 0.377117
vt 0.036838 0.376836
vt 0.036257 0.376896
vt 0.036252 0.376884
vt 0.036472 0.376797
vt 0.036237 0.376814
vt 0.036221 0.376904
vt 0.036222 0.376970
vt 0.036210 0.376851
vt 0.036211 0.376889
vt 0.036215 0.376953
vt 0.036229 0.377278
vt 0.036213 0.376932
vt 0.036248 0.377249
vt 0.036245 0.377290
vt 0.036920 0.376860
vt 0.037131 0.377046
vt 0.036961 0.376846
vt 0.036846 0.376826
vt 0.036896 0.376897
vt 0.036215 0.377065
vt 0.036807 0.376815
vt 0.036671 0.376733
vt 0.036811 0.376737
vt 0.036227 0.376987
vn 0.000005 0.262037 0.965058
vn 0.000005 0.262037 0.965058
vn 0.000005 0.262037 0.965058
vn 0.000001 -0.302486 -0.953154
vn 0.000001 -0.302486 -0.953154
vn 0.000001 -0.302486 -0.953154
vn 0.000001 -0.302486 -0.953154
vn 0.000000 -1.000000 0.000000
vn 0.000000 -1.000000 0.000000
vn 0.000000 -1.000000 0.000000
vn 0.000000 -1.000000 0.000000
vn 0.000000 -0.185644 -0.982617
vn 0.000000 -0.185644 -0.982617
vn 0.000000 -0.185644 -0.982617
vn 0.000000 -0.185644 -0.982617
vn 0.000000 -1.000000 0.000000
vn 0.000000 -1.000000 0.000000
vn 0.000000 -1.000000 0.000000
vn 0.000000 -1.000000 0.000000
vn -0.000000 1.000000 -0.000005
vn -0.000000 1.000000 -0.000005
vn -0.000000 1.000000 -0.000005
vn -0.000000 1.000000 -0.000005
vn 0.000000 -0.732838 -0.680403
vn 0.000000 -0.732838 -0.680403
vn 0.000000 -0.732838 -0.680403
vn 0.000000 -0.732838 -0.680403
vn 0.000000 -0.993672 -0.112325
vn 0.000000 -0.993672 -0.112325
vn 0.000000 -0.993672 -0.112325
vn 0.000000 -0.993672 -0.112325
vn 0.000000 -0.993672 -0.112325
vn 0.000000 -0.993672 -0.112325
vn 0.000000 -0.993672 -0.112325
vn 0.000000 -0.993672 -0.112325
vn 0.000000 -0.993672 -0.112325
vn 0.000000 -0.993672 -0.112325
vn 0.000000 -0.993671 -0.112325
vn 0.000000 -0.993671 -0.112325
vn 0.000000 -0.993671 -0.112325
vn 0.000000 -0.993671 -0.112325
vn -0.000000 -0.993672 -0.112325
vn -0.000000 -0.993672 -0.112325
vn -0.000000 -0.993672 -0.112325
vn -0.000000 -0.993672 -0.112325
vn 0.000000 -1.000000 0.000000
vn 0.000000 -1.000000 0.000000
vn 0.000000 -1.000000 0.000000
vn 0.000000 -1.000000 0.000000
vn 0.000000 -0.993672 -0.112325
vn 0.000000 -0.993672 -0.112325
vn 0.000000 -0.993672 -0.112325
vn 0.000000 -0.993672 -0.112325
vn 0.980267 -0.197111 -0.014994
vn 0.980267 -0.197111 -0.014994
vn 0.980267 -0.197111 -0.014994
vn 0.980267 -0.197111 -0.014994
vn 0.000000 -0.471222 0.882015
vn 0.000000 -0.471222 0.882015
vn 0.000000 -0.471222 0.882015
vn 0.000000 -0.471222 0.882015
vn -1.000000 0.000000 0.000000
vn -1.000000 0.000000 0.000000
vn -1.000000 0.000000 0.000000
vn -1.000000 0.000000 0.000000
vn 0.000000 0.000000 -1.000000
vn 0.000000 0.000000 -1.000000
vn 0.000000 0.000000 -1.000000
vn 0.000000 0.000000 -1.000000
vn 0.000000 -0.471222 0.882015
vn 0.000000 -0.471222 0.882015
vn 0.000000 -0.471222 0.882015
vn 0.000000 -0.471222 0.882015
vn -0.980267 -0.197111 -0.014994
vn -0.980267 -0.197111 -0.014994
vn -0.980267 -0.197111 -0.014994
vn -0.980267 -0.197111 -0.014994
vn 0.000000 0.000000 -1.000000
vn 0.000000 0.000000 -1.000000
vn 0.000000 0.000000 -1.000000
vn 0.000000 0.000000 -1.000000
vn 1.000000 0.000000 0.000000
vn 1.000000 0.000000 0.000000
vn 1.000000 0.000000 0.000000
vn 1.000000 0.000000 0.000000
vn -0.718815 -0.136897 0.681590
vn -0.718815 -0.136897 0.681590
vn -0.718815 -0.136897 0.681590
vn -0.718815 -0.136897 0.681590
vn 0.000000 1.000000 0.000000
vn 0.000000 1.000000 0.000000
vn 0.000000 1.000000 0.000000
vn 0.000000 1.000000 0.000000
vn 0.718812 -0.136898 0.681592
vn 0.718812 -0.136898 0.681592
vn 0.718812 -0.136898 0.681592
vn 0.718812 -0.136898 0.681592
vn 0.000000 1.000000 0.000000
vn 0.000000 1.000000 0.000000
vn 0.000000 1.000000 0.000000
vn 0.000000 1.000000 0.000000
vn 0.668367 0.177200 -0.722417
vn 0.668367 0.177200 -0.722417
vn 0.668367 0.177200 -0.722417
vn 0.668367 0.177200 -0.722417
vn 0.000000 0.166996 -0.985958
vn 0.000000 0.166996 -0.985958
vn 0.000000 0.166996 -0.985958
vn 0.999174 0.040570 -0.002451
vn 0.999174 0.040570 -0.002451
vn 0.999174 0.040570 -0.002451
vn 0.999400 -0.034599 0.001819
vn 0.999400 -0.034599 0.001819
vn 0.999400 -0.034599 0.001819
vn 0.000000 -0.162659 0.986682
vn 0.000000 -0.162659 0.986682
vn 0.000000 -0.162659 0.986682
vn 0.000000 -0.162659 0.986682
vn 0.999400 -0.034626 0.001152
vn 0.999400 -0.034626 0.001152
vn 0.999400 -0.034626 0.001152
vn 0.999400 -0.034626 0.001152
vn -0.999400 -0.034626 0.001154
vn -0.999400 -0.034626 0.001154
vn -0.999400 -0.034626 0.001154
vn -0.999400 -0.034626 0.001154
vn 0.999182 -0.040423 -0.001452
vn 0.999182 -0.040423 -0.001452
vn 0.999182 -0.040423 -0.001452
vn 0.999182 -0.040423 -0.001452
vn 0.000000 1.000000 0.000001
vn 0.000000 1.000000 0.000001
vn 0.000000 1.000000 0.000001
vn 0.000000 1.000000 0.000001
vn 0.000003 1.000000 0.000000
vn 0.000003 1.000000 0.000000
vn 0.000003 1.000000 0.000000
vn 0.000003 1.000000 0.000000
vn -0.000002 1.000000 0.000000
vn -0.000002 1.000000 0.000000
vn -0.000002 1.000000 0.000000
vn -0.000002 1.000000 0.000000
vn -0.999182 -0.040422 -0.001451
vn -0.999182 -0.040422 -0.001451
vn -0.999182 -0.040422 -0.001451
vn -0.999182 -0.040422 -0.001451
vn 0.999357 0.035869 0.000000
vn 0.999357 0.035869 0.000000
vn 0.999357 0.035869 0.000000
vn -0.999400 -0.034597 0.001820
vn -0.999400 -0.034597 0.001820
vn -0.999400 -0.034597 0.001820
vn 0.999250 0.038695 -0.001177
vn 0.999250 0.038695 -0.001177
vn 0.999250 0.038695 -0.001177
vn 0.000000 -1.000000 0.000000
vn 0.000000 -1.000000 0.000000
vn 0.000000 -1.000000 0.000000
vn 0.000000 -1.000000 0.000000
vn -0.413392 -0.809768 0.416393
vn -0.413392 -0.809768 0.416393
vn -0.413392 -0.809768 0.416393
vn -0.413392 -0.809768 0.416393
vn 0.000000 -0.658227 0.752819
vn 0.000000 -0.658227 0.752819
vn 0.000000 -0.658227 0.752819
vn 0.000000 -0.658227 0.752819
vn 0.413389 -0.809769 0.416394
vn 0.413389 -0.809769 0.416394
vn 0.413389 -0.809769 0.416394
vn 0.413389 -0.809769 0.416394
vn 0.629012 -0.777395 0.000211
vn 0.629012 -0.777395 0.000211
vn 0.629012 -0.777395 0.000211
vn 0.629012 -0.777395 0.000211
vn 0.000000 -0.661216 -0.750196
vn 0.000000 -0.661216 -0.750196
vn 0.000000 -0.661216 -0.750196
vn 0.000000 -0.661216 -0.750196
vn -0.629015 -0.777393 0.000212
vn -0.629015 -0.777393 0.000212
vn -0.629015 -0.777393 0.000212
vn -0.629015 -0.777393 0.000212
vn -0.665822 0.177285 -0.724742
vn -0.665822 0.177285 -0.724742
vn -0.665822 0.177285 -0.724742
vn -0.665822 0.177285 -0.724742
vn -0.999158 0.040855 -0.003778
vn -0.999158 0.040855 -0.003778
vn -0.999158 0.040855 -0.003778
vn -0.999136 0.041355 -0.004117
vn -0.999136 0.041355 -0.004117
vn -0.999136 0.041355 -0.004117
vn -0.999418 0.034118 0.000193
vn -0.999418 0.034118 0.000193
vn -0.999418 0.034118 0.000193
vn -0.999418 0.034118 0.000193
vn 0.000000 1.000000 -0.000006
vn 0.000000 1.000000 -0.000006
vn 0.000000 1.000000 -0.000006
vn 0.000000 -0.302485 -0.953154
vn 0.000000 -0.302485 -0.953154
vn 0.000000 -0.302485 -0.953154
vn -0.000000 1.000000 -0.000005
vn -0.000000 1.000000 -0.000005
vn -0.000000 1.000000 -0.000005
vn -0.000000 1.000000 -0.000005
vn 0.000000 -0.302484 -0.953154
vn 0.000000 -0.302484 -0.953154
vn 0.000000 -0.302484 -0.953154
vn 0.000001 -0.302485 -0.953154
vn 0.000001 -0.302485 -0.953154
vn 0.000001 -0.302485 -0.953154
vn 0.000001 -0.302485 -0.953154
vn -0.000000 -0.302485 -0.953154
vn -0.000000 -0.302485 -0.953154
vn -0.000000 -0.302485 -0.953154
vn -0.000000 -0.302485 -0.953154
vn -0.000000 -0.302484 -0.953154
vn -0.000000 -0.302484 -0.953154
vn -0.000000 -0.302484 -0.953154
vn -0.000000 -0.302484 -0.953154
vn 0.000000 -0.302486 -0.953154
vn 0.000000 -0.302486 -0.953154
vn 0.000000 -0.302486 -0.953154
vn 0.000000 -0.302486 -0.953154
vn -0.999505 0.031465 0.000001
vn -0.999505 0.031465 0.000001
vn -0.999505 0.031465 0.000001
vn 0.000000 0.166996 -0.985958
vn 0.000000 0.166996 -0.985958
vn 0.000000 0.166996 -0.985958
vn 0.000000 0.166995 -0.985958
vn 0.000000 0.166995 -0.985958
vn 0.000000 0.166995 -0.985958
vn 0.000000 0.166995 -0.985958
vn 0.999164 0.040884 0.000798
vn 0.999164 0.040884 0.000798
vn 0.999164 0.040884 0.000798
vn 0.999164 0.040884 0.000798
vn 0.000000 -0.993671 -0.112325
vn 0.000000 -0.993671 -0.112325
vn 0.000000 -0.993671 -0.112325
vn 0.000000 -0.993671 -0.112325
vn 0.000000 -0.993672 -0.112326
vn 0.000000 -0.993672 -0.112326
vn 0.000000 -0.993672 -0.112326
vn 0.000000 -0.993672 -0.112326
vn -0.734983 0.357258 0.576339
vn -0.734983 0.357258 0.576339
vn -0.734983 0.357258 0.576339
vn -0.689787 0.719472 0.080958
vn -0.689787 0.719472 0.080958
vn -0.689787 0.719472 0.080958
vn -0.689787 0.719472 0.080958
vn -0.703676 0.215640 0.677008
vn -0.703676 0.215640 0.677008
vn -0.703676 0.215640 0.677008
vn -0.703676 0.215640 0.677008
vn -0.689477 0.724307 -0.000107
vn -0.689477 0.724307 -0.000107
vn -0.689477 0.724307 -0.000107
vn -0.689477 0.724307 -0.000107
vn -0.485038 0.746185 -0.456011
vn -0.485038 0.746185 -0.456011
vn -0.485038 0.746185 -0.456011
vn -0.485038 0.746185 -0.456011
vn 0.679395 0.733772 0.000492
vn 0.679395 0.733772 0.000492
vn 0.679395 0.733772 0.000492
vn 0.679395 0.733772 0.000492
vn 0.702397 0.209027 0.680402
vn 0.702397 0.209027 0.680402
vn 0.702397 0.209027 0.680402
vn 0.702397 0.209027 0.680402
vn 0.457543 0.771008 -0.442946
vn 0.457543 0.771008 -0.442946
vn 0.457543 0.771008 -0.442946
vn 0.457543 0.771008 -0.442946
vn -0.697689 0.497131 0.515840
vn -0.697689 0.497131 0.515840
vn -0.697689 0.497131 0.515840
vn -0.697689 0.497131 0.515840
vn 0.686445 0.722699 0.080617
vn 0.686445 0.722699 0.080617
vn 0.686445 0.722699 0.080617
vn 0.686445 0.722699 0.080617
vn 0.742254 0.456526 0.490554
vn 0.742254 0.456526 0.490554
vn 0.742254 0.456526 0.490554
vn 0.699826 0.494370 0.515598
vn 0.699826 0.494370 0.515598
vn 0.699826 0.494370 0.515598
vn 0.699826 0.494370 0.515598
vn -0.000020 0.763419 -0.645904
vn -0.000020 0.763419 -0.645904
vn -0.000020 0.763419 -0.645904
vn -0.000020 0.763419 -0.645904
vn -0.000000 1.000000 0.000000
vn -0.000000 1.000000 0.000000
vn -0.000000 1.000000 0.000000
vn -0.000000 1.000000 0.000000
vn -0.000000 0.248192 0.968711
vn -0.000000 0.248192 0.968711
vn -0.000000 0.248192 0.968711
vn -0.000000 0.248192 0.968711
vn 0.000000 0.993672 0.112325
vn 0.000000 0.993672 0.112325
vn 0.000000 0.993672 0.112325
vn 0.000000 0.993672 0.112325
vn -0.000000 0.670019 0.742344
vn -0.000000 0.670019 0.742344
vn -0.000000 0.670019 0.742344
vn -0.000000 0.670019 0.742344
vn -0.697478 0.178376 -0.694051
vn -0.697478 0.178376 -0.694051
vn -0.697478 0.178376 -0.694051
vn -0.697478 0.178376 -0.694051
vn -0.999145 0.041182 -0.003580
vn -0.999145 0.041182 -0.003580
vn -0.999145 0.041182 -0.003580
vn -0.999145 0.041182 -0.003580
vn -0.999158 0.040861 -0.003777
vn -0.999158 0.040861 -0.003777
vn -0.999158 0.040861 -0.003777
vn -0.997286 0.073169 0.008242
vn -0.997286 0.073169 0.008242
vn -0.997286 0.073169 0.008242
vn 0.000000 1.000000 0.000000
vn 0.000000 1.000000 0.000000
vn 0.000000 1.000000 0.000000
vn 0.000000 1.000000 0.000000
vn -0.000022 0.167072 -0.985945
vn -0.000022 0.167072 -0.985945
vn -0.000022 0.167072 -0.985945
vn -0.000022 0.167072 -0.985945
vn 0.692507 0.172064 -0.700591
vn 0.692507 0.172064 -0.700591
vn 0.692507 0.172064 -0.700591
vn 0.692507 0.172064 -0.700591
vn 0.998960 0.045471 -0.003319
vn 0.998960 0.045471 -0.003319
vn 0.998960 0.045471 -0.003319
vn 0.998960 0.045471 -0.003319
vn 0.999247 0.038786 -0.001004
vn 0.999247 0.038786 -0.001004
vn 0.999247 0.038786 -0.001004
vn 0.999247 0.038786 -0.001004
vn 0.998281 0.058435 0.004532
vn 0.998281 0.058435 0.004532
vn 0.998281 0.058435 0.004532
vn 0.998281 0.058435 0.004532
vn -0.000000 0.262042 0.965057
vn -0.000000 0.262042 0.965057
vn -0.000000 0.262042 0.965057
vn -0.000000 0.262042 0.965057
vn -0.000000 0.262042 0.965057
vn -0.998859 0.047662 0.003108
vn -0.998859 0.047662 0.003108
vn -0.998859 0.047662 0.003108
vn -0.998859 0.047662 0.003108
vn -0.999505 0.031462 -0.000000
vn -0.999505 0.031462 -0.000000
vn -0.999505 0.031462 -0.000000
vn -0.998995 0.044702 -0.003227
vn -0.998995 0.044702 -0.003227
vn -0.998995 0.044702 -0.003227
vn -0.998995 0.044702 -0.003227
vn 0.997352 0.072490 0.005837
vn 0.997352 0.072490 0.005837
vn 0.997352 0.072490 0.005837
vn -0.000010 0.167153 -0.985931
vn -0.000010 0.167153 -0.985931
vn -0.000010 0.167153 -0.985931
vn -0.000010 0.167153 -0.985931
vn 0.999193 0.040162 -0.000583
vn 0.999193 0.040162 -0.000583
vn 0.999193 0.040162 -0.000583
s off
f 7/75/1 92/72/2 56/52/3
f 3/33/4 57/53/5 62/56/6 6/1/7
f 1/2/8 2/27/9 32/21/10 28/29/11
f 11/36/12 9/28/13 44/41/14 45/42/15
f 20/12/16 21/13/17 22/14/18 23/15/19
f 3/33/20 7/75/21 56/52/22 57/53/23
f 8/24/24 9/28/25 11/36/26 10/34/27
f 8/24/28 10/34/29 13/5/30 19/11/31 18/8/32 12/3/33
f 10/34/34 6/1/35 14/7/36 13/5/37
f 16/6/38 63/57/39 64/58/40 17/10/41
f 5/4/42 8/24/43 12/3/44 15/9/45
f 24/16/46 25/17/47 26/18/48 27/19/49
f 16/6/50 17/10/51 18/8/52 19/11/53
f 16/6/54 19/11/55 21/13/56 20/12/57
f 19/11/58 13/5/59 22/14/60 21/13/61
f 13/5/62 14/7/63 23/15/64 22/14/65
f 14/7/66 16/6/67 20/12/68 23/15/69
f 12/3/70 18/8/71 25/17/72 24/16/73
f 18/8/74 17/10/75 26/18/76 25/17/77
f 17/10/78 15/9/79 27/19/80 26/18/81
f 15/9/82 12/3/83 24/16/84 27/19/85
f 40/37/86 41/38/87 30/31/88 31/35/89
f 31/35/90 30/31/91 38/22/92 39/73/93
f 42/39/94 43/40/95 35/32/96 34/26/97
f 34/26/98 35/32/99 37/23/100 36/30/101
f 39/73/102 38/22/103 52/48/104 53/49/105
f 36/30/106 59/54/107 38/22/108
f 53/49/109 54/50/110 39/73/111
f 8/24/112 35/32/113 9/28/114
f 30/31/115 41/38/116 42/39/117 34/26/118
f 35/32/119 43/40/120 44/41/121 9/28/122
f 45/42/123 40/37/124 31/35/125 11/36/126
f 35/32/127 8/24/128 5/4/129 4/69/130
f 34/26/131 36/30/132 38/22/133 30/31/134
f 4/69/135 67/68/136 37/23/137 35/32/138
f 31/35/139 39/73/140 7/75/141 3/33/142
f 10/34/143 31/35/144 3/33/145 6/1/146
f 55/51/147 61/74/148 39/73/149
f 31/35/150 10/34/151 11/36/152
f 39/73/153 54/50/154 55/51/155
f 28/29/156 32/21/157 33/25/158 29/20/159
f 28/29/160 29/20/161 41/38/162 40/37/163
f 42/39/164 41/38/165 29/20/166 33/25/167
f 33/25/168 32/21/169 43/40/170 42/39/171
f 44/41/172 43/40/173 32/21/174 2/27/175
f 45/42/176 44/41/177 2/27/178 1/2/179
f 1/2/180 28/29/181 40/37/182 45/42/183
f 36/30/184 37/23/185 47/44/186 46/43/187
f 48/45/188 47/44/189 37/23/190
f 49/46/191 48/45/192 37/23/193
f 37/23/194 67/68/195 51/71/196 50/47/197
f 58/67/198 67/68/199 4/69/200
f 58/61/201 66/62/202 65/63/203
f 57/70/204 56/104/205 67/76/206 58/61/207
f 6/1/208 62/56/209 63/57/210
f 5/4/211 66/60/212 58/67/213 4/69/214
f 5/4/215 64/58/216 65/59/217 66/60/218
f 62/64/219 65/63/220 64/65/221 63/66/222
f 58/61/223 65/63/224 62/64/225 57/70/226
f 37/23/227 50/47/228 49/46/229
f 46/43/230 59/54/231 36/30/232
f 38/22/233 59/54/234 60/55/235 52/48/236
f 39/73/237 61/74/238 92/72/239 7/75/240
f 6/1/241 63/57/242 16/6/243 14/7/244
f 17/10/245 64/58/246 5/4/247 15/9/248
f 67/76/249 68/84/250 69/91/251
f 69/91/252 68/84/253 78/85/254 79/106/255
f 70/80/256 71/110/257 81/88/258 80/81/259
f 71/110/260 70/80/261 72/92/262 73/109/263
f 73/109/264 72/92/265 88/78/266 89/112/267
f 74/82/268 75/115/269 76/97/270 77/79/271
f 75/115/272 74/82/273 86/86/274 87/98/275
f 77/79/276 76/97/277 91/94/278 90/93/279
f 79/106/280 78/85/281 80/81/282 81/88/283
f 82/105/284 83/102/285 85/101/286 84/83/287
f 83/102/288 82/105/289 92/77/290
f 84/83/291 85/101/292 87/98/293 86/86/294
f 89/112/295 88/78/296 90/93/297 91/94/298
f 74/82/299 77/79/300 72/92/301 70/80/302
f 80/81/303 86/86/304 74/82/305 70/80/306
f 84/83/307 78/85/308 68/84/309 82/105/310
f 80/81/311 78/85/312 84/83/313 86/86/314
f 46/114/315 47/87/316 73/109/317 89/112/318
f 81/88/319 48/90/320 49/89/321 79/106/322
f 73/109/323 47/87/324 48/90/325
f 69/91/326 51/107/327 67/76/328
f 72/92/329 77/79/330 90/93/331 88/78/332
f 91/94/333 52/96/334 60/95/335 89/112/336
f 53/99/337 52/96/338 91/94/339 76/97/340
f 75/115/341 87/98/342 54/100/343 53/99/344
f 55/103/345 54/100/346 87/98/347 85/101/348
f 85/101/349 83/102/350 61/111/351 55/103/352
f 56/104/353 92/77/354 82/105/355 68/84/356 67/76/357
f 79/106/358 50/108/359 51/107/360 69/91/361
f 49/89/362 50/108/363 79/106/364
f 73/109/365 48/90/366 81/88/367 71/110/368
f 61/111/369 83/102/370 92/77/371
f 89/112/372 60/95/373 59/113/374 46/114/375
f 75/115/376 53/99/377 76/97/378
