# This file uses centimeters as units for non-parametric coordinates.

v 60.801880 1.413368 39.508026
v 71.498657 1.413368 39.508026
v 60.801880 95.382629 5.306000
v 71.498657 95.382629 5.306000
v 60.801880 93.969261 1.422791
v 71.498657 93.969261 1.422791
v 60.801880 0.000000 35.624817
v 71.498657 0.000000 35.624817
v -68.945374 1.413368 39.508026
v -58.248596 1.413368 39.508026
v -68.945374 95.382629 5.306000
v -58.248596 95.382629 5.306000
v -68.945374 93.969261 1.422791
v -58.248596 93.969261 1.422791
v -68.945374 0.000000 35.624817
v -58.248596 0.000000 35.624817
v -72.091492 32.576950 32.231415
v 74.075867 32.576950 32.231415
v -72.091492 53.285286 24.694183
v 74.075867 53.285286 24.694183
v -72.091492 51.871918 20.810974
v 74.075867 51.871918 20.810974
v -72.091492 31.163582 28.348206
v 74.075867 31.163582 28.348206
v -72.091492 78.281494 15.596313
v 74.075867 78.281494 15.596313
v -72.091492 98.989838 8.059082
v 74.075867 98.989838 8.059082
v -72.091492 97.576462 4.175873
v 74.075867 97.576462 4.175873
v -72.091492 76.868126 11.713104
v 74.075867 76.868126 11.713104
v 60.801880 1.413368 -36.662445
v 71.498657 1.413368 -36.662445
v 60.801880 95.382629 -2.460419
v 71.498657 95.382629 -2.460419
v 60.801880 93.969261 1.422791
v 71.498657 93.969261 1.422791
v 60.801880 0.000000 -32.779236
v 71.498657 0.000000 -32.779236
v -68.945374 1.413368 -36.662445
v -58.248596 1.413368 -36.662445
v -68.945374 95.382629 -2.460419
v -58.248596 95.382629 -2.460419
v -68.945374 93.969261 1.422791
v -58.248596 93.969261 1.422791
v -68.945374 0.000000 -32.779236
v -58.248596 0.000000 -32.779236
v -72.091492 32.576950 -29.385834
v 74.075867 32.576950 -29.385834
v -72.091492 53.285286 -21.848602
v 74.075867 53.285286 -21.848602
v -72.091492 51.871918 -17.965393
v 74.075867 51.871918 -17.965393
v -72.091492 31.163582 -25.502625
v 74.075867 31.163582 -25.502625
v -72.091492 78.281494 -12.750732
v 74.075867 78.281494 -12.750732
v -72.091492 98.989838 -5.213501
v 74.075867 98.989838 -5.213501
v -72.091492 97.576462 -1.330292
v 74.075867 97.576462 -1.330292
v -72.091492 76.868126 -8.867523
v 74.075867 76.868126 -8.867523
vt 0.100611 0.352355
vt 0.100536 0.352337
vt 0.100637 0.351511
vt 0.100716 0.351522
vt 0.100655 0.351515
vt 0.100733 0.351525
vt 0.100554 0.352333
vt 0.100629 0.352351
vt 0.101264 0.352511
vt 0.101175 0.352490
vt 0.101307 0.351599
vt 0.101400 0.351611
vt 0.101319 0.351602
vt 0.101412 0.351614
vt 0.101189 0.352484
vt 0.101277 0.352505
vt 0.286241 0.019745
vt 0.360865 0.019745
vt 0.350597 0.031489
vt 0.275061 0.031489
vt 0.350597 0.030687
vt 0.275061 0.030687
vt 0.360865 0.018944
vt 0.286241 0.018944
vt 0.286241 0.019745
vt 0.360865 0.019745
vt 0.350597 0.031489
vt 0.275061 0.031489
vt 0.350597 0.030687
vt 0.275061 0.030687
vt 0.360865 0.018944
vt 0.286241 0.018944
vt 0.100611 0.352355
vt 0.100536 0.352337
vt 0.100637 0.351511
vt 0.100716 0.351522
vt 0.100655 0.351515
vt 0.100733 0.351525
vt 0.100554 0.352333
vt 0.100629 0.352351
vt 0.101264 0.352511
vt 0.101175 0.352490
vt 0.101307 0.351599
vt 0.101400 0.351611
vt 0.101319 0.351602
vt 0.101412 0.351614
vt 0.101189 0.352484
vt 0.101277 0.352505
vt 0.286241 0.019745
vt 0.360865 0.019745
vt 0.350597 0.031489
vt 0.275061 0.031489
vt 0.350597 0.030687
vt 0.275061 0.030687
vt 0.360865 0.018944
vt 0.286241 0.018944
vt 0.286241 0.019745
vt 0.360865 0.019745
vt 0.350597 0.031489
vt 0.275061 0.031489
vt 0.350597 0.030687
vt 0.275061 0.030687
vt 0.360865 0.018944
vt 0.286241 0.018944
vn 0.000000 0.342020 0.939693
vn 0.000000 0.342020 0.939693
vn 0.000000 0.342020 0.939693
vn 0.000000 0.342020 0.939693
vn 0.000000 0.939693 -0.342019
vn 0.000000 0.939693 -0.342019
vn 0.000000 0.939693 -0.342019
vn 0.000000 0.939693 -0.342019
vn 0.000000 -0.342020 -0.939693
vn 0.000000 -0.342020 -0.939693
vn 0.000000 -0.342020 -0.939693
vn 0.000000 -0.342020 -0.939693
vn 0.000000 -0.939693 0.342019
vn 0.000000 -0.939693 0.342019
vn 0.000000 -0.939693 0.342019
vn 0.000000 -0.939693 0.342019
vn 1.000000 0.000000 0.000000
vn 1.000000 0.000000 0.000000
vn 1.000000 0.000000 0.000000
vn 1.000000 0.000000 0.000000
vn -1.000000 0.000000 0.000000
vn -1.000000 0.000000 0.000000
vn -1.000000 0.000000 0.000000
vn -1.000000 0.000000 0.000000
vn 0.000000 0.342020 0.939693
vn 0.000000 0.342020 0.939693
vn 0.000000 0.342020 0.939693
vn 0.000000 0.342020 0.939693
vn 0.000000 0.939693 -0.342019
vn 0.000000 0.939693 -0.342019
vn 0.000000 0.939693 -0.342019
vn 0.000000 0.939693 -0.342019
vn 0.000000 -0.342020 -0.939693
vn 0.000000 -0.342020 -0.939693
vn 0.000000 -0.342020 -0.939693
vn 0.000000 -0.342020 -0.939693
vn 0.000000 -0.939693 0.342019
vn 0.000000 -0.939693 0.342019
vn 0.000000 -0.939693 0.342019
vn 0.000000 -0.939693 0.342019
vn 1.000000 0.000000 0.000000
vn 1.000000 0.000000 0.000000
vn 1.000000 0.000000 0.000000
vn 1.000000 0.000000 0.000000
vn -1.000000 0.000000 0.000000
vn -1.000000 0.000000 0.000000
vn -1.000000 0.000000 0.000000
vn -1.000000 0.000000 0.000000
vn 0.000000 0.342021 0.939692
vn 0.000000 0.342021 0.939692
vn 0.000000 0.342021 0.939692
vn 0.000000 0.342021 0.939692
vn 0.000000 0.939693 -0.342019
vn 0.000000 0.939693 -0.342019
vn 0.000000 0.939693 -0.342019
vn 0.000000 0.939693 -0.342019
vn 0.000000 -0.342021 -0.939692
vn 0.000000 -0.342021 -0.939692
vn 0.000000 -0.342021 -0.939692
vn 0.000000 -0.342021 -0.939692
vn 0.000000 -0.939693 0.342019
vn 0.000000 -0.939693 0.342019
vn 0.000000 -0.939693 0.342019
vn 0.000000 -0.939693 0.342019
vn 1.000000 0.000000 0.000000
vn 1.000000 0.000000 0.000000
vn 1.000000 0.000000 0.000000
vn 1.000000 0.000000 0.000000
vn -1.000000 0.000000 0.000000
vn -1.000000 0.000000 0.000000
vn -1.000000 0.000000 0.000000
vn -1.000000 0.000000 0.000000
vn 0.000000 0.342021 0.939692
vn 0.000000 0.342021 0.939692
vn 0.000000 0.342021 0.939692
vn 0.000000 0.342021 0.939692
vn 0.000000 0.939693 -0.342020
vn 0.000000 0.939693 -0.342020
vn 0.000000 0.939693 -0.342020
vn 0.000000 0.939693 -0.342020
vn 0.000000 -0.342021 -0.939692
vn 0.000000 -0.342021 -0.939692
vn 0.000000 -0.342021 -0.939692
vn 0.000000 -0.342021 -0.939692
vn 0.000000 -0.939693 0.342019
vn 0.000000 -0.939693 0.342019
vn 0.000000 -0.939693 0.342019
vn 0.000000 -0.939693 0.342019
vn 1.000000 0.000000 0.000000
vn 1.000000 0.000000 0.000000
vn 1.000000 0.000000 0.000000
vn 1.000000 0.000000 0.000000
vn -1.000000 0.000000 0.000000
vn -1.000000 0.000000 0.000000
vn -1.000000 0.000000 0.000000
vn -1.000000 0.000000 0.000000
vn 0.000000 0.342020 -0.939693
vn 0.000000 0.342020 -0.939693
vn 0.000000 0.342020 -0.939693
vn 0.000000 0.342020 -0.939693
vn 0.000000 0.939693 0.342019
vn 0.000000 0.939693 0.342019
vn 0.000000 0.939693 0.342019
vn 0.000000 0.939693 0.342019
vn 0.000000 -0.342020 0.939693
vn 0.000000 -0.342020 0.939693
vn 0.000000 -0.342020 0.939693
vn 0.000000 -0.342020 0.939693
vn 0.000000 -0.939693 -0.342019
vn 0.000000 -0.939693 -0.342019
vn 0.000000 -0.939693 -0.342019
vn 0.000000 -0.939693 -0.342019
vn 1.000000 -0.000000 0.000000
vn 1.000000 -0.000000 0.000000
vn 1.000000 -0.000000 0.000000
vn 1.000000 -0.000000 0.000000
vn -1.000000 0.000000 0.000000
vn -1.000000 0.000000 0.000000
vn -1.000000 0.000000 0.000000
vn -1.000000 0.000000 0.000000
vn 0.000000 0.342020 -0.939693
vn 0.000000 0.342020 -0.939693
vn 0.000000 0.342020 -0.939693
vn 0.000000 0.342020 -0.939693
vn 0.000000 0.939693 0.342019
vn 0.000000 0.939693 0.342019
vn 0.000000 0.939693 0.342019
vn 0.000000 0.939693 0.342019
vn 0.000000 -0.342020 0.939693
vn 0.000000 -0.342020 0.939693
vn 0.000000 -0.342020 0.939693
vn 0.000000 -0.342020 0.939693
vn 0.000000 -0.939693 -0.342019
vn 0.000000 -0.939693 -0.342019
vn 0.000000 -0.939693 -0.342019
vn 0.000000 -0.939693 -0.342019
vn 1.000000 -0.000000 0.000000
vn 1.000000 -0.000000 0.000000
vn 1.000000 -0.000000 0.000000
vn 1.000000 -0.000000 0.000000
vn -1.000000 0.000000 0.000000
vn -1.000000 0.000000 0.000000
vn -1.000000 0.000000 0.000000
vn -1.000000 0.000000 0.000000
vn 0.000000 0.342021 -0.939692
vn 0.000000 0.342021 -0.939692
vn 0.000000 0.342021 -0.939692
vn 0.000000 0.342021 -0.939692
vn 0.000000 0.939693 0.342019
vn 0.000000 0.939693 0.342019
vn 0.000000 0.939693 0.342019
vn 0.000000 0.939693 0.342019
vn 0.000000 -0.342021 0.939692
vn 0.000000 -0.342021 0.939692
vn 0.000000 -0.342021 0.939692
vn 0.000000 -0.342021 0.939692
vn 0.000000 -0.939693 -0.342019
vn 0.000000 -0.939693 -0.342019
vn 0.000000 -0.939693 -0.342019
vn 0.000000 -0.939693 -0.342019
vn 1.000000 0.000000 0.000000
vn 1.000000 0.000000 0.000000
vn 1.000000 0.000000 0.000000
vn 1.000000 0.000000 0.000000
vn -1.000000 0.000000 0.000000
vn -1.000000 0.000000 0.000000
vn -1.000000 0.000000 0.000000
vn -1.000000 0.000000 0.000000
vn 0.000000 0.342021 -0.939692
vn 0.000000 0.342021 -0.939692
vn 0.000000 0.342021 -0.939692
vn 0.000000 0.342021 -0.939692
vn 0.000000 0.939693 0.342020
vn 0.000000 0.939693 0.342020
vn 0.000000 0.939693 0.342020
vn 0.000000 0.939693 0.342020
vn 0.000000 -0.342021 0.939692
vn 0.000000 -0.342021 0.939692
vn 0.000000 -0.342021 0.939692
vn 0.000000 -0.342021 0.939692
vn 0.000000 -0.939693 -0.342019
vn 0.000000 -0.939693 -0.342019
vn 0.000000 -0.939693 -0.342019
vn 0.000000 -0.939693 -0.342019
vn 1.000000 0.000000 0.000000
vn 1.000000 0.000000 0.000000
vn 1.000000 0.000000 0.000000
vn 1.000000 0.000000 0.000000
vn -1.000000 0.000000 0.000000
vn -1.000000 0.000000 0.000000
vn -1.000000 0.000000 0.000000
vn -1.000000 0.000000 0.000000
s off
f 1/1/1 2/2/2 4/3/3 3/4/4
f 3/4/5 4/3/6 6/5/7 5/6/8
f 5/6/9 6/5/10 8/7/11 7/8/12
f 7/8/13 8/7/14 2/2/15 1/1/16
f 2/2/17 8/7/18 6/5/19 4/3/20
f 7/8/21 1/1/22 3/4/23 5/6/24
f 9/9/25 10/10/26 12/11/27 11/12/28
f 11/12/29 12/11/30 14/13/31 13/14/32
f 13/14/33 14/13/34 16/15/35 15/16/36
f 15/16/37 16/15/38 10/10/39 9/9/40
f 10/10/41 16/15/42 14/13/43 12/11/44
f 15/16/45 9/9/46 11/12/47 13/14/48
f 17/17/49 18/18/50 20/19/51 19/20/52
f 19/20/53 20/19/54 22/21/55 21/22/56
f 21/22/57 22/21/58 24/23/59 23/24/60
f 23/24/61 24/23/62 18/18/63 17/17/64
f 18/18/65 24/23/66 22/21/67 20/19/68
f 23/24/69 17/17/70 19/20/71 21/22/72
f 25/25/73 26/26/74 28/27/75 27/28/76
f 27/28/77 28/27/78 30/29/79 29/30/80
f 29/30/81 30/29/82 32/31/83 31/32/84
f 31/32/85 32/31/86 26/26/87 25/25/88
f 26/26/89 32/31/90 30/29/91 28/27/92
f 31/32/93 25/25/94 27/28/95 29/30/96
f 33/33/97 35/36/98 36/35/99 34/34/100
f 35/36/101 37/38/102 38/37/103 36/35/104
f 37/38/105 39/40/106 40/39/107 38/37/108
f 39/40/109 33/33/110 34/34/111 40/39/112
f 34/34/113 36/35/114 38/37/115 40/39/116
f 39/40/117 37/38/118 35/36/119 33/33/120
f 41/41/121 43/44/122 44/43/123 42/42/124
f 43/44/125 45/46/126 46/45/127 44/43/128
f 45/46/129 47/48/130 48/47/131 46/45/132
f 47/48/133 41/41/134 42/42/135 48/47/136
f 42/42/137 44/43/138 46/45/139 48/47/140
f 47/48/141 45/46/142 43/44/143 41/41/144
f 49/49/145 51/52/146 52/51/147 50/50/148
f 51/52/149 53/54/150 54/53/151 52/51/152
f 53/54/153 55/56/154 56/55/155 54/53/156
f 55/56/157 49/49/158 50/50/159 56/55/160
f 50/50/161 52/51/162 54/53/163 56/55/164
f 55/56/165 53/54/166 51/52/167 49/49/168
f 57/57/169 59/60/170 60/59/171 58/58/172
f 59/60/173 61/62/174 62/61/175 60/59/176
f 61/62/177 63/64/178 64/63/179 62/61/180
f 63/64/181 57/57/182 58/58/183 64/63/184
f 58/58/185 60/59/186 62/61/187 64/63/188
f 63/64/189 61/62/190 59/60/191 57/57/192
