# This file uses centimeters as units for non-parametric coordinates.

v 47.745605 18.295700 -104.588135
v -75.480225 18.295700 -104.588135
v 47.745605 25.781147 -104.588135
v -75.480225 25.781147 -104.588135
v 47.745605 25.781147 -83.651855
v -75.480225 25.781147 -88.246460
v 47.745605 18.295700 -83.651855
v -75.480225 18.295700 -83.651855
v 7.382568 18.984989 -103.838379
v 5.717041 25.091858 -99.226440
v 7.054199 25.091858 -84.401733
v 9.036377 18.984989 -84.401733
v -66.470947 25.781147 -83.651855
v -75.480225 22.136116 -83.651855
v 14.124023 25.385366 -103.251343
v -6.466064 25.385366 -103.251343
v 6.055908 23.072041 -103.838379
v 50.322998 25.781147 105.787354
v -72.902832 25.781147 105.787354
v 50.322998 21.286575 105.787354
v -72.902832 18.295700 105.787354
v 50.322998 18.295700 84.850952
v -72.902832 18.295700 89.445679
v 50.322998 25.781147 84.850952
v -72.902832 25.781147 84.850952
v 6.674805 25.091858 105.037476
v 5.009521 18.984989 100.425659
v 6.346436 18.984989 85.600952
v 8.328613 25.091858 85.600952
v 50.322998 18.295700 101.086182
v 43.765869 18.295700 105.787354
v -63.893555 18.295700 84.850952
v -72.902832 21.940729 84.850952
v 13.416504 18.691481 104.450439
v -7.173828 18.691481 104.450439
v 5.348145 21.004807 105.037476
v -74.593506 18.295780 10.933838
v 48.632324 18.295780 10.933838
v -74.593506 22.790272 10.933838
v 48.632324 25.781223 10.933838
v -74.593506 25.781223 -10.002686
v 48.632324 25.781223 -5.407837
v -74.593506 18.295780 -10.002686
v 48.632324 18.295780 -10.002686
v -51.520020 18.807835 10.600708
v -49.757813 25.269012 5.791016
v -51.172607 25.269169 -9.669434
v -53.269775 18.807835 -9.669434
v -74.593506 25.781223 6.232666
v -68.036377 25.781223 10.933838
v 39.623291 25.781223 -10.002686
v 48.632324 22.136116 -10.002686
v -58.260986 25.385288 10.317383
v -37.670654 25.385445 9.596924
v -50.116211 23.131979 10.600708
v 26.164307 0.000000 117.192017
v 26.164307 0.000000 -114.180298
v 32.007568 0.000000 117.192017
v 35.895996 0.000000 -114.180298
v 35.895996 19.278751 117.192017
v 35.895996 15.047800 -114.180298
v 26.164307 19.278751 117.192017
v 26.164307 19.278751 -114.180298
v 27.060547 1.968315 24.677979
v 35.000000 5.608673 20.860840
v 35.000000 17.310349 23.925537
v 27.060547 17.310349 28.468628
v 35.895996 4.328989 117.192017
v 35.895996 0.000000 102.162842
v 35.895996 19.278751 -93.531006
v 31.157227 19.278751 -114.180298
v 35.381592 1.231019 40.129761
v 35.381592 1.231019 -7.063965
v 32.374023 1.968315 21.637207
v -54.209717 0.000000 -114.346436
v -54.209717 0.000000 117.026001
v -60.053467 0.000000 -114.346436
v -63.941895 0.000000 117.026001
v -63.941895 19.278751 -114.346436
v -63.941895 15.047800 117.026001
v -54.209717 19.278751 -114.346436
v -54.209717 19.278751 117.026001
v -54.875732 1.523183 -61.460938
v -63.275879 5.374783 -57.422241
v -63.275879 17.755478 -60.664673
v -54.875488 17.755478 -65.471558
v -63.941895 4.328989 -114.346436
v -63.941895 0.000000 -99.317383
v -63.941895 19.278751 96.376587
v -59.202881 19.278751 117.026001
v -63.427002 1.231019 -76.911743
v -63.427002 1.231019 -29.717896
v -60.497559 1.523183 -58.243652
vt 0.005211 0.329261
vt 0.004811 0.328991
vt 0.004804 0.328955
vt 0.004839 0.328962
vt 0.005209 0.329197
vt 0.004815 0.328935
vt 0.004953 0.328920
vt 0.005380 0.329171
vt 0.004963 0.328973
vt 0.005379 0.329228
vt 0.004296 0.355698
vt 0.004015 0.355657
vt 0.004015 0.355613
vt 0.004041 0.355574
vt 0.004297 0.355610
vt 0.004819 0.354750
vt 0.004988 0.354764
vt 0.004975 0.354715
vt 0.004821 0.354698
vt 0.004750 0.328904
vt 0.004382 0.328703
vt 0.004380 0.328665
vt 0.004487 0.328653
vt 0.004539 0.328677
vt 0.004499 0.328671
vt 0.004500 0.328690
vt 0.005211 0.329261
vt 0.004811 0.328991
vt 0.004804 0.328955
vt 0.004839 0.328962
vt 0.005175 0.329179
vt 0.005211 0.329214
vt 0.005242 0.329196
vt 0.004815 0.328935
vt 0.004953 0.328920
vt 0.005380 0.329171
vt 0.004963 0.328973
vt 0.005379 0.329228
vt 0.004296 0.355698
vt 0.004015 0.355657
vt 0.004015 0.355613
vt 0.004041 0.355574
vt 0.004297 0.355610
vt 0.004819 0.354750
vt 0.004988 0.354764
vt 0.004990 0.354721
vt 0.004959 0.354709
vt 0.004821 0.354698
vt 0.004750 0.328904
vt 0.004382 0.328703
vt 0.004380 0.328665
vt 0.004487 0.328653
vt 0.004539 0.328677
vt 0.004499 0.328671
vt 0.004500 0.328690
vt 0.005211 0.329261
vt 0.004811 0.328991
vt 0.004804 0.328955
vt 0.004839 0.328962
vt 0.005175 0.329179
vt 0.005211 0.329214
vt 0.005242 0.329196
vt 0.004815 0.328935
vt 0.004953 0.328920
vt 0.005380 0.329171
vt 0.004963 0.328973
vt 0.005379 0.329228
vt 0.004296 0.355698
vt 0.004015 0.355657
vt 0.004015 0.355613
vt 0.004041 0.355574
vt 0.004297 0.355610
vt 0.004819 0.354750
vt 0.004988 0.354764
vt 0.004990 0.354721
vt 0.004959 0.354709
vt 0.004821 0.354698
vt 0.004750 0.328904
vt 0.004382 0.328703
vt 0.004380 0.328665
vt 0.004487 0.328653
vt 0.004539 0.328677
vt 0.004499 0.328671
vt 0.004500 0.328690
vt 0.005211 0.329261
vt 0.004811 0.328991
vt 0.004804 0.328955
vt 0.004839 0.328962
vt 0.005175 0.329179
vt 0.005211 0.329214
vt 0.005242 0.329196
vt 0.004815 0.328935
vt 0.004953 0.328920
vt 0.005380 0.329171
vt 0.004963 0.328973
vt 0.005379 0.329228
vt 0.004296 0.355698
vt 0.004015 0.355657
vt 0.004015 0.355613
vt 0.004041 0.355574
vt 0.004297 0.355610
vt 0.004819 0.354750
vt 0.004988 0.354764
vt 0.004990 0.354721
vt 0.004959 0.354709
vt 0.004821 0.354698
vt 0.004750 0.328904
vt 0.004382 0.328703
vt 0.004380 0.328665
vt 0.004487 0.328653
vt 0.004539 0.328677
vt 0.004499 0.328671
vt 0.004500 0.328690
vt 0.005211 0.329261
vt 0.004811 0.328991
vt 0.004804 0.328955
vt 0.004839 0.328962
vt 0.005175 0.329179
vt 0.005211 0.329214
vt 0.005242 0.329196
vt 0.004815 0.328935
vt 0.004953 0.328920
vt 0.005380 0.329171
vt 0.004963 0.328973
vt 0.005379 0.329228
vt 0.004296 0.355698
vt 0.004015 0.355657
vt 0.004015 0.355613
vt 0.004041 0.355574
vt 0.004297 0.355610
vt 0.004819 0.354750
vt 0.004988 0.354764
vt 0.004990 0.354721
vt 0.004959 0.354709
vt 0.004821 0.354698
vt 0.004750 0.328904
vt 0.004382 0.328703
vt 0.004380 0.328665
vt 0.004487 0.328653
vt 0.004539 0.328677
vt 0.004499 0.328671
vt 0.004500 0.328690
vn -0.021756 0.053529 -0.998329
vn -0.021756 0.053529 -0.998329
vn -0.021756 0.053529 -0.998329
vn -0.021756 0.053529 -0.998329
vn -0.021756 0.053529 -0.998329
vn -0.016091 0.999860 0.004645
vn -0.016091 0.999860 0.004645
vn -0.016091 0.999860 0.004645
vn -0.016091 0.999860 0.004645
vn -0.016091 0.999860 0.004645
vn -0.018885 -0.002754 0.999818
vn -0.018885 -0.002754 0.999818
vn -0.018885 -0.002754 0.999818
vn -0.018885 -0.002754 0.999818
vn -0.017432 -0.999848 0.000714
vn -0.017432 -0.999848 0.000714
vn -0.017432 -0.999848 0.000714
vn -0.017432 -0.999848 0.000714
vn -1.000000 0.000000 0.000000
vn -1.000000 0.000000 0.000000
vn -1.000000 0.000000 0.000000
vn -1.000000 0.000000 0.000000
vn -1.000000 0.000000 0.000000
vn 1.000000 0.000000 0.000000
vn 1.000000 0.000000 0.000000
vn 1.000000 0.000000 0.000000
vn 1.000000 0.000000 0.000000
vn 0.010849 0.052655 -0.998554
vn 0.010849 0.052655 -0.998554
vn 0.010849 0.052655 -0.998554
vn 0.010849 0.052655 -0.998554
vn 0.010849 0.052655 -0.998554
vn 0.008203 0.999963 0.002634
vn 0.008203 0.999963 0.002634
vn 0.008203 0.999963 0.002634
vn 0.008203 0.999963 0.002634
vn 0.008203 0.999963 0.002634
vn 0.008203 0.999963 0.002634
vn 0.009193 -0.004753 0.999947
vn 0.009193 -0.004753 0.999946
vn 0.009193 -0.004753 0.999946
vn 0.009193 -0.004753 0.999946
vn 0.009193 -0.004753 0.999947
vn 0.008236 -0.999966 -0.000337
vn 0.008236 -0.999966 -0.000337
vn 0.008236 -0.999966 -0.000337
vn 0.008236 -0.999966 -0.000337
vn -0.302144 0.746797 0.592455
vn -0.302144 0.746797 0.592455
vn -0.302144 0.746797 0.592455
vn 0.149891 0.909656 -0.387375
vn 0.149891 0.909656 -0.387375
vn 0.149891 0.909656 -0.387375
vn -0.224707 0.886404 -0.404715
vn -0.224707 0.886404 -0.404715
vn -0.224707 0.886404 -0.404715
vn -0.020699 -0.039131 0.999020
vn -0.020699 -0.039131 0.999020
vn -0.020699 -0.039131 0.999020
vn -0.020699 -0.039131 0.999020
vn -0.020699 -0.039131 0.999020
vn -0.020699 -0.039131 0.999020
vn -0.015072 -0.999866 -0.006426
vn -0.015072 -0.999866 -0.006426
vn -0.015072 -0.999866 -0.006426
vn -0.015072 -0.999866 -0.006426
vn -0.015072 -0.999866 -0.006426
vn -0.015072 -0.999866 -0.006426
vn -0.017445 0.002544 -0.999845
vn -0.017445 0.002544 -0.999845
vn -0.017445 0.002544 -0.999845
vn -0.017445 0.002544 -0.999845
vn -0.016095 0.999870 -0.000659
vn -0.016095 0.999870 -0.000659
vn -0.016095 0.999870 -0.000659
vn -0.016095 0.999870 -0.000659
vn -1.000000 -0.000001 0.000000
vn -1.000000 -0.000001 0.000000
vn -1.000000 -0.000001 0.000000
vn -1.000000 -0.000001 0.000000
vn -1.000000 -0.000001 0.000000
vn 1.000000 -0.000000 0.000000
vn 1.000000 -0.000000 0.000000
vn 1.000000 -0.000000 0.000000
vn 1.000000 -0.000000 0.000000
vn 1.000000 -0.000000 0.000000
vn 0.011318 -0.053105 0.998525
vn 0.011318 -0.053105 0.998525
vn 0.011318 -0.053105 0.998525
vn 0.011318 -0.053105 0.998525
vn 0.011318 -0.053105 0.998525
vn 0.008557 -0.999960 -0.002429
vn 0.008557 -0.999960 -0.002429
vn 0.008557 -0.999960 -0.002429
vn 0.008557 -0.999960 -0.002429
vn 0.008557 -0.999960 -0.002429
vn 0.008557 -0.999960 -0.002429
vn 0.009580 0.004953 -0.999942
vn 0.009580 0.004953 -0.999942
vn 0.009580 0.004953 -0.999942
vn 0.009580 0.004953 -0.999942
vn 0.009580 0.004953 -0.999942
vn 0.008572 0.999963 0.000351
vn 0.008572 0.999963 0.000351
vn 0.008572 0.999963 0.000351
vn 0.008572 0.999963 0.000351
vn 0.359167 -0.787426 0.500959
vn 0.359167 -0.787426 0.500959
vn 0.359167 -0.787426 0.500959
vn -0.302147 -0.746804 -0.592445
vn -0.302147 -0.746804 -0.592445
vn -0.302147 -0.746804 -0.592445
vn 0.149889 -0.909650 0.387390
vn 0.149889 -0.909649 0.387390
vn 0.149889 -0.909649 0.387390
vn -0.224701 -0.886406 0.404715
vn -0.224701 -0.886406 0.404715
vn -0.224701 -0.886406 0.404715
vn 0.018183 0.017189 0.999687
vn 0.018183 0.017189 0.999687
vn 0.018183 0.017189 0.999687
vn 0.018183 0.017189 0.999687
vn 0.018183 0.017189 0.999687
vn 0.018183 0.017189 0.999687
vn 0.022042 0.999755 -0.002002
vn 0.022042 0.999755 -0.002002
vn 0.022042 0.999755 -0.002002
vn 0.022042 0.999755 -0.002002
vn 0.022042 0.999755 -0.002002
vn 0.022042 0.999755 -0.002002
vn 0.014894 -0.002240 -0.999887
vn 0.014894 -0.002240 -0.999887
vn 0.014894 -0.002240 -0.999887
vn 0.014894 -0.002240 -0.999887
vn 0.023061 -0.999734 -0.000979
vn 0.023061 -0.999734 -0.000979
vn 0.023061 -0.999734 -0.000979
vn 0.023061 -0.999734 -0.000979
vn 1.000000 -0.000000 0.000000
vn 1.000000 -0.000000 0.000000
vn 1.000000 -0.000000 0.000000
vn 1.000000 -0.000000 0.000000
vn 1.000000 -0.000000 0.000000
vn -1.000000 0.000000 0.000000
vn -1.000000 0.000000 0.000000
vn -1.000000 0.000000 0.000000
vn -1.000000 0.000000 0.000000
vn -1.000000 0.000000 0.000000
vn -0.005374 0.075914 0.997100
vn -0.005374 0.075914 0.997100
vn -0.005374 0.075914 0.997100
vn -0.005374 0.075914 0.997100
vn -0.005374 0.075914 0.997100
vn -0.005156 0.999987 0.000023
vn -0.005156 0.999987 0.000023
vn -0.005156 0.999987 0.000023
vn -0.005156 0.999987 0.000023
vn -0.005156 0.999987 0.000023
vn -0.005156 0.999987 0.000023
vn -0.003372 -0.001671 -0.999993
vn -0.003372 -0.001671 -0.999993
vn -0.003372 -0.001671 -0.999993
vn -0.003372 -0.001671 -0.999993
vn -0.003372 -0.001671 -0.999993
vn -0.005068 -0.999987 0.000215
vn -0.005068 -0.999987 0.000215
vn -0.005068 -0.999987 0.000215
vn -0.005068 -0.999987 0.000215
vn -0.359171 0.787418 0.500967
vn -0.359171 0.787419 0.500967
vn -0.359171 0.787418 0.500967
vn 0.302160 0.746802 -0.592440
vn 0.302160 0.746802 -0.592440
vn 0.302160 0.746802 -0.592440
vn -0.132869 0.909388 0.394157
vn -0.132869 0.909388 0.394157
vn -0.132869 0.909388 0.394157
vn 0.230012 0.882877 0.409418
vn 0.230012 0.882877 0.409418
vn 0.230012 0.882877 0.409418
vn -0.036777 -0.999109 -0.020693
vn -0.036777 -0.999109 -0.020693
vn -0.036777 -0.999109 -0.020693
vn -0.036777 -0.999109 -0.020693
vn -0.036777 -0.999109 -0.020693
vn -0.036777 -0.999109 -0.020693
vn 0.999914 0.009337 -0.009203
vn 0.999914 0.009337 -0.009203
vn 0.999914 0.009337 -0.009203
vn 0.999914 0.009337 -0.009203
vn 0.999914 0.009337 -0.009203
vn 0.999914 0.009337 -0.009203
vn -0.005560 0.999751 -0.021627
vn -0.005560 0.999751 -0.021627
vn -0.005560 0.999751 -0.021627
vn -0.005560 0.999751 -0.021627
vn -0.999951 0.001083 -0.009890
vn -0.999951 0.001083 -0.009890
vn -0.999951 0.001083 -0.009890
vn -0.999951 0.001083 -0.009890
vn 0.000000 0.000000 -1.000000
vn 0.000000 0.000000 -1.000000
vn 0.000000 0.000000 -1.000000
vn 0.000000 0.000000 -1.000000
vn 0.000000 0.000000 -1.000000
vn 0.000000 0.000000 1.000000
vn 0.000000 0.000000 1.000000
vn 0.000000 0.000000 1.000000
vn 0.000000 0.000000 1.000000
vn 0.000000 0.000000 1.000000
vn -0.015889 -0.999777 0.013896
vn -0.015889 -0.999777 0.013896
vn -0.015889 -0.999777 0.013896
vn -0.015889 -0.999777 0.013896
vn -0.015889 -0.999777 0.013896
vn 0.999979 0.001141 0.006403
vn 0.999979 0.001141 0.006403
vn 0.999979 0.001141 0.006403
vn 0.999979 0.001141 0.006403
vn 0.999979 0.001141 0.006403
vn 0.999979 0.001141 0.006403
vn -0.013200 0.999808 0.014483
vn -0.013200 0.999808 0.014483
vn -0.013200 0.999808 0.014483
vn -0.013200 0.999808 0.014483
vn -0.013200 0.999808 0.014483
vn -0.999979 -0.000697 0.006367
vn -0.999980 -0.000697 0.006367
vn -0.999979 -0.000697 0.006367
vn -0.999980 -0.000697 0.006367
vn 0.730540 -0.656192 0.189009
vn 0.730540 -0.656192 0.189009
vn 0.730540 -0.656192 0.189009
vn 0.658362 0.737382 -0.151086
vn 0.658362 0.737382 -0.151086
vn 0.658362 0.737382 -0.151086
vn 0.816949 -0.567939 0.100197
vn 0.816949 -0.567939 0.100197
vn 0.816949 -0.567939 0.100197
vn 0.785990 -0.599333 -0.151726
vn 0.785990 -0.599333 -0.151726
vn 0.785990 -0.599333 -0.151726
vn 0.012747 -0.999465 0.030127
vn 0.012747 -0.999465 0.030127
vn 0.012747 -0.999465 0.030127
vn 0.012747 -0.999465 0.030127
vn 0.012747 -0.999465 0.030127
vn 0.012747 -0.999465 0.030127
vn -0.999917 0.002997 0.012506
vn -0.999917 0.002997 0.012506
vn -0.999917 0.002997 0.012506
vn -0.999917 0.002997 0.012506
vn -0.999917 0.002997 0.012506
vn -0.999917 0.002997 0.012506
vn 0.007871 0.999528 0.029692
vn 0.007871 0.999528 0.029692
vn 0.007871 0.999528 0.029692
vn 0.007871 0.999528 0.029692
vn 0.999913 0.001471 0.013086
vn 0.999913 0.001471 0.013086
vn 0.999913 0.001471 0.013086
vn 0.999913 0.001471 0.013086
vn 0.000000 0.000000 1.000000
vn 0.000000 0.000000 1.000000
vn 0.000000 0.000000 1.000000
vn 0.000000 0.000000 1.000000
vn 0.000000 0.000000 1.000000
vn -0.000001 0.000000 -1.000000
vn -0.000001 0.000000 -1.000000
vn -0.000001 0.000000 -1.000000
vn -0.000001 0.000000 -1.000000
vn -0.000001 0.000000 -1.000000
vn 0.000914 -0.999963 -0.008585
vn 0.000914 -0.999963 -0.008585
vn 0.000914 -0.999963 -0.008585
vn 0.000914 -0.999963 -0.008585
vn 0.000914 -0.999963 -0.008585
vn -0.999992 -0.001314 -0.003785
vn -0.999992 -0.001314 -0.003785
vn -0.999992 -0.001314 -0.003785
vn -0.999992 -0.001314 -0.003785
vn -0.999992 -0.001314 -0.003785
vn -0.999992 -0.001314 -0.003785
vn 0.007585 0.999934 -0.008681
vn 0.007585 0.999934 -0.008681
vn 0.007585 0.999934 -0.008681
vn 0.007585 0.999934 -0.008681
vn 0.007585 0.999934 -0.008681
vn 0.999993 -0.000424 -0.003689
vn 0.999993 -0.000424 -0.003689
vn 0.999993 -0.000424 -0.003689
vn 0.999993 -0.000424 -0.003689
vn -0.730539 -0.656192 -0.189010
vn -0.730539 -0.656192 -0.189011
vn -0.730539 -0.656192 -0.189011
vn -0.658343 0.737399 0.151089
vn -0.658343 0.737399 0.151089
vn -0.658343 0.737399 0.151089
vn -0.816727 -0.570007 -0.089712
vn -0.816727 -0.570007 -0.089712
vn -0.816727 -0.570007 -0.089712
vn -0.790067 -0.598343 0.133344
vn -0.790067 -0.598343 0.133344
vn -0.790067 -0.598343 0.133344
s off
f 1/1/1 9/2/2 17/3/3 15/4/4 3/5/5
f 3/5/6 15/4/7 10/6/8 11/7/9 5/8/10
f 5/8/11 11/7/12 12/9/13 7/10/14
f 7/10/15 12/9/16 9/2/17 1/1/18
f 2/11/19 8/12/20 14/13/21 6/14/22 4/15/23
f 7/16/24 1/17/25 3/18/26 5/19/27
f 16/20/28 17/3/29 9/2/30 2/21/31 4/22/32
f 11/7/33 10/6/34 16/20/35 4/22/36 6/23/37 13/24/38
f 12/9/39 11/7/40 13/24/41 14/25/42 8/26/43
f 9/2/44 12/9/45 8/26/46 2/21/47
f 14/25/48 13/24/49 6/23/50
f 10/6/51 17/3/52 16/20/53
f 15/4/54 17/3/55 10/6/56
f 18/27/57 26/28/58 36/29/59 34/30/60 31/31/61 20/32/62
f 30/33/63 31/31/64 34/30/65 27/34/66 28/35/67 22/36/68
f 22/36/69 28/35/70 29/37/71 24/38/72
f 24/38/73 29/37/74 26/28/75 18/27/76
f 19/39/77 25/40/78 33/41/79 23/42/80 21/43/81
f 24/44/82 18/45/83 20/46/84 30/47/85 22/48/86
f 35/49/87 36/29/88 26/28/89 19/50/90 21/51/91
f 28/35/92 27/34/93 35/49/94 21/51/95 23/52/96 32/53/97
f 29/37/98 28/35/99 32/53/100 33/54/101 25/55/102
f 26/28/103 29/37/104 25/55/105 19/50/106
f 20/32/107 31/31/108 30/33/109
f 33/54/110 32/53/111 23/52/112
f 27/34/113 36/29/114 35/49/115
f 34/30/116 36/29/117 27/34/118
f 37/56/119 45/57/120 55/58/121 53/59/122 50/60/123 39/61/124
f 49/62/125 50/60/126 53/59/127 46/63/128 47/64/129 41/65/130
f 41/65/131 47/64/132 48/66/133 43/67/134
f 43/67/135 48/66/136 45/57/137 37/56/138
f 38/68/139 44/69/140 52/70/141 42/71/142 40/72/143
f 43/73/144 37/74/145 39/75/146 49/76/147 41/77/148
f 54/78/149 55/58/150 45/57/151 38/79/152 40/80/153
f 47/64/154 46/63/155 54/78/156 40/80/157 42/81/158 51/82/159
f 48/66/160 47/64/161 51/82/162 52/83/163 44/84/164
f 45/57/165 48/66/166 44/84/167 38/79/168
f 39/61/169 50/60/170 49/62/171
f 52/83/172 51/82/173 42/81/174
f 46/63/175 55/58/176 54/78/177
f 53/59/178 55/58/179 46/63/180
f 56/85/181 64/86/182 74/87/183 72/88/184 69/89/185 58/90/186
f 68/91/187 69/89/188 72/88/189 65/92/190 66/93/191 60/94/192
f 60/94/193 66/93/194 67/95/195 62/96/196
f 62/96/197 67/95/198 64/86/199 56/85/200
f 57/97/201 63/98/202 71/99/203 61/100/204 59/101/205
f 62/102/206 56/103/207 58/104/208 68/105/209 60/106/210
f 73/107/211 74/87/212 64/86/213 57/108/214 59/109/215
f 66/93/216 65/92/217 73/107/218 59/109/219 61/110/220 70/111/221
f 67/95/222 66/93/223 70/111/224 71/112/225 63/113/226
f 64/86/227 67/95/228 63/113/229 57/108/230
f 58/90/231 69/89/232 68/91/233
f 71/112/234 70/111/235 61/110/236
f 65/92/237 74/87/238 73/107/239
f 72/88/240 74/87/241 65/92/242
f 75/114/243 83/115/244 93/116/245 91/117/246 88/118/247 77/119/248
f 87/120/249 88/118/250 91/117/251 84/121/252 85/122/253 79/123/254
f 79/123/255 85/122/256 86/124/257 81/125/258
f 81/125/259 86/124/260 83/115/261 75/114/262
f 76/126/263 82/127/264 90/128/265 80/129/266 78/130/267
f 81/131/268 75/132/269 77/133/270 87/134/271 79/135/272
f 92/136/273 93/116/274 83/115/275 76/137/276 78/138/277
f 85/122/278 84/121/279 92/136/280 78/138/281 80/139/282 89/140/283
f 86/124/284 85/122/285 89/140/286 90/141/287 82/142/288
f 83/115/289 86/124/290 82/142/291 76/137/292
f 77/119/293 88/118/294 87/120/295
f 90/141/296 89/140/297 80/139/298
f 84/121/299 93/116/300 92/136/301
f 91/117/302 93/116/303 84/121/304
