# This file uses centimeters as units for non-parametric coordinates.

v -0.640015 4.847149 1.422775
v 42.561523 -0.000000 1.422775
v -0.640015 19.403316 1.422775
v 38.561737 19.403316 -3.173508
v -0.640015 15.102382 -23.755432
v 42.561523 19.403316 -23.755432
v -0.640015 -0.000000 -23.755432
v 42.561523 2.334838 -23.755432
v 27.112396 19.403316 1.422775
v 42.561523 19.403316 -11.742172
v 42.561523 8.653256 1.422775
v 42.561523 15.666585 -2.248497
v 39.071640 16.159124 1.422775
v 6.062805 19.403316 -23.755432
v -0.640015 19.403316 -17.681503
v 21.471046 -0.000000 1.422775
v -0.640015 -0.000000 -5.828133
v 23.795113 -0.000000 -23.755432
v 42.561523 -0.000000 -19.205956
vt 0.197241 0.254586
vt 0.196623 0.254578
vt 0.196384 0.254521
vt 0.197139 0.254294
vt 0.197272 0.254363
vt 0.197302 0.254537
vt 0.196797 0.254531
vt 0.196785 0.254823
vt 0.197275 0.254742
vt 0.196330 0.254818
vt 0.196397 0.254577
vt 0.196405 0.254498
vt 0.196302 0.254578
vt 0.196308 0.254711
vt 0.197287 0.254350
vt 0.197258 0.254770
vt 0.196365 0.254617
vt 0.196325 0.254420
vt 0.196364 0.254285
vn 0.000000 1.000000 -0.000000
vn 0.000000 1.000000 -0.000000
vn 0.000000 1.000000 -0.000000
vn 0.000000 1.000000 -0.000000
vn 0.000000 1.000000 -0.000000
vn 0.000000 -1.000000 0.000000
vn 0.000000 -1.000000 0.000000
vn 0.000000 -1.000000 0.000000
vn 0.000000 -1.000000 0.000000
vn 1.000000 -0.000000 0.000000
vn 1.000000 -0.000000 0.000000
vn 1.000000 -0.000000 0.000000
vn 1.000000 -0.000000 0.000000
vn 1.000000 -0.000000 0.000000
vn -1.000000 0.000000 0.000000
vn -1.000000 0.000000 0.000000
vn -1.000000 0.000000 0.000000
vn -1.000000 0.000000 0.000000
vn 0.219294 0.808396 0.546265
vn 0.219294 0.808396 0.546265
vn 0.219294 0.808396 0.546265
vn 0.558401 0.705671 0.436138
vn 0.558401 0.705671 0.436138
vn 0.558401 0.705671 0.436138
vn 0.617289 0.732071 0.288145
vn 0.617289 0.732071 0.288145
vn 0.617289 0.732071 0.288145
vn -0.463909 0.722982 -0.511942
vn -0.463909 0.722982 -0.511942
vn -0.463909 0.722982 -0.511942
vn -0.000000 0.000000 -1.000000
vn 0.000000 0.000000 -1.000000
vn 0.000000 0.000000 -1.000000
vn 0.000000 0.000000 -1.000000
vn -0.000000 0.000000 1.000000
vn -0.000000 0.000000 1.000000
vn -0.000000 0.000000 1.000000
vn -0.000000 0.000000 1.000000
vn -0.000000 0.000000 1.000000
vn -0.179294 -0.817879 0.546742
vn -0.179294 -0.817879 0.546742
vn -0.179294 -0.817879 0.546742
vn 0.706207 0.328353 0.627261
vn 0.706207 0.328353 0.627261
vn 0.706207 0.328353 0.627261
vn 0.110019 -0.884276 -0.453819
vn 0.110019 -0.884276 -0.453819
vn 0.110019 -0.884276 -0.453819
vn 0.000000 -1.000000 0.000000
vn 0.000000 -1.000000 0.000000
vn 0.000000 -1.000000 0.000000
vn 0.000000 -1.000000 0.000000
vn -0.000000 0.000000 1.000000
vn -0.000000 0.000000 1.000000
vn -0.000000 0.000000 1.000000
vn -0.000000 0.000000 1.000000
vn 1.000000 -0.000000 0.000000
vn 1.000000 -0.000000 0.000000
vn 1.000000 0.000000 0.000000
vn 1.000000 0.000000 0.000000
vn 0.000000 1.000000 -0.000000
vn 0.000000 1.000000 -0.000000
vn 0.000000 1.000000 0.000000
vn 0.000000 1.000000 0.000000
vn -0.000000 0.000000 -1.000000
vn 0.000000 0.000000 -1.000000
vn -0.000000 0.000000 -1.000000
vn -0.000000 0.000000 -1.000000
vn -1.000000 0.000000 0.000000
vn -1.000000 0.000000 0.000000
vn -1.000000 0.000000 0.000000
vn -1.000000 0.000000 0.000000
s off
f 3/1/1 9/2/2 4/3/3 14/4/4 15/5/5
f 7/6/6 18/7/7 16/8/8 17/9/9
f 2/10/10 19/11/11 8/12/12 12/13/13 11/14/14
f 5/15/15 1/16/16 3/1/17 15/5/18
f 9/2/19 13/17/20 4/3/21
f 4/3/22 13/17/23 12/13/24
f 4/3/25 12/13/26 10/18/27
f 15/5/28 14/4/29 5/15/30
f 5/15/31 14/4/32 6/19/33 8/12/34
f 1/16/35 16/8/36 13/17/37 9/2/38 3/1/39
f 17/9/40 16/8/41 1/16/42
f 12/13/43 13/17/44 11/14/45
f 19/11/46 18/7/47 8/12/48
f 16/8/49 18/7/50 19/11/51 2/10/52
f 13/17/53 16/8/54 2/10/55 11/14/56
f 12/13/57 8/12/58 6/19/59 10/18/60
f 14/4/61 4/3/62 10/18/63 6/19/64
f 5/15/65 8/12/66 18/7/67 7/6/68
f 7/6/69 17/9/70 1/16/71 5/15/72
