# This file uses centimeters as units for non-parametric coordinates.

v -191.862427 11.995129 1.730821
v 1.103882 11.995129 1.730821
v -191.862427 209.771072 1.730821
v 1.103882 209.771072 1.730821
v -191.862427 209.771072 0.995591
v 1.103882 209.771072 0.995591
v -191.862427 11.995129 0.995591
v 1.103882 11.995129 0.995591
v -1.747559 209.771072 0.995591
v 191.218628 209.771072 0.995591
v -1.747559 11.995129 0.995591
v 191.218628 11.995129 0.995591
v -1.747559 11.995129 1.730821
v 191.218628 11.995129 1.730821
v -1.747559 209.771072 1.730821
v 191.218628 209.771072 1.730821
v -0.448364 8.427742 5.041551
v -193.553101 8.427742 5.041551
v -0.448364 8.427742 -2.195968
v -193.553101 8.427742 -2.195968
v -4.965210 12.352303 3.032266
v -187.977539 12.352303 3.032266
v -187.977539 12.352303 -0.186683
v -4.965210 12.352303 -0.186683
v -196.493408 6.088570 1.422776
v -0.448364 6.088570 1.422776
v 192.656372 8.427742 5.041551
v 192.656372 8.427742 -2.195968
v 4.068481 12.352303 3.032266
v 187.080811 12.352303 3.032266
v 187.080811 12.352303 -0.186683
v 4.068481 12.352303 -0.186683
v 195.596680 6.088570 1.422776
v 186.228546 0.000000 20.216206
v 198.230011 0.000000 20.216206
v 186.228546 6.959091 20.216206
v 198.230011 6.959091 20.216206
v 186.228546 6.959091 -17.370655
v 198.230011 6.959091 -17.370655
v 186.228546 0.000000 -17.370655
v 198.230011 0.000000 -17.370655
v -6.832397 0.000000 20.216206
v 5.169067 0.000000 20.216206
v -6.832397 6.959091 20.216206
v 5.169067 6.959091 20.216206
v -6.832397 6.959091 -17.370655
v 5.169067 6.959091 -17.370655
v -6.832397 0.000000 -17.370655
v 5.169067 0.000000 -17.370655
v -199.510071 0.000000 20.216206
v -187.508606 0.000000 20.216206
v -199.510071 6.959091 20.216206
v -187.508606 6.959091 20.216206
v -199.510071 6.959091 -17.370655
v -187.508606 6.959091 -17.370655
v -199.510071 0.000000 -17.370655
v -187.508606 0.000000 -17.370655
v -0.831665 233.874817 5.041551
v 190.125946 233.874817 5.041551
v -0.831665 233.874817 -2.195968
v 190.125946 233.874817 -2.195968
v 3.685181 229.950256 3.661695
v 184.612396 229.950256 3.661695
v 184.612396 229.950256 -0.816113
v 3.685181 229.950256 -0.816113
v -0.831665 210.951111 5.041551
v 2.640747 214.132568 5.041551
v 2.640747 214.132568 -2.195968
v -0.831665 210.951111 -2.195968
v 187.742676 214.132568 -2.195968
v 187.742676 214.132568 5.041551
v 193.380859 210.951111 5.041551
v 193.380859 210.951111 -2.195968
v 187.742676 209.539673 3.032266
v 187.742676 209.539673 -0.186683
v 2.640747 209.539673 -0.186683
v 2.640747 209.539673 3.032266
v 196.354736 213.006470 1.422776
v 193.033569 236.213989 1.422776
v -0.831665 236.213989 1.422776
v -191.789307 233.874817 5.041551
v -191.789307 233.874817 -2.195968
v -5.348511 229.950256 3.661695
v -186.275696 229.950256 3.661695
v -186.275696 229.950256 -0.816113
v -5.348511 229.950256 -0.816113
v -4.304077 214.132568 5.041551
v -4.304077 214.132568 -2.195968
v -189.406006 214.132568 -2.195968
v -189.406006 214.132568 5.041551
v -195.044189 210.951111 5.041551
v -195.044189 210.951111 -2.195968
v -189.406006 209.539673 3.032266
v -189.406006 209.539673 -0.186683
v -4.304077 209.539673 -0.186683
v -4.304077 209.539673 3.032266
v -198.018066 213.006470 1.422776
v -194.696899 236.213989 1.422776
v -197.996521 210.078903 1.422776
vt -1.122078 0.482497
vt 0.507162 -1.146742
vt 2.136401 0.482497
vt 0.507162 2.111737
vt 0.507162 2.111737
vt 2.136401 0.482497
vt 0.507162 -1.146742
vt -1.122078 0.482497
vt 0.507162 2.111737
vt 2.136401 0.482497
vt 0.507162 -1.146742
vt -1.122078 0.482497
vt -1.122078 0.482497
vt 0.507162 -1.146742
vt 2.136401 0.482497
vt 0.507162 2.111737
vt 0.102221 0.280053
vt 0.101798 0.280047
vt 0.101798 0.280046
vt 0.102217 0.280053
vt 0.101807 0.280039
vt 0.102206 0.280045
vt 0.102214 0.280045
vt 0.102203 0.280037
vt 0.101808 0.280031
vt 0.101798 0.280038
vt 0.101808 0.279606
vt 0.101808 0.279602
vt 0.102275 0.279605
vt 0.102280 0.279609
vt 0.102296 0.279606
vt 0.102301 0.279598
vt 0.102290 0.279602
vt 0.101799 0.279602
vt 0.101800 0.279598
vt 0.101381 0.280040
vt 0.101385 0.280040
vt 0.101395 0.280032
vt 0.101788 0.280039
vt 0.101389 0.280032
vt 0.101788 0.280031
vt 0.101400 0.280025
vt 0.101791 0.279602
vt 0.101790 0.279606
vt 0.101327 0.279602
vt 0.101333 0.279598
vt 0.101307 0.279592
vt 0.101313 0.279599
vt 0.101318 0.279595
vt 0.102089 0.254055
vt 0.102060 0.254055
vt 0.102058 0.254040
vt 0.102087 0.254040
vt 0.102095 0.253968
vt 0.102123 0.253969
vt 0.102097 0.253983
vt 0.102124 0.253983
vt 0.102569 0.254063
vt 0.102539 0.254062
vt 0.102539 0.254048
vt 0.102569 0.254048
vt 0.102544 0.253975
vt 0.102573 0.253976
vt 0.102544 0.253990
vt 0.102572 0.253990
vt 0.103055 0.254071
vt 0.103025 0.254070
vt 0.103027 0.254055
vt 0.103058 0.254056
vt 0.102999 0.253982
vt 0.103028 0.253983
vt 0.102997 0.253996
vt 0.103026 0.253997
vt 0.101305 0.279557
vt 0.101800 0.279560
vt 0.101799 0.279568
vt 0.101310 0.279565
vt 0.101788 0.279578
vt 0.101325 0.279575
vt 0.101325 0.279591
vt 0.101790 0.279594
vt 0.101331 0.279587
vt 0.101316 0.279561
vt 0.101331 0.279571
vt 0.101788 0.279574
vt 0.101800 0.279564
vt 0.101791 0.279590
vt 0.102305 0.279563
vt 0.102298 0.279571
vt 0.102282 0.279581
vt 0.101811 0.279578
vt 0.102282 0.279597
vt 0.101808 0.279594
vt 0.102277 0.279593
vt 0.102293 0.279567
vt 0.101811 0.279574
vt 0.102277 0.279577
vt 0.101809 0.279590
vt 0.102300 0.279605
vn 0.000000 0.000000 1.000000
vn 0.000000 0.000000 1.000000
vn 0.000000 0.000000 1.000000
vn 0.000000 0.000000 1.000000
vn 0.000000 0.000000 -1.000000
vn 0.000000 0.000000 -1.000000
vn 0.000000 0.000000 -1.000000
vn 0.000000 0.000000 -1.000000
vn 0.000000 0.000000 -1.000000
vn 0.000000 0.000000 -1.000000
vn 0.000000 0.000000 -1.000000
vn 0.000000 0.000000 -1.000000
vn 0.000000 0.000000 1.000000
vn 0.000000 0.000000 1.000000
vn 0.000000 0.000000 1.000000
vn 0.000000 0.000000 1.000000
vn 0.000000 -0.839823 0.542861
vn 0.000000 -0.839823 0.542861
vn 0.000000 -0.839823 0.542861
vn 0.000000 -0.839823 0.542861
vn 0.000000 0.455722 0.890122
vn 0.000000 0.455722 0.890122
vn 0.000000 0.455722 0.890122
vn 0.000000 0.455722 0.890122
vn 0.000000 0.455722 -0.890122
vn 0.000000 0.455722 -0.890122
vn 0.000000 0.455722 -0.890122
vn 0.000000 0.455722 -0.890122
vn 0.000000 1.000000 0.000000
vn 0.000000 1.000000 0.000000
vn 0.000000 1.000000 0.000000
vn 0.000000 1.000000 0.000000
vn -0.999994 0.003353 0.000000
vn -0.999994 0.003353 0.000000
vn -0.999994 0.003353 0.000000
vn -0.999994 0.003353 0.000000
vn 0.999974 0.007244 0.000000
vn 0.999974 0.007244 0.000000
vn 0.999974 0.007244 0.000000
vn 0.999974 0.007244 0.000000
vn -0.774224 -0.005703 0.632886
vn -0.774224 -0.005703 0.632886
vn -0.774224 -0.005703 0.632886
vn -0.774224 -0.005703 0.632886
vn -0.774224 -0.005703 0.632886
vn 0.336864 0.002461 0.941550
vn 0.336864 0.002461 0.941550
vn 0.336864 0.002461 0.941550
vn 0.336864 0.002461 0.941550
vn 0.336864 0.002461 -0.941550
vn 0.336864 0.002461 -0.941550
vn 0.336864 0.002461 -0.941550
vn 0.336864 0.002461 -0.941550
vn -0.449276 0.000312 0.893393
vn -0.449276 0.000312 0.893393
vn -0.449276 0.000312 0.893393
vn -0.449276 0.000312 0.893393
vn -0.449276 0.000312 -0.893393
vn -0.449276 0.000312 -0.893393
vn -0.449276 0.000312 -0.893393
vn -0.449276 0.000312 -0.893393
vn -0.774221 -0.005703 -0.632889
vn -0.774221 -0.005703 -0.632889
vn -0.774221 -0.005703 -0.632889
vn -0.774221 -0.005703 -0.632889
vn -0.774221 -0.005703 -0.632889
vn 0.000000 -0.839821 -0.542864
vn 0.000000 -0.839821 -0.542864
vn 0.000000 -0.839821 -0.542864
vn 0.000000 -0.839821 -0.542864
vn 0.000000 -0.839823 0.542861
vn 0.000000 -0.839823 0.542861
vn 0.000000 -0.839823 0.542861
vn 0.000000 -0.839823 0.542861
vn 0.000000 0.455722 0.890122
vn 0.000000 0.455722 0.890122
vn 0.000000 0.455722 0.890122
vn 0.000000 0.455722 0.890122
vn 0.000000 0.455722 -0.890122
vn 0.000000 0.455722 -0.890122
vn 0.000000 0.455722 -0.890122
vn 0.000000 0.455722 -0.890122
vn 0.000000 1.000000 0.000000
vn 0.000000 1.000000 0.000000
vn 0.000000 1.000000 0.000000
vn 0.000000 1.000000 0.000000
vn 0.999974 0.007240 0.000000
vn 0.999974 0.007240 0.000000
vn 0.999974 0.007240 0.000000
vn 0.999974 0.007240 0.000000
vn -0.999994 0.003356 0.000000
vn -0.999994 0.003356 0.000000
vn -0.999994 0.003356 0.000000
vn -0.999994 0.003356 0.000000
vn 0.774291 -0.002804 0.632824
vn 0.774291 -0.002804 0.632824
vn 0.774291 -0.002804 0.632824
vn 0.774291 -0.002804 0.632824
vn -0.337121 0.001169 0.941461
vn -0.337121 0.001169 0.941461
vn -0.337121 0.001169 0.941461
vn -0.337121 0.001169 0.941461
vn -0.337121 0.001169 -0.941461
vn -0.337121 0.001169 -0.941461
vn -0.337121 0.001169 -0.941461
vn -0.337121 0.001169 -0.941461
vn 0.448842 0.002034 0.893609
vn 0.448842 0.002034 0.893609
vn 0.448842 0.002034 0.893609
vn 0.448842 0.002034 0.893609
vn 0.448843 0.002034 -0.893609
vn 0.448842 0.002034 -0.893609
vn 0.448843 0.002034 -0.893609
vn 0.448843 0.002034 -0.893609
vn 0.774288 -0.002804 -0.632827
vn 0.774288 -0.002804 -0.632827
vn 0.774288 -0.002804 -0.632827
vn 0.774288 -0.002804 -0.632827
vn 0.000000 -0.839821 -0.542864
vn 0.000000 -0.839821 -0.542864
vn 0.000000 -0.839821 -0.542864
vn 0.000000 -0.839821 -0.542864
vn 0.000000 0.000000 1.000000
vn 0.000000 0.000000 1.000000
vn 0.000000 0.000000 1.000000
vn 0.000000 0.000000 1.000000
vn 0.000000 1.000000 0.000000
vn 0.000000 1.000000 0.000000
vn 0.000000 1.000000 0.000000
vn 0.000000 1.000000 0.000000
vn 0.000000 0.000000 -1.000000
vn 0.000000 0.000000 -1.000000
vn 0.000000 0.000000 -1.000000
vn 0.000000 0.000000 -1.000000
vn 0.000000 -1.000000 0.000000
vn 0.000000 -1.000000 0.000000
vn 0.000000 -1.000000 0.000000
vn 0.000000 -1.000000 0.000000
vn 1.000000 0.000000 0.000000
vn 1.000000 0.000000 0.000000
vn 1.000000 0.000000 0.000000
vn 1.000000 0.000000 0.000000
vn -1.000000 0.000000 0.000000
vn -1.000000 0.000000 0.000000
vn -1.000000 0.000000 0.000000
vn -1.000000 0.000000 0.000000
vn 0.000000 0.000000 1.000000
vn 0.000000 0.000000 1.000000
vn 0.000000 0.000000 1.000000
vn 0.000000 0.000000 1.000000
vn 0.000000 1.000000 0.000000
vn 0.000000 1.000000 0.000000
vn 0.000000 1.000000 0.000000
vn 0.000000 1.000000 0.000000
vn 0.000000 0.000000 -1.000000
vn 0.000000 0.000000 -1.000000
vn 0.000000 0.000000 -1.000000
vn 0.000000 0.000000 -1.000000
vn 0.000000 -1.000000 0.000000
vn 0.000000 -1.000000 0.000000
vn 0.000000 -1.000000 0.000000
vn 0.000000 -1.000000 0.000000
vn 1.000000 0.000000 0.000000
vn 1.000000 0.000000 0.000000
vn 1.000000 0.000000 0.000000
vn 1.000000 0.000000 0.000000
vn -1.000000 0.000000 0.000000
vn -1.000000 0.000000 0.000000
vn -1.000000 0.000000 0.000000
vn -1.000000 0.000000 0.000000
vn 0.000000 0.000000 1.000000
vn 0.000000 0.000000 1.000000
vn 0.000000 0.000000 1.000000
vn 0.000000 0.000000 1.000000
vn 0.000000 1.000000 0.000000
vn 0.000000 1.000000 0.000000
vn 0.000000 1.000000 0.000000
vn 0.000000 1.000000 0.000000
vn 0.000000 0.000000 -1.000000
vn 0.000000 0.000000 -1.000000
vn 0.000000 0.000000 -1.000000
vn 0.000000 0.000000 -1.000000
vn 0.000000 -1.000000 0.000000
vn 0.000000 -1.000000 0.000000
vn 0.000000 -1.000000 0.000000
vn 0.000000 -1.000000 0.000000
vn 1.000000 0.000000 0.000000
vn 1.000000 0.000000 0.000000
vn 1.000000 0.000000 0.000000
vn 1.000000 0.000000 0.000000
vn -1.000000 0.000000 0.000000
vn -1.000000 0.000000 0.000000
vn -1.000000 0.000000 0.000000
vn -1.000000 0.000000 0.000000
vn 0.000000 0.839823 0.542861
vn 0.000000 0.839823 0.542861
vn 0.000000 0.839823 0.542861
vn 0.000000 0.839823 0.542861
vn 0.000000 -0.331689 0.943389
vn 0.000000 -0.331689 0.943389
vn 0.000000 -0.331689 0.943389
vn 0.000000 -0.331689 0.943389
vn -0.220589 -0.390928 0.893597
vn -0.220590 -0.390928 0.893597
vn -0.220590 -0.390928 0.893597
vn 0.344711 -0.376237 0.860012
vn 0.344711 -0.376237 0.860012
vn 0.344711 -0.376237 0.860012
vn -0.220590 -0.390928 -0.893597
vn -0.220590 -0.390928 -0.893597
vn -0.220590 -0.390928 -0.893597
vn 0.000000 -0.331689 -0.943389
vn 0.000000 -0.331689 -0.943389
vn 0.000000 -0.331689 -0.943389
vn 0.000000 -0.331689 -0.943389
vn 0.344712 -0.376237 -0.860012
vn 0.344712 -0.376237 -0.860012
vn 0.344712 -0.376237 -0.860012
vn 0.000000 -1.000000 0.000000
vn 0.000000 -1.000000 0.000000
vn 0.000000 -1.000000 0.000000
vn 0.000000 -1.000000 0.000000
vn 0.338616 0.059558 0.939038
vn 0.338616 0.059558 0.939038
vn 0.338616 0.059558 0.939038
vn 0.997827 -0.065886 0.000000
vn 0.997827 -0.065886 0.000000
vn 0.997827 -0.065886 0.000000
vn 0.997827 -0.065886 0.000000
vn 0.000000 0.000000 -1.000000
vn 0.000000 0.000000 -1.000000
vn 0.000000 0.000000 -1.000000
vn -0.980975 -0.194132 0.000000
vn -0.980976 -0.194132 0.000000
vn -0.980976 -0.194132 0.000000
vn -0.980975 -0.194132 0.000000
vn -0.263940 0.031863 0.964013
vn -0.263940 0.031863 0.964013
vn -0.263940 0.031863 0.964013
vn 0.739450 0.105410 0.664908
vn 0.739450 0.105410 0.664908
vn 0.739450 0.105410 0.664908
vn 0.739450 0.105410 0.664908
vn 0.000000 0.000000 -1.000000
vn 0.000000 0.000000 -1.000000
vn 0.000000 0.000000 -1.000000
vn 0.000000 1.000000 0.000000
vn 0.000000 1.000000 0.000000
vn 0.000000 1.000000 0.000000
vn 0.000000 1.000000 0.000000
vn 0.000000 -0.400802 -0.916165
vn 0.000000 -0.400802 -0.916165
vn 0.000000 -0.400802 -0.916165
vn 0.000000 -0.400802 -0.916165
vn 0.000000 -1.000000 0.000000
vn 0.000000 -1.000000 0.000000
vn 0.000000 -1.000000 0.000000
vn 0.000000 -1.000000 0.000000
vn 0.000000 -0.400802 0.916165
vn 0.000000 -0.400802 0.916165
vn 0.000000 -0.400802 0.916165
vn 0.000000 -0.400802 0.916165
vn 0.739447 0.105409 -0.664911
vn 0.739447 0.105409 -0.664911
vn 0.739447 0.105409 -0.664911
vn 0.739447 0.105409 -0.664911
vn 0.000000 0.839822 -0.542863
vn 0.000000 0.839822 -0.542863
vn 0.000000 0.839822 -0.542863
vn 0.000000 0.839822 -0.542863
vn 0.000000 0.839824 0.542859
vn 0.000000 0.839824 0.542859
vn 0.000000 0.839824 0.542859
vn 0.000000 0.839824 0.542859
vn 0.000000 -0.331691 0.943388
vn 0.000000 -0.331691 0.943388
vn 0.000000 -0.331691 0.943388
vn 0.000000 -0.331691 0.943388
vn 0.220589 -0.390928 0.893597
vn 0.220590 -0.390928 0.893597
vn 0.220590 -0.390928 0.893597
vn -0.344711 -0.376236 0.860012
vn -0.344711 -0.376236 0.860012
vn -0.344711 -0.376236 0.860012
vn 0.220590 -0.390928 -0.893597
vn 0.220590 -0.390928 -0.893597
vn 0.220590 -0.390928 -0.893597
vn 0.000000 -0.331690 -0.943388
vn 0.000000 -0.331690 -0.943388
vn 0.000000 -0.331690 -0.943388
vn 0.000000 -0.331690 -0.943388
vn -0.344712 -0.376236 -0.860012
vn -0.344712 -0.376236 -0.860012
vn -0.344712 -0.376236 -0.860012
vn 0.000000 -1.000000 0.000000
vn 0.000000 -1.000000 0.000000
vn 0.000000 -1.000000 0.000000
vn 0.000000 -1.000000 0.000000
vn -0.338616 0.059558 0.939038
vn -0.338616 0.059558 0.939038
vn -0.338616 0.059558 0.939038
vn -0.997827 -0.065886 0.000000
vn -0.997827 -0.065886 0.000000
vn -0.997827 -0.065886 0.000000
vn -0.997827 -0.065886 0.000000
vn 0.000000 0.000000 -1.000000
vn 0.000000 0.000000 -1.000000
vn 0.000000 0.000000 -1.000000
vn 0.980975 -0.194134 0.000000
vn 0.980975 -0.194134 0.000000
vn 0.980975 -0.194134 0.000000
vn 0.980975 -0.194134 0.000000
vn -0.000000 0.000000 1.000000
vn -0.000000 0.000000 1.000000
vn -0.000000 0.000000 1.000000
vn -0.739452 0.105410 0.664906
vn -0.739452 0.105410 0.664906
vn -0.739452 0.105410 0.664906
vn -0.739452 0.105410 0.664906
vn 0.263937 0.031862 -0.964013
vn 0.263937 0.031862 -0.964013
vn 0.263937 0.031862 -0.964013
vn 0.000000 1.000000 0.000000
vn 0.000000 1.000000 0.000000
vn 0.000000 1.000000 0.000000
vn 0.000000 1.000000 0.000000
vn 0.000000 -0.400802 -0.916165
vn 0.000000 -0.400802 -0.916165
vn 0.000000 -0.400802 -0.916165
vn 0.000000 -0.400802 -0.916165
vn 0.000000 -1.000000 0.000000
vn 0.000000 -1.000000 0.000000
vn 0.000000 -1.000000 0.000000
vn 0.000000 -1.000000 0.000000
vn 0.000000 -0.400802 0.916165
vn 0.000000 -0.400802 0.916165
vn 0.000000 -0.400802 0.916165
vn 0.000000 -0.400802 0.916165
vn -0.739449 0.105409 -0.664909
vn -0.739449 0.105409 -0.664909
vn -0.739449 0.105409 -0.664909
vn -0.739449 0.105409 -0.664909
vn 0.000000 0.839822 -0.542863
vn 0.000000 0.839822 -0.542863
vn 0.000000 0.839822 -0.542863
vn 0.000000 0.839822 -0.542863
vn 0.263937 0.031862 0.964013
vn 0.263937 0.031862 0.964013
vn 0.263937 0.031862 0.964013
vn 0.000000 0.000000 1.000000
vn 0.000000 0.000000 1.000000
vn 0.000000 0.000000 1.000000
vn -0.263939 0.031863 -0.964013
vn -0.263939 0.031863 -0.964013
vn -0.263939 0.031863 -0.964013
vn 0.000000 0.000000 -1.000000
vn 0.000000 0.000000 -1.000000
vn 0.000000 0.000000 -1.000000
vn -0.338616 0.059558 -0.939038
vn -0.338616 0.059558 -0.939038
vn -0.338616 0.059558 -0.939038
vn 0.338616 0.059558 -0.939038
vn 0.338616 0.059558 -0.939038
vn 0.338616 0.059558 -0.939038
vn 0.000000 0.000000 1.000000
vn 0.000000 0.000000 1.000000
vn 0.000000 0.000000 1.000000
vn -0.000000 0.000000 1.000000
vn -0.000000 0.000000 1.000000
vn -0.000000 0.000000 1.000000
s off
f 1/1/1 2/2/2 4/3/3 3/4/4
f 5/5/5 6/6/6 8/7/7 7/8/8
f 9/9/9 10/10/10 12/11/11 11/12/12
f 13/13/13 14/14/14 16/15/15 15/16/16
f 25/17/17 26/18/18 17/19/19 18/20/20
f 17/19/21 21/21/22 22/22/23 18/20/24
f 20/23/25 23/24/26 24/25/27 19/26/28
f 23/24/29 22/22/30 21/21/31 24/25/32
f 24/25/33 21/21/34 96/27/35 95/28/36
f 22/22/37 23/24/38 94/29/39 93/30/40
f 25/17/41 18/20/42 91/31/43 97/32/44 99/99/45
f 18/20/46 22/22/47 93/30/48 91/31/49
f 23/24/50 20/23/51 92/33/52 94/29/53
f 21/21/54 17/19/55 66/34/56 96/27/57
f 19/26/58 24/25/59 95/28/60 69/35/61
f 20/23/62 25/17/63 99/99/64 97/32/65 92/33/66
f 19/26/67 26/18/68 25/17/69 20/23/70
f 33/36/71 27/37/72 17/19/73 26/18/74
f 17/19/75 27/37/76 30/38/77 29/39/78
f 28/40/79 19/26/80 32/41/81 31/42/82
f 31/42/83 32/41/84 29/39/85 30/38/86
f 29/39/87 32/41/88 76/43/89 77/44/90
f 31/42/91 30/38/92 74/45/93 75/46/94
f 27/37/95 33/36/96 78/47/97 72/48/98
f 30/38/99 27/37/100 72/48/101 74/45/102
f 28/40/103 31/42/104 75/46/105 73/49/106
f 17/19/107 29/39/108 77/44/109 66/34/110
f 32/41/111 19/26/112 69/35/113 76/43/114
f 33/36/115 28/40/116 73/49/117 78/47/118
f 19/26/119 28/40/120 33/36/121 26/18/122
f 34/50/123 35/51/124 37/52/125 36/53/126
f 36/53/127 37/52/128 39/54/129 38/55/130
f 38/55/131 39/54/132 41/56/133 40/57/134
f 40/57/135 41/56/136 35/51/137 34/50/138
f 35/51/139 41/56/140 39/54/141 37/52/142
f 40/57/143 34/50/144 36/53/145 38/55/146
f 42/58/147 43/59/148 45/60/149 44/61/150
f 44/61/151 45/60/152 47/62/153 46/63/154
f 46/63/155 47/62/156 49/64/157 48/65/158
f 48/65/159 49/64/160 43/59/161 42/58/162
f 43/59/163 49/64/164 47/62/165 45/60/166
f 48/65/167 42/58/168 44/61/169 46/63/170
f 50/66/171 51/67/172 53/68/173 52/69/174
f 52/69/175 53/68/176 55/70/177 54/71/178
f 54/71/179 55/70/180 57/72/181 56/73/182
f 56/73/183 57/72/184 51/67/185 50/66/186
f 51/67/187 57/72/188 55/70/189 53/68/190
f 56/73/191 50/66/192 52/69/193 54/71/194
f 79/74/195 80/75/196 58/76/197 59/77/198
f 58/76/199 62/78/200 63/79/201 59/77/202
f 71/80/203 74/45/204 72/48/205
f 77/44/206 67/81/207 66/34/208
f 75/46/209 70/82/210 73/49/211
f 61/83/212 64/84/213 65/85/214 60/86/215
f 68/87/216 76/43/217 69/35/218
f 64/84/219 63/79/220 62/78/221 65/85/222
f 67/81/223 62/78/224 58/76/225
f 65/85/226 62/78/227 67/81/228 68/87/229
f 60/86/230 68/87/231 69/35/232
f 71/80/233 63/79/234 64/84/235 70/82/236
f 59/77/237 63/79/238 71/80/239
f 59/77/240 72/48/241 78/47/242 79/74/243
f 70/82/244 61/83/245 73/49/246
f 71/80/247 70/82/248 68/87/249 67/81/250
f 70/82/251 75/46/252 76/43/253 68/87/254
f 75/46/255 74/45/256 77/44/257 76/43/258
f 74/45/259 71/80/260 67/81/261 77/44/262
f 79/74/263 78/47/264 73/49/265 61/83/266
f 60/86/267 80/75/268 79/74/269 61/83/270
f 98/88/271 81/89/272 58/76/273 80/75/274
f 58/76/275 81/89/276 84/90/277 83/91/278
f 90/92/279 91/31/280 93/30/281
f 96/27/282 66/34/283 87/93/284
f 94/29/285 92/33/286 89/94/287
f 82/95/288 60/86/289 86/96/290 85/97/291
f 88/98/292 69/35/293 95/28/294
f 85/97/295 86/96/296 83/91/297 84/90/298
f 87/93/299 58/76/300 83/91/301
f 86/96/302 88/98/303 87/93/304 83/91/305
f 60/86/306 69/35/307 88/98/308
f 90/92/309 89/94/310 85/97/311 84/90/312
f 81/89/313 91/31/314 90/92/315
f 81/89/316 98/88/317 97/32/318 91/31/319
f 89/94/320 82/95/321 85/97/322
f 90/92/323 87/93/324 88/98/325 89/94/326
f 89/94/327 88/98/328 95/28/329 94/29/330
f 94/29/331 95/28/332 96/27/333 93/30/334
f 93/30/335 96/27/336 87/93/337 90/92/338
f 98/88/339 82/95/340 92/33/341 97/32/342
f 60/86/343 82/95/344 98/88/345 80/75/346
f 81/89/347 90/92/348 84/90/349
f 59/77/350 71/80/351 72/48/352
f 70/82/353 64/84/354 61/83/355
f 89/94/356 92/33/357 82/95/358
f 60/86/359 88/98/360 86/96/361
f 60/86/362 65/85/363 68/87/364
f 87/93/365 66/34/366 58/76/367
f 67/81/368 58/76/369 66/34/370
