# This file uses centimeters as units for non-parametric coordinates.

v 378.485107 0.000000 56.937744
v -408.485840 0.000000 45.757080
v 378.485107 6.064423 56.937744
v -408.485840 10.099960 45.757080
v 379.964600 10.099960 28.606445
v -407.275146 10.099960 22.573730
v 379.964600 0.000000 28.606445
v -407.006348 0.000000 17.425781
v -186.545898 0.533997 47.752319
v -193.736816 9.565979 42.791382
v -186.689941 9.565979 22.395996
v -177.828857 0.533997 22.521851
v 378.760498 10.099960 51.670410
v 344.757813 10.099960 56.458618
v -370.262695 10.099960 17.947876
v -407.006348 5.181793 17.425781
v -159.053467 9.565979 48.142944
v -243.029053 9.565979 46.949951
v -192.476563 6.578629 47.668091
v -376.542969 0.000000 13.636108
v 410.716064 0.000000 13.636108
v -376.542969 10.099960 13.636108
v 410.716064 10.099960 13.636108
v -376.542969 10.099960 -18.240784
v 410.716064 10.099960 -18.240784
v -376.542969 0.000000 -18.240784
v 410.716064 0.000000 -18.240784
v -379.200928 10.099960 4.935974
v 407.801025 10.099960 -6.780273
v -379.200928 16.164383 4.935974
v 407.801025 20.199921 -6.780273
v -380.599365 20.199921 -26.930603
v 406.656494 20.199921 -32.856506
v -380.599365 10.099960 -26.930603
v 406.402588 10.099960 -38.646851
v 184.436279 10.633957 -5.170227
v 191.641357 19.665939 -10.742065
v 184.652832 19.665939 -33.688965
v 175.791260 10.633957 -33.557068
v -379.461182 20.199921 -0.988647
v -345.472412 20.199921 4.433777
v 369.657715 20.199921 -38.099792
v 406.402588 15.281754 -38.646851
v 156.942627 19.665939 -4.760925
v 240.921631 19.665939 -6.011047
v 190.366943 16.678589 -5.258484
v -411.996094 0.000000 -22.215393
v 375.263428 0.000000 -22.215393
v -411.996094 10.099960 -22.215393
v 375.263428 10.099960 -22.215393
v -411.996094 10.099960 -54.092224
v 375.263428 10.099960 -54.092224
v -411.996094 0.000000 -54.092224
v 375.263428 0.000000 -54.092224
vt 0.025802 0.378832
vt 0.025802 0.378785
vt 0.025766 0.378750
vt 0.025430 0.378533
vt 0.025395 0.378526
vt 0.025402 0.378562
vt 0.025833 0.378767
vt 0.025971 0.378742
vt 0.025544 0.378491
vt 0.025406 0.378506
vt 0.025970 0.378799
vt 0.025554 0.378544
vt 0.024656 0.377569
vt 0.024658 0.377482
vt 0.024401 0.377446
vt 0.024375 0.377484
vt 0.024375 0.377528
vt 0.025179 0.376621
vt 0.025182 0.376569
vt 0.025320 0.376580
vt 0.025351 0.376593
vt 0.025348 0.376635
vt 0.025341 0.378475
vt 0.024971 0.378236
vt 0.024973 0.378274
vt 0.025130 0.378247
vt 0.025078 0.378224
vt 0.025091 0.378261
vt 0.025090 0.378242
vt 0.025521 0.355146
vt 0.024755 0.354200
vt 0.024753 0.354162
vt 0.025523 0.355092
vt 0.024876 0.354146
vt 0.025705 0.355054
vt 0.024878 0.354184
vt 0.025702 0.355108
vt 0.025171 0.379880
vt 0.024971 0.379850
vt 0.024972 0.379791
vt 0.025173 0.379820
vt 0.025629 0.378926
vt 0.025779 0.378941
vt 0.025782 0.378895
vt 0.025632 0.378880
vt 0.025802 0.378832
vt 0.025402 0.378562
vt 0.025395 0.378526
vt 0.025430 0.378533
vt 0.025766 0.378750
vt 0.025802 0.378785
vt 0.025833 0.378767
vt 0.025406 0.378506
vt 0.025544 0.378491
vt 0.025971 0.378742
vt 0.025554 0.378544
vt 0.025970 0.378799
vt 0.024656 0.377569
vt 0.024375 0.377528
vt 0.024375 0.377484
vt 0.024401 0.377446
vt 0.024658 0.377482
vt 0.025179 0.376621
vt 0.025348 0.376635
vt 0.025351 0.376593
vt 0.025320 0.376580
vt 0.025182 0.376569
vt 0.025341 0.378475
vt 0.024973 0.378274
vt 0.024971 0.378236
vt 0.025078 0.378224
vt 0.025130 0.378247
vt 0.025090 0.378242
vt 0.025091 0.378261
vt 0.026187 0.380114
vt 0.025421 0.379167
vt 0.025419 0.379129
vt 0.026189 0.380060
vt 0.025542 0.379114
vt 0.026371 0.380022
vt 0.025544 0.379152
vt 0.026368 0.380076
vt 0.025171 0.379880
vt 0.024971 0.379850
vt 0.024972 0.379791
vt 0.025173 0.379820
vt 0.025629 0.378926
vt 0.025779 0.378941
vt 0.025782 0.378895
vt 0.025632 0.378880
vn -0.016285 -0.000682 0.999867
vn -0.016285 -0.000682 0.999867
vn -0.016285 -0.000682 0.999867
vn -0.016285 -0.000682 0.999867
vn -0.016285 -0.000682 0.999867
vn -0.016285 -0.000682 0.999867
vn -0.000946 1.000000 -0.000134
vn -0.000946 1.000000 -0.000134
vn -0.000946 1.000000 -0.000134
vn -0.000946 1.000000 -0.000134
vn -0.000946 1.000000 -0.000134
vn -0.000946 1.000000 -0.000134
vn 0.010934 -0.001514 -0.999939
vn 0.010934 -0.001514 -0.999939
vn 0.010934 -0.001514 -0.999939
vn 0.010934 -0.001514 -0.999939
vn -0.000949 -1.000000 -0.000181
vn -0.000949 -1.000000 -0.000181
vn -0.000949 -1.000000 -0.000181
vn -0.000949 -1.000000 -0.000181
vn -0.998639 0.000000 -0.052150
vn -0.998639 0.000000 -0.052150
vn -0.998639 0.000000 -0.052150
vn -0.998639 0.000000 -0.052150
vn -0.998639 0.000000 -0.052150
vn 0.998639 -0.000018 0.052148
vn 0.998639 -0.000018 0.052148
vn 0.998639 -0.000018 0.052148
vn 0.998639 -0.000018 0.052148
vn 0.998639 -0.000018 0.052148
vn -0.008659 0.016368 0.999829
vn -0.008659 0.016368 0.999829
vn -0.008659 0.016368 0.999829
vn -0.008659 0.016368 0.999829
vn -0.008659 0.016368 0.999829
vn 0.002489 0.999987 0.004495
vn 0.002489 0.999987 0.004495
vn 0.002489 0.999987 0.004495
vn 0.002489 0.999987 0.004495
vn 0.002489 0.999987 0.004495
vn 0.002489 0.999987 0.004495
vn 0.022706 -0.012387 -0.999665
vn 0.022706 -0.012387 -0.999665
vn 0.022706 -0.012387 -0.999665
vn 0.022706 -0.012387 -0.999665
vn 0.022706 -0.012387 -0.999665
vn 0.002360 -0.999997 0.000449
vn 0.002360 -0.999997 0.000449
vn 0.002360 -0.999997 0.000449
vn 0.002360 -0.999997 0.000449
vn 0.085724 0.788716 0.608752
vn 0.085724 0.788716 0.608752
vn 0.085724 0.788716 0.608752
vn -0.086307 0.718107 -0.690560
vn -0.086307 0.718107 -0.690560
vn -0.086307 0.718107 -0.690560
vn 0.043339 0.856874 0.513700
vn 0.043339 0.856874 0.513700
vn 0.043339 0.856874 0.513700
vn -0.082707 0.840142 0.536023
vn -0.082707 0.840142 0.536023
vn -0.082707 0.840142 0.536023
vn 0.000000 0.000000 1.000000
vn 0.000000 0.000000 1.000000
vn 0.000000 0.000000 1.000000
vn 0.000000 0.000000 1.000000
vn 0.000000 1.000000 0.000000
vn 0.000000 1.000000 0.000000
vn 0.000000 1.000000 0.000000
vn 0.000000 1.000000 0.000000
vn 0.000000 0.000000 -1.000000
vn 0.000000 0.000000 -1.000000
vn 0.000000 0.000000 -1.000000
vn 0.000000 0.000000 -1.000000
vn 0.000000 -1.000000 0.000000
vn 0.000000 -1.000000 0.000000
vn 0.000000 -1.000000 0.000000
vn 0.000000 -1.000000 0.000000
vn 1.000000 0.000000 0.000000
vn 1.000000 0.000000 0.000000
vn 1.000000 0.000000 0.000000
vn 1.000000 0.000000 0.000000
vn -1.000000 0.000000 0.000000
vn -1.000000 0.000000 0.000000
vn -1.000000 0.000000 0.000000
vn -1.000000 0.000000 0.000000
vn 0.017974 -0.001003 0.999838
vn 0.017974 -0.001003 0.999838
vn 0.017974 -0.001003 0.999838
vn 0.017974 -0.001003 0.999838
vn 0.017974 -0.001003 0.999838
vn 0.017974 -0.001003 0.999838
vn 0.000948 1.000000 -0.000117
vn 0.000948 1.000000 -0.000117
vn 0.000948 1.000000 -0.000117
vn 0.000948 1.000000 -0.000117
vn 0.000948 1.000000 -0.000117
vn 0.000948 1.000000 -0.000117
vn -0.011932 -0.001367 -0.999928
vn -0.011932 -0.001367 -0.999928
vn -0.011932 -0.001367 -0.999928
vn -0.011932 -0.001367 -0.999928
vn 0.000951 -1.000000 -0.000159
vn 0.000951 -1.000000 -0.000159
vn 0.000951 -1.000000 -0.000159
vn 0.000951 -1.000000 -0.000159
vn 0.999038 0.000010 -0.043844
vn 0.999038 0.000010 -0.043844
vn 0.999038 0.000010 -0.043844
vn 0.999038 0.000010 -0.043844
vn 0.999038 0.000010 -0.043844
vn -0.999039 -0.000013 0.043840
vn -0.999039 -0.000013 0.043840
vn -0.999039 -0.000013 0.043840
vn -0.999039 -0.000013 0.043840
vn -0.999039 -0.000013 0.043840
vn 0.006724 0.024082 0.999687
vn 0.006724 0.024082 0.999687
vn 0.006724 0.024082 0.999687
vn 0.006724 0.024082 0.999687
vn 0.006724 0.024082 0.999687
vn -0.002484 0.999989 0.003976
vn -0.002484 0.999989 0.003976
vn -0.002484 0.999989 0.003976
vn -0.002484 0.999989 0.003976
vn -0.002484 0.999989 0.003976
vn -0.002484 0.999989 0.003976
vn -0.022488 -0.011081 -0.999686
vn -0.022488 -0.011081 -0.999686
vn -0.022488 -0.011081 -0.999686
vn -0.022488 -0.011081 -0.999686
vn -0.022488 -0.011081 -0.999686
vn -0.002347 -0.999997 0.000391
vn -0.002347 -0.999997 0.000391
vn -0.002347 -0.999997 0.000391
vn -0.002347 -0.999997 0.000391
vn -0.089878 0.821300 0.563372
vn -0.089878 0.821300 0.563372
vn -0.089878 0.821300 0.563372
vn 0.091686 0.756977 -0.646977
vn 0.091686 0.756977 -0.646977
vn 0.091686 0.756977 -0.646977
vn -0.045102 0.881617 0.469806
vn -0.045102 0.881617 0.469806
vn -0.045102 0.881617 0.469806
vn 0.084772 0.866575 0.491795
vn 0.084772 0.866575 0.491795
vn 0.084772 0.866575 0.491795
vn 0.000000 0.000000 1.000000
vn 0.000000 0.000000 1.000000
vn 0.000000 0.000000 1.000000
vn 0.000000 0.000000 1.000000
vn 0.000000 1.000000 0.000000
vn 0.000000 1.000000 0.000000
vn 0.000000 1.000000 0.000000
vn 0.000000 1.000000 0.000000
vn 0.000000 0.000000 -1.000000
vn 0.000000 0.000000 -1.000000
vn 0.000000 0.000000 -1.000000
vn 0.000000 0.000000 -1.000000
vn 0.000000 -1.000000 0.000000
vn 0.000000 -1.000000 0.000000
vn 0.000000 -1.000000 0.000000
vn 0.000000 -1.000000 0.000000
vn 1.000000 0.000000 0.000000
vn 1.000000 0.000000 0.000000
vn 1.000000 0.000000 0.000000
vn 1.000000 0.000000 0.000000
vn -1.000000 0.000000 0.000000
vn -1.000000 0.000000 0.000000
vn -1.000000 0.000000 0.000000
vn -1.000000 0.000000 0.000000
s off
f 1/1/1 3/2/2 14/3/3 17/4/4 19/5/5 9/6/6
f 13/7/7 5/8/8 11/9/9 10/10/10 17/4/11 14/3/12
f 5/8/13 7/11/14 12/12/15 11/9/16
f 7/11/17 1/1/18 9/6/19 12/12/20
f 2/13/21 4/14/22 6/15/23 16/16/24 8/17/25
f 7/18/26 5/19/27 13/20/28 3/21/29 1/22/30
f 18/23/31 4/24/32 2/25/33 9/6/34 19/5/35
f 11/9/36 15/26/37 6/27/38 4/24/39 18/23/40 10/10/41
f 12/12/42 8/28/43 16/29/44 15/26/45 11/9/46
f 9/6/47 2/25/48 8/28/49 12/12/50
f 3/2/51 13/7/52 14/3/53
f 16/29/54 6/27/55 15/26/56
f 10/10/57 18/23/58 19/5/59
f 17/4/60 10/10/61 19/5/62
f 20/30/63 21/31/64 23/32/65 22/33/66
f 22/33/67 23/32/68 25/34/69 24/35/70
f 24/35/71 25/34/72 27/36/73 26/37/74
f 26/37/75 27/36/76 21/31/77 20/30/78
f 21/38/79 27/39/80 25/40/81 23/41/82
f 26/42/83 20/43/84 22/44/85 24/45/86
f 28/46/87 36/47/88 46/48/89 44/49/90 41/50/91 30/51/92
f 40/52/93 41/50/94 44/49/95 37/53/96 38/54/97 32/55/98
f 32/55/99 38/54/100 39/56/101 34/57/102
f 34/57/103 39/56/104 36/47/105 28/46/106
f 29/58/107 35/59/108 43/60/109 33/61/110 31/62/111
f 34/63/112 28/64/113 30/65/114 40/66/115 32/67/116
f 45/68/117 46/48/118 36/47/119 29/69/120 31/70/121
f 38/54/122 37/53/123 45/68/124 31/70/125 33/71/126 42/72/127
f 39/56/128 38/54/129 42/72/130 43/73/131 35/74/132
f 36/47/133 39/56/134 35/74/135 29/69/136
f 30/51/137 41/50/138 40/52/139
f 43/73/140 42/72/141 33/71/142
f 37/53/143 46/48/144 45/68/145
f 44/49/146 46/48/147 37/53/148
f 47/75/149 48/76/150 50/77/151 49/78/152
f 49/78/153 50/77/154 52/79/155 51/80/156
f 51/80/157 52/79/158 54/81/159 53/82/160
f 53/82/161 54/81/162 48/76/163 47/75/164
f 48/83/165 54/84/166 52/85/167 50/86/168
f 53/87/169 47/88/170 49/89/171 51/90/172
