# This file uses centimeters as units for non-parametric coordinates.

v 76.141083 6.191826 -19.610313
v -72.597168 0.000000 -19.610313
v 69.806854 57.787781 -19.610313
v -68.791260 57.787781 -19.610313
v 76.141083 48.800339 22.455864
v -77.421112 57.787781 17.267967
v 76.141083 4.855804 22.455864
v -77.421112 10.865601 22.455864
v -77.421112 41.177902 -19.610313
v -77.421112 57.787781 1.667183
v -77.421112 5.125961 -19.610313
v -77.421112 0.000000 -13.520744
v 70.848724 0.000000 22.455864
v 76.141083 0.000000 16.645515
v 46.323669 0.000000 -19.610306
v 76.141083 0.000000 -12.629196
v -77.421112 0.000000 15.024643
v -51.584930 0.000000 22.455864
v -77.421112 43.016693 22.455864
v -63.929871 57.787781 22.455864
v 54.836182 57.787781 -19.610313
v 17.358795 57.787781 -19.610313
v 41.256195 57.787781 -15.941490
v 42.898224 53.702827 -19.610313
v -18.803894 57.787796 22.455864
v -52.375336 57.787781 22.455864
v -36.690582 57.787781 18.828957
v -36.676300 53.392883 22.455864
v -77.421112 11.150581 -19.610313
v -77.421112 33.256512 -19.610313
v -74.006958 21.310745 -19.610313
v -77.421112 22.798624 -17.639565
v 76.141083 43.927956 22.455864
v 76.141083 12.872692 22.455864
v 76.141083 25.450457 19.188568
v 72.166412 29.532310 22.455864
v 76.141083 57.787788 11.734123
v 69.838470 57.787796 22.455864
v 76.141083 57.787781 -14.141769
v 76.141083 49.928719 -19.610313
vt 0.058969 0.354069
vt 0.058945 0.354079
vt 0.058978 0.354104
vt 0.058198 0.354317
vt 0.058196 0.354292
vt 0.058181 0.354289
vt 0.057142 0.326520
vt 0.057729 0.326504
vt 0.057624 0.326493
vt 0.057125 0.326462
vt 0.056914 0.327024
vt 0.057132 0.326546
vt 0.057049 0.326518
vt 0.056986 0.326515
vt 0.056911 0.326596
vt 0.058136 0.353862
vt 0.058180 0.353730
vt 0.058154 0.353771
vt 0.057065 0.326988
vt 0.056922 0.326507
vt 0.057007 0.326479
vt 0.057070 0.326573
vt 0.057071 0.326918
vt 0.057678 0.327046
vt 0.057635 0.327044
vt 0.057056 0.327078
vt 0.056930 0.327092
vt 0.057053 0.327139
vt 0.057103 0.327143
vt 0.057768 0.327095
vt 0.057876 0.327080
vt 0.057657 0.327019
vt 0.057909 0.327050
vt 0.057669 0.326919
vt 0.057657 0.326979
vt 0.057754 0.326526
vt 0.057812 0.326505
vt 0.057886 0.326535
vt 0.059059 0.354304
vt 0.058899 0.354330
vt 0.059073 0.354315
vt 0.058293 0.354101
vt 0.058419 0.354072
vt 0.058307 0.354048
vt 0.058283 0.353716
vt 0.058342 0.353655
vt 0.058272 0.353660
vt 0.058988 0.353778
vt 0.058912 0.353799
vt 0.058909 0.353773
vt 0.058744 0.353776
vt 0.058471 0.353665
vt 0.058460 0.353663
vt 0.058396 0.353655
vt 0.058553 0.353656
vt 0.058177 0.354256
vt 0.058175 0.354184
vt 0.058182 0.354199
vt 0.058165 0.354135
vt 0.058972 0.354025
vt 0.058981 0.353986
vt 0.058968 0.353959
vt 0.058981 0.353895
vt 0.057641 0.326607
vt 0.057657 0.326826
vt 0.057094 0.326999
vt 0.057072 0.327110
vt 0.057072 0.327069
vt 0.057223 0.326527
vt 0.057640 0.326898
vt 0.057666 0.326580
vt 0.057612 0.326584
vt 0.057875 0.326544
vt 0.057893 0.326571
vt 0.059432 0.354034
vt 0.059250 0.353852
vt 0.059488 0.353877
vt 0.058555 0.353587
vt 0.058488 0.353647
vt 0.058534 0.353521
vn 0.575670 -0.627425 0.524349
vn 0.575670 -0.627425 0.524349
vn 0.575670 -0.627425 0.524349
vn -0.630798 -0.593632 -0.499696
vn -0.630798 -0.593632 -0.499696
vn -0.630798 -0.593632 -0.499696
vn 0.000000 1.000000 0.000000
vn 0.000000 1.000000 0.000000
vn 0.000000 1.000000 0.000000
vn 0.000000 1.000000 0.000000
vn -0.000000 0.000000 1.000000
vn -0.000000 0.000000 1.000000
vn -0.000000 0.000000 1.000000
vn -0.000000 0.000000 1.000000
vn -0.000000 0.000000 1.000000
vn -0.834946 0.433805 -0.338642
vn -0.834946 0.433805 -0.338642
vn -0.834946 0.433805 -0.338642
vn -1.000000 -0.000000 0.000000
vn -1.000000 -0.000000 0.000000
vn -1.000000 -0.000000 0.000000
vn -1.000000 -0.000000 0.000000
vn -1.000000 -0.000000 0.000000
vn -1.000000 -0.000000 0.000000
vn 0.000000 -1.000000 0.000000
vn 0.000000 -1.000000 0.000000
vn 0.000000 -1.000000 0.000000
vn 0.000000 -1.000000 0.000000
vn 0.000000 -1.000000 0.000000
vn 1.000000 -0.000000 0.000000
vn 1.000000 -0.000000 0.000000
vn 1.000000 -0.000000 0.000000
vn 1.000000 -0.000000 0.000000
vn 1.000000 -0.000000 0.000000
vn 1.000000 -0.000000 0.000000
vn 0.000000 0.000000 -1.000000
vn 0.000000 0.000000 -1.000000
vn 0.000000 0.000000 -1.000000
vn 0.000000 0.000000 -1.000000
vn 0.000000 0.000000 -1.000000
vn 0.153514 -0.739265 -0.655683
vn 0.153514 -0.739265 -0.655683
vn 0.153514 -0.739265 -0.655683
vn -0.230993 -0.549254 0.803095
vn -0.230993 -0.549254 0.803095
vn -0.230993 -0.549254 0.803095
vn -0.341058 0.311507 0.886929
vn -0.341058 0.311507 0.886929
vn -0.341058 0.311507 0.886929
vn -0.207429 0.606196 -0.767789
vn -0.207429 0.606196 -0.767789
vn -0.207429 0.606196 -0.767789
vn 0.110086 0.688265 -0.717059
vn 0.110086 0.688265 -0.717059
vn 0.110086 0.688265 -0.717059
vn 0.175515 0.626959 0.759024
vn 0.175515 0.626958 0.759024
vn 0.175515 0.626958 0.759024
vn -0.154564 0.628551 0.762255
vn -0.154564 0.628551 0.762255
vn -0.154564 0.628551 0.762255
vn -0.444662 0.149421 -0.883147
vn -0.444662 0.149421 -0.883147
vn -0.444662 0.149421 -0.883147
vn -0.543778 -0.155414 -0.824713
vn -0.543778 -0.155414 -0.824713
vn -0.543778 -0.155414 -0.824714
vn 0.725389 0.173064 0.666228
vn 0.725389 0.173064 0.666228
vn 0.725389 0.173064 0.666228
vn 0.533433 -0.147282 0.832921
vn 0.533433 -0.147282 0.832921
vn 0.533433 -0.147282 0.832921
vn 1.000000 0.000000 0.000000
vn 1.000000 0.000000 0.000000
vn 1.000000 0.000000 0.000000
vn 1.000000 0.000000 0.000000
vn 1.000000 0.000000 0.000000
vn 1.000000 0.000000 0.000000
vn 1.000000 0.000000 0.000000
vn 1.000000 0.000000 0.000000
vn 1.000000 0.000000 0.000000
vn 0.000000 0.000000 -1.000000
vn 0.000000 0.000000 -1.000000
vn 0.000000 0.000000 -1.000000
vn 0.000000 0.000000 -1.000000
vn 0.000000 0.000000 -1.000000
vn 0.000000 0.000000 -1.000000
vn 0.000000 0.000000 -1.000000
vn 0.000000 0.000000 -1.000000
vn 0.000000 0.000000 -1.000000
vn 0.000000 0.000000 -1.000000
vn 0.000000 0.000000 -1.000000
vn -0.000000 -0.000000 -1.000000
vn -0.000000 -0.000000 -1.000000
vn -0.000000 -0.000000 -1.000000
vn -0.000000 -0.000000 -1.000000
vn -1.000000 -0.000000 0.000000
vn -1.000000 -0.000000 0.000000
vn -1.000000 -0.000000 0.000000
vn -1.000000 -0.000000 0.000000
vn -1.000000 -0.000000 0.000000
vn -1.000000 -0.000000 0.000000
vn -1.000000 -0.000000 0.000000
vn 0.000000 0.000000 1.000000
vn 0.000000 0.000000 1.000000
vn 0.000000 0.000000 1.000000
vn 0.000000 0.000000 1.000000
vn 0.000000 0.000000 1.000000
vn 0.000000 0.000000 1.000000
vn 0.000000 0.000000 1.000000
vn 0.000000 0.000000 1.000000
vn 0.000000 0.000000 1.000000
vn 0.000000 1.000000 -0.000000
vn 0.000000 1.000000 -0.000000
vn 0.000000 1.000000 -0.000000
vn 0.000000 1.000000 -0.000000
vn 0.000000 1.000000 -0.000000
vn 0.000000 1.000000 -0.000000
vn 0.737746 0.517357 0.433673
vn 0.737746 0.517357 0.433673
vn 0.737746 0.517357 0.433673
vn -0.000000 0.000000 1.000000
vn -0.000000 0.000000 1.000000
vn -0.000000 0.000000 1.000000
vn -0.000000 0.000000 1.000000
vn -0.000000 0.000000 1.000000
vn -0.000000 0.000000 1.000000
vn 0.000000 1.000000 -0.000000
vn 0.000000 1.000000 -0.000000
vn 0.000000 1.000000 -0.000000
vn 0.000000 1.000000 -0.000000
vn 0.000000 1.000000 -0.000000
vn -0.000000 1.000000 -0.000001
vn -0.000000 1.000000 -0.000001
vn -0.000000 1.000000 -0.000001
vn -0.000000 1.000000 -0.000001
vn -0.000000 1.000000 -0.000001
vn 0.578193 0.466010 -0.669722
vn 0.578193 0.466010 -0.669722
vn 0.578193 0.466010 -0.669722
vn 0.000000 -1.000000 0.000000
vn 0.000000 -1.000000 0.000000
vn 0.000000 -1.000000 0.000000
vn 0.000000 -1.000000 0.000000
vn 0.000000 -1.000000 0.000000
s off
f 7/1/1 13/2/2 14/3/3
f 2/4/4 12/5/5 11/6/6
f 27/7/7 23/8/8 22/9/9 4/10/10
f 8/11/11 28/12/12 26/13/13 20/14/14 19/15/15
f 9/16/16 10/17/17 4/18/18
f 32/19/19 19/15/20 6/20/21 10/21/22 9/22/23 30/23/24
f 14/24/25 13/25/26 18/26/27 15/30/28 16/31/29
f 7/32/30 14/24/31 16/31/32 1/33/33 35/34/34 34/35/35
f 1/33/36 24/36/37 21/37/38 3/38/39 40/74/40
f 16/39/41 15/40/42 1/41/43
f 17/42/44 18/43/45 8/44/46
f 19/45/47 20/46/48 6/47/49
f 21/48/50 24/49/51 23/50/52
f 23/50/53 24/49/54 22/51/55
f 28/52/56 27/53/57 26/54/58
f 25/55/59 27/53/60 28/52/61
f 29/56/62 32/57/63 31/58/64
f 31/58/65 32/57/66 30/59/67
f 34/60/68 35/61/69 36/62/70
f 36/62/71 35/61/72 33/63/73
f 35/34/74 40/74/75 39/73/76 37/71/77 5/64/78 33/65/79
f 35/34/80 1/33/81 40/74/82
f 24/36/83 31/66/84 30/23/85 9/22/86 4/10/87 22/9/88
f 31/66/89 15/30/90 2/29/91 11/67/92 29/68/93
f 1/33/94 15/30/95 31/66/96 24/36/97
f 11/67/98 12/28/99 17/27/100 8/11/101 19/15/102 32/19/103 29/68/104
f 36/70/105 18/26/106 13/25/107 7/32/108 34/35/109
f 36/70/110 28/12/111 8/11/112 18/26/113
f 27/7/114 4/10/115 10/21/116 6/20/117 20/14/118 26/13/119
f 5/75/120 37/76/121 38/77/122
f 5/64/123 38/72/124 25/69/125 28/12/126 36/70/127 33/65/128
f 37/71/129 39/73/130 3/38/131 21/37/132 23/8/133
f 38/72/134 37/71/135 23/8/136 27/7/137 25/69/138
f 39/78/139 40/79/140 3/80/141
f 15/30/142 18/26/143 17/27/144 12/28/145 2/29/146
