# This file uses centimeters as units for non-parametric coordinates.

v -100.000000 -9.778367 7.170813
v 100.000000 -9.778367 7.170813
v -100.000000 9.778367 7.170813
v 100.000000 9.778367 7.170813
v -100.000000 9.778367 -7.170813
v 100.000000 9.778367 -7.170813
v -100.000000 -9.778367 -7.170813
v 100.000000 -9.778367 -7.170813
v -100.000000 4.888695 7.170813
v -100.000000 -4.888690 7.170813
v -100.000000 -4.888690 -7.170813
v -100.000000 4.888695 -7.170813
v 100.000000 -4.888690 -7.170813
v 100.000000 4.888695 -7.170813
v 100.000000 -4.888690 7.170813
v 100.000000 4.888695 7.170813
v -100.000000 4.888695 2.151076
v -100.000000 4.888695 -2.151010
v -100.000000 -4.888690 2.151076
v -100.000000 -4.888690 -2.151010
v 100.000000 -4.888690 2.151076
v 100.000000 -4.888690 -2.151010
v 100.000000 4.888695 2.151076
v 100.000000 4.888695 -2.151010
vt 0.145285 0.212680
vt 0.144364 0.212249
vt 0.144363 0.212228
vt 0.145286 0.212650
vt 0.145355 0.212628
vt 0.144420 0.212219
vt 0.144421 0.212239
vt 0.145353 0.212658
vt 0.145361 0.212538
vt 0.144418 0.212155
vt 0.144418 0.212176
vt 0.145359 0.212568
vt 0.145290 0.212589
vt 0.144361 0.212186
vt 0.144361 0.212164
vt 0.145291 0.212558
vt 0.145335 0.212575
vt 0.145314 0.212582
vt 0.145331 0.212636
vt 0.145311 0.212642
vt 0.144400 0.212222
vt 0.144383 0.212225
vt 0.144399 0.212180
vt 0.144382 0.212182
vn 0.000000 -0.000000 1.000000
vn 0.000000 -0.000000 1.000000
vn 0.000000 -0.000000 1.000000
vn 0.000000 -0.000000 1.000000
vn 0.000000 0.000000 -1.000000
vn 0.000000 0.000000 -1.000000
vn 0.000000 0.000000 -1.000000
vn 0.000000 0.000000 -1.000000
vn 0.000000 0.000000 -1.000000
vn 0.000000 0.000000 -1.000000
vn 0.000000 0.000000 -1.000000
vn 0.000000 0.000000 -1.000000
vn 0.000000 -0.000000 1.000000
vn 0.000000 -0.000000 1.000000
vn 0.000000 -0.000000 1.000000
vn 0.000000 -0.000000 1.000000
vn 0.000000 1.000000 0.000000
vn 0.000000 1.000000 0.000000
vn 0.000000 1.000000 0.000000
vn 0.000000 1.000000 0.000000
vn -1.000000 0.000000 0.000000
vn -1.000000 0.000000 0.000000
vn -1.000000 0.000000 0.000000
vn -1.000000 0.000000 0.000000
vn -1.000000 0.000000 0.000000
vn -1.000000 0.000000 0.000000
vn -1.000000 0.000000 0.000000
vn -1.000000 0.000000 0.000000
vn -1.000000 -0.000003 -0.000000
vn -1.000000 -0.000003 -0.000000
vn -1.000000 -0.000003 -0.000000
vn -1.000000 -0.000003 -0.000000
vn 0.000000 -1.000000 -0.000000
vn 0.000000 -1.000000 -0.000000
vn 0.000000 -1.000000 -0.000000
vn 0.000000 -1.000000 -0.000000
vn 1.000000 0.000000 0.000000
vn 1.000000 0.000000 0.000000
vn 1.000000 0.000000 0.000000
vn 1.000000 0.000000 0.000000
vn 1.000000 0.000000 0.000000
vn 1.000000 0.000000 0.000000
vn 1.000000 0.000000 0.000000
vn 1.000000 0.000000 0.000000
vn 1.000000 0.000003 0.000000
vn 1.000000 0.000003 0.000000
vn 1.000000 0.000003 0.000000
vn 1.000000 0.000003 0.000000
vn 1.000000 0.000000 0.000000
vn 1.000000 0.000000 0.000000
vn 1.000000 0.000000 0.000000
vn -1.000000 0.000000 0.000000
vn -1.000000 0.000000 0.000000
vn -1.000000 0.000000 0.000000
vn -1.000000 0.000000 0.000000
vn -1.000000 0.000000 0.000000
vn -1.000000 0.000000 0.000000
vn 1.000000 0.000000 0.000000
vn 1.000000 0.000000 0.000000
vn 1.000000 0.000000 0.000000
vn -1.000000 0.000000 0.000000
vn -1.000000 0.000000 0.000000
vn -1.000000 0.000000 0.000000
vn -1.000000 0.000000 0.000000
vn -1.000000 0.000000 0.000000
vn -1.000000 0.000000 0.000000
vn 1.000000 0.000000 0.000000
vn 1.000000 0.000000 0.000000
vn 1.000000 0.000000 0.000000
vn 1.000000 0.000000 0.000000
vn 1.000000 0.000000 0.000000
vn 1.000000 0.000000 0.000000
vn 0.000000 -1.000000 -0.000000
vn 0.000000 -1.000000 -0.000000
vn 0.000000 -1.000000 -0.000000
vn 0.000000 -1.000000 -0.000000
vn 0.000000 -0.000000 1.000000
vn 0.000000 -0.000000 1.000000
vn 0.000000 -0.000000 1.000000
vn 0.000000 -0.000000 1.000000
vn 0.000000 1.000000 0.000000
vn 0.000000 1.000000 0.000000
vn 0.000000 1.000000 0.000000
vn 0.000000 1.000000 0.000000
vn 0.000000 1.000000 0.000000
vn 0.000000 1.000000 0.000000
vn 0.000000 1.000000 0.000000
vn 0.000000 1.000000 0.000000
vn 0.000000 0.000000 -1.000000
vn 0.000000 0.000000 -1.000000
vn 0.000000 0.000000 -1.000000
vn 0.000000 0.000000 -1.000000
vn 0.000000 -1.000000 -0.000000
vn 0.000000 -1.000000 -0.000000
vn 0.000000 -1.000000 -0.000000
vn 0.000000 -1.000000 -0.000000
s off
f 1/1/1 2/2/2 15/3/3 10/4/4
f 11/5/5 13/6/6 8/7/7 7/8/8
f 5/9/9 6/10/10 14/11/11 12/12/12
f 9/13/13 16/14/14 4/15/15 3/16/16
f 5/9/17 3/16/18 4/15/19 6/10/20
f 3/16/21 5/9/22 18/17/23 17/18/24
f 17/18/25 18/17/26 20/19/27 19/20/28
f 19/20/29 20/19/30 7/8/31 1/1/32
f 1/1/33 7/8/34 8/7/35 2/2/36
f 2/2/37 8/7/38 22/21/39 21/22/40
f 21/22/41 22/21/42 24/23/43 23/24/44
f 23/24/45 24/23/46 6/10/47 4/15/48
f 2/2/49 21/22/50 15/3/51
f 1/1/52 10/4/53 19/20/54
f 17/18/55 9/13/56 3/16/57
f 16/14/58 23/24/59 4/15/60
f 12/12/61 18/17/62 5/9/63
f 7/8/64 20/19/65 11/5/66
f 22/21/67 8/7/68 13/6/69
f 6/10/70 24/23/71 14/11/72
f 9/13/73 17/18/74 23/24/75 16/14/76
f 17/18/77 19/20/78 21/22/79 23/24/80
f 19/20/81 10/4/82 15/3/83 21/22/84
f 11/5/85 20/19/86 22/21/87 13/6/88
f 20/19/89 18/17/90 24/23/91 22/21/92
f 18/17/93 12/12/94 14/11/95 24/23/96
