# This file uses centimeters as units for non-parametric coordinates.

v -20.268219 -20.060194 2.772808
v 18.988373 -20.060194 2.772808
v -20.268219 20.060143 2.772808
v 18.988373 20.060143 2.772808
v -20.268219 20.060143 0.072742
v 18.988373 20.060143 0.072742
v -20.268219 -20.060194 0.072742
v 18.988373 -20.060194 0.072742
v -15.935119 -20.060194 2.772808
v -15.935119 -20.060194 0.072742
v -15.935119 20.060143 0.072742
v -15.935119 20.060143 2.772808
v 1.434422 -20.060194 2.772808
v 1.434422 20.060143 2.772808
v 1.434422 20.060143 0.072742
v 1.434422 -20.060194 0.072742
v -20.268219 0.000000 2.772808
v -1.315283 0.000000 2.772808
v 16.054295 0.000000 2.772808
v 18.988373 0.000000 2.772808
v 18.988373 0.000000 0.072742
v 16.054295 0.000000 0.072742
v -1.315283 0.000000 0.072742
v -20.268219 0.000000 0.072742
v 20.601765 -0.000002 2.772808
v 20.601765 -0.000002 0.072742
v 20.601765 18.643154 0.072742
v 20.601765 18.643154 2.772808
v 20.601765 -18.643204 0.072742
v 20.601765 -18.643204 2.772808
v -21.881611 -0.000002 0.072742
v -21.881611 -0.000002 2.772808
v -21.881611 18.643154 2.772808
v -21.881611 18.643154 0.072742
v -21.881611 -18.643204 0.072742
v -21.881611 -18.643204 2.772808
vt 0.306241 0.024677
vt 0.306221 0.025146
vt 0.305796 0.025139
vt 0.305797 0.024672
vt 0.306238 0.024667
vt 0.305799 0.024662
vt 0.305797 0.025125
vt 0.306219 0.025132
vt 0.306204 0.025579
vt 0.306201 0.025561
vt 0.305796 0.025553
vt 0.305794 0.025571
vt 0.305437 0.025134
vt 0.305441 0.025119
vt 0.305428 0.024658
vt 0.305423 0.024668
vt 0.306393 0.025134
vt 0.306397 0.025149
vt 0.306423 0.024679
vt 0.306419 0.024669
vt 0.306368 0.025565
vt 0.306372 0.025583
vt 0.305454 0.025546
vt 0.305449 0.025564
vt 0.318011 0.024178
vt 0.317990 0.024689
vt 0.317526 0.024682
vt 0.317528 0.024173
vt 0.318008 0.024166
vt 0.317530 0.024161
vt 0.317528 0.024666
vt 0.317988 0.024673
vt 0.317971 0.025161
vt 0.317968 0.025142
vt 0.317526 0.025133
vt 0.317525 0.025152
vt 0.305441 0.025119
vt 0.305428 0.024658
vt 0.305423 0.024668
vt 0.305437 0.025134
vt 0.306397 0.025149
vt 0.306423 0.024679
vt 0.306419 0.024669
vt 0.306393 0.025134
vt 0.305449 0.025564
vt 0.305454 0.025546
vt 0.306368 0.025565
vt 0.306372 0.025583
vt 0.306397 0.025149
vt 0.306423 0.024679
vt 0.306423 0.024679
vt 0.306397 0.025149
vt 0.306423 0.024679
vt 0.306419 0.024669
vt 0.306419 0.024669
vt 0.306423 0.024679
vt 0.306419 0.024669
vt 0.306393 0.025134
vt 0.306393 0.025134
vt 0.306419 0.024669
vt 0.305449 0.025564
vt 0.305454 0.025546
vt 0.305454 0.025546
vt 0.305449 0.025564
vt 0.305454 0.025546
vt 0.305441 0.025119
vt 0.305441 0.025119
vt 0.305454 0.025546
vt 0.305437 0.025134
vt 0.305449 0.025564
vt 0.305449 0.025564
vt 0.305437 0.025134
vn 0.000000 0.000000 1.000000
vn 0.000000 0.000000 1.000000
vn 0.000000 0.000000 1.000000
vn 0.000000 0.000000 1.000000
vn 0.000000 1.000000 0.000000
vn 0.000000 1.000000 0.000000
vn 0.000000 1.000000 0.000000
vn 0.000000 1.000000 0.000000
vn 0.000000 0.000000 -1.000000
vn 0.000000 0.000000 -1.000000
vn 0.000000 0.000000 -1.000000
vn 0.000000 0.000000 -1.000000
vn 0.000000 -1.000000 0.000000
vn 0.000000 -1.000000 0.000000
vn 0.000000 -1.000000 0.000000
vn 0.000000 -1.000000 0.000000
vn 1.000000 0.000000 0.000000
vn 1.000000 0.000000 0.000000
vn 1.000000 0.000000 0.000000
vn 1.000000 0.000000 0.000000
vn -1.000000 0.000000 0.000000
vn -1.000000 0.000000 0.000000
vn -1.000000 0.000000 0.000000
vn -1.000000 0.000000 0.000000
vn 0.000000 -1.000000 0.000000
vn 0.000000 -1.000000 0.000000
vn 0.000000 -1.000000 0.000000
vn 0.000000 -1.000000 0.000000
vn 0.000000 0.000000 -1.000000
vn 0.000000 0.000000 -1.000000
vn 0.000000 0.000000 -1.000000
vn 0.000000 0.000000 -1.000000
vn 0.000000 1.000000 0.000000
vn 0.000000 1.000000 0.000000
vn 0.000000 1.000000 0.000000
vn 0.000000 1.000000 0.000000
vn 0.000000 0.000000 1.000000
vn 0.000000 0.000000 1.000000
vn 0.000000 0.000000 1.000000
vn 0.000000 0.000000 1.000000
vn 0.000000 0.000000 1.000000
vn 0.000000 0.000000 1.000000
vn 0.000000 0.000000 1.000000
vn 0.000000 0.000000 1.000000
vn 0.000000 1.000000 0.000000
vn 0.000000 1.000000 0.000000
vn 0.000000 1.000000 0.000000
vn 0.000000 1.000000 0.000000
vn 0.000000 0.000000 -1.000000
vn 0.000000 0.000000 -1.000000
vn 0.000000 0.000000 -1.000000
vn 0.000000 0.000000 -1.000000
vn 0.000000 -1.000000 0.000000
vn 0.000000 -1.000000 0.000000
vn 0.000000 -1.000000 0.000000
vn 0.000000 -1.000000 0.000000
vn 0.000000 0.000000 1.000000
vn 0.000000 0.000000 1.000000
vn 0.000000 0.000000 1.000000
vn 0.000000 0.000000 1.000000
vn 0.000000 0.000000 1.000000
vn 0.000000 0.000000 1.000000
vn 0.000000 0.000000 1.000000
vn 0.000000 0.000000 1.000000
vn 0.000000 0.000000 1.000000
vn 0.000000 0.000000 1.000000
vn 0.000000 0.000000 1.000000
vn 0.000000 0.000000 1.000000
vn 1.000000 0.000000 0.000000
vn 1.000000 0.000000 0.000000
vn 1.000000 0.000000 0.000000
vn 1.000000 0.000000 0.000000
vn 0.000000 0.000000 -1.000000
vn 0.000000 0.000000 -1.000000
vn 0.000000 0.000000 -1.000000
vn 0.000000 0.000000 -1.000000
vn 0.000000 0.000000 -1.000000
vn 0.000000 0.000000 -1.000000
vn 0.000000 0.000000 -1.000000
vn 0.000000 0.000000 -1.000000
vn 0.000000 0.000000 -1.000000
vn 0.000000 0.000000 -1.000000
vn 0.000000 0.000000 -1.000000
vn 0.000000 0.000000 -1.000000
vn -1.000000 0.000000 0.000000
vn -1.000000 0.000000 0.000000
vn -1.000000 0.000000 0.000000
vn -1.000000 0.000000 0.000000
vn -0.000000 0.000000 -1.000000
vn -0.000000 0.000000 -1.000000
vn -0.000000 0.000000 -1.000000
vn -0.000000 0.000000 -1.000000
vn 0.659894 0.751359 0.000000
vn 0.659894 0.751359 0.000000
vn 0.659894 0.751359 0.000000
vn 0.659894 0.751359 0.000000
vn -0.000000 0.000000 1.000000
vn -0.000000 0.000000 1.000000
vn -0.000000 0.000000 1.000000
vn -0.000000 0.000000 1.000000
vn 0.659894 -0.751358 0.000000
vn 0.659894 -0.751358 0.000000
vn 0.659894 -0.751358 0.000000
vn 0.659894 -0.751358 0.000000
vn -0.000000 0.000000 -1.000000
vn -0.000000 0.000000 -1.000000
vn -0.000000 0.000000 -1.000000
vn -0.000000 0.000000 -1.000000
vn 0.000000 0.000000 1.000000
vn 0.000000 0.000000 1.000000
vn 0.000000 0.000000 1.000000
vn 0.000000 0.000000 1.000000
vn -0.000000 0.000000 1.000000
vn -0.000000 0.000000 1.000000
vn -0.000000 0.000000 1.000000
vn -0.000000 0.000000 1.000000
vn -0.659894 0.751359 0.000000
vn -0.659894 0.751359 0.000000
vn -0.659894 0.751359 0.000000
vn -0.659894 0.751359 0.000000
vn -0.000000 0.000000 -1.000000
vn -0.000000 0.000000 -1.000000
vn -0.000000 0.000000 -1.000000
vn -0.000000 0.000000 -1.000000
vn -0.659894 -0.751358 0.000000
vn -0.659894 -0.751358 0.000000
vn -0.659894 -0.751358 0.000000
vn -0.659894 -0.751358 0.000000
vn -0.000000 0.000000 1.000000
vn -0.000000 0.000000 1.000000
vn -0.000000 0.000000 1.000000
vn -0.000000 0.000000 1.000000
vn -0.000000 0.000000 -1.000000
vn -0.000000 0.000000 -1.000000
vn -0.000000 0.000000 -1.000000
vn -0.000000 0.000000 -1.000000
s off
f 12/25/1 18/26/2 19/27/3 14/28/4
f 11/29/5 12/25/6 14/28/7 15/30/8
f 22/31/9 23/32/10 11/29/11 15/30/12
f 9/33/13 10/34/14 16/35/15 13/36/16
f 25/40/17 26/37/18 27/38/19 28/39/20
f 31/44/21 32/41/22 33/42/23 34/43/24
f 7/21/25 10/10/26 9/9/27 1/22/28
f 5/20/29 11/5/30 23/8/31 24/17/32
f 3/19/33 12/1/34 11/5/35 5/20/36
f 17/18/37 18/2/38 12/1/39 3/19/40
f 14/4/41 19/3/42 20/13/43 4/16/44
f 15/6/45 14/4/46 4/16/47 6/15/48
f 21/14/49 22/7/50 15/6/51 6/15/52
f 13/12/53 16/11/54 8/23/55 2/24/56
f 1/22/57 9/9/58 18/2/59 17/18/60
f 19/27/61 18/26/62 9/33/63 13/36/64
f 20/13/65 19/3/66 13/12/67 2/24/68
f 30/45/69 29/46/70 26/37/71 25/40/72
f 16/11/73 22/7/74 21/14/75 8/23/76
f 10/34/77 23/32/78 22/31/79 16/35/80
f 24/17/81 23/8/82 10/10/83 7/21/84
f 35/47/85 36/48/86 32/41/87 31/44/88
f 21/14/89 6/15/90 27/38/91 26/37/92
f 6/15/93 4/16/94 28/39/95 27/38/96
f 4/16/97 20/13/98 25/40/99 28/39/100
f 2/49/101 8/50/102 29/51/103 30/52/104
f 8/53/105 21/54/106 26/55/107 29/56/108
f 20/57/109 2/58/110 30/59/111 25/60/112
f 17/61/113 3/62/114 33/63/115 32/64/116
f 3/65/117 5/66/118 34/67/119 33/68/120
f 5/69/121 24/70/122 31/71/123 34/72/124
f 7/21/125 1/22/126 36/48/127 35/47/128
f 1/22/129 17/18/130 32/41/131 36/48/132
f 24/17/133 7/21/134 35/47/135 31/44/136
