# This file uses centimeters as units for non-parametric coordinates.

v -13.408075 0.461936 -2.997475
v 2.861326 0.461936 6.194283
v -2.819369 0.461936 16.249115
v -23.259554 0.461936 14.439636
v -12.647264 0.461936 19.581604
v -22.406794 0.932288 6.858795
v -4.042841 0.932288 3.402382
v -9.595606 0.932288 -26.099491
v -21.340616 0.932288 -23.888878
v -26.943644 0.932288 -17.245514
v -23.331644 2.177921 1.945045
v -5.945284 2.177921 -6.705303
v 25.663610 0.638003 16.228508
v 11.971579 0.638003 28.945038
v 17.447210 0.638003 7.381821
v 3.755178 0.638003 20.098351
v 12.152617 0.808918 12.999382
v 20.369017 0.808918 21.846069
v 4.942327 0.461936 -9.499268
v 21.494963 0.461936 -13.694355
v 6.899587 0.461936 -3.021057
v 23.452223 0.461936 -7.216148
vt 0.294198 0.279511
vt 0.317149 0.279511
vt 0.317149 0.268047
vt 0.294198 0.259630
vt 0.308653 0.260368
vt 0.318364 0.249711
vt 0.341316 0.249711
vt 0.341316 0.259921
vt 0.318364 0.254675
vt 0.341316 0.279511
vt 0.326637 0.279511
vt 0.318364 0.274059
vt 0.318364 0.257197
vt 0.327825 0.257197
vt 0.327825 0.269182
vt 0.318364 0.269182
vt 0.341316 0.257197
vt 0.341316 0.269182
vt 0.294198 0.253111
vt 0.317149 0.253111
vt 0.317149 0.259829
vt 0.294198 0.259829
vn 0.000000 1.000000 0.000000
vn 0.000000 1.000000 0.000000
vn 0.000000 1.000000 0.000000
vn 0.000000 1.000000 0.000000
vn 0.000000 1.000000 0.000000
vn 0.052097 0.986722 0.153840
vn 0.052097 0.986722 0.153840
vn -0.011204 0.999866 -0.011969
vn -0.000342 0.999863 0.016523
vn -0.027229 0.998168 -0.054030
vn -0.027229 0.998168 -0.054030
vn -0.027229 0.998168 -0.054030
vn 0.016255 0.999754 -0.015097
vn 0.000082 1.000000 -0.000076
vn -0.000088 1.000000 0.000081
vn 0.016255 0.999754 -0.015097
vn -0.011400 0.999879 0.010588
vn -0.011400 0.999879 0.010588
vn 0.000000 1.000000 0.000000
vn 0.000000 1.000000 0.000000
vn 0.000000 1.000000 0.000000
vn 0.000000 1.000000 0.000000
s off
f 4/4/1 5/5/2 3/3/3 2/2/4 1/1/5
s 1
f 6/6/6 7/7/7 12/8/8 11/9/9
f 11/9/9 12/8/8 8/10/10 9/11/11 10/12/12
s 2
f 15/13/13 17/14/14 18/15/15 13/16/16
f 18/15/15 17/14/14 16/17/17 14/18/18
s off
f 21/19/19 22/20/20 20/21/21 19/22/22
