# This file uses centimeters as units for non-parametric coordinates.

v -91.489105 0.000000 121.050552
v 91.489105 0.000000 121.050552
v -91.489105 35.671860 121.050552
v 91.489105 35.671860 121.050552
v -91.489105 35.671860 -121.050552
v 91.489105 35.671860 -121.050552
v -91.489105 0.000000 -121.050552
v 91.489105 0.000000 -121.050552
v -87.257904 35.671860 116.819344
v 87.257904 35.671860 116.819344
v 87.257904 35.671860 -116.819344
v -87.257904 35.671860 -116.819344
v -87.257904 21.870085 116.819344
v 87.257904 21.870085 116.819344
v 87.257904 21.870085 -116.819344
v -87.257904 21.870085 -116.819344
v 56.081066 21.870087 -93.738068
v 68.772247 21.870087 -67.679016
v 61.900776 21.870087 -24.510498
v 72.773033 21.870087 39.225449
v 72.678406 21.870087 86.773010
v 60.157909 21.870087 102.630714
v 25.590820 21.870087 100.877357
v -5.037170 21.870087 103.956528
v -45.628235 21.870087 105.977562
v -62.322891 21.870087 87.846016
v -72.264076 21.870087 49.985058
v -63.115700 21.870087 7.085836
v -68.347672 21.870087 -39.115704
v -71.277458 21.870087 -89.662247
v -41.025673 21.870087 -103.595146
v -6.265668 21.870087 -100.752762
v 25.359188 21.870087 -105.989578
v 87.257904 21.870085 -24.051260
v 85.092896 31.261459 -24.051260
v 89.324097 31.261459 -22.350847
v 91.489105 0.000000 -22.350847
v -91.489105 0.000000 48.647308
v -87.257904 21.870085 46.946892
v -91.489105 28.771662 48.647308
v -91.489105 35.671860 -72.660156
v -91.489105 35.671860 77.798203
v -87.257904 28.771662 46.946892
v -87.257904 35.671860 -74.360573
v -87.257904 35.671860 76.097794
v 12.959895 21.870085 116.819344
v 31.842562 32.195168 116.819344
v 32.471004 32.195168 121.050552
v 13.588336 0.000000 121.050552
v 13.588332 0.000000 7.875765
v 13.588336 0.000000 -121.050552
v 13.588336 33.293991 -119.106178
v 12.959895 33.293991 -114.874977
v 12.959895 21.870085 -116.819344
v 92.603287 18.033615 -122.524750
v 13.753820 16.817587 -121.530396
v -92.603287 18.033615 -122.524750
vt 0.090273 0.300459
vt 0.090419 0.300134
vt 0.090412 0.300046
vt 0.090425 0.300086
vt 0.091081 0.300119
vt 0.091207 0.300454
vt 0.091100 0.300078
vt 0.091079 0.300168
vt 0.090421 0.300051
vt 0.091090 0.300083
vt 0.203379 0.400017
vt 0.203450 0.400120
vt 0.203446 0.400234
vt 0.203482 0.400367
vt 0.203436 0.400492
vt 0.203187 0.400483
vt 0.202960 0.400465
vt 0.202750 0.400507
vt 0.202566 0.400468
vt 0.202482 0.400401
vt 0.202504 0.400244
vt 0.202526 0.400133
vt 0.202526 0.400016
vt 0.202597 0.399974
vt 0.202801 0.399971
vt 0.203077 0.400002
vt 0.203260 0.399977
vt 0.177113 0.229313
vt 0.177067 0.229239
vt 0.177913 0.229227
vt 0.177843 0.229314
vt 0.177742 0.229280
vt 0.177585 0.229301
vt 0.177348 0.229274
vt 0.177174 0.229277
vt 0.178017 0.229778
vt 0.177892 0.229721
vt 0.177932 0.229614
vt 0.177901 0.229500
vt 0.177904 0.229402
vt 0.177017 0.229794
vt 0.177146 0.229701
vt 0.177305 0.229734
vt 0.177484 0.229698
vt 0.177679 0.229714
vt 0.177112 0.229413
vt 0.177093 0.229508
vt 0.177075 0.229643
vt 0.177320 0.229235
vt 0.090621 0.300096
vt 0.090621 0.300061
vt 0.090618 0.300055
vt 0.090711 0.300148
vt 0.177316 0.229789
vt 0.091206 0.300532
vt 0.090556 0.300482
vt 0.091222 0.300411
vt 0.090554 0.300409
vt 0.090268 0.300347
vt 0.090276 0.300389
vt 0.091246 0.300424
vt 0.090246 0.300356
vt 0.090803 0.300394
vt 0.090476 0.300361
vt 0.090514 0.300374
vt 0.090559 0.300398
vt 0.090584 0.300368
vt 0.090546 0.300387
vt 0.177045 0.229475
vt 0.090361 0.300215
vt 0.090356 0.300177
vt 0.090341 0.300178
vt 0.090359 0.300274
vt 0.090588 0.300288
vt 0.091133 0.300323
vt 0.091162 0.300225
vt 0.091146 0.300222
vt 0.091135 0.300261
vt 0.177957 0.229461
vt 0.091090 0.300122
vt 0.091148 0.300273
vt 0.091226 0.300477
vn -0.000000 0.000000 1.000000
vn -0.000000 0.000000 1.000000
vn -0.000000 0.000000 1.000000
vn -0.000000 0.000000 1.000000
vn 0.000000 1.000000 -0.000000
vn 0.000000 1.000000 -0.000000
vn 0.000000 1.000000 -0.000000
vn 0.000000 1.000000 0.000000
vn 0.000000 1.000000 0.000000
vn 0.000000 1.000000 0.000000
vn 0.000000 1.000000 0.000000
vn 0.000000 1.000000 0.000000
vn 0.000000 1.000000 0.000000
vn 0.000000 1.000000 0.000000
vn -0.021209 0.112724 -0.993400
vn -0.021209 0.112724 -0.993400
vn -0.021209 0.112724 -0.993400
vn -0.021209 0.112724 -0.993400
vn 0.000000 -1.000000 0.000000
vn 0.000000 -1.000000 0.000000
vn 0.000000 -1.000000 0.000000
vn 0.000000 -1.000000 0.000000
vn 0.997522 0.066172 0.023916
vn 0.997522 0.066172 0.023916
vn 0.997522 0.066172 0.023916
vn 0.997522 0.066172 0.023916
vn -0.999819 0.018240 0.005364
vn -0.999819 0.018240 0.005364
vn -0.999819 0.018240 0.005364
vn -0.999819 0.018240 0.005364
vn -0.060615 0.997554 0.034809
vn -0.060615 0.997554 0.034809
vn -0.060615 0.997554 0.034809
vn -0.060615 0.997554 0.034809
vn 0.013855 0.998830 0.046329
vn 0.013855 0.998830 0.046329
vn 0.013855 0.998830 0.046329
vn 0.013855 0.998830 0.046329
vn -0.031691 0.999332 -0.018199
vn -0.031691 0.999332 -0.018199
vn -0.031691 0.999332 -0.018199
vn -0.031691 0.999332 -0.018199
vn 0.000000 1.000000 0.000000
vn 0.000000 1.000000 0.000000
vn 0.000000 1.000000 0.000000
vn 0.000000 1.000000 0.000000
vn 0.000000 0.000000 -1.000000
vn 0.000000 0.000000 -1.000000
vn 0.000000 0.000000 -1.000000
vn 0.000000 0.000000 -1.000000
vn -0.995576 -0.092934 -0.013826
vn -0.995576 -0.092934 -0.013826
vn -0.995576 -0.092934 -0.013826
vn -0.995576 -0.092934 -0.013826
vn 0.014274 -0.076843 0.996941
vn 0.014274 -0.076843 0.996941
vn 0.014274 -0.076843 0.996941
vn 0.014274 -0.076843 0.996941
vn 1.000000 0.000000 0.000000
vn 1.000000 0.000000 0.000000
vn 1.000000 0.000000 0.000000
vn -0.000000 1.000000 0.000000
vn -0.000000 1.000000 0.000000
vn -0.000000 1.000000 0.000000
vn 0.000000 1.000000 -0.000000
vn 0.000000 1.000000 -0.000000
vn 0.000000 1.000000 -0.000000
vn 0.000000 1.000000 -0.000000
vn 0.000000 1.000000 0.000000
vn 0.000000 1.000000 0.000000
vn 0.000000 1.000000 0.000000
vn 0.000000 1.000000 0.000000
vn 0.000000 1.000000 0.000000
vn 0.000000 1.000000 0.000000
vn 0.000000 1.000000 0.000000
vn 0.000000 1.000000 0.000000
vn 0.000000 1.000000 0.000000
vn 0.000000 1.000000 0.000000
vn 0.000000 1.000000 0.000000
vn 0.000000 1.000000 0.000000
vn 0.000000 1.000000 0.000000
vn 0.000000 1.000000 0.000000
vn 0.000000 1.000000 0.000000
vn 0.000000 1.000000 -0.000000
vn 0.000000 1.000000 -0.000000
vn 0.000000 1.000000 -0.000000
vn 0.000000 1.000000 0.000000
vn 0.000000 1.000000 0.000000
vn 0.000000 1.000000 0.000000
vn 0.000000 1.000000 0.000000
vn 0.000000 1.000000 0.000000
vn 0.000000 1.000000 0.000000
vn 0.000000 1.000000 0.000000
vn 0.000000 1.000000 0.000000
vn 0.000000 1.000000 -0.000000
vn 0.000000 1.000000 -0.000000
vn 0.000000 1.000000 -0.000000
vn 0.000000 1.000000 -0.000000
vn 0.000000 1.000000 0.000000
vn 0.000000 1.000000 0.000000
vn 0.000000 1.000000 0.000000
vn 0.000000 1.000000 0.000000
vn -0.000000 1.000000 0.000000
vn -0.000000 1.000000 0.000000
vn -0.000000 1.000000 0.000000
vn -0.000000 1.000000 0.000000
vn -0.000000 1.000000 0.000000
vn -0.000000 1.000000 0.000000
vn -0.000000 1.000000 0.000000
vn -0.000000 1.000000 0.000000
vn -0.000000 1.000000 0.000000
vn -0.000000 1.000000 0.000000
vn -0.000000 1.000000 0.000000
vn 0.000000 1.000000 0.000001
vn 0.000000 1.000000 0.000001
vn 0.000000 1.000000 0.000001
vn -0.000000 1.000000 0.000000
vn -0.000000 1.000000 0.000000
vn -0.000000 1.000000 0.000000
vn -0.995630 -0.092939 0.009106
vn -0.995630 -0.092939 0.009106
vn -0.995630 -0.092939 0.009106
vn -0.995630 -0.092939 0.009106
vn 0.021968 0.999267 -0.031341
vn 0.021968 0.999267 -0.031341
vn 0.021968 0.999267 -0.031341
vn 0.021968 0.999267 -0.031341
vn 0.999445 0.032328 -0.008042
vn 0.999445 0.032328 -0.008042
vn 0.999445 0.032328 -0.008042
vn 0.999445 0.032328 -0.008042
vn 0.000000 -1.000000 0.000000
vn 0.000000 -1.000000 0.000000
vn 0.000000 -1.000000 0.000000
vn 0.000000 -1.000000 0.000000
vn 0.000000 1.000000 0.000000
vn 0.000000 1.000000 0.000000
vn 0.000000 1.000000 0.000000
vn 0.000000 1.000000 0.000000
vn 1.000000 0.000000 0.000000
vn 1.000000 0.000000 0.000000
vn 1.000000 0.000000 0.000000
vn 1.000000 0.000000 0.000000
vn -1.000000 0.000000 0.000000
vn -1.000000 0.000000 0.000000
vn -1.000000 0.000000 0.000000
vn 0.022817 0.998126 0.056775
vn 0.022817 0.998126 0.056775
vn 0.022817 0.998126 0.056775
vn 0.022817 0.998126 0.056775
vn -0.092174 0.968967 -0.229361
vn -0.092174 0.968967 -0.229361
vn -0.092174 0.968967 -0.229361
vn -0.092174 0.968967 -0.229361
vn 0.000000 1.000000 -0.000000
vn 0.000000 1.000000 -0.000000
vn 0.000000 1.000000 -0.000000
vn 0.000000 1.000000 -0.000000
vn 0.000000 1.000000 0.000000
vn 0.000000 1.000000 0.000000
vn 0.000000 1.000000 0.000000
vn -0.000000 1.000000 0.000000
vn -0.000000 1.000000 0.000000
vn -0.000000 1.000000 0.000000
vn -0.000000 1.000000 0.000000
vn -0.000000 1.000000 0.000000
vn -0.000000 1.000000 0.000000
vn -0.000000 1.000000 0.000000
vn 0.000000 0.000000 -1.000000
vn 0.000000 0.000000 -1.000000
vn 0.000000 0.000000 -1.000000
vn 0.000000 0.000000 -1.000000
vn 0.028594 0.999517 0.012173
vn 0.028594 0.999517 0.012173
vn 0.028594 0.999517 0.012173
vn 0.028594 0.999517 0.012173
vn 0.000000 0.000000 1.000000
vn 0.000000 0.000000 1.000000
vn 0.000000 0.000000 1.000000
vn 0.000000 0.000000 1.000000
vn 0.000000 -1.000000 0.000000
vn 0.000000 -1.000000 0.000000
vn 0.000000 -1.000000 0.000000
vn 0.000000 -1.000000 0.000000
vn 0.000000 -1.000000 0.000000
vn 0.000000 -1.000000 0.000000
vn 0.000000 -1.000000 0.000000
vn 0.000000 -1.000000 0.000000
vn 0.015730 0.113089 -0.993460
vn 0.015730 0.113089 -0.993460
vn 0.015730 0.113089 -0.993460
vn 0.015730 0.113089 -0.993460
vn 0.023346 0.999678 -0.009939
vn 0.023346 0.999678 -0.009939
vn 0.023346 0.999678 -0.009939
vn 0.023346 0.999678 -0.009939
vn -0.010583 -0.076847 0.996987
vn -0.010583 -0.076847 0.996987
vn -0.010583 -0.076847 0.996987
vn -0.010583 -0.076847 0.996987
vn 0.998097 -0.061667 0.000000
vn 0.998097 -0.061667 0.000000
vn 0.998097 -0.061667 0.000000
vn -0.005901 -0.055764 -0.998427
vn -0.005901 -0.055764 -0.998427
vn -0.005901 -0.055764 -0.998427
vn -0.005901 -0.055764 -0.998427
vn 0.004374 -0.055861 -0.998429
vn 0.004374 -0.055861 -0.998429
vn 0.004374 -0.055861 -0.998429
vn 0.004374 -0.055861 -0.998429
vn -0.998097 -0.061666 0.000000
vn -0.998097 -0.061666 0.000000
vn -0.998097 -0.061666 0.000000
vn -0.998011 0.063044 0.000000
vn -0.998011 0.063044 0.000000
vn -0.998011 0.063044 0.000000
vn -1.000000 0.000000 0.000000
vn -1.000000 0.000000 0.000000
vn -1.000000 0.000000 0.000000
vn -1.000000 0.000000 0.000000
vn 1.000000 0.000000 0.000000
vn 1.000000 0.000000 0.000000
vn 1.000000 0.000000 0.000000
vn 1.000000 0.000000 0.000000
vn 1.000000 0.000000 0.000000
vn 1.000000 0.000000 0.000000
vn 1.000000 0.000000 0.000000
vn 0.000000 1.000000 0.000000
vn 0.000000 1.000000 0.000000
vn 0.000000 1.000000 0.000000
vn 0.000000 1.000000 0.000000
vn 0.000000 1.000000 -0.000001
vn 0.000000 1.000000 -0.000001
vn 0.000000 1.000000 -0.000001
vn -0.000000 1.000000 0.000000
vn -0.000000 1.000000 0.000000
vn -0.000000 1.000000 0.000000
s off
f 48/72/1 49/73/2 2/2/3 4/3/4
f 22/28/5 14/29/6 21/35/7
f 20/34/8 21/35/9 14/29/10 34/49/11
f 15/30/12 17/31/13 18/32/14
f 55/80/15 56/81/16 52/76/17 6/7/18
f 50/74/19 51/75/20 8/8/21 37/53/22
f 36/52/23 37/53/24 55/80/25 6/7/26
f 57/82/27 38/56/28 40/66/29 41/63/30
f 47/71/31 48/72/32 4/3/33 10/9/34
f 35/51/35 36/52/36 6/7/37 11/10/38
f 6/7/39 52/76/40 53/77/41 11/10/42
f 5/61/43 41/63/44 44/67/45 12/57/46
f 46/70/47 47/71/48 10/9/49 14/4/50
f 34/50/51 35/51/52 11/10/53 15/5/54
f 11/10/55 53/77/56 54/78/57 15/5/58
f 12/57/59 44/67/60 16/6/61
f 30/37/62 31/38/63 16/36/64
f 32/39/65 54/79/66 16/36/67 31/38/68
f 33/40/69 17/31/70 15/30/71
f 31/14/72 30/15/73 29/16/74 32/13/75
f 32/13/76 29/16/77 28/17/78 33/12/79
f 17/11/80 33/12/81 28/17/82 18/27/83
f 18/27/84 28/17/85 19/26/86
f 20/25/87 19/26/88 28/17/89 27/18/90
f 20/25/91 27/18/92 26/19/93 25/20/94
f 20/25/95 25/20/96 24/21/97 23/22/98
f 23/22/99 22/23/100 21/24/101 20/25/102
f 28/44/103 29/45/104 39/54/105 27/43/106
f 13/41/107 26/42/108 27/43/109
f 23/46/110 46/69/111 14/29/112 22/28/113
f 24/47/114 25/48/115 13/41/116
f 13/41/117 25/48/118 26/42/119
f 10/9/120 35/51/121 34/50/122 14/4/123
f 4/3/124 36/52/125 35/51/126 10/9/127
f 2/2/128 37/53/129 36/52/130 4/3/131
f 49/73/132 50/74/133 37/53/134 2/2/135
f 45/64/136 42/65/137 3/62/138 9/59/139
f 39/58/140 43/68/141 45/64/142 13/60/143
f 42/65/144 1/1/145 3/62/146
f 41/63/147 40/66/148 43/68/149 44/67/150
f 40/66/151 42/65/152 45/64/153 43/68/154
f 19/33/155 34/49/156 15/30/157 18/32/158
f 20/34/159 34/49/160 19/33/161
f 27/43/162 39/54/163 13/41/164
f 29/45/165 30/37/166 16/36/167 39/54/168
f 9/59/169 47/71/170 46/70/171 13/60/172
f 3/62/173 48/72/174 47/71/175 9/59/176
f 1/1/177 49/73/178 48/72/179 3/62/180
f 38/56/181 50/74/182 49/73/183 1/1/184
f 7/55/185 51/75/186 50/74/187 38/56/188
f 5/61/189 52/76/190 56/81/191 57/82/192
f 53/77/193 52/76/194 5/61/195 12/57/196
f 54/78/197 53/77/198 12/57/199 16/6/200
f 55/80/201 37/53/202 8/8/203
f 51/75/204 56/81/205 55/80/206 8/8/207
f 57/82/208 56/81/209 51/75/210 7/55/211
f 7/55/212 38/56/213 57/82/214
f 57/82/215 41/63/216 5/61/217
f 42/65/218 40/66/219 38/56/220 1/1/221
f 13/60/222 45/64/223 9/59/224
f 16/6/225 44/67/226 43/68/227 39/58/228
f 13/41/229 46/69/230 23/46/231 24/47/232
f 15/30/233 54/79/234 33/40/235
f 33/40/236 54/79/237 32/39/238
