# This file uses centimeters as units for non-parametric coordinates.

v 22.124266 0.000000 -21.341501
v -0.640019 0.000000 -30.770761
v -23.404303 0.000000 -21.341501
v -32.833572 0.000000 1.422775
v -23.404303 0.000000 24.187059
v -0.640019 0.000000 33.616314
v 22.124266 0.000000 24.187059
v 31.553537 0.000000 1.422775
v 22.124266 458.284821 -21.341501
v -0.640019 458.284821 -30.770761
v -23.404303 458.284821 -21.341501
v -32.833572 458.284821 1.422775
v -23.404303 458.284821 24.187059
v -0.640019 458.284821 33.616314
v 22.124266 458.284821 24.187059
v 31.553537 458.284821 1.422775
v 16.360916 0.000000 -15.578221
v -0.640018 0.000000 -22.620218
v -17.641016 0.000000 -15.578221
v -24.683079 0.000000 1.422775
v -17.641016 0.000000 18.423775
v -0.640018 0.000000 25.465771
v 16.360916 0.000000 18.423775
v 23.402983 0.000000 1.422775
v 16.360916 458.284821 -15.578221
v -0.640018 458.284821 -22.620218
v -17.641016 458.284821 -15.578221
v -24.683079 458.284821 1.422775
v -17.641016 458.284821 18.423775
v -0.640018 458.284821 25.465771
v 16.360916 458.284821 18.423775
v 23.402983 458.284821 1.422775
v 22.124266 360.268707 -21.341501
v -0.640019 360.268707 -30.770761
v -23.404303 360.268707 -21.341501
v -32.833572 360.268707 1.422775
v -23.404303 360.268707 24.187059
v -0.640019 360.268707 33.616314
v 22.124266 360.268707 24.187059
v 31.553537 360.268707 1.422775
v 22.124266 355.556824 -21.341501
v -0.640019 355.556824 -30.770761
v -23.404303 355.556824 -21.341501
v -32.833572 355.556824 1.422775
v -23.404303 355.556824 24.187059
v -0.640019 355.556824 33.616314
v 22.124266 355.556824 24.187059
v 31.553537 355.556824 1.422775
v 22.124266 242.055145 -21.341501
v -0.640019 242.055145 -30.770761
v -23.404303 242.055145 -21.341501
v -32.833572 242.055145 1.422775
v -23.404303 242.055145 24.187059
v -0.640019 242.055145 33.616314
v 22.124266 242.055145 24.187059
v 31.553537 242.055145 1.422775
v 22.124266 237.351166 -21.341501
v -0.640019 237.351166 -30.770761
v -23.404303 237.351166 -21.341501
v -32.833572 237.351166 1.422775
v -23.404303 237.351166 24.187059
v -0.640019 237.351166 33.616314
v 22.124266 237.351166 24.187059
v 31.553537 237.351166 1.422775
v 22.124266 118.748695 -21.341501
v -0.640019 118.748695 -30.770761
v -23.404303 118.748695 -21.341501
v -32.833572 118.748695 1.422775
v -23.404303 118.748695 24.187059
v -0.640019 118.748695 33.616314
v 22.124266 118.748695 24.187059
v 31.553537 118.748695 1.422775
v 22.124266 123.819420 -21.341501
v 31.553537 123.819420 1.422775
v 22.124266 123.819420 24.187059
v -0.640019 123.819420 33.616314
v -23.404303 123.819420 24.187059
v -32.833572 123.819420 1.422775
v -23.404303 123.819420 -21.341501
v -0.640019 123.819420 -30.770761
v 20.264500 357.677490 -19.481739
v 28.923441 357.677490 1.422775
v 20.264500 357.677490 22.327295
v -0.640018 357.677490 30.986280
v -21.544598 357.677490 22.327295
v -30.203535 357.677490 1.422775
v -21.544598 357.677490 -19.481739
v -0.640018 357.677490 -28.140728
v 20.264500 239.434311 -19.481739
v 28.923441 239.434311 1.422775
v 20.264500 239.434311 22.327295
v -0.640018 239.434311 30.986280
v -21.544598 239.434311 22.327295
v -30.203535 239.434311 1.422775
v -21.544598 239.434311 -19.481739
v -0.640018 239.434311 -28.140726
v 20.264500 120.830940 -19.481739
v -0.640018 120.830940 -28.140726
v -21.544598 120.830940 -19.481739
v -30.203535 120.830940 1.422775
v -21.544598 120.830940 22.327295
v -0.640018 120.830940 30.986280
v 20.264500 120.830940 22.327295
v 28.923441 120.830940 1.422775
vt 0.100721 0.305268
vt 0.100744 0.305270
vt 0.100744 0.293868
vt 0.100722 0.270388
vt 0.100788 0.305270
vt 0.100789 0.305061
vt 0.100830 0.305269
vt 0.100831 0.289226
vt 0.100846 0.305268
vt 0.100846 0.289494
vt 0.100824 0.305266
vt 0.100825 0.287032
vt 0.100778 0.305266
vt 0.100779 0.305046
vt 0.100735 0.305267
vt 0.100735 0.288671
vt 0.100743 0.306016
vt 0.100721 0.306027
vt 0.100736 0.306027
vt 0.100753 0.306019
vt 0.100786 0.306012
vt 0.100785 0.306016
vt 0.100827 0.313934
vt 0.100816 0.306021
vt 0.100843 0.306031
vt 0.100827 0.306030
vt 0.100822 0.306042
vt 0.100812 0.306039
vt 0.100777 0.306046
vt 0.100778 0.306042
vt 0.100735 0.306040
vt 0.100747 0.306037
vt 0.100754 0.305058
vt 0.100737 0.305054
vt 0.100787 0.305059
vt 0.100819 0.305057
vt 0.100830 0.305053
vt 0.100815 0.305049
vt 0.100780 0.305048
vt 0.100748 0.305050
vt 0.100721 0.289171
vt 0.100744 0.286989
vt 0.100788 0.289719
vt 0.100830 0.288899
vt 0.100846 0.286987
vt 0.100824 0.289442
vt 0.100778 0.282891
vt 0.100735 0.288897
vt 0.100721 0.305521
vt 0.100744 0.305518
vt 0.100788 0.305517
vt 0.100829 0.305519
vt 0.100845 0.305522
vt 0.100824 0.305525
vt 0.100778 0.305526
vt 0.100735 0.305524
vt 0.100721 0.305529
vt 0.100744 0.305526
vt 0.100788 0.305525
vt 0.100829 0.287238
vt 0.100844 0.270864
vt 0.100824 0.290793
vt 0.100778 0.305534
vt 0.100735 0.305532
vt 0.100721 0.287490
vt 0.100743 0.305772
vt 0.100743 0.305763
vt 0.100721 0.305770
vt 0.100787 0.271103
vt 0.100787 0.305761
vt 0.100828 0.287758
vt 0.100828 0.305765
vt 0.100843 0.287493
vt 0.100844 0.305773
vt 0.100823 0.289957
vt 0.100823 0.310966
vt 0.100777 0.305791
vt 0.100777 0.305783
vt 0.100735 0.289409
vt 0.100735 0.305778
vt 0.026883 0.237809
vt 0.026924 0.235614
vt 0.026924 0.253888
vt 0.026883 0.253899
vt 0.027009 0.238340
vt 0.027009 0.253885
vt 0.027090 0.237527
vt 0.027091 0.253891
vt 0.027123 0.235629
vt 0.027123 0.253902
vt 0.027085 0.238097
vt 0.027085 0.253914
vt 0.026996 0.231550
vt 0.026997 0.253918
vt 0.026912 0.237549
vt 0.026912 0.253912
vt 0.026882 0.254388
vt 0.026922 0.254368
vt 0.026922 0.254354
vt 0.026882 0.254374
vt 0.027004 0.254362
vt 0.027005 0.254348
vt 0.027084 0.236083
vt 0.027084 0.254358
vt 0.027116 0.219727
vt 0.027116 0.254379
vt 0.027078 0.239674
vt 0.027079 0.254400
vt 0.026992 0.254421
vt 0.026992 0.254407
vt 0.026910 0.254410
vt 0.026910 0.254396
vt 0.026881 0.236550
vt 0.026920 0.254811
vt 0.026920 0.254796
vt 0.026881 0.254823
vt 0.027000 0.220136
vt 0.027000 0.254787
vt 0.027078 0.236800
vt 0.027078 0.254801
vt 0.027108 0.236557
vt 0.027109 0.254831
vt 0.027072 0.239043
vt 0.027072 0.260046
vt 0.026988 0.254885
vt 0.026988 0.254869
vt 0.026908 0.238492
vt 0.026908 0.254854
vt 0.026883 0.253907
vt 0.026912 0.253920
vt 0.026997 0.253926
vt 0.027085 0.253922
vt 0.027123 0.253910
vt 0.027090 0.253899
vt 0.027009 0.253893
vt 0.026924 0.253896
vt 0.026882 0.254382
vt 0.026910 0.254404
vt 0.026992 0.254415
vt 0.027079 0.254408
vt 0.027116 0.254387
vt 0.027084 0.254366
vt 0.027004 0.254355
vt 0.026922 0.254362
vt 0.026881 0.254832
vt 0.026920 0.254805
vt 0.027000 0.254796
vt 0.027078 0.254810
vt 0.027108 0.254840
vt 0.027072 0.254869
vt 0.026988 0.254879
vt 0.026908 0.254863
vn 0.382683 0.000000 -0.923880
vn 0.382683 0.000000 -0.923880
vn 0.382683 0.000000 -0.923880
vn 0.382683 0.000000 -0.923880
vn -0.382683 0.000000 -0.923880
vn -0.382683 0.000000 -0.923880
vn -0.382683 0.000000 -0.923880
vn -0.382683 0.000000 -0.923880
vn -0.923880 0.000000 -0.382683
vn -0.923880 0.000000 -0.382683
vn -0.923880 0.000000 -0.382683
vn -0.923880 0.000000 -0.382683
vn -0.923880 0.000000 0.382683
vn -0.923880 0.000000 0.382683
vn -0.923880 0.000000 0.382683
vn -0.923880 0.000000 0.382683
vn -0.382683 0.000000 0.923880
vn -0.382683 0.000000 0.923880
vn -0.382683 0.000000 0.923880
vn -0.382683 0.000000 0.923880
vn 0.382683 0.000000 0.923880
vn 0.382683 0.000000 0.923880
vn 0.382683 0.000000 0.923880
vn 0.382683 0.000000 0.923880
vn 0.923880 0.000000 0.382683
vn 0.923880 0.000000 0.382683
vn 0.923880 0.000000 0.382683
vn 0.923880 0.000000 0.382683
vn 0.923880 0.000000 -0.382683
vn 0.923880 0.000000 -0.382683
vn 0.923880 0.000000 -0.382683
vn 0.923880 0.000000 -0.382683
vn 0.000000 -1.000000 0.000000
vn 0.000000 -1.000000 0.000000
vn 0.000000 -1.000000 0.000000
vn 0.000000 -1.000000 0.000000
vn 0.000000 -1.000000 0.000000
vn 0.000000 -1.000000 0.000000
vn 0.000000 -1.000000 0.000000
vn 0.000000 -1.000000 0.000000
vn 0.000000 -1.000000 0.000000
vn 0.000000 -1.000000 0.000000
vn 0.000000 -1.000000 0.000000
vn 0.000000 -1.000000 0.000000
vn 0.000000 -1.000000 0.000000
vn 0.000000 -1.000000 0.000000
vn 0.000000 -1.000000 0.000000
vn 0.000000 -1.000000 0.000000
vn 0.000000 -1.000000 0.000000
vn 0.000000 -1.000000 0.000000
vn 0.000000 -1.000000 0.000000
vn 0.000000 -1.000000 0.000000
vn 0.000000 -1.000000 0.000000
vn 0.000000 -1.000000 0.000000
vn 0.000000 -1.000000 0.000000
vn 0.000000 -1.000000 0.000000
vn 0.000000 -1.000000 0.000000
vn 0.000000 -1.000000 0.000000
vn 0.000000 -1.000000 0.000000
vn 0.000000 -1.000000 0.000000
vn 0.000000 -1.000000 0.000000
vn 0.000000 -1.000000 0.000000
vn 0.000000 -1.000000 0.000000
vn 0.000000 -1.000000 0.000000
vn 0.000000 1.000000 -0.000002
vn 0.000000 1.000000 -0.000002
vn 0.000000 1.000000 -0.000002
vn 0.000000 1.000000 -0.000002
vn 0.000000 1.000000 -0.000002
vn 0.000000 1.000000 -0.000002
vn 0.000000 1.000000 -0.000002
vn 0.000000 1.000000 -0.000002
vn 0.000000 1.000000 -0.000002
vn 0.000000 1.000000 -0.000002
vn 0.000000 1.000000 -0.000002
vn 0.000000 1.000000 -0.000002
vn 0.000000 1.000000 0.000003
vn 0.000000 1.000000 0.000003
vn 0.000000 1.000000 0.000003
vn 0.000000 1.000000 0.000003
vn 0.000000 1.000000 0.000005
vn 0.000000 1.000000 0.000005
vn 0.000000 1.000000 0.000005
vn 0.000000 1.000000 0.000005
vn 0.000000 1.000000 0.000004
vn 0.000000 1.000000 0.000004
vn 0.000000 1.000000 0.000004
vn 0.000000 1.000000 0.000004
vn 0.000000 1.000000 0.000000
vn 0.000000 1.000000 0.000000
vn 0.000000 1.000000 0.000000
vn 0.000000 1.000000 0.000000
vn 0.000000 1.000000 0.000002
vn 0.000000 1.000000 0.000002
vn 0.000000 1.000000 0.000002
vn 0.000000 1.000000 0.000002
vn -0.382683 0.000000 0.923880
vn -0.382683 0.000000 0.923880
vn -0.382683 0.000000 0.923880
vn -0.382683 0.000000 0.923880
vn 0.382681 0.000000 0.923881
vn 0.382681 0.000000 0.923881
vn 0.382681 0.000000 0.923881
vn 0.382681 0.000000 0.923881
vn 0.923879 0.000000 0.382684
vn 0.923879 0.000000 0.382684
vn 0.923879 0.000000 0.382684
vn 0.923879 0.000000 0.382684
vn 0.923879 0.000000 -0.382684
vn 0.923879 0.000000 -0.382684
vn 0.923879 0.000000 -0.382684
vn 0.923879 0.000000 -0.382684
vn 0.382681 0.000000 -0.923881
vn 0.382681 0.000000 -0.923881
vn 0.382681 0.000000 -0.923881
vn 0.382681 0.000000 -0.923881
vn -0.382683 0.000000 -0.923880
vn -0.382683 0.000000 -0.923880
vn -0.382683 0.000000 -0.923880
vn -0.382683 0.000000 -0.923880
vn -0.923879 0.000000 -0.382684
vn -0.923879 0.000000 -0.382684
vn -0.923879 0.000000 -0.382684
vn -0.923879 0.000000 -0.382684
vn -0.923879 0.000000 0.382685
vn -0.923879 0.000000 0.382685
vn -0.923879 0.000000 0.382685
vn -0.923879 0.000000 0.382685
vn 0.251631 0.753415 -0.607492
vn 0.251631 0.753415 -0.607492
vn 0.251632 0.753415 -0.607492
vn 0.251632 0.753415 -0.607492
vn -0.251633 0.753417 -0.607490
vn -0.251633 0.753417 -0.607490
vn -0.251633 0.753417 -0.607490
vn -0.251633 0.753417 -0.607490
vn -0.607495 0.753413 -0.251634
vn -0.607495 0.753413 -0.251634
vn -0.607495 0.753413 -0.251634
vn -0.607495 0.753413 -0.251634
vn -0.607495 0.753412 0.251634
vn -0.607495 0.753412 0.251634
vn -0.607495 0.753412 0.251634
vn -0.607495 0.753412 0.251634
vn -0.251632 0.753416 0.607491
vn -0.251632 0.753416 0.607491
vn -0.251632 0.753416 0.607491
vn -0.251632 0.753416 0.607491
vn 0.251631 0.753415 0.607494
vn 0.251631 0.753415 0.607494
vn 0.251631 0.753414 0.607494
vn 0.251631 0.753415 0.607494
vn 0.607487 0.753420 0.251630
vn 0.607487 0.753420 0.251630
vn 0.607487 0.753420 0.251630
vn 0.607487 0.753420 0.251630
vn 0.607487 0.753420 -0.251631
vn 0.607487 0.753420 -0.251631
vn 0.607487 0.753420 -0.251631
vn 0.607487 0.753420 -0.251631
vn 0.382683 0.000000 -0.923880
vn 0.382683 0.000000 -0.923880
vn 0.382683 0.000000 -0.923880
vn 0.382683 0.000000 -0.923880
vn -0.382683 0.000000 -0.923880
vn -0.382683 0.000000 -0.923880
vn -0.382683 0.000000 -0.923880
vn -0.382683 0.000000 -0.923880
vn -0.923880 0.000000 -0.382683
vn -0.923880 0.000000 -0.382683
vn -0.923880 0.000000 -0.382683
vn -0.923880 0.000000 -0.382683
vn -0.923880 0.000000 0.382683
vn -0.923880 0.000000 0.382683
vn -0.923880 0.000000 0.382683
vn -0.923880 0.000000 0.382683
vn -0.382683 0.000000 0.923880
vn -0.382683 0.000000 0.923880
vn -0.382683 0.000000 0.923880
vn -0.382683 0.000000 0.923880
vn 0.382683 0.000000 0.923880
vn 0.382683 0.000000 0.923880
vn 0.382683 0.000000 0.923880
vn 0.382683 0.000000 0.923880
vn 0.923880 0.000000 0.382683
vn 0.923880 0.000000 0.382683
vn 0.923880 0.000000 0.382683
vn 0.923880 0.000000 0.382683
vn 0.923880 0.000000 -0.382683
vn 0.923880 0.000000 -0.382683
vn 0.923880 0.000000 -0.382683
vn 0.923880 0.000000 -0.382683
vn 0.249075 0.759195 -0.601319
vn 0.249075 0.759195 -0.601319
vn 0.249075 0.759195 -0.601319
vn 0.249075 0.759195 -0.601319
vn -0.249075 0.759193 -0.601322
vn -0.249075 0.759193 -0.601322
vn -0.249075 0.759193 -0.601322
vn -0.249075 0.759193 -0.601322
vn -0.601323 0.759191 -0.249077
vn -0.601323 0.759191 -0.249077
vn -0.601323 0.759191 -0.249077
vn -0.601323 0.759191 -0.249077
vn -0.601323 0.759190 0.249079
vn -0.601323 0.759190 0.249079
vn -0.601323 0.759190 0.249079
vn -0.601323 0.759190 0.249079
vn -0.249076 0.759193 0.601321
vn -0.249076 0.759193 0.601321
vn -0.249076 0.759193 0.601321
vn -0.249076 0.759193 0.601321
vn 0.249076 0.759196 0.601317
vn 0.249076 0.759196 0.601317
vn 0.249076 0.759196 0.601317
vn 0.249076 0.759196 0.601317
vn 0.601316 0.759198 0.249072
vn 0.601316 0.759198 0.249072
vn 0.601316 0.759198 0.249072
vn 0.601316 0.759198 0.249072
vn 0.601315 0.759199 -0.249072
vn 0.601315 0.759199 -0.249072
vn 0.601316 0.759199 -0.249072
vn 0.601315 0.759199 -0.249072
vn 0.296923 -0.630863 -0.716832
vn 0.296923 -0.630863 -0.716833
vn 0.296923 -0.630863 -0.716832
vn 0.296923 -0.630863 -0.716832
vn -0.296923 -0.630861 -0.716834
vn -0.296923 -0.630861 -0.716834
vn -0.296923 -0.630861 -0.716834
vn -0.296923 -0.630861 -0.716834
vn -0.716836 -0.630859 -0.296924
vn -0.716836 -0.630859 -0.296924
vn -0.716836 -0.630859 -0.296924
vn -0.716836 -0.630859 -0.296924
vn -0.716836 -0.630858 0.296923
vn -0.716836 -0.630858 0.296923
vn -0.716836 -0.630858 0.296923
vn -0.716836 -0.630858 0.296923
vn -0.296923 -0.630861 0.716834
vn -0.296923 -0.630861 0.716834
vn -0.296923 -0.630861 0.716834
vn -0.296923 -0.630861 0.716834
vn 0.296922 -0.630863 0.716833
vn 0.296922 -0.630863 0.716833
vn 0.296922 -0.630863 0.716833
vn 0.296922 -0.630863 0.716833
vn 0.716830 -0.630867 0.296920
vn 0.716830 -0.630867 0.296920
vn 0.716830 -0.630867 0.296920
vn 0.716830 -0.630867 0.296920
vn 0.716829 -0.630868 -0.296920
vn 0.716829 -0.630868 -0.296920
vn 0.716829 -0.630868 -0.296920
vn 0.716829 -0.630868 -0.296920
vn 0.382683 0.000000 -0.923880
vn 0.382683 0.000000 -0.923880
vn 0.382683 0.000000 -0.923880
vn 0.382683 0.000000 -0.923880
vn -0.382683 0.000000 -0.923880
vn -0.382683 0.000000 -0.923880
vn -0.382683 0.000000 -0.923880
vn -0.382683 0.000000 -0.923880
vn -0.923880 0.000000 -0.382683
vn -0.923880 0.000000 -0.382683
vn -0.923880 0.000000 -0.382683
vn -0.923880 0.000000 -0.382683
vn -0.923880 0.000000 0.382683
vn -0.923880 0.000000 0.382683
vn -0.923880 0.000000 0.382683
vn -0.923880 0.000000 0.382683
vn -0.382683 0.000000 0.923880
vn -0.382683 0.000000 0.923880
vn -0.382683 0.000000 0.923880
vn -0.382683 0.000000 0.923880
vn 0.382683 0.000000 0.923880
vn 0.382683 0.000000 0.923880
vn 0.382683 0.000000 0.923880
vn 0.382683 0.000000 0.923880
vn 0.923880 0.000000 0.382683
vn 0.923880 0.000000 0.382683
vn 0.923880 0.000000 0.382683
vn 0.923880 0.000000 0.382683
vn 0.923880 0.000000 -0.382683
vn 0.923880 0.000000 -0.382683
vn 0.923880 0.000000 -0.382683
vn 0.923880 0.000000 -0.382683
vn 0.923880 0.000000 -0.382683
vn 0.923880 0.000000 -0.382683
vn 0.923880 0.000000 -0.382683
vn 0.923880 0.000000 -0.382683
vn 0.923880 0.000000 0.382683
vn 0.923880 0.000000 0.382683
vn 0.923880 0.000000 0.382683
vn 0.923880 0.000000 0.382683
vn 0.382683 0.000000 0.923880
vn 0.382683 0.000000 0.923880
vn 0.382683 0.000000 0.923880
vn 0.382683 0.000000 0.923880
vn -0.382683 0.000000 0.923880
vn -0.382683 0.000000 0.923880
vn -0.382683 0.000000 0.923880
vn -0.382683 0.000000 0.923880
vn -0.923880 0.000000 0.382683
vn -0.923880 0.000000 0.382683
vn -0.923880 0.000000 0.382683
vn -0.923880 0.000000 0.382683
vn -0.923880 0.000000 -0.382683
vn -0.923880 0.000000 -0.382683
vn -0.923880 0.000000 -0.382683
vn -0.923880 0.000000 -0.382683
vn -0.382683 0.000000 -0.923880
vn -0.382683 0.000000 -0.923880
vn -0.382683 0.000000 -0.923880
vn -0.382683 0.000000 -0.923880
vn 0.382683 0.000000 -0.923880
vn 0.382683 0.000000 -0.923880
vn 0.382683 0.000000 -0.923880
vn 0.382683 0.000000 -0.923880
vn 0.673922 -0.684036 -0.279148
vn 0.673922 -0.684036 -0.279148
vn 0.673922 -0.684036 -0.279148
vn 0.673922 -0.684036 -0.279148
vn 0.673923 -0.684035 0.279149
vn 0.673923 -0.684035 0.279149
vn 0.673923 -0.684035 0.279149
vn 0.673923 -0.684035 0.279149
vn 0.279151 -0.684034 0.673923
vn 0.279151 -0.684034 0.673923
vn 0.279151 -0.684034 0.673923
vn 0.279151 -0.684034 0.673923
vn -0.279151 -0.684030 0.673927
vn -0.279151 -0.684030 0.673927
vn -0.279151 -0.684030 0.673927
vn -0.279151 -0.684030 0.673927
vn -0.673930 -0.684027 0.279151
vn -0.673930 -0.684027 0.279151
vn -0.673930 -0.684027 0.279151
vn -0.673930 -0.684027 0.279151
vn -0.673929 -0.684027 -0.279152
vn -0.673929 -0.684027 -0.279152
vn -0.673929 -0.684027 -0.279152
vn -0.673929 -0.684027 -0.279152
vn -0.279151 -0.684030 -0.673928
vn -0.279151 -0.684030 -0.673928
vn -0.279151 -0.684030 -0.673928
vn -0.279151 -0.684030 -0.673928
vn 0.279151 -0.684034 -0.673923
vn 0.279151 -0.684034 -0.673923
vn 0.279151 -0.684034 -0.673923
vn 0.279151 -0.684034 -0.673923
vn 0.677494 -0.679889 -0.280630
vn 0.677494 -0.679889 -0.280630
vn 0.677494 -0.679889 -0.280630
vn 0.677494 -0.679889 -0.280630
vn 0.677494 -0.679889 0.280629
vn 0.677494 -0.679889 0.280629
vn 0.677494 -0.679889 0.280629
vn 0.677494 -0.679889 0.280629
vn 0.280630 -0.679887 0.677496
vn 0.280630 -0.679887 0.677496
vn 0.280630 -0.679887 0.677496
vn 0.280630 -0.679887 0.677496
vn -0.280630 -0.679884 0.677499
vn -0.280630 -0.679884 0.677499
vn -0.280630 -0.679884 0.677499
vn -0.280630 -0.679884 0.677499
vn -0.677502 -0.679881 0.280629
vn -0.677502 -0.679881 0.280629
vn -0.677502 -0.679881 0.280629
vn -0.677502 -0.679881 0.280629
vn -0.677501 -0.679882 -0.280628
vn -0.677501 -0.679882 -0.280628
vn -0.677501 -0.679882 -0.280628
vn -0.677501 -0.679882 -0.280628
vn -0.280630 -0.679885 -0.677498
vn -0.280630 -0.679885 -0.677498
vn -0.280630 -0.679885 -0.677498
vn -0.280630 -0.679885 -0.677498
vn 0.280629 -0.679886 -0.677497
vn 0.280629 -0.679886 -0.677497
vn 0.280630 -0.679886 -0.677497
vn 0.280629 -0.679886 -0.677497
vn 0.249013 0.759333 -0.601170
vn 0.249013 0.759333 -0.601170
vn 0.249013 0.759333 -0.601170
vn 0.249013 0.759333 -0.601170
vn -0.249014 0.759332 -0.601171
vn -0.249014 0.759332 -0.601171
vn -0.249014 0.759332 -0.601171
vn -0.249014 0.759332 -0.601171
vn -0.601173 0.759330 -0.249014
vn -0.601173 0.759330 -0.249014
vn -0.601173 0.759330 -0.249014
vn -0.601173 0.759330 -0.249014
vn -0.601174 0.759330 0.249015
vn -0.601174 0.759330 0.249015
vn -0.601174 0.759330 0.249015
vn -0.601174 0.759330 0.249015
vn -0.249013 0.759332 0.601172
vn -0.249013 0.759332 0.601172
vn -0.249013 0.759332 0.601172
vn -0.249013 0.759332 0.601172
vn 0.249013 0.759333 0.601170
vn 0.249013 0.759333 0.601170
vn 0.249013 0.759333 0.601170
vn 0.249013 0.759333 0.601170
vn 0.601166 0.759337 0.249011
vn 0.601166 0.759337 0.249011
vn 0.601166 0.759337 0.249011
vn 0.601166 0.759337 0.249011
vn 0.601165 0.759338 -0.249012
vn 0.601165 0.759338 -0.249012
vn 0.601165 0.759337 -0.249012
vn 0.601165 0.759338 -0.249012
s off
f 33/1/1 34/2/2 10/3/3 9/4/4
f 34/2/5 35/5/6 11/6/7 10/3/8
f 35/5/9 36/7/10 12/8/11 11/6/12
f 36/7/13 37/9/14 13/10/15 12/8/16
f 37/9/17 38/11/18 14/12/19 13/10/20
f 38/11/21 39/13/22 15/14/23 14/12/24
f 39/13/25 40/15/26 16/16/27 15/14/28
f 40/15/29 33/1/30 9/4/31 16/16/32
f 2/17/33 1/18/34 17/19/35 18/20/36
f 3/21/37 2/17/38 18/20/39 19/22/40
f 4/23/41 3/21/42 19/22/43 20/24/44
f 5/25/45 4/23/46 20/24/47 21/26/48
f 6/27/49 5/25/50 21/26/51 22/28/52
f 7/29/53 6/27/54 22/28/55 23/30/56
f 8/31/57 7/29/58 23/30/59 24/32/60
f 1/18/61 8/31/62 24/32/63 17/19/64
f 9/4/65 10/3/66 26/33/67 25/34/68
f 10/3/69 11/6/70 27/35/71 26/33/72
f 11/6/73 12/8/74 28/36/75 27/35/76
f 12/8/77 13/10/78 29/37/79 28/36/80
f 13/10/81 14/12/82 30/38/83 29/37/84
f 14/12/85 15/14/86 31/39/87 30/38/88
f 15/14/89 16/16/90 32/40/91 31/39/92
f 16/16/93 9/4/94 25/34/95 32/40/96
f 18/20/97 17/19/98 25/34/99 26/33/100
f 19/22/101 18/20/102 26/33/103 27/35/104
f 20/24/105 19/22/106 27/35/107 28/36/108
f 21/26/109 20/24/110 28/36/111 29/37/112
f 22/28/113 21/26/114 29/37/115 30/38/116
f 23/30/117 22/28/118 30/38/119 31/39/120
f 24/32/121 23/30/122 31/39/123 32/40/124
f 17/19/125 24/32/126 32/40/127 25/34/128
f 41/81/129 42/82/130 88/136/131 81/129/132
f 42/82/133 43/85/134 87/135/135 88/136/136
f 43/85/137 44/87/138 86/134/139 87/135/140
f 44/87/141 45/89/142 85/133/143 86/134/144
f 45/89/145 46/91/146 84/132/147 85/133/148
f 46/91/149 47/93/150 83/131/151 84/132/152
f 47/93/153 48/95/154 82/130/155 83/131/156
f 48/95/157 41/81/158 81/129/159 82/130/160
f 49/49/161 50/50/162 42/42/163 41/41/164
f 50/50/165 51/51/166 43/43/167 42/42/168
f 51/51/169 52/52/170 44/44/171 43/43/172
f 52/52/173 53/53/174 45/45/175 44/44/176
f 53/53/177 54/54/178 46/46/179 45/45/180
f 54/54/181 55/55/182 47/47/183 46/46/184
f 55/55/185 56/56/186 48/48/187 47/47/188
f 56/56/189 49/49/190 41/41/191 48/48/192
f 57/97/193 58/98/194 96/144/195 89/137/196
f 58/98/197 59/101/198 95/143/199 96/144/200
f 59/101/201 60/103/202 94/142/203 95/143/204
f 60/103/205 61/105/206 93/141/207 94/142/208
f 61/105/209 62/107/210 92/140/211 93/141/212
f 62/107/213 63/109/214 91/139/215 92/140/216
f 63/109/217 64/111/218 90/138/219 91/139/220
f 64/111/221 57/97/222 89/137/223 90/138/224
f 97/145/225 98/146/226 80/115/227 73/116/228
f 98/146/229 99/147/230 79/118/231 80/115/232
f 99/147/233 100/148/234 78/120/235 79/118/236
f 100/148/237 101/149/238 77/122/239 78/120/240
f 101/149/241 102/150/242 76/124/243 77/122/244
f 102/150/245 103/151/246 75/126/247 76/124/248
f 103/151/249 104/152/250 74/128/251 75/126/252
f 104/152/253 97/145/254 73/116/255 74/128/256
f 1/18/257 2/17/258 66/66/259 65/65/260
f 2/17/261 3/21/262 67/69/263 66/66/264
f 3/21/265 4/23/266 68/71/267 67/69/268
f 4/23/269 5/25/270 69/73/271 68/71/272
f 5/25/273 6/27/274 70/75/275 69/73/276
f 6/27/277 7/29/278 71/77/279 70/75/280
f 7/29/281 8/31/282 72/79/283 71/77/284
f 8/31/285 1/18/286 65/65/287 72/79/288
f 74/80/289 73/68/290 57/57/291 64/64/292
f 75/78/293 74/80/294 64/64/295 63/63/296
f 76/76/297 75/78/298 63/63/299 62/62/300
f 77/74/301 76/76/302 62/62/303 61/61/304
f 78/72/305 77/74/306 61/61/307 60/60/308
f 79/70/309 78/72/310 60/60/311 59/59/312
f 80/67/313 79/70/314 59/59/315 58/58/316
f 73/68/317 80/67/318 58/58/319 57/57/320
f 82/130/321 81/129/322 33/84/323 40/96/324
f 83/131/325 82/130/326 40/96/327 39/94/328
f 84/132/329 83/131/330 39/94/331 38/92/332
f 85/133/333 84/132/334 38/92/335 37/90/336
f 86/134/337 85/133/338 37/90/339 36/88/340
f 87/135/341 86/134/342 36/88/343 35/86/344
f 88/136/345 87/135/346 35/86/347 34/83/348
f 81/129/349 88/136/350 34/83/351 33/84/352
f 90/138/353 89/137/354 49/100/355 56/112/356
f 91/139/357 90/138/358 56/112/359 55/110/360
f 92/140/361 91/139/362 55/110/363 54/108/364
f 93/141/365 92/140/366 54/108/367 53/106/368
f 94/142/369 93/141/370 53/106/371 52/104/372
f 95/143/373 94/142/374 52/104/375 51/102/376
f 96/144/377 95/143/378 51/102/379 50/99/380
f 89/137/381 96/144/382 50/99/383 49/100/384
f 65/113/385 66/114/386 98/146/387 97/145/388
f 66/114/389 67/117/390 99/147/391 98/146/392
f 67/117/393 68/119/394 100/148/395 99/147/396
f 68/119/397 69/121/398 101/149/399 100/148/400
f 69/121/401 70/123/402 102/150/403 101/149/404
f 70/123/405 71/125/406 103/151/407 102/150/408
f 71/125/409 72/127/410 104/152/411 103/151/412
f 72/127/413 65/113/414 97/145/415 104/152/416
