# This file uses centimeters as units for non-parametric coordinates.

v -27.446167 3.815476 130.149902
v -27.533997 8.131094 130.310303
v -28.905060 10.413639 -129.618652
v -29.052948 5.736962 -129.410706
v -36.392670 2.237302 130.215820
v -38.138458 5.847264 -128.426453
v -38.304108 1.106664 -128.065979
v -36.298676 -2.511226 130.255798
v 16.038788 11.179338 -129.604675
v 16.846527 8.399205 130.909851
v 16.993286 3.069398 130.704468
v 15.887238 6.515090 -129.358704
v 7.859314 14.957015 131.077942
v 7.135620 16.204750 -129.094788
v 6.987030 11.530520 -128.879395
v 7.966553 10.309858 130.794495
v -0.839874 10.285070 130.836548
v -2.063507 9.551769 -128.762939
v -2.242065 4.034620 -128.478333
v -0.722137 5.619259 130.613586
v -9.689819 9.907196 132.498047
v -10.916412 14.140655 -128.842407
v -11.064758 9.465529 -128.629761
v -9.624268 6.669765 132.407288
v -18.532013 5.663867 132.251404
v -20.084045 7.256154 -128.869141
v -20.253510 2.063108 -128.588440
v -18.436554 0.988623 132.057068
v 53.159561 4.309068 129.398193
v 51.497986 2.985552 -127.135132
v 51.347717 -1.682980 -126.902344
v 53.276855 -0.378998 129.246277
v 43.910889 8.572855 129.780762
v 42.664612 7.774323 -127.349670
v 42.503143 3.143784 -127.000549
v 44.017303 3.883764 129.631470
v 34.859344 5.996452 130.040710
v 33.549652 3.526799 -127.201416
v 33.360291 -1.009118 -126.562683
v 35.004242 0.748624 129.854919
v 25.662567 13.483256 130.678406
v 25.060638 9.885538 -130.286926
v 24.916046 6.058189 -129.892822
v 25.771881 8.796110 130.523071
v -45.459045 6.524866 130.534058
v -47.053986 10.402595 -127.919678
v -47.201324 5.724048 -127.717468
v -45.363831 1.838248 130.376221
v -54.338074 1.952418 129.963074
v -56.177277 6.183267 -127.685120
v -56.325043 1.506251 -127.478271
v -54.242706 -2.728678 129.787537
v -7.649933 -0.063943 52.915100
v -16.004425 4.406874 53.286560
v -23.593811 -0.215065 53.874634
v -32.559357 3.193570 47.671875
v -40.410126 -2.188927 43.590881
v -47.092468 2.563584 45.813660
v -55.143433 -1.549584 49.795105
v -55.244446 3.141467 49.513489
v -47.247833 7.392159 46.393494
v -40.752106 2.259969 41.799561
v -32.694153 8.019301 48.236755
v -23.639099 4.583511 54.259705
v -16.263214 9.043240 52.681641
v -7.373749 4.657053 52.776062
v -0.010956 8.274670 45.927063
v 9.606750 4.694207 50.978882
v 17.902100 10.020988 54.719360
v 30.992249 6.562852 60.492188
v 41.127289 10.333969 54.273010
v 52.006546 5.594385 51.916992
v 52.287140 0.894063 52.119080
v 41.300415 5.743832 55.177673
v 31.304962 1.623369 59.192932
v 18.082397 5.455266 55.776184
v 9.392395 0.330531 53.347717
v 0.402496 3.818588 47.642334
v -2.070435 -0.343185 -52.185059
v 6.633118 3.230435 -51.058472
v 14.748199 -2.983913 -53.097839
v 22.908813 0.962999 -51.184082
v 29.787903 -4.295832 -48.823914
v 40.464325 0.659159 -52.443848
v 49.425598 -3.457071 -56.255432
v 49.572021 1.224501 -55.936340
v 40.838684 5.513884 -53.046021
v 29.221283 0.110903 -46.878723
v 23.393799 5.819230 -51.811707
v 15.048218 1.418681 -50.897766
v 6.815582 7.404763 -50.248352
v -1.632385 4.585916 -48.388184
v -10.760986 7.440908 -54.626526
v -18.321045 4.458018 -61.582458
v -28.282562 7.872554 -54.025208
v -37.409485 4.092849 -56.658813
v -47.296295 11.594152 -69.995239
v -55.403595 6.866700 -67.949463
v -54.000275 1.401564 -64.513123
v -47.251770 6.182282 -66.613342
v -37.410187 -1.340889 -53.157898
v -28.424591 3.398504 -55.405334
v -18.889465 -0.582545 -59.999634
v -10.892059 3.033461 -56.348694
vt 0.027679 0.280323
vt 0.027679 0.280323
vt 0.100088 0.255417
vt 0.100088 0.255417
vt 0.027679 0.280323
vt 0.027679 0.280323
vt 0.100088 0.255417
vt 0.100088 0.255417
vt 0.027679 0.280323
vt 0.027679 0.280323
vt 0.100088 0.255417
vt 0.100088 0.255417
vt 0.100088 0.255417
vt 0.100088 0.255417
vt 0.100088 0.255417
vt 0.027679 0.280323
vt 0.100088 0.255417
vt 0.027679 0.280323
vt 0.100088 0.255417
vt 0.100088 0.255417
vt 0.027679 0.280323
vt 0.100088 0.255417
vt 0.100088 0.255417
vt 0.100088 0.255417
vt 0.027679 0.280323
vt 0.100088 0.255417
vt 0.100088 0.255417
vt 0.100088 0.255417
vt 0.100088 0.255417
vt 0.027679 0.280323
vt 0.100088 0.255417
vt 0.100088 0.255417
vt 0.100088 0.255417
vt 0.100088 0.255417
vt 0.100088 0.255417
vt 0.100088 0.255417
vt 0.100088 0.255417
vt 0.100088 0.255417
vt 0.100088 0.255417
vt 0.100088 0.255417
vt 0.100088 0.255417
vt 0.027679 0.280323
vt 0.027679 0.280323
vt 0.100088 0.255417
vt 0.100088 0.255417
vt 0.027679 0.280323
vt 0.027679 0.280323
vt 0.027679 0.280323
vt 0.027679 0.280323
vt 0.027679 0.280323
vt 0.027679 0.280323
vt 0.100088 0.255417
vt 0.027679 0.280323
vt 0.100088 0.255417
vt 0.100088 0.255417
vt 0.027679 0.280323
vt 0.100088 0.255417
vt 0.027679 0.280323
vt 0.100088 0.255417
vt 0.100088 0.255417
vt 0.100088 0.255417
vt 0.027679 0.280323
vt 0.027679 0.280323
vt 0.100088 0.255417
vt 0.100088 0.255417
vt 0.100088 0.255417
vt 0.027679 0.280323
vt 0.027679 0.280323
vt 0.027679 0.280323
vt 0.027679 0.280323
vt 0.100088 0.255417
vt 0.027679 0.280323
vt 0.100088 0.255417
vt 0.027679 0.280323
vt 0.027679 0.280323
vt 0.100088 0.255417
vt 0.100088 0.255417
vt 0.100088 0.255417
vt 0.027679 0.280323
vt 0.100088 0.255417
vt 0.100088 0.255417
vt 0.027679 0.280323
vt 0.100088 0.255417
vt 0.100088 0.255417
vt 0.100088 0.255417
vt 0.100088 0.255417
vt 0.100088 0.255417
vt 0.100088 0.255417
vt 0.027679 0.280323
vt 0.027679 0.280323
vt 0.100088 0.255417
vt 0.100088 0.255417
vt 0.100088 0.255417
vt 0.100088 0.255417
vt 0.100088 0.255417
vt 0.100088 0.255417
vt 0.100088 0.255417
vt 0.100088 0.255417
vt 0.100088 0.255417
vt 0.100088 0.255417
vt 0.100088 0.255417
vt 0.100088 0.255417
vt 0.100088 0.255417
vt 0.100088 0.255417
vt 0.100088 0.255417
vt 0.100088 0.255417
vt 0.100088 0.255417
vt 0.100088 0.255417
vt 0.100088 0.255417
vt 0.027679 0.280323
vt 0.100088 0.255417
vt 0.100088 0.255417
vt 0.100088 0.255417
vt 0.100088 0.255417
vt 0.100088 0.255417
vt 0.100088 0.255417
vt 0.027679 0.280323
vt 0.100088 0.255417
vt 0.100088 0.255417
vt 0.100088 0.255417
vt 0.100088 0.255417
vt 0.100088 0.255417
vt 0.100088 0.255417
vt 0.100088 0.255417
vt 0.100088 0.255417
vt 0.100088 0.255417
vt 0.100088 0.255417
vt 0.100088 0.255417
vt 0.100088 0.255417
vt 0.100088 0.255417
vt 0.100088 0.255417
vt 0.100088 0.255417
vt 0.100088 0.255417
vt 0.100088 0.255417
vt 0.100088 0.255417
vt 0.100088 0.255417
vt 0.100088 0.255417
vt 0.027679 0.280323
vt 0.027679 0.280323
vt 0.027679 0.280323
vt 0.027679 0.280323
vt 0.027679 0.280323
vt 0.027679 0.280323
vt 0.027679 0.280323
vt 0.027679 0.280323
vt 0.027679 0.280323
vt 0.027679 0.280323
vt 0.027679 0.280323
vt 0.027679 0.280323
vt 0.027679 0.280323
vt 0.027679 0.280323
vt 0.027679 0.280323
vt 0.027679 0.280323
vt 0.027679 0.280323
vt 0.027679 0.280323
vt 0.027679 0.280323
vt 0.027679 0.280323
vt 0.027679 0.280323
vt 0.027679 0.280323
vt 0.027679 0.280323
vt 0.027679 0.280323
vt 0.027679 0.280323
vt 0.027679 0.280323
vt 0.027679 0.280323
vt 0.027679 0.280323
vt 0.027679 0.280323
vt 0.027679 0.280323
vt 0.027679 0.280323
vt 0.027679 0.280323
vt 0.027679 0.280323
vn -0.480768 0.876776 -0.011208
vn -0.480768 0.876776 -0.011208
vn -0.480768 0.876776 -0.011208
vn -0.480768 0.876776 -0.011208
vn -0.108208 -0.056306 -0.992532
vn -0.108208 -0.056306 -0.992532
vn -0.108208 -0.056306 -0.992532
vn -0.108208 -0.056306 -0.992532
vn 0.514090 -0.857625 0.013836
vn 0.514090 -0.857625 0.013836
vn 0.514090 -0.857624 0.013836
vn 0.514090 -0.857624 0.013836
vn 0.009677 -0.013090 0.999867
vn 0.009677 -0.013090 0.999868
vn 0.009677 -0.013090 0.999868
vn 0.009677 -0.013090 0.999868
vn 0.044814 -0.034807 0.998389
vn 0.044814 -0.034807 0.998389
vn 0.044814 -0.034807 0.998389
vn 0.044814 -0.034807 0.998389
vn -0.496576 0.866112 -0.057125
vn -0.496576 0.866112 -0.057125
vn -0.496576 0.866112 -0.057125
vn -0.496576 0.866112 -0.057125
vn -0.074045 -0.072390 -0.994624
vn -0.074045 -0.072390 -0.994624
vn -0.074045 -0.072390 -0.994624
vn -0.074045 -0.072390 -0.994624
vn 0.462413 -0.884992 0.054437
vn 0.462413 -0.884992 0.054437
vn 0.462414 -0.884992 0.054437
vn 0.462413 -0.884992 0.054437
vn 0.339876 0.940366 0.013988
vn 0.339876 0.940366 0.013988
vn 0.339876 0.940366 0.013988
vn 0.339876 0.940366 0.013988
vn -0.220801 -0.042945 0.974373
vn -0.220801 -0.042945 0.974373
vn -0.220801 -0.042945 0.974373
vn -0.220801 -0.042945 0.974373
vn -0.369817 -0.928994 -0.014371
vn -0.369817 -0.928994 -0.014371
vn -0.369817 -0.928994 -0.014371
vn -0.369817 -0.928994 -0.014371
vn 0.068888 -0.051541 -0.996292
vn 0.068888 -0.051541 -0.996292
vn 0.068888 -0.051541 -0.996292
vn 0.068888 -0.051541 -0.996292
vn 0.470299 0.882443 0.010661
vn 0.470299 0.882443 0.010661
vn 0.470299 0.882443 0.010661
vn 0.470299 0.882443 0.010661
vn -0.081578 -0.046564 -0.995579
vn -0.081578 -0.046564 -0.995579
vn -0.081578 -0.046564 -0.995579
vn -0.081578 -0.046564 -0.995579
vn -0.491534 -0.870786 -0.011196
vn -0.491534 -0.870786 -0.011196
vn -0.491534 -0.870786 -0.011196
vn -0.491534 -0.870786 -0.011196
vn -0.023625 -0.049524 0.998494
vn -0.023625 -0.049524 0.998494
vn -0.023625 -0.049524 0.998494
vn -0.023625 -0.049524 0.998494
vn -0.390674 0.920064 -0.029268
vn -0.390674 0.920064 -0.029268
vn -0.390674 0.920064 -0.029268
vn -0.390674 0.920064 -0.029268
vn -0.002153 -0.048933 -0.998800
vn -0.002153 -0.048933 -0.998800
vn -0.002153 -0.048933 -0.998800
vn -0.002153 -0.048933 -0.998800
vn 0.412119 -0.910707 0.027758
vn 0.412119 -0.910707 0.027758
vn 0.412119 -0.910707 0.027758
vn 0.412119 -0.910707 0.027758
vn 0.004920 -0.054177 0.998519
vn 0.004920 -0.054177 0.998519
vn 0.004920 -0.054177 0.998519
vn 0.004920 -0.054177 0.998519
vn 0.369099 0.929307 0.012447
vn 0.369099 0.929307 0.012447
vn 0.369099 0.929307 0.012447
vn 0.369099 0.929307 0.012447
vn -0.014314 -0.048266 -0.998732
vn -0.014314 -0.048266 -0.998732
vn -0.014314 -0.048266 -0.998732
vn -0.014314 -0.048266 -0.998732
vn -0.413048 -0.910609 -0.013558
vn -0.413048 -0.910609 -0.013558
vn -0.413048 -0.910609 -0.013558
vn -0.413048 -0.910609 -0.013558
vn 0.189676 -0.034552 0.981239
vn 0.189676 -0.034552 0.981239
vn 0.189676 -0.034552 0.981239
vn 0.189676 -0.034552 0.981239
vn -0.437674 0.898692 -0.028181
vn -0.437674 0.898692 -0.028181
vn -0.437674 0.898692 -0.028181
vn -0.437674 0.898692 -0.028181
vn 0.039014 -0.051147 -0.997929
vn 0.039014 -0.051147 -0.997929
vn 0.039014 -0.051147 -0.997929
vn 0.039014 -0.051147 -0.997929
vn 0.462911 -0.885986 0.027232
vn 0.462911 -0.885986 0.027232
vn 0.462911 -0.885986 0.027232
vn 0.462911 -0.885986 0.027232
vn -0.013390 -0.036276 0.999252
vn -0.013390 -0.036276 0.999252
vn -0.013390 -0.036276 0.999252
vn -0.013390 -0.036276 0.999252
vn 0.408012 0.911910 -0.044111
vn 0.408013 0.911910 -0.044111
vn 0.408013 0.911910 -0.044111
vn 0.408013 0.911910 -0.044111
vn -0.016021 -0.061912 -0.997953
vn -0.016021 -0.061912 -0.997953
vn -0.016021 -0.061912 -0.997953
vn -0.016021 -0.061912 -0.997953
vn -0.396046 -0.917035 0.046841
vn -0.396046 -0.917035 0.046841
vn -0.396046 -0.917035 0.046841
vn -0.396046 -0.917035 0.046841
vn 0.026957 -0.031451 0.999142
vn 0.026957 -0.031451 0.999142
vn 0.026957 -0.031451 0.999142
vn 0.026957 -0.031451 0.999142
vn -0.409358 0.911316 -0.043920
vn -0.409358 0.911316 -0.043921
vn -0.409358 0.911316 -0.043920
vn -0.409358 0.911316 -0.043920
vn 0.017689 -0.107800 -0.994015
vn 0.017689 -0.107800 -0.994015
vn 0.017689 -0.107800 -0.994015
vn 0.017689 -0.107800 -0.994015
vn 0.414561 -0.909058 0.041865
vn 0.414561 -0.909058 0.041865
vn 0.414561 -0.909058 0.041865
vn 0.414561 -0.909058 0.041865
vn 0.037079 -0.032742 0.998776
vn 0.037079 -0.032742 0.998776
vn 0.037079 -0.032742 0.998776
vn 0.037079 -0.032742 0.998776
vn 0.452420 0.891057 -0.036511
vn 0.452420 0.891057 -0.036511
vn 0.452420 0.891057 -0.036511
vn 0.452420 0.891057 -0.036511
vn 0.260588 -0.128573 -0.956851
vn 0.260588 -0.128573 -0.956851
vn 0.260588 -0.128573 -0.956850
vn 0.260588 -0.128573 -0.956851
vn -0.420680 -0.906437 0.037423
vn -0.420680 -0.906437 0.037423
vn -0.420680 -0.906437 0.037423
vn -0.420680 -0.906437 0.037423
vn 0.042776 -0.033191 0.998533
vn 0.042776 -0.033191 0.998533
vn 0.042776 -0.033191 0.998533
vn 0.042776 -0.033191 0.998533
vn 0.599714 0.799588 0.031655
vn 0.599714 0.799588 0.031655
vn 0.599714 0.799588 0.031655
vn 0.599714 0.799588 0.031655
vn -0.077095 -0.056902 -0.995399
vn -0.077095 -0.056902 -0.995399
vn -0.077095 -0.056902 -0.995399
vn -0.077095 -0.056902 -0.995399
vn -0.585039 -0.810612 -0.025255
vn -0.585039 -0.810612 -0.025255
vn -0.585039 -0.810612 -0.025255
vn -0.585039 -0.810612 -0.025255
vn 0.018413 -0.012119 0.999757
vn 0.018413 -0.012119 0.999757
vn 0.018413 -0.012119 0.999757
vn 0.018413 -0.012119 0.999757
vn -0.479330 0.877117 0.030159
vn -0.479330 0.877117 0.030159
vn -0.479330 0.877117 0.030159
vn -0.479330 0.877117 0.030159
vn -0.005827 -0.043498 -0.999037
vn -0.005827 -0.043498 -0.999037
vn -0.005827 -0.043498 -0.999037
vn -0.005827 -0.043498 -0.999037
vn 0.508084 -0.861007 -0.022744
vn 0.508084 -0.861007 -0.022744
vn 0.508084 -0.861007 -0.022744
vn 0.508084 -0.861007 -0.022744
vn -0.046421 -0.036470 0.998256
vn -0.046421 -0.036470 0.998256
vn -0.046421 -0.036470 0.998256
vn -0.046421 -0.036470 0.998256
vn 0.999579 0.014608 -0.025072
vn 0.999579 0.014608 -0.025072
vn 0.999579 0.014608 -0.025072
vn 0.999579 0.014608 -0.025072
vn -0.988716 -0.149562 -0.008506
vn -0.988716 -0.149562 -0.008506
vn -0.988716 -0.149562 -0.008506
vn -0.988716 -0.149562 -0.008506
vn -0.295555 -0.952506 0.073345
vn -0.295555 -0.952506 0.073345
vn -0.295555 -0.952506 0.073345
vn -0.295555 -0.952506 0.073345
vn 0.531608 -0.846747 -0.020331
vn 0.531608 -0.846747 -0.020331
vn 0.531608 -0.846747 -0.020331
vn 0.531608 -0.846746 -0.020331
vn -0.340600 -0.939648 0.032451
vn -0.340600 -0.939648 0.032451
vn -0.340600 -0.939648 0.032451
vn -0.340600 -0.939648 0.032451
vn 0.578553 -0.815089 -0.030109
vn 0.578553 -0.815089 -0.030109
vn 0.578553 -0.815089 -0.030109
vn 0.578553 -0.815089 -0.030109
vn -0.499077 -0.866479 0.011721
vn -0.499077 -0.866479 0.011721
vn -0.499077 -0.866479 0.011721
vn -0.499077 -0.866479 0.011721
vn 0.453380 -0.891145 -0.017558
vn 0.453380 -0.891144 -0.017558
vn 0.453380 -0.891145 -0.017558
vn 0.453380 -0.891144 -0.017558
vn -0.999723 -0.020824 0.010953
vn -0.999723 -0.020824 0.010953
vn -0.999723 -0.020824 0.010953
vn -0.999723 -0.020824 0.010953
vn -0.461035 0.887186 0.018634
vn -0.461035 0.887186 0.018634
vn -0.461035 0.887186 0.018634
vn -0.461035 0.887186 0.018634
vn 0.514559 0.857342 -0.013912
vn 0.514559 0.857342 -0.013912
vn 0.514559 0.857342 -0.013912
vn 0.514559 0.857342 -0.013912
vn -0.575272 0.817348 0.031694
vn -0.575272 0.817348 0.031694
vn -0.575272 0.817348 0.031694
vn -0.575272 0.817348 0.031694
vn 0.321616 0.946466 -0.027679
vn 0.321616 0.946466 -0.027679
vn 0.321616 0.946465 -0.027679
vn 0.321616 0.946465 -0.027679
vn -0.471179 0.881711 0.024012
vn -0.471179 0.881711 0.024012
vn -0.471179 0.881711 0.024012
vn -0.471179 0.881711 0.024012
vn 0.215155 0.974859 -0.057949
vn 0.215155 0.974859 -0.057949
vn 0.215155 0.974859 -0.057949
vn 0.215155 0.974859 -0.057949
vn -0.466732 0.884031 -0.025488
vn -0.466732 0.884031 -0.025488
vn -0.466732 0.884031 -0.025488
vn -0.466732 0.884031 -0.025488
vn 0.496159 0.862490 -0.099684
vn 0.496159 0.862490 -0.099684
vn 0.496159 0.862490 -0.099684
vn 0.496159 0.862490 -0.099684
vn -0.521377 0.853256 0.010939
vn -0.521377 0.853256 0.010939
vn -0.521377 0.853256 0.010939
vn -0.521377 0.853256 0.010939
vn 0.450113 0.891355 -0.053708
vn 0.450113 0.891355 -0.053708
vn 0.450113 0.891355 -0.053708
vn 0.450113 0.891355 -0.053708
vn -0.305035 0.951892 0.029259
vn -0.305035 0.951892 0.029259
vn -0.305035 0.951892 0.029259
vn -0.305035 0.951892 0.029259
vn 0.409174 0.912425 0.007640
vn 0.409174 0.912425 0.007640
vn 0.409174 0.912425 0.007640
vn 0.409174 0.912425 0.007640
vn 0.999020 0.042270 -0.013146
vn 0.999020 0.042270 -0.013146
vn 0.999020 0.042270 -0.013146
vn 0.999020 0.042270 -0.013146
vn -0.411653 -0.911299 -0.008770
vn -0.411653 -0.911299 -0.008770
vn -0.411653 -0.911298 -0.008770
vn -0.411653 -0.911298 -0.008770
vn 0.349958 -0.936180 -0.033116
vn 0.349958 -0.936180 -0.033116
vn 0.349958 -0.936180 -0.033116
vn 0.349958 -0.936180 -0.033116
vn -0.471951 -0.880096 0.051891
vn -0.471951 -0.880096 0.051891
vn -0.471951 -0.880096 0.051891
vn -0.471951 -0.880096 0.051891
vn 0.529367 -0.848173 -0.019313
vn 0.529367 -0.848173 -0.019313
vn 0.529367 -0.848173 -0.019313
vn 0.529367 -0.848173 -0.019313
vn -0.531652 -0.841204 0.098604
vn -0.531651 -0.841204 0.098604
vn -0.531651 -0.841204 0.098604
vn -0.531652 -0.841204 0.098604
vn 0.461795 -0.886620 0.025501
vn 0.461795 -0.886620 0.025501
vn 0.461795 -0.886620 0.025501
vn 0.461795 -0.886620 0.025501
vn 0.526036 -0.847650 -0.069108
vn 0.526036 -0.847650 -0.069108
vn 0.526036 -0.847650 -0.069108
vn 0.526036 -0.847650 -0.069108
vn -0.558364 -0.823481 -0.100536
vn -0.558365 -0.823481 -0.100536
vn -0.558364 -0.823481 -0.100536
vn -0.558364 -0.823481 -0.100536
vn 0.204958 -0.974839 -0.087644
vn 0.204958 -0.974839 -0.087644
vn 0.204958 -0.974839 -0.087644
vn 0.204958 -0.974839 -0.087644
vn -0.610945 -0.789077 -0.064065
vn -0.610945 -0.789077 -0.064065
vn -0.610945 -0.789077 -0.064065
vn -0.610945 -0.789077 -0.064065
vn 0.414237 -0.909966 -0.019222
vn 0.414237 -0.909966 -0.019222
vn 0.414237 -0.909966 -0.019222
vn 0.414237 -0.909966 -0.019222
vn -0.454890 -0.889715 -0.038503
vn -0.454890 -0.889715 -0.038503
vn -0.454890 -0.889715 -0.038503
vn -0.454890 -0.889715 -0.038503
vn 0.999143 -0.031947 0.026309
vn 0.999143 -0.031947 0.026309
vn 0.999143 -0.031947 0.026309
vn 0.999143 -0.031947 0.026309
vn 0.463169 0.885522 0.036418
vn 0.463169 0.885522 0.036418
vn 0.463169 0.885522 0.036418
vn 0.463169 0.885522 0.036418
vn -0.417752 0.908407 0.016721
vn -0.417752 0.908407 0.016721
vn -0.417752 0.908407 0.016721
vn -0.417752 0.908407 0.016721
vn 0.623360 0.779609 0.060268
vn 0.623360 0.779609 0.060268
vn 0.623360 0.779609 0.060268
vn 0.623360 0.779609 0.060268
vn -0.168026 0.982234 0.083564
vn -0.168026 0.982234 0.083564
vn -0.168026 0.982234 0.083564
vn -0.168026 0.982234 0.083564
vn 0.542655 0.833651 0.102723
vn 0.542655 0.833651 0.102723
vn 0.542655 0.833651 0.102723
vn 0.542655 0.833651 0.102723
vn -0.464125 0.882450 0.076618
vn -0.464125 0.882450 0.076618
vn -0.464125 0.882450 0.076618
vn -0.464125 0.882450 0.076618
vn 0.360851 0.930081 0.068816
vn 0.360851 0.930081 0.068816
vn 0.360851 0.930081 0.068816
vn 0.360851 0.930081 0.068816
vn -0.526727 0.847619 0.064035
vn -0.526727 0.847619 0.064035
vn -0.526727 0.847619 0.064035
vn -0.526727 0.847619 0.064035
vn 0.339620 0.940101 0.029460
vn 0.339620 0.940101 0.029460
vn 0.339620 0.940101 0.029460
vn 0.339620 0.940101 0.029460
vn -0.415604 0.909041 0.030310
vn -0.415604 0.909041 0.030310
vn -0.415604 0.909041 0.030310
vn -0.415604 0.909041 0.030310
vn 0.538998 0.842306 0.001633
vn 0.538998 0.842306 0.001633
vn 0.538998 0.842306 0.001633
vn 0.538998 0.842306 0.001633
vn -0.462042 0.886776 -0.012045
vn -0.462042 0.886776 -0.012045
vn -0.462042 0.886776 -0.012045
vn -0.462042 0.886776 -0.012045
vn -0.993179 -0.113749 0.025616
vn -0.993179 -0.113749 0.025616
vn -0.993179 -0.113749 0.025616
vn -0.993179 -0.113749 0.025616
vn 0.492448 -0.870317 -0.006547
vn 0.492448 -0.870317 -0.006547
vn 0.492448 -0.870317 -0.006547
vn 0.492448 -0.870317 -0.006547
vn -0.539289 -0.842073 -0.008972
vn -0.539289 -0.842073 -0.008972
vn -0.539289 -0.842073 -0.008972
vn -0.539289 -0.842073 -0.008972
vn 0.451547 -0.891627 -0.033272
vn 0.451547 -0.891627 -0.033272
vn 0.451547 -0.891627 -0.033272
vn 0.451547 -0.891627 -0.033272
vn -0.389820 -0.920503 -0.026728
vn -0.389820 -0.920503 -0.026728
vn -0.389820 -0.920503 -0.026728
vn -0.389820 -0.920503 -0.026728
vn 0.547624 -0.834588 -0.059755
vn 0.547624 -0.834588 -0.059755
vn 0.547624 -0.834588 -0.059755
vn 0.547624 -0.834588 -0.059755
vn -0.433039 -0.899071 -0.064410
vn -0.433039 -0.899071 -0.064410
vn -0.433039 -0.899071 -0.064410
vn -0.433039 -0.899071 -0.064410
s off
f 95/1/1 96/2/2 62/5/3 63/6/4
f 7/8/5 6/7/6 3/3/7 4/4/8
f 56/9/9 57/10/10 101/16/11 102/18/12
f 5/21/13 8/25/14 1/30/15 2/42/16
f 10/11/17 11/12/18 44/13/19 41/14/20
f 89/43/21 90/46/22 68/47/23 69/48/24
f 12/49/25 9/50/26 42/51/27 43/53/28
f 76/56/29 77/58/30 81/62/31 82/63/32
f 63/91/33 64/92/34 94/122/35 95/124/36
f 1/30/37 28/67/38 25/68/39 2/42/40
f 102/135/41 103/136/42 55/78/43 56/80/44
f 3/24/45 26/23/46 27/28/47 4/27/48
f 67/95/49 68/96/50 90/118/51 91/119/52
f 15/33/53 14/32/54 9/15/55 12/17/56
f 77/105/57 78/106/58 80/108/59 81/109/60
f 13/31/61 16/35/62 11/12/63 10/11/64
f 66/94/65 67/95/66 91/119/67 92/120/68
f 19/38/69 18/37/70 14/32/71 15/33/72
f 78/106/73 53/76/74 79/107/75 80/108/76
f 17/36/77 20/40/78 16/35/79 13/31/80
f 65/93/81 66/94/82 92/120/83 93/121/84
f 23/69/85 22/70/86 18/72/87 19/74/88
f 53/76/89 54/77/90 104/137/91 79/107/92
f 21/41/93 24/45/94 20/40/95 17/36/96
f 64/92/97 65/93/98 93/121/99 94/122/100
f 27/75/101 26/79/102 22/70/103 23/69/104
f 54/77/105 55/78/106 103/136/107 104/137/108
f 25/22/109 28/26/110 24/45/111 21/41/112
f 86/114/113 87/115/114 71/99/115 72/100/116
f 35/82/117 34/89/118 30/90/119 31/110/120
f 73/101/121 74/102/122 84/112/123 85/113/124
f 33/117/125 36/138/126 32/139/127 29/140/128
f 87/115/129 88/116/130 70/98/131 71/99/132
f 39/141/133 38/142/134 34/89/135 35/82/136
f 74/102/137 75/103/138 83/111/139 84/112/140
f 37/57/141 40/60/142 36/55/143 33/52/144
f 88/143/145 89/43/146 69/48/147 70/144/148
f 43/53/149 42/51/150 38/142/151 39/141/152
f 75/145/153 76/56/154 82/63/155 83/146/156
f 41/14/157 44/13/158 40/60/159 37/57/160
f 96/125/161 97/127/162 61/87/163 62/88/164
f 47/65/165 46/61/166 6/64/167 7/66/168
f 57/81/169 58/83/170 100/131/171 101/132/172
f 45/147/173 48/148/174 8/25/175 5/21/176
f 97/127/177 98/128/178 60/86/179 61/87/180
f 51/73/181 50/71/182 46/61/183 47/65/184
f 58/83/185 59/85/186 99/130/187 100/131/188
f 49/149/189 52/150/190 48/148/191 45/147/192
f 85/113/193 86/114/194 72/100/195 73/101/196
f 98/128/197 99/129/198 59/84/199 60/86/200
f 24/44/201 54/77/202 53/76/203 20/39/204
f 28/29/205 55/78/206 54/77/207 24/44/208
f 56/9/209 55/151/210 28/67/211 1/30/212
f 8/25/213 57/10/214 56/9/215 1/30/216
f 48/148/217 58/152/218 57/10/219 8/25/220
f 52/150/221 59/153/222 58/152/223 48/148/224
f 60/154/225 59/153/226 52/150/227 49/149/228
f 61/155/229 60/154/230 49/149/231 45/147/232
f 62/5/233 61/155/234 45/147/235 5/21/236
f 63/6/237 62/5/238 5/21/239 2/42/240
f 2/42/241 25/68/242 64/156/243 63/6/244
f 25/22/245 21/41/246 65/93/247 64/92/248
f 21/41/249 17/36/250 66/94/251 65/93/252
f 17/36/253 13/31/254 67/95/255 66/94/256
f 13/31/257 10/11/258 68/96/259 67/95/260
f 69/97/261 68/96/262 10/11/263 41/14/264
f 70/98/265 69/97/266 41/14/267 37/57/268
f 71/99/269 70/98/270 37/57/271 33/52/272
f 72/157/273 71/158/274 33/117/275 29/140/276
f 73/159/277 72/157/278 29/140/279 32/139/280
f 36/138/281 74/160/282 73/159/283 32/139/284
f 40/59/285 75/103/286 74/102/287 36/54/288
f 44/20/289 76/104/290 75/103/291 40/59/292
f 11/19/293 77/105/294 76/104/295 44/20/296
f 16/34/297 78/106/298 77/105/299 11/19/300
f 20/39/301 53/76/302 78/106/303 16/34/304
f 80/108/305 79/107/306 19/38/307 15/33/308
f 81/109/309 80/108/310 15/33/311 12/17/312
f 82/63/313 81/62/314 12/49/315 43/53/316
f 83/146/317 82/63/318 43/53/319 39/141/320
f 84/161/321 83/146/322 39/141/323 35/82/324
f 85/162/325 84/161/326 35/82/327 31/110/328
f 30/90/329 86/163/330 85/162/331 31/110/332
f 34/89/333 87/164/334 86/163/335 30/90/336
f 38/142/337 88/143/338 87/164/339 34/89/340
f 42/51/341 89/43/342 88/143/343 38/142/344
f 9/50/345 90/46/346 89/43/347 42/51/348
f 91/119/349 90/118/350 9/15/351 14/32/352
f 92/120/353 91/119/354 14/32/355 18/37/356
f 93/165/357 92/166/358 18/72/359 22/70/360
f 94/167/361 93/165/362 22/70/363 26/79/364
f 95/124/365 94/122/366 26/23/367 3/24/368
f 6/7/369 96/126/370 95/123/371 3/3/372
f 46/61/373 97/127/374 96/125/375 6/64/376
f 50/71/377 98/128/378 97/127/379 46/61/380
f 50/71/381 51/73/382 99/129/383 98/128/384
f 100/131/385 99/130/386 51/73/387 47/65/388
f 101/132/389 100/131/390 47/65/391 7/66/392
f 102/134/393 101/133/394 7/8/395 4/4/396
f 4/27/397 27/28/398 103/136/399 102/135/400
f 104/168/401 103/169/402 27/75/403 23/69/404
f 79/170/405 104/168/406 23/69/407 19/74/408
