# This file uses centimeters as units for non-parametric coordinates.

v 30.493225 99.156403 3.065180
v 32.248932 99.112221 2.437244
v 32.248932 99.112221 0.408307
v 30.493225 99.156403 -0.219630
v 29.292786 99.184174 1.422775
v 49.614105 99.160210 3.072856
v 47.873901 99.077209 2.439145
v 47.873901 99.077209 0.406406
v 49.614105 99.160210 -0.227306
v 50.799622 99.204384 1.422775
v 48.372650 104.873695 3.076713
v 49.609314 105.516434 1.422775
v 48.372650 104.873695 -0.231163
v 46.512878 103.831238 0.406559
v 46.512878 103.831238 2.438992
v 31.235382 104.946556 3.071317
v 32.817200 103.675957 2.437521
v 32.817200 103.675957 0.408029
v 31.235382 104.946556 -0.225766
v 30.156616 105.736206 1.422775
v 44.484894 108.441452 3.074027
v 43.826111 106.825623 2.437871
v 43.826111 106.825623 0.407680
v 44.484894 108.441452 -0.228476
v 45.317474 109.597298 1.422775
v 35.205536 108.579315 3.072468
v 34.551575 109.812241 1.422775
v 35.205536 108.579315 -0.226918
v 35.560822 106.842133 0.408200
v 35.560822 106.842133 2.437351
v -28.035950 99.156403 -0.219630
v -29.791656 99.112221 0.408307
v -29.791656 99.112221 2.437243
v -28.035950 99.156403 3.065180
v -26.835510 99.184174 1.422775
v -47.156799 99.160210 -0.227306
v -45.416595 99.077209 0.406405
v -45.416595 99.077209 2.439145
v -47.156799 99.160210 3.072856
v -48.342316 99.204384 1.422775
v -45.915375 104.873695 -0.231163
v -47.152008 105.516434 1.422775
v -45.915375 104.873695 3.076714
v -44.055603 103.831238 2.438992
v -44.055603 103.831238 0.406559
v -28.778076 104.946556 -0.225766
v -30.359924 103.675957 0.408029
v -30.359924 103.675957 2.437521
v -28.778076 104.946556 3.071316
v -27.699310 105.736206 1.422775
v -42.027588 108.441452 -0.228477
v -41.368805 106.825623 0.407680
v -41.368805 106.825623 2.437871
v -42.027588 108.441452 3.074027
v -42.860168 109.597298 1.422775
v -32.748230 108.579315 -0.226918
v -32.094269 109.812225 1.422775
v -32.748230 108.579315 3.072468
v -33.103516 106.842133 2.437351
v -33.103516 106.842133 0.408200
v -77.421143 6.191826 41.803860
v 67.708771 0.000000 41.803860
v -71.997650 99.918167 41.803860
v 63.902863 99.918167 41.803860
v -68.693390 99.918182 -38.958309
v 72.532715 99.918167 -32.051506
v -77.421143 4.855804 -38.958309
v 72.532715 10.865601 -38.958309
v -77.421143 89.909134 41.803860
v -77.421143 83.811142 -38.958309
v 72.532715 83.308289 41.803860
v 72.532715 99.918167 13.476484
v 72.532715 5.125961 41.803860
v 72.532715 0.000000 33.696636
v -72.128784 0.000000 -38.958309
v -77.421143 0.000000 -31.222813
v -47.603729 0.000000 41.803852
v -77.421143 0.000000 32.509689
v 72.532715 0.000000 -29.064903
v 46.696533 0.000000 -38.958309
v 72.532715 85.147079 -38.958309
v 59.041473 99.918167 -38.958309
v -56.116241 99.918167 41.803860
v -18.638855 99.918167 41.803860
v -42.536255 99.918167 36.919445
v -44.178284 95.833214 41.803860
v 13.915497 99.918182 -38.958309
v 47.486938 99.918167 -38.958309
v 31.802185 99.918167 -34.129704
v 31.787903 95.523270 -38.958309
v 72.532715 11.150581 41.803860
v 72.532715 33.256512 41.803860
v 69.118561 21.310745 41.803860
v 72.532715 22.798624 39.180145
v -77.421143 43.927956 -38.958309
v -77.421143 12.872692 -38.958309
v -77.421143 25.450457 -34.608459
v -73.446472 29.532310 -38.958309
vt 0.059269 0.229144
vt 0.059234 0.229197
vt 0.059353 0.229300
vt 0.059407 0.229265
vt 0.059238 0.229200
vt 0.059359 0.229305
vt 0.059275 0.229148
vt 0.059417 0.229271
vt 0.059294 0.229113
vt 0.059446 0.229247
vt 0.058683 0.229262
vt 0.058729 0.229308
vt 0.058852 0.229197
vt 0.058825 0.229140
vt 0.058725 0.229312
vt 0.058849 0.229200
vt 0.058676 0.229269
vt 0.058821 0.229143
vt 0.058650 0.229238
vt 0.058806 0.229106
vt 0.059488 0.229560
vt 0.059532 0.229567
vt 0.059500 0.229574
vt 0.059435 0.229572
vt 0.059428 0.229563
vt 0.058576 0.229562
vt 0.058636 0.229564
vt 0.058630 0.229573
vt 0.058565 0.229575
vt 0.058532 0.229568
vt 0.059269 0.229144
vt 0.059234 0.229197
vt 0.059353 0.229300
vt 0.059407 0.229265
vt 0.059238 0.229200
vt 0.059359 0.229305
vt 0.059275 0.229148
vt 0.059417 0.229271
vt 0.059294 0.229113
vt 0.059446 0.229247
vt 0.058683 0.229262
vt 0.058729 0.229308
vt 0.058852 0.229197
vt 0.058825 0.229140
vt 0.058725 0.229312
vt 0.058849 0.229200
vt 0.058676 0.229269
vt 0.058821 0.229143
vt 0.058650 0.229238
vt 0.058806 0.229106
vt 0.059488 0.229560
vt 0.059532 0.229567
vt 0.059500 0.229574
vt 0.059435 0.229572
vt 0.059428 0.229563
vt 0.058576 0.229562
vt 0.058636 0.229564
vt 0.058630 0.229573
vt 0.058565 0.229575
vt 0.058532 0.229568
vt 0.058969 0.354069
vt 0.058945 0.354079
vt 0.058978 0.354104
vt 0.058198 0.354317
vt 0.058196 0.354292
vt 0.058181 0.354289
vt 0.057142 0.326520
vt 0.057729 0.326504
vt 0.057624 0.326493
vt 0.057125 0.326462
vt 0.056914 0.327024
vt 0.057132 0.326546
vt 0.057049 0.326518
vt 0.056986 0.326515
vt 0.056911 0.326596
vt 0.058993 0.353727
vt 0.059121 0.353834
vt 0.059109 0.353778
vt 0.058978 0.353659
vt 0.058136 0.353862
vt 0.058180 0.353730
vt 0.058154 0.353771
vt 0.057065 0.326988
vt 0.056922 0.326507
vt 0.057007 0.326479
vt 0.057070 0.326573
vt 0.057071 0.326918
vt 0.057678 0.327046
vt 0.057635 0.327044
vt 0.057056 0.327078
vt 0.056930 0.327092
vt 0.057053 0.327139
vt 0.057103 0.327143
vt 0.057768 0.327095
vt 0.057876 0.327080
vt 0.057657 0.327019
vt 0.057909 0.327050
vt 0.057669 0.326919
vt 0.057657 0.326979
vt 0.057754 0.326526
vt 0.057812 0.326505
vt 0.057886 0.326510
vt 0.057911 0.326569
vt 0.059059 0.354304
vt 0.058899 0.354330
vt 0.059073 0.354315
vt 0.058293 0.354101
vt 0.058419 0.354072
vt 0.058307 0.354048
vt 0.058283 0.353716
vt 0.058342 0.353655
vt 0.058272 0.353660
vt 0.058988 0.353778
vt 0.058912 0.353799
vt 0.058909 0.353773
vt 0.058744 0.353776
vt 0.058471 0.353665
vt 0.058460 0.353663
vt 0.058396 0.353655
vt 0.058553 0.353656
vt 0.058177 0.354256
vt 0.058175 0.354184
vt 0.058182 0.354199
vt 0.058165 0.354135
vt 0.058972 0.354025
vt 0.058981 0.353986
vt 0.058968 0.353959
vt 0.058981 0.353895
vt 0.057658 0.326629
vt 0.057657 0.326826
vt 0.057094 0.326999
vt 0.057072 0.327110
vt 0.057072 0.327069
vt 0.057621 0.326547
vt 0.057223 0.326527
vt 0.057640 0.326898
vn -0.088010 -0.311994 0.945999
vn -0.089022 -0.311470 0.946077
vn -0.275962 -0.148510 0.949626
vn -0.276137 -0.148159 0.949630
vn -0.265271 -0.964174 0.000000
vn -0.265271 -0.964174 0.000000
vn -0.886387 -0.462945 0.000000
vn -0.886387 -0.462945 0.000000
vn -0.089022 -0.311471 -0.946077
vn -0.088010 -0.311995 -0.945999
vn -0.276137 -0.148160 -0.949630
vn -0.275962 -0.148510 -0.949626
vn 0.191008 0.755915 -0.626185
vn 0.240388 0.735556 -0.633381
vn 0.678242 0.363394 -0.638697
vn 0.675185 0.368338 -0.639103
vn 0.240387 0.735557 0.633380
vn 0.191008 0.755916 0.626185
vn 0.675185 0.368337 0.639104
vn 0.678241 0.363393 0.638697
vn 0.287025 -0.153537 0.945539
vn 0.300609 -0.125437 0.945463
vn 0.098849 -0.310089 0.945555
vn 0.072525 -0.321903 0.943991
vn 0.919181 -0.393835 0.000000
vn 0.919181 -0.393835 0.000000
vn 0.275030 -0.961436 0.000000
vn 0.275030 -0.961436 0.000000
vn 0.300609 -0.125437 -0.945463
vn 0.287025 -0.153537 -0.945539
vn 0.072525 -0.321903 -0.943991
vn 0.098849 -0.310089 -0.945555
vn -0.703178 0.333630 -0.627879
vn -0.685874 0.362964 -0.630740
vn -0.210564 0.747275 -0.630272
vn -0.183635 0.757197 -0.626842
vn -0.685874 0.362964 0.630741
vn -0.703177 0.333629 0.627880
vn -0.183634 0.757198 0.626841
vn -0.210563 0.747276 0.630271
vn 0.678241 0.363393 0.638697
vn 0.675185 0.368337 0.639104
vn 0.780498 0.157635 0.604958
vn 0.780498 0.157635 0.604958
vn 0.675185 0.368338 -0.639103
vn 0.678242 0.363394 -0.638697
vn 0.780498 0.157636 -0.604958
vn 0.780498 0.157636 -0.604958
vn -0.275962 -0.148510 -0.949626
vn -0.276137 -0.148160 -0.949630
vn -0.310387 -0.077505 -0.947445
vn -0.310387 -0.077505 -0.947445
vn -0.886387 -0.462945 0.000000
vn -0.886387 -0.462945 0.000000
vn -0.961378 -0.275232 0.000000
vn -0.961378 -0.275232 0.000000
vn -0.276137 -0.148159 0.949630
vn -0.275962 -0.148510 0.949626
vn -0.310387 -0.077505 0.947446
vn -0.310387 -0.077505 0.947445
vn 0.338282 -0.043397 0.940044
vn 0.338282 -0.043397 0.940044
vn 0.300609 -0.125437 0.945463
vn 0.287025 -0.153537 0.945539
vn 0.992337 -0.123564 0.000000
vn 0.992337 -0.123564 0.000000
vn 0.919181 -0.393835 0.000000
vn 0.919181 -0.393835 0.000000
vn 0.338282 -0.043396 -0.940044
vn 0.338282 -0.043396 -0.940044
vn 0.287025 -0.153537 -0.945539
vn 0.300609 -0.125437 -0.945463
vn -0.805255 0.104491 -0.583648
vn -0.805255 0.104491 -0.583648
vn -0.685874 0.362964 -0.630740
vn -0.703178 0.333630 -0.627879
vn -0.805255 0.104491 0.583648
vn -0.805255 0.104491 0.583648
vn -0.703177 0.333629 0.627880
vn -0.685874 0.362964 0.630741
vn -0.089022 -0.311470 0.946077
vn -0.088010 -0.311994 0.945999
vn 0.072525 -0.321903 0.943991
vn 0.098849 -0.310089 0.945555
vn -0.265271 -0.964174 0.000000
vn -0.265271 -0.964174 0.000000
vn 0.275030 -0.961436 0.000000
vn 0.275030 -0.961436 0.000000
vn -0.088010 -0.311995 -0.945999
vn -0.089022 -0.311471 -0.946077
vn 0.098849 -0.310089 -0.945555
vn 0.072525 -0.321903 -0.943991
vn 0.240388 0.735556 -0.633381
vn 0.191008 0.755915 -0.626185
vn -0.183635 0.757197 -0.626842
vn -0.210564 0.747275 -0.630272
vn 0.191008 0.755916 0.626185
vn 0.240387 0.735557 0.633380
vn -0.210563 0.747276 0.630271
vn -0.183634 0.757198 0.626841
vn 0.088010 -0.311994 -0.945999
vn 0.089022 -0.311470 -0.946077
vn 0.275961 -0.148509 -0.949627
vn 0.276136 -0.148159 -0.949630
vn 0.265270 -0.964174 0.000000
vn 0.265270 -0.964174 0.000000
vn 0.886387 -0.462945 0.000000
vn 0.886387 -0.462945 0.000000
vn 0.089022 -0.311470 0.946077
vn 0.088010 -0.311994 0.945999
vn 0.276136 -0.148159 0.949630
vn 0.275961 -0.148509 0.949627
vn -0.191008 0.755918 0.626182
vn -0.240388 0.735559 0.633378
vn -0.678244 0.363396 0.638693
vn -0.675188 0.368338 0.639099
vn -0.240388 0.735560 -0.633376
vn -0.191008 0.755919 -0.626181
vn -0.675188 0.368338 -0.639100
vn -0.678244 0.363395 -0.638693
vn -0.287023 -0.153534 -0.945540
vn -0.300607 -0.125435 -0.945464
vn -0.098849 -0.310088 -0.945555
vn -0.072525 -0.321902 -0.943991
vn -0.919183 -0.393832 0.000000
vn -0.919183 -0.393832 0.000000
vn -0.275030 -0.961436 0.000000
vn -0.275030 -0.961436 0.000000
vn -0.300607 -0.125436 0.945464
vn -0.287024 -0.153535 0.945539
vn -0.072525 -0.321902 0.943991
vn -0.098849 -0.310088 0.945555
vn 0.703178 0.333628 0.627880
vn 0.685875 0.362963 0.630741
vn 0.210565 0.747277 0.630270
vn 0.183635 0.757200 0.626839
vn 0.685875 0.362963 -0.630741
vn 0.703178 0.333628 -0.627880
vn 0.183635 0.757201 -0.626838
vn 0.210565 0.747278 -0.630269
vn -0.678244 0.363395 -0.638693
vn -0.675188 0.368338 -0.639100
vn -0.780502 0.157634 -0.604953
vn -0.780502 0.157634 -0.604953
vn -0.675188 0.368338 0.639099
vn -0.678244 0.363396 0.638693
vn -0.780502 0.157634 0.604952
vn -0.780502 0.157634 0.604952
vn 0.275961 -0.148509 0.949627
vn 0.276136 -0.148159 0.949630
vn 0.310388 -0.077503 0.947445
vn 0.310388 -0.077503 0.947445
vn 0.886387 -0.462945 0.000000
vn 0.886387 -0.462945 0.000000
vn 0.961380 -0.275225 0.000000
vn 0.961380 -0.275225 0.000000
vn 0.276136 -0.148159 -0.949630
vn 0.275961 -0.148509 -0.949627
vn 0.310388 -0.077503 -0.947445
vn 0.310388 -0.077503 -0.947445
vn -0.338280 -0.043395 -0.940044
vn -0.338280 -0.043395 -0.940044
vn -0.300607 -0.125435 -0.945464
vn -0.287023 -0.153534 -0.945540
vn -0.992337 -0.123563 0.000000
vn -0.992337 -0.123563 0.000000
vn -0.919183 -0.393832 0.000000
vn -0.919183 -0.393832 0.000000
vn -0.338280 -0.043395 0.940044
vn -0.338280 -0.043395 0.940044
vn -0.287024 -0.153535 0.945539
vn -0.300607 -0.125436 0.945464
vn 0.805256 0.104487 0.583648
vn 0.805256 0.104487 0.583648
vn 0.685875 0.362963 0.630741
vn 0.703178 0.333628 0.627880
vn 0.805256 0.104487 -0.583648
vn 0.805256 0.104487 -0.583648
vn 0.703178 0.333628 -0.627880
vn 0.685875 0.362963 -0.630741
vn 0.089022 -0.311470 -0.946077
vn 0.088010 -0.311994 -0.945999
vn -0.072525 -0.321902 -0.943991
vn -0.098849 -0.310088 -0.945555
vn 0.265270 -0.964174 0.000000
vn 0.265270 -0.964174 0.000000
vn -0.275030 -0.961436 0.000000
vn -0.275030 -0.961436 0.000000
vn 0.088010 -0.311994 0.945999
vn 0.089022 -0.311470 0.946077
vn -0.098849 -0.310088 0.945555
vn -0.072525 -0.321902 0.943991
vn -0.240388 0.735559 0.633378
vn -0.191008 0.755918 0.626182
vn 0.183635 0.757200 0.626839
vn 0.210565 0.747277 0.630270
vn -0.191008 0.755919 -0.626181
vn -0.240388 0.735560 -0.633376
vn 0.210565 0.747278 -0.630269
vn 0.183635 0.757201 -0.626838
vn -0.613604 -0.668770 -0.419806
vn -0.613604 -0.668770 -0.419806
vn -0.613604 -0.668770 -0.419806
vn 0.668201 -0.628831 0.397592
vn 0.668201 -0.628831 0.397592
vn 0.668201 -0.628831 0.397592
vn 0.000000 1.000000 0.000000
vn 0.000000 1.000000 0.000000
vn 0.000000 1.000000 0.000000
vn 0.000000 1.000000 0.000000
vn 0.000000 0.000000 -1.000000
vn 0.000000 0.000000 -1.000000
vn 0.000000 0.000000 -1.000000
vn 0.000000 0.000000 -1.000000
vn 0.000000 0.000000 -1.000000
vn -0.878653 0.476106 -0.035949
vn -0.878653 0.476106 -0.035949
vn -0.878653 0.476106 -0.035949
vn -0.878653 0.476106 -0.035949
vn 0.856626 0.445070 0.260969
vn 0.856626 0.445070 0.260969
vn 0.856626 0.445070 0.260969
vn 1.000000 0.000000 0.000000
vn 1.000000 0.000000 0.000000
vn 1.000000 0.000000 0.000000
vn 1.000000 0.000000 0.000000
vn 1.000000 0.000000 0.000000
vn 1.000000 0.000000 0.000000
vn 0.000000 -1.000000 0.000000
vn 0.000000 -1.000000 0.000000
vn 0.000000 -1.000000 0.000000
vn 0.000000 -1.000000 0.000000
vn 0.000000 -1.000000 0.000000
vn -1.000000 0.000000 0.000000
vn -1.000000 0.000000 0.000000
vn -1.000000 0.000000 0.000000
vn -1.000000 0.000000 0.000000
vn -1.000000 0.000000 0.000000
vn -1.000000 0.000000 0.000000
vn 0.000000 0.000000 1.000000
vn 0.000000 0.000000 1.000000
vn 0.000000 0.000000 1.000000
vn 0.000000 0.000000 1.000000
vn 0.000000 0.000000 1.000000
vn -0.170294 -0.820071 0.546336
vn -0.170294 -0.820071 0.546336
vn -0.170294 -0.820071 0.546336
vn 0.272432 -0.647788 -0.711444
vn 0.272432 -0.647788 -0.711444
vn 0.272432 -0.647788 -0.711444
vn 0.420715 0.384261 -0.821792
vn 0.420715 0.384261 -0.821792
vn 0.420715 0.384261 -0.821792
vn 0.240629 0.703220 0.669014
vn 0.240629 0.703220 0.669014
vn 0.240629 0.703220 0.669014
vn -0.124975 0.781352 0.611449
vn -0.124975 0.781352 0.611449
vn -0.124975 0.781352 0.611449
vn -0.202813 0.724470 -0.658795
vn -0.202813 0.724470 -0.658795
vn -0.202813 0.724470 -0.658795
vn 0.178859 0.727351 -0.662548
vn 0.178859 0.727351 -0.662548
vn 0.178859 0.727351 -0.662548
vn 0.547301 0.183911 0.816479
vn 0.547301 0.183911 0.816479
vn 0.547301 0.183911 0.816479
vn 0.648279 -0.185281 0.738515
vn 0.648279 -0.185281 0.738515
vn 0.648279 -0.185281 0.738515
vn -0.807703 0.192703 -0.557208
vn -0.807704 0.192703 -0.557208
vn -0.807703 0.192703 -0.557208
vn -0.638644 -0.176331 -0.749027
vn -0.638644 -0.176331 -0.749027
vn -0.638644 -0.176331 -0.749027
vn -1.000000 0.000000 0.000000
vn -1.000000 0.000000 0.000000
vn -1.000000 0.000000 0.000000
vn -1.000000 0.000000 0.000000
vn -1.000000 0.000000 0.000000
vn -1.000000 0.000000 0.000000
vn -1.000000 0.000000 0.000000
vn 0.000000 0.000000 1.000000
vn 0.000000 0.000000 1.000000
vn 0.000000 0.000000 1.000000
vn 0.000000 0.000000 1.000000
vn 0.000000 0.000000 1.000000
vn 0.000000 0.000000 1.000000
vn -0.000000 0.000000 1.000000
vn -0.000000 0.000000 1.000000
vn -0.000000 0.000000 1.000000
vn -0.000000 0.000000 1.000000
vn -0.000000 0.000000 1.000000
vn 0.000000 -0.000000 1.000000
vn 0.000000 -0.000000 1.000000
vn 0.000000 -0.000000 1.000000
vn 0.000000 -0.000000 1.000000
vn 1.000000 -0.000000 0.000000
vn 1.000000 -0.000000 0.000000
vn 1.000000 -0.000000 0.000000
vn 1.000000 -0.000000 0.000000
vn 1.000000 -0.000000 0.000000
vn 1.000000 -0.000000 0.000000
vn 1.000000 -0.000000 0.000000
vn 0.000000 0.000000 -1.000000
vn 0.000000 0.000000 -1.000000
vn 0.000000 0.000000 -1.000000
vn 0.000000 0.000000 -1.000000
vn 0.000000 0.000000 -1.000000
vn 0.000000 0.000000 -1.000000
vn 0.000000 0.000000 -1.000000
vn 0.000000 0.000000 -1.000000
vn 0.000000 0.000000 -1.000000
vn 0.000000 0.000000 -1.000000
vn 0.000000 0.000000 -1.000000
vn 0.000000 0.000000 -1.000000
vn 0.000000 0.000000 -1.000000
vn 0.000000 0.000000 -1.000000
vn 0.000000 0.000000 -1.000000
vn 0.000000 1.000000 0.000000
vn 0.000000 1.000000 0.000000
vn 0.000000 1.000000 0.000000
vn 0.000000 1.000000 0.000000
vn 0.000000 1.000000 0.000000
vn 0.000000 1.000000 0.000000
vn 0.000000 1.000000 0.000000
vn 0.000000 1.000000 0.000000
vn 0.000000 1.000000 0.000000
vn 0.000000 1.000000 0.000000
vn 0.000000 1.000000 0.000000
vn 0.000000 1.000000 0.000000
vn 0.000000 1.000000 0.000000
vn 0.000000 1.000000 0.000000
vn 0.000000 -1.000000 0.000000
vn 0.000000 -1.000000 0.000000
vn 0.000000 -1.000000 0.000000
vn 0.000000 -1.000000 0.000000
vn 0.000000 -1.000000 0.000000
s off
f 21/1/1 22/2/2 15/3/3 11/4/4
f 22/2/5 23/5/6 14/6/7 15/3/8
f 23/5/9 24/7/10 13/8/11 14/6/12
f 24/7/13 25/9/14 12/10/15 13/8/16
f 25/9/17 21/1/18 11/4/19 12/10/20
f 16/11/21 17/12/22 30/13/23 26/14/24
f 17/12/25 18/15/26 29/16/27 30/13/28
f 18/15/29 19/17/30 28/18/31 29/16/32
f 19/17/33 20/19/34 27/20/35 28/18/36
f 20/19/37 16/11/38 26/14/39 27/20/40
f 12/10/41 11/4/42 6/21/43 10/22/44
f 13/8/45 12/10/46 10/22/47 9/23/48
f 14/6/49 13/8/50 9/23/51 8/24/52
f 15/3/53 14/6/54 8/24/55 7/25/56
f 11/4/57 15/3/58 7/25/59 6/21/60
f 1/26/61 2/27/62 17/12/63 16/11/64
f 2/27/65 3/28/66 18/15/67 17/12/68
f 3/28/69 4/29/70 19/17/71 18/15/72
f 4/29/73 5/30/74 20/19/75 19/17/76
f 5/30/77 1/26/78 16/11/79 20/19/80
f 22/2/81 21/1/82 26/14/83 30/13/84
f 23/5/85 22/2/86 30/13/87 29/16/88
f 24/7/89 23/5/90 29/16/91 28/18/92
f 25/9/93 24/7/94 28/18/95 27/20/96
f 21/1/97 25/9/98 27/20/99 26/14/100
f 51/31/101 52/32/102 45/33/103 41/34/104
f 52/32/105 53/35/106 44/36/107 45/33/108
f 53/35/109 54/37/110 43/38/111 44/36/112
f 54/37/113 55/39/114 42/40/115 43/38/116
f 55/39/117 51/31/118 41/34/119 42/40/120
f 46/41/121 47/42/122 60/43/123 56/44/124
f 47/42/125 48/45/126 59/46/127 60/43/128
f 48/45/129 49/47/130 58/48/131 59/46/132
f 49/47/133 50/49/134 57/50/135 58/48/136
f 50/49/137 46/41/138 56/44/139 57/50/140
f 42/40/141 41/34/142 36/51/143 40/52/144
f 43/38/145 42/40/146 40/52/147 39/53/148
f 44/36/149 43/38/150 39/53/151 38/54/152
f 45/33/153 44/36/154 38/54/155 37/55/156
f 41/34/157 45/33/158 37/55/159 36/51/160
f 31/56/161 32/57/162 47/42/163 46/41/164
f 32/57/165 33/58/166 48/45/167 47/42/168
f 33/58/169 34/59/170 49/47/171 48/45/172
f 34/59/173 35/60/174 50/49/175 49/47/176
f 35/60/177 31/56/178 46/41/179 50/49/180
f 52/32/181 51/31/182 56/44/183 60/43/184
f 53/35/185 52/32/186 60/43/187 59/46/188
f 54/37/189 53/35/190 59/46/191 58/48/192
f 55/39/193 54/37/194 58/48/195 57/50/196
f 51/31/197 55/39/198 57/50/199 56/44/200
f 67/61/201 75/62/202 76/63/203
f 62/64/204 74/65/205 73/66/206
f 89/67/207 85/68/208 84/69/209 64/70/210
f 68/71/211 90/72/212 88/73/213 82/74/214 81/75/215
f 70/76/216 69/77/217 63/78/218 65/79/219
f 71/80/220 72/81/221 64/82/222
f 94/83/223 81/75/224 66/84/225 72/85/226 71/86/227 92/87/228
f 77/94/229 80/90/230 79/91/231 74/92/232 62/93/233
f 67/96/234 76/88/235 78/95/236 61/97/237 97/98/238 96/99/239
f 61/97/240 86/100/241 83/101/242 63/102/243 69/103/244
f 78/104/245 77/105/246 61/106/247
f 79/107/248 80/108/249 68/109/250
f 81/110/251 82/111/252 66/112/253
f 83/113/254 86/114/255 85/115/256
f 85/115/257 86/114/258 84/116/259
f 90/117/260 89/118/261 88/119/262
f 87/120/263 89/118/264 90/117/265
f 91/121/266 94/122/267 93/123/268
f 93/123/269 94/122/270 92/124/271
f 96/125/272 97/126/273 98/127/274
f 98/127/275 97/126/276 95/128/277
f 97/98/278 69/103/279 70/129/280 95/130/281
f 97/98/282 61/97/283 69/103/284
f 86/100/285 93/131/286 92/87/287 71/86/288 64/70/289 84/69/290
f 93/131/291 77/94/292 62/93/293 73/132/294 91/133/295
f 61/97/296 77/94/297 93/131/298 86/100/299
f 73/132/300 74/92/301 79/91/302 68/71/303 81/75/304 94/83/305 91/133/306
f 70/129/307 65/134/308 87/135/309 90/72/310 98/136/311 95/130/312
f 98/136/313 80/90/314 75/89/315 67/96/316 96/99/317
f 98/136/318 90/72/319 68/71/320 80/90/321
f 89/67/322 64/70/323 72/85/324 66/84/325 82/74/326 88/73/327
f 65/134/328 63/102/329 83/101/330 85/68/331
f 65/134/332 85/68/333 89/67/334 87/135/335
f 76/88/336 75/89/337 80/90/338 77/94/339 78/95/340
