# This file uses centimeters as units for non-parametric coordinates.

v 0.540903 -0.312283 0.034395
v 0.540896 0.312262 0.034395
v 0.000002 0.624569 0.034395
v -0.540868 0.312263 0.034395
v -0.540884 -0.312283 0.034395
v 0.000002 -0.624586 0.034410
v 0.323077 -0.387350 -4.617323
v 0.323061 0.387354 -4.617323
v 0.000018 -0.000017 -4.617323
v 0.000018 0.481401 -4.617323
v -0.323057 0.387354 -4.617323
v -0.323042 -0.387350 -4.617323
v 0.000002 -0.481432 -4.617323
v 0.323077 -0.387350 -2.718039
v 0.323061 0.387354 -2.718031
v 0.323061 0.387354 0.000002
v 0.323077 -0.387350 0.000002
v 0.000018 0.481401 -2.718031
v 0.000018 0.481401 0.000002
v -0.323057 0.387354 -2.718031
v -0.323057 0.387354 0.000002
v -0.323042 -0.387350 -2.718039
v -0.323042 -0.387350 0.000002
v 0.000002 -0.481432 -2.718039
v 0.000002 -0.481436 0.000002
v 0.323077 -0.387350 -3.719076
v 0.323061 0.387354 -3.719061
v 0.217562 0.260847 -3.599287
v 0.217562 -0.260839 -3.599287
v 0.000018 0.481401 -3.719069
v 0.000018 0.324163 -3.599287
v -0.323057 0.387354 -3.719061
v -0.217542 0.260839 -3.599287
v -0.323042 -0.387350 -3.719076
v -0.217565 -0.260839 -3.599287
v 0.000002 -0.481432 -3.719076
v 0.000002 -0.324181 -3.599287
v 0.217562 -0.260839 -2.847853
v 0.000002 -0.324181 -2.847853
v -0.217565 -0.260839 -2.847853
v -0.217542 0.260843 -2.847853
v 0.000018 0.324167 -2.847853
v 0.217562 0.260849 -2.847853
v 0.540904 -0.180542 17.690386
v 0.000002 -0.312283 17.116663
v -0.540884 -0.180542 17.690386
v -0.540876 0.180548 17.690378
v 0.000002 0.312265 17.116663
v 0.540896 0.180534 17.690378
v 0.000002 0.000006 18.407671
v 0.540903 -0.312284 10.000383
v 0.540896 0.312262 10.000376
v 0.000002 0.624567 9.017063
v -0.540869 0.312269 10.000376
v -0.540884 -0.312284 10.000383
v 0.000002 -0.624586 9.017063
v 2.347904 -0.312284 12.428308
v 2.347871 0.312262 12.428301
v 2.347872 0.312265 17.116663
v 2.347905 -0.312283 17.116667
v -2.347821 0.312269 12.428301
v -2.347884 -0.312284 12.428308
v -2.347885 -0.312283 17.116667
v -2.347849 0.312286 17.116663
v 0.000002 0.312262 10.592920
v 0.000002 -0.312284 10.592920
v 1.644796 0.180534 17.690378
v 1.644820 -0.180542 17.690386
v -1.644800 -0.180542 17.690386
v -1.644776 0.180548 17.690378
v 2.347872 -0.000010 18.407671
v -2.347852 0.000002 18.407671
vt 0.102620 0.278443
vt 0.102620 0.278430
vt 0.103254 0.229503
vt 0.103350 0.229534
vt 0.102590 0.278419
vt 0.103188 0.229540
vt 0.102560 0.278422
vt 0.103242 0.229588
vt 0.102560 0.278435
vt 0.103242 0.229629
vt 0.102590 0.278445
vt 0.103346 0.229615
vt 0.102543 0.278843
vt 0.102544 0.278856
vt 0.102525 0.278847
vt 0.102525 0.278839
vt 0.102506 0.278838
vt 0.102507 0.278851
vt 0.102526 0.278855
vt 0.102560 0.278753
vt 0.102559 0.278739
vt 0.102582 0.278594
vt 0.102582 0.278608
vt 0.102541 0.278735
vt 0.102564 0.278590
vt 0.102523 0.278734
vt 0.102546 0.278589
vt 0.102523 0.278748
vt 0.102546 0.278604
vt 0.102542 0.278752
vt 0.102564 0.278608
vt 0.102551 0.278807
vt 0.102551 0.278794
vt 0.102546 0.278788
vt 0.102546 0.278797
vt 0.102532 0.278789
vt 0.102534 0.278786
vt 0.102514 0.278788
vt 0.102521 0.278785
vt 0.102515 0.278802
vt 0.102522 0.278794
vt 0.102533 0.278806
vt 0.102534 0.278797
vt 0.102540 0.278756
vt 0.102553 0.278757
vt 0.102353 0.228552
vt 0.102338 0.228415
vt 0.103293 0.228361
vt 0.103313 0.228497
vt 0.102371 0.228806
vt 0.103335 0.228750
vt 0.102384 0.229277
vt 0.103338 0.229221
vt 0.102369 0.229137
vt 0.103318 0.229081
vt 0.102351 0.228885
vt 0.103296 0.228831
vt 0.102528 0.278753
vt 0.102528 0.278744
vt 0.102540 0.278745
vt 0.102552 0.278748
vt 0.102594 0.278595
vt 0.102594 0.278607
vt 0.102564 0.278585
vt 0.102534 0.278587
vt 0.102534 0.278599
vt 0.102565 0.278609
vt 0.103188 0.229580
vt 0.102620 0.278443
vt 0.102620 0.278430
vt 0.102697 0.277928
vt 0.102697 0.277944
vt 0.102560 0.278422
vt 0.102560 0.278435
vt 0.102640 0.277936
vt 0.102640 0.277920
vt 0.103254 0.229544
vt 0.102535 0.229525
vt 0.102490 0.229467
vt 0.102405 0.229490
vt 0.102466 0.229550
vt 0.102462 0.229527
vt 0.102703 0.277892
vt 0.102647 0.277885
vt 0.102528 0.229484
vt 0.102486 0.229444
vt 0.102577 0.229307
vt 0.102509 0.229361
vt 0.102513 0.229385
vt 0.102584 0.229348
vt 0.102486 0.229708
vt 0.102442 0.229637
vt 0.102437 0.229614
vt 0.102478 0.229668
vt 0.103036 0.229387
vt 0.103034 0.229346
vt 0.102966 0.229713
vt 0.102968 0.229753
vt 0.102457 0.229316
vt 0.102350 0.229676
vn 0.208293 0.959407 0.190137
vn 0.208293 0.959407 0.190137
vn 0.208293 0.959407 0.190137
vn -0.208287 0.959409 0.190137
vn -0.208287 0.959409 0.190137
vn -0.208287 0.959409 0.190137
vn -0.208290 -0.959409 0.190134
vn -0.208290 -0.959409 0.190134
vn -0.208290 -0.959409 0.190134
vn 0.208284 -0.959410 0.190135
vn 0.208284 -0.959410 0.190135
vn 0.208284 -0.959410 0.190135
vn 0.000000 0.000000 -1.000000
vn 0.000000 0.000000 -1.000000
vn 0.000000 0.000000 -1.000000
vn 0.000000 0.000000 -1.000000
vn 0.000000 0.000000 -1.000000
vn 0.000000 0.000000 -1.000000
vn 0.000006 0.000000 -1.000000
vn 0.000006 0.000000 -1.000000
vn 0.000006 0.000000 -1.000000
vn 0.000000 0.000000 -1.000000
vn 0.000000 0.000000 -1.000000
vn 0.000000 0.000000 -1.000000
vn 0.000000 0.000000 -1.000000
vn 0.000000 0.000000 -1.000000
vn 0.000000 0.000000 -1.000000
vn 0.000000 0.000000 -1.000000
vn 0.000000 0.000000 -1.000000
vn 0.000000 0.000000 -1.000000
vn 1.000000 0.000020 0.000000
vn 1.000000 0.000020 0.000000
vn 1.000000 0.000020 0.000000
vn 1.000000 0.000020 0.000000
vn 0.279525 0.960139 0.000000
vn 0.279525 0.960139 0.000000
vn 0.279525 0.960139 0.000000
vn 0.279525 0.960139 0.000000
vn -0.279500 0.960146 0.000000
vn -0.279500 0.960146 0.000000
vn -0.279500 0.960146 0.000000
vn -0.279500 0.960146 0.000000
vn -1.000000 -0.000020 0.000000
vn -1.000000 -0.000020 0.000000
vn -1.000000 -0.000020 0.000000
vn -1.000000 -0.000020 0.000000
vn -0.279624 -0.960110 -0.000001
vn -0.279624 -0.960110 -0.000001
vn -0.279624 -0.960110 -0.000001
vn -0.279624 -0.960110 -0.000001
vn 0.279599 -0.960117 -0.000001
vn 0.279599 -0.960117 -0.000001
vn 0.279599 -0.960117 -0.000001
vn 0.279599 -0.960117 -0.000001
vn 0.750409 0.000001 0.660973
vn 0.750409 0.000001 0.660973
vn 0.750409 0.000001 0.660973
vn 0.750409 0.000001 0.660973
vn 0.173711 0.596788 0.783370
vn 0.173711 0.596788 0.783370
vn 0.173711 0.596788 0.783370
vn 0.173711 0.596788 0.783370
vn -0.173698 0.596777 0.783381
vn -0.173698 0.596777 0.783381
vn -0.173698 0.596777 0.783381
vn -0.173698 0.596777 0.783381
vn -0.750439 -0.000003 0.660940
vn -0.750439 -0.000003 0.660940
vn -0.750439 -0.000003 0.660940
vn -0.750439 -0.000003 0.660940
vn -0.173775 -0.596784 0.783359
vn -0.173775 -0.596784 0.783359
vn -0.173775 -0.596784 0.783359
vn -0.173775 -0.596784 0.783359
vn 0.173765 -0.596774 0.783369
vn 0.173765 -0.596774 0.783369
vn 0.173765 -0.596774 0.783369
vn 0.173765 -0.596774 0.783369
vn 1.000000 0.000020 0.000000
vn 1.000000 0.000020 0.000000
vn 1.000000 0.000020 0.000000
vn 1.000000 0.000020 0.000000
vn 0.279525 0.960139 0.000000
vn 0.279525 0.960139 0.000000
vn 0.279525 0.960139 0.000000
vn 0.279525 0.960139 0.000000
vn -0.279500 0.960146 0.000000
vn -0.279500 0.960146 0.000000
vn -0.279500 0.960146 0.000000
vn -0.279500 0.960146 0.000000
vn -1.000000 -0.000020 0.000000
vn -1.000000 -0.000020 0.000000
vn -1.000000 -0.000020 0.000000
vn -1.000000 -0.000020 0.000000
vn -0.279619 -0.960111 0.000000
vn -0.279619 -0.960111 0.000000
vn -0.279619 -0.960111 0.000000
vn -0.279619 -0.960111 0.000000
vn 0.279594 -0.960118 0.000000
vn 0.279594 -0.960118 0.000000
vn 0.279594 -0.960118 0.000000
vn 0.279594 -0.960118 0.000000
vn 0.279538 -0.960135 0.000000
vn 0.279538 -0.960135 0.000000
vn 0.279538 -0.960135 0.000000
vn 0.279538 -0.960135 0.000000
vn -0.279529 -0.960137 0.000000
vn -0.279529 -0.960137 0.000000
vn -0.279529 -0.960137 0.000000
vn -0.279529 -0.960137 0.000000
vn -1.000000 0.000044 -0.000000
vn -1.000000 0.000044 -0.000000
vn -1.000000 0.000044 -0.000000
vn -1.000000 0.000044 -0.000000
vn -0.279467 0.960155 -0.000003
vn -0.279467 0.960155 -0.000003
vn -0.279467 0.960155 -0.000003
vn -0.279467 0.960155 -0.000003
vn 0.279458 0.960158 -0.000006
vn 0.279458 0.960158 -0.000006
vn 0.279458 0.960158 -0.000006
vn 0.279458 0.960158 -0.000006
vn 1.000000 0.000000 0.000000
vn 1.000000 0.000000 0.000000
vn 1.000000 0.000000 0.000000
vn 1.000000 0.000000 0.000000
vn 0.182272 -0.625970 -0.758247
vn 0.182272 -0.625970 -0.758247
vn 0.182272 -0.625970 -0.758247
vn 0.182272 -0.625970 -0.758247
vn -0.182280 -0.625985 -0.758233
vn -0.182280 -0.625985 -0.758233
vn -0.182280 -0.625985 -0.758233
vn -0.182280 -0.625985 -0.758233
vn -0.776062 0.000008 -0.630657
vn -0.776062 0.000008 -0.630657
vn -0.776062 0.000008 -0.630657
vn -0.776062 0.000008 -0.630657
vn -0.182230 0.626039 -0.758200
vn -0.182230 0.626039 -0.758200
vn -0.182230 0.626039 -0.758200
vn -0.182230 0.626039 -0.758200
vn 0.182245 0.626051 -0.758186
vn 0.182245 0.626051 -0.758186
vn 0.182245 0.626051 -0.758186
vn 0.182245 0.626051 -0.758186
vn 0.776028 0.000013 -0.630698
vn 0.776028 0.000013 -0.630698
vn 0.776028 0.000013 -0.630698
vn 0.776028 0.000013 -0.630698
vn 0.155959 0.000003 -0.987764
vn 0.155959 0.000003 -0.987764
vn 0.155959 0.000003 -0.987764
vn 0.155959 0.000003 -0.987764
vn 0.308394 0.534118 -0.787154
vn 0.308394 0.534118 -0.787154
vn 0.308394 0.534118 -0.787154
vn -0.308425 0.534161 -0.787113
vn -0.308425 0.534161 -0.787113
vn -0.308425 0.534161 -0.787113
vn -0.155963 0.000000 -0.987763
vn -0.155963 0.000000 -0.987763
vn -0.155963 0.000000 -0.987763
vn -0.155963 0.000000 -0.987763
vn -0.308311 -0.534016 -0.787256
vn -0.308311 -0.534016 -0.787256
vn -0.308311 -0.534016 -0.787256
vn 0.308336 -0.534098 -0.787190
vn 0.308336 -0.534098 -0.787190
vn 0.308336 -0.534098 -0.787190
vn 0.067856 0.233060 -0.970092
vn 0.067856 0.233060 -0.970092
vn 0.067856 0.233060 -0.970092
vn -0.067852 0.233050 -0.970095
vn -0.067852 0.233050 -0.970095
vn -0.067852 0.233050 -0.970095
vn -0.067918 -0.233171 -0.970061
vn -0.067918 -0.233171 -0.970061
vn -0.067918 -0.233171 -0.970061
vn 0.067913 -0.233174 -0.970061
vn 0.067913 -0.233174 -0.970061
vn 0.067913 -0.233174 -0.970061
vn -0.012647 -0.971891 0.235092
vn -0.012647 -0.971891 0.235092
vn -0.012647 -0.971891 0.235092
vn 0.012648 -0.971890 0.235096
vn 0.012648 -0.971890 0.235096
vn 0.012648 -0.971890 0.235096
vn -0.798439 0.000030 0.602076
vn -0.798439 0.000030 0.602076
vn -0.798439 0.000030 0.602076
vn 0.012666 0.971895 0.235074
vn 0.012666 0.971895 0.235074
vn 0.012666 0.971895 0.235074
vn -0.012640 0.971894 0.235078
vn -0.012640 0.971894 0.235078
vn -0.012640 0.971894 0.235078
vn 0.798428 0.000030 0.602090
vn 0.798428 0.000030 0.602090
vn 0.798428 0.000030 0.602090
vn 1.000000 0.000012 0.000000
vn 1.000000 0.000012 0.000000
vn 1.000000 0.000012 0.000000
vn 1.000000 0.000012 0.000000
vn 0.500026 0.866011 0.000000
vn 0.500026 0.866011 0.000000
vn 0.500026 0.866011 0.000000
vn 0.500026 0.866011 0.000000
vn -0.500036 0.866005 0.000000
vn -0.500036 0.866005 0.000000
vn -0.500036 0.866005 0.000000
vn -0.500036 0.866005 0.000000
vn -1.000000 0.000025 -0.000000
vn -1.000000 0.000025 -0.000000
vn -1.000000 0.000025 -0.000000
vn -1.000000 0.000025 -0.000000
vn -0.500027 -0.866010 0.000000
vn -0.500027 -0.866010 0.000000
vn -0.500027 -0.866010 0.000000
vn -0.500027 -0.866010 0.000000
vn 0.500016 -0.866016 -0.000000
vn 0.500016 -0.866016 -0.000000
vn 0.500016 -0.866016 -0.000000
vn 0.500016 -0.866016 -0.000000
vn 0.802208 0.000019 -0.597045
vn 0.802208 0.000019 -0.597045
vn 0.802208 0.000019 -0.597045
vn 0.802208 0.000019 -0.597045
vn 0.000000 0.974639 0.223783
vn 0.000000 0.974639 0.223783
vn 0.000000 0.974639 0.223783
vn 0.000000 0.974639 0.223783
vn 0.000000 -0.974635 0.223801
vn 0.000000 -0.974635 0.223801
vn 0.000000 -0.974635 0.223801
vn 0.000000 -0.974635 0.223801
vn -0.802211 0.000043 -0.597041
vn -0.802211 0.000043 -0.597041
vn -0.802211 0.000043 -0.597041
vn -0.802211 0.000043 -0.597041
vn 0.000000 -0.974635 0.223800
vn 0.000000 -0.974635 0.223800
vn 0.000000 -0.974635 0.223800
vn 0.000000 -0.974635 0.223800
vn 0.000006 0.974639 0.223785
vn 0.000006 0.974639 0.223785
vn 0.000006 0.974639 0.223785
vn 0.000006 0.974639 0.223785
vn -0.000000 -1.000000 0.000000
vn -0.000000 -1.000000 0.000000
vn -0.000000 -1.000000 0.000000
vn -0.000000 -1.000000 0.000000
vn 1.000000 0.000052 -0.000000
vn 1.000000 0.000052 -0.000000
vn 1.000000 0.000052 -0.000000
vn 1.000000 0.000052 -0.000000
vn 0.000000 1.000000 -0.000000
vn 0.000000 1.000000 -0.000000
vn 0.000000 1.000000 -0.000000
vn 0.000000 1.000000 -0.000000
vn 0.000003 1.000000 0.000000
vn 0.000003 1.000000 0.000000
vn 0.000003 1.000000 0.000000
vn 0.000003 1.000000 0.000000
vn -1.000000 0.000080 -0.000003
vn -1.000000 0.000080 -0.000003
vn -1.000000 0.000080 -0.000003
vn -1.000000 0.000080 -0.000003
vn 0.000000 -1.000000 0.000000
vn 0.000000 -1.000000 0.000000
vn 0.000000 -1.000000 0.000000
vn 0.000000 -1.000000 0.000000
vn 0.000000 0.000021 1.000000
vn 0.000000 0.000021 1.000000
vn 0.000000 0.000021 1.000000
vn 0.000000 0.000021 1.000000
vn 0.000000 0.000021 1.000000
vn 0.000000 0.000021 1.000000
vn 0.000000 0.000021 1.000000
vn 0.000000 0.000021 1.000000
vn -0.714156 -0.000033 0.699987
vn -0.714156 -0.000033 0.699987
vn -0.714156 -0.000033 0.699987
vn 0.009722 -0.971925 0.235090
vn 0.009722 -0.971925 0.235090
vn 0.009722 -0.971925 0.235090
vn 1.000000 0.000052 0.000013
vn 1.000000 0.000052 0.000013
vn 1.000000 0.000052 0.000013
vn 0.009734 0.971923 0.235099
vn 0.009734 0.971923 0.235099
vn 0.009734 0.971923 0.235099
vn 0.714159 -0.000032 0.699983
vn 0.714159 -0.000032 0.699983
vn 0.714159 -0.000032 0.699983
vn -0.009730 0.971922 0.235104
vn -0.009730 0.971922 0.235104
vn -0.009730 0.971922 0.235104
vn -1.000000 0.000057 0.000012
vn -1.000000 0.000057 0.000012
vn -1.000000 0.000057 0.000012
vn -0.009730 -0.971922 0.235101
vn -0.009730 -0.971922 0.235101
vn -0.009730 -0.971922 0.235101
vn 0.000009 1.000000 -0.000006
vn 0.000009 1.000000 -0.000006
vn 0.000009 1.000000 -0.000006
vn 0.000000 1.000000 -0.000001
vn 0.000000 1.000000 -0.000001
vn 0.000000 1.000000 -0.000001
vn -0.000000 -1.000000 0.000000
vn -0.000000 -1.000000 0.000000
vn -0.000000 -1.000000 0.000000
vn 0.000000 -1.000000 0.000000
vn 0.000000 -1.000000 0.000000
vn 0.000000 -1.000000 0.000000
s off
f 52/3/1 53/4/2 65/6/3
f 53/4/4 54/8/5 65/6/6
f 55/10/7 56/12/8 66/68/9
f 56/12/10 51/77/11 66/68/12
f 8/13/13 7/14/14 9/15/15
f 10/16/16 8/13/17 9/15/18
f 11/17/19 10/16/20 9/15/21
f 12/18/22 11/17/23 9/15/24
f 13/19/25 12/18/26 9/15/27
f 7/14/28 13/19/29 9/15/30
f 14/20/31 15/21/32 16/22/33 17/23/34
f 15/21/35 18/24/36 19/25/37 16/22/38
f 18/24/39 20/26/40 21/27/41 19/25/42
f 20/26/43 22/28/44 23/29/45 21/27/46
f 22/28/47 24/30/48 25/31/49 23/29/50
f 24/30/51 14/20/52 17/23/53 25/31/54
f 26/32/55 27/33/56 28/34/57 29/35/58
f 27/33/59 30/36/60 31/37/61 28/34/62
f 30/36/63 32/38/64 33/39/65 31/37/66
f 32/38/67 34/40/68 35/41/69 33/39/70
f 34/40/71 36/42/72 37/43/73 35/41/74
f 36/42/75 26/32/76 29/35/77 37/43/78
f 7/14/79 8/13/80 27/33/81 26/32/82
f 8/13/83 10/16/84 30/36/85 27/33/86
f 10/16/87 11/17/88 32/38/89 30/36/90
f 11/17/91 12/18/92 34/40/93 32/38/94
f 12/18/95 13/19/96 36/42/97 34/40/98
f 13/19/99 7/14/100 26/32/101 36/42/102
f 37/46/103 29/47/104 38/48/105 39/49/106
f 35/50/107 37/46/108 39/49/109 40/51/110
f 33/52/111 35/50/112 40/51/113 41/53/114
f 31/54/115 33/52/116 41/53/117 42/55/118
f 28/56/119 31/54/120 42/55/121 43/57/122
f 29/47/123 28/56/124 43/57/125 38/48/126
f 39/44/127 38/45/128 14/20/129 24/30/130
f 40/58/131 39/44/132 24/30/133 22/28/134
f 41/59/135 40/58/136 22/28/137 20/26/138
f 42/60/139 41/59/140 20/26/141 18/24/142
f 43/61/143 42/60/144 18/24/145 15/21/146
f 38/45/147 43/61/148 15/21/149 14/20/150
f 2/62/151 1/63/152 17/23/153 16/22/154
f 3/64/155 2/62/156 16/22/157
f 4/65/158 3/64/159 21/27/160
f 5/66/161 4/65/162 21/27/163 23/29/164
f 6/67/165 5/66/166 23/29/167
f 1/63/168 6/67/169 17/23/170
f 3/64/171 16/22/172 19/25/173
f 21/27/174 3/64/175 19/25/176
f 6/67/177 23/29/178 25/31/179
f 17/23/180 6/67/181 25/31/182
f 45/78/183 44/79/184 50/80/185
f 46/81/186 45/78/187 50/80/188
f 47/82/189 46/81/190 50/80/191
f 48/85/192 47/82/193 50/80/194
f 49/86/195 48/85/196 50/80/197
f 44/79/198 49/86/199 50/80/200
f 1/63/201 2/62/202 52/2/203 51/1/204
f 2/62/205 3/64/206 53/5/207 52/2/208
f 3/64/209 4/65/210 54/7/211 53/5/212
f 4/65/213 5/66/214 55/9/215 54/7/216
f 5/66/217 6/67/218 56/11/219 55/9/220
f 6/67/221 1/63/222 51/1/223 56/11/224
f 58/70/225 57/69/226 51/1/227 52/2/228
f 67/88/229 59/87/230 48/85/231 49/86/232
f 45/78/233 60/90/234 68/89/235 44/79/236
f 62/74/237 61/73/238 54/7/239 55/9/240
f 69/92/241 63/91/242 45/78/243 46/81/244
f 48/85/245 64/94/246 70/93/247 47/82/248
f 51/77/249 57/95/250 45/78/251 66/68/252
f 57/69/253 58/70/254 59/71/255 60/72/256
f 48/85/257 58/96/258 52/3/259 65/6/260
f 61/97/261 48/85/262 65/6/263 54/8/264
f 61/73/265 62/74/266 63/75/267 64/76/268
f 45/78/269 62/98/270 55/10/271 66/68/272
f 49/86/273 44/79/274 68/89/275 67/88/276
f 46/81/277 47/82/278 70/93/279 69/92/280
f 67/88/281 68/89/282 71/99/283
f 68/89/284 60/90/285 71/99/286
f 60/72/287 59/71/288 71/83/289
f 59/87/290 67/88/291 71/99/292
f 69/92/293 70/93/294 72/100/295
f 70/93/296 64/94/297 72/100/298
f 64/76/299 63/75/300 72/84/301
f 63/91/302 69/92/303 72/100/304
f 48/85/305 61/97/306 64/94/307
f 48/85/308 59/87/309 58/96/310
f 45/78/311 57/95/312 60/90/313
f 45/78/314 63/91/315 62/98/316
