# This file uses centimeters as units for non-parametric coordinates.

v -24.366945 40.703903 37.239685
v -3.639163 45.173824 35.178154
v -2.320170 46.618275 -33.754532
v -24.185770 39.637272 -34.987549
v -3.570277 46.440922 5.036346
v -6.824328 45.556854 25.566818
v -7.016055 45.463299 33.066040
v -12.174219 43.996723 33.899017
v -1.613215 43.588894 -31.276016
v -2.908289 43.419910 4.673592
v -4.696429 42.709961 35.643417
v -21.353647 39.368183 34.438934
v -20.226793 39.374905 -32.258316
v 24.359976 38.369362 37.833069
v 3.440832 44.122902 34.263275
v 6.804052 48.472458 -32.268997
v 23.334097 39.196930 -32.129822
v 3.318563 47.594559 6.383293
v 5.010870 45.729950 -30.014297
v 1.919698 44.869362 5.823906
v 2.337972 41.550098 31.657898
v 16.163404 38.339733 35.334778
v 20.366262 39.226570 -31.310120
v -24.964243 0.531668 -34.449097
v 24.359976 0.000000 -34.987549
v -25.640024 0.000000 37.833069
v 24.359991 0.000011 37.833099
v 13.192068 40.060638 -34.987549
v 24.359976 29.876463 -34.987549
v -18.714731 40.060638 37.833069
v -25.640024 33.494923 37.833069
v -25.640024 0.000000 -28.084595
v -19.979868 0.000000 -34.987549
v -25.640024 5.637020 -34.987549
v -21.776011 3.715614 -31.298401
v 19.628622 2.939453 -30.160706
v -21.165049 2.992043 33.610657
v 20.495932 3.715614 34.143921
v -25.640024 23.965427 37.833069
v 21.804937 21.874090 34.994797
v 24.359976 21.794352 -34.987549
v 15.774633 23.717083 31.901077
vt 0.037873 0.303509
vt 0.037873 0.303509
vt 0.037873 0.303509
vt 0.037873 0.303509
vt 0.037873 0.303509
vt 0.037873 0.293354
vt 0.037873 0.303509
vt 0.037873 0.303509
vt 0.037873 0.303509
vt 0.037873 0.303509
vt 0.037873 0.303509
vt 0.037873 0.303509
vt 0.037873 0.303509
vt 0.037873 0.293354
vt 0.037873 0.303509
vt 0.037873 0.303509
vt 0.037873 0.303509
vt 0.037873 0.303509
vt 0.037873 0.303509
vt 0.037873 0.303509
vt 0.037873 0.303509
vt 0.037873 0.303509
vt 0.037873 0.303509
vt 0.037873 0.303509
vt 0.037873 0.303509
vt 0.037873 0.303509
vt 0.037873 0.303509
vt 0.037873 0.303509
vt 0.037873 0.303509
vt 0.037873 0.303509
vt 0.037873 0.303509
vt 0.037873 0.303509
vt 0.037873 0.303509
vt 0.037873 0.303509
vt 0.037873 0.303509
vt 0.037873 0.275299
vt 0.037873 0.275299
vt 0.037873 0.275299
vt 0.037873 0.275299
vt 0.037873 0.275299
vt 0.037873 0.275299
vt 0.037873 0.275299
vt 0.037873 0.275299
vt 0.037873 0.275299
vt 0.037873 0.275299
vt 0.037873 0.275299
vt 0.037873 0.303509
vt 0.037873 0.293354
vt 0.037873 0.303509
vt 0.037873 0.303509
vt 0.037873 0.275299
vt 0.037873 0.303509
vt 0.037873 0.303509
vt 0.037873 0.303509
vt 0.037873 0.303509
vt 0.037873 0.303509
vt 0.037866 0.275299
vt 0.037866 0.275299
vt 0.037866 0.275299
vt 0.037873 0.275299
vt 0.037873 0.275299
vt 0.037873 0.303509
vt 0.037873 0.303509
vt 0.037873 0.303509
vt 0.037873 0.275299
vt 0.037873 0.275299
vt 0.037873 0.303509
vt 0.037873 0.303509
vt 0.037873 0.303509
vt 0.037873 0.303509
vt 0.037873 0.303509
vt 0.037873 0.303509
vt 0.037873 0.303509
vt 0.037873 0.303509
vt 0.037873 0.303509
vt 0.037873 0.303509
vt 0.037873 0.303509
vt 0.037873 0.303509
vt 0.037873 0.303509
vt 0.037873 0.303509
vt 0.037873 0.303509
vt 0.037873 0.303509
vt 0.037873 0.303509
vt 0.037873 0.303509
vt 0.037873 0.303509
vt 0.037873 0.303509
vt 0.037873 0.303509
vt 0.037873 0.303509
vt 0.037873 0.275299
vt 0.037873 0.275299
vt 0.037873 0.275299
vt 0.037873 0.303509
vt 0.037873 0.303509
vt 0.037873 0.275299
vt 0.037866 0.275299
vt 0.037866 0.275299
vt 0.037873 0.275299
vt 0.037873 0.303509
vt 0.037873 0.303509
vt 0.037873 0.275299
vt 0.037873 0.275299
vt 0.037873 0.303509
vt 0.037873 0.275299
vt 0.037873 0.275299
vt 0.037873 0.275299
vt 0.037873 0.303509
vt 0.037873 0.303509
vt 0.037873 0.303509
vt 0.037873 0.303509
vt 0.037873 0.303509
vt 0.037873 0.303509
vt 0.037873 0.303509
vt 0.037873 0.303509
vt 0.037873 0.303509
vt 0.037873 0.303509
vt 0.037873 0.303509
vt 0.037873 0.303509
vt 0.037873 0.275299
vt 0.037873 0.303509
vt 0.037873 0.303509
vt 0.037873 0.275299
vt 0.037873 0.275299
vt 0.037873 0.303509
vt 0.037873 0.303509
vt 0.037873 0.275299
vt 0.037873 0.275299
vt 0.037873 0.275299
vt 0.037873 0.303509
vt 0.037873 0.303509
vt 0.037873 0.303509
vt 0.037873 0.303509
vt 0.037873 0.293354
vt 0.037873 0.303509
vt 0.037873 0.275299
vt 0.037873 0.293354
vt 0.037873 0.303509
vt 0.037873 0.303509
vt 0.037873 0.303509
vt 0.037873 0.293354
vt 0.037873 0.293354
vt 0.037873 0.303509
vt 0.037873 0.303509
vt 0.037873 0.303509
vt 0.037873 0.303509
vn -0.302956 0.952986 -0.005951
vn -0.302956 0.952986 -0.005951
vn -0.302956 0.952986 -0.005951
vn -0.302956 0.952986 -0.005951
vn -0.006545 0.999097 0.041985
vn -0.006545 0.999097 0.041985
vn -0.006545 0.999097 0.041985
vn -0.185311 0.889272 0.418156
vn -0.185311 0.889272 0.418156
vn -0.185311 0.889272 0.418156
vn 0.076461 0.996969 0.014392
vn 0.076461 0.996969 0.014392
vn 0.076461 0.996969 0.014392
vn 0.972138 0.231905 0.034179
vn 0.972138 0.231905 0.034179
vn 0.972138 0.231905 0.034179
vn 0.972138 0.231905 0.034179
vn 0.997060 -0.071332 0.027990
vn 0.997060 -0.071332 0.027990
vn 0.997060 -0.071332 0.027990
vn 0.997060 -0.071332 0.027990
vn 0.220302 -0.975425 0.003528
vn 0.220302 -0.975425 0.003528
vn 0.220302 -0.975425 0.003528
vn 0.220302 -0.975425 0.003528
vn 0.233526 -0.713716 -0.660360
vn 0.233526 -0.713716 -0.660360
vn 0.233526 -0.713716 -0.660360
vn 0.233526 -0.713716 -0.660360
vn 0.358867 -0.631541 0.687292
vn 0.358867 -0.631541 0.687292
vn 0.358867 -0.631541 0.687292
vn 0.197458 -0.980249 -0.011070
vn 0.197458 -0.980249 -0.011070
vn 0.197458 -0.980249 -0.011070
vn -0.274554 0.961491 -0.012465
vn -0.274554 0.961491 -0.012465
vn -0.274554 0.961491 -0.012465
vn -0.274554 0.961491 -0.012465
vn -0.274554 0.961491 -0.012465
vn 0.425432 0.904676 0.023839
vn 0.425432 0.904676 0.023839
vn 0.425432 0.904676 0.023839
vn 0.425432 0.904676 0.023839
vn -0.870456 0.487874 -0.065465
vn -0.870456 0.487874 -0.065465
vn -0.870456 0.487874 -0.065465
vn -0.870456 0.487874 -0.065465
vn -0.915894 0.396999 0.059409
vn -0.915894 0.396999 0.059409
vn -0.915894 0.396999 0.059409
vn -0.915894 0.396999 0.059409
vn -0.368756 -0.928573 -0.042078
vn -0.368756 -0.928573 -0.042078
vn -0.368756 -0.928573 -0.042078
vn -0.368756 -0.928573 -0.042078
vn -0.193617 -0.973470 -0.121941
vn -0.193617 -0.973470 -0.121941
vn -0.193616 -0.973470 -0.121941
vn -0.267245 -0.478737 -0.836296
vn -0.267245 -0.478737 -0.836296
vn -0.267245 -0.478737 -0.836296
vn -0.267245 -0.478737 -0.836296
vn -0.299743 -0.510034 0.806238
vn -0.299743 -0.510034 0.806238
vn -0.299743 -0.510034 0.806238
vn -0.299743 -0.510034 0.806238
vn 0.000641 1.000000 -0.000414
vn 0.000641 1.000000 -0.000414
vn 0.000641 1.000000 -0.000414
vn 0.000641 1.000000 -0.000414
vn -0.119246 -0.119736 -0.985619
vn -0.119246 -0.119736 -0.985619
vn -0.119246 -0.119736 -0.985619
vn -0.115716 -0.988740 -0.094883
vn -0.115716 -0.988740 -0.094883
vn -0.115716 -0.988740 -0.094883
vn -0.982961 -0.142374 -0.116264
vn -0.982961 -0.142374 -0.116264
vn -0.982961 -0.142374 -0.116264
vn -0.997728 0.065825 -0.014373
vn -0.997728 0.065825 -0.014373
vn -0.997728 0.065825 -0.014373
vn -0.997728 0.065825 -0.014373
vn 0.282220 0.309482 -0.908060
vn 0.282220 0.309482 -0.908060
vn 0.282220 0.309482 -0.908060
vn 0.994059 -0.106131 0.024157
vn 0.994059 -0.106131 0.024157
vn 0.994059 -0.106131 0.024157
vn 0.994059 -0.106131 0.024157
vn -0.092874 0.097959 0.990847
vn -0.092874 0.097959 0.990847
vn -0.092874 0.097959 0.990847
vn 0.000000 -1.000000 0.000000
vn 0.000000 -1.000000 0.000000
vn 0.000000 -1.000000 0.000000
vn 0.000000 -1.000000 0.000000
vn 0.000000 -1.000000 0.000000
vn -0.000000 0.000000 -1.000000
vn -0.000000 0.000000 -1.000000
vn -0.000000 0.000000 -1.000000
vn 0.032114 -0.111477 0.993248
vn 0.032114 -0.111477 0.993248
vn 0.032114 -0.111477 0.993248
vn 0.032114 -0.111477 0.993248
vn -1.000000 0.000000 0.000000
vn -1.000000 0.000000 0.000000
vn -1.000000 0.000000 0.000000
vn 0.046725 0.989963 0.133376
vn 0.046725 0.989963 0.133376
vn 0.046725 0.989963 0.133376
vn 0.138939 0.943598 -0.300532
vn 0.138939 0.943598 -0.300532
vn 0.138939 0.943598 -0.300532
vn 0.035200 0.982093 -0.185079
vn 0.035200 0.982093 -0.185079
vn 0.035200 0.982093 -0.185079
vn 0.035200 0.982093 -0.185079
vn 0.000000 0.000000 1.000000
vn 0.000000 0.000000 1.000000
vn 0.000000 0.000000 1.000000
vn -0.025080 0.030093 0.999232
vn -0.025080 0.030093 0.999232
vn -0.025080 0.030093 0.999232
vn -0.025080 0.030093 0.999232
vn 0.999815 -0.018878 0.003814
vn 0.999815 -0.018878 0.003814
vn 0.999815 -0.018878 0.003814
vn 0.999815 -0.018878 0.003814
vn -0.032938 0.083363 -0.995975
vn -0.032938 0.083363 -0.995975
vn -0.032938 0.083363 -0.995975
vn -0.032938 0.083363 -0.995975
vn -0.997485 0.025045 -0.066312
vn -0.997485 0.025045 -0.066312
vn -0.997485 0.025045 -0.066312
vn -0.997485 0.025045 -0.066312
vn -0.005638 0.983979 0.178195
vn -0.005638 0.983979 0.178195
vn -0.005638 0.983979 0.178195
vn -0.005638 0.983979 0.178195
vn -0.000000 0.000000 -1.000000
vn -0.000000 0.000000 -1.000000
vn -0.000000 0.000000 -1.000000
vn -0.000000 0.000000 -1.000000
vn 0.244420 0.962369 0.118764
vn 0.244420 0.962369 0.118764
vn 0.244420 0.962369 0.118764
vn -0.154376 0.353570 0.922582
vn -0.154376 0.353570 0.922581
vn -0.154376 0.353570 0.922581
vn -0.154376 0.353570 0.922581
vn -1.000000 0.000000 0.000000
vn -1.000000 0.000000 0.000000
vn -1.000000 0.000000 0.000000
vn -1.000000 0.000000 0.000000
vn 0.030416 0.063460 0.997521
vn 0.030416 0.063460 0.997521
vn 0.030416 0.063460 0.997521
vn 0.030416 0.063460 0.997521
vn 0.998066 0.059556 0.017824
vn 0.998066 0.059556 0.017824
vn 0.998066 0.059556 0.017824
vn 0.998066 0.059556 0.017824
vn 0.000000 0.000000 -1.000000
vn 0.000000 0.000000 -1.000000
vn 0.000000 0.000000 -1.000000
vn 0.000000 0.000000 -1.000000
vn 0.993461 0.113403 -0.013226
vn 0.993461 0.113403 -0.013226
vn 0.993461 0.113403 -0.013226
vn -0.973528 -0.228018 0.015883
vn -0.973528 -0.228018 0.015883
vn -0.973527 -0.228018 0.015883
vn 0.014600 -0.108020 -0.994042
vn 0.014600 -0.108020 -0.994042
vn 0.014600 -0.108020 -0.994042
s off
f 3/15/1 4/6/2 6/5/3 5/9/4
f 6/2/5 2/68/6 5/13/7
f 2/8/8 7/3/9 8/69/10
f 6/10/11 7/70/12 2/71/13
f 3/72/14 5/4/15 10/7/16 9/12/17
f 5/4/18 2/73/19 11/74/20 10/17/21
f 13/11/22 9/18/23 10/16/24 12/21/25
f 4/6/26 3/75/27 9/18/28 13/11/29
f 1/76/30 12/20/31 8/1/32
f 10/19/33 11/78/34 12/20/35
f 4/14/36 1/79/37 8/1/38 7/80/39 6/81/40
f 17/25/41 16/22/42 18/26/43 14/24/44
f 16/23/45 19/28/46 20/29/47 18/30/48
f 18/30/49 20/31/50 21/82/51 15/83/52
f 19/32/53 23/33/54 22/84/55 20/34/56
f 20/35/57 22/85/58 21/86/59
f 23/33/60 19/32/61 16/23/62 17/25/63
f 14/24/64 15/27/65 21/87/66 22/88/67
f 36/36/68 35/37/69 37/38/70 38/39/71
f 24/89/72 34/40/73 33/41/74
f 32/42/75 24/43/76 33/44/77
f 24/45/78 32/90/79 34/46/80
f 34/91/81 31/92/82 1/47/83 4/48/84
f 28/49/85 17/50/86 29/93/87
f 40/140/88 41/142/89 29/52/90 14/54/91
f 1/47/92 31/55/93 30/56/94
f 27/57/95 26/58/96 32/59/97 33/95/98 25/96/99
f 41/141/100 34/97/101 29/98/102
f 31/99/103 39/137/104 40/139/105 14/102/106
f 34/103/107 39/138/108 31/62/109
f 23/63/110 17/106/111 28/49/112
f 12/107/113 1/108/114 30/109/115
f 22/110/116 12/111/117 30/64/118 14/112/119
f 31/113/120 14/114/121 30/115/122
f 23/116/123 13/117/124 35/65/125 36/118/126
f 13/119/127 12/120/128 37/121/129 35/122/130
f 12/123/131 22/124/132 42/143/133 37/126/134
f 36/66/135 42/144/136 22/128/137 23/129/138
f 23/130/139 28/131/140 4/132/141 13/67/142
f 29/133/143 34/134/144 4/135/145 28/136/146
f 14/24/147 18/26/148 15/27/149
f 8/1/150 12/20/151 11/77/152 2/8/153
f 34/103/154 32/104/155 26/105/156 39/138/157
f 40/139/158 39/137/159 26/100/160 27/101/161
f 27/94/162 25/51/163 41/142/164 40/140/165
f 25/60/166 33/61/167 34/97/168 41/141/169
f 14/54/170 29/52/171 17/53/172
f 36/66/173 38/127/174 42/144/175
f 37/126/176 42/143/177 38/125/178
