# This file uses centimeters as units for non-parametric coordinates.

v -227.539185 23.670059 18.708351
v -227.853088 23.670059 32.343033
v -228.010010 11.858963 39.160385
v -227.853088 0.047867 32.343033
v -227.539185 0.047867 18.708351
v -227.382507 11.858963 11.891040
v 202.978638 23.670059 28.616537
v 202.664764 23.670059 42.251190
v 202.508057 11.858963 49.068542
v 202.664764 0.047867 42.251190
v 202.978638 0.047867 28.616537
v 203.135590 11.858963 21.799194
v -227.696167 11.858963 25.525694
v 202.821716 11.858963 35.433876
v -227.428223 40.245148 27.081821
v -227.703857 46.780762 39.048973
v -227.971741 39.681961 50.691055
v -227.964050 26.047562 50.365974
v -227.688721 19.511948 38.398823
v -227.420776 26.610748 26.756744
v 203.089600 40.245148 36.990005
v 202.814270 46.780762 48.957157
v 202.546356 39.681961 60.599243
v 202.553802 26.047562 60.274158
v 202.829132 19.511948 48.307007
v 203.097290 26.610748 36.664932
v -227.696167 33.146347 38.723900
v 202.821716 33.146347 48.632084
v 196.385590 20.457428 -11.889867
v 196.385590 6.819153 -11.889871
v 196.385590 0.000000 -0.078761
v 196.385590 6.819153 11.732317
v 196.385590 20.457428 11.732348
v 196.385590 27.276550 -0.078760
v -234.246460 20.457428 -11.889867
v -234.246460 6.819153 -11.889871
v -234.246460 0.000000 -0.078761
v -234.246460 6.819153 11.732317
v -234.246460 20.457428 11.732348
v -234.246460 27.276550 -0.078760
v 196.385590 13.638290 -0.078760
v -234.246460 13.638290 -0.078760
v 196.570251 20.457428 49.821854
v 196.570251 6.819153 49.821854
v 196.347351 0.000000 61.630856
v 196.124451 6.819153 73.439835
v 196.124451 20.457428 73.439835
v 196.347351 27.276550 61.630859
v -233.985291 20.457428 41.698368
v -233.985291 6.819153 41.698364
v -234.207947 0.000000 53.507370
v -234.430847 6.819153 65.316376
v -234.430847 20.457428 65.316376
v -234.207947 27.276550 53.507370
v 196.347351 13.638290 61.630859
v -234.207947 13.638290 53.507370
v 196.385590 20.457428 -70.594284
v 196.385590 6.819153 -70.594315
v 196.385590 0.000000 -58.783203
v 196.385590 6.819153 -46.972095
v 196.385590 20.457428 -46.972095
v 196.385590 27.276550 -58.783203
v -234.246460 20.457428 -70.594284
v -234.246460 6.819153 -70.594315
v -234.246460 0.000000 -58.783203
v -234.246460 6.819153 -46.972095
v -234.246460 20.457428 -46.972095
v -234.246460 27.276550 -58.783203
v 196.385590 13.638290 -58.783203
v -234.246460 13.638290 -58.783203
v -197.523804 23.670059 -41.332294
v -197.837708 23.670059 -27.697641
v -197.994629 11.858963 -20.880291
v -197.837708 0.047867 -27.697641
v -197.523804 0.047867 -41.332294
v -197.367126 11.858963 -48.149635
v 232.994049 23.670059 -31.424139
v 232.680420 23.670059 -17.789455
v 232.523468 11.858963 -10.972105
v 232.680420 0.047867 -17.789455
v 232.994049 0.047867 -31.424139
v 233.151001 11.858963 -38.241451
v -197.680725 11.858963 -34.514954
v 232.837097 11.858963 -24.606796
vt 0.294006 0.310197
vt 0.294006 0.306604
vt 0.347318 0.306604
vt 0.347318 0.310197
vt 0.294006 0.304807
vt 0.347318 0.304807
vt 0.294006 0.306604
vt 0.347318 0.306604
vt 0.294006 0.310197
vt 0.347318 0.310197
vt 0.294006 0.311994
vt 0.347318 0.311994
vt 0.329726 0.318467
vt 0.329726 0.327217
vt 0.338477 0.322842
vt 0.338477 0.314091
vt 0.347227 0.318467
vt 0.347227 0.327217
vt 0.338477 0.331592
vt 0.329726 0.327217
vt 0.329726 0.318467
vt 0.338477 0.322842
vt 0.338477 0.314091
vt 0.347227 0.318467
vt 0.347227 0.327217
vt 0.338477 0.331592
vt 0.294006 0.310197
vt 0.294006 0.306604
vt 0.347318 0.306604
vt 0.347318 0.310197
vt 0.294006 0.304807
vt 0.347318 0.304807
vt 0.294006 0.306604
vt 0.347318 0.306604
vt 0.294006 0.310197
vt 0.347318 0.310197
vt 0.294006 0.311994
vt 0.347318 0.311994
vt 0.329726 0.318467
vt 0.329726 0.327217
vt 0.338477 0.322842
vt 0.338477 0.314091
vt 0.347227 0.318467
vt 0.347227 0.327217
vt 0.338477 0.331592
vt 0.329726 0.327217
vt 0.329726 0.318467
vt 0.338477 0.322842
vt 0.338477 0.314091
vt 0.347227 0.318467
vt 0.347227 0.327217
vt 0.338477 0.331592
vt 0.294006 0.310197
vt 0.294006 0.306604
vt 0.347318 0.306604
vt 0.347318 0.310197
vt 0.294006 0.304807
vt 0.347318 0.304807
vt 0.294006 0.306604
vt 0.347318 0.306604
vt 0.294006 0.310197
vt 0.347318 0.310197
vt 0.294006 0.311994
vt 0.347318 0.311994
vt 0.329726 0.318467
vt 0.329726 0.327217
vt 0.338477 0.322842
vt 0.338477 0.314091
vt 0.347227 0.318467
vt 0.347227 0.327217
vt 0.338477 0.331592
vt 0.329726 0.327217
vt 0.329726 0.318467
vt 0.338477 0.322842
vt 0.338477 0.314091
vt 0.347227 0.318467
vt 0.347227 0.327217
vt 0.338477 0.331592
vt 0.294006 0.310197
vt 0.294006 0.306604
vt 0.347318 0.306604
vt 0.347318 0.310197
vt 0.294006 0.304807
vt 0.347318 0.304807
vt 0.294006 0.306604
vt 0.347318 0.306604
vt 0.294006 0.310197
vt 0.347318 0.310197
vt 0.294006 0.311994
vt 0.347318 0.311994
vt 0.329726 0.318467
vt 0.329726 0.327217
vt 0.338477 0.322842
vt 0.338477 0.314091
vt 0.347227 0.318467
vt 0.347227 0.327217
vt 0.338477 0.331592
vt 0.329726 0.327217
vt 0.329726 0.318467
vt 0.338477 0.322842
vt 0.338477 0.314091
vt 0.347227 0.318467
vt 0.347227 0.327217
vt 0.338477 0.331592
vt 0.294006 0.310197
vt 0.294006 0.306604
vt 0.347318 0.306604
vt 0.347318 0.310197
vt 0.294006 0.304807
vt 0.347318 0.304807
vt 0.294006 0.306604
vt 0.347318 0.306604
vt 0.294006 0.310197
vt 0.347318 0.310197
vt 0.294006 0.311994
vt 0.347318 0.311994
vt 0.329726 0.318467
vt 0.329726 0.327217
vt 0.338477 0.322842
vt 0.338477 0.314091
vt 0.347227 0.318467
vt 0.347227 0.327217
vt 0.338477 0.331592
vt 0.329726 0.327217
vt 0.329726 0.318467
vt 0.338477 0.322842
vt 0.338477 0.314091
vt 0.347227 0.318467
vt 0.347227 0.327217
vt 0.338477 0.331592
vt 0.294006 0.310197
vt 0.294006 0.306604
vt 0.347318 0.306604
vt 0.347318 0.310197
vt 0.294006 0.304807
vt 0.347318 0.304807
vt 0.294006 0.306604
vt 0.347318 0.306604
vt 0.294006 0.310197
vt 0.347318 0.310197
vt 0.294006 0.311994
vt 0.347318 0.311994
vt 0.329726 0.318467
vt 0.329726 0.327217
vt 0.338477 0.322842
vt 0.338477 0.314091
vt 0.347227 0.318467
vt 0.347227 0.327217
vt 0.338477 0.331592
vt 0.329726 0.327217
vt 0.329726 0.318467
vt 0.338477 0.322842
vt 0.338477 0.314091
vt 0.347227 0.318467
vt 0.347227 0.327217
vt 0.338477 0.331592
vn 0.000000 1.000000 0.000000
vn 0.000000 1.000000 0.000000
vn 0.000000 1.000000 0.000000
vn 0.000000 1.000000 0.000000
vn -0.019926 0.500001 0.865796
vn -0.019926 0.500001 0.865796
vn -0.019926 0.500001 0.865796
vn -0.019926 0.500001 0.865796
vn -0.019926 -0.500001 0.865796
vn -0.019926 -0.500001 0.865796
vn -0.019926 -0.500001 0.865796
vn -0.019926 -0.500001 0.865796
vn 0.000000 -1.000000 0.000000
vn 0.000000 -1.000000 0.000000
vn 0.000000 -1.000000 0.000000
vn 0.000000 -1.000000 0.000000
vn 0.019926 -0.500000 -0.865796
vn 0.019926 -0.500000 -0.865796
vn 0.019926 -0.500000 -0.865797
vn 0.019926 -0.500000 -0.865796
vn 0.019926 0.500000 -0.865797
vn 0.019926 0.499999 -0.865796
vn 0.019926 0.499999 -0.865796
vn 0.019926 0.499999 -0.865796
vn -0.999735 0.000001 -0.023014
vn -0.999735 0.000008 -0.023007
vn -0.999735 -0.000000 -0.023009
vn -0.999735 0.000000 -0.023012
vn -0.999735 0.000001 -0.023014
vn -0.999735 -0.000000 -0.023009
vn -0.999735 -0.000001 -0.023014
vn -0.999735 0.000000 -0.023012
vn -0.999735 -0.000000 -0.023009
vn -0.999735 -0.000008 -0.023007
vn -0.999735 -0.000001 -0.023014
vn -0.999735 -0.000000 -0.023009
vn -0.999736 -0.000001 -0.022999
vn -0.999735 -0.000008 -0.023007
vn -0.999735 -0.000000 -0.023009
vn -0.999735 0.000008 -0.023007
vn -0.999736 -0.000001 -0.022999
vn -0.999735 -0.000000 -0.023009
vn 0.999735 0.000000 0.023014
vn 0.999735 0.000005 0.023006
vn 0.999735 -0.000001 0.023009
vn 0.999735 0.000005 0.023006
vn 0.999736 -0.000001 0.022998
vn 0.999735 -0.000001 0.023009
vn 0.999736 -0.000001 0.022998
vn 0.999735 -0.000006 0.023006
vn 0.999735 -0.000001 0.023009
vn 0.999735 -0.000006 0.023006
vn 0.999735 -0.000001 0.023014
vn 0.999735 -0.000001 0.023009
vn 0.999735 -0.000001 0.023014
vn 0.999735 -0.000001 0.023014
vn 0.999735 -0.000001 0.023009
vn 0.999735 -0.000001 0.023014
vn 0.999735 0.000000 0.023014
vn 0.999735 -0.000001 0.023009
vn 0.011026 0.877700 -0.479084
vn 0.011026 0.877700 -0.479084
vn 0.011026 0.877700 -0.479084
vn 0.011026 0.877700 -0.479084
vn -0.011976 0.853859 0.520367
vn -0.011976 0.853858 0.520368
vn -0.011976 0.853858 0.520368
vn -0.011976 0.853858 0.520368
vn -0.023002 -0.023843 0.999451
vn -0.023002 -0.023843 0.999451
vn -0.023002 -0.023843 0.999451
vn -0.023002 -0.023843 0.999451
vn -0.011026 -0.877700 0.479084
vn -0.011026 -0.877700 0.479084
vn -0.011026 -0.877700 0.479084
vn -0.011026 -0.877700 0.479084
vn 0.011976 -0.853858 -0.520368
vn 0.011976 -0.853858 -0.520368
vn 0.011976 -0.853858 -0.520368
vn 0.011976 -0.853858 -0.520368
vn 0.023002 0.023842 -0.999451
vn 0.023002 0.023842 -0.999451
vn 0.023002 0.023842 -0.999451
vn 0.023002 0.023842 -0.999451
vn -0.999735 -0.000016 -0.023016
vn -0.999735 -0.000007 -0.023013
vn -0.999735 -0.000007 -0.023010
vn -0.999735 -0.000017 -0.023013
vn -0.999735 -0.000016 -0.023016
vn -0.999735 -0.000007 -0.023010
vn -0.999735 -0.000008 -0.023008
vn -0.999735 -0.000017 -0.023013
vn -0.999735 -0.000007 -0.023010
vn -0.999735 0.000003 -0.023005
vn -0.999735 -0.000008 -0.023008
vn -0.999735 -0.000007 -0.023010
vn -0.999735 0.000003 -0.023008
vn -0.999735 0.000003 -0.023005
vn -0.999735 -0.000007 -0.023010
vn -0.999735 -0.000007 -0.023013
vn -0.999735 0.000003 -0.023008
vn -0.999735 -0.000007 -0.023010
vn 0.999735 0.000006 0.023008
vn 0.999735 -0.000002 0.023004
vn 0.999735 -0.000000 0.023009
vn 0.999735 -0.000002 0.023004
vn 0.999735 -0.000002 0.023005
vn 0.999735 -0.000000 0.023009
vn 0.999735 -0.000002 0.023005
vn 0.999735 -0.000005 0.023004
vn 0.999735 -0.000000 0.023009
vn 0.999735 -0.000005 0.023004
vn 0.999735 -0.000006 0.023014
vn 0.999735 -0.000000 0.023009
vn 0.999735 -0.000006 0.023014
vn 0.999735 0.000005 0.023019
vn 0.999735 -0.000000 0.023009
vn 0.999735 0.000005 0.023019
vn 0.999735 0.000006 0.023008
vn 0.999735 -0.000000 0.023009
vn 0.000000 0.000000 -1.000000
vn 0.000000 0.000000 -1.000000
vn 0.000000 0.000000 -1.000000
vn 0.000000 0.000000 -1.000000
vn 0.000000 -0.866025 -0.500000
vn 0.000000 -0.866025 -0.500000
vn 0.000000 -0.866025 -0.500000
vn 0.000000 -0.866025 -0.500000
vn 0.000000 -0.866025 0.500001
vn 0.000000 -0.866025 0.500001
vn 0.000000 -0.866025 0.500001
vn 0.000000 -0.866025 0.500001
vn 0.000000 -0.000002 1.000000
vn 0.000000 -0.000002 1.000000
vn 0.000000 -0.000002 1.000000
vn 0.000000 -0.000002 1.000000
vn 0.000000 0.866026 0.499999
vn 0.000000 0.866026 0.499999
vn 0.000000 0.866026 0.499999
vn 0.000000 0.866026 0.499999
vn 0.000000 0.866026 -0.499999
vn 0.000000 0.866026 -0.499999
vn 0.000000 0.866026 -0.499999
vn 0.000000 0.866026 -0.499999
vn 1.000000 0.000000 0.000000
vn 1.000000 0.000000 0.000000
vn 1.000000 0.000000 0.000000
vn 1.000000 0.000000 0.000000
vn 1.000000 0.000000 0.000000
vn 1.000000 0.000000 0.000000
vn 1.000000 0.000000 0.000000
vn 1.000000 0.000000 0.000000
vn 1.000000 0.000000 0.000000
vn 1.000000 0.000000 0.000000
vn 1.000000 0.000000 0.000000
vn 1.000000 0.000000 0.000000
vn 1.000000 0.000000 0.000000
vn 1.000000 0.000000 0.000000
vn 1.000000 0.000000 0.000000
vn 1.000000 0.000000 0.000000
vn 1.000000 0.000000 0.000000
vn 1.000000 0.000000 0.000000
vn -1.000000 0.000000 0.000000
vn -1.000000 0.000000 0.000000
vn -1.000000 -0.000001 0.000000
vn -1.000000 0.000000 0.000000
vn -1.000000 -0.000002 0.000000
vn -1.000000 -0.000001 0.000000
vn -1.000000 -0.000002 0.000000
vn -1.000000 -0.000002 0.000000
vn -1.000000 -0.000001 0.000000
vn -1.000000 -0.000002 0.000000
vn -1.000000 0.000000 0.000000
vn -1.000000 -0.000001 0.000000
vn -1.000000 0.000000 0.000000
vn -1.000000 0.000000 0.000000
vn -1.000000 -0.000001 0.000000
vn -1.000000 0.000000 0.000000
vn -1.000000 0.000000 0.000000
vn -1.000000 -0.000001 0.000000
vn 0.018864 0.000000 -0.999822
vn 0.018864 0.000000 -0.999822
vn 0.018864 0.000000 -0.999822
vn 0.018864 0.000000 -0.999822
vn 0.009432 -0.866025 -0.499911
vn 0.009432 -0.866025 -0.499912
vn 0.009432 -0.866025 -0.499911
vn 0.009432 -0.866025 -0.499911
vn -0.009432 -0.866025 0.499912
vn -0.009432 -0.866025 0.499912
vn -0.009432 -0.866025 0.499912
vn -0.009432 -0.866025 0.499912
vn -0.018864 0.000000 0.999822
vn -0.018864 0.000000 0.999822
vn -0.018864 0.000000 0.999822
vn -0.018864 0.000000 0.999822
vn -0.009432 0.866026 0.499910
vn -0.009432 0.866026 0.499910
vn -0.009432 0.866026 0.499910
vn -0.009432 0.866026 0.499910
vn 0.009432 0.866026 -0.499910
vn 0.009432 0.866026 -0.499910
vn 0.009432 0.866026 -0.499910
vn 0.009432 0.866026 -0.499910
vn 0.999822 0.000000 0.018872
vn 0.999822 0.000000 0.018872
vn 0.999822 0.000000 0.018872
vn 0.999822 0.000000 0.018872
vn 0.999822 0.000000 0.018872
vn 0.999822 0.000000 0.018872
vn 0.999822 0.000000 0.018872
vn 0.999822 0.000000 0.018872
vn 0.999822 0.000000 0.018872
vn 0.999822 0.000000 0.018872
vn 0.999822 0.000000 0.018872
vn 0.999822 0.000000 0.018872
vn 0.999822 0.000000 0.018872
vn 0.999822 0.000000 0.018872
vn 0.999822 0.000000 0.018872
vn 0.999822 0.000000 0.018872
vn 0.999822 0.000000 0.018872
vn 0.999822 0.000000 0.018872
vn -0.999822 -0.000002 -0.018851
vn -0.999822 -0.000002 -0.018851
vn -0.999822 -0.000001 -0.018862
vn -0.999822 -0.000002 -0.018851
vn -0.999822 0.000000 -0.018862
vn -0.999822 -0.000001 -0.018862
vn -0.999822 0.000000 -0.018862
vn -0.999822 0.000000 -0.018872
vn -0.999822 -0.000001 -0.018862
vn -0.999822 0.000000 -0.018872
vn -0.999822 0.000000 -0.018872
vn -0.999822 -0.000001 -0.018862
vn -0.999822 0.000000 -0.018872
vn -0.999822 0.000000 -0.018862
vn -0.999822 -0.000001 -0.018862
vn -0.999822 0.000000 -0.018862
vn -0.999822 -0.000002 -0.018851
vn -0.999822 -0.000001 -0.018862
vn 0.000000 0.000002 -1.000000
vn 0.000000 0.000002 -1.000000
vn 0.000000 0.000002 -1.000000
vn 0.000000 0.000002 -1.000000
vn 0.000000 -0.866025 -0.500000
vn 0.000000 -0.866025 -0.500000
vn 0.000000 -0.866025 -0.500000
vn 0.000000 -0.866025 -0.500000
vn 0.000000 -0.866025 0.500000
vn 0.000000 -0.866025 0.500000
vn 0.000000 -0.866025 0.500000
vn 0.000000 -0.866025 0.500000
vn 0.000000 0.000000 1.000000
vn 0.000000 0.000000 1.000000
vn 0.000000 0.000000 1.000000
vn 0.000000 0.000000 1.000000
vn 0.000000 0.866026 0.499999
vn 0.000000 0.866026 0.499999
vn 0.000000 0.866026 0.499999
vn 0.000000 0.866026 0.499999
vn 0.000000 0.866026 -0.500000
vn 0.000000 0.866026 -0.500000
vn 0.000000 0.866026 -0.500000
vn 0.000000 0.866026 -0.500000
vn 1.000000 -0.000002 0.000000
vn 1.000000 -0.000002 0.000000
vn 1.000000 -0.000001 0.000000
vn 1.000000 0.000000 0.000000
vn 1.000000 -0.000002 0.000000
vn 1.000000 -0.000001 0.000000
vn 1.000000 0.000000 0.000000
vn 1.000000 0.000000 0.000000
vn 1.000000 -0.000001 0.000000
vn 1.000000 0.000000 0.000000
vn 1.000000 0.000000 0.000000
vn 1.000000 -0.000001 0.000000
vn 1.000000 0.000000 0.000000
vn 1.000000 0.000000 0.000000
vn 1.000000 -0.000001 0.000000
vn 1.000000 -0.000002 0.000000
vn 1.000000 0.000000 0.000000
vn 1.000000 -0.000001 0.000000
vn -1.000000 0.000000 0.000000
vn -1.000000 0.000000 0.000000
vn -1.000000 0.000000 0.000000
vn -1.000000 0.000000 0.000000
vn -1.000000 0.000000 0.000000
vn -1.000000 0.000000 0.000000
vn -1.000000 0.000000 0.000000
vn -1.000000 0.000000 0.000000
vn -1.000000 0.000000 0.000000
vn -1.000000 0.000000 0.000000
vn -1.000000 0.000000 0.000000
vn -1.000000 0.000000 0.000000
vn -1.000000 0.000000 0.000000
vn -1.000000 0.000000 0.000000
vn -1.000000 0.000000 0.000000
vn -1.000000 0.000000 0.000000
vn -1.000000 0.000000 0.000000
vn -1.000000 0.000000 0.000000
vn 0.000000 1.000000 -0.000000
vn 0.000000 1.000000 -0.000000
vn 0.000000 1.000000 -0.000000
vn 0.000000 1.000000 -0.000000
vn -0.019926 0.500001 0.865796
vn -0.019926 0.500001 0.865796
vn -0.019926 0.500001 0.865796
vn -0.019926 0.500001 0.865796
vn -0.019926 -0.500001 0.865796
vn -0.019926 -0.500001 0.865796
vn -0.019926 -0.500001 0.865796
vn -0.019926 -0.500001 0.865796
vn 0.000000 -1.000000 0.000000
vn 0.000000 -1.000000 0.000000
vn 0.000000 -1.000000 0.000000
vn 0.000000 -1.000000 0.000000
vn 0.019926 -0.500000 -0.865797
vn 0.019926 -0.499999 -0.865796
vn 0.019926 -0.499999 -0.865796
vn 0.019926 -0.500000 -0.865797
vn 0.019926 0.499999 -0.865796
vn 0.019926 0.500000 -0.865797
vn 0.019926 0.500000 -0.865797
vn 0.019926 0.499999 -0.865796
vn -0.999735 -0.000004 -0.023016
vn -0.999735 0.000003 -0.023005
vn -0.999735 -0.000000 -0.023009
vn -0.999735 0.000000 -0.023016
vn -0.999735 -0.000004 -0.023016
vn -0.999735 -0.000000 -0.023009
vn -0.999735 0.000004 -0.023016
vn -0.999735 0.000000 -0.023016
vn -0.999735 -0.000000 -0.023009
vn -0.999735 -0.000004 -0.023005
vn -0.999735 0.000004 -0.023016
vn -0.999735 -0.000000 -0.023009
vn -0.999736 -0.000001 -0.022994
vn -0.999735 -0.000004 -0.023005
vn -0.999735 -0.000000 -0.023009
vn -0.999735 0.000003 -0.023005
vn -0.999736 -0.000001 -0.022994
vn -0.999735 -0.000000 -0.023009
vn 0.999735 -0.000006 0.023006
vn 0.999736 -0.000011 0.022996
vn 0.999735 0.000001 0.023003
vn 0.999736 -0.000011 0.022996
vn 0.999736 0.000001 0.022996
vn 0.999735 0.000001 0.023003
vn 0.999736 0.000001 0.022996
vn 0.999736 0.000012 0.022996
vn 0.999735 0.000001 0.023003
vn 0.999736 0.000012 0.022996
vn 0.999735 0.000007 0.023006
vn 0.999735 0.000001 0.023003
vn 0.999735 0.000007 0.023006
vn 0.999735 0.000001 0.023016
vn 0.999735 0.000001 0.023003
vn 0.999735 0.000001 0.023016
vn 0.999735 -0.000006 0.023006
vn 0.999735 0.000001 0.023003
s off
f 1/1/1 2/2/2 8/3/3 7/4/4
f 2/2/5 3/5/6 9/6/7 8/3/8
f 3/5/9 4/7/10 10/8/11 9/6/12
f 4/7/13 5/9/14 11/10/15 10/8/16
f 5/9/17 6/11/18 12/12/19 11/10/20
f 6/11/21 1/1/22 7/4/23 12/12/24
f 2/13/25 1/14/26 13/15/27
f 3/16/28 2/13/29 13/15/30
f 4/17/31 3/16/32 13/15/33
f 5/18/34 4/17/35 13/15/36
f 6/19/37 5/18/38 13/15/39
f 1/14/40 6/19/41 13/15/42
f 7/20/43 8/21/44 14/22/45
f 8/21/46 9/23/47 14/22/48
f 9/23/49 10/24/50 14/22/51
f 10/24/52 11/25/53 14/22/54
f 11/25/55 12/26/56 14/22/57
f 12/26/58 7/20/59 14/22/60
f 15/27/61 16/28/62 22/29/63 21/30/64
f 16/28/65 17/31/66 23/32/67 22/29/68
f 17/31/69 18/33/70 24/34/71 23/32/72
f 18/33/73 19/35/74 25/36/75 24/34/76
f 19/35/77 20/37/78 26/38/79 25/36/80
f 20/37/81 15/27/82 21/30/83 26/38/84
f 16/39/85 15/40/86 27/41/87
f 17/42/88 16/39/89 27/41/90
f 18/43/91 17/42/92 27/41/93
f 19/44/94 18/43/95 27/41/96
f 20/45/97 19/44/98 27/41/99
f 15/40/100 20/45/101 27/41/102
f 21/46/103 22/47/104 28/48/105
f 22/47/106 23/49/107 28/48/108
f 23/49/109 24/50/110 28/48/111
f 24/50/112 25/51/113 28/48/114
f 25/51/115 26/52/116 28/48/117
f 26/52/118 21/46/119 28/48/120
f 29/53/121 30/54/122 36/55/123 35/56/124
f 30/54/125 31/57/126 37/58/127 36/55/128
f 31/57/129 32/59/130 38/60/131 37/58/132
f 32/59/133 33/61/134 39/62/135 38/60/136
f 33/61/137 34/63/138 40/64/139 39/62/140
f 34/63/141 29/53/142 35/56/143 40/64/144
f 30/65/145 29/66/146 41/67/147
f 31/68/148 30/65/149 41/67/150
f 32/69/151 31/68/152 41/67/153
f 33/70/154 32/69/155 41/67/156
f 34/71/157 33/70/158 41/67/159
f 29/66/160 34/71/161 41/67/162
f 35/72/163 36/73/164 42/74/165
f 36/73/166 37/75/167 42/74/168
f 37/75/169 38/76/170 42/74/171
f 38/76/172 39/77/173 42/74/174
f 39/77/175 40/78/176 42/74/177
f 40/78/178 35/72/179 42/74/180
f 43/79/181 44/80/182 50/81/183 49/82/184
f 44/80/185 45/83/186 51/84/187 50/81/188
f 45/83/189 46/85/190 52/86/191 51/84/192
f 46/85/193 47/87/194 53/88/195 52/86/196
f 47/87/197 48/89/198 54/90/199 53/88/200
f 48/89/201 43/79/202 49/82/203 54/90/204
f 44/91/205 43/92/206 55/93/207
f 45/94/208 44/91/209 55/93/210
f 46/95/211 45/94/212 55/93/213
f 47/96/214 46/95/215 55/93/216
f 48/97/217 47/96/218 55/93/219
f 43/92/220 48/97/221 55/93/222
f 49/98/223 50/99/224 56/100/225
f 50/99/226 51/101/227 56/100/228
f 51/101/229 52/102/230 56/100/231
f 52/102/232 53/103/233 56/100/234
f 53/103/235 54/104/236 56/100/237
f 54/104/238 49/98/239 56/100/240
f 57/105/241 58/106/242 64/107/243 63/108/244
f 58/106/245 59/109/246 65/110/247 64/107/248
f 59/109/249 60/111/250 66/112/251 65/110/252
f 60/111/253 61/113/254 67/114/255 66/112/256
f 61/113/257 62/115/258 68/116/259 67/114/260
f 62/115/261 57/105/262 63/108/263 68/116/264
f 58/117/265 57/118/266 69/119/267
f 59/120/268 58/117/269 69/119/270
f 60/121/271 59/120/272 69/119/273
f 61/122/274 60/121/275 69/119/276
f 62/123/277 61/122/278 69/119/279
f 57/118/280 62/123/281 69/119/282
f 63/124/283 64/125/284 70/126/285
f 64/125/286 65/127/287 70/126/288
f 65/127/289 66/128/290 70/126/291
f 66/128/292 67/129/293 70/126/294
f 67/129/295 68/130/296 70/126/297
f 68/130/298 63/124/299 70/126/300
f 71/131/301 72/132/302 78/133/303 77/134/304
f 72/132/305 73/135/306 79/136/307 78/133/308
f 73/135/309 74/137/310 80/138/311 79/136/312
f 74/137/313 75/139/314 81/140/315 80/138/316
f 75/139/317 76/141/318 82/142/319 81/140/320
f 76/141/321 71/131/322 77/134/323 82/142/324
f 72/143/325 71/144/326 83/145/327
f 73/146/328 72/143/329 83/145/330
f 74/147/331 73/146/332 83/145/333
f 75/148/334 74/147/335 83/145/336
f 76/149/337 75/148/338 83/145/339
f 71/144/340 76/149/341 83/145/342
f 77/150/343 78/151/344 84/152/345
f 78/151/346 79/153/347 84/152/348
f 79/153/349 80/154/350 84/152/351
f 80/154/352 81/155/353 84/152/354
f 81/155/355 82/156/356 84/152/357
f 82/156/358 77/150/359 84/152/360
