# This file uses centimeters as units for non-parametric coordinates.

v -40.655396 0.000000 31.878510
v 41.332642 0.000000 27.265839
v -40.655396 0.515602 31.878510
v 41.332642 0.515602 27.265839
v -44.750854 0.515602 -28.018280
v 40.768799 0.515602 -30.222687
v -44.750854 0.000000 -28.018280
v 40.768799 0.000000 -30.222687
v -25.456177 0.000061 30.839233
v -25.328247 0.515602 30.830475
v -11.952148 0.515602 -30.260986
v -12.079346 0.000000 -30.252258
v -15.658203 2.276009 30.169281
v -15.604614 2.791550 30.165619
v -6.657715 2.791550 -30.622986
v -6.710571 2.275955 -30.619354
v -8.628906 0.000053 30.312500
v -8.672485 0.515602 30.312927
v -3.602295 0.515602 -29.777618
v -3.559082 0.000000 -29.778046
v 41.003906 0.515602 -6.827179
v 41.003174 0.000000 -6.855042
v 12.034546 0.000046 30.105225
v 12.057251 0.515602 30.104950
v 41.103516 2.058472 2.573090
v 41.104736 1.542885 2.718414
v 24.004517 1.542908 29.436737
v 23.909912 2.058472 29.437714
v 41.152710 0.515602 9.302856
v 41.155884 0.000000 9.635956
v 31.997314 0.000031 27.359436
v 31.821289 0.515602 27.361206
vt 0.402222 0.474213
vt 0.402222 0.474213
vt 0.673294 0.405979
vt 0.535682 0.405979
vt 0.673294 0.498433
vt 0.535682 0.498433
vt 0.402222 0.474213
vt 0.402222 0.474213
vt 0.402222 0.474213
vt 0.559952 0.405979
vt 0.587622 0.498433
vt 0.402222 0.474213
vt 0.402222 0.474213
vt 0.575351 0.405979
vt 0.596006 0.498433
vt 0.402222 0.474213
vt 0.402222 0.474213
vt 0.594226 0.405979
vt 0.603188 0.498433
vt 0.402222 0.474213
vt 0.673294 0.462403
vt 0.402222 0.474213
vt 0.402222 0.474213
vt 0.626978 0.405979
vt 0.673294 0.447082
vt 0.402222 0.474213
vt 0.402222 0.474213
vt 0.645705 0.405979
vt 0.673294 0.433643
vt 0.402222 0.474213
vt 0.402222 0.474213
vt 0.658266 0.405979
vt 0.402222 0.474213
vt 0.402222 0.474213
vt 0.402222 0.474213
vt 0.402222 0.474213
vt 0.402222 0.474213
vt 0.402222 0.474213
vt 0.402222 0.474213
vt 0.402222 0.474213
vt 0.402222 0.474213
vt 0.402222 0.474213
vt 0.402222 0.474213
vt 0.402222 0.474213
vt 0.402222 0.474213
vt 0.402222 0.474213
vt 0.402222 0.474213
vt 0.402222 0.474213
vn 0.068218 0.000011 0.997671
vn 0.068218 0.000011 0.997671
vn 0.068218 0.000011 0.997671
vn 0.068218 0.000011 0.997670
vn 0.000000 1.000000 -0.000000
vn 0.000000 1.000000 -0.000000
vn 0.000000 1.000000 -0.000000
vn 0.000000 1.000000 -0.000000
vn -0.068218 -0.000030 -0.997670
vn -0.068218 -0.000030 -0.997670
vn -0.068218 -0.000030 -0.997670
vn -0.068218 -0.000030 -0.997670
vn 0.000001 -1.000000 0.000001
vn 0.000001 -1.000000 0.000001
vn 0.000001 -1.000000 0.000001
vn 0.000001 -1.000000 0.000001
vn 0.999950 -0.000153 -0.010021
vn 0.999950 -0.000153 -0.010021
vn 0.999950 -0.000153 -0.010021
vn 0.999950 -0.000153 -0.010021
vn -0.997671 0.000000 0.068216
vn -0.997671 0.000000 0.068216
vn -0.997671 0.000000 0.068216
vn -0.997671 0.000000 0.068216
vn 0.068215 0.000009 0.997671
vn 0.068215 0.000009 0.997671
vn 0.068215 0.000009 0.997671
vn 0.068215 0.000009 0.997671
vn -0.293005 0.954604 -0.053665
vn -0.293005 0.954604 -0.053665
vn -0.293005 0.954604 -0.053665
vn -0.293005 0.954604 -0.053665
vn -0.068195 -0.000051 -0.997672
vn -0.068195 -0.000051 -0.997672
vn -0.068195 -0.000051 -0.997672
vn -0.068195 -0.000051 -0.997672
vn 0.290385 -0.955431 0.053190
vn 0.290384 -0.955431 0.053190
vn 0.290384 -0.955431 0.053190
vn 0.290384 -0.955431 0.053190
vn -0.019719 0.003328 0.999800
vn -0.019719 0.003328 0.999800
vn -0.019719 0.003328 0.999800
vn -0.019719 0.003328 0.999800
vn 0.410327 0.910696 0.047581
vn 0.410327 0.910696 0.047581
vn 0.410327 0.910696 0.047581
vn 0.410327 0.910696 0.047581
vn 0.258524 -0.005419 -0.965990
vn 0.258524 -0.005419 -0.965990
vn 0.258524 -0.005419 -0.965990
vn 0.258524 -0.005419 -0.965990
vn -0.403941 -0.913585 -0.046841
vn -0.403941 -0.913585 -0.046841
vn -0.403941 -0.913585 -0.046841
vn -0.403941 -0.913585 -0.046841
vn 0.010031 0.000055 0.999950
vn 0.010031 0.000055 0.999950
vn 0.010031 0.000055 0.999950
vn 0.010031 0.000055 0.999950
vn 0.000000 1.000000 0.000000
vn 0.000000 1.000000 0.000000
vn 0.000000 1.000000 0.000000
vn 0.000000 1.000000 0.000000
vn 0.000000 1.000000 0.000000
vn -0.010030 -0.000006 -0.999950
vn -0.010030 -0.000006 -0.999950
vn -0.010030 -0.000006 -0.999950
vn -0.010030 -0.000006 -0.999950
vn -0.000000 -1.000000 0.000001
vn -0.000000 -1.000000 0.000001
vn -0.000000 -1.000000 0.000001
vn -0.000000 -1.000000 0.000001
vn -0.000000 -1.000000 0.000001
vn 0.999950 -0.000440 -0.010039
vn 0.999950 -0.000440 -0.010039
vn 0.999950 -0.000440 -0.010039
vn 0.999950 -0.000440 -0.010039
vn 0.055569 0.003195 0.998450
vn 0.055569 0.003195 0.998450
vn 0.055569 0.003195 0.998450
vn 0.055569 0.003195 0.998450
vn -0.165357 0.978956 -0.119593
vn -0.165357 0.978956 -0.119593
vn -0.165357 0.978956 -0.119593
vn -0.165357 0.978956 -0.119593
vn 0.163253 -0.979489 0.118108
vn 0.163253 -0.979489 0.118108
vn 0.163253 -0.979489 0.118108
vn 0.163253 -0.979489 0.118108
vn 0.999945 -0.000717 -0.010485
vn 0.999945 -0.000717 -0.010485
vn 0.999945 -0.000717 -0.010485
vn 0.999945 -0.000717 -0.010485
vn 0.264247 0.066792 0.962139
vn 0.264247 0.066792 0.962139
vn 0.264247 0.066792 0.962139
vn 0.264247 0.066792 0.962139
vn 0.273272 0.948307 0.161355
vn 0.273272 0.948307 0.161355
vn 0.273272 0.948307 0.161355
vn 0.273272 0.948307 0.161355
vn -0.268847 -0.949994 -0.158849
vn -0.268847 -0.949994 -0.158849
vn -0.268847 -0.949994 -0.158849
vn -0.268847 -0.949994 -0.158849
vn 0.999974 0.000950 -0.007137
vn 0.999974 0.000950 -0.007137
vn 0.999974 0.000950 -0.007137
vn 0.999974 0.000950 -0.007137
vn 0.010026 -0.000005 0.999950
vn 0.010026 -0.000005 0.999950
vn 0.010026 -0.000005 0.999950
vn 0.010026 -0.000005 0.999950
vn 0.000000 1.000000 0.000000
vn 0.000000 1.000000 0.000000
vn 0.000000 1.000000 0.000000
vn -0.000003 -1.000000 0.000000
vn -0.000003 -1.000000 0.000000
vn -0.000003 -1.000000 0.000000
s off
f 1/1/1 9/2/2 10/7/3 3/8/4
f 3/4/5 10/10/6 11/11/7 5/6/8
f 5/9/9 11/12/10 12/13/11 7/16/12
f 7/16/13 12/13/14 9/2/15 1/1/16
f 2/17/17 30/20/18 29/22/19 4/23/20
f 7/16/21 1/1/22 3/8/23 5/9/24
f 10/7/25 9/2/26 13/26/27 14/27/28
f 11/11/29 10/10/30 14/14/31 15/15/32
f 12/13/33 11/12/34 15/30/35 16/31/36
f 9/2/37 12/13/38 16/31/39 13/26/40
f 14/27/41 13/26/42 17/33/43 18/34/44
f 15/15/45 14/14/46 18/18/47 19/19/48
f 16/31/49 15/30/50 19/35/51 20/36/52
f 13/26/53 16/31/54 20/36/55 17/33/56
f 18/34/57 17/33/58 23/37/59 24/38/60
f 19/19/61 18/18/62 24/24/63 21/21/64 6/5/65
f 20/36/66 19/35/67 6/39/68 8/40/69
f 17/33/70 20/36/71 8/40/72 22/41/73 23/37/74
f 21/42/75 22/41/76 8/40/77 6/39/78
f 24/38/79 23/37/80 27/43/81 28/44/82
f 21/21/83 24/24/84 28/28/85 25/25/86
f 23/37/87 22/41/88 26/45/89 27/43/90
f 25/46/91 26/45/92 22/41/93 21/42/94
f 28/44/95 27/43/96 31/47/97 32/48/98
f 25/25/99 28/28/100 32/32/101 29/29/102
f 27/43/103 26/45/104 30/20/105 31/47/106
f 29/22/107 30/20/108 26/45/109 25/46/110
f 32/48/111 31/47/112 2/17/113 4/23/114
f 29/29/115 32/32/116 4/3/117
f 31/47/118 30/20/119 2/17/120
