# This file uses centimeters as units for non-parametric coordinates.

v -37.334473 0.000008 23.709442
v 49.196045 0.000008 33.451340
v -30.740723 0.000008 -35.839584
v 55.827881 0.000008 -26.217896
v 12.599365 0.000000 -30.932602
v 5.695923 0.000008 28.266541
v -42.611328 0.000008 38.869415
v -55.828125 0.000008 -19.694351
v 29.136719 0.000008 -38.869446
v -0.128906 0.000008 29.281860
v -31.820313 0.000008 -25.103897
v -0.436890 0.000008 27.811737
v 0.296875 0.000008 -32.358154
v 31.661377 0.000000 -28.773315
v -31.820313 0.651283 -25.103897
v 0.296875 0.651283 -32.358154
v -30.740723 0.651283 -35.839584
v 5.695923 0.651283 28.266541
v 12.599365 0.651276 -30.932602
v 49.196045 0.651283 33.451340
v 55.827881 0.651283 -26.217896
v 31.661377 0.651276 -28.773315
v 29.136719 0.651283 -38.869446
v -42.611328 0.651283 38.869415
v -0.128906 0.651283 29.281860
v -0.436890 0.651283 27.811737
v -37.334473 0.651283 23.709442
v -55.828125 0.651283 -19.694351
vt 0.402179 0.474885
vt 0.675457 0.405979
vt 0.402179 0.474885
vt 0.402179 0.474885
vt 0.744129 0.498433
vt 0.402179 0.474885
vt 0.402179 0.474885
vt 0.401935 0.474885
vt 0.401935 0.474885
vt 0.402179 0.474885
vt 0.402179 0.474885
vt 0.744129 0.408129
vt 0.688936 0.427131
vt 0.402179 0.474885
vt 0.402179 0.474885
vt 0.402179 0.474885
vt 0.402179 0.474885
vt 0.402179 0.474885
vt 0.402179 0.474885
vt 0.703851 0.492083
vt 0.734067 0.405979
vt 0.402179 0.474885
vt 0.402179 0.474885
vt 0.401935 0.474885
vt 0.402179 0.474885
vt 0.401935 0.474885
vt 0.402179 0.474885
vt 0.402179 0.474885
vt 0.402179 0.474885
vt 0.402179 0.474885
vt 0.402179 0.474885
vt 0.722269 0.498433
vt 0.737893 0.405979
vt 0.675457 0.498433
vt 0.714455 0.498433
vt 0.744129 0.405979
vt 0.675457 0.405979
vt 0.675547 0.498433
vt 0.675547 0.482327
vt 0.713485 0.498433
vt 0.675547 0.498433
vt 0.675547 0.405979
vt 0.724861 0.498433
vt 0.675457 0.498433
vt 0.675457 0.481744
vt 0.744129 0.405979
vn 0.000000 1.000000 -0.000000
vn 0.000000 1.000000 -0.000000
vn 0.000000 1.000000 -0.000000
vn 0.000000 1.000000 -0.000000
vn 0.000000 1.000000 -0.000000
vn -0.000000 1.000000 -0.000000
vn -0.000000 1.000000 -0.000000
vn -0.000000 1.000000 -0.000000
vn -0.000000 1.000000 0.000001
vn 0.000000 1.000000 0.000002
vn -0.000000 1.000000 0.000001
vn 0.000000 1.000000 -0.000000
vn 0.000000 1.000000 -0.000000
vn 0.000000 1.000000 0.000000
vn 0.000000 1.000000 -0.000000
vn 0.000000 1.000000 0.000000
vn 0.000000 1.000000 0.000000
vn 0.000000 1.000000 0.000000
vn 0.000000 1.000000 0.000000
vn 0.000000 1.000000 0.000000
vn 0.000000 1.000000 0.000000
vn 0.000000 1.000000 0.000000
vn 0.000000 1.000000 0.000000
vn 0.000000 1.000000 0.000000
vn 0.000000 1.000000 0.000000
vn 0.000000 1.000000 0.000000
vn 0.000000 1.000000 -0.000000
vn 0.000000 1.000000 -0.000000
vn 0.000000 1.000000 -0.000000
vn 0.000000 1.000000 -0.000000
vn 0.000000 1.000000 -0.000000
vn 0.000000 1.000000 0.000002
vn 0.000000 1.000000 0.000002
vn -0.000000 1.000000 0.000001
vn 0.000000 1.000000 0.000000
vn 0.000000 1.000000 -0.000000
vn 0.000000 1.000000 -0.000000
vn -0.000000 -1.000000 0.000000
vn 0.000000 -1.000000 0.000000
vn -0.000000 -1.000000 0.000000
vn -0.000000 -1.000000 0.000000
vn 0.000000 -1.000000 0.000000
vn 0.000000 -1.000000 0.000000
vn 0.000000 -1.000000 0.000000
vn -0.000000 -1.000000 0.000000
vn 0.000000 -1.000000 -0.000001
vn 0.000000 -1.000000 -0.000001
vn -0.000000 -1.000000 -0.000002
vn 0.000000 -1.000000 0.000000
vn 0.000000 -1.000000 0.000000
vn 0.000000 -1.000000 0.000000
vn 0.000000 -1.000000 0.000000
vn 0.000000 -1.000000 0.000000
vn 0.000000 -1.000000 0.000000
vn 0.000000 -1.000000 0.000000
vn 0.000000 -1.000000 0.000000
vn 0.000000 -1.000000 0.000000
vn 0.000000 -1.000000 0.000000
vn 0.000000 -1.000000 0.000000
vn 0.000000 -1.000000 0.000000
vn 0.000000 -1.000000 0.000000
vn 0.000000 -1.000000 0.000000
vn 0.000000 -1.000000 0.000000
vn -0.000000 -1.000000 0.000000
vn -0.000000 -1.000000 0.000000
vn -0.000000 -1.000000 0.000000
vn -0.000000 -1.000000 0.000000
vn -0.000000 -1.000000 0.000000
vn -0.000000 -1.000000 -0.000002
vn 0.000000 -1.000000 -0.000001
vn -0.000000 -1.000000 -0.000002
vn 0.000000 -1.000000 0.000000
vn -0.000000 -1.000000 0.000000
vn -0.000000 -1.000000 0.000000
vn 0.111469 0.000000 -0.993768
vn 0.111469 0.000000 -0.993768
vn 0.111469 0.000000 -0.993768
vn 0.111469 0.000000 -0.993768
vn -0.994982 0.000000 -0.100056
vn -0.994982 0.000000 -0.100056
vn -0.994982 0.000000 -0.100056
vn -0.994982 0.000000 -0.100056
vn -0.118353 0.000000 0.992972
vn -0.118353 0.000000 0.992972
vn -0.118353 0.000000 0.992972
vn -0.118353 0.000000 0.992972
vn 0.993880 0.000000 0.110463
vn 0.993880 0.000000 0.110463
vn 0.993880 0.000000 0.110463
vn 0.993880 0.000000 0.110463
vn 0.105156 0.000000 -0.994456
vn 0.105156 0.000000 -0.994456
vn 0.105156 0.000000 -0.994456
vn 0.105156 0.000000 -0.994456
vn 0.970128 0.000000 -0.242592
vn 0.970128 0.000000 -0.242592
vn 0.970128 0.000000 -0.242592
vn 0.970128 0.000000 -0.242592
vn 0.220146 0.000000 0.975467
vn 0.220146 0.000000 0.975467
vn 0.220146 0.000000 0.975467
vn 0.220146 0.000000 0.975467
vn -0.219813 0.000000 -0.975542
vn -0.219813 0.000000 -0.975542
vn -0.219813 0.000000 -0.975542
vn -0.219813 0.000000 -0.975542
vn -0.975467 0.000000 0.220146
vn -0.975467 0.000000 0.220146
vn -0.975467 0.000000 0.220146
vn -0.975467 0.000000 0.220146
vn 0.171720 0.000000 0.985146
vn 0.171720 0.000000 0.985146
vn 0.171720 0.000000 0.985146
vn 0.171720 0.000000 0.985146
vn -0.220231 0.000000 -0.975448
vn -0.220231 0.000000 -0.975448
vn -0.220231 0.000000 -0.975448
vn -0.220231 0.000000 -0.975448
s off
f 15/45/1 16/43/2 17/44/3
f 19/5/4 18/46/5 20/42/6 21/41/7 22/40/8
f 23/38/9 19/20/10 22/39/11
f 15/35/12 28/34/13 27/13/14
f 28/34/15 24/37/16 27/13/17
f 25/36/18 26/12/19 24/37/20
f 24/37/21 26/12/22 27/13/23
f 18/33/24 26/12/25 25/36/26
f 15/45/27 26/21/28 18/46/29 19/5/30 16/43/31
f 16/32/32 19/20/33 23/38/34
f 27/2/35 26/21/36 15/45/37
f 11/1/38 3/3/39 13/4/40
f 5/6/41 14/7/42 4/8/43 2/9/44 6/10/45
f 9/11/46 14/7/47 5/6/48
f 11/1/49 1/14/50 8/15/51
f 8/15/52 1/14/53 7/16/54
f 10/17/55 7/16/56 12/18/57
f 7/16/58 1/14/59 12/18/60
f 6/10/61 10/17/62 12/18/63
f 11/1/64 13/4/65 5/6/66 6/10/67 12/18/68
f 13/4/69 9/11/70 5/6/71
f 1/14/72 11/1/73 12/18/74
f 13/4/75 3/3/76 17/19/77 16/22/78
f 3/3/79 11/1/80 15/23/81 17/19/82
f 6/10/83 2/9/84 20/24/85 18/25/86
f 2/9/87 4/8/88 21/26/89 20/24/90
f 4/8/91 14/7/92 22/27/93 21/26/94
f 14/7/95 9/11/96 23/28/97 22/27/98
f 7/16/99 10/17/100 25/29/101 24/30/102
f 11/1/103 8/15/104 28/31/105 15/23/106
f 8/15/107 7/16/108 24/30/109 28/31/110
f 10/17/111 6/10/112 18/25/113 25/29/114
f 9/11/115 13/4/116 16/22/117 23/28/118
