# This file uses centimeters as units for non-parametric coordinates.

v 3.743423 9.037292 -36.397842
v 0.000061 10.587837 -36.397827
v -3.743378 9.037292 -36.397842
v -5.293884 5.293915 -36.397827
v -3.743378 1.550553 -36.397816
v 0.000061 0.000000 -36.397831
v 3.743423 1.550553 -36.397816
v 5.293869 5.293915 -36.397827
v 3.743423 9.037292 30.232285
v 0.000061 10.587837 30.232300
v -3.743378 9.037292 30.232285
v -5.293884 5.293914 30.232300
v -3.743378 1.550552 30.232311
v 0.000061 -0.000000 30.232296
v 3.743423 1.550552 30.232311
v 5.293869 5.293914 30.232300
v 3.173477 8.467293 -36.397839
v 0.000061 9.781731 -36.397842
v -3.173355 8.467293 -36.397839
v -4.487808 5.293915 -36.397827
v -3.173355 2.120552 -36.397820
v 0.000061 0.806099 -36.397816
v 3.173477 2.120552 -36.397820
v 4.487869 5.293915 -36.397827
v 3.173477 8.467293 30.981251
v 0.000061 9.781731 30.981249
v -3.173355 8.467293 30.981251
v -4.487808 5.293914 30.981262
v -3.173355 2.120552 30.981270
v 0.000061 0.806098 30.981274
v 3.173477 2.120552 30.981270
v 4.487869 5.293914 30.981262
v 2.926590 8.220570 32.369896
v 0.000061 9.432817 33.140358
v -2.926682 8.220567 33.140373
v -4.138885 5.293912 33.806732
v -2.926682 2.367284 33.806732
v 0.000061 1.155030 33.140396
v 2.926590 2.367280 33.140381
v 4.138931 5.293911 32.369934
v 2.455673 7.749549 32.605965
v 0.000061 8.766698 33.376446
v -2.455627 7.749547 33.376442
v -3.472778 5.293915 34.042786
v -2.455627 2.838303 34.042801
v 0.000061 1.821149 33.376450
v 2.455673 2.838300 33.376450
v 3.472900 5.293914 32.605957
v 2.260468 7.554389 34.223808
v 0.000061 8.490709 35.134609
v -2.260422 7.554392 35.134636
v -3.196930 5.293935 36.273861
v -2.260422 3.033460 36.273838
v 0.000061 2.097147 35.134609
v 2.260468 3.033457 35.134586
v 3.196838 5.293929 34.223812
v 0.000061 9.633240 -2.708291
v 3.068359 8.362274 -2.708263
v 4.339325 5.293930 -2.708256
v 3.068359 2.225563 -2.708306
v 0.000061 0.954613 -2.708280
v -3.068314 2.225563 -2.708306
v -4.339340 5.293930 -2.708256
v -3.068314 8.362274 -2.708263
v 1.603775 6.897697 34.464813
v 0.000061 7.562006 35.323608
v -1.603806 6.897699 35.323608
v -2.268036 5.293927 36.397854
v -1.603806 3.690152 36.397850
v 0.000061 3.025850 35.323631
v 1.603775 3.690157 35.323631
v 2.268082 5.293930 34.464809
v 1.104752 6.398676 26.767059
v 0.000061 6.856287 26.767061
v 0.000061 5.293932 18.224850
v -1.104782 6.398676 26.767059
v -1.562347 5.293932 26.767086
v -1.104782 4.189173 26.767115
v 0.000061 3.731570 26.767111
v 1.104752 4.189173 26.767115
v 1.562393 5.293932 26.767086
v 2.670364 7.964251 -31.360739
v 0.000061 9.070330 -31.360748
v 0.000061 5.293916 1.661010
v -2.670242 7.964251 -31.360739
v -3.776337 5.293917 -31.360779
v -2.670242 2.623598 -31.360764
v 0.000061 1.517511 -31.360752
v 2.670364 2.623598 -31.360764
v 3.776382 5.293917 -31.360779
vt 0.633423 0.449249
vt 0.633301 0.449249
vt 0.400104 0.462785
vt 0.633423 0.449249
vt 0.633423 0.449241
vt 0.633423 0.449241
vt 0.633423 0.449241
vt 0.633301 0.449241
vt 0.569132 0.406609
vt 0.576831 0.406609
vt 0.584529 0.406609
vt 0.592228 0.406609
vt 0.599927 0.406609
vt 0.607625 0.406609
vt 0.615324 0.406609
vt 0.623023 0.406609
vt 0.630722 0.406609
vt 0.569132 0.498288
vt 0.576831 0.498288
vt 0.584529 0.498288
vt 0.592228 0.498288
vt 0.599927 0.498288
vt 0.607625 0.498288
vt 0.615324 0.498288
vt 0.623023 0.498288
vt 0.630722 0.498288
vt 0.633301 0.449241
vt 0.633301 0.449249
vt 0.633423 0.449249
vt 0.402911 0.472444
vt 0.633423 0.449249
vt 0.633423 0.449241
vt 0.633423 0.449241
vt 0.633423 0.449241
vt 0.633301 0.449241
vt 0.633301 0.449241
vt 0.633423 0.449249
vt 0.633301 0.449249
vt 0.633423 0.449249
vt 0.633423 0.449241
vt 0.633423 0.449241
vt 0.633423 0.449241
vt 0.633301 0.449241
vt 0.633301 0.449241
vt 0.633301 0.449249
vt 0.633423 0.449249
vt 0.633423 0.449249
vt 0.633423 0.449241
vt 0.633423 0.449241
vt 0.633423 0.449241
vt 0.633301 0.449241
vt 0.633301 0.449241
vt 0.633301 0.449249
vt 0.633423 0.449249
vt 0.633423 0.449249
vt 0.633423 0.449241
vt 0.633423 0.449241
vt 0.633423 0.449241
vt 0.633301 0.449241
vt 0.633301 0.449241
vt 0.633301 0.449249
vt 0.633423 0.449249
vt 0.633423 0.449249
vt 0.633423 0.449241
vt 0.633423 0.449241
vt 0.633423 0.449241
vt 0.633301 0.449241
vt 0.633301 0.449241
vt 0.633301 0.449249
vt 0.633423 0.449249
vt 0.633423 0.449249
vt 0.633423 0.449241
vt 0.633423 0.449241
vt 0.633423 0.449241
vt 0.633301 0.449241
vt 0.633301 0.449241
vt 0.576831 0.452449
vt 0.630722 0.452449
vt 0.569132 0.452449
vt 0.623023 0.452449
vt 0.615324 0.452449
vt 0.607625 0.452449
vt 0.599927 0.452449
vt 0.592228 0.452449
vt 0.584529 0.452449
vt 0.633301 0.449249
vt 0.633423 0.449249
vt 0.633423 0.449249
vt 0.633423 0.449241
vt 0.633423 0.449241
vt 0.633423 0.449241
vt 0.633301 0.449241
vt 0.633301 0.449241
vt 0.402911 0.472444
vt 0.402911 0.472444
vt 0.402911 0.472444
vt 0.402911 0.472444
vt 0.402911 0.472444
vt 0.402911 0.472444
vt 0.402911 0.472444
vt 0.402911 0.472444
vt 0.402911 0.472444
vt 0.402911 0.472444
vt 0.402911 0.472444
vt 0.402911 0.472444
vt 0.402911 0.472444
vt 0.402911 0.472444
vt 0.402911 0.472444
vt 0.402911 0.472444
vt 0.399981 0.462785
vt 0.400104 0.462785
vt 0.400104 0.462785
vt 0.400104 0.462785
vt 0.400104 0.462785
vt 0.400104 0.462785
vt 0.399981 0.462785
vt 0.399981 0.462785
vt 0.400104 0.462785
vt 0.399981 0.462785
vt 0.400104 0.462785
vt 0.400104 0.462785
vt 0.400104 0.462785
vt 0.400104 0.462785
vt 0.399981 0.462785
vt 0.399981 0.462785
vn 0.382556 0.923562 0.026170
vn 0.382556 0.923562 0.026170
vn 0.382556 0.923562 0.026170
vn 0.382556 0.923562 0.026170
vn -0.382548 0.923565 0.026170
vn -0.382548 0.923565 0.026170
vn -0.382548 0.923565 0.026170
vn -0.382548 0.923565 0.026170
vn -0.923562 0.382556 0.026169
vn -0.923562 0.382556 0.026169
vn -0.923562 0.382556 0.026169
vn -0.923562 0.382556 0.026169
vn -0.923562 -0.382555 0.026170
vn -0.923562 -0.382555 0.026170
vn -0.923562 -0.382555 0.026170
vn -0.923562 -0.382555 0.026170
vn -0.382548 -0.923565 0.026170
vn -0.382547 -0.923565 0.026170
vn -0.382547 -0.923565 0.026170
vn -0.382547 -0.923565 0.026170
vn 0.382555 -0.923562 0.026170
vn 0.382555 -0.923562 0.026170
vn 0.382555 -0.923562 0.026170
vn 0.382555 -0.923562 0.026170
vn 0.923568 -0.382541 0.026170
vn 0.923568 -0.382541 0.026170
vn 0.923568 -0.382541 0.026170
vn 0.923568 -0.382541 0.026170
vn 0.923568 0.382541 0.026169
vn 0.923568 0.382541 0.026169
vn 0.923568 0.382541 0.026169
vn 0.923568 0.382541 0.026169
vn -0.380566 -0.918765 -0.105071
vn -0.380566 -0.918765 -0.105071
vn -0.380566 -0.918765 -0.105071
vn 0.380566 -0.918765 -0.105071
vn 0.380566 -0.918765 -0.105071
vn 0.380566 -0.918765 -0.105071
vn 0.918765 -0.380566 -0.105071
vn 0.918765 -0.380566 -0.105071
vn 0.918765 -0.380566 -0.105071
vn 0.918764 0.380568 -0.105071
vn 0.918764 0.380568 -0.105071
vn 0.918764 0.380568 -0.105071
vn 0.380569 0.918764 -0.105071
vn 0.380569 0.918764 -0.105071
vn 0.380569 0.918764 -0.105071
vn -0.380569 0.918764 -0.105071
vn -0.380569 0.918764 -0.105071
vn -0.380569 0.918764 -0.105071
vn -0.918774 0.380546 -0.105070
vn -0.918774 0.380546 -0.105070
vn -0.918774 0.380546 -0.105070
vn -0.918775 -0.380543 -0.105070
vn -0.918775 -0.380543 -0.105070
vn -0.918775 -0.380543 -0.105070
vn -0.377357 -0.910957 0.166612
vn -0.377357 -0.910957 0.166612
vn -0.377357 -0.910957 0.166612
vn 0.377313 -0.910974 0.166616
vn 0.377313 -0.910974 0.166616
vn 0.377313 -0.910974 0.166616
vn 0.910976 -0.377306 0.166621
vn 0.910976 -0.377306 0.166621
vn 0.910976 -0.377306 0.166621
vn 0.910975 0.377309 0.166621
vn 0.910975 0.377309 0.166621
vn 0.910975 0.377309 0.166621
vn 0.377309 0.910976 0.166616
vn 0.377309 0.910976 0.166616
vn 0.377309 0.910976 0.166616
vn -0.377354 0.910958 0.166612
vn -0.377354 0.910958 0.166612
vn -0.377354 0.910958 0.166612
vn -0.910955 0.377363 0.166609
vn -0.910955 0.377363 0.166609
vn -0.910955 0.377363 0.166609
vn -0.910956 -0.377360 0.166609
vn -0.910956 -0.377361 0.166609
vn -0.910956 -0.377361 0.166609
vn 0.000003 0.000008 -1.000000
vn 0.000003 0.000008 -1.000000
vn 0.000003 0.000008 -1.000000
vn 0.000003 0.000008 -1.000000
vn -0.000002 0.000008 -1.000000
vn -0.000002 0.000008 -1.000000
vn -0.000002 0.000008 -1.000000
vn -0.000002 0.000008 -1.000000
vn -0.000003 -0.000004 -1.000000
vn -0.000003 -0.000004 -1.000000
vn -0.000003 -0.000004 -1.000000
vn -0.000003 -0.000004 -1.000000
vn -0.000001 -0.000003 -1.000000
vn -0.000001 -0.000003 -1.000000
vn -0.000001 -0.000003 -1.000000
vn -0.000001 -0.000003 -1.000000
vn -0.000001 0.000008 -1.000000
vn -0.000001 0.000008 -1.000000
vn -0.000001 0.000008 -1.000000
vn -0.000001 0.000008 -1.000000
vn -0.000001 0.000008 -1.000000
vn -0.000001 0.000008 -1.000000
vn -0.000001 0.000008 -1.000000
vn -0.000001 0.000008 -1.000000
vn 0.000003 -0.000003 -1.000000
vn 0.000003 -0.000003 -1.000000
vn 0.000003 -0.000003 -1.000000
vn 0.000003 -0.000003 -1.000000
vn 0.000003 -0.000004 -1.000000
vn 0.000003 -0.000004 -1.000000
vn 0.000003 -0.000004 -1.000000
vn 0.000003 -0.000004 -1.000000
vn 0.271361 0.655127 0.705104
vn 0.271361 0.655128 0.705104
vn 0.271361 0.655128 0.705104
vn 0.271361 0.655127 0.705104
vn -0.271355 0.655122 0.705111
vn -0.271355 0.655122 0.705111
vn -0.271355 0.655122 0.705111
vn -0.271355 0.655122 0.705111
vn -0.655127 0.271360 0.705104
vn -0.655127 0.271360 0.705104
vn -0.655127 0.271360 0.705104
vn -0.655127 0.271360 0.705104
vn -0.655127 -0.271357 0.705106
vn -0.655127 -0.271357 0.705106
vn -0.655127 -0.271357 0.705106
vn -0.655127 -0.271357 0.705106
vn -0.271357 -0.655129 0.705104
vn -0.271357 -0.655129 0.705104
vn -0.271357 -0.655129 0.705104
vn -0.271357 -0.655129 0.705104
vn 0.271363 -0.655134 0.705097
vn 0.271362 -0.655134 0.705097
vn 0.271362 -0.655134 0.705097
vn 0.271362 -0.655134 0.705097
vn 0.655162 -0.271360 0.705072
vn 0.655162 -0.271360 0.705072
vn 0.655162 -0.271360 0.705072
vn 0.655162 -0.271360 0.705072
vn 0.655162 0.271363 0.705071
vn 0.655162 0.271363 0.705071
vn 0.655162 0.271363 0.705071
vn 0.655162 0.271363 0.705071
vn 0.395707 0.900808 0.178775
vn 0.395707 0.900808 0.178775
vn 0.395707 0.900808 0.178775
vn 0.395707 0.900808 0.178775
vn -0.378477 0.913757 0.147660
vn -0.378478 0.913757 0.147660
vn -0.378478 0.913757 0.147660
vn -0.378478 0.913757 0.147660
vn -0.911221 0.391442 0.128255
vn -0.911221 0.391442 0.128255
vn -0.911221 0.391442 0.128255
vn -0.911221 0.391442 0.128255
vn -0.917928 -0.380212 0.113348
vn -0.917928 -0.380212 0.113348
vn -0.917928 -0.380212 0.113348
vn -0.917928 -0.380212 0.113348
vn -0.367524 -0.921127 0.128264
vn -0.367524 -0.921127 0.128264
vn -0.367524 -0.921127 0.128264
vn -0.367524 -0.921127 0.128264
vn 0.378490 -0.913748 0.147683
vn 0.378490 -0.913748 0.147683
vn 0.378490 -0.913748 0.147683
vn 0.378490 -0.913748 0.147683
vn 0.916770 -0.357160 0.178803
vn 0.916769 -0.357160 0.178803
vn 0.916770 -0.357160 0.178803
vn 0.916770 -0.357160 0.178803
vn 0.899936 0.372770 0.226181
vn 0.899936 0.372770 0.226181
vn 0.899936 0.372770 0.226181
vn 0.899936 0.372770 0.226181
vn 0.354582 0.229516 0.906418
vn 0.354582 0.229516 0.906418
vn 0.354582 0.229516 0.906418
vn 0.354582 0.229516 0.906418
vn -0.137052 0.330896 0.933662
vn -0.137052 0.330896 0.933662
vn -0.137052 0.330896 0.933662
vn -0.137052 0.330896 0.933662
vn -0.243640 0.327003 0.913076
vn -0.243640 0.327003 0.913076
vn -0.243640 0.327003 0.913076
vn -0.243640 0.327003 0.913076
vn -0.330872 -0.137046 0.933671
vn -0.330872 -0.137046 0.933671
vn -0.330872 -0.137046 0.933671
vn -0.330872 -0.137046 0.933671
vn 0.058943 -0.403511 0.913074
vn 0.058943 -0.403511 0.913074
vn 0.058943 -0.403511 0.913074
vn 0.058943 -0.403511 0.913074
vn 0.137062 -0.330883 0.933665
vn 0.137062 -0.330883 0.933665
vn 0.137062 -0.330883 0.933665
vn 0.137062 -0.330883 0.933665
vn 0.413006 0.088425 0.906425
vn 0.413006 0.088425 0.906425
vn 0.413006 0.088425 0.906425
vn 0.413006 0.088425 0.906425
vn 0.330898 0.137075 0.933658
vn 0.330898 0.137075 0.933658
vn 0.330898 0.137075 0.933658
vn 0.330898 0.137075 0.933658
vn 0.423335 0.893606 0.149187
vn 0.423335 0.893606 0.149187
vn 0.423335 0.893606 0.149187
vn 0.423335 0.893606 0.149187
vn -0.378716 0.914316 0.143530
vn -0.378716 0.914316 0.143530
vn -0.378716 0.914316 0.143530
vn -0.378716 0.914316 0.143530
vn -0.898347 0.420633 0.126653
vn -0.898347 0.420633 0.126653
vn -0.898347 0.420633 0.126653
vn -0.898347 0.420633 0.126653
vn -0.917893 -0.380242 0.113532
vn -0.917893 -0.380242 0.113532
vn -0.917893 -0.380242 0.113532
vn -0.917893 -0.380242 0.113532
vn -0.337809 -0.932650 0.126683
vn -0.337809 -0.932650 0.126683
vn -0.337809 -0.932650 0.126683
vn -0.337809 -0.932650 0.126683
vn 0.378725 -0.914311 0.143535
vn 0.378725 -0.914311 0.143535
vn 0.378725 -0.914311 0.143535
vn 0.378725 -0.914311 0.143535
vn 0.931207 -0.332549 0.149216
vn 0.931207 -0.332549 0.149216
vn 0.931207 -0.332549 0.149216
vn 0.931207 -0.332549 0.149216
vn 0.912601 0.378037 0.155717
vn 0.912601 0.378037 0.155717
vn 0.912601 0.378037 0.155717
vn 0.912601 0.378037 0.155717
vn 0.382550 0.923547 -0.026764
vn 0.382550 0.923547 -0.026764
vn 0.382550 0.923547 -0.026764
vn 0.382550 0.923547 -0.026764
vn 0.923553 0.382535 -0.026764
vn 0.923553 0.382535 -0.026764
vn 0.923553 0.382535 -0.026764
vn 0.923553 0.382535 -0.026764
vn 0.923553 -0.382535 -0.026764
vn 0.923553 -0.382535 -0.026764
vn 0.923553 -0.382535 -0.026764
vn 0.923553 -0.382535 -0.026764
vn 0.382549 -0.923548 -0.026765
vn 0.382549 -0.923548 -0.026765
vn 0.382549 -0.923548 -0.026765
vn 0.382549 -0.923548 -0.026765
vn -0.382541 -0.923551 -0.026765
vn -0.382541 -0.923551 -0.026765
vn -0.382541 -0.923551 -0.026765
vn -0.382541 -0.923551 -0.026765
vn -0.923548 -0.382549 -0.026764
vn -0.923548 -0.382549 -0.026764
vn -0.923548 -0.382549 -0.026764
vn -0.923548 -0.382549 -0.026764
vn -0.923547 0.382549 -0.026764
vn -0.923547 0.382549 -0.026764
vn -0.923547 0.382549 -0.026764
vn -0.923547 0.382549 -0.026764
vn -0.382542 0.923550 -0.026764
vn -0.382542 0.923550 -0.026764
vn -0.382542 0.923550 -0.026764
vn -0.382542 0.923550 -0.026764
vn 0.436830 0.062453 0.897373
vn 0.436830 0.062453 0.897373
vn 0.436830 0.062453 0.897373
vn 0.436830 0.062453 0.897373
vn -0.082311 0.198737 0.976590
vn -0.082311 0.198737 0.976590
vn -0.082311 0.198737 0.976590
vn -0.082311 0.198737 0.976590
vn 0.029685 0.487535 0.872599
vn 0.029685 0.487535 0.872599
vn 0.029685 0.487535 0.872599
vn 0.029685 0.487535 0.872599
vn -0.132138 -0.054744 0.989718
vn -0.132138 -0.054744 0.989719
vn -0.132138 -0.054744 0.989719
vn -0.132138 -0.054744 0.989718
vn 0.365714 -0.323760 0.872601
vn 0.365714 -0.323760 0.872601
vn 0.365714 -0.323760 0.872601
vn 0.365714 -0.323760 0.872602
vn 0.082342 -0.198775 0.976580
vn 0.082342 -0.198775 0.976580
vn 0.082342 -0.198775 0.976580
vn 0.082342 -0.198775 0.976580
vn 0.353048 0.264704 0.897379
vn 0.353048 0.264704 0.897379
vn 0.353048 0.264704 0.897379
vn 0.353048 0.264704 0.897379
vn 0.249829 0.103485 0.962744
vn 0.249829 0.103485 0.962744
vn 0.249829 0.103485 0.962744
vn 0.249829 0.103485 0.962744
vn -0.359734 -0.929624 0.079946
vn -0.359734 -0.929623 0.079946
vn -0.359734 -0.929623 0.079946
vn -0.359734 -0.929624 0.079946
vn 0.381558 -0.921217 0.075979
vn 0.381558 -0.921217 0.075979
vn 0.381558 -0.921217 0.075979
vn 0.381558 -0.921217 0.075979
vn 0.931235 -0.357339 0.071489
vn 0.931235 -0.357338 0.071489
vn 0.931235 -0.357338 0.071489
vn 0.931235 -0.357338 0.071489
vn 0.921783 0.381776 0.067544
vn 0.921783 0.381776 0.067544
vn 0.921783 0.381776 0.067544
vn 0.921783 0.381776 0.067544
vn 0.405750 0.911184 0.071491
vn 0.405750 0.911184 0.071491
vn 0.405750 0.911184 0.071491
vn 0.405750 0.911184 0.071491
vn -0.381593 0.921203 0.075979
vn -0.381593 0.921203 0.075979
vn -0.381593 0.921203 0.075979
vn -0.381593 0.921203 0.075979
vn -0.911701 0.403001 0.079945
vn -0.911701 0.403001 0.079945
vn -0.911701 0.403001 0.079945
vn -0.911701 0.403001 0.079945
vn -0.920578 -0.381331 0.084396
vn -0.920578 -0.381331 0.084396
vn -0.920578 -0.381331 0.084396
vn -0.920578 -0.381331 0.084396
vn -0.379462 -0.916115 -0.129388
vn -0.379462 -0.916115 -0.129388
vn -0.379462 -0.916115 -0.129388
vn -0.379462 -0.916115 -0.129388
vn 0.379462 -0.916115 -0.129388
vn 0.379462 -0.916115 -0.129388
vn 0.379462 -0.916115 -0.129388
vn 0.379462 -0.916115 -0.129388
vn 0.916112 -0.379466 -0.129399
vn 0.916112 -0.379466 -0.129399
vn 0.916112 -0.379466 -0.129399
vn 0.916112 -0.379466 -0.129399
vn 0.916111 0.379468 -0.129400
vn 0.916111 0.379468 -0.129400
vn 0.916111 0.379468 -0.129400
vn 0.916111 0.379468 -0.129400
vn 0.379466 0.916113 -0.129390
vn 0.379466 0.916113 -0.129390
vn 0.379466 0.916113 -0.129390
vn 0.379466 0.916113 -0.129390
vn -0.379466 0.916113 -0.129390
vn -0.379466 0.916113 -0.129390
vn -0.379466 0.916113 -0.129390
vn -0.379466 0.916113 -0.129390
vn -0.916119 0.379449 -0.129401
vn -0.916119 0.379449 -0.129401
vn -0.916119 0.379449 -0.129401
vn -0.916119 0.379449 -0.129401
vn -0.916120 -0.379447 -0.129400
vn -0.916120 -0.379447 -0.129400
vn -0.916120 -0.379447 -0.129400
vn -0.916120 -0.379447 -0.129400
s off
f 1/9/1 2/10/2 57/77/3 58/79/4
f 2/10/5 3/11/6 64/85/7 57/77/8
f 3/11/9 4/12/10 63/84/11 64/85/12
f 4/12/13 5/13/14 62/83/15 63/84/16
f 5/13/17 6/14/18 61/82/19 62/83/20
f 6/14/21 7/15/22 60/81/23 61/82/24
f 7/15/25 8/16/26 59/80/27 60/81/28
f 8/16/29 1/17/30 58/78/31 59/80/32
f 83/3/33 82/110/34 84/111/35
f 85/112/36 83/3/37 84/111/38
f 86/113/39 85/112/40 84/111/41
f 87/114/42 86/113/43 84/111/44
f 88/115/45 87/114/46 84/111/47
f 89/116/48 88/115/49 84/111/50
f 90/117/51 89/116/52 84/111/53
f 82/110/54 90/117/55 84/111/56
f 73/30/57 74/94/58 75/95/59
f 74/94/60 76/96/61 75/95/62
f 76/96/63 77/97/64 75/95/65
f 77/97/66 78/98/67 75/95/68
f 78/98/69 79/99/70 75/95/71
f 79/99/72 80/100/73 75/95/74
f 80/100/75 81/101/76 75/95/77
f 81/101/78 73/30/79 75/95/80
f 2/1/81 1/2/82 17/38/83 18/37/84
f 3/4/85 2/1/86 18/37/87 19/39/88
f 4/5/89 3/4/90 19/39/91 20/40/92
f 5/6/93 4/5/94 20/40/95 21/41/96
f 6/7/97 5/6/98 21/41/99 22/42/100
f 7/8/101 6/7/102 22/42/103 23/43/104
f 8/27/105 7/8/106 23/43/107 24/44/108
f 1/2/109 8/27/110 24/44/111 17/38/112
f 9/28/113 10/29/114 26/46/115 25/45/116
f 10/29/117 11/31/118 27/47/119 26/46/120
f 11/31/121 12/32/122 28/48/123 27/47/124
f 12/32/125 13/33/126 29/49/127 28/48/128
f 13/33/129 14/34/130 30/50/131 29/49/132
f 14/34/133 15/35/134 31/51/135 30/50/136
f 15/35/137 16/36/138 32/52/139 31/51/140
f 16/36/141 9/28/142 25/45/143 32/52/144
f 25/45/145 26/46/146 34/54/147 33/53/148
f 26/46/149 27/47/150 35/55/151 34/54/152
f 27/47/153 28/48/154 36/56/155 35/55/156
f 28/48/157 29/49/158 37/57/159 36/56/160
f 29/49/161 30/50/162 38/58/163 37/57/164
f 30/50/165 31/51/166 39/59/167 38/58/168
f 31/51/169 32/52/170 40/60/171 39/59/172
f 32/52/173 25/45/174 33/53/175 40/60/176
f 33/53/177 34/54/178 42/62/179 41/61/180
f 34/54/181 35/55/182 43/63/183 42/62/184
f 35/55/185 36/56/186 44/64/187 43/63/188
f 36/56/189 37/57/190 45/65/191 44/64/192
f 37/57/193 38/58/194 46/66/195 45/65/196
f 38/58/197 39/59/198 47/67/199 46/66/200
f 39/59/201 40/60/202 48/68/203 47/67/204
f 40/60/205 33/53/206 41/61/207 48/68/208
f 41/61/209 42/62/210 50/70/211 49/69/212
f 42/62/213 43/63/214 51/71/215 50/70/216
f 43/63/217 44/64/218 52/72/219 51/71/220
f 44/64/221 45/65/222 53/73/223 52/72/224
f 45/65/225 46/66/226 54/74/227 53/73/228
f 46/66/229 47/67/230 55/75/231 54/74/232
f 47/67/233 48/68/234 56/76/235 55/75/236
f 48/68/237 41/61/238 49/69/239 56/76/240
f 58/79/241 57/77/242 10/19/243 9/18/244
f 59/80/245 58/78/246 9/26/247 16/25/248
f 60/81/249 59/80/250 16/25/251 15/24/252
f 61/82/253 60/81/254 15/24/255 14/23/256
f 62/83/257 61/82/258 14/23/259 13/22/260
f 63/84/261 62/83/262 13/22/263 12/21/264
f 64/85/265 63/84/266 12/21/267 11/20/268
f 57/77/269 64/85/270 11/20/271 10/19/272
f 49/69/273 50/70/274 66/87/275 65/86/276
f 50/70/277 51/71/278 67/88/279 66/87/280
f 51/71/281 52/72/282 68/89/283 67/88/284
f 52/72/285 53/73/286 69/90/287 68/89/288
f 53/73/289 54/74/290 70/91/291 69/90/292
f 54/74/293 55/75/294 71/92/295 70/91/296
f 55/75/297 56/76/298 72/93/299 71/92/300
f 56/76/301 49/69/302 65/86/303 72/93/304
f 65/102/305 66/103/306 74/94/307 73/30/308
f 66/103/309 67/104/310 76/96/311 74/94/312
f 67/104/313 68/105/314 77/97/315 76/96/316
f 68/105/317 69/106/318 78/98/319 77/97/320
f 69/106/321 70/107/322 79/99/323 78/98/324
f 70/107/325 71/108/326 80/100/327 79/99/328
f 71/108/329 72/109/330 81/101/331 80/100/332
f 72/109/333 65/102/334 73/30/335 81/101/336
f 18/118/337 17/119/338 82/110/339 83/3/340
f 19/120/341 18/118/342 83/3/343 85/112/344
f 20/121/345 19/120/346 85/112/347 86/113/348
f 21/122/349 20/121/350 86/113/351 87/114/352
f 22/123/353 21/122/354 87/114/355 88/115/356
f 23/124/357 22/123/358 88/115/359 89/116/360
f 24/125/361 23/124/362 89/116/363 90/117/364
f 17/119/365 24/125/366 90/117/367 82/110/368
