# This file uses centimeters as units for non-parametric coordinates.

v -43.560150 0.000000 30.004663
v 43.541443 0.000000 30.031990
v -43.560150 0.515556 30.004663
v 43.541443 0.515556 30.031990
v -43.541321 0.515556 -30.031952
v 43.560272 0.515556 -30.004684
v -43.541321 0.000000 -30.031952
v 43.560272 0.000000 -30.004684
v 0.009476 0.515556 -30.018318
v 0.009476 0.000000 -30.018318
v -0.009354 0.000000 30.018326
v -0.009354 0.515556 30.018326
vt 0.402222 0.474213
vt 0.402222 0.474213
vt 0.675400 0.405979
vt 0.675333 0.405979
vt 0.675400 0.498433
vt 0.675333 0.498433
vt 0.402222 0.474213
vt 0.402222 0.474213
vt 0.402222 0.474213
vt 0.402222 0.474213
vt 0.402222 0.474213
vt 0.402222 0.474213
vt 0.402222 0.474213
vt 0.744139 0.498433
vt 0.402222 0.474213
vt 0.402222 0.474213
vt 0.744139 0.405979
vt 0.402222 0.474213
vn -0.000314 0.000000 1.000000
vn -0.000314 0.000000 1.000000
vn -0.000314 0.000000 1.000000
vn -0.000314 0.000000 1.000000
vn 0.000000 1.000000 -0.000000
vn 0.000000 1.000000 -0.000000
vn 0.000000 1.000000 -0.000000
vn 0.000000 1.000000 -0.000000
vn 0.000313 0.000000 -1.000000
vn 0.000313 0.000000 -1.000000
vn 0.000313 0.000000 -1.000000
vn 0.000313 0.000000 -1.000000
vn 0.000000 -1.000000 0.000000
vn 0.000000 -1.000000 0.000000
vn 0.000000 -1.000000 0.000000
vn 0.000000 -1.000000 0.000000
vn 1.000000 0.000000 0.000314
vn 1.000000 0.000000 0.000314
vn 1.000000 0.000000 0.000314
vn 1.000000 0.000000 0.000314
vn -1.000000 0.000000 -0.000314
vn -1.000000 0.000000 -0.000314
vn -1.000000 0.000000 -0.000314
vn -1.000000 0.000000 -0.000314
vn 0.000313 0.000000 -1.000000
vn 0.000313 0.000000 -1.000000
vn 0.000313 0.000000 -1.000000
vn 0.000313 0.000000 -1.000000
vn 0.000000 -1.000000 0.000000
vn 0.000000 -1.000000 0.000000
vn 0.000000 -1.000000 0.000000
vn 0.000000 -1.000000 0.000000
vn -0.000314 0.000000 1.000000
vn -0.000314 0.000000 1.000000
vn -0.000314 0.000000 1.000000
vn -0.000314 0.000000 1.000000
vn 0.000000 1.000000 -0.000000
vn 0.000000 1.000000 -0.000000
vn 0.000000 1.000000 0.000000
vn 0.000000 1.000000 0.000000
s off
f 1/1/1 11/16/2 12/18/3 3/8/4
f 3/4/5 12/17/6 9/14/7 5/6/8
f 5/9/9 9/13/10 10/15/11 7/12/12
f 7/12/13 10/15/14 11/16/15 1/1/16
f 2/2/17 8/11/18 6/10/19 4/7/20
f 7/12/21 1/1/22 3/8/23 5/9/24
f 9/13/25 6/10/26 8/11/27 10/15/28
f 11/16/29 10/15/30 8/11/31 2/2/32
f 12/18/33 11/16/34 2/2/35 4/7/36
f 9/14/37 12/17/38 4/3/39 6/5/40
