# This file uses centimeters as units for non-parametric coordinates.

v 3.743317 9.037285 -33.689590
v 0.000031 10.587837 -33.689575
v -3.743408 9.037285 -33.689590
v -5.293915 5.293915 -33.689575
v -3.743408 1.550553 -33.689564
v 0.000031 0.000000 -33.689579
v 3.743317 1.550553 -33.689564
v 5.293976 5.293915 -33.689575
v 3.743317 9.037285 32.940567
v 0.000031 10.587837 32.940552
v -3.743408 9.037285 32.940567
v -5.293915 5.293915 32.940552
v -3.743408 1.550553 32.940563
v 0.000031 0.000000 32.940548
v 3.743317 1.550553 32.940563
v 5.293976 5.293915 32.940552
v 3.173370 8.467300 -33.689590
v 0.000031 9.781731 -33.689590
v -3.173309 8.467300 -33.689590
v -4.487915 5.293915 -33.689575
v -3.173309 2.120553 -33.689568
v 0.000031 0.806107 -33.689568
v 3.173370 2.120553 -33.689568
v 4.487762 5.293915 -33.689575
v 3.173370 8.467300 33.689499
v 0.000031 9.781731 33.689499
v -3.173309 8.467300 33.689499
v -4.487915 5.293922 33.689514
v -3.173309 2.120552 33.689522
v 0.000031 0.806106 33.689522
v 3.173370 2.120552 33.689522
v 4.487762 5.293922 33.689514
v 0.000031 9.633232 -0.000038
v 3.068329 8.362274 -0.000011
v 4.339294 5.293930 -0.000004
v 3.068329 2.225563 -0.000053
v 0.000031 0.954613 -0.000029
v -3.068420 2.225563 -0.000053
v -4.339386 5.293930 -0.000004
v -3.068420 8.362274 -0.000011
v 2.836639 8.130793 29.475355
v 0.000031 9.305872 29.475311
v 0.000031 5.293928 7.911312
v -2.836945 8.130793 29.475355
v -4.011963 5.293932 29.475338
v -2.836945 2.457057 29.475323
v 0.000031 1.281985 29.475304
v 2.836639 2.457057 29.475323
v 4.012024 5.293932 29.475338
v 2.670410 7.964251 -28.652487
v 0.000031 9.070330 -28.652498
v 0.000031 5.293916 4.369261
v -2.670349 7.964251 -28.652487
v -3.776367 5.293917 -28.652468
v -2.670349 2.623598 -28.652512
v 0.000031 1.517511 -28.652500
v 2.670410 2.623598 -28.652512
v 3.776276 5.293917 -28.652468
vt 0.633423 0.449249
vt 0.633301 0.449249
vt 0.400104 0.462785
vt 0.633423 0.449249
vt 0.633423 0.449241
vt 0.633423 0.449241
vt 0.633423 0.449241
vt 0.633301 0.449241
vt 0.569132 0.406609
vt 0.576831 0.406609
vt 0.584529 0.406609
vt 0.592228 0.406609
vt 0.599927 0.406609
vt 0.607625 0.406609
vt 0.615324 0.406609
vt 0.623023 0.406609
vt 0.630722 0.406609
vt 0.569132 0.498288
vt 0.576831 0.498288
vt 0.584529 0.498288
vt 0.592228 0.498288
vt 0.599927 0.498288
vt 0.607625 0.498288
vt 0.615324 0.498288
vt 0.623023 0.498288
vt 0.630722 0.498288
vt 0.633301 0.449241
vt 0.633301 0.449249
vt 0.633423 0.449249
vt 0.401036 0.475671
vt 0.633423 0.449249
vt 0.633423 0.449241
vt 0.633423 0.449241
vt 0.633423 0.449241
vt 0.633301 0.449241
vt 0.633301 0.449241
vt 0.633423 0.449249
vt 0.633301 0.449249
vt 0.633423 0.449249
vt 0.633423 0.449241
vt 0.633423 0.449241
vt 0.633423 0.449241
vt 0.633301 0.449241
vt 0.633301 0.449241
vt 0.633301 0.449249
vt 0.633423 0.449249
vt 0.633423 0.449249
vt 0.633423 0.449241
vt 0.633423 0.449241
vt 0.633423 0.449241
vt 0.633301 0.449241
vt 0.633301 0.449241
vt 0.576831 0.452449
vt 0.630722 0.452449
vt 0.569132 0.452449
vt 0.623023 0.452449
vt 0.615324 0.452449
vt 0.607625 0.452449
vt 0.599927 0.452449
vt 0.592228 0.452449
vt 0.584529 0.452449
vt 0.401036 0.475671
vt 0.401036 0.475671
vt 0.401036 0.475671
vt 0.401036 0.475671
vt 0.401036 0.475671
vt 0.401036 0.475671
vt 0.401036 0.475671
vt 0.401036 0.475671
vt 0.399981 0.462785
vt 0.400104 0.462785
vt 0.400104 0.462785
vt 0.400104 0.462785
vt 0.400104 0.462785
vt 0.400104 0.462785
vt 0.399981 0.462785
vt 0.399981 0.462785
vt 0.400104 0.462785
vt 0.399981 0.462785
vt 0.400104 0.462785
vt 0.400104 0.462785
vt 0.400104 0.462785
vt 0.400104 0.462785
vt 0.399981 0.462785
vt 0.399981 0.462785
vt 0.401036 0.475671
vt 0.401036 0.475671
vt 0.401036 0.475671
vt 0.401036 0.475671
vt 0.401036 0.475671
vt 0.401036 0.475671
vt 0.401036 0.475671
vt 0.401036 0.475671
vn 0.382559 0.923560 0.026169
vn 0.382559 0.923560 0.026169
vn 0.382559 0.923560 0.026169
vn 0.382559 0.923560 0.026169
vn -0.382545 0.923566 0.026169
vn -0.382545 0.923566 0.026169
vn -0.382545 0.923566 0.026169
vn -0.382545 0.923566 0.026169
vn -0.923565 0.382549 0.026168
vn -0.923565 0.382549 0.026168
vn -0.923565 0.382549 0.026168
vn -0.923565 0.382549 0.026168
vn -0.923565 -0.382548 0.026168
vn -0.923565 -0.382548 0.026168
vn -0.923565 -0.382548 0.026168
vn -0.923565 -0.382548 0.026168
vn -0.382544 -0.923567 0.026170
vn -0.382544 -0.923567 0.026170
vn -0.382544 -0.923567 0.026170
vn -0.382544 -0.923567 0.026170
vn 0.382558 -0.923561 0.026170
vn 0.382558 -0.923561 0.026170
vn 0.382558 -0.923561 0.026170
vn 0.382558 -0.923561 0.026170
vn 0.923558 -0.382566 0.026170
vn 0.923558 -0.382566 0.026170
vn 0.923558 -0.382566 0.026170
vn 0.923558 -0.382566 0.026170
vn 0.923557 0.382566 0.026170
vn 0.923557 0.382566 0.026170
vn 0.923557 0.382566 0.026170
vn 0.923557 0.382566 0.026170
vn -0.380556 -0.918769 -0.105072
vn -0.380556 -0.918769 -0.105072
vn -0.380556 -0.918769 -0.105072
vn 0.380556 -0.918769 -0.105072
vn 0.380556 -0.918769 -0.105072
vn 0.380556 -0.918769 -0.105072
vn 0.918774 -0.380545 -0.105072
vn 0.918774 -0.380545 -0.105072
vn 0.918774 -0.380545 -0.105072
vn 0.918773 0.380548 -0.105072
vn 0.918773 0.380548 -0.105072
vn 0.918773 0.380548 -0.105072
vn 0.380559 0.918768 -0.105071
vn 0.380559 0.918768 -0.105071
vn 0.380559 0.918768 -0.105071
vn -0.380559 0.918768 -0.105071
vn -0.380559 0.918768 -0.105071
vn -0.380559 0.918768 -0.105071
vn -0.918791 0.380503 -0.105070
vn -0.918791 0.380503 -0.105070
vn -0.918792 0.380503 -0.105070
vn -0.918793 -0.380500 -0.105070
vn -0.918793 -0.380500 -0.105070
vn -0.918793 -0.380500 -0.105070
vn -0.377187 -0.910513 0.169399
vn -0.377187 -0.910513 0.169399
vn -0.377187 -0.910513 0.169399
vn 0.377145 -0.910530 0.169402
vn 0.377145 -0.910530 0.169402
vn 0.377145 -0.910530 0.169402
vn 0.910531 -0.377140 0.169405
vn 0.910531 -0.377140 0.169405
vn 0.910531 -0.377140 0.169405
vn 0.910533 0.377137 0.169405
vn 0.910533 0.377137 0.169405
vn 0.910533 0.377137 0.169405
vn 0.377142 0.910531 0.169403
vn 0.377142 0.910531 0.169403
vn 0.377142 0.910531 0.169403
vn -0.377184 0.910514 0.169400
vn -0.377184 0.910514 0.169400
vn -0.377184 0.910514 0.169400
vn -0.910492 0.377238 0.169397
vn -0.910492 0.377238 0.169397
vn -0.910492 0.377238 0.169397
vn -0.910491 -0.377241 0.169397
vn -0.910491 -0.377241 0.169397
vn -0.910491 -0.377241 0.169397
vn 0.000003 0.000010 -1.000000
vn 0.000003 0.000010 -1.000000
vn 0.000003 0.000010 -1.000000
vn 0.000003 0.000010 -1.000000
vn -0.000003 0.000010 -1.000000
vn -0.000003 0.000010 -1.000000
vn -0.000003 0.000010 -1.000000
vn -0.000003 0.000010 -1.000000
vn 0.000000 -0.000004 -1.000000
vn 0.000000 -0.000004 -1.000000
vn 0.000000 -0.000004 -1.000000
vn 0.000000 -0.000004 -1.000000
vn -0.000006 -0.000003 -1.000000
vn -0.000006 -0.000003 -1.000000
vn -0.000006 -0.000003 -1.000000
vn -0.000006 -0.000003 -1.000000
vn 0.000001 0.000006 -1.000000
vn 0.000001 0.000006 -1.000000
vn 0.000001 0.000006 -1.000000
vn 0.000001 0.000006 -1.000000
vn 0.000000 0.000006 -1.000000
vn 0.000000 0.000006 -1.000000
vn 0.000000 0.000006 -1.000000
vn 0.000000 0.000006 -1.000000
vn 0.000005 -0.000003 -1.000000
vn 0.000005 -0.000003 -1.000000
vn 0.000005 -0.000003 -1.000000
vn 0.000005 -0.000003 -1.000000
vn 0.000001 -0.000004 -1.000000
vn 0.000001 -0.000004 -1.000000
vn 0.000001 -0.000004 -1.000000
vn 0.000001 -0.000004 -1.000000
vn 0.271362 0.655122 0.705109
vn 0.271362 0.655122 0.705109
vn 0.271362 0.655122 0.705109
vn 0.271362 0.655122 0.705109
vn -0.271352 0.655111 0.705123
vn -0.271352 0.655111 0.705123
vn -0.271352 0.655111 0.705123
vn -0.271352 0.655111 0.705123
vn -0.655118 0.271368 0.705110
vn -0.655118 0.271368 0.705110
vn -0.655118 0.271368 0.705110
vn -0.655118 0.271368 0.705110
vn -0.655121 -0.271369 0.705107
vn -0.655121 -0.271369 0.705107
vn -0.655121 -0.271369 0.705107
vn -0.655121 -0.271369 0.705107
vn -0.271355 -0.655120 0.705113
vn -0.271355 -0.655120 0.705113
vn -0.271355 -0.655120 0.705113
vn -0.271355 -0.655120 0.705113
vn 0.271365 -0.655130 0.705100
vn 0.271365 -0.655130 0.705100
vn 0.271365 -0.655130 0.705100
vn 0.271365 -0.655130 0.705100
vn 0.655111 -0.271359 0.705120
vn 0.655111 -0.271359 0.705120
vn 0.655111 -0.271359 0.705120
vn 0.655111 -0.271359 0.705120
vn 0.655108 0.271358 0.705123
vn 0.655108 0.271358 0.705123
vn 0.655108 0.271358 0.705123
vn 0.655108 0.271358 0.705123
vn 0.382553 0.923546 -0.026764
vn 0.382553 0.923546 -0.026764
vn 0.382553 0.923546 -0.026764
vn 0.382553 0.923546 -0.026764
vn 0.923543 0.382560 -0.026765
vn 0.923543 0.382560 -0.026765
vn 0.923543 0.382560 -0.026765
vn 0.923543 0.382560 -0.026765
vn 0.923543 -0.382559 -0.026765
vn 0.923543 -0.382559 -0.026765
vn 0.923543 -0.382559 -0.026765
vn 0.923543 -0.382559 -0.026765
vn 0.382552 -0.923546 -0.026764
vn 0.382552 -0.923546 -0.026764
vn 0.382552 -0.923546 -0.026764
vn 0.382552 -0.923546 -0.026764
vn -0.382538 -0.923552 -0.026764
vn -0.382538 -0.923552 -0.026764
vn -0.382538 -0.923552 -0.026764
vn -0.382538 -0.923552 -0.026764
vn -0.923550 -0.382542 -0.026763
vn -0.923551 -0.382542 -0.026763
vn -0.923551 -0.382542 -0.026763
vn -0.923550 -0.382542 -0.026763
vn -0.923550 0.382543 -0.026763
vn -0.923550 0.382543 -0.026763
vn -0.923550 0.382543 -0.026763
vn -0.923550 0.382543 -0.026763
vn -0.382539 0.923552 -0.026764
vn -0.382539 0.923552 -0.026764
vn -0.382539 0.923552 -0.026764
vn -0.382539 0.923552 -0.026764
vn -0.380632 -0.918885 0.103774
vn -0.380632 -0.918885 0.103774
vn -0.380632 -0.918885 0.103774
vn -0.380632 -0.918885 0.103774
vn 0.380613 -0.918895 0.103758
vn 0.380613 -0.918895 0.103758
vn 0.380613 -0.918895 0.103758
vn 0.380613 -0.918895 0.103758
vn 0.918888 -0.380631 0.103758
vn 0.918887 -0.380631 0.103758
vn 0.918887 -0.380631 0.103758
vn 0.918887 -0.380631 0.103758
vn 0.918888 0.380631 0.103758
vn 0.918888 0.380631 0.103758
vn 0.918888 0.380631 0.103758
vn 0.918888 0.380631 0.103758
vn 0.380613 0.918895 0.103759
vn 0.380613 0.918895 0.103759
vn 0.380613 0.918895 0.103759
vn 0.380613 0.918895 0.103759
vn -0.380632 0.918885 0.103775
vn -0.380632 0.918885 0.103775
vn -0.380632 0.918885 0.103775
vn -0.380632 0.918885 0.103775
vn -0.918878 0.380650 0.103775
vn -0.918878 0.380650 0.103775
vn -0.918878 0.380650 0.103775
vn -0.918878 0.380650 0.103775
vn -0.918878 -0.380650 0.103775
vn -0.918878 -0.380650 0.103775
vn -0.918878 -0.380650 0.103775
vn -0.918878 -0.380650 0.103775
vn -0.379462 -0.916116 -0.129383
vn -0.379461 -0.916116 -0.129383
vn -0.379462 -0.916116 -0.129383
vn -0.379462 -0.916116 -0.129383
vn 0.379461 -0.916116 -0.129383
vn 0.379461 -0.916116 -0.129383
vn 0.379461 -0.916116 -0.129383
vn 0.379461 -0.916116 -0.129383
vn 0.916108 -0.379477 -0.129391
vn 0.916108 -0.379477 -0.129391
vn 0.916109 -0.379477 -0.129391
vn 0.916108 -0.379477 -0.129391
vn 0.916108 0.379479 -0.129392
vn 0.916108 0.379479 -0.129392
vn 0.916108 0.379479 -0.129392
vn 0.916108 0.379479 -0.129392
vn 0.379465 0.916115 -0.129384
vn 0.379465 0.916115 -0.129384
vn 0.379465 0.916115 -0.129384
vn 0.379465 0.916115 -0.129384
vn -0.379465 0.916115 -0.129384
vn -0.379465 0.916115 -0.129384
vn -0.379465 0.916115 -0.129384
vn -0.379465 0.916115 -0.129384
vn -0.916129 0.379430 -0.129386
vn -0.916129 0.379430 -0.129386
vn -0.916129 0.379430 -0.129386
vn -0.916129 0.379430 -0.129386
vn -0.916129 -0.379429 -0.129386
vn -0.916129 -0.379429 -0.129386
vn -0.916129 -0.379429 -0.129386
vn -0.916129 -0.379429 -0.129386
s off
f 1/9/1 2/10/2 33/53/3 34/55/4
f 2/10/5 3/11/6 40/61/7 33/53/8
f 3/11/9 4/12/10 39/60/11 40/61/12
f 4/12/13 5/13/14 38/59/15 39/60/16
f 5/13/17 6/14/18 37/58/19 38/59/20
f 6/14/21 7/15/22 36/57/23 37/58/24
f 7/15/25 8/16/26 35/56/27 36/57/28
f 8/16/29 1/17/30 34/54/31 35/56/32
f 51/3/33 50/70/34 52/71/35
f 53/72/36 51/3/37 52/71/38
f 54/73/39 53/72/40 52/71/41
f 55/74/42 54/73/43 52/71/44
f 56/75/45 55/74/46 52/71/47
f 57/76/48 56/75/49 52/71/50
f 58/77/51 57/76/52 52/71/53
f 50/70/54 58/77/55 52/71/56
f 41/30/57 42/62/58 43/63/59
f 42/62/60 44/64/61 43/63/62
f 44/64/63 45/65/64 43/63/65
f 45/65/66 46/66/67 43/63/68
f 46/66/69 47/67/70 43/63/71
f 47/67/72 48/68/73 43/63/74
f 48/68/75 49/69/76 43/63/77
f 49/69/78 41/30/79 43/63/80
f 2/1/81 1/2/82 17/38/83 18/37/84
f 3/4/85 2/1/86 18/37/87 19/39/88
f 4/5/89 3/4/90 19/39/91 20/40/92
f 5/6/93 4/5/94 20/40/95 21/41/96
f 6/7/97 5/6/98 21/41/99 22/42/100
f 7/8/101 6/7/102 22/42/103 23/43/104
f 8/27/105 7/8/106 23/43/107 24/44/108
f 1/2/109 8/27/110 24/44/111 17/38/112
f 9/28/113 10/29/114 26/46/115 25/45/116
f 10/29/117 11/31/118 27/47/119 26/46/120
f 11/31/121 12/32/122 28/48/123 27/47/124
f 12/32/125 13/33/126 29/49/127 28/48/128
f 13/33/129 14/34/130 30/50/131 29/49/132
f 14/34/133 15/35/134 31/51/135 30/50/136
f 15/35/137 16/36/138 32/52/139 31/51/140
f 16/36/141 9/28/142 25/45/143 32/52/144
f 34/55/145 33/53/146 10/19/147 9/18/148
f 35/56/149 34/54/150 9/26/151 16/25/152
f 36/57/153 35/56/154 16/25/155 15/24/156
f 37/58/157 36/57/158 15/24/159 14/23/160
f 38/59/161 37/58/162 14/23/163 13/22/164
f 39/60/165 38/59/166 13/22/167 12/21/168
f 40/61/169 39/60/170 12/21/171 11/20/172
f 33/53/173 40/61/174 11/20/175 10/19/176
f 26/86/177 42/62/178 41/30/179 25/87/180
f 27/88/181 44/64/182 42/62/183 26/86/184
f 28/89/185 45/65/186 44/64/187 27/88/188
f 29/90/189 46/66/190 45/65/191 28/89/192
f 30/91/193 47/67/194 46/66/195 29/90/196
f 31/92/197 48/68/198 47/67/199 30/91/200
f 32/93/201 49/69/202 48/68/203 31/92/204
f 25/87/205 41/30/206 49/69/207 32/93/208
f 18/78/209 17/79/210 50/70/211 51/3/212
f 19/80/213 18/78/214 51/3/215 53/72/216
f 20/81/217 19/80/218 53/72/219 54/73/220
f 21/82/221 20/81/222 54/73/223 55/74/224
f 22/83/225 21/82/226 55/74/227 56/75/228
f 23/84/229 22/83/230 56/75/231 57/76/232
f 24/85/233 23/84/234 57/76/235 58/77/236
f 17/79/237 24/85/238 58/77/239 50/70/240
