# This file uses centimeters as units for non-parametric coordinates.

v -12.879248 -18.014154 2.277326
v 10.755106 -17.607935 4.506724
v -12.882803 -17.900560 3.687349
v 10.374842 -17.154238 5.820634
v -13.348516 -2.903574 1.174319
v 10.902048 -6.439089 1.836623
v -13.348516 -2.903574 0.000000
v 10.902048 -6.439089 0.662305
v 11.325388 -13.222292 3.442387
v 11.348680 -13.970301 2.065782
v -2.145910 -17.926851 3.689395
v -0.801634 -17.999681 2.277326
v -13.438711 -0.000002 1.414054
v 10.913904 0.029203 1.414054
v 10.913904 0.029203 0.000000
v -13.438711 -0.000002 0.000000
vt 0.304742 0.248626
vt 0.306046 0.248497
vt 0.317260 0.249190
vt 0.316891 0.249993
vt 0.317596 0.257457
vt 0.304386 0.248419
vt 0.316555 0.249880
vt 0.293642 0.280260
vt 0.317499 0.280310
vt 0.317499 0.280310
vt 0.293642 0.280260
vt 0.317836 0.255627
vt 0.317814 0.256950
vt 0.293801 0.275220
vt 0.294326 0.248471
vt 0.294323 0.248672
vt 0.293861 0.273635
vt 0.317472 0.268977
vt 0.317445 0.269032
vt 0.293971 0.248495
vn 0.011767 -0.980372 0.196805
vn 0.011767 -0.980372 0.196805
vn 0.011767 -0.980372 0.196805
vn 0.011767 -0.980372 0.196805
vn -0.173506 0.540067 0.823543
vn -0.173506 0.540067 0.823543
vn -0.173506 0.540067 0.823543
vn -0.001199 0.999999 0.000000
vn -0.001199 0.999999 0.000000
vn -0.001199 0.999999 0.000000
vn -0.001199 0.999999 0.000000
vn 0.979462 -0.082741 0.183868
vn 0.979462 -0.082741 0.183868
vn 0.979462 -0.082741 0.183868
vn 0.979462 -0.082741 0.183868
vn -0.999518 -0.031042 -0.000011
vn -0.999518 -0.031042 -0.000011
vn -0.999518 -0.031042 -0.000011
vn -0.999518 -0.031042 -0.000011
vn -0.061209 0.226309 0.972131
vn -0.061209 0.226309 0.972131
vn -0.061209 0.226309 0.972131
vn 0.174405 -0.568128 -0.804247
vn 0.174405 -0.568128 -0.804247
vn 0.174405 -0.568128 -0.804247
vn 0.998227 0.058951 -0.008171
vn 0.998227 0.058951 -0.008171
vn 0.998227 0.058951 -0.008171
vn 0.998227 0.058951 -0.008171
vn 0.042777 -0.180581 -0.982629
vn 0.042777 -0.180581 -0.982629
vn 0.042777 -0.180581 -0.982629
vn -0.002077 0.163607 0.986523
vn -0.002077 0.163607 0.986523
vn -0.002077 0.163607 0.986523
vn -0.002077 0.163607 0.986523
vn -0.000523 -0.997841 0.065667
vn -0.000523 -0.997841 0.065667
vn -0.000523 -0.997841 0.065667
vn -0.000523 -0.997841 0.065667
vn 0.003884 -0.146009 -0.989276
vn 0.003884 -0.146009 -0.989276
vn 0.003884 -0.146009 -0.989276
vn 0.003884 -0.146009 -0.989276
vn -0.012224 0.019402 0.999737
vn -0.012224 0.019402 0.999737
vn -0.012224 0.019402 0.999737
vn -0.012224 0.019402 0.999737
vn 0.999998 -0.001833 0.000000
vn 0.999998 -0.001833 0.000000
vn 0.999998 -0.001833 0.000000
vn 0.999998 -0.001833 0.000000
vn 0.008512 -0.070420 -0.997481
vn 0.008512 -0.070420 -0.997481
vn 0.008512 -0.070420 -0.997481
vn 0.008512 -0.070420 -0.997481
vn -0.999518 -0.031048 0.000000
vn -0.999518 -0.031048 0.000000
vn -0.999518 -0.031048 0.000000
vn -0.999518 -0.031048 0.000000
s off
f 11/1/1 12/2/2 2/3/3 4/4/4
f 9/5/5 11/6/6 4/7/7
f 13/8/8 14/9/9 15/10/10 16/11/11
f 10/12/12 9/13/13 4/4/14 2/3/15
f 7/14/16 1/15/17 3/16/18 5/17/19
f 6/18/20 11/6/21 9/5/22
f 12/2/23 10/12/24 2/3/25
f 9/13/26 10/12/27 8/19/28 6/18/29
f 12/2/30 8/19/31 10/12/32
f 3/20/33 11/6/34 6/18/35 5/17/36
f 1/15/37 12/2/38 11/1/39 3/16/40
f 1/15/41 7/14/42 8/19/43 12/2/44
f 5/17/45 6/18/46 14/9/47 13/8/48
f 6/18/49 8/19/50 15/10/51 14/9/52
f 8/19/53 7/14/54 16/11/55 15/10/56
f 7/14/57 5/17/58 13/8/59 16/11/60
