# This file uses centimeters as units for non-parametric coordinates.

v 8.026733 6.054850 -300.178650
v 9.994080 0.000000 -300.178650
v 16.360474 0.000000 -300.178650
v 18.327820 6.054848 -300.178650
v 13.177307 9.796949 -300.178650
v -0.729797 6.054850 295.442444
v 1.237549 0.000000 295.442444
v 7.604004 0.000000 295.442444
v 9.571350 6.054848 295.442444
v 4.420776 9.796949 295.442444
v 13.177307 4.381329 -300.178650
v 4.420776 4.381329 295.442444
v -0.729797 6.054850 -136.980286
v 1.237549 0.000000 -136.980286
v 7.604004 0.000000 -136.980286
v 9.571350 6.054848 -136.980286
v 4.420776 9.796949 -136.980286
v -12.032043 6.832002 -306.803772
v -10.064697 0.777178 -306.792480
v -3.698364 0.777018 -306.810486
v -1.731018 6.831742 -306.832886
v -6.881470 10.573927 -306.828735
v -6.677979 12.297145 288.802429
v -4.710632 6.242321 288.813660
v 1.655640 6.242162 288.795715
v 3.622986 12.296886 288.773254
v -1.527466 16.039070 288.777405
v -6.881470 5.158373 -306.813660
v -1.527466 10.623516 288.792542
v -19.607849 6.054850 -285.948669
v -17.640625 0.000000 -285.955261
v -11.274353 0.000000 -285.976746
v -9.307007 6.054848 -285.983459
v -14.457458 9.796949 -285.966003
v -18.170959 6.054850 309.678406
v -16.203735 0.000000 309.671692
v -9.837463 0.000000 309.650208
v -7.870117 6.054848 309.643616
v -13.020569 9.796949 309.660950
v -14.457458 4.381329 -285.966003
v -13.020569 4.381329 309.660950
v -14.920166 6.054850 149.549622
v -12.952942 0.000000 149.543030
v -6.586670 0.000000 149.521545
v -4.619324 6.054848 149.514954
v -9.769775 9.796949 149.532288
vt 0.026989 0.288757
vt 0.026989 0.288751
vt 0.027271 0.288692
vt 0.027271 0.288698
vt 0.026988 0.288748
vt 0.027271 0.288689
vt 0.026988 0.288753
vt 0.027271 0.288694
vt 0.026989 0.288758
vt 0.027272 0.288699
vt 0.026989 0.288753
vt 0.027271 0.288695
vt 0.027158 0.244223
vt 0.027158 0.244223
vt 0.027158 0.244223
vt 0.027158 0.244223
vt 0.027158 0.244223
vt 0.026989 0.288757
vt 0.026989 0.288751
vt 0.027271 0.288692
vt 0.027271 0.288698
vt 0.026988 0.288748
vt 0.027271 0.288689
vt 0.026988 0.288753
vt 0.027271 0.288694
vt 0.026989 0.288758
vt 0.027272 0.288699
vt 0.026989 0.288753
vt 0.027271 0.288695
vt 0.027184 0.244223
vt 0.027184 0.244223
vt 0.027271 0.288692
vt 0.027271 0.288698
vt 0.027184 0.244223
vt 0.027271 0.288689
vt 0.027184 0.244223
vt 0.027271 0.288694
vt 0.027184 0.244223
vt 0.027272 0.288699
vt 0.026989 0.288751
vt 0.026989 0.288757
vt 0.026989 0.288753
vt 0.026988 0.288748
vt 0.026988 0.288753
vt 0.026989 0.288758
vt 0.027271 0.288695
vn -0.950965 -0.308988 -0.013873
vn -0.950962 -0.308987 -0.014087
vn -0.951056 -0.309018 0.000000
vn -0.951056 -0.309018 0.000000
vn -0.000000 -1.000000 -0.000000
vn -0.000000 -1.000000 -0.000000
vn -0.000000 -1.000000 0.000000
vn -0.000000 -1.000000 0.000000
vn 0.950965 -0.308988 0.013873
vn 0.950962 -0.308987 0.014087
vn 0.951056 -0.309018 0.000000
vn 0.951056 -0.309018 0.000000
vn 0.587762 0.808986 0.008813
vn 0.587764 0.808988 0.008466
vn 0.587784 0.809018 0.000000
vn 0.587784 0.809018 0.000000
vn -0.587761 0.808986 -0.008813
vn -0.587763 0.808989 -0.008467
vn -0.587784 0.809018 0.000000
vn -0.587784 0.809018 0.000000
vn 0.000004 0.000000 -1.000000
vn 0.000005 0.000000 -1.000000
vn -0.000000 0.000000 -1.000000
vn -0.000001 0.000000 -1.000000
vn 0.000004 0.000000 -1.000000
vn -0.000000 0.000000 -1.000000
vn -0.000005 0.000000 -1.000000
vn -0.000001 0.000000 -1.000000
vn -0.000000 0.000000 -1.000000
vn -0.000003 0.000000 -1.000000
vn -0.000005 0.000000 -1.000000
vn -0.000000 0.000000 -1.000000
vn 0.000005 0.000000 -1.000000
vn -0.000003 0.000000 -1.000000
vn -0.000000 0.000000 -1.000000
vn -0.000002 0.000000 1.000000
vn -0.000002 0.000000 1.000000
vn -0.000000 0.000000 1.000000
vn -0.000002 0.000000 1.000000
vn 0.000000 0.000000 1.000000
vn -0.000000 0.000000 1.000000
vn 0.000000 0.000000 1.000000
vn 0.000001 0.000000 1.000000
vn -0.000000 0.000000 1.000000
vn 0.000001 0.000000 1.000000
vn 0.000001 0.000000 1.000000
vn -0.000000 0.000000 1.000000
vn 0.000001 0.000000 1.000000
vn -0.000002 0.000000 1.000000
vn -0.000000 0.000000 1.000000
vn -0.949820 -0.308616 -0.050963
vn -0.949820 -0.308616 -0.050963
vn -0.950962 -0.308987 -0.014087
vn -0.950965 -0.308988 -0.013873
vn -0.000000 -1.000000 -0.000000
vn -0.000000 -1.000000 -0.000000
vn -0.000000 -1.000000 -0.000000
vn -0.000000 -1.000000 -0.000000
vn 0.949820 -0.308617 0.050963
vn 0.949820 -0.308616 0.050963
vn 0.950962 -0.308987 0.014087
vn 0.950965 -0.308988 0.013873
vn 0.587494 0.808614 0.031522
vn 0.587495 0.808614 0.031522
vn 0.587764 0.808988 0.008466
vn 0.587762 0.808986 0.008813
vn -0.587492 0.808616 -0.031522
vn -0.587492 0.808616 -0.031522
vn -0.587763 0.808989 -0.008467
vn -0.587761 0.808986 -0.008813
vn -0.951000 -0.308980 0.011384
vn -0.951001 -0.308980 0.011384
vn -0.951000 -0.308980 0.011384
vn -0.951000 -0.308980 0.011384
vn 0.000001 -0.999958 0.009175
vn 0.000001 -0.999958 0.009175
vn 0.000001 -0.999958 0.009175
vn 0.000001 -0.999958 0.009175
vn 0.951033 -0.309038 -0.005713
vn 0.951033 -0.309038 -0.005713
vn 0.951033 -0.309038 -0.005713
vn 0.951033 -0.309038 -0.005713
vn 0.587748 0.808944 -0.012706
vn 0.587748 0.808945 -0.012706
vn 0.587748 0.808944 -0.012706
vn 0.587748 0.808945 -0.012706
vn -0.587774 0.809022 -0.002140
vn -0.587774 0.809022 -0.002140
vn -0.587774 0.809022 -0.002140
vn -0.587774 0.809022 -0.002140
vn -0.002823 -0.002781 -0.999992
vn -0.002823 -0.002783 -0.999992
vn -0.002826 -0.002782 -0.999992
vn -0.002829 -0.002780 -0.999992
vn -0.002823 -0.002781 -0.999992
vn -0.002826 -0.002782 -0.999992
vn -0.002829 -0.002782 -0.999992
vn -0.002829 -0.002780 -0.999992
vn -0.002826 -0.002782 -0.999992
vn -0.002827 -0.002784 -0.999992
vn -0.002829 -0.002782 -0.999992
vn -0.002826 -0.002782 -0.999992
vn -0.002823 -0.002783 -0.999992
vn -0.002827 -0.002784 -0.999992
vn -0.002826 -0.002782 -0.999992
vn 0.002821 0.002783 0.999992
vn 0.002821 0.002772 0.999992
vn 0.002829 0.002784 0.999992
vn 0.002821 0.002772 0.999992
vn 0.002832 0.002780 0.999992
vn 0.002829 0.002784 0.999992
vn 0.002832 0.002780 0.999992
vn 0.002844 0.002791 0.999992
vn 0.002829 0.002784 0.999992
vn 0.002844 0.002791 0.999992
vn 0.002830 0.002795 0.999992
vn 0.002829 0.002784 0.999992
vn 0.002830 0.002795 0.999992
vn 0.002821 0.002783 0.999992
vn 0.002829 0.002784 0.999992
vn -0.951059 -0.309002 0.002276
vn -0.951059 -0.309002 0.002313
vn -0.950891 -0.308924 -0.019304
vn -0.950891 -0.308924 -0.019304
vn -0.000000 -1.000000 0.000000
vn -0.000000 -1.000000 0.000000
vn -0.000000 -1.000000 -0.000000
vn -0.000000 -1.000000 -0.000000
vn 0.951053 -0.309020 -0.002276
vn 0.951053 -0.309020 -0.002313
vn 0.950885 -0.308941 0.019304
vn 0.950885 -0.308941 0.019304
vn 0.587790 0.809013 -0.001448
vn 0.587790 0.809013 -0.001388
vn 0.587778 0.808934 0.011933
vn 0.587778 0.808935 0.011933
vn -0.587794 0.809009 0.001448
vn -0.587794 0.809009 0.001388
vn -0.587782 0.808931 -0.011933
vn -0.587782 0.808931 -0.011933
vn -0.003370 -0.000003 -0.999994
vn -0.003363 -0.000003 -0.999994
vn -0.003373 -0.000003 -0.999994
vn -0.003381 -0.000004 -0.999994
vn -0.003370 -0.000003 -0.999994
vn -0.003373 -0.000003 -0.999994
vn -0.003381 -0.000004 -0.999994
vn -0.003381 -0.000004 -0.999994
vn -0.003373 -0.000003 -0.999994
vn -0.003372 0.000000 -0.999994
vn -0.003381 -0.000004 -0.999994
vn -0.003373 -0.000003 -0.999994
vn -0.003363 -0.000003 -0.999994
vn -0.003372 0.000000 -0.999994
vn -0.003373 -0.000003 -0.999994
vn 0.003390 -0.000004 0.999994
vn 0.003376 -0.000004 0.999994
vn 0.003376 -0.000003 0.999994
vn 0.003376 -0.000004 0.999994
vn 0.003370 -0.000003 0.999994
vn 0.003376 -0.000003 0.999994
vn 0.003370 -0.000003 0.999994
vn 0.003365 -0.000003 0.999994
vn 0.003376 -0.000003 0.999994
vn 0.003365 -0.000003 0.999994
vn 0.003379 0.000000 0.999994
vn 0.003376 -0.000003 0.999994
vn 0.003379 0.000000 0.999994
vn 0.003390 -0.000004 0.999994
vn 0.003376 -0.000003 0.999994
vn -0.951009 -0.308994 0.010237
vn -0.951009 -0.308994 0.010237
vn -0.951059 -0.309002 0.002313
vn -0.951059 -0.309002 0.002276
vn -0.000000 -1.000000 0.000000
vn -0.000000 -1.000000 0.000000
vn -0.000000 -1.000000 0.000000
vn -0.000000 -1.000000 0.000000
vn 0.951003 -0.309012 -0.010237
vn 0.951003 -0.309012 -0.010237
vn 0.951053 -0.309020 -0.002313
vn 0.951053 -0.309020 -0.002276
vn 0.587768 0.809005 -0.006327
vn 0.587768 0.809005 -0.006327
vn 0.587790 0.809013 -0.001388
vn 0.587790 0.809013 -0.001448
vn -0.587772 0.809002 0.006327
vn -0.587772 0.809002 0.006327
vn -0.587794 0.809009 0.001388
vn -0.587794 0.809009 0.001448
s off
f 13/13/1 14/14/2 7/3/3 6/4/4
f 14/14/5 15/15/6 8/6/7 7/3/8
f 15/15/9 16/16/10 9/8/11 8/6/12
f 16/16/13 17/17/14 10/10/15 9/8/16
f 17/17/17 13/13/18 6/4/19 10/10/20
f 2/2/21 1/1/22 11/11/23
f 3/5/24 2/2/25 11/11/26
f 4/7/27 3/5/28 11/11/29
f 5/9/30 4/7/31 11/11/32
f 1/1/33 5/9/34 11/11/35
f 6/4/36 7/3/37 12/12/38
f 7/3/39 8/6/40 12/12/41
f 8/6/42 9/8/43 12/12/44
f 9/8/45 10/10/46 12/12/47
f 10/10/48 6/4/49 12/12/50
f 1/1/51 2/2/52 14/14/53 13/13/54
f 2/2/55 3/5/56 15/15/57 14/14/58
f 3/5/59 4/7/60 16/16/61 15/15/62
f 4/7/63 5/9/64 17/17/65 16/16/66
f 5/9/67 1/1/68 13/13/69 17/17/70
f 18/18/71 19/19/72 24/20/73 23/21/74
f 19/19/75 20/22/76 25/23/77 24/20/78
f 20/22/79 21/24/80 26/25/81 25/23/82
f 21/24/83 22/26/84 27/27/85 26/25/86
f 22/26/87 18/18/88 23/21/89 27/27/90
f 19/19/91 18/18/92 28/28/93
f 20/22/94 19/19/95 28/28/96
f 21/24/97 20/22/98 28/28/99
f 22/26/100 21/24/101 28/28/102
f 18/18/103 22/26/104 28/28/105
f 23/21/106 24/20/107 29/29/108
f 24/20/109 25/23/110 29/29/111
f 25/23/112 26/25/113 29/29/114
f 26/25/115 27/27/116 29/29/117
f 27/27/118 23/21/119 29/29/120
f 42/30/121 43/31/122 36/32/123 35/33/124
f 43/31/125 44/34/126 37/35/127 36/32/128
f 44/34/129 45/36/130 38/37/131 37/35/132
f 45/36/133 46/38/134 39/39/135 38/37/136
f 46/38/137 42/30/138 35/33/139 39/39/140
f 31/40/141 30/41/142 40/42/143
f 32/43/144 31/40/145 40/42/146
f 33/44/147 32/43/148 40/42/149
f 34/45/150 33/44/151 40/42/152
f 30/41/153 34/45/154 40/42/155
f 35/33/156 36/32/157 41/46/158
f 36/32/159 37/35/160 41/46/161
f 37/35/162 38/37/163 41/46/164
f 38/37/165 39/39/166 41/46/167
f 39/39/168 35/33/169 41/46/170
f 30/41/171 31/40/172 43/31/173 42/30/174
f 31/40/175 32/43/176 44/34/177 43/31/178
f 32/43/179 33/44/180 45/36/181 44/34/182
f 33/44/183 34/45/184 46/38/185 45/36/186
f 34/45/187 30/41/188 42/30/189 46/38/190
