# This file uses centimeters as units for non-parametric coordinates.

v -21.764574 0.907379 -4.411034
v -8.283770 0.907379 11.062561
v -4.445002 0.907379 -23.219025
v 9.951139 0.907379 -11.305462
v -13.458765 0.907379 -10.466934
v -5.995455 0.907379 9.824104
v -30.294348 0.612760 4.064339
v -11.607943 0.612760 4.064339
v -30.294348 0.612760 -25.955547
v -11.607943 0.612760 -25.955547
v 17.025717 0.612760 7.033997
v 28.472578 0.612760 -7.735954
v -7.898524 0.612760 -10.383896
v 8.171217 0.612760 -19.920418
v -46.156208 0.445845 -23.624844
v -38.192646 0.445845 -6.720306
v -39.914997 0.445845 -26.565014
v -24.506937 0.445845 -13.167507
v 34.189419 0.612760 -36.395653
v 16.326490 0.612760 -30.909576
v 31.230833 0.612760 -46.028946
v 14.824606 0.612760 -43.882317
v 9.090483 0.612760 37.670624
v 1.829046 0.612760 22.542992
v -5.062487 0.612760 48.874489
v -14.914881 0.612760 32.996368
v 84.555756 0.612760 41.804245
v 80.297745 0.612760 26.047356
v 60.457150 0.612760 45.393494
v 57.852688 0.612760 27.906944
v 78.802292 2.651407 42.661171
v 69.356064 2.651407 26.951935
v 72.473984 0.406541 12.152092
v 66.313293 0.406541 27.434258
v 68.482056 0.406541 16.707802
v 72.285812 0.406541 31.566727
v 78.868713 0.406541 17.724503
v -83.439026 0.406541 12.220345
v -69.426704 0.406541 4.690895
v -77.623978 0.406541 10.524704
v -72.241501 0.406541 -2.004272
v -85.835793 0.406541 4.084023
vt 0.294198 0.249711
vt 0.317149 0.249711
vt 0.294198 0.279511
vt 0.317149 0.279511
vt 0.294198 0.264694
vt 0.317149 0.253900
vt 0.318364 0.249711
vt 0.341316 0.249711
vt 0.341316 0.279511
vt 0.318364 0.279511
vt 0.318364 0.249711
vt 0.341316 0.249711
vt 0.341316 0.279511
vt 0.318364 0.279511
vt 0.294198 0.249711
vt 0.317149 0.249711
vt 0.317149 0.264729
vt 0.294198 0.256560
vt 0.294198 0.269507
vt 0.317149 0.263727
vt 0.317149 0.279511
vt 0.294198 0.279511
vt 0.318364 0.249711
vt 0.341316 0.249711
vt 0.341316 0.269305
vt 0.318364 0.269356
vt 0.294198 0.249711
vt 0.317149 0.249711
vt 0.317149 0.264277
vt 0.294198 0.258259
vt 0.317149 0.279511
vt 0.294198 0.279511
vt 0.318364 0.253346
vt 0.341316 0.259580
vt 0.341316 0.269305
vt 0.332722 0.269325
vt 0.318364 0.262476
vt 0.318364 0.253346
vt 0.341316 0.259580
vt 0.341316 0.269305
vt 0.332722 0.269325
vt 0.318364 0.262476
vn 0.000000 1.000000 0.000000
vn 0.000000 1.000000 0.000000
vn 0.000000 1.000000 0.000000
vn 0.000000 1.000000 0.000000
vn 0.000000 1.000000 0.000000
vn 0.000000 1.000000 0.000000
vn 0.000000 1.000000 0.000000
vn 0.000000 1.000000 0.000000
vn 0.000000 1.000000 0.000000
vn 0.000000 1.000000 0.000000
vn 0.000000 1.000000 0.000000
vn 0.000000 1.000000 0.000000
vn 0.000000 1.000000 0.000000
vn 0.000000 1.000000 0.000000
vn 0.000000 1.000000 -0.000000
vn 0.000000 1.000000 -0.000000
vn 0.000000 1.000000 -0.000000
vn 0.000000 1.000000 -0.000000
vn 0.000000 1.000000 -0.000000
vn 0.000000 1.000000 -0.000000
vn 0.000000 1.000000 -0.000000
vn 0.000000 1.000000 -0.000000
vn 0.000000 1.000000 0.000000
vn 0.000000 1.000000 0.000000
vn 0.000000 1.000000 0.000000
vn 0.000000 1.000000 0.000000
vn 0.226268 0.969067 -0.098545
vn 0.226268 0.969067 -0.098545
vn -0.047912 0.998760 0.013551
vn 0.039016 0.998995 -0.022047
vn -0.129490 0.990466 0.047007
vn -0.129490 0.990466 0.047007
vn 0.000000 1.000000 0.000000
vn 0.000000 1.000000 0.000000
vn 0.000000 1.000000 0.000000
vn 0.000000 1.000000 0.000000
vn 0.000000 1.000000 0.000000
vn 0.000000 1.000000 0.000000
vn 0.000000 1.000000 0.000000
vn 0.000000 1.000000 0.000000
vn 0.000000 1.000000 0.000000
vn 0.000000 1.000000 0.000000
s 1
f 1/1/1 2/2/2 6/6/3 5/5/4
f 5/5/4 6/6/3 4/4/5 3/3/6
s off
f 7/7/7 8/8/8 10/9/9 9/10/10
f 11/11/11 12/12/12 14/13/13 13/14/14
f 15/15/15 16/16/16 18/17/17 17/18/18
f 21/19/19 22/20/20 20/21/21 19/22/22
f 23/23/23 24/24/24 26/25/25 25/26/26
s 2
f 27/27/27 28/28/28 32/29/29 31/30/30
f 31/30/30 32/29/29 30/31/31 29/32/32
s off
f 36/33/33 37/34/34 33/35/35 35/36/36 34/37/37
f 41/38/38 42/39/39 38/40/40 40/41/41 39/42/42
