# This file uses centimeters as units for non-parametric coordinates.

v 20.259474 230.481232 3.618944
v 20.259474 232.809998 2.780082
v 20.259474 232.809998 0.065468
v 20.259474 230.481232 -0.773393
v 20.259474 229.041962 1.422775
v -22.274141 230.481232 3.618944
v -22.274141 232.809998 2.780082
v -22.274141 232.809998 0.065468
v -22.274141 230.481232 -0.773393
v -22.274141 229.041962 1.422775
v 23.499500 -0.000000 -2.237707
v 19.461115 0.000000 -0.839527
v 19.461115 0.000000 3.685078
v 23.499498 0.000000 5.083258
v 25.995300 0.000000 1.422775
v 23.499500 250.000000 -2.237707
v 19.461115 250.000000 -0.839527
v 19.461115 250.000000 3.685078
v 23.499498 250.000000 5.083258
v 25.995300 250.000000 1.422775
v 22.383257 0.000000 1.422775
v 22.383257 250.000000 1.422775
v -24.779415 0.000000 5.083258
v -20.741152 0.000000 3.685078
v -20.741152 0.000000 -0.839527
v -24.779413 -0.000000 -2.237707
v -27.275213 0.000000 1.422775
v -24.779415 250.000000 5.083258
v -20.741152 250.000000 3.685078
v -20.741152 250.000000 -0.839527
v -24.779413 250.000000 -2.237707
v -27.275213 250.000000 1.422775
v -23.663294 0.000000 1.422775
v -23.663294 250.000000 1.422775
v 20.259474 196.955200 -0.773394
v 20.259474 194.626434 0.065468
v 20.259474 194.626434 2.780082
v 20.259474 196.955200 3.618945
v 20.259474 198.394470 1.422775
v -22.274141 196.955200 -0.773394
v -22.274141 194.626434 0.065468
v -22.274141 194.626434 2.780082
v -22.274141 196.955200 3.618945
v -22.274141 198.394470 1.422775
v 20.259474 161.389221 3.618944
v 20.259474 163.717987 2.780082
v 20.259474 163.717987 0.065468
v 20.259474 161.389221 -0.773394
v 20.259474 159.949951 1.422775
v -22.274141 161.389221 3.618944
v -22.274141 163.717987 2.780082
v -22.274141 163.717987 0.065468
v -22.274141 161.389221 -0.773394
v -22.274141 159.949951 1.422775
v 20.259474 127.863197 -0.773394
v 20.259474 125.534431 0.065468
v 20.259474 125.534431 2.780082
v 20.259474 127.863197 3.618945
v 20.259474 129.302475 1.422775
v -22.274141 127.863197 -0.773394
v -22.274141 125.534431 0.065468
v -22.274141 125.534431 2.780082
v -22.274141 127.863197 3.618945
v -22.274141 129.302475 1.422775
v 20.259474 92.297195 3.618944
v 20.259474 94.625984 2.780082
v 20.259474 94.625992 0.065468
v 20.259474 92.297203 -0.773394
v 20.259474 90.857941 1.422775
v -22.274141 92.297195 3.618944
v -22.274141 94.625984 2.780082
v -22.274141 94.625992 0.065468
v -22.274141 92.297203 -0.773394
v -22.274141 90.857941 1.422775
v 20.259474 58.771202 -0.773394
v 20.259474 56.442413 0.065468
v 20.259474 56.442413 2.780082
v 20.259474 58.771202 3.618944
v 20.259474 60.210461 1.422775
v -22.274141 58.771202 -0.773394
v -22.274141 56.442413 0.065468
v -22.274141 56.442413 2.780082
v -22.274141 58.771202 3.618944
v -22.274141 60.210461 1.422775
v 20.259474 23.205193 3.618944
v 20.259474 25.533974 2.780082
v 20.259474 25.533974 0.065468
v 20.259474 23.205194 -0.773394
v 20.259474 21.765928 1.422775
v -22.274141 23.205193 3.618944
v -22.274141 25.533974 2.780082
v -22.274141 25.533974 0.065468
v -22.274141 23.205194 -0.773394
v -22.274141 21.765928 1.422775
vt 0.101636 0.279651
vt 0.101620 0.279648
vt 0.101658 0.278668
vt 0.101679 0.278670
vt 0.101619 0.279636
vt 0.101656 0.278659
vt 0.101634 0.279633
vt 0.101675 0.278657
vt 0.101644 0.279641
vt 0.101689 0.278663
vt 0.101445 0.303504
vt 0.101460 0.303507
vt 0.101447 0.302529
vt 0.101427 0.302526
vt 0.101461 0.303518
vt 0.101447 0.302537
vt 0.101446 0.303522
vt 0.101428 0.302540
vt 0.101436 0.303513
vt 0.101415 0.302533
vt 0.101450 0.303513
vt 0.101433 0.302533
vt 0.101636 0.303516
vt 0.101620 0.303513
vt 0.101658 0.302533
vt 0.101679 0.302535
vt 0.101619 0.303502
vt 0.101656 0.302525
vt 0.101634 0.303498
vt 0.101675 0.302522
vt 0.101644 0.303507
vt 0.101689 0.302528
vt 0.101631 0.303507
vt 0.101672 0.302529
vt 0.101445 0.279639
vt 0.101460 0.279642
vt 0.101447 0.278663
vt 0.101427 0.278661
vt 0.101461 0.279653
vt 0.101447 0.278671
vt 0.101446 0.279657
vt 0.101428 0.278674
vt 0.101436 0.279648
vt 0.101415 0.278668
vt 0.101636 0.279651
vt 0.101620 0.279648
vt 0.101658 0.278668
vt 0.101679 0.278670
vt 0.101619 0.279636
vt 0.101656 0.278659
vt 0.101634 0.279633
vt 0.101675 0.278657
vt 0.101644 0.279641
vt 0.101689 0.278663
vt 0.101445 0.279639
vt 0.101460 0.279642
vt 0.101447 0.278663
vt 0.101427 0.278661
vt 0.101461 0.279653
vt 0.101447 0.278671
vt 0.101446 0.279657
vt 0.101428 0.278674
vt 0.101436 0.279648
vt 0.101415 0.278668
vt 0.101636 0.279651
vt 0.101620 0.279648
vt 0.101658 0.278668
vt 0.101679 0.278670
vt 0.101619 0.279636
vt 0.101656 0.278659
vt 0.101634 0.279633
vt 0.101675 0.278657
vt 0.101644 0.279641
vt 0.101689 0.278663
vt 0.101445 0.279639
vt 0.101460 0.279642
vt 0.101447 0.278663
vt 0.101427 0.278661
vt 0.101461 0.279653
vt 0.101447 0.278671
vt 0.101446 0.279657
vt 0.101428 0.278674
vt 0.101436 0.279648
vt 0.101415 0.278668
vt 0.101636 0.279651
vt 0.101620 0.279648
vt 0.101658 0.278668
vt 0.101679 0.278670
vt 0.101619 0.279636
vt 0.101656 0.278659
vt 0.101634 0.279633
vt 0.101675 0.278657
vt 0.101644 0.279641
vt 0.101689 0.278663
vn 0.000000 0.338901 0.940822
vn 0.000000 0.338901 0.940822
vn 0.000000 0.338901 0.940822
vn 0.000000 0.338901 0.940822
vn 0.000000 1.000000 0.000000
vn 0.000000 1.000000 0.000000
vn 0.000000 1.000000 0.000000
vn 0.000000 1.000000 0.000000
vn 0.000000 0.338901 -0.940822
vn 0.000000 0.338901 -0.940822
vn 0.000000 0.338901 -0.940822
vn 0.000000 0.338901 -0.940822
vn 0.000000 -0.836389 -0.548136
vn 0.000000 -0.836389 -0.548136
vn 0.000000 -0.836389 -0.548136
vn 0.000000 -0.836389 -0.548136
vn 0.000000 -0.836389 0.548136
vn 0.000000 -0.836389 0.548136
vn 0.000000 -0.836389 0.548136
vn 0.000000 -0.836389 0.548136
vn -0.327168 0.000000 -0.944966
vn -0.327168 0.000000 -0.944966
vn -0.327168 0.000000 -0.944966
vn -0.327168 0.000000 -0.944966
vn -1.000000 0.000000 0.000000
vn -1.000000 0.000000 0.000000
vn -1.000000 0.000000 0.000000
vn -1.000000 0.000000 0.000000
vn -0.327169 0.000000 0.944966
vn -0.327169 0.000000 0.944966
vn -0.327169 0.000000 0.944966
vn -0.327169 0.000000 0.944966
vn 0.826225 0.000000 0.563340
vn 0.826225 0.000000 0.563340
vn 0.826225 0.000000 0.563340
vn 0.826225 0.000000 0.563340
vn 0.826226 0.000000 -0.563339
vn 0.826226 0.000000 -0.563339
vn 0.826226 0.000000 -0.563339
vn 0.826226 0.000000 -0.563339
vn -0.000000 -1.000000 0.000000
vn -0.000000 -1.000000 0.000000
vn -0.000000 -1.000000 0.000000
vn -0.000000 -1.000000 0.000000
vn -0.000000 -1.000000 0.000000
vn -0.000000 -1.000000 0.000000
vn 0.000000 -1.000000 0.000000
vn -0.000000 -1.000000 0.000000
vn -0.000000 -1.000000 0.000000
vn 0.000000 -1.000000 0.000000
vn 0.000000 -1.000000 0.000000
vn -0.000000 -1.000000 0.000000
vn -0.000000 -1.000000 0.000000
vn 0.000000 -1.000000 0.000000
vn -0.000000 -1.000000 0.000000
vn 0.000000 1.000000 0.000000
vn 0.000000 1.000000 0.000000
vn 0.000000 1.000000 0.000000
vn 0.000000 1.000000 0.000000
vn 0.000000 1.000000 0.000000
vn 0.000000 1.000000 0.000000
vn 0.000000 1.000000 0.000000
vn 0.000000 1.000000 0.000000
vn 0.000000 1.000000 0.000000
vn 0.000000 1.000000 0.000000
vn 0.000000 1.000000 0.000000
vn 0.000000 1.000000 0.000000
vn 0.000000 1.000000 0.000000
vn 0.000000 1.000000 0.000000
vn 0.000000 1.000000 0.000000
vn 0.327177 0.000000 0.944963
vn 0.327177 0.000000 0.944963
vn 0.327177 0.000000 0.944963
vn 0.327177 0.000000 0.944963
vn 1.000000 0.000000 0.000000
vn 1.000000 0.000000 0.000000
vn 1.000000 0.000000 0.000000
vn 1.000000 0.000000 0.000000
vn 0.327177 0.000000 -0.944963
vn 0.327177 0.000000 -0.944963
vn 0.327177 0.000000 -0.944963
vn 0.327177 0.000000 -0.944963
vn -0.826226 0.000000 -0.563339
vn -0.826226 0.000000 -0.563339
vn -0.826226 0.000000 -0.563339
vn -0.826226 0.000000 -0.563339
vn -0.826226 0.000000 0.563339
vn -0.826226 0.000000 0.563339
vn -0.826226 0.000000 0.563339
vn -0.826226 0.000000 0.563339
vn 0.000000 -1.000000 -0.000000
vn 0.000000 -1.000000 0.000000
vn 0.000000 -1.000000 -0.000000
vn 0.000000 -1.000000 -0.000000
vn 0.000000 -1.000000 -0.000000
vn 0.000000 -1.000000 -0.000000
vn 0.000000 -1.000000 -0.000000
vn 0.000000 -1.000000 -0.000000
vn 0.000000 -1.000000 -0.000000
vn -0.000000 -1.000000 0.000000
vn 0.000000 -1.000000 -0.000000
vn 0.000000 -1.000000 -0.000000
vn 0.000000 -1.000000 0.000000
vn -0.000000 -1.000000 0.000000
vn 0.000000 -1.000000 -0.000000
vn 0.000000 1.000000 0.000000
vn 0.000000 1.000000 0.000000
vn 0.000000 1.000000 0.000000
vn 0.000000 1.000000 0.000000
vn 0.000000 1.000000 0.000000
vn 0.000000 1.000000 0.000000
vn 0.000000 1.000000 0.000000
vn 0.000000 1.000000 0.000000
vn 0.000000 1.000000 0.000000
vn 0.000000 1.000000 0.000000
vn 0.000000 1.000000 0.000000
vn 0.000000 1.000000 0.000000
vn 0.000000 1.000000 0.000000
vn 0.000000 1.000000 0.000000
vn 0.000000 1.000000 0.000000
vn 0.000000 -0.338901 -0.940822
vn 0.000000 -0.338901 -0.940822
vn 0.000000 -0.338901 -0.940822
vn 0.000000 -0.338901 -0.940822
vn 0.000000 -1.000000 0.000000
vn 0.000000 -1.000000 0.000000
vn 0.000000 -1.000000 0.000000
vn 0.000000 -1.000000 0.000000
vn 0.000000 -0.338901 0.940822
vn 0.000000 -0.338901 0.940822
vn 0.000000 -0.338901 0.940822
vn 0.000000 -0.338901 0.940822
vn 0.000000 0.836393 0.548129
vn 0.000000 0.836393 0.548129
vn 0.000000 0.836393 0.548129
vn 0.000000 0.836393 0.548129
vn 0.000000 0.836394 -0.548130
vn 0.000000 0.836394 -0.548130
vn 0.000000 0.836394 -0.548130
vn 0.000000 0.836394 -0.548130
vn 0.000000 0.338899 0.940823
vn 0.000000 0.338899 0.940823
vn 0.000000 0.338899 0.940823
vn 0.000000 0.338899 0.940823
vn 0.000000 1.000000 0.000000
vn 0.000000 1.000000 0.000000
vn 0.000000 1.000000 0.000000
vn 0.000000 1.000000 0.000000
vn 0.000000 0.338899 -0.940823
vn 0.000000 0.338899 -0.940823
vn 0.000000 0.338899 -0.940823
vn 0.000000 0.338899 -0.940823
vn 0.000000 -0.836392 -0.548133
vn 0.000000 -0.836392 -0.548133
vn 0.000000 -0.836392 -0.548133
vn 0.000000 -0.836392 -0.548133
vn 0.000000 -0.836392 0.548133
vn 0.000000 -0.836392 0.548133
vn 0.000000 -0.836392 0.548133
vn 0.000000 -0.836392 0.548133
vn 0.000000 -0.338901 -0.940822
vn 0.000000 -0.338901 -0.940822
vn 0.000000 -0.338901 -0.940822
vn 0.000000 -0.338901 -0.940822
vn 0.000000 -1.000000 0.000000
vn 0.000000 -1.000000 0.000000
vn 0.000000 -1.000000 0.000000
vn 0.000000 -1.000000 0.000000
vn 0.000000 -0.338901 0.940822
vn 0.000000 -0.338901 0.940822
vn 0.000000 -0.338901 0.940822
vn 0.000000 -0.338901 0.940822
vn 0.000000 0.836390 0.548136
vn 0.000000 0.836390 0.548136
vn 0.000000 0.836390 0.548136
vn 0.000000 0.836390 0.548136
vn 0.000000 0.836390 -0.548136
vn 0.000000 0.836390 -0.548136
vn 0.000000 0.836390 -0.548136
vn 0.000000 0.836390 -0.548136
vn 0.000000 0.338898 0.940823
vn 0.000000 0.338898 0.940823
vn 0.000000 0.338898 0.940823
vn 0.000000 0.338898 0.940823
vn 0.000000 1.000000 0.000002
vn 0.000000 1.000000 0.000002
vn 0.000000 1.000000 0.000002
vn 0.000000 1.000000 0.000002
vn 0.000000 0.338898 -0.940823
vn 0.000000 0.338898 -0.940823
vn 0.000000 0.338898 -0.940823
vn 0.000000 0.338898 -0.940823
vn 0.000000 -0.836392 -0.548131
vn 0.000000 -0.836392 -0.548131
vn 0.000000 -0.836392 -0.548131
vn 0.000000 -0.836392 -0.548131
vn 0.000000 -0.836393 0.548130
vn 0.000000 -0.836393 0.548130
vn 0.000000 -0.836393 0.548130
vn 0.000000 -0.836393 0.548130
vn 0.000000 -0.338898 -0.940823
vn 0.000000 -0.338898 -0.940823
vn 0.000000 -0.338898 -0.940823
vn 0.000000 -0.338898 -0.940823
vn 0.000000 -1.000000 0.000000
vn 0.000000 -1.000000 0.000000
vn 0.000000 -1.000000 0.000000
vn 0.000000 -1.000000 0.000000
vn 0.000000 -0.338898 0.940823
vn 0.000000 -0.338898 0.940823
vn 0.000000 -0.338898 0.940823
vn 0.000000 -0.338898 0.940823
vn 0.000000 0.836393 0.548130
vn 0.000000 0.836393 0.548130
vn 0.000000 0.836393 0.548130
vn 0.000000 0.836393 0.548130
vn 0.000000 0.836393 -0.548130
vn 0.000000 0.836393 -0.548130
vn 0.000000 0.836393 -0.548130
vn 0.000000 0.836393 -0.548130
vn 0.000000 0.338898 0.940823
vn 0.000000 0.338898 0.940823
vn 0.000000 0.338898 0.940823
vn 0.000000 0.338898 0.940823
vn 0.000000 1.000000 0.000000
vn 0.000000 1.000000 0.000000
vn 0.000000 1.000000 0.000000
vn 0.000000 1.000000 0.000000
vn 0.000000 0.338899 -0.940823
vn 0.000000 0.338899 -0.940823
vn 0.000000 0.338899 -0.940823
vn 0.000000 0.338899 -0.940823
vn 0.000000 -0.836392 -0.548132
vn 0.000000 -0.836392 -0.548132
vn 0.000000 -0.836392 -0.548132
vn 0.000000 -0.836392 -0.548132
vn 0.000000 -0.836392 0.548131
vn 0.000000 -0.836392 0.548131
vn 0.000000 -0.836392 0.548131
vn 0.000000 -0.836392 0.548131
s off
f 1/1/1 2/2/2 7/3/3 6/4/4
f 2/2/5 3/5/6 8/6/7 7/3/8
f 3/5/9 4/7/10 9/8/11 8/6/12
f 4/7/13 5/9/14 10/10/15 9/8/16
f 5/9/17 1/1/18 6/4/19 10/10/20
f 11/11/21 12/12/22 17/13/23 16/14/24
f 12/12/25 13/15/26 18/16/27 17/13/28
f 13/15/29 14/17/30 19/18/31 18/16/32
f 14/17/33 15/19/34 20/20/35 19/18/36
f 15/19/37 11/11/38 16/14/39 20/20/40
f 12/12/41 11/11/42 21/21/43
f 13/15/44 12/12/45 21/21/46
f 14/17/47 13/15/48 21/21/49
f 15/19/50 14/17/51 21/21/52
f 11/11/53 15/19/54 21/21/55
f 16/14/56 17/13/57 22/22/58
f 17/13/59 18/16/60 22/22/61
f 18/16/62 19/18/63 22/22/64
f 19/18/65 20/20/66 22/22/67
f 20/20/68 16/14/69 22/22/70
f 23/23/71 24/24/72 29/25/73 28/26/74
f 24/24/75 25/27/76 30/28/77 29/25/78
f 25/27/79 26/29/80 31/30/81 30/28/82
f 26/29/83 27/31/84 32/32/85 31/30/86
f 27/31/87 23/23/88 28/26/89 32/32/90
f 24/24/91 23/23/92 33/33/93
f 25/27/94 24/24/95 33/33/96
f 26/29/97 25/27/98 33/33/99
f 27/31/100 26/29/101 33/33/102
f 23/23/103 27/31/104 33/33/105
f 28/26/106 29/25/107 34/34/108
f 29/25/109 30/28/110 34/34/111
f 30/28/112 31/30/113 34/34/114
f 31/30/115 32/32/116 34/34/117
f 32/32/118 28/26/119 34/34/120
f 35/35/121 36/36/122 41/37/123 40/38/124
f 36/36/125 37/39/126 42/40/127 41/37/128
f 37/39/129 38/41/130 43/42/131 42/40/132
f 38/41/133 39/43/134 44/44/135 43/42/136
f 39/43/137 35/35/138 40/38/139 44/44/140
f 45/45/141 46/46/142 51/47/143 50/48/144
f 46/46/145 47/49/146 52/50/147 51/47/148
f 47/49/149 48/51/150 53/52/151 52/50/152
f 48/51/153 49/53/154 54/54/155 53/52/156
f 49/53/157 45/45/158 50/48/159 54/54/160
f 55/55/161 56/56/162 61/57/163 60/58/164
f 56/56/165 57/59/166 62/60/167 61/57/168
f 57/59/169 58/61/170 63/62/171 62/60/172
f 58/61/173 59/63/174 64/64/175 63/62/176
f 59/63/177 55/55/178 60/58/179 64/64/180
f 65/65/181 66/66/182 71/67/183 70/68/184
f 66/66/185 67/69/186 72/70/187 71/67/188
f 67/69/189 68/71/190 73/72/191 72/70/192
f 68/71/193 69/73/194 74/74/195 73/72/196
f 69/73/197 65/65/198 70/68/199 74/74/200
f 75/75/201 76/76/202 81/77/203 80/78/204
f 76/76/205 77/79/206 82/80/207 81/77/208
f 77/79/209 78/81/210 83/82/211 82/80/212
f 78/81/213 79/83/214 84/84/215 83/82/216
f 79/83/217 75/75/218 80/78/219 84/84/220
f 85/85/221 86/86/222 91/87/223 90/88/224
f 86/86/225 87/89/226 92/90/227 91/87/228
f 87/89/229 88/91/230 93/92/231 92/90/232
f 88/91/233 89/93/234 94/94/235 93/92/236
f 89/93/237 85/85/238 90/88/239 94/94/240
