# This file uses centimeters as units for non-parametric coordinates.

v 22.862059 282.765594 3.445847
v 22.862059 285.675293 4.313065
v 22.862059 285.675293 7.119461
v 22.862059 282.765594 7.986679
v 22.862059 280.967224 5.716232
v -24.142153 282.765594 3.445847
v -24.142153 285.675293 4.313065
v -24.142153 285.675293 7.119461
v -24.142153 282.765594 7.986679
v -24.142153 280.967224 5.716232
v 22.862059 249.099503 3.445847
v 22.862059 252.009201 4.313065
v 22.862059 252.009201 7.119461
v 22.862059 249.099503 7.986679
v 22.862059 247.301193 5.716232
v -24.142153 249.099503 3.445847
v -24.142153 252.009201 4.313065
v -24.142153 252.009201 7.119461
v -24.142153 249.099503 7.986679
v -24.142153 247.301193 5.716232
v 22.862059 215.433365 3.445847
v 22.862059 218.343079 4.313065
v 22.862059 218.343079 7.119461
v 22.862059 215.433365 7.986679
v 22.862059 213.635040 5.716232
v -24.142153 215.433365 3.445847
v -24.142153 218.343079 4.313065
v -24.142153 218.343079 7.119461
v -24.142153 215.433365 7.986679
v -24.142153 213.635040 5.716232
v 22.862059 181.767258 3.445847
v 22.862059 184.676971 4.313065
v 22.862059 184.676971 7.119461
v 22.862059 181.767258 7.986679
v 22.862059 179.968948 5.716232
v -24.142153 181.767258 3.445847
v -24.142153 184.676971 4.313065
v -24.142153 184.676971 7.119461
v -24.142153 181.767258 7.986679
v -24.142153 179.968948 5.716232
v 22.862059 148.101120 3.445847
v 22.862059 151.010849 4.313065
v 22.862059 151.010849 7.119461
v 22.862059 148.101120 7.986679
v 22.862059 146.302826 5.716232
v -24.142153 148.101120 3.445847
v -24.142153 151.010849 4.313065
v -24.142153 151.010849 7.119461
v -24.142153 148.101120 7.986679
v -24.142153 146.302826 5.716232
v 22.862059 14.603557 3.445847
v 22.862059 11.693831 4.313065
v 22.862059 11.693831 7.119461
v 22.862059 14.603557 7.986679
v 22.862059 16.401859 5.716232
v -24.142153 14.603557 3.445847
v -24.142153 11.693831 4.313065
v -24.142153 11.693831 7.119461
v -24.142153 14.603557 7.986679
v -24.142153 16.401859 5.716232
v 22.862059 48.269676 3.445847
v 22.862059 45.359962 4.313065
v 22.862059 45.359962 7.119461
v 22.862059 48.269676 7.986679
v 22.862059 50.067989 5.716232
v -24.142153 48.269676 3.445847
v -24.142153 45.359962 4.313065
v -24.142153 45.359962 7.119461
v -24.142153 48.269676 7.986679
v -24.142153 50.067989 5.716232
v 22.862059 81.935806 3.445847
v 22.862059 79.026085 4.313065
v 22.862059 79.026085 7.119461
v 22.862059 81.935806 7.986679
v 22.862059 83.734116 5.716232
v -24.142153 81.935806 3.445847
v -24.142153 79.026085 4.313065
v -24.142153 79.026085 7.119461
v -24.142153 81.935806 7.986679
v -24.142153 83.734116 5.716232
v 22.862059 115.601967 3.445847
v 22.862059 112.692245 4.313065
v 22.862059 112.692245 7.119461
v 22.862059 115.601967 7.986679
v 22.862059 117.400269 5.716232
v -24.142153 115.601967 3.445847
v -24.142153 112.692245 4.313065
v -24.142153 112.692245 7.119461
v -24.142153 115.601967 7.986679
v -24.142153 117.400269 5.716232
v 8.381590 77.052002 4.313065
v 8.381590 77.052002 7.119461
v 8.381590 79.961731 7.986679
v 8.381590 81.760040 5.716232
v 8.381590 79.961731 3.445847
v -12.288942 213.459274 3.445847
v -12.288942 211.660965 5.716232
v -12.288942 213.459274 7.986679
v -12.288942 216.368988 7.119461
v -12.288942 216.368988 4.313065
v -3.683352 13.238986 4.313065
v -3.683352 13.238986 7.119461
v -3.683352 16.148708 7.986679
v -3.683352 17.947014 5.716232
v -3.683352 16.148708 3.445847
v 24.389891 0.000000 8.878433
v 22.508543 0.000000 4.094193
v 24.389891 300.000000 8.878433
v 22.508543 300.000000 4.094193
v 24.389891 300.000000 1.422775
v 17.245115 300.000000 1.422775
v 24.389891 0.000000 1.422775
v 17.245115 0.000000 1.422775
v 22.508543 300.000000 8.878433
v 22.508543 0.000000 8.878433
v 17.245115 300.000000 4.094193
v 17.245115 0.000000 4.094193
v -25.669924 0.000000 8.878433
v -23.788637 0.000000 4.094193
v -25.669924 300.000000 8.878433
v -23.788637 300.000000 4.094193
v -25.669924 300.000000 1.422775
v -18.525209 300.000000 1.422775
v -25.669924 0.000000 1.422775
v -18.525209 0.000000 1.422775
v -23.788637 300.000000 8.878433
v -23.788637 0.000000 8.878433
v -18.525209 300.000000 4.094193
v -18.525209 0.000000 4.094193
vt 0.058590 0.277652
vt 0.058590 0.277652
vt 0.058590 0.277652
vt 0.058590 0.277652
vt 0.058590 0.277652
vt 0.058590 0.277652
vt 0.058590 0.277652
vt 0.058590 0.277652
vt 0.058590 0.277652
vt 0.058590 0.277652
vt 0.058590 0.277652
vt 0.058590 0.277652
vt 0.058590 0.277652
vt 0.058590 0.277652
vt 0.058590 0.277652
vt 0.058590 0.277652
vt 0.058590 0.277652
vt 0.058590 0.277652
vt 0.058590 0.277652
vt 0.058590 0.277652
vt 0.058590 0.277652
vt 0.058590 0.277652
vt 0.058590 0.277652
vt 0.058590 0.277652
vt 0.058590 0.277652
vt 0.058590 0.277652
vt 0.058590 0.277652
vt 0.058590 0.277652
vt 0.058590 0.277652
vt 0.058590 0.277652
vt 0.058590 0.277652
vt 0.058590 0.277652
vt 0.058590 0.277652
vt 0.058590 0.277652
vt 0.058590 0.277652
vt 0.058590 0.277652
vt 0.058590 0.277652
vt 0.058590 0.277652
vt 0.058590 0.277652
vt 0.058590 0.277652
vt 0.058590 0.277652
vt 0.058590 0.277652
vt 0.058590 0.277652
vt 0.058590 0.277652
vt 0.058590 0.277652
vt 0.058590 0.277652
vt 0.058590 0.277652
vt 0.058590 0.277652
vt 0.058590 0.277652
vt 0.058590 0.277652
vt 0.058590 0.277652
vt 0.058590 0.277652
vt 0.058590 0.277652
vt 0.058590 0.277652
vt 0.058590 0.277652
vt 0.058590 0.277652
vt 0.058590 0.277652
vt 0.058590 0.277652
vt 0.058590 0.277652
vt 0.058590 0.277652
vt 0.058590 0.277652
vt 0.058590 0.277652
vt 0.058590 0.277652
vt 0.058590 0.277652
vt 0.058590 0.277652
vt 0.058590 0.277652
vt 0.058590 0.277652
vt 0.058590 0.277652
vt 0.058590 0.277652
vt 0.058590 0.277652
vt 0.058590 0.277652
vt 0.058590 0.277652
vt 0.058590 0.277652
vt 0.058590 0.277652
vt 0.058590 0.277652
vt 0.058590 0.277652
vt 0.058590 0.277652
vt 0.058590 0.277652
vt 0.058590 0.277652
vt 0.058590 0.277652
vt 0.058590 0.277652
vt 0.058590 0.277652
vt 0.058590 0.277652
vt 0.058590 0.277652
vt 0.058590 0.277652
vt 0.058590 0.277652
vt 0.058590 0.277652
vt 0.058590 0.277652
vt 0.058590 0.277652
vt 0.058590 0.277652
vt 0.058590 0.277652
vt 0.058590 0.277652
vt 0.058590 0.277652
vt 0.058590 0.277652
vt 0.058590 0.277652
vt 0.058590 0.277652
vt 0.058590 0.277652
vt 0.058590 0.277652
vt 0.058590 0.277652
vt 0.058590 0.277652
vt 0.058590 0.277652
vt 0.058590 0.277652
vt 0.058590 0.277652
vt 0.058590 0.277652
vt 0.058590 0.277652
vt 0.058590 0.277652
vt 0.058590 0.277652
vt 0.058590 0.277652
vt 0.058590 0.277652
vt 0.058590 0.277652
vt 0.058590 0.277652
vt 0.058590 0.277652
vt 0.058590 0.277652
vt 0.058590 0.277652
vt 0.058590 0.277652
vt 0.058590 0.277652
vt 0.058590 0.277652
vt 0.058590 0.277652
vt 0.058590 0.277652
vt 0.058590 0.277652
vt 0.058590 0.277652
vt 0.058590 0.277652
vt 0.058590 0.277652
vt 0.058590 0.277652
vt 0.058590 0.277652
vt 0.058590 0.277652
vt 0.058590 0.277652
vt 0.058590 0.277652
vt 0.058590 0.277652
vt 0.058590 0.277652
vt 0.058590 0.277652
vt 0.058590 0.277652
vt 0.058590 0.277652
vt 0.058590 0.277652
vt 0.058590 0.277652
vt 0.058590 0.277652
vt 0.058590 0.277652
vt 0.058590 0.277652
vt 0.058590 0.277652
vt 0.058590 0.277652
vt 0.058590 0.277652
vt 0.058590 0.277652
vt 0.058590 0.277652
vt 0.058590 0.277652
vt 0.058590 0.277652
vt 0.058590 0.277652
vt 0.058590 0.277652
vt 0.058590 0.277652
vt 0.058590 0.277652
vt 0.058590 0.277652
vn 0.000000 0.285629 -0.958340
vn 0.000000 0.285629 -0.958340
vn 0.000000 0.285629 -0.958340
vn 0.000000 0.285629 -0.958340
vn 0.000000 1.000000 0.000000
vn 0.000000 1.000000 0.000000
vn 0.000000 1.000000 0.000000
vn 0.000000 1.000000 0.000000
vn 0.000000 0.285629 0.958340
vn 0.000000 0.285629 0.958340
vn 0.000000 0.285629 0.958340
vn 0.000000 0.285629 0.958340
vn 0.000000 -0.783888 0.620902
vn 0.000000 -0.783888 0.620902
vn 0.000000 -0.783888 0.620902
vn 0.000000 -0.783888 0.620902
vn 0.000000 -0.783880 -0.620912
vn 0.000000 -0.783880 -0.620912
vn 0.000000 -0.783880 -0.620912
vn 0.000000 -0.783880 -0.620912
vn 0.000000 0.285627 -0.958341
vn 0.000000 0.285627 -0.958341
vn 0.000000 0.285627 -0.958341
vn 0.000000 0.285627 -0.958341
vn 0.000000 1.000000 0.000000
vn 0.000000 1.000000 0.000000
vn 0.000000 1.000000 0.000000
vn 0.000000 1.000000 0.000000
vn 0.000000 0.285627 0.958341
vn 0.000000 0.285627 0.958341
vn 0.000000 0.285627 0.958341
vn 0.000000 0.285627 0.958341
vn 0.000000 -0.783898 0.620889
vn 0.000000 -0.783898 0.620889
vn 0.000000 -0.783898 0.620889
vn 0.000000 -0.783898 0.620889
vn 0.000000 -0.783890 -0.620899
vn 0.000000 -0.783890 -0.620899
vn 0.000000 -0.783890 -0.620899
vn 0.000000 -0.783890 -0.620899
vn 0.000758 0.285627 -0.958341
vn -0.000840 0.285627 -0.958341
vn 0.047516 0.285305 -0.957258
vn 0.047516 0.285305 -0.957258
vn -0.000000 1.000000 0.000000
vn -0.000000 1.000000 0.000000
vn 0.164282 0.986413 0.000000
vn 0.164282 0.986413 0.000000
vn -0.000840 0.285627 0.958341
vn 0.000758 0.285627 0.958341
vn 0.047516 0.285305 0.957258
vn 0.047516 0.285305 0.957258
vn 0.001460 -0.783898 0.620888
vn -0.001367 -0.783898 0.620888
vn -0.129455 -0.777301 0.615667
vn -0.129455 -0.777300 0.615667
vn -0.001367 -0.783890 -0.620899
vn 0.001460 -0.783890 -0.620898
vn -0.129454 -0.777293 -0.615677
vn -0.129454 -0.777292 -0.615677
vn 0.000000 0.285625 -0.958341
vn 0.000000 0.285625 -0.958341
vn 0.000000 0.285625 -0.958341
vn 0.000000 0.285625 -0.958341
vn 0.000000 1.000000 0.000000
vn 0.000000 1.000000 0.000000
vn 0.000000 1.000000 0.000000
vn 0.000000 1.000000 0.000000
vn 0.000000 0.285625 0.958341
vn 0.000000 0.285625 0.958341
vn 0.000000 0.285625 0.958341
vn 0.000000 0.285625 0.958341
vn 0.000000 -0.783902 0.620885
vn 0.000000 -0.783902 0.620885
vn 0.000000 -0.783902 0.620885
vn 0.000000 -0.783902 0.620885
vn 0.000000 -0.783894 -0.620895
vn 0.000000 -0.783894 -0.620895
vn 0.000000 -0.783894 -0.620895
vn 0.000000 -0.783894 -0.620895
vn 0.000000 0.285625 -0.958341
vn 0.000000 0.285625 -0.958341
vn 0.000000 0.285625 -0.958341
vn 0.000000 0.285625 -0.958341
vn 0.000000 1.000000 0.000000
vn 0.000000 1.000000 0.000000
vn 0.000000 1.000000 0.000000
vn 0.000000 1.000000 0.000000
vn 0.000000 0.285625 0.958341
vn 0.000000 0.285625 0.958341
vn 0.000000 0.285625 0.958341
vn 0.000000 0.285625 0.958341
vn 0.000000 -0.783902 0.620885
vn 0.000000 -0.783902 0.620885
vn 0.000000 -0.783902 0.620885
vn 0.000000 -0.783902 0.620885
vn 0.000000 -0.783894 -0.620895
vn 0.000000 -0.783894 -0.620895
vn 0.000000 -0.783894 -0.620895
vn 0.000000 -0.783894 -0.620895
vn -0.000103 -0.285625 -0.958341
vn 0.000095 -0.285625 -0.958341
vn 0.021567 -0.285559 -0.958118
vn 0.021567 -0.285559 -0.958118
vn 0.000000 -1.000000 0.000000
vn 0.000000 -1.000000 0.000000
vn 0.075311 -0.997160 0.000000
vn 0.075311 -0.997160 0.000000
vn 0.000095 -0.285625 0.958341
vn -0.000103 -0.285625 0.958341
vn 0.021567 -0.285559 0.958118
vn 0.021567 -0.285559 0.958118
vn -0.000171 0.783900 0.620887
vn 0.000180 0.783900 0.620887
vn -0.059101 0.782530 0.619802
vn -0.059101 0.782530 0.619802
vn 0.000180 0.783892 -0.620897
vn -0.000171 0.783892 -0.620897
vn -0.059100 0.782522 -0.619812
vn -0.059100 0.782522 -0.619812
vn 0.000000 -0.285626 -0.958341
vn 0.000000 -0.285626 -0.958341
vn 0.000000 -0.285626 -0.958341
vn 0.000000 -0.285626 -0.958341
vn 0.000000 -1.000000 0.000000
vn 0.000000 -1.000000 0.000000
vn 0.000000 -1.000000 0.000000
vn 0.000000 -1.000000 0.000000
vn 0.000000 -0.285626 0.958341
vn 0.000000 -0.285626 0.958341
vn 0.000000 -0.285626 0.958341
vn 0.000000 -0.285626 0.958341
vn 0.000000 0.783899 0.620888
vn 0.000000 0.783899 0.620888
vn 0.000000 0.783899 0.620888
vn 0.000000 0.783899 0.620888
vn 0.000000 0.783891 -0.620898
vn 0.000000 0.783891 -0.620898
vn 0.000000 0.783891 -0.620898
vn 0.000000 0.783891 -0.620898
vn 0.000521 -0.285626 -0.958341
vn -0.000577 -0.285626 -0.958341
vn -0.017334 -0.285583 -0.958197
vn -0.017334 -0.285583 -0.958197
vn 0.000000 -1.000000 0.000000
vn 0.000000 -1.000000 0.000000
vn -0.060585 -0.998163 0.000000
vn -0.060585 -0.998163 0.000000
vn -0.000577 -0.285626 0.958341
vn 0.000521 -0.285626 0.958341
vn -0.017334 -0.285583 0.958197
vn -0.017334 -0.285583 0.958197
vn 0.001004 0.783899 0.620888
vn -0.000940 0.783899 0.620888
vn 0.047526 0.783013 0.620187
vn 0.047526 0.783013 0.620187
vn -0.000940 0.783891 -0.620898
vn 0.001004 0.783891 -0.620898
vn 0.047526 0.783005 -0.620197
vn 0.047526 0.783005 -0.620197
vn 0.000000 -0.285626 -0.958341
vn 0.000000 -0.285626 -0.958341
vn 0.000000 -0.285626 -0.958341
vn 0.000000 -0.285626 -0.958341
vn 0.000000 -1.000000 0.000000
vn 0.000000 -1.000000 0.000000
vn 0.000000 -1.000000 0.000000
vn 0.000000 -1.000000 0.000000
vn 0.000000 -0.285626 0.958341
vn 0.000000 -0.285626 0.958341
vn 0.000000 -0.285626 0.958341
vn 0.000000 -0.285626 0.958341
vn 0.000000 0.783900 0.620887
vn 0.000000 0.783900 0.620887
vn 0.000000 0.783900 0.620887
vn 0.000000 0.783900 0.620887
vn 0.000000 0.783892 -0.620897
vn 0.000000 0.783892 -0.620897
vn 0.000000 0.783892 -0.620897
vn 0.000000 0.783892 -0.620897
vn 0.135078 -0.990835 0.000000
vn 0.135078 -0.990835 0.000000
vn 0.000000 -1.000000 0.000000
vn 0.000000 -1.000000 0.000000
vn 0.038909 -0.285409 0.957616
vn 0.038909 -0.285409 0.957616
vn 0.000521 -0.285626 0.958341
vn -0.000577 -0.285626 0.958341
vn -0.106262 0.779462 0.617372
vn -0.106261 0.779462 0.617372
vn -0.000940 0.783899 0.620888
vn 0.001004 0.783899 0.620888
vn -0.106260 0.779454 -0.617382
vn -0.106260 0.779454 -0.617382
vn 0.001004 0.783891 -0.620898
vn -0.000940 0.783891 -0.620898
vn 0.038909 -0.285409 -0.957616
vn 0.038909 -0.285409 -0.957616
vn -0.000577 -0.285626 -0.958341
vn 0.000521 -0.285626 -0.958341
vn 0.043981 -0.783133 -0.620298
vn 0.001460 -0.783890 -0.620898
vn -0.001367 -0.783890 -0.620899
vn 0.043981 -0.783133 -0.620298
vn 0.043981 -0.783141 0.620288
vn -0.001367 -0.783898 0.620888
vn 0.001460 -0.783898 0.620888
vn 0.043981 -0.783140 0.620287
vn -0.016039 0.285590 0.958218
vn 0.000758 0.285627 0.958341
vn -0.000840 0.285627 0.958341
vn -0.016039 0.285590 0.958218
vn -0.056072 0.998427 0.000000
vn -0.000000 1.000000 0.000000
vn -0.000000 1.000000 0.000000
vn -0.056072 0.998427 0.000000
vn -0.016039 0.285590 -0.958218
vn -0.000840 0.285627 -0.958341
vn 0.000758 0.285627 -0.958341
vn -0.016039 0.285590 -0.958218
vn -0.058110 -0.998310 0.000000
vn -0.058110 -0.998310 0.000000
vn 0.000000 -1.000000 0.000000
vn 0.000000 -1.000000 0.000000
vn -0.016623 -0.285586 0.958209
vn -0.016623 -0.285586 0.958209
vn -0.000103 -0.285625 0.958341
vn 0.000095 -0.285625 0.958341
vn 0.045582 0.783085 0.620242
vn 0.045582 0.783085 0.620242
vn 0.000180 0.783900 0.620887
vn -0.000171 0.783900 0.620887
vn 0.045581 0.783077 -0.620252
vn 0.045581 0.783077 -0.620252
vn -0.000171 0.783892 -0.620897
vn 0.000180 0.783892 -0.620897
vn -0.016623 -0.285586 -0.958209
vn -0.016623 -0.285586 -0.958209
vn 0.000095 -0.285625 -0.958341
vn -0.000103 -0.285625 -0.958341
vn -0.930631 0.000000 0.365960
vn -1.000000 0.000000 0.000000
vn -1.000000 0.000000 0.000000
vn -0.930631 0.000000 0.365960
vn 0.000000 1.000000 0.000000
vn 0.000000 1.000000 0.000000
vn 0.000000 1.000000 0.000000
vn 0.000000 1.000000 0.000000
vn 0.000000 0.000000 -1.000000
vn 0.000000 0.000000 -1.000000
vn 0.000000 0.000000 -1.000000
vn 0.000000 0.000000 -1.000000
vn 0.000000 -1.000000 0.000000
vn 0.000000 -1.000000 0.000000
vn 0.000000 -1.000000 0.000000
vn 0.000000 -1.000000 0.000000
vn -0.452587 0.000000 0.891720
vn -1.000000 0.000000 0.000000
vn -1.000000 0.000000 0.000000
vn -0.452587 0.000000 0.891720
vn 0.000000 0.000000 1.000000
vn 0.000000 0.000000 1.000000
vn -0.930631 0.000000 0.365960
vn -0.930631 0.000000 0.365960
vn 0.000000 1.000000 0.000000
vn 0.000000 1.000000 0.000000
vn 0.000000 1.000000 0.000000
vn 0.000000 1.000000 0.000000
vn 0.000000 0.000000 1.000000
vn 0.000000 0.000000 1.000000
vn -0.452587 0.000000 0.891720
vn -0.452587 0.000000 0.891720
vn 0.000000 -1.000000 0.000000
vn 0.000000 -1.000000 0.000000
vn 0.000000 -1.000000 0.000000
vn 0.000000 -1.000000 0.000000
vn 1.000000 0.000000 0.000000
vn 1.000000 0.000000 0.000000
vn 1.000000 0.000000 0.000000
vn 1.000000 0.000000 0.000000
vn 0.930635 0.000000 0.365950
vn 0.930635 0.000000 0.365950
vn 1.000000 0.000000 0.000000
vn 1.000000 0.000000 0.000000
vn 0.000000 1.000000 0.000000
vn 0.000000 1.000000 0.000000
vn 0.000000 1.000000 0.000000
vn 0.000000 1.000000 0.000000
vn 0.000000 0.000000 -1.000000
vn 0.000000 0.000000 -1.000000
vn 0.000000 0.000000 -1.000000
vn 0.000000 0.000000 -1.000000
vn 0.000000 -1.000000 0.000000
vn 0.000000 -1.000000 0.000000
vn 0.000000 -1.000000 0.000000
vn 0.000000 -1.000000 0.000000
vn 0.452587 0.000000 0.891720
vn 0.452587 0.000000 0.891720
vn 1.000000 0.000000 0.000000
vn 1.000000 0.000000 0.000000
vn 0.000000 0.000000 1.000000
vn 0.930635 0.000000 0.365950
vn 0.930635 0.000000 0.365950
vn 0.000000 0.000000 1.000000
vn 0.000000 1.000000 0.000000
vn 0.000000 1.000000 0.000000
vn 0.000000 1.000000 0.000000
vn 0.000000 1.000000 0.000000
vn 0.000000 0.000000 1.000000
vn 0.452587 0.000000 0.891720
vn 0.452587 0.000000 0.891720
vn 0.000000 0.000000 1.000000
vn 0.000000 -1.000000 0.000000
vn 0.000000 -1.000000 0.000000
vn 0.000000 -1.000000 0.000000
vn 0.000000 -1.000000 0.000000
vn -1.000000 0.000000 0.000000
vn -1.000000 0.000000 0.000000
vn -1.000000 0.000000 0.000000
vn -1.000000 0.000000 0.000000
s off
f 1/1/1 6/2/2 7/3/3 2/4/4
f 2/4/5 7/3/6 8/5/7 3/6/8
f 3/6/9 8/5/10 9/7/11 4/8/12
f 4/8/13 9/7/14 10/9/15 5/10/16
f 5/10/17 10/9/18 6/11/19 1/12/20
f 11/13/21 16/14/22 17/15/23 12/16/24
f 12/16/25 17/15/26 18/17/27 13/18/28
f 13/18/29 18/17/30 19/19/31 14/20/32
f 14/20/33 19/19/34 20/21/35 15/22/36
f 15/22/37 20/21/38 16/23/39 11/24/40
f 100/25/41 96/26/42 26/27/43 27/28/44
f 99/29/45 100/25/46 27/28/47 28/30/48
f 98/31/49 99/29/50 28/30/51 29/32/52
f 97/33/53 98/31/54 29/32/55 30/34/56
f 96/35/57 97/33/58 30/34/59 26/36/60
f 31/37/61 36/38/62 37/39/63 32/40/64
f 32/40/65 37/39/66 38/41/67 33/42/68
f 33/42/69 38/41/70 39/43/71 34/44/72
f 34/44/73 39/43/74 40/45/75 35/46/76
f 35/46/77 40/45/78 36/47/79 31/48/80
f 41/49/81 46/50/82 47/51/83 42/52/84
f 42/52/85 47/51/86 48/53/87 43/54/88
f 43/54/89 48/53/90 49/55/91 44/56/92
f 44/56/93 49/55/94 50/57/95 45/58/96
f 45/58/97 50/57/98 46/59/99 41/60/100
f 105/61/101 101/62/102 57/63/103 56/64/104
f 101/62/105 102/65/106 58/66/107 57/63/108
f 102/65/109 103/67/110 59/68/111 58/66/112
f 103/67/113 104/69/114 60/70/115 59/68/116
f 104/69/117 105/71/118 56/72/119 60/70/120
f 61/73/121 62/74/122 67/75/123 66/76/124
f 62/74/125 63/77/126 68/78/127 67/75/128
f 63/77/129 64/79/130 69/80/131 68/78/132
f 64/79/133 65/81/134 70/82/135 69/80/136
f 65/81/137 61/83/138 66/84/139 70/82/140
f 95/85/141 91/86/142 77/87/143 76/88/144
f 91/86/145 92/89/146 78/90/147 77/87/148
f 92/89/149 93/91/150 79/92/151 78/90/152
f 93/91/153 94/93/154 80/94/155 79/92/156
f 94/93/157 95/95/158 76/96/159 80/94/160
f 81/97/161 82/98/162 87/99/163 86/100/164
f 82/98/165 83/101/166 88/102/167 87/99/168
f 83/101/169 84/103/170 89/104/171 88/102/172
f 84/103/173 85/105/174 90/106/175 89/104/176
f 85/105/177 81/107/178 86/108/179 90/106/180
f 72/109/181 73/110/182 92/89/183 91/86/184
f 73/110/185 74/111/186 93/91/187 92/89/188
f 74/111/189 75/112/190 94/93/191 93/91/192
f 75/112/193 71/113/194 95/95/195 94/93/196
f 71/114/197 72/109/198 91/86/199 95/85/200
f 25/115/201 97/33/202 96/35/203 21/116/204
f 24/117/205 98/31/206 97/33/207 25/115/208
f 23/118/209 99/29/210 98/31/211 24/117/212
f 22/119/213 100/25/214 99/29/215 23/118/216
f 21/120/217 96/26/218 100/25/219 22/119/220
f 52/121/221 53/122/222 102/65/223 101/62/224
f 53/122/225 54/123/226 103/67/227 102/65/228
f 54/123/229 55/124/230 104/69/231 103/67/232
f 55/124/233 51/125/234 105/71/235 104/69/236
f 51/126/237 52/121/238 101/62/239 105/61/240
f 114/127/241 109/128/242 107/129/243 115/130/244
f 110/131/245 111/132/246 116/133/247 109/128/248
f 112/134/249 113/135/250 111/132/251 110/131/252
f 117/136/253 113/135/254 112/134/255 107/129/256
f 116/133/257 111/132/258 113/135/259 117/136/260
f 106/137/261 108/138/262 114/127/263 115/130/264
f 108/138/265 110/131/266 109/128/267 114/127/268
f 107/129/269 109/128/270 116/133/271 117/136/272
f 112/134/273 106/137/274 115/130/275 107/129/276
f 110/131/277 108/138/278 106/137/279 112/134/280
f 126/139/281 127/140/282 119/141/283 121/142/284
f 122/143/285 121/142/286 128/144/287 123/145/288
f 124/146/289 122/143/290 123/145/291 125/147/292
f 129/148/293 119/141/294 124/146/295 125/147/296
f 128/144/297 129/148/298 125/147/299 123/145/300
f 118/149/301 127/140/302 126/139/303 120/150/304
f 120/150/305 126/139/306 121/142/307 122/143/308
f 119/141/309 129/148/310 128/144/311 121/142/312
f 124/146/313 119/141/314 127/140/315 118/149/316
f 122/143/317 124/146/318 118/149/319 120/150/320
