# This file uses centimeters as units for non-parametric coordinates.

v -219.399017 10.526016 59.081482
v 239.072235 10.526016 59.081482
v -219.399017 20.625977 59.081482
v 239.072235 20.625977 59.081482
v -219.399017 20.625977 27.204651
v 239.072235 20.625977 27.204651
v -219.399017 10.526016 27.204651
v 239.072235 10.526016 27.204651
v -227.366791 10.526016 -21.487610
v 231.104218 10.526016 -21.487610
v -227.366791 20.625977 -21.487610
v 231.104218 20.625977 -21.487610
v -227.366791 20.625977 -53.364563
v 231.104218 20.625977 -53.364563
v -227.366791 10.526016 -53.364563
v 231.104218 10.526016 -53.364563
v -245.803497 20.808136 61.042542
v 212.667511 20.808136 61.042542
v -245.803497 30.908096 61.042542
v 212.667511 30.908096 61.042542
v -245.803497 30.908096 29.165710
v 212.667511 30.908096 29.165710
v -245.803497 20.808136 29.165710
v 212.667511 20.808136 29.165710
v -211.738235 0.000000 -41.874908
v 246.732773 0.000000 -41.874908
v -211.738235 10.099960 -41.874908
v 246.732773 10.099960 -41.874908
v -211.738235 10.099960 -73.751862
v 246.732773 10.099960 -73.751862
v -211.738235 0.000000 -73.751862
v 246.732773 0.000000 -73.751862
v -233.137558 30.908096 -15.221008
v 225.296707 30.908096 -21.026733
v -233.137558 41.008057 -15.221008
v 225.296707 41.008057 -21.026733
v -233.541199 41.008057 -47.095367
v 224.893066 41.008057 -52.901031
v -233.541199 30.908096 -47.095367
v 224.893066 30.908096 -52.901031
v -221.333221 30.914932 61.562622
v 237.115967 30.914932 66.066345
v -221.333221 41.014893 61.562622
v 237.115967 41.014893 66.066345
v -221.020004 41.014893 29.687195
v 237.428940 41.014893 34.191101
v -221.020004 30.914932 29.687195
v 237.428940 30.914932 34.191101
v -227.366791 0.000000 76.597412
v 231.104218 0.000000 76.597412
v -227.366791 10.099960 76.597412
v 231.104218 10.099960 76.597412
v -227.366791 10.099960 44.720520
v 231.104218 10.099960 44.720520
v -227.366791 0.000000 44.720520
v 231.104218 0.000000 44.720520
v -228.914444 40.928513 68.473877
v 229.406830 40.928513 56.757629
v -228.914444 46.992935 68.473877
v 229.406830 51.028473 56.757629
v -229.729019 51.028473 36.607300
v 228.740341 51.028473 30.681396
v -229.729019 40.928513 36.607300
v 228.592255 40.928513 24.891052
v -7.809776 41.462509 61.135742
v -3.613800 50.494492 55.563904
v -7.683502 50.494492 32.617004
v -12.844284 41.462509 32.748901
v -229.066040 51.028473 62.549255
v -209.272141 51.028473 67.971680
v 207.193314 51.028473 25.438110
v 228.592255 46.110306 24.891052
v -23.821152 50.494492 61.545044
v 25.085236 50.494492 60.294922
v -4.355873 47.507141 61.047485
v -227.366791 20.602783 -32.241425
v 231.104218 20.602783 -32.241425
v -227.366791 30.702744 -32.241425
v 231.104218 30.702744 -32.241425
v -227.366791 30.702744 -64.118378
v 231.104218 30.702744 -64.118378
v -227.366791 20.602783 -64.118378
v 231.104218 20.602783 -64.118378
v -248.013077 0.000000 40.745911
v 210.457932 0.000000 40.745911
v -248.013077 10.099960 40.745911
v 210.457932 10.099960 40.745911
v -248.013077 10.099960 8.869080
v 210.457932 10.099960 8.869080
v -248.013077 0.000000 8.869080
v 210.457932 0.000000 8.869080
v -236.757721 0.000000 -2.992798
v 221.650055 0.000000 4.625549
v -236.757721 10.099960 -2.992798
v 221.650055 10.099960 4.625549
v -236.227997 10.099960 -34.865326
v 222.179779 10.099960 -27.246887
v -236.227997 0.000000 -34.865326
v 222.179779 0.000000 -27.246887
v -220.712708 20.808136 8.141113
v 237.587952 20.808136 -4.357849
v -220.712708 30.908096 8.141113
v 237.587952 30.908096 -4.357849
v -221.581680 30.908096 -23.723907
v 236.718979 30.908096 -36.222992
v -221.581680 20.808136 -23.723907
v 236.718979 20.808136 -36.222992
v -227.366791 10.526016 23.041870
v 231.104218 10.526016 23.041870
v -227.366791 20.625977 23.041870
v 231.104218 20.625977 23.041870
v -227.366791 20.625977 -8.835052
v 231.104218 20.625977 -8.835052
v -227.366791 10.526016 -8.835052
v 231.104218 10.526016 -8.835052
vt 0.005596 0.330543
vt 0.004830 0.329597
vt 0.004828 0.329558
vt 0.005598 0.330489
vt 0.004951 0.329543
vt 0.005780 0.330451
vt 0.004953 0.329581
vt 0.005777 0.330505
vt 0.104272 0.206224
vt 0.104072 0.206195
vt 0.104073 0.206135
vt 0.104274 0.206164
vt 0.104730 0.205270
vt 0.104880 0.205286
vt 0.104883 0.205239
vt 0.104733 0.205224
vt 0.005596 0.330543
vt 0.004830 0.329597
vt 0.004828 0.329558
vt 0.005598 0.330489
vt 0.004951 0.329543
vt 0.005780 0.330451
vt 0.004953 0.329581
vt 0.005777 0.330505
vt 0.104272 0.206224
vt 0.104072 0.206195
vt 0.104073 0.206135
vt 0.104274 0.206164
vt 0.104730 0.205270
vt 0.104880 0.205286
vt 0.104883 0.205239
vt 0.104733 0.205224
vt 0.005596 0.330543
vt 0.004830 0.329597
vt 0.004828 0.329558
vt 0.005598 0.330489
vt 0.004951 0.329543
vt 0.005780 0.330451
vt 0.004953 0.329581
vt 0.005777 0.330505
vt 0.104272 0.206224
vt 0.104072 0.206195
vt 0.104073 0.206135
vt 0.104274 0.206164
vt 0.104730 0.205270
vt 0.104880 0.205286
vt 0.104883 0.205239
vt 0.104733 0.205224
vt 0.004930 0.305575
vt 0.004164 0.304629
vt 0.004162 0.304591
vt 0.004932 0.305521
vt 0.004285 0.304575
vt 0.005114 0.305483
vt 0.004287 0.304613
vt 0.005111 0.305537
vt 0.104272 0.206224
vt 0.104072 0.206195
vt 0.104073 0.206135
vt 0.104274 0.206164
vt 0.104730 0.205270
vt 0.104880 0.205286
vt 0.104883 0.205239
vt 0.104733 0.205224
vt 0.005596 0.330543
vt 0.004830 0.329597
vt 0.004828 0.329558
vt 0.005598 0.330489
vt 0.004951 0.329543
vt 0.005780 0.330451
vt 0.004953 0.329581
vt 0.005777 0.330505
vt 0.104272 0.206224
vt 0.104072 0.206195
vt 0.104073 0.206135
vt 0.104274 0.206164
vt 0.104730 0.205270
vt 0.104880 0.205286
vt 0.104883 0.205239
vt 0.104733 0.205224
vt 0.004930 0.305575
vt 0.004164 0.304629
vt 0.004162 0.304591
vt 0.004932 0.305521
vt 0.004285 0.304575
vt 0.005114 0.305483
vt 0.004287 0.304613
vt 0.005111 0.305537
vt 0.104272 0.206224
vt 0.104072 0.206195
vt 0.104073 0.206135
vt 0.104274 0.206164
vt 0.104730 0.205270
vt 0.104880 0.205286
vt 0.104883 0.205239
vt 0.104733 0.205224
vt 0.004930 0.305575
vt 0.004164 0.304629
vt 0.004162 0.304591
vt 0.004932 0.305521
vt 0.004285 0.304575
vt 0.005114 0.305483
vt 0.004287 0.304613
vt 0.005111 0.305537
vt 0.104272 0.206224
vt 0.104072 0.206195
vt 0.104073 0.206135
vt 0.104274 0.206164
vt 0.104730 0.205270
vt 0.104880 0.205286
vt 0.104883 0.205239
vt 0.104733 0.205224
vt 0.005211 0.329261
vt 0.004811 0.328991
vt 0.004804 0.328955
vt 0.004839 0.328962
vt 0.005175 0.329179
vt 0.005211 0.329214
vt 0.005242 0.329196
vt 0.004815 0.328935
vt 0.004953 0.328920
vt 0.005380 0.329171
vt 0.004963 0.328973
vt 0.005379 0.329228
vt 0.103757 0.203914
vt 0.103476 0.203872
vt 0.103476 0.203828
vt 0.103502 0.203790
vt 0.103759 0.203826
vt 0.104280 0.202966
vt 0.104449 0.202979
vt 0.104452 0.202937
vt 0.104421 0.202924
vt 0.104282 0.202914
vt 0.004750 0.328904
vt 0.004382 0.328703
vt 0.004380 0.328665
vt 0.004487 0.328653
vt 0.004539 0.328677
vt 0.004499 0.328671
vt 0.004500 0.328690
vt 0.005596 0.330543
vt 0.004830 0.329597
vt 0.004828 0.329558
vt 0.005598 0.330489
vt 0.004951 0.329543
vt 0.005780 0.330451
vt 0.004953 0.329581
vt 0.005777 0.330505
vt 0.104272 0.206224
vt 0.104072 0.206195
vt 0.104073 0.206135
vt 0.104274 0.206164
vt 0.104730 0.205270
vt 0.104880 0.205286
vt 0.104883 0.205239
vt 0.104733 0.205224
vt 0.005596 0.330543
vt 0.004830 0.329597
vt 0.004828 0.329558
vt 0.005598 0.330489
vt 0.004951 0.329543
vt 0.005780 0.330451
vt 0.004953 0.329581
vt 0.005777 0.330505
vt 0.104272 0.206224
vt 0.104072 0.206195
vt 0.104073 0.206135
vt 0.104274 0.206164
vt 0.104730 0.205270
vt 0.104880 0.205286
vt 0.104883 0.205239
vt 0.104733 0.205224
vt 0.005596 0.330543
vt 0.004830 0.329597
vt 0.004828 0.329558
vt 0.005598 0.330489
vt 0.004951 0.329543
vt 0.005780 0.330451
vt 0.004953 0.329581
vt 0.005777 0.330505
vt 0.104272 0.206224
vt 0.104072 0.206195
vt 0.104073 0.206135
vt 0.104274 0.206164
vt 0.104730 0.205270
vt 0.104880 0.205286
vt 0.104883 0.205239
vt 0.104733 0.205224
vt 0.004930 0.305575
vt 0.004164 0.304629
vt 0.004162 0.304591
vt 0.004932 0.305521
vt 0.004285 0.304575
vt 0.005114 0.305483
vt 0.004287 0.304613
vt 0.005111 0.305537
vt 0.104272 0.206224
vt 0.104072 0.206195
vt 0.104073 0.206135
vt 0.104274 0.206164
vt 0.104730 0.205270
vt 0.104880 0.205286
vt 0.104883 0.205239
vt 0.104733 0.205224
vt 0.004930 0.305575
vt 0.004164 0.304629
vt 0.004162 0.304591
vt 0.004932 0.305521
vt 0.004285 0.304575
vt 0.005114 0.305483
vt 0.004287 0.304613
vt 0.005111 0.305537
vt 0.104272 0.206224
vt 0.104072 0.206195
vt 0.104073 0.206135
vt 0.104274 0.206164
vt 0.104730 0.205270
vt 0.104880 0.205286
vt 0.104883 0.205239
vt 0.104733 0.205224
vn 0.000000 0.000000 1.000000
vn 0.000000 0.000000 1.000000
vn 0.000000 0.000000 1.000000
vn 0.000000 0.000000 1.000000
vn 0.000000 1.000000 0.000000
vn 0.000000 1.000000 0.000000
vn 0.000000 1.000000 0.000000
vn 0.000000 1.000000 0.000000
vn 0.000000 0.000000 -1.000000
vn 0.000000 0.000000 -1.000000
vn 0.000000 0.000000 -1.000000
vn 0.000000 0.000000 -1.000000
vn 0.000000 -1.000000 0.000000
vn 0.000000 -1.000000 0.000000
vn 0.000000 -1.000000 0.000000
vn 0.000000 -1.000000 0.000000
vn 1.000000 0.000000 0.000000
vn 1.000000 0.000000 0.000000
vn 1.000000 0.000000 0.000000
vn 1.000000 0.000000 0.000000
vn -1.000000 0.000000 0.000000
vn -1.000000 0.000000 0.000000
vn -1.000000 0.000000 0.000000
vn -1.000000 0.000000 0.000000
vn 0.000000 0.000000 1.000000
vn 0.000000 0.000000 1.000000
vn 0.000000 0.000000 1.000000
vn 0.000000 0.000000 1.000000
vn 0.000000 1.000000 0.000000
vn 0.000000 1.000000 0.000000
vn 0.000000 1.000000 0.000000
vn 0.000000 1.000000 0.000000
vn 0.000000 0.000000 -1.000000
vn 0.000000 0.000000 -1.000000
vn 0.000000 0.000000 -1.000000
vn 0.000000 0.000000 -1.000000
vn 0.000000 -1.000000 0.000000
vn 0.000000 -1.000000 0.000000
vn 0.000000 -1.000000 0.000000
vn 0.000000 -1.000000 0.000000
vn 1.000000 0.000000 0.000000
vn 1.000000 0.000000 0.000000
vn 1.000000 0.000000 0.000000
vn 1.000000 0.000000 0.000000
vn -1.000000 0.000000 0.000000
vn -1.000000 0.000000 0.000000
vn -1.000000 0.000000 0.000000
vn -1.000000 0.000000 0.000000
vn 0.000000 0.000000 1.000000
vn 0.000000 0.000000 1.000000
vn 0.000000 0.000000 1.000000
vn 0.000000 0.000000 1.000000
vn 0.000000 1.000000 0.000000
vn 0.000000 1.000000 0.000000
vn 0.000000 1.000000 0.000000
vn 0.000000 1.000000 0.000000
vn 0.000000 0.000000 -1.000000
vn 0.000000 0.000000 -1.000000
vn 0.000000 0.000000 -1.000000
vn 0.000000 0.000000 -1.000000
vn 0.000000 -1.000000 0.000000
vn 0.000000 -1.000000 0.000000
vn 0.000000 -1.000000 0.000000
vn 0.000000 -1.000000 0.000000
vn 1.000000 0.000000 0.000000
vn 1.000000 0.000000 0.000000
vn 1.000000 0.000000 0.000000
vn 1.000000 0.000000 0.000000
vn -1.000000 0.000000 0.000000
vn -1.000000 0.000000 0.000000
vn -1.000000 0.000000 0.000000
vn -1.000000 0.000000 0.000000
vn 0.000000 0.000000 1.000000
vn 0.000000 0.000000 1.000000
vn 0.000000 0.000000 1.000000
vn 0.000000 0.000000 1.000000
vn 0.000000 1.000000 0.000000
vn 0.000000 1.000000 0.000000
vn 0.000000 1.000000 0.000000
vn 0.000000 1.000000 0.000000
vn 0.000000 0.000000 -1.000000
vn 0.000000 0.000000 -1.000000
vn 0.000000 0.000000 -1.000000
vn 0.000000 0.000000 -1.000000
vn 0.000000 -1.000000 0.000000
vn 0.000000 -1.000000 0.000000
vn 0.000000 -1.000000 0.000000
vn 0.000000 -1.000000 0.000000
vn 1.000000 0.000000 0.000000
vn 1.000000 0.000000 0.000000
vn 1.000000 0.000000 0.000000
vn 1.000000 0.000000 0.000000
vn -1.000000 0.000000 0.000000
vn -1.000000 0.000000 0.000000
vn -1.000000 0.000000 0.000000
vn -1.000000 0.000000 0.000000
vn 0.012663 0.000000 0.999920
vn 0.012663 0.000000 0.999920
vn 0.012663 0.000000 0.999920
vn 0.012663 0.000000 0.999920
vn 0.000000 1.000000 0.000000
vn 0.000000 1.000000 0.000000
vn 0.000000 1.000000 0.000000
vn 0.000000 1.000000 0.000000
vn -0.012663 0.000000 -0.999920
vn -0.012663 0.000000 -0.999920
vn -0.012663 0.000000 -0.999920
vn -0.012663 0.000000 -0.999920
vn 0.000000 -1.000000 0.000000
vn 0.000000 -1.000000 0.000000
vn 0.000000 -1.000000 0.000000
vn 0.000000 -1.000000 0.000000
vn 0.999920 0.000000 -0.012663
vn 0.999920 0.000000 -0.012663
vn 0.999920 0.000000 -0.012663
vn 0.999920 0.000000 -0.012663
vn -0.999920 0.000000 0.012662
vn -0.999920 0.000000 0.012662
vn -0.999920 0.000000 0.012662
vn -0.999920 0.000000 0.012662
vn -0.009823 0.000000 0.999952
vn -0.009823 0.000000 0.999952
vn -0.009823 0.000000 0.999952
vn -0.009823 0.000000 0.999952
vn 0.000000 1.000000 0.000000
vn 0.000000 1.000000 0.000000
vn 0.000000 1.000000 0.000000
vn 0.000000 1.000000 0.000000
vn 0.009824 0.000000 -0.999952
vn 0.009824 0.000000 -0.999952
vn 0.009824 0.000000 -0.999952
vn 0.009824 0.000000 -0.999952
vn 0.000000 -1.000000 0.000000
vn 0.000000 -1.000000 0.000000
vn 0.000000 -1.000000 0.000000
vn 0.000000 -1.000000 0.000000
vn 0.999952 0.000000 0.009818
vn 0.999952 0.000000 0.009818
vn 0.999952 0.000000 0.009818
vn 0.999952 0.000000 0.009818
vn -0.999952 0.000000 -0.009826
vn -0.999952 0.000000 -0.009826
vn -0.999952 0.000000 -0.009826
vn -0.999952 0.000000 -0.009826
vn 0.000000 0.000000 1.000000
vn 0.000000 0.000000 1.000000
vn 0.000000 0.000000 1.000000
vn 0.000000 0.000000 1.000000
vn 0.000000 1.000000 0.000000
vn 0.000000 1.000000 0.000000
vn 0.000000 1.000000 0.000000
vn 0.000000 1.000000 0.000000
vn 0.000000 0.000000 -1.000000
vn 0.000000 0.000000 -1.000000
vn 0.000000 0.000000 -1.000000
vn 0.000000 0.000000 -1.000000
vn 0.000000 -1.000000 0.000000
vn 0.000000 -1.000000 0.000000
vn 0.000000 -1.000000 0.000000
vn 0.000000 -1.000000 0.000000
vn 1.000000 0.000000 0.000000
vn 1.000000 0.000000 0.000000
vn 1.000000 0.000000 0.000000
vn 1.000000 0.000000 0.000000
vn -1.000000 0.000000 0.000000
vn -1.000000 0.000000 0.000000
vn -1.000000 0.000000 0.000000
vn -1.000000 0.000000 0.000000
vn 0.033343 -0.001475 0.999443
vn 0.033343 -0.001475 0.999443
vn 0.033343 -0.001475 0.999443
vn 0.033343 -0.001475 0.999443
vn 0.033343 -0.001475 0.999443
vn 0.033343 -0.001475 0.999443
vn 0.002420 0.999997 -0.000173
vn 0.002420 0.999997 -0.000173
vn 0.002420 0.999997 -0.000173
vn 0.002420 0.999997 -0.000173
vn 0.002420 0.999997 -0.000173
vn 0.002420 0.999997 -0.000173
vn -0.017879 -0.002070 -0.999838
vn -0.017879 -0.002070 -0.999838
vn -0.017879 -0.002070 -0.999838
vn -0.017879 -0.002070 -0.999838
vn 0.002432 -0.999997 -0.000236
vn 0.002432 -0.999997 -0.000236
vn 0.002432 -0.999997 -0.000236
vn 0.002432 -0.999997 -0.000236
vn 0.999673 -0.000003 -0.025553
vn 0.999673 -0.000003 -0.025553
vn 0.999673 -0.000003 -0.025553
vn 0.999673 -0.000003 -0.025553
vn 0.999673 -0.000003 -0.025553
vn -0.999674 -0.000008 0.025553
vn -0.999674 -0.000008 0.025553
vn -0.999674 -0.000008 0.025553
vn -0.999674 -0.000008 0.025553
vn -0.999674 -0.000008 0.025553
vn 0.018214 0.012621 0.999755
vn 0.018214 0.012621 0.999754
vn 0.018214 0.012621 0.999754
vn 0.018214 0.012621 0.999754
vn 0.018214 0.012621 0.999754
vn -0.002273 0.999995 0.002119
vn -0.002273 0.999995 0.002119
vn -0.002273 0.999995 0.002119
vn -0.002273 0.999995 0.002119
vn -0.002273 0.999995 0.002119
vn -0.002273 0.999995 0.002119
vn -0.032751 -0.006110 -0.999445
vn -0.032751 -0.006110 -0.999445
vn -0.032751 -0.006110 -0.999445
vn -0.032751 -0.006110 -0.999445
vn -0.032751 -0.006110 -0.999445
vn -0.002226 -0.999998 0.000216
vn -0.002226 -0.999997 0.000216
vn -0.002226 -0.999997 0.000216
vn -0.002226 -0.999998 0.000216
vn -0.153133 0.814910 0.558993
vn -0.153133 0.814910 0.558993
vn -0.153133 0.814910 0.558993
vn 0.156163 0.750849 -0.641747
vn 0.156163 0.750849 -0.641747
vn 0.156163 0.750849 -0.641747
vn -0.077294 0.879874 0.468879
vn -0.077294 0.879874 0.468879
vn -0.077294 0.879874 0.468879
vn 0.144556 0.860572 0.488385
vn 0.144556 0.860572 0.488385
vn 0.144556 0.860572 0.488385
vn 0.000000 0.000000 1.000000
vn 0.000000 0.000000 1.000000
vn 0.000000 0.000000 1.000000
vn 0.000000 0.000000 1.000000
vn 0.000000 1.000000 0.000000
vn 0.000000 1.000000 0.000000
vn 0.000000 1.000000 0.000000
vn 0.000000 1.000000 0.000000
vn 0.000000 0.000000 -1.000000
vn 0.000000 0.000000 -1.000000
vn 0.000000 0.000000 -1.000000
vn 0.000000 0.000000 -1.000000
vn 0.000000 -1.000000 0.000000
vn 0.000000 -1.000000 0.000000
vn 0.000000 -1.000000 0.000000
vn 0.000000 -1.000000 0.000000
vn 1.000000 0.000000 0.000000
vn 1.000000 0.000000 0.000000
vn 1.000000 0.000000 0.000000
vn 1.000000 0.000000 0.000000
vn -1.000000 0.000000 0.000000
vn -1.000000 0.000000 0.000000
vn -1.000000 0.000000 0.000000
vn -1.000000 0.000000 0.000000
vn 0.000000 0.000000 1.000000
vn 0.000000 0.000000 1.000000
vn 0.000000 0.000000 1.000000
vn 0.000000 0.000000 1.000000
vn 0.000000 1.000000 0.000000
vn 0.000000 1.000000 0.000000
vn 0.000000 1.000000 0.000000
vn 0.000000 1.000000 0.000000
vn 0.000000 0.000000 -1.000000
vn 0.000000 0.000000 -1.000000
vn 0.000000 0.000000 -1.000000
vn 0.000000 0.000000 -1.000000
vn 0.000000 -1.000000 0.000000
vn 0.000000 -1.000000 0.000000
vn 0.000000 -1.000000 0.000000
vn 0.000000 -1.000000 0.000000
vn 1.000000 0.000000 0.000000
vn 1.000000 0.000000 0.000000
vn 1.000000 0.000000 0.000000
vn 1.000000 0.000000 0.000000
vn -1.000000 0.000000 0.000000
vn -1.000000 0.000000 0.000000
vn -1.000000 0.000000 0.000000
vn -1.000000 0.000000 0.000000
vn -0.016617 0.000000 0.999862
vn -0.016617 0.000000 0.999862
vn -0.016617 0.000000 0.999862
vn -0.016617 0.000000 0.999862
vn 0.000000 1.000000 0.000000
vn 0.000000 1.000000 0.000000
vn 0.000000 1.000000 0.000000
vn 0.000000 1.000000 0.000000
vn 0.016617 0.000000 -0.999862
vn 0.016617 0.000000 -0.999862
vn 0.016617 0.000000 -0.999862
vn 0.016617 0.000000 -0.999862
vn 0.000000 -1.000000 0.000000
vn 0.000000 -1.000000 0.000000
vn 0.000000 -1.000000 0.000000
vn 0.000000 -1.000000 0.000000
vn 0.999862 0.000000 0.016618
vn 0.999862 0.000000 0.016618
vn 0.999862 0.000000 0.016618
vn 0.999862 0.000000 0.016618
vn -0.999862 0.000000 -0.016618
vn -0.999862 0.000000 -0.016618
vn -0.999862 0.000000 -0.016618
vn -0.999862 0.000000 -0.016618
vn 0.027262 0.000000 0.999628
vn 0.027262 0.000000 0.999628
vn 0.027262 0.000000 0.999628
vn 0.027262 0.000000 0.999628
vn 0.000000 1.000000 0.000000
vn 0.000000 1.000000 0.000000
vn 0.000000 1.000000 0.000000
vn 0.000000 1.000000 0.000000
vn -0.027263 0.000000 -0.999628
vn -0.027263 0.000000 -0.999628
vn -0.027263 0.000000 -0.999628
vn -0.027263 0.000000 -0.999628
vn 0.000000 -1.000000 -0.000000
vn 0.000000 -1.000000 -0.000000
vn 0.000000 -1.000000 -0.000000
vn 0.000000 -1.000000 -0.000000
vn 0.999628 0.000000 -0.027260
vn 0.999628 0.000000 -0.027260
vn 0.999628 0.000000 -0.027260
vn 0.999628 0.000000 -0.027260
vn -0.999628 0.000000 0.027260
vn -0.999628 0.000000 0.027260
vn -0.999628 0.000000 0.027260
vn -0.999628 0.000000 0.027260
vn 0.000000 0.000000 1.000000
vn 0.000000 0.000000 1.000000
vn 0.000000 0.000000 1.000000
vn 0.000000 0.000000 1.000000
vn 0.000000 1.000000 0.000000
vn 0.000000 1.000000 0.000000
vn 0.000000 1.000000 0.000000
vn 0.000000 1.000000 0.000000
vn 0.000000 0.000000 -1.000000
vn 0.000000 0.000000 -1.000000
vn 0.000000 0.000000 -1.000000
vn 0.000000 0.000000 -1.000000
vn 0.000000 -1.000000 0.000000
vn 0.000000 -1.000000 0.000000
vn 0.000000 -1.000000 0.000000
vn 0.000000 -1.000000 0.000000
vn 1.000000 0.000000 0.000000
vn 1.000000 0.000000 0.000000
vn 1.000000 0.000000 0.000000
vn 1.000000 0.000000 0.000000
vn -1.000000 0.000000 0.000000
vn -1.000000 0.000000 0.000000
vn -1.000000 0.000000 0.000000
vn -1.000000 0.000000 0.000000
s off
f 1/1/1 2/2/2 4/3/3 3/4/4
f 3/4/5 4/3/6 6/5/7 5/6/8
f 5/6/9 6/5/10 8/7/11 7/8/12
f 7/8/13 8/7/14 2/2/15 1/1/16
f 2/9/17 8/10/18 6/11/19 4/12/20
f 7/13/21 1/14/22 3/15/23 5/16/24
f 9/17/25 10/18/26 12/19/27 11/20/28
f 11/20/29 12/19/30 14/21/31 13/22/32
f 13/22/33 14/21/34 16/23/35 15/24/36
f 15/24/37 16/23/38 10/18/39 9/17/40
f 10/25/41 16/26/42 14/27/43 12/28/44
f 15/29/45 9/30/46 11/31/47 13/32/48
f 17/33/49 18/34/50 20/35/51 19/36/52
f 19/36/53 20/35/54 22/37/55 21/38/56
f 21/38/57 22/37/58 24/39/59 23/40/60
f 23/40/61 24/39/62 18/34/63 17/33/64
f 18/41/65 24/42/66 22/43/67 20/44/68
f 23/45/69 17/46/70 19/47/71 21/48/72
f 25/49/73 26/50/74 28/51/75 27/52/76
f 27/52/77 28/51/78 30/53/79 29/54/80
f 29/54/81 30/53/82 32/55/83 31/56/84
f 31/56/85 32/55/86 26/50/87 25/49/88
f 26/57/89 32/58/90 30/59/91 28/60/92
f 31/61/93 25/62/94 27/63/95 29/64/96
f 33/65/97 34/66/98 36/67/99 35/68/100
f 35/68/101 36/67/102 38/69/103 37/70/104
f 37/70/105 38/69/106 40/71/107 39/72/108
f 39/72/109 40/71/110 34/66/111 33/65/112
f 34/73/113 40/74/114 38/75/115 36/76/116
f 39/77/117 33/78/118 35/79/119 37/80/120
f 41/81/121 42/82/122 44/83/123 43/84/124
f 43/84/125 44/83/126 46/85/127 45/86/128
f 45/86/129 46/85/130 48/87/131 47/88/132
f 47/88/133 48/87/134 42/82/135 41/81/136
f 42/89/137 48/90/138 46/91/139 44/92/140
f 47/93/141 41/94/142 43/95/143 45/96/144
f 49/97/145 50/98/146 52/99/147 51/100/148
f 51/100/149 52/99/150 54/101/151 53/102/152
f 53/102/153 54/101/154 56/103/155 55/104/156
f 55/104/157 56/103/158 50/98/159 49/97/160
f 50/105/161 56/106/162 54/107/163 52/108/164
f 55/109/165 49/110/166 51/111/167 53/112/168
f 57/113/169 65/114/170 75/115/171 73/116/172 70/117/173 59/118/174
f 69/119/175 70/117/176 73/116/177 66/120/178 67/121/179 61/122/180
f 61/122/181 67/121/182 68/123/183 63/124/184
f 63/124/185 68/123/186 65/114/187 57/113/188
f 58/125/189 64/126/190 72/127/191 62/128/192 60/129/193
f 63/130/194 57/131/195 59/132/196 69/133/197 61/134/198
f 74/135/199 75/115/200 65/114/201 58/136/202 60/137/203
f 67/121/204 66/120/205 74/135/206 60/137/207 62/138/208 71/139/209
f 68/123/210 67/121/211 71/139/212 72/140/213 64/141/214
f 65/114/215 68/123/216 64/141/217 58/136/218
f 59/118/219 70/117/220 69/119/221
f 72/140/222 71/139/223 62/138/224
f 66/120/225 75/115/226 74/135/227
f 73/116/228 75/115/229 66/120/230
f 76/142/231 77/143/232 79/144/233 78/145/234
f 78/145/235 79/144/236 81/146/237 80/147/238
f 80/147/239 81/146/240 83/148/241 82/149/242
f 82/149/243 83/148/244 77/143/245 76/142/246
f 77/150/247 83/151/248 81/152/249 79/153/250
f 82/154/251 76/155/252 78/156/253 80/157/254
f 84/158/255 85/159/256 87/160/257 86/161/258
f 86/161/259 87/160/260 89/162/261 88/163/262
f 88/163/263 89/162/264 91/164/265 90/165/266
f 90/165/267 91/164/268 85/159/269 84/158/270
f 85/166/271 91/167/272 89/168/273 87/169/274
f 90/170/275 84/171/276 86/172/277 88/173/278
f 92/174/279 93/175/280 95/176/281 94/177/282
f 94/177/283 95/176/284 97/178/285 96/179/286
f 96/179/287 97/178/288 99/180/289 98/181/290
f 98/181/291 99/180/292 93/175/293 92/174/294
f 93/182/295 99/183/296 97/184/297 95/185/298
f 98/186/299 92/187/300 94/188/301 96/189/302
f 100/190/303 101/191/304 103/192/305 102/193/306
f 102/193/307 103/192/308 105/194/309 104/195/310
f 104/195/311 105/194/312 107/196/313 106/197/314
f 106/197/315 107/196/316 101/191/317 100/190/318
f 101/198/319 107/199/320 105/200/321 103/201/322
f 106/202/323 100/203/324 102/204/325 104/205/326
f 108/206/327 109/207/328 111/208/329 110/209/330
f 110/209/331 111/208/332 113/210/333 112/211/334
f 112/211/335 113/210/336 115/212/337 114/213/338
f 114/213/339 115/212/340 109/207/341 108/206/342
f 109/214/343 115/215/344 113/216/345 111/217/346
f 114/218/347 108/219/348 110/220/349 112/221/350
