# This file uses centimeters as units for non-parametric coordinates.

v -20.984501 -0.000000 18.127340
v 19.704472 -0.000000 18.127340
v -20.984501 6.235299 18.127340
v 19.704472 6.235299 18.127340
v -20.984501 6.235299 -15.281759
v 19.704472 6.235299 -15.281759
v -20.984501 -0.000000 -15.281759
v 19.704472 -0.000000 -15.281759
v -11.367499 6.235299 12.150275
v 10.087469 6.235299 12.150274
v 10.087469 6.235299 -9.304693
v -11.367498 6.235299 -9.304693
v -0.640015 6.235299 16.087868
v 14.025062 6.235299 1.422791
v -0.640015 6.235302 -13.242288
v -15.305091 6.235299 1.422791
v -3.822970 98.894623 1.422791
v -0.640015 98.894623 -1.760165
v -2.968330 98.894623 -0.905525
v -2.968330 98.894623 3.751106
v -0.640015 98.894623 4.605716
v 1.688301 98.894623 3.751106
v 2.542941 98.894623 1.422791
v 1.688301 98.894623 -0.905525
v -12.644163 27.708725 1.422790
v -0.640022 27.708725 13.426907
v 8.141001 27.708725 10.203806
v 11.364120 27.708725 1.422791
v 8.141005 27.708725 -7.358224
v -9.421046 27.708725 -7.358224
v -7.848792 66.406456 1.422791
v -7.909149 44.387939 -5.846332
v -0.640015 44.387939 -8.514491
v 6.629109 44.387939 -5.846334
v 9.297247 44.387939 1.422791
v 4.633225 66.406464 6.695917
v -0.640017 44.387939 11.360077
v -7.909137 44.387939 8.691913
v -5.913224 66.406464 -3.850450
v -0.640021 66.406464 -5.786022
v 6.568798 66.406464 1.422791
v -5.913222 66.406464 6.696000
v -4.497851 82.020912 -2.435082
v -0.640015 82.020912 -3.851102
v 3.217827 82.020912 -2.435082
v 4.633878 82.020912 1.422791
v 3.217827 82.020912 5.280632
v -0.640015 82.020912 6.696683
v -4.497851 82.020912 5.280632
v -17.666618 -0.000000 21.275049
v 16.386589 -0.000000 21.275049
v 16.386589 6.235299 21.275049
v -17.666618 6.235299 21.275049
v -17.666618 6.235299 -18.429468
v 16.386589 6.235299 -18.429468
v 16.386589 -0.000000 -18.429468
v -17.666618 -0.000000 -18.429468
v -10.373778 0.000018 -8.105396
v 9.093749 0.000018 -8.105396
v 9.093749 0.000018 10.950977
v -10.373778 0.000018 10.950977
v -14.214032 0.000018 1.422791
v 12.934003 0.000018 1.422791
v -0.640015 0.000018 14.710156
v -0.640015 0.000018 -11.864575
v -0.640010 74.558014 1.422791
v -2.576179 98.894623 1.422791
v -0.640010 85.863609 1.422791
v -0.640015 98.894623 -0.513404
v -2.056327 98.894623 0.006478
v -2.056327 98.894623 2.839103
v -0.640015 98.894623 3.358954
v 0.776297 98.894623 2.839103
v 1.296149 98.894623 1.422791
v 0.776297 98.894623 0.006478
v -0.640015 67.878632 8.449138
v 6.802785 42.471909 8.865591
v 4.507705 67.791252 -3.724926
v -6.054481 80.886581 1.422791
v -10.795322 42.628544 1.422791
v -9.266211 29.416758 10.048956
v -0.640015 29.248241 -10.390566
vt 0.415141 0.288765
vt 0.415141 0.288765
vt 0.415141 0.288765
vt 0.415141 0.288765
vt 0.415141 0.288765
vt 0.415141 0.288765
vt 0.415141 0.288765
vt 0.415141 0.288765
vt 0.415141 0.288765
vt 0.415141 0.288765
vt 0.415141 0.288765
vt 0.415141 0.288765
vt 0.415141 0.288765
vt 0.415141 0.288765
vt 0.415141 0.288765
vt 0.415141 0.288765
vt 0.415141 0.288765
vt 0.415141 0.288765
vt 0.415141 0.288765
vt 0.415141 0.288765
vt 0.415141 0.288765
vt 0.415141 0.288765
vt 0.408474 0.285244
vt 0.415141 0.288765
vt 0.415141 0.288765
vt 0.415141 0.288765
vt 0.415141 0.288765
vt 0.415141 0.288765
vt 0.415141 0.288765
vt 0.415141 0.288765
vt 0.415141 0.288765
vt 0.415141 0.288765
vt 0.415141 0.288765
vt 0.415141 0.288765
vt 0.415141 0.288765
vt 0.415141 0.288765
vt 0.415141 0.288765
vt 0.415141 0.288765
vt 0.415141 0.288765
vt 0.415141 0.288765
vt 0.415141 0.288765
vt 0.415141 0.288765
vt 0.415141 0.288765
vt 0.415141 0.288765
vt 0.415141 0.288765
vt 0.415141 0.288765
vt 0.415141 0.288765
vt 0.415141 0.288765
vt 0.415141 0.288765
vt 0.415141 0.288765
vt 0.415141 0.288765
vt 0.415141 0.288765
vt 0.415141 0.288765
vt 0.415141 0.288765
vt 0.415141 0.288764
vt 0.101961 0.348712
vt 0.101961 0.348712
vt 0.101961 0.348712
vt 0.101961 0.348712
vt 0.415140 0.288764
vt 0.415141 0.288764
vt 0.101961 0.348712
vt 0.101961 0.348712
vt 0.101961 0.348712
vt 0.101961 0.348712
vt 0.101961 0.348712
vt 0.101961 0.348712
vt 0.101961 0.348712
vt 0.101961 0.348712
vt 0.101961 0.348712
vt 0.101961 0.348712
vt 0.415141 0.288766
vt 0.101961 0.348712
vt 0.101961 0.348712
vt 0.101961 0.348712
vt 0.415140 0.288766
vt 0.101961 0.348712
vt 0.101961 0.348712
vt 0.101961 0.348712
vt 0.101961 0.348712
vt 0.101961 0.348712
vt 0.415140 0.288766
vt 0.101961 0.348712
vt 0.101961 0.348712
vt 0.101961 0.348712
vt 0.415141 0.288765
vt 0.415141 0.288765
vt 0.415141 0.288765
vt 0.415141 0.288765
vt 0.415141 0.288765
vt 0.415141 0.288765
vt 0.415141 0.288765
vt 0.415141 0.288765
vt 0.415141 0.288765
vt 0.415141 0.288765
vt 0.415141 0.288765
vt 0.415141 0.288765
vt 0.415141 0.288765
vt 0.415141 0.288765
vt 0.415141 0.288765
vt 0.409057 0.285840
vt 0.415141 0.288765
vt 0.415141 0.288765
vt 0.415141 0.288765
vt 0.415141 0.288765
vt 0.415141 0.288765
vt 0.415141 0.288765
vt 0.415141 0.288765
vt 0.415141 0.288765
vt 0.415141 0.288765
vt 0.408474 0.285244
vt 0.408474 0.285244
vt 0.408474 0.285244
vt 0.408474 0.285244
vt 0.408474 0.285244
vt 0.408474 0.285244
vt 0.408474 0.285244
vt 0.408474 0.285244
vt 0.409057 0.285840
vt 0.409057 0.285843
vt 0.409057 0.285840
vt 0.409057 0.285840
vt 0.409057 0.285840
vt 0.409057 0.285840
vt 0.409057 0.285840
vt 0.409057 0.285840
vt 0.101961 0.348712
vt 0.101961 0.348712
vt 0.415141 0.288765
vt 0.101961 0.348712
vt 0.101961 0.348712
vt 0.101961 0.348712
vt 0.415141 0.288765
vt 0.101961 0.348712
vt 0.101961 0.348711
vt 0.415141 0.288766
vt 0.415141 0.288766
vt 0.415141 0.288766
vt 0.415140 0.288766
vt 0.415141 0.288766
vt 0.415140 0.288764
vt 0.415141 0.288764
vt 0.415140 0.288764
vt 0.415140 0.288764
vt 0.415141 0.288764
vt 0.415141 0.288764
vt 0.415141 0.288764
vt 0.415140 0.288764
vn 0.000000 0.000000 1.000000
vn 0.000000 0.000000 1.000000
vn 0.000000 0.000000 1.000000
vn 0.000000 0.000000 1.000000
vn 0.929760 0.138145 0.341265
vn 0.929760 0.138145 0.341265
vn 0.929760 0.138145 0.341265
vn 0.000000 0.000000 -1.000000
vn 0.000000 0.000000 -1.000000
vn 0.000000 0.000000 -1.000000
vn 0.000000 0.000000 -1.000000
vn 1.000000 0.000000 0.000000
vn 1.000000 0.000000 0.000000
vn 1.000000 0.000000 0.000000
vn 1.000000 0.000000 0.000000
vn -1.000000 0.000000 0.000000
vn -1.000000 0.000000 0.000000
vn -1.000000 0.000000 0.000000
vn -1.000000 0.000000 0.000000
vn 0.000000 1.000000 0.000000
vn 0.000000 1.000000 0.000000
vn 0.000000 1.000000 0.000000
vn 0.000000 1.000000 0.000000
vn 0.000000 1.000000 0.000000
vn 0.000000 1.000000 0.000000
vn 0.000000 1.000000 0.000000
vn 0.000000 1.000000 0.000000
vn 0.000000 1.000000 0.000000
vn 0.000000 1.000000 0.000000
vn 0.000000 1.000000 0.000000
vn 0.000000 1.000000 0.000000
vn 0.000000 1.000000 0.000000
vn 0.000000 1.000000 0.000000
vn 0.000000 1.000000 0.000000
vn 0.000000 1.000000 0.000000
vn 0.000000 1.000000 0.000000
vn 0.000000 1.000000 0.000000
vn 0.000000 1.000000 0.000000
vn 0.000000 1.000000 0.000000
vn 0.000000 1.000000 0.000000
vn 0.000000 1.000000 0.000000
vn 0.000000 1.000000 0.000000
vn 0.000000 1.000000 0.000000
vn -0.000000 1.000000 0.000000
vn -0.000000 1.000000 0.000000
vn -0.000000 1.000000 0.000000
vn 0.000000 1.000000 -0.000001
vn 0.000000 1.000000 -0.000001
vn 0.000000 1.000000 -0.000001
vn 0.000000 1.000000 -0.000000
vn 0.000000 1.000000 -0.000000
vn 0.000000 1.000000 -0.000000
vn 0.000000 1.000000 0.000000
vn 0.000000 1.000000 0.000000
vn 0.000000 1.000000 0.000000
vn 0.929760 0.138145 -0.341265
vn 0.929760 0.138145 -0.341265
vn 0.929760 0.138145 -0.341265
vn -0.929761 0.138145 -0.341264
vn -0.929761 0.138145 -0.341264
vn -0.929761 0.138145 -0.341264
vn -0.929761 0.138145 0.341264
vn -0.929761 0.138145 0.341264
vn -0.929761 0.138145 0.341264
vn -0.342267 0.115549 -0.932471
vn -0.342267 0.115549 -0.932471
vn -0.342267 0.115549 -0.932471
vn -0.342267 0.115549 -0.932471
vn -0.932471 0.115550 -0.342267
vn -0.932471 0.115550 -0.342267
vn -0.932471 0.115550 -0.342267
vn -0.932471 0.115550 -0.342267
vn -0.342269 0.115548 0.932470
vn -0.342269 0.115548 0.932470
vn -0.342268 0.115548 0.932470
vn -0.342269 0.115548 0.932470
vn -0.932470 0.115549 0.342269
vn -0.932470 0.115549 0.342269
vn -0.932470 0.115549 0.342269
vn -0.932470 0.115549 0.342269
vn 0.342274 0.115552 0.932468
vn 0.342274 0.115552 0.932468
vn 0.342274 0.115552 0.932468
vn 0.342274 0.115552 0.932468
vn 0.932470 0.115550 0.342269
vn 0.932470 0.115550 0.342269
vn 0.932470 0.115550 0.342269
vn 0.932470 0.115550 0.342269
vn 0.932471 0.115550 -0.342266
vn 0.932471 0.115550 -0.342266
vn 0.932471 0.115550 -0.342266
vn 0.932471 0.115550 -0.342266
vn 0.342267 0.115549 -0.932471
vn 0.342267 0.115549 -0.932471
vn 0.342267 0.115549 -0.932471
vn 0.342267 0.115549 -0.932471
vn -0.932470 0.115549 0.342269
vn -0.932470 0.115549 0.342269
vn -0.932470 0.115549 0.342269
vn -0.932470 0.115549 0.342269
vn -0.342269 0.115550 0.932470
vn -0.342269 0.115550 0.932470
vn -0.342269 0.115550 0.932470
vn -0.342269 0.115550 0.932470
vn 0.342268 0.115550 0.932470
vn 0.342268 0.115550 0.932470
vn 0.342268 0.115550 0.932470
vn 0.342268 0.115550 0.932470
vn 0.932470 0.115550 0.342269
vn 0.932470 0.115550 0.342269
vn 0.932470 0.115550 0.342269
vn 0.932470 0.115550 0.342269
vn 0.932470 0.115549 -0.342268
vn 0.932470 0.115549 -0.342269
vn 0.932470 0.115549 -0.342269
vn 0.932470 0.115549 -0.342269
vn 0.342269 0.115550 -0.932470
vn 0.342269 0.115550 -0.932470
vn 0.342269 0.115550 -0.932470
vn 0.342269 0.115550 -0.932470
vn -0.342268 0.115550 -0.932470
vn -0.342268 0.115550 -0.932470
vn -0.342268 0.115550 -0.932470
vn -0.342268 0.115550 -0.932470
vn -0.932470 0.115549 -0.342269
vn -0.932470 0.115549 -0.342269
vn -0.932470 0.115549 -0.342269
vn -0.932470 0.115549 -0.342269
vn -0.932471 0.115551 -0.342267
vn -0.932471 0.115551 -0.342267
vn -0.932471 0.115551 -0.342267
vn -0.932471 0.115551 -0.342267
vn -0.342268 0.115549 -0.932470
vn -0.342268 0.115549 -0.932470
vn -0.342268 0.115549 -0.932470
vn -0.342268 0.115549 -0.932470
vn 0.342267 0.115549 -0.932471
vn 0.342267 0.115549 -0.932471
vn 0.342267 0.115549 -0.932471
vn 0.342267 0.115549 -0.932471
vn 0.932471 0.115549 -0.342266
vn 0.932471 0.115549 -0.342266
vn 0.932471 0.115549 -0.342266
vn 0.932471 0.115549 -0.342266
vn -0.342268 0.115551 0.932470
vn -0.342268 0.115551 0.932470
vn -0.342268 0.115551 0.932470
vn -0.342268 0.115551 0.932470
vn -0.932470 0.115551 0.342268
vn -0.932470 0.115551 0.342268
vn -0.932470 0.115551 0.342268
vn -0.932470 0.115551 0.342268
vn -0.932469 0.115550 -0.342272
vn -0.932469 0.115550 -0.342272
vn -0.932469 0.115550 -0.342272
vn -0.932469 0.115550 -0.342272
vn -0.342268 0.115549 -0.932470
vn -0.342268 0.115549 -0.932470
vn -0.342268 0.115549 -0.932470
vn -0.342268 0.115549 -0.932470
vn 0.342266 0.115550 -0.932471
vn 0.342266 0.115550 -0.932471
vn 0.342266 0.115550 -0.932471
vn 0.342266 0.115550 -0.932471
vn 0.932471 0.115550 -0.342267
vn 0.932471 0.115550 -0.342267
vn 0.932471 0.115550 -0.342267
vn 0.932471 0.115550 -0.342267
vn 0.932469 0.115549 0.342273
vn 0.932469 0.115549 0.342273
vn 0.932469 0.115549 0.342273
vn 0.932469 0.115549 0.342273
vn 0.342276 0.115546 0.932468
vn 0.342276 0.115546 0.932468
vn 0.342276 0.115546 0.932468
vn 0.342276 0.115546 0.932468
vn -0.342270 0.115548 0.932470
vn -0.342270 0.115548 0.932470
vn -0.342270 0.115548 0.932470
vn -0.342270 0.115548 0.932470
vn -0.932468 0.115549 0.342274
vn -0.932468 0.115549 0.342274
vn -0.932468 0.115549 0.342274
vn -0.932468 0.115549 0.342274
vn -0.342268 0.115550 -0.932470
vn -0.342268 0.115550 -0.932470
vn -0.342268 0.115550 -0.932470
vn -0.342268 0.115550 -0.932470
vn 0.342268 0.115550 -0.932470
vn 0.342268 0.115550 -0.932470
vn 0.342268 0.115550 -0.932470
vn 0.342268 0.115550 -0.932470
vn 0.932469 0.115549 -0.342271
vn 0.932469 0.115549 -0.342271
vn 0.932469 0.115549 -0.342271
vn 0.932469 0.115549 -0.342271
vn 0.932469 0.115549 0.342272
vn 0.932469 0.115549 0.342272
vn 0.932469 0.115549 0.342272
vn 0.932469 0.115549 0.342272
vn 0.342268 0.115550 0.932470
vn 0.342268 0.115550 0.932470
vn 0.342268 0.115550 0.932470
vn 0.342268 0.115550 0.932470
vn -0.342268 0.115550 0.932470
vn -0.342268 0.115550 0.932470
vn -0.342268 0.115550 0.932470
vn -0.342268 0.115550 0.932470
vn 0.000000 -1.000000 0.000000
vn 0.000000 -1.000000 0.000000
vn 0.000000 -1.000000 0.000000
vn 0.000000 -1.000000 0.000000
vn 0.688257 0.000000 0.725467
vn 0.688257 0.000000 0.725467
vn 0.688257 0.000000 0.725467
vn 0.688257 0.000000 0.725467
vn 0.000000 1.000000 -0.000000
vn 0.000000 1.000000 -0.000000
vn 0.000000 1.000000 -0.000000
vn 0.000000 1.000000 -0.000000
vn -0.688257 0.000000 0.725467
vn -0.688257 0.000000 0.725467
vn -0.688257 0.000000 0.725467
vn -0.688257 0.000000 0.725467
vn 0.000000 1.000000 0.000000
vn 0.000000 1.000000 0.000000
vn 0.000000 1.000000 0.000000
vn 0.000000 1.000000 0.000000
vn 0.688257 0.000000 -0.725467
vn 0.688257 0.000000 -0.725467
vn 0.688257 0.000000 -0.725467
vn 0.688257 0.000000 -0.725467
vn 0.000000 -1.000000 0.000000
vn 0.000000 -1.000000 0.000000
vn 0.000000 -1.000000 0.000000
vn 0.000000 -1.000000 0.000000
vn -0.688257 0.000000 -0.725467
vn -0.688257 0.000000 -0.725467
vn -0.688257 0.000000 -0.725467
vn -0.688257 0.000000 -0.725467
vn 0.000001 -1.000000 0.000002
vn 0.000001 -1.000000 0.000002
vn 0.000001 -1.000000 0.000002
vn -0.000001 -1.000000 0.000001
vn -0.000001 -1.000000 0.000001
vn -0.000001 -1.000000 0.000001
vn -0.000001 -1.000000 -0.000002
vn -0.000001 -1.000000 -0.000002
vn -0.000001 -1.000000 -0.000002
vn 0.000001 -1.000000 -0.000001
vn 0.000001 -1.000000 -0.000001
vn 0.000001 -1.000000 -0.000001
vn -0.000001 -1.000000 0.000002
vn -0.000001 -1.000000 0.000002
vn -0.000001 -1.000000 0.000002
vn 0.000000 -1.000000 0.000005
vn 0.000000 -1.000000 0.000005
vn 0.000000 -1.000000 0.000005
vn -0.000001 -1.000000 -0.000001
vn -0.000001 -1.000000 -0.000001
vn -0.000001 -1.000000 -0.000001
vn -0.000003 -1.000000 0.000000
vn -0.000003 -1.000000 0.000000
vn -0.000003 -1.000000 0.000000
vn 0.000001 -1.000000 -0.000002
vn 0.000001 -1.000000 -0.000002
vn 0.000001 -1.000000 -0.000002
vn 0.000000 -1.000000 -0.000005
vn 0.000000 -1.000000 -0.000005
vn 0.000000 -1.000000 -0.000005
vn 0.000001 -1.000000 0.000001
vn 0.000001 -1.000000 0.000001
vn 0.000001 -1.000000 0.000001
vn 0.000003 -1.000000 0.000000
vn 0.000003 -1.000000 0.000000
vn 0.000003 -1.000000 0.000000
vn -0.914554 -0.166503 -0.368603
vn -0.914554 -0.166503 -0.368603
vn -0.914554 -0.166503 -0.368603
vn -0.355389 -0.163997 -0.920219
vn -0.355389 -0.163997 -0.920219
vn -0.355389 -0.163997 -0.920219
vn -0.355389 -0.163997 0.920219
vn -0.355389 -0.163997 0.920219
vn -0.355389 -0.163997 0.920219
vn -0.914554 -0.166503 0.368603
vn -0.914554 -0.166503 0.368603
vn -0.914554 -0.166503 0.368603
vn 0.355389 -0.163997 -0.920219
vn 0.355389 -0.163997 -0.920219
vn 0.355389 -0.163997 -0.920219
vn 0.914554 -0.166504 -0.368603
vn 0.914554 -0.166504 -0.368603
vn 0.914554 -0.166504 -0.368603
vn 0.355389 -0.163997 0.920219
vn 0.355389 -0.163997 0.920219
vn 0.355389 -0.163997 0.920219
vn 0.914554 -0.166504 0.368603
vn 0.914554 -0.166504 0.368603
vn 0.914554 -0.166504 0.368603
vn 0.000000 1.000000 0.000007
vn 0.000000 1.000000 0.000007
vn 0.000000 1.000000 0.000007
vn 0.000000 1.000000 0.000007
vn 0.000000 1.000000 0.000000
vn 0.000000 1.000000 0.000000
vn 0.000000 1.000000 0.000000
vn 0.000000 1.000000 0.000000
vn 0.000000 1.000000 -0.000003
vn 0.000000 1.000000 -0.000003
vn 0.000000 1.000000 -0.000003
vn 0.000000 1.000000 -0.000003
vn 0.000000 1.000000 0.000000
vn 0.000000 1.000000 0.000000
vn 0.000000 1.000000 0.000000
vn 0.000000 1.000000 0.000000
vn 0.000000 1.000000 -0.000007
vn 0.000000 1.000000 -0.000007
vn 0.000000 1.000000 -0.000007
vn 0.000000 1.000000 -0.000007
vn 0.000000 1.000000 0.000000
vn 0.000000 1.000000 0.000000
vn 0.000000 1.000000 0.000000
vn 0.000000 1.000000 0.000000
vn 0.000000 1.000000 0.000000
vn 0.000000 1.000000 0.000000
vn 0.000000 1.000000 0.000000
vn 0.000000 1.000000 0.000000
vn 0.000000 1.000000 0.000007
vn 0.000000 1.000000 0.000007
vn 0.000000 1.000000 0.000007
vn 0.000000 1.000000 0.000007
vn 0.341265 0.138145 -0.929760
vn 0.341265 0.138145 -0.929760
vn 0.341265 0.138145 -0.929760
vn 0.341283 0.138146 0.929754
vn 0.341283 0.138146 0.929754
vn 0.341283 0.138146 0.929754
vn -0.341283 0.138146 0.929754
vn -0.341283 0.138146 0.929754
vn -0.341283 0.138146 0.929754
vn -0.341265 0.138145 -0.929760
vn -0.341265 0.138145 -0.929760
vn -0.341265 0.138145 -0.929760
vn 0.342267 0.115549 0.932471
vn 0.342267 0.115549 0.932471
vn 0.342267 0.115549 0.932471
vn 0.342267 0.115549 0.932471
vn 0.932471 0.115550 0.342267
vn 0.932471 0.115550 0.342267
vn 0.932471 0.115550 0.342267
vn 0.932471 0.115550 0.342267
vn -0.932470 0.115548 -0.342269
vn -0.932470 0.115548 -0.342269
vn -0.932470 0.115548 -0.342269
vn -0.932470 0.115548 -0.342269
vn -0.932469 0.115548 0.342271
vn -0.932469 0.115548 0.342271
vn -0.932469 0.115548 0.342271
vn -0.932469 0.115548 0.342271
s off
f 50/86/1 51/87/2 52/88/3 53/89/4
f 67/23/5 68/111/6 70/113/7
f 54/90/8 55/91/9 56/92/10 57/93/11
f 2/2/12 8/11/13 6/12/14 4/4/15
f 7/13/16 1/1/17 3/3/18 5/14/19
f 3/3/20 13/19/21 9/15/22
f 4/4/23 14/20/24 10/16/25
f 6/6/26 15/21/27 11/17/28
f 5/5/29 16/22/30 12/18/31
f 13/19/32 4/4/33 10/16/34
f 3/3/35 4/4/36 13/19/37
f 14/20/38 6/6/39 11/17/40
f 4/4/41 6/6/42 14/20/43
f 15/21/44 5/5/45 12/18/46
f 6/6/47 5/5/48 15/21/49
f 16/22/50 3/3/51 9/15/52
f 5/5/53 3/3/54 16/22/55
f 71/114/56 68/111/57 67/23/58
f 68/111/59 73/116/60 74/117/61
f 75/118/62 68/111/63 74/117/64
f 82/135/65 30/56/66 32/57/67 33/58/68
f 30/56/69 25/59/70 80/132/71 32/57/72
f 81/134/73 26/62/74 37/63/75 38/64/76
f 25/59/77 81/134/78 38/64/79 80/132/80
f 37/55/81 77/60/82 36/138/83 76/136/84
f 36/61/85 77/60/86 35/42/87 41/46/88
f 28/66/89 29/68/90 34/69/91 35/67/92
f 29/68/93 82/135/94 33/58/95 34/69/96
f 25/32/97 16/22/98 9/144/99 81/143/100
f 9/15/101 13/19/102 26/145/103 81/143/104
f 13/19/105 10/16/106 27/34/107 26/33/108
f 10/16/109 14/20/110 28/35/111 27/34/112
f 14/20/113 11/17/114 29/36/115 28/35/116
f 29/36/117 11/17/118 15/147/119 82/146/120
f 15/21/121 12/18/122 30/148/123 82/146/124
f 12/18/125 16/22/126 25/32/127 30/37/128
f 31/38/129 39/44/130 32/142/131 80/141/132
f 33/40/133 32/39/134 39/44/135 40/45/136
f 34/41/137 33/40/138 40/140/139 78/139/140
f 35/42/141 34/41/142 78/129/143 41/46/144
f 42/47/145 38/43/146 37/137/147 76/136/148
f 31/38/149 80/133/150 38/43/151 42/47/152
f 43/72/153 79/76/154 17/26/155 19/25/156
f 40/74/157 39/70/158 43/73/159 44/75/160
f 78/130/161 40/74/162 44/75/163 45/77/164
f 41/78/165 78/130/166 45/77/167 46/79/168
f 36/80/169 41/78/170 46/79/171 47/81/172
f 76/127/173 36/80/174 47/81/175 48/83/176
f 42/84/177 76/127/178 48/83/179 49/85/180
f 17/82/181 79/76/182 49/54/183 20/27/184
f 44/49/185 43/48/186 19/25/187 18/24/188
f 45/50/189 44/49/190 18/24/191 24/31/192
f 46/51/193 45/50/194 24/31/195 23/30/196
f 47/52/197 46/51/198 23/30/199 22/29/200
f 48/53/201 47/52/202 22/29/203 21/28/204
f 49/54/205 48/53/206 21/28/207 20/27/208
f 1/1/209 2/2/210 51/87/211 50/86/212
f 2/2/213 4/4/214 52/88/215 51/87/216
f 4/4/217 3/3/218 53/89/219 52/88/220
f 3/3/221 1/1/222 50/86/223 53/89/224
f 5/5/225 6/6/226 55/91/227 54/90/228
f 6/6/229 8/8/230 56/92/231 55/91/232
f 8/8/233 7/7/234 57/93/235 56/92/236
f 7/7/237 5/5/238 54/90/239 57/93/240
f 7/7/241 65/102/242 58/94/243
f 8/8/244 63/99/245 59/95/246
f 2/10/247 64/100/248 60/96/249
f 1/9/250 62/98/251 61/97/252
f 65/102/253 8/8/254 59/95/255
f 7/7/256 8/8/257 65/102/258
f 63/99/259 2/10/260 60/96/261
f 8/8/262 2/10/263 63/99/264
f 64/100/265 1/9/266 61/97/267
f 2/10/268 1/9/269 64/100/270
f 62/98/271 7/7/272 58/94/273
f 1/9/274 7/7/275 62/98/276
f 63/101/277 60/119/278 66/120/279
f 60/119/280 64/121/281 66/120/282
f 65/122/283 59/123/284 66/120/285
f 59/123/286 63/101/287 66/120/288
f 64/121/289 61/124/290 66/120/291
f 61/124/292 62/125/293 66/120/294
f 58/126/295 65/122/296 66/120/297
f 62/125/298 58/126/299 66/120/300
f 18/24/301 19/25/302 70/104/303 69/103/304
f 19/25/305 17/26/306 67/105/307 70/104/308
f 20/27/309 21/28/310 72/107/311 71/106/312
f 17/26/313 20/27/314 71/106/315 67/105/316
f 21/28/317 22/29/318 73/108/319 72/107/320
f 22/29/321 23/30/322 74/109/323 73/108/324
f 23/30/325 24/31/326 75/110/327 74/109/328
f 24/31/329 18/24/330 69/103/331 75/110/332
f 71/114/333 72/115/334 68/111/335
f 70/113/336 68/111/337 69/112/338
f 69/112/339 68/111/340 75/118/341
f 68/111/342 72/115/343 73/116/344
f 26/62/345 27/65/346 77/128/347 37/63/348
f 27/65/349 28/66/350 35/67/351 77/128/352
f 39/70/353 31/71/354 79/131/355 43/73/356
f 31/71/357 42/84/358 49/85/359 79/131/360
