# This file uses centimeters as units for non-parametric coordinates.

v -12.972351 -0.000000 -13.596771
v -12.972351 -0.000000 16.442352
v -12.972351 3.312096 -13.596771
v -12.972351 3.312096 16.442352
v 11.692322 3.312096 -13.596771
v 11.692322 3.312096 16.442352
v 11.692322 -0.000000 -13.596771
v 11.692322 -0.000000 16.442352
v -8.559723 3.312096 -6.496918
v -8.559723 3.312096 9.342499
v 7.279694 3.312096 9.342499
v 7.279694 3.312096 -6.496918
v -11.466675 3.312096 1.422791
v -0.640015 3.312096 12.249451
v 10.186646 3.312098 1.422791
v -0.640015 3.312096 -9.403870
v -0.640015 52.531326 -0.927063
v 1.709839 52.531326 1.422791
v 1.078888 52.531326 -0.296112
v -2.358917 52.531326 -0.296112
v -2.989868 52.531326 1.422791
v -2.358917 52.531326 3.141693
v -0.640015 52.531326 3.772644
v 1.078888 52.531326 3.141693
v -0.640015 35.274105 -3.899200
v -4.532959 35.274105 5.315796
v 3.253021 35.274105 -2.470245
v 4.681976 35.274105 1.422791
v -0.640015 35.274105 6.744781
v -4.533051 35.274105 -2.470215
v 2.208099 43.568268 -1.425323
v 3.253510 43.568268 1.422791
v 2.208099 43.568268 4.270905
v -0.640015 43.568268 5.316315
v -3.488129 43.568268 4.270905
v -4.533539 43.568268 1.422791
v -3.488129 43.568268 -1.425323
v -15.296173 -0.000000 -11.147308
v -15.296173 -0.000000 13.992889
v -15.296173 3.312096 13.992889
v -15.296173 3.312096 -11.147308
v 14.016144 3.312096 -11.147308
v 14.016144 3.312096 13.992889
v 14.016144 -0.000000 13.992889
v 14.016144 -0.000000 -11.147308
v 6.394287 0.000010 -5.763275
v 6.394287 0.000010 8.608856
v -7.674316 0.000010 8.608856
v -7.674316 0.000010 -5.763275
v -0.640015 0.000010 -8.598389
v -0.640015 0.000010 11.443970
v -10.449585 0.000010 1.422791
v 9.169556 0.000010 1.422791
v -0.640015 39.604088 1.422791
v -0.640015 52.531326 -0.006622
v -0.640015 45.609447 1.422791
v 0.789398 52.531326 1.422791
v 0.405579 52.531326 0.377197
v -1.685608 52.531326 0.377197
v -2.069427 52.531326 1.422791
v -1.685608 52.531326 2.468384
v -0.640015 52.531326 2.852203
v 0.405579 52.531326 2.468384
v -5.827301 36.056099 1.422791
v 3.160339 36.009686 5.223145
v -0.640015 42.965725 -2.574493
vt 0.145962 0.423212
vt 0.145962 0.423212
vt 0.145962 0.423212
vt 0.145962 0.423212
vt 0.145962 0.423212
vt 0.145962 0.423212
vt 0.145962 0.423212
vt 0.145962 0.423212
vt 0.145962 0.423212
vt 0.145962 0.423212
vt 0.145962 0.423212
vt 0.145962 0.423212
vt 0.145962 0.423212
vt 0.145962 0.423212
vt 0.145962 0.423212
vt 0.145962 0.423212
vt 0.145962 0.423212
vt 0.145962 0.423212
vt 0.145962 0.423212
vt 0.145962 0.423212
vt 0.145962 0.423212
vt 0.145962 0.423212
vt 0.145745 0.399627
vt 0.145962 0.423212
vt 0.145962 0.423212
vt 0.145962 0.423212
vt 0.145962 0.423212
vt 0.145962 0.423212
vt 0.145962 0.423212
vt 0.145962 0.423212
vt 0.145962 0.423212
vt 0.145962 0.423212
vt 0.145962 0.423212
vt 0.145962 0.423212
vt 0.145962 0.423212
vt 0.145962 0.423212
vt 0.145962 0.423212
vt 0.145962 0.423212
vt 0.145962 0.423212
vt 0.145962 0.423212
vt 0.145962 0.423212
vt 0.145962 0.423212
vt 0.145962 0.423212
vt 0.145962 0.423211
vt 0.101961 0.348712
vt 0.101961 0.348712
vt 0.145962 0.423213
vt 0.101961 0.348712
vt 0.101961 0.348712
vt 0.101961 0.348712
vt 0.145962 0.423213
vt 0.101961 0.348712
vt 0.101961 0.348712
vt 0.101961 0.348712
vt 0.101961 0.348712
vt 0.101961 0.348712
vt 0.145962 0.423213
vt 0.101961 0.348712
vt 0.101961 0.348712
vt 0.101961 0.348712
vt 0.145962 0.423212
vt 0.145962 0.423212
vt 0.145962 0.423212
vt 0.145962 0.423212
vt 0.145962 0.423212
vt 0.145962 0.423212
vt 0.145962 0.423212
vt 0.145962 0.423212
vt 0.145962 0.423212
vt 0.145962 0.423212
vt 0.145962 0.423212
vt 0.145962 0.423212
vt 0.145962 0.423212
vt 0.145962 0.423212
vt 0.145962 0.423212
vt 0.146327 0.400223
vt 0.145962 0.423212
vt 0.145962 0.423212
vt 0.145962 0.423212
vt 0.145962 0.423212
vt 0.145962 0.423212
vt 0.145962 0.423212
vt 0.145962 0.423212
vt 0.145962 0.423212
vt 0.145962 0.423212
vt 0.145745 0.399627
vt 0.145745 0.399627
vt 0.145745 0.399627
vt 0.145745 0.399627
vt 0.145745 0.399627
vt 0.145745 0.399627
vt 0.145745 0.399627
vt 0.145745 0.399627
vt 0.146327 0.400223
vt 0.146327 0.400226
vt 0.146327 0.400223
vt 0.146327 0.400223
vt 0.146327 0.400223
vt 0.146327 0.400223
vt 0.146327 0.400223
vt 0.146327 0.400223
vt 0.101961 0.348712
vt 0.145962 0.423212
vt 0.101961 0.348712
vt 0.101961 0.348712
vt 0.145962 0.423213
vt 0.145962 0.423213
vt 0.145962 0.423213
vt 0.145962 0.423213
vt 0.145962 0.423211
vt 0.145962 0.423211
vn -1.000000 0.000000 0.000000
vn -1.000000 0.000000 0.000000
vn -1.000000 0.000000 0.000000
vn -1.000000 0.000000 0.000000
vn -0.338301 0.190315 0.921592
vn -0.338301 0.190315 0.921592
vn -0.338301 0.190315 0.921592
vn 1.000000 0.000000 0.000000
vn 1.000000 0.000000 0.000000
vn 1.000000 0.000000 0.000000
vn 1.000000 0.000000 0.000000
vn 0.000000 0.000000 1.000000
vn 0.000000 0.000000 1.000000
vn 0.000000 0.000000 1.000000
vn 0.000000 0.000000 1.000000
vn 0.000000 0.000000 -1.000000
vn 0.000000 0.000000 -1.000000
vn 0.000000 0.000000 -1.000000
vn 0.000000 0.000000 -1.000000
vn 0.000000 1.000000 0.000000
vn 0.000000 1.000000 0.000000
vn 0.000000 1.000000 0.000000
vn 0.000000 1.000000 0.000000
vn 0.000000 1.000000 0.000000
vn 0.000000 1.000000 0.000000
vn -0.000000 1.000000 0.000000
vn -0.000000 1.000000 0.000000
vn -0.000000 1.000000 0.000000
vn 0.000000 1.000000 0.000000
vn 0.000000 1.000000 0.000000
vn 0.000000 1.000000 0.000000
vn 0.000000 1.000000 0.000000
vn 0.000000 1.000000 0.000000
vn 0.000000 1.000000 0.000000
vn 0.000000 1.000000 0.000000
vn 0.000000 1.000000 0.000000
vn 0.000000 1.000000 0.000000
vn 0.000000 1.000000 0.000000
vn 0.000000 1.000000 0.000000
vn 0.000000 1.000000 0.000000
vn 0.000000 1.000000 0.000000
vn 0.000000 1.000000 0.000000
vn 0.000000 1.000000 0.000000
vn -0.000000 1.000000 -0.000000
vn -0.000000 1.000000 -0.000000
vn -0.000000 1.000000 -0.000000
vn 0.000001 1.000000 0.000000
vn 0.000001 1.000000 0.000000
vn 0.000001 1.000000 0.000000
vn 0.000000 1.000000 0.000000
vn 0.000000 1.000000 0.000000
vn 0.000000 1.000000 0.000000
vn 0.000000 1.000000 0.000000
vn 0.000000 1.000000 0.000000
vn 0.000000 1.000000 0.000000
vn 0.338301 0.190315 0.921592
vn 0.338301 0.190315 0.921592
vn 0.338301 0.190315 0.921592
vn 0.338301 0.190315 -0.921592
vn 0.338301 0.190315 -0.921592
vn 0.338301 0.190315 -0.921592
vn -0.338301 0.190315 -0.921592
vn -0.338301 0.190315 -0.921592
vn -0.338301 0.190315 -0.921592
vn 0.926725 0.159606 -0.340158
vn 0.926725 0.159606 -0.340158
vn 0.926725 0.159606 -0.340158
vn 0.926725 0.159606 -0.340158
vn 0.340157 0.159606 -0.926725
vn 0.340157 0.159606 -0.926725
vn 0.340157 0.159606 -0.926725
vn 0.340157 0.159606 -0.926725
vn -0.926725 0.159606 -0.340156
vn -0.926725 0.159606 -0.340156
vn -0.926725 0.159606 -0.340156
vn -0.926725 0.159606 -0.340156
vn -0.340160 0.159606 -0.926724
vn -0.340160 0.159606 -0.926724
vn -0.340160 0.159606 -0.926724
vn -0.340160 0.159606 -0.926724
vn 0.340158 0.159606 0.926724
vn 0.340158 0.159606 0.926724
vn 0.340158 0.159606 0.926724
vn 0.340158 0.159606 0.926724
vn 0.926724 0.159606 0.340159
vn 0.926724 0.159606 0.340159
vn 0.926724 0.159606 0.340159
vn 0.926724 0.159606 0.340159
vn -0.926723 0.159607 0.340163
vn -0.926723 0.159607 0.340163
vn -0.926723 0.159607 0.340163
vn -0.926723 0.159607 0.340163
vn -0.340162 0.159607 0.926723
vn -0.340162 0.159607 0.926723
vn -0.340162 0.159607 0.926723
vn -0.340162 0.159607 0.926723
vn 0.340159 0.159606 -0.926724
vn 0.340159 0.159606 -0.926724
vn 0.340159 0.159606 -0.926724
vn 0.340159 0.159606 -0.926724
vn 0.926725 0.159606 -0.340158
vn 0.926725 0.159606 -0.340158
vn 0.926725 0.159606 -0.340158
vn 0.926725 0.159606 -0.340158
vn 0.926724 0.159605 0.340160
vn 0.926724 0.159605 0.340160
vn 0.926724 0.159605 0.340160
vn 0.926724 0.159605 0.340160
vn 0.340160 0.159605 0.926724
vn 0.340160 0.159605 0.926724
vn 0.340160 0.159605 0.926724
vn 0.340160 0.159605 0.926724
vn -0.340166 0.159602 0.926722
vn -0.340166 0.159602 0.926722
vn -0.340166 0.159602 0.926722
vn -0.340166 0.159602 0.926722
vn -0.926723 0.159598 0.340167
vn -0.926723 0.159598 0.340167
vn -0.926723 0.159598 0.340167
vn -0.926723 0.159598 0.340167
vn -0.926726 0.159603 -0.340156
vn -0.926726 0.159603 -0.340156
vn -0.926726 0.159603 -0.340156
vn -0.926726 0.159603 -0.340156
vn -0.340159 0.159606 -0.926724
vn -0.340159 0.159606 -0.926724
vn -0.340159 0.159606 -0.926724
vn -0.340159 0.159606 -0.926724
vn 0.926723 0.159607 -0.340162
vn 0.926723 0.159607 -0.340162
vn 0.926723 0.159607 -0.340162
vn 0.926723 0.159607 -0.340162
vn 0.926723 0.159607 0.340161
vn 0.926723 0.159607 0.340161
vn 0.926723 0.159607 0.340161
vn 0.926723 0.159607 0.340161
vn 0.340161 0.159607 0.926723
vn 0.340161 0.159607 0.926723
vn 0.340161 0.159607 0.926723
vn 0.340161 0.159607 0.926723
vn -0.340161 0.159607 0.926723
vn -0.340161 0.159607 0.926723
vn -0.340161 0.159607 0.926723
vn -0.340161 0.159607 0.926723
vn -0.926723 0.159607 0.340162
vn -0.926723 0.159607 0.340162
vn -0.926723 0.159607 0.340162
vn -0.926723 0.159607 0.340162
vn -0.926723 0.159607 -0.340161
vn -0.926723 0.159607 -0.340161
vn -0.926723 0.159607 -0.340161
vn -0.926723 0.159607 -0.340161
vn 0.000000 -1.000000 0.000000
vn 0.000000 -1.000000 0.000000
vn 0.000000 -1.000000 0.000000
vn 0.000000 -1.000000 0.000000
vn -0.725468 0.000000 0.688256
vn -0.725468 0.000000 0.688256
vn -0.725468 0.000000 0.688256
vn -0.725468 0.000000 0.688256
vn 0.000000 1.000000 0.000000
vn 0.000000 1.000000 0.000000
vn 0.000000 1.000000 0.000000
vn 0.000000 1.000000 0.000000
vn -0.725468 0.000000 -0.688256
vn -0.725468 0.000000 -0.688256
vn -0.725468 0.000000 -0.688256
vn -0.725468 0.000000 -0.688256
vn 0.000000 1.000000 0.000000
vn 0.000000 1.000000 0.000000
vn 0.000000 1.000000 0.000000
vn 0.000000 1.000000 0.000000
vn 0.725468 0.000000 0.688256
vn 0.725468 0.000000 0.688256
vn 0.725468 0.000000 0.688256
vn 0.725468 0.000000 0.688256
vn 0.000000 -1.000000 0.000000
vn 0.000000 -1.000000 0.000000
vn 0.000000 -1.000000 0.000000
vn 0.000000 -1.000000 0.000000
vn 0.725468 0.000000 -0.688256
vn 0.725468 0.000000 -0.688256
vn 0.725468 0.000000 -0.688256
vn 0.725468 0.000000 -0.688256
vn -0.000001 -1.000000 0.000000
vn -0.000001 -1.000000 0.000000
vn -0.000001 -1.000000 0.000000
vn -0.000000 -1.000000 -0.000001
vn -0.000000 -1.000000 -0.000001
vn -0.000000 -1.000000 -0.000001
vn 0.000001 -1.000000 -0.000000
vn 0.000001 -1.000000 -0.000000
vn 0.000001 -1.000000 -0.000000
vn 0.000000 -1.000000 0.000001
vn 0.000000 -1.000000 0.000001
vn 0.000000 -1.000000 0.000001
vn -0.000001 -1.000000 -0.000000
vn -0.000001 -1.000000 -0.000000
vn -0.000001 -1.000000 -0.000000
vn -0.000004 -1.000000 0.000000
vn -0.000004 -1.000000 0.000000
vn -0.000004 -1.000000 0.000000
vn 0.000000 -1.000000 -0.000001
vn 0.000000 -1.000000 -0.000001
vn 0.000000 -1.000000 -0.000001
vn 0.000000 -1.000000 -0.000002
vn 0.000000 -1.000000 -0.000002
vn 0.000000 -1.000000 -0.000002
vn 0.000001 -1.000000 0.000000
vn 0.000001 -1.000000 0.000000
vn 0.000001 -1.000000 0.000000
vn 0.000004 -1.000000 0.000000
vn 0.000004 -1.000000 0.000000
vn 0.000004 -1.000000 0.000000
vn -0.000000 -1.000000 0.000001
vn -0.000000 -1.000000 0.000001
vn -0.000000 -1.000000 0.000001
vn 0.000000 -1.000000 0.000002
vn 0.000000 -1.000000 0.000002
vn 0.000000 -1.000000 0.000002
vn 0.363933 -0.228481 -0.902967
vn 0.363933 -0.228481 -0.902967
vn 0.363933 -0.228481 -0.902967
vn 0.908902 -0.225127 -0.351019
vn 0.908902 -0.225127 -0.351019
vn 0.908902 -0.225127 -0.351019
vn -0.908902 -0.225127 -0.351019
vn -0.908902 -0.225127 -0.351019
vn -0.908902 -0.225127 -0.351019
vn -0.363933 -0.228481 -0.902967
vn -0.363933 -0.228481 -0.902967
vn -0.363933 -0.228481 -0.902967
vn 0.908902 -0.225127 0.351019
vn 0.908902 -0.225127 0.351019
vn 0.908902 -0.225127 0.351019
vn 0.363933 -0.228481 0.902967
vn 0.363933 -0.228481 0.902967
vn 0.363933 -0.228481 0.902967
vn -0.908902 -0.225127 0.351019
vn -0.908902 -0.225127 0.351019
vn -0.908902 -0.225127 0.351019
vn -0.363933 -0.228481 0.902967
vn -0.363933 -0.228481 0.902967
vn -0.363933 -0.228481 0.902967
vn 0.000000 1.000000 -0.000003
vn 0.000000 1.000000 -0.000003
vn 0.000000 1.000000 -0.000003
vn 0.000000 1.000000 -0.000003
vn 0.000000 1.000000 0.000003
vn 0.000000 1.000000 0.000003
vn 0.000000 1.000000 0.000003
vn 0.000000 1.000000 0.000003
vn 0.000000 1.000000 -0.000003
vn 0.000000 1.000000 -0.000003
vn 0.000000 1.000000 -0.000003
vn 0.000000 1.000000 -0.000003
vn 0.000000 1.000000 0.000003
vn 0.000000 1.000000 0.000003
vn 0.000000 1.000000 0.000003
vn 0.000000 1.000000 0.000003
vn 0.000000 1.000000 0.000003
vn 0.000000 1.000000 0.000003
vn 0.000000 1.000000 0.000003
vn 0.000000 1.000000 0.000003
vn 0.000000 1.000000 -0.000003
vn 0.000000 1.000000 -0.000003
vn 0.000000 1.000000 -0.000003
vn 0.000000 1.000000 -0.000003
vn 0.000000 1.000000 -0.000003
vn 0.000000 1.000000 -0.000003
vn 0.000000 1.000000 -0.000003
vn 0.000000 1.000000 -0.000003
vn 0.000000 1.000000 0.000003
vn 0.000000 1.000000 0.000003
vn 0.000000 1.000000 0.000003
vn 0.000000 1.000000 0.000003
vn 0.921593 0.190315 0.338300
vn 0.921593 0.190315 0.338300
vn 0.921593 0.190315 0.338300
vn -0.921593 0.190315 0.338300
vn -0.921593 0.190315 0.338300
vn -0.921593 0.190315 0.338300
vn -0.921593 0.190315 -0.338300
vn -0.921593 0.190315 -0.338300
vn -0.921593 0.190315 -0.338300
vn 0.921593 0.190315 -0.338300
vn 0.921593 0.190315 -0.338300
vn 0.921593 0.190315 -0.338300
vn 0.340156 0.159606 -0.926725
vn 0.340156 0.159606 -0.926725
vn 0.340156 0.159606 -0.926725
vn 0.340156 0.159606 -0.926725
vn -0.340160 0.159605 -0.926724
vn -0.340160 0.159605 -0.926724
vn -0.340160 0.159605 -0.926724
vn -0.340160 0.159605 -0.926724
s off
f 38/61/1 39/62/2 40/63/3 41/64/4
f 55/23/5 56/86/6 58/88/7
f 42/65/8 43/66/9 44/67/10 45/68/11
f 2/2/12 8/11/13 6/12/14 4/4/15
f 7/13/16 1/1/17 3/3/18 5/14/19
f 3/3/20 13/19/21 9/15/22
f 4/4/23 14/20/24 10/16/25
f 6/6/26 15/21/27 11/17/28
f 5/5/29 16/22/30 12/18/31
f 13/19/32 4/4/33 10/16/34
f 3/3/35 4/4/36 13/19/37
f 14/20/38 6/6/39 11/17/40
f 4/4/41 6/6/42 14/20/43
f 15/21/44 5/5/45 12/18/46
f 6/6/47 5/5/48 15/21/49
f 16/22/50 3/3/51 9/15/52
f 5/5/53 3/3/54 16/22/55
f 59/89/56 56/86/57 55/23/58
f 56/86/59 61/91/60 62/92/61
f 63/93/62 56/86/63 62/92/64
f 15/21/65 12/18/66 27/33/67 28/34/68
f 12/18/69 16/22/70 25/32/71 27/33/72
f 9/15/73 13/19/74 64/106/75 30/36/76
f 16/22/77 9/110/78 30/36/79 25/32/80
f 14/20/81 11/17/82 65/103/83 29/35/84
f 11/17/85 15/111/86 28/109/87 65/108/88
f 64/106/89 13/19/90 10/16/91 26/107/92
f 10/16/93 14/20/94 29/35/95 26/44/96
f 31/47/97 66/51/98 17/26/99 19/25/100
f 28/49/101 27/45/102 31/48/103 32/50/104
f 65/104/105 28/49/106 32/50/107 33/52/108
f 29/53/109 65/104/110 33/52/111 34/54/112
f 26/55/113 29/53/114 34/54/115 35/56/116
f 64/102/117 26/55/118 35/56/119 36/58/120
f 30/59/121 64/102/122 36/58/123 37/60/124
f 17/57/125 66/51/126 37/43/127 20/27/128
f 32/38/129 31/37/130 19/25/131 18/24/132
f 33/39/133 32/38/134 18/24/135 24/31/136
f 34/40/137 33/39/138 24/31/139 23/30/140
f 35/41/141 34/40/142 23/30/143 22/29/144
f 36/42/145 35/41/146 22/29/147 21/28/148
f 37/43/149 36/42/150 21/28/151 20/27/152
f 1/1/153 2/2/154 39/62/155 38/61/156
f 2/2/157 4/4/158 40/63/159 39/62/160
f 4/4/161 3/3/162 41/64/163 40/63/164
f 3/3/165 1/1/166 38/61/167 41/64/168
f 5/5/169 6/6/170 43/66/171 42/65/172
f 6/6/173 8/8/174 44/67/175 43/66/176
f 8/8/177 7/7/178 45/68/179 44/67/180
f 7/7/181 5/5/182 42/65/183 45/68/184
f 7/7/185 53/77/186 46/69/187
f 8/8/188 51/74/189 47/70/190
f 2/10/191 52/75/192 48/71/193
f 1/9/194 50/73/195 49/72/196
f 53/77/197 8/8/198 47/70/199
f 7/7/200 8/8/201 53/77/202
f 51/74/203 2/10/204 48/71/205
f 8/8/206 2/10/207 51/74/208
f 52/75/209 1/9/210 49/72/211
f 2/10/212 1/9/213 52/75/214
f 50/73/215 7/7/216 46/69/217
f 1/9/218 7/7/219 50/73/220
f 51/76/221 48/94/222 54/95/223
f 48/94/224 52/96/225 54/95/226
f 53/97/227 47/98/228 54/95/229
f 47/98/230 51/76/231 54/95/232
f 52/96/233 49/99/234 54/95/235
f 49/99/236 50/100/237 54/95/238
f 46/101/239 53/97/240 54/95/241
f 50/100/242 46/101/243 54/95/244
f 18/24/245 19/25/246 58/79/247 57/78/248
f 19/25/249 17/26/250 55/80/251 58/79/252
f 20/27/253 21/28/254 60/82/255 59/81/256
f 17/26/257 20/27/258 59/81/259 55/80/260
f 21/28/261 22/29/262 61/83/263 60/82/264
f 22/29/265 23/30/266 62/84/267 61/83/268
f 23/30/269 24/31/270 63/85/271 62/84/272
f 24/31/273 18/24/274 57/78/275 63/85/276
f 59/89/277 60/90/278 56/86/279
f 58/88/280 56/86/281 57/87/282
f 57/87/283 56/86/284 63/93/285
f 56/86/286 60/90/287 61/91/288
f 27/45/289 25/46/290 66/105/291 31/48/292
f 25/46/293 30/59/294 37/60/295 66/105/296
