# This file uses centimeters as units for non-parametric coordinates.

v -38.981728 -59.920128 -0.000004
v 42.624298 -59.920128 -0.000004
v -42.624401 59.920139 -0.000004
v 38.981590 59.920139 -0.000004
v -38.981728 -59.920143 4.853483
v 42.624298 -59.920143 4.853483
v 38.981590 59.920139 4.853483
v -42.624401 59.920139 4.853483
v 38.981590 29.673788 -0.000004
v -42.624401 -10.056364 -0.000004
v 38.981865 31.051777 4.853483
v -42.624401 -8.678562 4.853483
v 40.161503 7.066635 5.841438
v 40.161606 8.012529 10.694925
v -41.444523 -23.816109 5.841438
v -41.444523 -22.870018 10.694925
v 42.624298 -20.410315 -0.000004
v 42.624401 -19.785496 4.853483
v -38.981728 -42.078285 -0.000004
v -38.981728 -41.453094 4.853483
vt 0.630224 0.250463
vt 0.710646 0.250463
vt 0.710646 0.289925
vt 0.630224 0.271126
vt 0.315596 0.271432
vt 0.315601 0.271322
vt 0.315108 0.270982
vt 0.315116 0.271220
vt 0.315094 0.271236
vt 0.315576 0.271451
vt 0.315085 0.270993
vt 0.315113 0.270451
vt 0.315655 0.270620
vt 0.630224 0.374545
vt 0.710646 0.374545
vt 0.710646 0.343409
vt 0.315632 0.270635
vt 0.315089 0.270463
vt 0.315612 0.271131
vt 0.315633 0.271123
vt 0.630224 0.308937
vt 0.315119 0.270663
vt 0.315095 0.270667
vt 0.630224 0.292648
vt 0.710646 0.319443
vt 0.315596 0.271232
vt 0.315575 0.271244
vt 0.315089 0.270829
vt 0.315065 0.270837
vt 0.315580 0.271336
vn 0.000000 0.000000 1.000000
vn 0.000000 0.000000 1.000000
vn 0.000000 0.000000 1.000000
vn 0.000000 0.000000 1.000000
vn 0.000000 0.000000 -1.000000
vn 0.000000 0.000000 -1.000000
vn 0.000000 0.000000 -1.000000
vn 0.000000 0.000000 -1.000000
vn 0.000000 -1.000000 -0.000003
vn 0.000000 -1.000000 -0.000003
vn 0.000000 -1.000000 -0.000003
vn 0.000000 -1.000000 -0.000003
vn 1.000000 -0.000001 -0.000011
vn 1.000000 -0.000001 -0.000011
vn 1.000000 -0.000001 -0.000011
vn 1.000000 -0.000001 -0.000011
vn 0.000000 1.000000 0.000000
vn 0.000000 1.000000 0.000000
vn 0.000000 1.000000 0.000000
vn 0.000000 1.000000 0.000000
vn -1.000000 0.000000 0.000000
vn -1.000000 0.000000 0.000000
vn -1.000000 0.000000 0.000000
vn -1.000000 0.000000 0.000000
vn 0.000000 0.000000 1.000000
vn 0.000000 0.000000 1.000000
vn 0.000000 0.000000 1.000000
vn 0.000000 0.000000 1.000000
vn 0.000000 0.000000 -1.000000
vn 0.000000 0.000000 -1.000000
vn 0.000000 0.000000 -1.000000
vn 0.000000 0.000000 -1.000000
vn 1.000000 0.000005 -0.000029
vn 1.000000 0.000005 -0.000029
vn 1.000000 0.000005 -0.000029
vn 1.000000 0.000005 -0.000029
vn -0.996901 -0.076507 0.018316
vn -0.996901 -0.076507 0.018316
vn -0.996901 -0.076507 0.018316
vn -0.996901 -0.076507 0.018316
vn -0.125379 0.289797 0.948840
vn -0.125379 0.289797 0.948840
vn -0.125379 0.289797 0.948840
vn -0.125379 0.289797 0.948840
vn 0.127978 -0.295803 -0.946637
vn 0.127978 -0.295803 -0.946637
vn 0.127978 -0.295803 -0.946637
vn 0.127978 -0.295803 -0.946637
vn 0.998748 0.048639 -0.011684
vn 0.998748 0.048639 -0.011684
vn 0.998748 0.048639 -0.011684
vn 0.998748 0.048639 -0.011684
vn -0.989964 -0.139502 0.022581
vn -0.989964 -0.139502 0.022581
vn -0.989964 -0.139502 0.022581
vn -0.989964 -0.139502 0.022581
vn 0.075973 -0.235959 0.968789
vn 0.075973 -0.235959 0.968789
vn 0.075973 -0.235959 0.968789
vn 0.075973 -0.235959 0.968789
vn -0.076940 0.238959 -0.967977
vn -0.076940 0.238959 -0.967977
vn -0.076940 0.238959 -0.967977
vn -0.076940 0.238959 -0.967977
vn 0.995660 0.091870 -0.014887
vn 0.995660 0.091870 -0.014887
vn 0.995660 0.091870 -0.014887
vn 0.995660 0.091870 -0.014887
vn -1.000000 0.000000 0.000000
vn -1.000000 0.000000 0.000000
vn -1.000000 0.000000 0.000000
vn -1.000000 0.000000 0.000000
s off
f 5/1/1 6/2/2 18/3/3 20/4/4
f 1/5/5 19/6/6 17/7/7 2/8/8
f 1/5/9 2/8/10 6/9/11 5/10/12
f 2/8/13 17/7/14 18/11/15 6/9/16
f 4/12/17 3/13/18 8/17/19 7/18/20
f 12/19/21 8/17/22 3/13/23 10/20/24
f 11/16/25 7/15/26 8/14/27 12/21/28
f 3/13/29 4/12/30 9/22/31 10/20/32
f 11/23/33 9/22/34 4/12/35 7/18/36
f 12/19/37 10/20/38 15/26/39 16/27/40
f 16/24/41 14/25/42 11/16/43 12/21/44
f 13/28/45 15/26/46 10/20/47 9/22/48
f 14/29/49 13/28/50 9/22/51 11/23/52
f 16/27/53 15/26/54 19/6/55 20/30/56
f 20/4/57 18/3/58 14/25/59 16/24/60
f 17/7/61 19/6/62 15/26/63 13/28/64
f 18/11/65 17/7/66 13/28/67 14/29/68
f 20/30/69 19/6/70 1/5/71 5/10/72
