# This file uses centimeters as units for non-parametric coordinates.

v 65.586670 1.254639 140.643677
v -67.767822 1.254639 143.031296
v 66.487793 5.487579 140.643677
v -67.767822 5.487579 143.031296
v 66.487793 5.487579 -139.706482
v -67.767822 5.487579 -137.375336
v 66.487793 1.254639 -139.706482
v -67.767822 1.254639 -137.375336
v -44.985107 5.487579 -135.488068
v -47.764404 5.487579 140.763855
v -48.285156 1.254639 142.529404
v -44.824951 1.254639 -137.086365
v -50.408447 5.487579 -137.854828
v -50.597656 1.254639 -137.854828
v -39.596436 1.254639 -140.185852
v -38.516602 5.487579 -140.185852
v -67.767822 6.742218 -5.795258
v -67.767822 6.742218 -56.690674
v -58.082764 5.746948 -22.934021
v -67.767822 3.751740 -21.266144
v 66.487793 0.000000 -107.601318
v 64.201904 0.000000 -74.020691
v 66.487793 3.688232 -96.657349
v 58.075439 0.000000 -96.980469
v 66.487793 6.742218 119.424759
v 66.487793 6.742218 49.593124
v 66.487793 4.769104 82.058029
v 57.447998 6.742218 73.313431
v 57.777100 5.746948 97.305008
v 66.487793 4.769104 82.058029
vt 0.650744 0.003496
vt 0.655593 0.002822
vt 0.655434 0.002822
vt 0.650878 0.004898
vt 0.670015 0.249119
vt 0.670015 0.249119
vt 0.670015 0.118620
vt 0.670015 0.105054
vt 0.557246 0.228420
vt 0.557246 0.247026
vt 0.557246 0.195655
vt 0.646352 0.000778
vt 0.645445 0.000778
vt 0.670015 0.003243
vt 0.670015 0.003243
vt 0.557246 0.001199
vt 0.557246 0.001199
vt 0.653650 0.248679
vt 0.558003 0.247026
vt 0.653213 0.247131
vt 0.564312 0.038663
vt 0.564562 0.209024
vt 0.661880 0.103592
vt 0.670015 0.073992
vt 0.557246 0.029350
vt 0.557246 0.038947
vt 0.559166 0.058796
vt 0.557246 0.195655
vt 0.557246 0.167188
vt 0.564839 0.187987
vn 0.772610 0.225745 -0.593392
vn 0.772610 0.225745 -0.593392
vn 0.772610 0.225745 -0.593392
vn 0.772610 0.225745 -0.593392
vn -1.000000 0.000000 0.000000
vn -1.000000 0.000000 0.000000
vn -1.000000 0.000000 0.000000
vn -1.000000 0.000000 0.000000
vn 1.000000 -0.000001 0.000000
vn 1.000000 -0.000001 0.000000
vn 1.000000 -0.000001 0.000000
vn -0.939386 0.160301 -0.303081
vn -0.939386 0.160301 -0.303081
vn -0.939386 0.160301 -0.303081
vn -0.939386 0.160301 -0.303081
vn -0.128058 0.001245 -0.991766
vn -0.128058 0.001245 -0.991766
vn -0.128058 0.001245 -0.991766
vn -0.128058 0.001245 -0.991766
vn 0.082535 -0.004585 -0.996578
vn 0.082535 -0.004585 -0.996578
vn 0.082535 -0.004585 -0.996578
vn 0.082535 -0.004585 -0.996578
vn 0.062712 0.202151 0.977344
vn 0.062712 0.202151 0.977344
vn 0.062712 0.202151 0.977344
vn 0.062712 0.202151 0.977344
vn -0.042701 -0.999088 -0.000210
vn -0.042701 -0.999088 -0.000210
vn -0.042701 -0.999088 -0.000210
vn -0.042701 -0.999088 -0.000210
vn -0.042701 -0.999088 -0.000210
vn -0.042701 -0.999088 -0.000210
vn 0.155845 0.197665 0.967802
vn 0.155845 0.197665 0.967802
vn 0.155845 0.197665 0.967802
vn 0.155845 0.197665 0.967802
vn -0.060118 0.998162 0.007613
vn -0.060118 0.998162 0.007613
vn -0.060118 0.998162 0.007613
vn -0.060118 0.998162 0.007613
vn -0.474752 0.864124 -0.167033
vn -0.474752 0.864124 -0.167033
vn -0.474752 0.864124 -0.167033
vn -0.401237 0.912728 0.077051
vn -0.401237 0.912728 0.077051
vn -0.401237 0.912728 0.077051
vn 0.679340 -0.695395 0.234355
vn 0.679340 -0.695395 0.234355
vn 0.679340 -0.695395 0.234355
vn 0.709815 -0.695221 -0.113273
vn 0.709815 -0.695221 -0.113273
vn 0.709815 -0.695221 -0.113273
vn 0.081557 0.996663 0.003229
vn 0.081557 0.996663 0.003229
vn 0.081557 0.996663 0.003229
vn 0.081557 0.996663 0.003229
vn 0.081600 0.996653 -0.004954
vn 0.081600 0.996653 -0.004954
vn 0.081600 0.996653 -0.004954
vn 0.081600 0.996653 -0.004954
vn 0.081600 0.996653 -0.004954
vn -1.000000 -0.000000 0.000000
vn -1.000000 -0.000000 0.000000
vn -1.000000 -0.000000 0.000000
vn -1.000000 -0.000000 0.000000
vn -1.000000 0.000000 0.000000
vn -1.000000 0.000000 0.000000
vn -1.000000 0.000000 0.000000
vn 1.000000 0.000000 0.000000
vn 1.000000 0.000000 0.000000
vn 1.000000 0.000000 0.000000
vn 1.000000 0.000000 0.000000
vn 1.000000 0.000000 0.000000
vn 1.000000 0.000000 0.000000
vn 1.000000 0.000000 0.000000
vn 1.000000 0.000000 0.000000
vn 1.000000 0.000000 0.000000
vn -0.005358 -0.999973 0.004934
vn -0.005358 -0.999973 0.004934
vn -0.005358 -0.999973 0.004934
vn -0.005358 -0.999973 0.004934
vn -0.021402 -0.999482 -0.024053
vn -0.021402 -0.999482 -0.024054
vn -0.021402 -0.999482 -0.024054
vn -0.021402 -0.999482 -0.024054
vn -0.021402 -0.999482 -0.024054
vn 0.045426 0.997578 -0.052676
vn 0.045426 0.997578 -0.052676
vn 0.045426 0.997578 -0.052676
vn 1.000000 -0.000000 0.000000
vn 1.000000 -0.000000 0.000000
vn 1.000000 -0.000000 0.000000
vn 1.000000 -0.000000 0.000000
vn 0.000000 0.000000 0.000000
vn 0.000000 0.000000 0.000000
vn 0.000000 0.000000 0.000000
vn 0.343268 0.937508 0.056979
vn 0.343268 0.937508 0.056979
vn 0.343268 0.937508 0.056979
vn 0.382665 0.923185 0.036008
vn 0.382665 0.923185 0.036008
vn 0.382665 0.923185 0.036008
vn 0.000000 0.000000 0.000000
vn 0.000000 0.000000 0.000000
vn 0.000000 0.000000 0.000000
vn -0.010060 0.999933 -0.005688
vn -0.010060 0.999933 -0.005688
vn -0.010060 0.999933 -0.005688
vn -0.010060 0.999933 -0.005688
vn -0.010060 0.999933 -0.005688
vn -0.075190 0.997167 0.002245
vn -0.075190 0.997167 0.002245
vn -0.075190 0.997167 0.002245
vn -0.075190 0.997167 0.002245
vn -0.012735 0.999918 0.001718
vn -0.012735 0.999918 0.001718
vn -0.012735 0.999918 0.001718
s off
f 12/1/1 14/2/2 13/3/3 9/4/4
f 2/5/5 4/6/6 17/7/7 20/8/8
f 25/9/9 3/10/10 27/11/11
f 15/12/12 12/1/13 9/4/14 16/13/15
f 14/2/16 8/14/17 6/15/18 13/3/19
f 5/16/20 7/17/21 15/12/22 16/13/23
f 11/18/24 1/19/25 3/10/26 10/20/27
f 12/1/28 24/21/29 11/18/30 2/5/31 8/14/32 14/2/33
f 10/20/34 4/6/35 2/5/36 11/18/37
f 10/20/38 3/10/39 25/9/40 29/22/41
f 17/7/42 19/23/43 20/8/44
f 19/23/45 18/24/46 20/8/47
f 21/25/48 23/26/49 24/21/50
f 23/26/51 22/27/52 24/21/53
f 19/23/54 17/7/55 4/6/56 10/20/57
f 13/3/58 6/15/59 18/24/60 19/23/61 9/4/62
f 20/8/63 18/24/64 6/15/65 8/14/66
f 2/5/67 20/8/68 8/14/69
f 7/17/70 5/16/71 23/26/72 21/25/73
f 3/10/74 1/19/75 22/27/76 23/26/77 27/11/78
f 24/21/79 22/27/80 1/19/81 11/18/82
f 7/17/83 21/25/84 24/21/85 12/1/86 15/12/87
f 25/9/88 30/28/89 29/22/90
f 5/16/91 26/29/92 27/11/93 23/26/94
f 30/28/95 25/9/96 27/11/97
f 30/28/98 26/29/99 28/30/100
f 30/28/101 28/30/102 29/22/103
f 26/29/104 30/28/105 27/11/106
f 28/30/107 26/29/108 5/16/109 16/13/110 9/4/111
f 29/22/112 28/30/113 9/4/114 19/23/115
f 10/20/116 29/22/117 19/23/118
