# This file uses centimeters as units for non-parametric coordinates.

v -5.752748 24.000000 34.066006
v 37.001598 24.000000 8.141769
v 36.403271 28.000000 7.995146
v -31.078655 28.000000 -8.541718
v 10.930739 28.000000 -34.014248
v -31.676983 24.000000 -8.688341
v 11.077363 24.000000 -34.612576
v 0.695285 28.000000 29.646799
v -5.628117 26.571653 33.557426
v -9.427004 28.000000 27.166271
v 22.286549 28.000000 -15.286208
v 13.547151 28.000000 -29.699253
v 15.525526 28.000000 -23.508060
v 17.406324 26.668875 -23.614273
v 20.171829 20.000000 25.874096
v 19.803677 24.000000 25.380180
v -21.718456 24.000000 -30.326118
v 26.895761 24.000000 -23.234035
v -22.086607 20.000000 -30.820034
v 27.389675 20.000000 -23.602188
v -29.162628 20.000000 17.684063
v -28.332268 20.000000 18.798077
v -28.668716 24.000000 17.315910
v -27.838354 24.000000 18.429924
v -25.000000 0.000000 25.000000
v 25.000000 0.000000 25.000000
v -24.564402 4.000000 24.564402
v 24.564402 4.000000 24.564402
v -24.564402 4.000000 -24.564402
v 24.564402 4.000000 -24.564402
v -25.000000 0.000000 -25.000000
v 25.000000 0.000000 -25.000000
v -19.930450 4.000000 26.734831
v 29.228210 4.000000 17.601027
v -19.581755 8.000000 26.226990
v 28.720369 8.000000 17.252331
v -28.556414 8.000000 -22.075134
v 19.745710 8.000000 -31.049793
v -29.064255 4.000000 -22.423830
v 20.094406 4.000000 -31.557634
v -32.114441 8.000000 23.181662
v 17.661100 8.000000 27.914057
v 17.268686 12.000000 27.439184
v -26.989630 12.000000 -26.119005
v 21.918623 12.000000 -21.469069
v -27.382044 8.000000 -26.593878
v 22.393496 8.000000 -21.861483
v -27.726908 12.000000 23.161242
v -31.858521 10.155695 22.970181
v -31.267572 12.000000 18.876589
v -24.368292 12.000000 23.442457
v 25.611010 12.000000 22.003878
v -23.945408 16.000000 22.994507
v 25.163059 16.000000 21.580994
v 23.749546 16.000000 -27.527473
v -25.806871 12.000000 -26.536844
v 24.172430 12.000000 -27.975424
v -17.317078 16.000000 -26.345432
v -25.290615 16.000000 -23.740887
v -25.470909 15.000000 -26.219681
v -14.318157 16.000000 25.702118
v 35.261845 16.000000 19.235016
v -13.942560 20.000000 25.213839
v -20.296980 20.000000 -23.502287
v 28.419146 20.000000 -29.856707
v -20.785259 16.000000 -23.877884
v 28.794743 16.000000 -30.344986
v 30.548735 20.000000 19.410496
v 34.797977 18.072100 18.878197
v 34.455845 20.000000 16.423611
vt 0.066895 0.173295
vt 0.066339 0.173000
vt 0.066343 0.172949
vt 0.066811 0.172762
vt 0.067338 0.172935
vt 0.066810 0.172803
vt 0.067339 0.172986
vt 0.066620 0.173088
vt 0.066895 0.173261
vt 0.067117 0.173081
vt 0.066603 0.172845
vt 0.066763 0.172781
vt 0.066723 0.172810
vt 0.066693 0.172823
vt 0.066885 0.173222
vt 0.066884 0.173290
vt 0.066339 0.173000
vt 0.066343 0.172949
vt 0.067338 0.172935
vt 0.066811 0.172762
vt 0.066810 0.172803
vt 0.067339 0.172986
vt 0.066904 0.173289
vt 0.066905 0.173222
vt 0.066895 0.173295
vt 0.066339 0.173000
vt 0.066343 0.172949
vt 0.066896 0.173227
vt 0.066811 0.172762
vt 0.067338 0.172935
vt 0.066810 0.172803
vt 0.067339 0.172986
vt 0.066895 0.173295
vt 0.066339 0.173000
vt 0.066343 0.172949
vt 0.066896 0.173227
vt 0.066811 0.172762
vt 0.067338 0.172935
vt 0.066810 0.172803
vt 0.067339 0.172986
vt 0.067338 0.172935
vt 0.066811 0.172762
vt 0.066810 0.172803
vt 0.067339 0.172986
vt 0.066339 0.173000
vt 0.066895 0.173295
vt 0.066343 0.172949
vt 0.067117 0.173081
vt 0.066895 0.173261
vt 0.066620 0.173088
vt 0.066895 0.173295
vt 0.066339 0.173000
vt 0.066343 0.172949
vt 0.066896 0.173227
vt 0.067339 0.172986
vt 0.066810 0.172803
vt 0.066811 0.172762
vt 0.067339 0.172960
vt 0.067117 0.173081
vt 0.067075 0.172849
vt 0.066341 0.172974
vt 0.066577 0.172855
vt 0.066620 0.173088
vt 0.067338 0.172935
vt 0.066811 0.172762
vt 0.066810 0.172803
vt 0.067339 0.172986
vt 0.066339 0.173000
vt 0.066895 0.173295
vt 0.066896 0.173227
vn -0.515437 0.108259 -0.850061
vn -0.515437 0.108259 -0.850061
vn -0.515437 0.108259 -0.850061
vn -0.515437 0.108259 -0.850061
vn 0.000000 -1.000000 0.000000
vn 0.000000 -1.000000 0.000000
vn 0.000000 -1.000000 0.000000
vn 0.000000 -1.000000 0.000000
vn 0.850061 0.108262 -0.515437
vn 0.850061 0.108262 -0.515437
vn 0.850061 0.108262 -0.515437
vn -0.061899 0.965591 0.252590
vn -0.061899 0.965591 0.252590
vn -0.061899 0.965591 0.252590
vn 0.515437 0.108259 0.850061
vn 0.515437 0.108259 0.850061
vn 0.515437 0.108259 0.850061
vn -0.000000 1.000000 -0.000000
vn -0.000000 1.000000 -0.000000
vn -0.000000 1.000000 -0.000000
vn -0.000000 1.000000 -0.000000
vn -0.848911 0.111423 0.516658
vn -0.848911 0.111423 0.516658
vn -0.848911 0.111423 0.516658
vn -0.848911 0.111423 0.516658
vn 0.561549 0.807753 -0.179441
vn 0.561549 0.807753 -0.179441
vn 0.561549 0.807753 -0.179441
vn 0.508833 0.752336 -0.418425
vn 0.508833 0.752336 -0.418425
vn 0.508833 0.752336 -0.418425
vn 0.850061 0.108259 -0.515437
vn 0.850061 0.108259 -0.515437
vn 0.850061 0.108259 -0.515437
vn 0.850061 0.108259 -0.515437
vn 0.850061 0.108258 -0.515437
vn 0.850061 0.108258 -0.515437
vn 0.850061 0.108258 -0.515437
vn 0.850061 0.108258 -0.515437
vn 0.000000 1.000000 0.000000
vn 0.000000 1.000000 0.000000
vn 0.000000 1.000000 0.000000
vn 0.000000 1.000000 0.000000
vn 0.000000 1.000000 0.000000
vn 0.000000 1.000000 0.000000
vn 0.000000 1.000000 0.000000
vn 0.000000 1.000000 0.000000
vn 0.513853 0.111422 0.850612
vn 0.513853 0.111422 0.850612
vn 0.513853 0.111422 0.850612
vn 0.513853 0.111422 0.850612
vn -0.850061 0.108259 0.515437
vn -0.850061 0.108259 0.515437
vn -0.850061 0.108259 0.515437
vn -0.143509 0.108259 0.983710
vn -0.143509 0.108259 0.983710
vn -0.143509 0.108259 0.983710
vn -0.143509 0.108259 0.983710
vn 0.143508 0.108259 -0.983710
vn 0.143508 0.108259 -0.983710
vn 0.143508 0.108259 -0.983710
vn 0.143508 0.108259 -0.983710
vn 0.000000 -1.000000 -0.000000
vn 0.000000 -1.000000 -0.000000
vn 0.000000 -1.000000 -0.000000
vn 0.000000 -1.000000 -0.000000
vn 0.983710 0.108259 0.143509
vn 0.983710 0.108259 0.143509
vn 0.983710 0.108259 0.143509
vn 0.983710 0.108259 0.143509
vn -0.983710 0.108258 -0.143509
vn -0.983710 0.108258 -0.143509
vn -0.983710 0.108258 -0.143509
vn -0.983710 0.108258 -0.143509
vn 0.000000 1.000000 0.000000
vn 0.000000 1.000000 0.000000
vn 0.000000 1.000000 0.000000
vn -0.792433 0.152212 0.590662
vn -0.792433 0.152212 0.590662
vn -0.792433 0.152212 0.590662
vn -0.792433 0.152212 0.590662
vn 0.000000 1.000000 0.000000
vn 0.000000 1.000000 0.000000
vn 0.000000 1.000000 0.000000
vn 0.000000 1.000000 0.000000
vn 0.000000 -1.000000 -0.000000
vn 0.000000 -1.000000 -0.000000
vn 0.000000 -1.000000 0.000000
vn 0.000000 0.108260 0.994123
vn 0.000000 0.108260 0.994123
vn 0.000000 0.108260 0.994123
vn 0.000000 0.108260 0.994123
vn 0.000000 1.000000 0.000000
vn 0.000000 1.000000 0.000000
vn 0.000000 1.000000 0.000000
vn 0.000000 1.000000 0.000000
vn 0.000000 0.108260 -0.994123
vn 0.000000 0.108260 -0.994123
vn 0.000000 0.108260 -0.994123
vn 0.000000 0.108260 -0.994123
vn 0.000000 -1.000000 0.000000
vn 0.000000 -1.000000 0.000000
vn 0.000000 -1.000000 0.000000
vn 0.000000 -1.000000 0.000000
vn 0.994123 0.108260 0.000000
vn 0.994123 0.108260 0.000000
vn 0.994123 0.108260 0.000000
vn 0.994123 0.108260 0.000000
vn -0.994123 0.108260 0.000000
vn -0.994123 0.108260 0.000000
vn -0.994123 0.108260 0.000000
vn -0.994123 0.108260 0.000000
vn 0.181602 0.108259 0.977395
vn 0.181602 0.108259 0.977395
vn 0.181602 0.108259 0.977395
vn 0.181602 0.108259 0.977395
vn 0.000000 1.000000 0.000000
vn 0.000000 1.000000 0.000000
vn 0.000000 1.000000 0.000000
vn 0.000000 1.000000 0.000000
vn -0.181602 0.108259 -0.977395
vn -0.181602 0.108259 -0.977395
vn -0.181602 0.108259 -0.977395
vn -0.181603 0.108259 -0.977395
vn 0.000000 -1.000000 0.000000
vn 0.000000 -1.000000 0.000000
vn 0.000000 -1.000000 0.000000
vn 0.000000 -1.000000 0.000000
vn 0.977395 0.108259 -0.181602
vn 0.977395 0.108259 -0.181602
vn 0.977395 0.108259 -0.181602
vn 0.977395 0.108259 -0.181602
vn -0.977395 0.108260 0.181602
vn -0.977395 0.108260 0.181602
vn -0.977395 0.108260 0.181602
vn -0.977395 0.108260 0.181602
vn 0.094092 0.108259 -0.989660
vn 0.094092 0.108259 -0.989660
vn 0.094092 0.108259 -0.989660
vn 0.094092 0.108259 -0.989660
vn 0.000000 -1.000000 0.000000
vn 0.000000 -1.000000 0.000000
vn 0.000000 -1.000000 0.000000
vn 0.000000 -1.000000 0.000000
vn 0.989660 0.108259 0.094092
vn 0.989660 0.108259 0.094092
vn 0.989660 0.108259 0.094092
vn 0.989660 0.108259 0.094092
vn -0.397617 0.856703 0.328574
vn -0.397617 0.856703 0.328574
vn -0.397617 0.856703 0.328574
vn -0.094091 0.108259 0.989660
vn -0.094091 0.108259 0.989660
vn -0.094091 0.108259 0.989660
vn 0.000000 1.000000 0.000000
vn 0.000000 1.000000 0.000000
vn 0.000000 1.000000 0.000000
vn -0.989660 0.108257 -0.094092
vn -0.989660 0.108257 -0.094092
vn -0.989660 0.108257 -0.094092
vn -0.989660 0.108260 -0.094092
vn -0.989660 0.108260 -0.094092
vn -0.989660 0.108260 -0.094092
vn -0.989660 0.108260 -0.094092
vn -0.094092 0.108259 0.989660
vn -0.094092 0.108259 0.989660
vn -0.094092 0.108259 0.989660
vn -0.094092 0.108259 0.989660
vn 0.000000 1.000000 0.000000
vn 0.000000 1.000000 0.000000
vn 0.000000 1.000000 0.000000
vn 0.000000 1.000000 0.000000
vn 0.028602 0.108259 0.993711
vn 0.028602 0.108259 0.993711
vn 0.028602 0.108259 0.993711
vn 0.028602 0.108259 0.993711
vn 0.000000 -1.000000 0.000000
vn 0.000000 -1.000000 0.000000
vn 0.000000 -1.000000 0.000000
vn 0.000000 -1.000000 0.000000
vn 0.993711 0.108259 -0.028602
vn 0.993711 0.108259 -0.028602
vn 0.993711 0.108259 -0.028602
vn 0.993711 0.108259 -0.028602
vn -0.118907 0.923770 -0.364020
vn -0.118907 0.923770 -0.364020
vn -0.118907 0.923770 -0.364020
vn 0.000000 1.000000 0.000000
vn 0.000000 1.000000 0.000000
vn 0.000000 1.000000 0.000000
vn 0.000000 1.000000 0.000000
vn -0.028602 0.108259 -0.993711
vn -0.028602 0.108259 -0.993711
vn -0.028602 0.108259 -0.993711
vn -0.028602 0.108259 -0.993711
vn -0.993711 0.108259 0.028603
vn -0.993711 0.108259 0.028603
vn -0.993711 0.108259 0.028603
vn -0.993711 0.108259 0.028603
vn -0.993711 0.108259 0.028603
vn -0.993711 0.108259 0.028603
vn -0.993711 0.108259 0.028603
vn -0.028602 0.108259 -0.993711
vn -0.028602 0.108259 -0.993711
vn -0.028602 0.108259 -0.993711
vn 0.000000 1.000000 0.000000
vn 0.000000 1.000000 0.000000
vn 0.000000 1.000000 0.000000
vn 0.404642 0.745720 0.529308
vn 0.404642 0.745720 0.529308
vn 0.404642 0.745720 0.529308
vn -0.128582 0.108259 -0.985772
vn -0.128582 0.108259 -0.985772
vn -0.128582 0.108259 -0.985772
vn -0.128582 0.108259 -0.985772
vn 0.000000 -1.000000 0.000000
vn 0.000000 -1.000000 0.000000
vn 0.000000 -1.000000 0.000000
vn 0.000000 -1.000000 0.000000
vn -0.985772 0.108259 0.128582
vn -0.985772 0.108259 0.128582
vn -0.985772 0.108259 0.128582
vn -0.985772 0.108259 0.128582
vn 0.985869 0.109626 -0.126665
vn 0.985869 0.109626 -0.126665
vn 0.985869 0.109626 -0.126665
vn 0.000000 1.000000 0.000000
vn 0.000000 1.000000 0.000000
vn 0.000000 1.000000 0.000000
vn 0.130464 0.110499 0.985276
vn 0.130464 0.110499 0.985276
vn 0.130464 0.110499 0.985276
vn 0.000000 1.000000 0.000000
vn 0.000000 1.000000 0.000000
vn 0.000000 1.000000 0.000000
vn 0.000000 1.000000 0.000000
vn 0.130464 0.110499 0.985276
vn 0.130464 0.110499 0.985276
vn 0.130464 0.110499 0.985276
vn 0.130464 0.110499 0.985276
vn 0.985869 0.109626 -0.126665
vn 0.985869 0.109626 -0.126665
vn 0.985869 0.109626 -0.126665
vn 0.985869 0.109626 -0.126665
s off
f 4/5/1 5/4/2 7/6/3 6/7/4
f 6/7/5 7/6/6 2/2/7 1/1/8
f 2/2/9 7/6/10 14/14/11
f 10/10/12 9/9/13 8/8/14
f 8/8/15 2/2/16 3/3/17
f 10/10/18 8/8/19 13/13/20 4/5/21
f 6/7/22 1/1/23 9/9/24 10/10/25
f 13/13/26 14/14/27 12/12/28
f 11/11/29 14/14/30 13/13/31
f 14/14/32 7/6/33 5/4/34 12/12/35
f 2/2/36 14/14/37 11/11/38 3/3/39
f 13/13/40 8/8/41 3/3/42 11/11/43
f 4/5/44 13/13/45 12/12/46 5/4/47
f 1/1/48 2/2/49 8/8/50 9/9/51
f 6/7/52 10/10/53 4/5/54
f 24/15/55 22/16/56 15/17/57 16/18/58
f 17/19/59 18/20/60 20/21/61 19/22/62
f 19/22/63 20/21/64 15/17/65 22/16/66
f 15/17/67 20/21/68 18/20/69 16/18/70
f 19/22/71 21/23/72 23/24/73 17/19/74
f 23/24/75 24/15/76 17/19/77
f 21/23/78 22/16/79 24/15/80 23/24/81
f 17/19/82 24/15/83 16/18/84 18/20/85
f 19/22/86 22/16/87 21/23/88
f 25/25/89 26/26/90 28/27/91 27/28/92
f 27/28/93 28/27/94 30/29/95 29/30/96
f 29/30/97 30/29/98 32/31/99 31/32/100
f 31/32/101 32/31/102 26/26/103 25/25/104
f 26/26/105 32/31/106 30/29/107 28/27/108
f 31/32/109 25/25/110 27/28/111 29/30/112
f 33/33/113 34/34/114 36/35/115 35/36/116
f 35/36/117 36/35/118 38/37/119 37/38/120
f 37/38/121 38/37/122 40/39/123 39/40/124
f 39/40/125 40/39/126 34/34/127 33/33/128
f 34/34/129 40/39/130 38/37/131 36/35/132
f 39/40/133 33/33/134 35/36/135 37/38/136
f 44/41/137 45/42/138 47/43/139 46/44/140
f 46/44/141 47/43/142 42/45/143 41/46/144
f 42/45/145 47/43/146 45/42/147 43/47/148
f 50/48/149 49/49/150 48/50/151
f 41/46/152 48/50/153 49/49/154
f 50/48/155 48/50/156 44/41/157
f 50/48/158 41/46/159 49/49/160
f 46/44/161 41/46/162 50/48/163 44/41/164
f 41/46/165 42/45/166 43/47/167 48/50/168
f 44/41/169 48/50/170 43/47/171 45/42/172
f 51/51/173 52/52/174 54/53/175 53/54/176
f 56/55/177 57/56/178 52/52/179 51/51/180
f 52/52/181 57/56/182 55/57/183 54/53/184
f 60/58/185 59/59/186 58/60/187
f 53/54/188 54/53/189 55/57/190 58/60/191
f 56/55/192 58/60/193 55/57/194 57/56/195
f 56/55/196 51/51/197 53/54/198 59/59/199
f 56/55/200 59/59/201 60/58/202
f 60/58/203 58/60/204 56/55/205
f 53/54/206 58/60/207 59/59/208
f 69/61/209 70/62/210 68/63/211
f 64/64/212 65/65/213 67/66/214 66/67/215
f 66/67/216 67/66/217 62/68/218 61/69/219
f 66/67/220 61/69/221 63/70/222 64/64/223
f 62/68/224 70/62/225 69/61/226
f 65/65/227 68/63/228 70/62/229
f 68/63/230 62/68/231 69/61/232
f 63/70/233 68/63/234 65/65/235 64/64/236
f 61/69/237 62/68/238 68/63/239 63/70/240
f 62/68/241 67/66/242 65/65/243 70/62/244
