# This file uses centimeters as units for non-parametric coordinates.

v 8.367719 -26.713036 2.277313
v -7.150201 -26.282621 4.506714
v 8.367167 -26.544590 3.687332
v -6.912158 -25.607149 5.820633
v 8.294554 -4.305704 1.174301
v -7.685088 -8.296354 1.697067
v 8.294554 -4.305704 0.000000
v -7.685088 -8.296354 0.522766
v -7.635009 -19.784306 3.442368
v -7.631417 -20.893547 2.065781
v 5.285982 -26.628410 3.689377
v 4.405672 -26.746222 2.277313
v 8.280504 -0.000006 1.414032
v -7.699176 -0.133844 1.414032
v -7.699176 -0.133844 0.000000
v 8.280504 -0.000006 0.000000
vt 0.993641 0.327648
vt 0.968539 0.327648
vt 0.968539 0.327648
vt 0.991886 0.327648
vt 0.968539 0.339152
vt 0.999698 0.374636
vt 0.999698 0.374636
vt 0.968539 0.374636
vt 0.968539 0.374636
vt 0.968539 0.337156
vt 0.999698 0.367007
vt 0.999698 0.367007
vt 0.999698 0.327648
vt 0.999698 0.327648
vt 0.968539 0.359826
vt 0.968539 0.359826
vn -0.008107 -0.959241 0.282474
vn -0.008107 -0.959241 0.282474
vn -0.008107 -0.959241 0.282474
vn -0.008107 -0.959241 0.282474
vn 0.190082 0.391352 0.900396
vn 0.190082 0.391352 0.900396
vn 0.190082 0.391352 0.900396
vn -0.008375 0.999965 0.000000
vn -0.008375 0.999965 0.000000
vn -0.008375 0.999965 0.000000
vn -0.008375 0.999965 0.000000
vn -0.991047 -0.053933 0.122136
vn -0.991047 -0.053933 0.122136
vn -0.991047 -0.053933 0.122136
vn -0.991047 -0.053933 0.122136
vn 0.999995 0.003265 0.000001
vn 0.999995 0.003265 0.000001
vn 0.999995 0.003265 0.000001
vn 0.999995 0.003265 0.000001
vn 0.060686 0.150183 0.986794
vn 0.060686 0.150183 0.986794
vn 0.060686 0.150183 0.986794
vn -0.188173 -0.419114 -0.888220
vn -0.188173 -0.419114 -0.888220
vn -0.188173 -0.419114 -0.888220
vn -0.999991 -0.004248 0.000439
vn -0.999991 -0.004248 0.000439
vn -0.999991 -0.004248 0.000439
vn -0.999991 -0.004248 0.000439
vn -0.041721 -0.121649 -0.991696
vn -0.041721 -0.121649 -0.991696
vn -0.041721 -0.121649 -0.991696
vn 0.003529 0.111490 0.993759
vn 0.003529 0.111490 0.993759
vn 0.003529 0.111490 0.993759
vn 0.003529 0.111490 0.993759
vn 0.016561 -0.995264 0.095792
vn 0.016561 -0.995264 0.095792
vn 0.016561 -0.995264 0.095792
vn 0.016561 -0.995264 0.095792
vn -0.005916 -0.099947 -0.994975
vn -0.005916 -0.099947 -0.994975
vn -0.005916 -0.099947 -0.994975
vn -0.005916 -0.099947 -0.994975
vn 0.015902 0.003509 0.999867
vn 0.015902 0.003509 0.999867
vn 0.015902 0.003509 0.999867
vn 0.015902 0.003509 0.999867
vn -0.999999 -0.001726 0.000000
vn -0.999999 -0.001726 0.000000
vn -0.999999 -0.001726 0.000000
vn -0.999999 -0.001726 0.000000
vn -0.010933 -0.041913 -0.999061
vn -0.010933 -0.041913 -0.999061
vn -0.010933 -0.041913 -0.999061
vn -0.010933 -0.041913 -0.999061
vn 0.999995 0.003263 0.000000
vn 0.999995 0.003263 0.000000
vn 0.999995 0.003263 0.000000
vn 0.999995 0.003263 0.000000
s off
f 11/1/1 4/2/2 2/3/3 12/4/4
f 9/5/5 4/2/6 11/1/7
f 13/6/8 16/7/9 15/8/10 14/9/11
f 10/10/12 2/3/13 4/2/14 9/5/15
f 7/11/16 5/12/17 3/13/18 1/14/19
f 6/15/20 9/5/21 11/1/22
f 12/4/23 2/3/24 10/10/25
f 9/5/26 6/15/27 8/16/28 10/10/29
f 12/4/30 10/10/31 8/16/32
f 3/13/33 5/12/34 6/15/35 11/1/36
f 1/14/37 3/13/38 11/1/39 12/4/40
f 1/14/41 12/4/42 8/16/43 7/11/44
f 5/12/45 13/6/46 14/9/47 6/15/48
f 6/15/49 14/9/50 15/8/51 8/16/52
f 8/16/53 15/8/54 16/7/55 7/11/56
f 7/11/57 16/7/58 13/6/59 5/12/60
