# This file uses centimeters as units for non-parametric coordinates.

v 54.592773 1.254639 143.517334
v -78.568359 1.254639 135.944092
v 55.491455 5.487557 143.584534
v -78.568359 5.487557 135.944092
v 76.417969 5.487557 -135.983551
v -57.637451 5.487557 -143.680359
v 76.417969 1.254639 -135.983551
v -57.637451 1.254639 -143.680359
v -35.059082 5.487557 -140.097656
v -58.451172 5.487557 135.176025
v -59.102295 1.254639 136.897888
v -34.779785 1.254639 -141.679565
v -40.290771 5.487557 -142.862671
v -40.479004 1.254639 -142.876770
v -29.334717 1.254639 -144.380249
v -28.257813 5.487557 -144.299530
v -67.459229 6.742196 -12.467316
v -63.660156 6.742196 -63.220581
v -56.521729 5.746944 -28.835266
v -66.304199 3.751732 -27.894989
v 74.021240 0.000000 -103.967957
v 69.235840 0.000000 -70.651398
v 73.204590 3.688221 -93.054474
v 64.839600 0.000000 -94.004578
v 57.075195 6.742196 122.424805
v 62.287842 6.742196 52.788086
v 59.864502 4.769088 85.162292
v 51.502441 6.742196 75.767334
v 50.040039 5.746944 99.716492
v 59.864502 4.769088 85.162292
v -75.588379 6.149673 -132.677689
v 57.385498 6.149673 -143.026047
v -76.487793 10.382593 -132.623856
v 57.385498 10.382593 -143.026047
v -59.743408 10.382593 147.225708
v 74.133789 10.382593 136.880066
v -59.743408 6.149673 147.225708
v 74.133789 6.149673 136.880066
v 51.279053 10.382593 136.356934
v 37.553467 10.382593 -139.567795
v 37.967773 6.149673 -141.361313
v 51.214355 6.149673 137.961975
v 56.834229 10.382593 138.395508
v 57.022461 6.149673 138.384155
v 46.180176 6.149673 141.368164
v 45.102539 10.382593 141.432678
v 66.274902 11.637232 5.534851
v 69.314697 11.637232 56.339355
v 57.630127 10.641980 23.221558
v 67.198730 8.646768 20.978149
v -61.660889 4.895036 115.177979
v -61.384766 4.895036 81.520691
v -62.314453 8.583256 104.253601
v -53.897949 4.895036 104.073486
v -75.220459 11.637232 -111.442871
v -71.049561 11.637232 -41.735962
v -72.988525 9.664124 -74.142883
v -63.442627 11.637232 -65.953735
v -65.204102 10.641980 -89.882813
v -72.988525 9.664124 -74.142883
v -80.763672 10.789661 127.410156
v 51.601318 10.789661 143.791565
v -81.659912 15.022580 127.315125
v 51.601318 15.022580 143.791565
v -52.887207 15.022580 -143.827209
v 80.379883 15.022580 -127.405396
v -52.887207 10.789661 -143.827209
v 80.379883 10.789661 -127.405396
v 57.530762 15.022580 -127.984253
v 31.942139 15.022580 139.487671
v 32.279053 10.789661 141.250244
v 57.535156 10.789661 -129.546997
v 63.166260 15.022580 -129.701111
v 63.354248 10.789661 -129.681091
v 52.654053 10.789661 -133.096558
v 51.580078 15.022580 -133.210449
v 66.875732 16.277218 -0.147034
v 72.098877 16.277218 -49.370728
v 59.003174 15.281968 -17.744934
v 68.463623 13.286756 -15.109802
v -56.182129 9.535023 -112.776550
v -57.355713 9.535023 -80.057678
v -57.305420 13.223244 -102.192078
v -48.906738 9.535023 -101.616821
v -79.482178 16.277218 106.793091
v -72.315186 16.277218 39.255188
v -75.646973 14.304111 70.653748
v -65.760010 16.277218 63.150146
v -68.549805 15.281968 86.318970
v -75.646973 14.304111 70.653748
vt 0.650744 0.003496
vt 0.655593 0.002822
vt 0.655434 0.002822
vt 0.650878 0.004898
vt 0.670015 0.249119
vt 0.670015 0.249119
vt 0.670015 0.118620
vt 0.670015 0.105054
vt 0.557246 0.228420
vt 0.557246 0.247026
vt 0.557246 0.195655
vt 0.646352 0.000778
vt 0.645445 0.000778
vt 0.670015 0.003243
vt 0.670015 0.003243
vt 0.557246 0.001199
vt 0.557246 0.001199
vt 0.653650 0.248679
vt 0.558003 0.247026
vt 0.653213 0.247131
vt 0.564312 0.038663
vt 0.564562 0.209024
vt 0.661880 0.103592
vt 0.670015 0.073992
vt 0.557246 0.029350
vt 0.557246 0.038947
vt 0.559166 0.058796
vt 0.557246 0.195655
vt 0.557246 0.167188
vt 0.564839 0.187987
vt 0.621392 0.246402
vt 0.616543 0.247075
vt 0.616701 0.247075
vt 0.621257 0.245000
vt 0.602120 0.000778
vt 0.602120 0.000778
vt 0.602120 0.131278
vt 0.602120 0.144844
vt 0.714889 0.021478
vt 0.714889 0.002872
vt 0.714889 0.054243
vt 0.625783 0.249119
vt 0.626690 0.249119
vt 0.602120 0.246655
vt 0.602120 0.246655
vt 0.714889 0.248699
vt 0.714889 0.248699
vt 0.618485 0.001218
vt 0.714132 0.002872
vt 0.618922 0.002767
vt 0.707823 0.211234
vt 0.707573 0.040874
vt 0.610256 0.146306
vt 0.602120 0.175906
vt 0.714889 0.220547
vt 0.714889 0.210951
vt 0.712970 0.191102
vt 0.714889 0.054243
vt 0.714889 0.082710
vt 0.707296 0.061911
vt 0.521185 0.246402
vt 0.516336 0.247075
vt 0.516495 0.247075
vt 0.521050 0.245000
vt 0.501914 0.000778
vt 0.501914 0.000778
vt 0.501914 0.131278
vt 0.501914 0.144844
vt 0.614683 0.021478
vt 0.614683 0.002872
vt 0.614683 0.054243
vt 0.525576 0.249119
vt 0.526484 0.249119
vt 0.501914 0.246655
vt 0.501914 0.246655
vt 0.614683 0.248699
vt 0.614683 0.248699
vt 0.518278 0.001218
vt 0.613926 0.002872
vt 0.518716 0.002767
vt 0.607617 0.211234
vt 0.607366 0.040874
vt 0.510049 0.146306
vt 0.501914 0.175906
vt 0.614683 0.220547
vt 0.614683 0.210951
vt 0.612763 0.191102
vt 0.614683 0.054243
vt 0.614683 0.082710
vt 0.607089 0.061911
vn 0.814747 0.225745 -0.534066
vn 0.814747 0.225745 -0.534066
vn 0.814747 0.225745 -0.534066
vn 0.814747 0.225745 -0.534066
vn -0.997210 0.000000 -0.074644
vn -0.997210 0.000000 -0.074644
vn -0.997210 0.000000 -0.074644
vn -0.997210 0.000000 -0.074644
vn 0.997210 -0.000001 0.074644
vn 0.997210 -0.000001 0.074644
vn 0.997210 -0.000001 0.074644
vn -0.914142 0.160301 -0.372355
vn -0.914142 0.160301 -0.372355
vn -0.914142 0.160301 -0.372355
vn -0.914142 0.160301 -0.372355
vn -0.053672 0.001245 -0.998558
vn -0.053672 0.001245 -0.998558
vn -0.053672 0.001245 -0.998558
vn -0.053672 0.001245 -0.998558
vn 0.156693 -0.004585 -0.987637
vn 0.156693 -0.004585 -0.987637
vn 0.156693 -0.004585 -0.987637
vn 0.156693 -0.004585 -0.987637
vn -0.010416 0.202151 0.979299
vn -0.010416 0.202151 0.979299
vn -0.010416 0.202151 0.979299
vn -0.010416 0.202151 0.979299
vn -0.042566 -0.999088 -0.003397
vn -0.042566 -0.999088 -0.003397
vn -0.042566 -0.999088 -0.003397
vn -0.042566 -0.999088 -0.003397
vn -0.042566 -0.999088 -0.003397
vn -0.042566 -0.999088 -0.003397
vn 0.083170 0.197665 0.976735
vn 0.083170 0.197665 0.976735
vn 0.083170 0.197665 0.976735
vn 0.083170 0.197665 0.976735
vn -0.060519 0.998162 0.003105
vn -0.060519 0.998162 0.003105
vn -0.060519 0.998162 0.003105
vn -0.060519 0.998162 0.003105
vn -0.460959 0.864124 -0.202004
vn -0.460959 0.864124 -0.202004
vn -0.460959 0.864124 -0.202004
vn -0.405869 0.912728 0.046886
vn -0.405869 0.912728 0.046886
vn -0.405869 0.912728 0.046886
vn 0.659952 -0.695395 0.284410
vn 0.659952 -0.695395 0.284410
vn 0.659952 -0.695395 0.284410
vn 0.716290 -0.695221 -0.059974
vn 0.716290 -0.695221 -0.059974
vn 0.716290 -0.695221 -0.059974
vn 0.081089 0.996663 0.009308
vn 0.081089 0.996663 0.009308
vn 0.081089 0.996663 0.009308
vn 0.081089 0.996663 0.009308
vn 0.081742 0.996653 0.001151
vn 0.081742 0.996653 0.001151
vn 0.081742 0.996653 0.001151
vn 0.081742 0.996653 0.001151
vn 0.081742 0.996653 0.001151
vn -0.997210 -0.000000 -0.074644
vn -0.997210 -0.000000 -0.074644
vn -0.997210 -0.000000 -0.074644
vn -0.997210 -0.000000 -0.074644
vn -0.997210 0.000000 -0.074644
vn -0.997210 0.000000 -0.074644
vn -0.997210 0.000000 -0.074644
vn 0.997210 0.000000 0.074644
vn 0.997210 0.000000 0.074644
vn 0.997210 0.000000 0.074644
vn 0.997210 0.000000 0.074644
vn 0.997210 0.000000 0.074644
vn 0.997210 0.000000 0.074644
vn 0.997210 0.000000 0.074644
vn 0.997210 0.000000 0.074644
vn 0.997210 0.000000 0.074644
vn -0.005711 -0.999973 0.004520
vn -0.005711 -0.999973 0.004520
vn -0.005711 -0.999973 0.004520
vn -0.005711 -0.999973 0.004520
vn -0.019546 -0.999482 -0.025584
vn -0.019546 -0.999482 -0.025584
vn -0.019546 -0.999482 -0.025584
vn -0.019546 -0.999482 -0.025584
vn -0.019546 -0.999482 -0.025584
vn 0.049231 0.997578 -0.049138
vn 0.049231 0.997578 -0.049138
vn 0.049231 0.997578 -0.049138
vn 0.997210 -0.000000 0.074644
vn 0.997210 -0.000000 0.074644
vn 0.997210 -0.000000 0.074644
vn 0.997210 -0.000000 0.074644
vn 0.000000 0.000000 0.000000
vn 0.000000 0.000000 0.000000
vn 0.000000 0.000000 0.000000
vn 0.338057 0.937508 0.082443
vn 0.338057 0.937508 0.082443
vn 0.338057 0.937508 0.082443
vn 0.378909 0.923185 0.064471
vn 0.378909 0.923185 0.064471
vn 0.378910 0.923185 0.064471
vn 0.000000 0.000000 0.000000
vn 0.000000 0.000000 0.000000
vn 0.000000 0.000000 0.000000
vn -0.009607 0.999933 -0.006423
vn -0.009607 0.999933 -0.006423
vn -0.009607 0.999933 -0.006423
vn -0.009607 0.999933 -0.006423
vn -0.009607 0.999933 -0.006423
vn -0.075147 0.997167 -0.003373
vn -0.075147 0.997167 -0.003373
vn -0.075147 0.997167 -0.003373
vn -0.075147 0.997167 -0.003373
vn -0.012828 0.999918 0.000762
vn -0.012828 0.999918 0.000762
vn -0.012828 0.999918 0.000762
vn -0.735788 0.225745 0.638478
vn -0.735788 0.225745 0.638479
vn -0.735788 0.225745 0.638478
vn -0.735788 0.225745 0.638478
vn 0.998215 0.000000 -0.059728
vn 0.998215 0.000000 -0.059728
vn 0.998215 0.000000 -0.059728
vn 0.998215 0.000000 -0.059728
vn -0.998215 -0.000001 0.059728
vn -0.998215 -0.000001 0.059728
vn -0.998215 -0.000001 0.059728
vn 0.955811 0.160301 0.246433
vn 0.955811 0.160301 0.246433
vn 0.955811 0.160301 0.246433
vn 0.955811 0.160301 0.246433
vn 0.187065 0.001245 0.982347
vn 0.187065 0.001245 0.982347
vn 0.187065 0.001245 0.982347
vn 0.187065 0.001245 0.982347
vn -0.022864 -0.004585 0.999728
vn -0.022864 -0.004585 0.999728
vn -0.022864 -0.004585 0.999728
vn -0.022864 -0.004585 0.999728
vn -0.120975 0.202151 -0.971854
vn -0.120975 0.202151 -0.971854
vn -0.120975 0.202151 -0.971854
vn -0.120975 0.202151 -0.971854
vn 0.042637 -0.999088 -0.002340
vn 0.042637 -0.999088 -0.002340
vn 0.042637 -0.999088 -0.002340
vn 0.042637 -0.999088 -0.002340
vn 0.042637 -0.999088 -0.002340
vn 0.042637 -0.999088 -0.002340
vn -0.213371 0.197665 -0.956766
vn -0.213371 0.197665 -0.956766
vn -0.213371 0.197665 -0.956766
vn -0.213371 0.197665 -0.956766
vn 0.059556 0.998162 -0.011191
vn 0.059556 0.998162 -0.011191
vn 0.059556 0.998162 -0.011191
vn 0.059556 0.998162 -0.011191
vn 0.483881 0.864124 0.138379
vn 0.483881 0.864124 0.138379
vn 0.483881 0.864124 0.138379
vn 0.395919 0.912728 -0.100878
vn 0.395919 0.912728 -0.100878
vn 0.395919 0.912728 -0.100878
vn -0.692125 -0.695395 -0.193361
vn -0.692125 -0.695395 -0.193361
vn -0.692125 -0.695395 -0.193361
vn -0.701782 -0.695221 0.155466
vn -0.701782 -0.695221 0.155466
vn -0.701782 -0.695221 0.155466
vn -0.081604 0.996663 0.001648
vn -0.081604 0.996663 0.001648
vn -0.081604 0.996663 0.001648
vn -0.081604 0.996663 0.001648
vn -0.081159 0.996653 0.009819
vn -0.081159 0.996653 0.009819
vn -0.081159 0.996653 0.009819
vn -0.081158 0.996653 0.009819
vn -0.081159 0.996653 0.009819
vn 0.998215 -0.000000 -0.059728
vn 0.998215 -0.000000 -0.059728
vn 0.998215 -0.000000 -0.059728
vn 0.998215 -0.000000 -0.059728
vn 0.998215 0.000000 -0.059728
vn 0.998215 0.000000 -0.059728
vn 0.998215 0.000000 -0.059728
vn -0.998215 0.000000 0.059728
vn -0.998215 0.000000 0.059728
vn -0.998215 0.000000 0.059728
vn -0.998215 0.000000 0.059728
vn -0.998215 0.000000 0.059728
vn -0.998215 0.000000 0.059728
vn -0.998215 0.000000 0.059728
vn -0.998215 0.000000 0.059728
vn -0.998215 0.000000 0.059728
vn 0.005054 -0.999973 -0.005245
vn 0.005054 -0.999973 -0.005245
vn 0.005054 -0.999973 -0.005245
vn 0.005054 -0.999973 -0.005245
vn 0.022800 -0.999482 0.022732
vn 0.022800 -0.999482 0.022732
vn 0.022800 -0.999482 0.022732
vn 0.022800 -0.999482 0.022732
vn 0.022800 -0.999482 0.022732
vn -0.042199 0.997578 0.055295
vn -0.042199 0.997578 0.055295
vn -0.042199 0.997578 0.055295
vn -0.998215 -0.000000 0.059728
vn -0.998215 -0.000000 0.059728
vn -0.998215 -0.000000 0.059728
vn -0.998215 -0.000000 0.059728
vn 0.000000 0.000000 0.000000
vn 0.000000 0.000000 0.000000
vn 0.000000 0.000000 0.000000
vn -0.346058 0.937508 -0.036374
vn -0.346058 0.937508 -0.036374
vn -0.346058 0.937508 -0.036374
vn -0.384132 0.923185 -0.013088
vn -0.384132 0.923185 -0.013088
vn -0.384132 0.923185 -0.013088
vn 0.000000 0.000000 0.000000
vn 0.000000 0.000000 0.000000
vn 0.000000 0.000000 0.000000
vn 0.010381 0.999933 0.005077
vn 0.010381 0.999933 0.005077
vn 0.010381 0.999933 0.005077
vn 0.010381 0.999933 0.005077
vn 0.010381 0.999933 0.005077
vn 0.074921 0.997167 -0.006732
vn 0.074921 0.997167 -0.006732
vn 0.074921 0.997167 -0.006732
vn 0.074921 0.997167 -0.006732
vn 0.012610 0.999918 -0.002475
vn 0.012610 0.999918 -0.002475
vn 0.012610 0.999918 -0.002475
vn -0.696935 0.223507 -0.681415
vn -0.696935 0.223507 -0.681415
vn -0.696935 0.223507 -0.681415
vn -0.696934 0.223507 -0.681415
vn 0.994417 0.000000 0.105524
vn 0.994417 0.000000 0.105524
vn 0.994417 0.000000 0.105524
vn 0.994417 0.000000 0.105524
vn -0.994417 -0.000001 -0.105524
vn -0.994417 -0.000001 -0.105524
vn -0.994417 -0.000001 -0.105524
vn 0.964496 0.159882 -0.210205
vn 0.964496 0.159882 -0.210205
vn 0.964496 0.159882 -0.210205
vn 0.964496 0.159882 -0.210205
vn 0.228609 0.001211 -0.973518
vn 0.228609 0.001211 -0.973518
vn 0.228609 0.001211 -0.973518
vn 0.228609 0.001211 -0.973518
vn 0.025344 -0.004460 -0.999669
vn 0.025344 -0.004460 -0.999669
vn 0.025344 -0.004460 -0.999669
vn 0.025344 -0.004460 -0.999669
vn -0.163984 0.196848 0.966623
vn -0.163984 0.196848 0.966623
vn -0.163984 0.196848 0.966623
vn -0.163984 0.196848 0.966623
vn 0.042485 -0.999088 0.004291
vn 0.042485 -0.999088 0.004291
vn 0.042485 -0.999088 0.004291
vn 0.042485 -0.999088 0.004291
vn 0.042485 -0.999088 0.004291
vn 0.042485 -0.999088 0.004291
vn -0.253287 0.192577 0.948030
vn -0.253287 0.192577 0.948030
vn -0.253287 0.192577 0.948030
vn -0.253287 0.192577 0.948030
vn 0.058956 0.998161 0.014128
vn 0.058956 0.998161 0.014128
vn 0.058956 0.998161 0.014128
vn 0.058956 0.998161 0.014128
vn 0.489833 0.863436 -0.120588
vn 0.489833 0.863436 -0.120588
vn 0.489833 0.863436 -0.120588
vn 0.390571 0.912573 0.121100
vn 0.390571 0.912573 0.121100
vn 0.390571 0.912573 0.121100
vn -0.699877 -0.694306 0.167666
vn -0.699877 -0.694306 0.167666
vn -0.699877 -0.694306 0.167666
vn -0.693308 -0.694966 -0.190648
vn -0.693308 -0.694966 -0.190648
vn -0.693308 -0.694966 -0.190648
vn -0.081452 0.996663 -0.005304
vn -0.081452 0.996663 -0.005304
vn -0.081452 0.996663 -0.005304
vn -0.081452 0.996663 -0.005304
vn -0.080607 0.996652 -0.013676
vn -0.080607 0.996652 -0.013676
vn -0.080607 0.996652 -0.013676
vn -0.080607 0.996652 -0.013676
vn -0.080607 0.996652 -0.013676
vn 0.994417 -0.000000 0.105524
vn 0.994417 -0.000000 0.105524
vn 0.994417 -0.000000 0.105524
vn 0.994417 -0.000000 0.105524
vn 0.994417 0.000000 0.105524
vn 0.994417 0.000000 0.105524
vn 0.994417 0.000000 0.105524
vn -0.994417 0.000000 -0.105524
vn -0.994417 0.000000 -0.105524
vn -0.994417 0.000000 -0.105524
vn -0.994417 0.000000 -0.105524
vn -0.994417 0.000000 -0.105524
vn -0.994417 0.000000 -0.105524
vn -0.994417 0.000000 -0.105524
vn -0.994417 0.000000 -0.105524
vn -0.994417 0.000000 -0.105524
vn 0.004793 -0.999973 0.005610
vn 0.004793 -0.999973 0.005610
vn 0.004793 -0.999973 0.005610
vn 0.004793 -0.999973 0.005610
vn 0.023892 -0.999465 -0.022335
vn 0.023892 -0.999465 -0.022335
vn 0.023892 -0.999465 -0.022335
vn 0.023892 -0.999465 -0.022335
vn 0.023892 -0.999465 -0.022335
vn -0.039454 0.997499 -0.058647
vn -0.039454 0.997499 -0.058647
vn -0.039454 0.997499 -0.058647
vn -0.994417 -0.000000 -0.105524
vn -0.994417 -0.000000 -0.105524
vn -0.994417 -0.000000 -0.105524
vn -0.994417 -0.000000 -0.105524
vn 0.000000 0.000000 0.000000
vn 0.000000 0.000000 0.000000
vn 0.000000 0.000000 0.000000
vn -0.347501 0.937421 0.022033
vn -0.347501 0.937421 0.022033
vn -0.347501 0.937421 0.022033
vn -0.384421 0.923151 -0.003564
vn -0.384421 0.923151 -0.003564
vn -0.384421 0.923151 -0.003564
vn 0.000000 0.000000 0.000000
vn 0.000000 0.000000 0.000000
vn 0.000000 0.000000 0.000000
vn 0.010621 0.999932 -0.004754
vn 0.010621 0.999932 -0.004754
vn 0.010621 0.999932 -0.004754
vn 0.010621 0.999932 -0.004754
vn 0.010621 0.999932 -0.004754
vn 0.074526 0.997167 0.010230
vn 0.074526 0.997167 0.010230
vn 0.074526 0.997167 0.010230
vn 0.074526 0.997167 0.010230
vn 0.012478 0.999917 0.003100
vn 0.012478 0.999917 0.003100
vn 0.012478 0.999917 0.003100
s off
f 12/1/1 14/2/2 13/3/3 9/4/4
f 2/5/5 4/6/6 17/7/7 20/8/8
f 25/9/9 3/10/10 27/11/11
f 15/12/12 12/1/13 9/4/14 16/13/15
f 14/2/16 8/14/17 6/15/18 13/3/19
f 5/16/20 7/17/21 15/12/22 16/13/23
f 11/18/24 1/19/25 3/10/26 10/20/27
f 12/1/28 24/21/29 11/18/30 2/5/31 8/14/32 14/2/33
f 10/20/34 4/6/35 2/5/36 11/18/37
f 10/20/38 3/10/39 25/9/40 29/22/41
f 17/7/42 19/23/43 20/8/44
f 19/23/45 18/24/46 20/8/47
f 21/25/48 23/26/49 24/21/50
f 23/26/51 22/27/52 24/21/53
f 19/23/54 17/7/55 4/6/56 10/20/57
f 13/3/58 6/15/59 18/24/60 19/23/61 9/4/62
f 20/8/63 18/24/64 6/15/65 8/14/66
f 2/5/67 20/8/68 8/14/69
f 7/17/70 5/16/71 23/26/72 21/25/73
f 3/10/74 1/19/75 22/27/76 23/26/77 27/11/78
f 24/21/79 22/27/80 1/19/81 11/18/82
f 7/17/83 21/25/84 24/21/85 12/1/86 15/12/87
f 25/9/88 30/28/89 29/22/90
f 5/16/91 26/29/92 27/11/93 23/26/94
f 30/28/95 25/9/96 27/11/97
f 30/28/98 26/29/99 28/30/100
f 30/28/101 28/30/102 29/22/103
f 26/29/104 30/28/105 27/11/106
f 28/30/107 26/29/108 5/16/109 16/13/110 9/4/111
f 29/22/112 28/30/113 9/4/114 19/23/115
f 10/20/116 29/22/117 19/23/118
f 42/31/119 44/32/120 43/33/121 39/34/122
f 32/35/123 34/36/124 47/37/125 50/38/126
f 55/39/127 33/40/128 57/41/129
f 45/42/130 42/31/131 39/34/132 46/43/133
f 44/32/134 38/44/135 36/45/136 43/33/137
f 35/46/138 37/47/139 45/42/140 46/43/141
f 41/48/142 31/49/143 33/40/144 40/50/145
f 42/31/146 54/51/147 41/48/148 32/35/149 38/44/150 44/32/151
f 40/50/152 34/36/153 32/35/154 41/48/155
f 40/50/156 33/40/157 55/39/158 59/52/159
f 47/37/160 49/53/161 50/38/162
f 49/53/163 48/54/164 50/38/165
f 51/55/166 53/56/167 54/51/168
f 53/56/169 52/57/170 54/51/171
f 49/53/172 47/37/173 34/36/174 40/50/175
f 43/33/176 36/45/177 48/54/178 49/53/179 39/34/180
f 50/38/181 48/54/182 36/45/183 38/44/184
f 32/35/185 50/38/186 38/44/187
f 37/47/188 35/46/189 53/56/190 51/55/191
f 33/40/192 31/49/193 52/57/194 53/56/195 57/41/196
f 54/51/197 52/57/198 31/49/199 41/48/200
f 37/47/201 51/55/202 54/51/203 42/31/204 45/42/205
f 55/39/206 60/58/207 59/52/208
f 35/46/209 56/59/210 57/41/211 53/56/212
f 60/58/213 55/39/214 57/41/215
f 60/58/216 56/59/217 58/60/218
f 60/58/219 58/60/220 59/52/221
f 56/59/222 60/58/223 57/41/224
f 58/60/225 56/59/226 35/46/227 46/43/228 39/34/229
f 59/52/230 58/60/231 39/34/232 49/53/233
f 40/50/234 59/52/235 49/53/236
f 72/61/237 69/64/238 73/63/239 74/62/240
f 62/65/241 80/68/242 77/67/243 64/66/244
f 85/69/245 87/71/246 63/70/247
f 75/72/248 76/73/249 69/64/250 72/61/251
f 74/62/252 73/63/253 66/75/254 68/74/255
f 65/76/256 76/73/257 75/72/258 67/77/259
f 71/78/260 70/80/261 63/70/262 61/79/263
f 72/61/264 74/62/265 68/74/266 62/65/267 71/78/268 84/81/269
f 70/80/270 71/78/271 62/65/272 64/66/273
f 70/80/274 89/82/275 85/69/276 63/70/277
f 77/67/278 80/68/279 79/83/280
f 79/83/281 80/68/282 78/84/283
f 81/85/284 84/81/285 83/86/286
f 83/86/287 84/81/288 82/87/289
f 79/83/290 70/80/291 64/66/292 77/67/293
f 73/63/294 69/64/295 79/83/296 78/84/297 66/75/298
f 80/68/299 68/74/300 66/75/301 78/84/302
f 62/65/303 68/74/304 80/68/305
f 67/77/306 81/85/307 83/86/308 65/76/309
f 63/70/310 87/71/311 83/86/312 82/87/313 61/79/314
f 84/81/315 71/78/316 61/79/317 82/87/318
f 67/77/319 75/72/320 72/61/321 84/81/322 81/85/323
f 85/69/324 89/82/325 90/88/326
f 65/76/327 83/86/328 87/71/329 86/89/330
f 90/88/331 87/71/332 85/69/333
f 90/88/334 88/90/335 86/89/336
f 90/88/337 89/82/338 88/90/339
f 86/89/340 87/71/341 90/88/342
f 88/90/343 69/64/344 76/73/345 65/76/346 86/89/347
f 89/82/348 79/83/349 69/64/350 88/90/351
f 70/80/352 79/83/353 89/82/354
