# This file uses centimeters as units for non-parametric coordinates.

v 22.869629 113.515030 1.422760
v -24.149658 113.515045 1.422760
v -57.397705 80.267258 1.422760
v -57.397705 33.247784 1.422760
v -24.149658 0.000000 1.422760
v 22.869629 -0.000000 1.422760
v 56.117432 33.247787 1.422760
v 56.117432 80.267265 1.422760
v 149.360107 113.515030 127.912872
v 149.360107 113.515045 174.932404
v 149.360352 80.267258 208.179962
v 149.360352 33.247784 208.179962
v 149.360107 0.000000 174.932404
v 149.360107 -0.000000 127.912872
v 149.360107 33.247787 94.665070
v 149.360107 80.267265 94.665070
v 20.005127 106.599106 1.422760
v -21.285400 106.599113 1.423004
v -50.481689 36.112457 1.422760
v -21.285400 6.915928 1.423004
v 20.005127 6.915928 1.422760
v 49.201416 36.112457 1.422760
v 49.201416 77.402588 1.422760
v 149.360107 106.599106 130.777618
v 149.360107 106.599113 172.067657
v 149.360352 77.402580 201.264191
v 149.360352 36.112457 201.264191
v 149.359863 6.915928 172.067902
v 149.360107 6.915928 130.777618
v 149.360107 36.112457 101.581085
v 149.360107 77.402588 101.581085
v -50.481689 77.402580 1.422760
v 17.705811 100.754280 7.362946
v -18.712158 100.754295 8.854401
v 156.047852 100.754280 133.198517
v 156.047852 100.754295 169.646759
v -18.712158 12.760744 8.854401
v -44.463135 38.533459 9.908844
v 156.047852 38.533459 195.419464
v 156.047852 12.760744 169.647003
v 17.705811 12.760744 7.362946
v 156.047852 12.760744 133.198517
v 43.456787 38.533459 6.308502
v 156.047852 38.533459 107.426056
v 43.456787 74.981583 6.308502
v 156.047852 74.981583 107.426056
v -44.463135 74.981575 9.908844
v 156.047852 74.981575 195.419464
v 20.124268 106.599106 7.264069
v -21.131104 106.599113 8.953522
v 156.047852 106.599106 130.777618
v 156.047852 106.599113 172.067657
v -21.131104 6.915928 8.953522
v -50.303223 36.112457 10.148102
v 156.047852 6.915928 172.067657
v 156.047852 36.112457 201.264191
v 20.124268 6.915928 7.264069
v 156.047852 6.915928 130.777618
v 49.296631 36.112457 6.069489
v 156.047852 36.112457 101.581329
v 49.296631 77.402588 6.069489
v 156.047852 77.402588 101.581329
v -50.303223 77.402580 10.148102
v 156.047852 77.402580 201.264191
v 57.750000 -0.000000 93.889923
v 80.481934 33.247787 69.921906
v 80.481934 80.267258 69.921906
v 57.750000 113.515030 93.889923
v 24.419434 113.515045 126.819855
v 0.475586 80.267258 149.847931
v 0.475586 33.247787 149.847931
v 24.419434 0.000001 126.819855
v 29.505371 -0.000000 49.594757
v 59.763672 33.247787 36.992462
v 59.763672 80.267258 36.992462
v 29.505371 113.515030 49.594757
v -14.104492 113.515045 67.143585
v -44.949707 80.267258 79.552032
v -44.949707 33.247787 79.552032
v -14.104492 0.000001 67.143585
v 82.799805 0.000001 166.155792
v 69.696777 33.247787 197.142609
v 69.696777 80.267258 197.142609
v 82.799805 113.515045 166.155792
v 100.617188 113.515030 122.019073
v 112.755371 80.267258 90.677765
v 112.755371 33.247787 90.677765
v 100.617188 -0.000000 122.019073
v 58.111816 100.754280 101.675323
v 75.066406 74.981583 82.382355
v 75.066406 38.533459 82.382355
v 58.111816 12.760744 101.675323
v 33.434082 12.760744 128.377472
v 15.682129 38.533459 147.013214
v 15.682129 74.981583 147.013214
v 33.434082 100.754295 128.377472
v 91.784668 100.754295 163.679718
v 82.768066 74.981583 188.199982
v 82.768066 38.533459 188.199982
v 91.784668 12.760744 163.679718
v 104.114258 12.760744 128.882843
v 112.575195 38.533459 104.229034
v 112.575195 74.981583 104.229034
v 104.114258 100.754280 128.882843
v 26.913086 100.754280 57.032013
v 50.013672 74.981583 46.332794
v 50.013672 38.533459 46.332794
v 26.913086 12.760744 57.032013
v -6.286133 12.760744 72.008820
v -29.783203 38.533459 82.597687
v -29.783203 74.981583 82.597687
v -6.286133 100.754295 72.008820
vt 0.101656 0.327410
vt 0.102252 0.326931
vt 0.102113 0.326880
vt 0.101505 0.327335
vt 0.101457 0.326929
vt 0.101365 0.327007
vt 0.102015 0.326596
vt 0.102113 0.326517
vt 0.102261 0.326563
vt 0.102122 0.326544
vt 0.102251 0.326584
vt 0.102244 0.326906
vt 0.102121 0.326862
vt 0.102017 0.326744
vt 0.102037 0.326742
vt 0.101618 0.326997
vt 0.101748 0.327177
vt 0.101724 0.327177
vt 0.101611 0.327020
vt 0.101760 0.327349
vt 0.101735 0.327328
vt 0.101644 0.327382
vt 0.101511 0.327317
vt 0.101388 0.327174
vt 0.101408 0.327174
vt 0.101388 0.327027
vt 0.102229 0.326611
vt 0.102115 0.326575
vt 0.101459 0.326999
vt 0.101583 0.327053
vt 0.102342 0.326713
vt 0.102365 0.326710
vt 0.102337 0.326847
vt 0.102358 0.326864
vt 0.102223 0.326896
vt 0.102305 0.326844
vt 0.101694 0.327325
vt 0.101615 0.327373
vt 0.102115 0.326857
vt 0.101496 0.327315
vt 0.102039 0.326751
vt 0.101404 0.327188
vt 0.102038 0.326635
vt 0.101387 0.327058
vt 0.101469 0.326960
vt 0.102035 0.326612
vt 0.102309 0.326725
vt 0.101683 0.327192
vt 0.102237 0.326593
vt 0.102107 0.326553
vt 0.101448 0.326973
vt 0.101590 0.327034
vt 0.102230 0.326917
vt 0.102323 0.326858
vt 0.101715 0.327344
vt 0.101625 0.327397
vt 0.102108 0.326872
vt 0.101491 0.327331
vt 0.102023 0.326752
vt 0.101387 0.327188
vt 0.102021 0.326621
vt 0.101367 0.327041
vt 0.102328 0.326723
vt 0.101703 0.327192
vt 0.101809 0.327107
vt 0.101702 0.326959
vt 0.101690 0.326802
vt 0.101785 0.326723
vt 0.101940 0.326780
vt 0.102056 0.326944
vt 0.102059 0.327107
vt 0.101954 0.327170
vt 0.101961 0.326994
vt 0.101860 0.326852
vt 0.101852 0.326699
vt 0.101949 0.326620
vt 0.102100 0.326671
vt 0.102211 0.326827
vt 0.102209 0.326985
vt 0.102103 0.327050
vt 0.101805 0.327290
vt 0.101909 0.327228
vt 0.101902 0.327060
vt 0.101779 0.326889
vt 0.101621 0.326826
vt 0.101527 0.326904
vt 0.101545 0.327066
vt 0.101657 0.327221
vt 0.101787 0.326787
vt 0.101712 0.326846
vt 0.101722 0.326969
vt 0.101806 0.327086
vt 0.101919 0.327135
vt 0.102000 0.327084
vt 0.101996 0.326958
vt 0.101906 0.326832
vt 0.101745 0.326943
vt 0.101840 0.327075
vt 0.101847 0.327205
vt 0.101767 0.327254
vt 0.101651 0.327201
vt 0.101563 0.327079
vt 0.101550 0.326952
vt 0.101623 0.326893
vt 0.101951 0.326681
vt 0.101875 0.326741
vt 0.101881 0.326860
vt 0.101960 0.326971
vt 0.102071 0.327015
vt 0.102152 0.326964
vt 0.102153 0.326841
vt 0.102068 0.326722
vn -0.000000 -1.000000 0.000000
vn -0.000000 -1.000000 0.000000
vn -0.000000 -1.000000 0.000000
vn -0.000000 -1.000000 0.000000
vn 0.388863 0.701085 -0.597717
vn 0.388863 0.701085 -0.597717
vn 0.388863 0.701085 -0.597717
vn 0.388863 0.701085 -0.597717
vn -0.000003 -0.000018 -1.000000
vn -0.000003 -0.000018 -1.000000
vn -0.000003 -0.000018 -1.000000
vn -0.000003 -0.000018 -1.000000
vn -0.000003 0.000018 -1.000000
vn -0.000003 0.000018 -1.000000
vn -0.000003 0.000018 -1.000000
vn -0.000003 0.000018 -1.000000
vn 0.000000 0.000000 -1.000000
vn 0.000000 0.000000 -1.000000
vn 0.000000 0.000000 -1.000000
vn 0.000000 0.000000 -1.000000
vn 1.000000 0.000004 -0.000004
vn 1.000000 0.000004 -0.000004
vn 1.000000 0.000004 -0.000004
vn 1.000000 0.000004 -0.000004
vn 1.000000 0.000000 0.000000
vn 1.000000 0.000000 0.000000
vn 1.000000 0.000000 0.000000
vn 1.000000 0.000000 0.000000
vn 1.000000 0.000006 -0.000018
vn 1.000000 0.000006 -0.000018
vn 1.000000 0.000006 -0.000018
vn 1.000000 0.000006 -0.000018
vn 1.000000 0.000017 0.000003
vn 1.000000 0.000017 0.000003
vn 1.000000 0.000017 0.000003
vn 1.000000 0.000017 0.000003
vn 1.000000 0.000000 0.000000
vn 1.000000 0.000000 0.000000
vn 1.000000 0.000000 0.000000
vn 1.000000 0.000000 0.000000
vn 1.000000 0.000000 0.000000
vn 1.000000 0.000000 0.000000
vn 1.000000 0.000000 0.000000
vn 1.000000 0.000000 0.000000
vn -0.000000 -1.000000 0.000000
vn -0.000000 -1.000000 0.000000
vn -0.000000 -1.000000 0.000000
vn -0.000000 -1.000000 0.000000
vn 0.000014 -0.000011 -1.000000
vn 0.000014 -0.000011 -1.000000
vn 0.000014 -0.000011 -1.000000
vn 0.000014 -0.000011 -1.000000
vn 0.000000 0.000000 -1.000000
vn 0.000000 0.000000 -1.000000
vn 0.000000 0.000000 -1.000000
vn 0.000000 0.000000 -1.000000
vn 0.370872 0.701814 -0.608203
vn 0.370872 0.701814 -0.608203
vn 0.370872 0.701814 -0.608203
vn 0.370872 0.701814 -0.608203
vn 0.000000 1.000000 0.000000
vn 0.000000 1.000000 0.000000
vn 0.000000 1.000000 0.000000
vn 0.000000 1.000000 0.000000
vn -0.360856 0.701697 0.614332
vn -0.360856 0.701697 0.614332
vn -0.360856 0.701697 0.614332
vn -0.360856 0.701697 0.614332
vn -0.503296 0.000000 0.864114
vn -0.503296 0.000000 0.864114
vn -0.503296 0.000000 0.864114
vn -0.503296 0.000000 0.864114
vn -0.360856 -0.701697 0.614332
vn -0.360856 -0.701697 0.614332
vn -0.360856 -0.701697 0.614332
vn -0.360856 -0.701697 0.614332
vn 1.000000 -0.000000 0.000000
vn 1.000000 -0.000000 0.000000
vn 1.000000 -0.000000 0.000000
vn 1.000000 -0.000000 0.000000
vn 1.000000 -0.000001 0.000000
vn 1.000000 -0.000001 0.000000
vn 1.000000 -0.000001 0.000000
vn 1.000000 -0.000001 0.000000
vn 0.540917 0.000000 -0.841076
vn 0.540917 0.000000 -0.841076
vn 0.540917 0.000000 -0.841076
vn 0.540917 0.000000 -0.841076
vn 0.000000 0.000000 -1.000000
vn 0.000000 0.000000 -1.000000
vn 0.000000 0.000000 -1.000000
vn 0.000000 0.000000 -1.000000
vn -0.000000 0.000000 -1.000000
vn -0.000000 0.000000 -1.000000
vn -0.000000 0.000000 -1.000000
vn -0.000000 0.000000 -1.000000
vn 0.370872 -0.701814 -0.608203
vn 0.370872 -0.701814 -0.608203
vn 0.370872 -0.701814 -0.608203
vn 0.370872 -0.701814 -0.608203
vn 0.523204 0.000000 -0.852207
vn 0.523204 0.000000 -0.852207
vn 0.523204 0.000000 -0.852207
vn 0.523204 0.000000 -0.852207
vn 0.000014 0.000011 -1.000000
vn 0.000014 0.000011 -1.000000
vn 0.000014 0.000011 -1.000000
vn 0.000014 0.000011 -1.000000
vn -0.400170 -0.701742 0.589425
vn -0.400170 -0.701742 0.589425
vn -0.400170 -0.701742 0.589425
vn -0.400170 -0.701742 0.589425
vn -0.564138 0.000000 0.825681
vn -0.564138 0.000000 0.825681
vn -0.564138 0.000000 0.825681
vn -0.564138 0.000000 0.825681
vn -0.400170 0.701743 0.589425
vn -0.400170 0.701743 0.589425
vn -0.400170 0.701742 0.589425
vn -0.400170 0.701742 0.589425
vn 0.000000 1.000000 -0.000000
vn 0.000000 1.000000 -0.000000
vn 0.000000 1.000000 -0.000000
vn 0.000000 1.000000 -0.000000
vn 0.388863 -0.701085 -0.597717
vn 0.388863 -0.701085 -0.597717
vn 0.388863 -0.701085 -0.597717
vn 0.388863 -0.701085 -0.597717
vn -0.040918 0.000019 -0.999163
vn -0.040918 0.000019 -0.999163
vn -0.040918 0.000019 -0.999163
vn -0.040918 0.000019 -0.999162
vn 1.000000 0.000001 0.000000
vn 1.000000 0.000001 0.000000
vn 1.000000 0.000001 0.000000
vn 1.000000 0.000001 0.000000
vn -0.040925 -0.000011 -0.999162
vn -0.040925 -0.000011 -0.999162
vn -0.040925 -0.000011 -0.999162
vn -0.040925 -0.000011 -0.999162
vn 1.000000 -0.000001 0.000000
vn 1.000000 -0.000001 0.000000
vn 1.000000 -0.000001 0.000000
vn 1.000000 -0.000001 0.000000
vn -0.040918 -0.000019 -0.999163
vn -0.040918 -0.000019 -0.999162
vn -0.040918 -0.000019 -0.999163
vn -0.040918 -0.000019 -0.999163
vn 1.000000 -0.000001 0.000000
vn 1.000000 -0.000001 0.000000
vn 1.000000 -0.000001 0.000000
vn 1.000000 -0.000001 0.000000
vn -0.040898 -0.000017 -0.999163
vn -0.040898 -0.000017 -0.999163
vn -0.040898 -0.000017 -0.999163
vn -0.040898 -0.000017 -0.999163
vn 1.000000 -0.000001 0.000000
vn 1.000000 -0.000001 0.000000
vn 1.000000 -0.000001 0.000000
vn 1.000000 -0.000001 0.000000
vn -0.040894 0.000000 -0.999164
vn -0.040894 0.000000 -0.999164
vn -0.040894 0.000000 -0.999164
vn -0.040894 0.000000 -0.999164
vn 1.000000 0.000000 0.000000
vn 1.000000 0.000000 0.000000
vn 1.000000 0.000000 0.000000
vn 1.000000 0.000000 0.000000
vn -0.040898 0.000017 -0.999163
vn -0.040898 0.000017 -0.999163
vn -0.040898 0.000017 -0.999163
vn -0.040898 0.000017 -0.999163
vn 1.000000 0.000001 0.000000
vn 1.000000 0.000001 0.000000
vn 1.000000 0.000001 0.000000
vn 1.000000 0.000001 0.000000
vn -0.040925 0.000011 -0.999162
vn -0.040925 0.000011 -0.999162
vn -0.040925 0.000011 -0.999162
vn -0.040925 0.000011 -0.999162
vn 1.000000 0.000001 0.000000
vn 1.000000 0.000001 0.000000
vn 1.000000 0.000001 0.000000
vn 1.000000 0.000001 0.000000
vn -0.040934 0.000000 -0.999162
vn -0.040934 0.000000 -0.999162
vn -0.040934 0.000000 -0.999162
vn -0.040934 0.000000 -0.999162
vn 1.000000 0.000000 0.000000
vn 1.000000 0.000000 0.000000
vn 1.000000 0.000000 0.000000
vn 1.000000 0.000000 0.000000
vn -0.000000 -1.000000 0.000001
vn -0.000000 -1.000000 0.000001
vn -0.000000 -1.000000 0.000001
vn -0.000000 -1.000000 0.000001
vn 0.000000 1.000000 -0.000000
vn 0.000000 1.000000 -0.000000
vn 0.000000 1.000000 -0.000000
vn 0.000000 1.000000 -0.000000
vn 0.707034 0.707031 -0.014473
vn 0.707034 0.707032 -0.014473
vn 0.707034 0.707031 -0.014473
vn 0.707034 0.707031 -0.014473
vn 0.000012 -0.707106 0.707108
vn 0.000012 -0.707106 0.707108
vn 0.000012 -0.707106 0.707108
vn 0.000012 -0.707106 0.707108
vn 0.000000 1.000000 -0.000000
vn 0.000000 1.000000 -0.000000
vn 0.000000 1.000000 -0.000000
vn 0.000000 1.000000 -0.000000
vn 0.000000 -1.000000 -0.000000
vn 0.000000 -1.000000 -0.000000
vn 0.000000 -1.000000 -0.000000
vn 0.000000 -1.000000 -0.000000
vn -0.707033 0.707033 0.014450
vn -0.707033 0.707033 0.014450
vn -0.707033 0.707033 0.014450
vn -0.707033 0.707033 0.014450
vn 0.000012 -0.707105 -0.707109
vn 0.000012 -0.707105 -0.707109
vn 0.000012 -0.707105 -0.707109
vn 0.000012 -0.707105 -0.707109
vn -0.999790 0.000000 0.020486
vn -0.999790 0.000000 0.020486
vn -0.999790 0.000000 0.020486
vn -0.999790 0.000000 0.020486
vn 0.000035 0.000000 -1.000000
vn 0.000035 0.000000 -1.000000
vn 0.000035 0.000000 -1.000000
vn 0.000035 0.000000 -1.000000
vn -0.707033 -0.707033 0.014451
vn -0.707033 -0.707033 0.014451
vn -0.707033 -0.707033 0.014451
vn -0.707033 -0.707033 0.014451
vn 0.000013 0.707105 -0.707108
vn 0.000013 0.707105 -0.707108
vn 0.000013 0.707105 -0.707108
vn 0.000013 0.707105 -0.707108
vn 0.707034 -0.707031 -0.014474
vn 0.707034 -0.707031 -0.014474
vn 0.707034 -0.707031 -0.014474
vn 0.707034 -0.707031 -0.014474
vn 0.000000 0.707107 0.707107
vn 0.000000 0.707107 0.707107
vn 0.000000 0.707107 0.707107
vn 0.000000 0.707107 0.707107
vn 0.999791 0.000000 -0.020450
vn 0.999791 0.000000 -0.020450
vn 0.999791 0.000000 -0.020450
vn 0.999791 0.000000 -0.020450
vn 0.000000 0.000000 1.000000
vn 0.000000 0.000000 1.000000
vn 0.000000 0.000000 1.000000
vn 0.000000 0.000000 1.000000
vn 0.606966 -0.695337 -0.384836
vn 0.606966 -0.695337 -0.384836
vn 0.606966 -0.695337 -0.384836
vn 0.606966 -0.695337 -0.384836
vn 0.846408 0.000000 -0.532535
vn 0.846408 0.000000 -0.532535
vn 0.846408 0.000000 -0.532535
vn 0.846408 0.000000 -0.532535
vn 0.606966 0.695337 -0.384836
vn 0.606966 0.695337 -0.384836
vn 0.606966 0.695337 -0.384836
vn 0.606966 0.695337 -0.384836
vn 0.000000 1.000000 -0.000000
vn 0.000000 1.000000 -0.000000
vn 0.000000 1.000000 -0.000000
vn 0.000000 1.000000 -0.000000
vn -0.599567 0.700391 0.387261
vn -0.599567 0.700391 0.387261
vn -0.599567 0.700391 0.387261
vn -0.599567 0.700391 0.387261
vn -0.839899 0.000000 0.542743
vn -0.839899 0.000000 0.542743
vn -0.839899 0.000000 0.542743
vn -0.839899 0.000000 0.542743
vn -0.599567 -0.700391 0.387261
vn -0.599567 -0.700391 0.387261
vn -0.599567 -0.700391 0.387261
vn -0.599567 -0.700391 0.387261
vn -0.000000 -1.000000 0.000000
vn -0.000000 -1.000000 0.000000
vn -0.000000 -1.000000 0.000000
vn -0.000000 -1.000000 0.000000
vn 0.712078 -0.696635 -0.087430
vn 0.712078 -0.696635 -0.087430
vn 0.712078 -0.696635 -0.087430
vn 0.712078 -0.696635 -0.087430
vn 0.994787 0.000000 -0.101975
vn 0.994787 0.000000 -0.101975
vn 0.994787 0.000000 -0.101975
vn 0.994787 0.000000 -0.101975
vn 0.712078 0.696635 -0.087431
vn 0.712078 0.696635 -0.087431
vn 0.712078 0.696635 -0.087431
vn 0.712078 0.696635 -0.087431
vn 0.000000 1.000000 -0.000000
vn 0.000000 1.000000 -0.000000
vn 0.000000 1.000000 -0.000000
vn 0.000000 1.000000 -0.000000
vn -0.705240 0.700340 0.110275
vn -0.705240 0.700340 0.110275
vn -0.705240 0.700340 0.110275
vn -0.705240 0.700340 0.110275
vn -0.987544 0.000000 0.157341
vn -0.987544 0.000000 0.157341
vn -0.987544 0.000000 0.157341
vn -0.987544 0.000000 0.157341
vn -0.705240 -0.700340 0.110275
vn -0.705240 -0.700340 0.110275
vn -0.705240 -0.700340 0.110275
vn -0.705240 -0.700340 0.110275
vn -0.000000 -1.000000 0.000000
vn -0.000000 -1.000000 0.000000
vn -0.000000 -1.000000 0.000000
vn -0.000000 -1.000000 0.000000
vn -0.095725 -0.701275 0.706435
vn -0.095725 -0.701275 0.706435
vn -0.095725 -0.701275 0.706435
vn -0.095725 -0.701275 0.706435
vn -0.137239 0.000000 0.990538
vn -0.137239 0.000000 0.990538
vn -0.137239 0.000000 0.990538
vn -0.137239 0.000000 0.990538
vn -0.095725 0.701275 0.706435
vn -0.095725 0.701275 0.706435
vn -0.095725 0.701275 0.706435
vn -0.095725 0.701275 0.706435
vn 0.000000 1.000000 -0.000000
vn 0.000000 1.000000 -0.000000
vn 0.000000 1.000000 -0.000000
vn 0.000000 1.000000 -0.000000
vn 0.081898 0.702061 -0.707392
vn 0.081898 0.702061 -0.707392
vn 0.081898 0.702061 -0.707392
vn 0.081898 0.702061 -0.707392
vn 0.108288 0.000000 -0.994120
vn 0.108288 0.000000 -0.994120
vn 0.108288 0.000000 -0.994120
vn 0.108288 0.000000 -0.994120
vn 0.081898 -0.702061 -0.707392
vn 0.081898 -0.702061 -0.707392
vn 0.081898 -0.702061 -0.707392
vn 0.081898 -0.702061 -0.707392
vn -0.000000 -1.000000 0.000000
vn -0.000000 -1.000000 0.000000
vn -0.000000 -1.000000 0.000000
vn -0.000000 -1.000000 0.000000
vn -0.588771 -0.696341 0.410436
vn -0.588771 -0.696341 0.410435
vn -0.588771 -0.696341 0.410436
vn -0.588771 -0.696341 0.410436
vn -0.821174 0.000000 0.570677
vn -0.821174 0.000000 0.570677
vn -0.821174 0.000000 0.570677
vn -0.821174 0.000000 0.570677
vn -0.588771 0.696341 0.410436
vn -0.588771 0.696341 0.410436
vn -0.588771 0.696341 0.410436
vn -0.588771 0.696341 0.410436
vn 0.000000 1.000000 0.000000
vn 0.000000 1.000000 0.000000
vn 0.000000 1.000000 0.000000
vn 0.000000 1.000000 0.000000
vn 0.583443 0.700196 -0.411485
vn 0.583443 0.700196 -0.411485
vn 0.583443 0.700196 -0.411485
vn 0.583443 0.700196 -0.411485
vn 0.816995 0.000000 -0.576645
vn 0.816995 0.000000 -0.576645
vn 0.816995 0.000000 -0.576645
vn 0.816995 0.000000 -0.576645
vn 0.583443 -0.700197 -0.411485
vn 0.583442 -0.700197 -0.411485
vn 0.583442 -0.700197 -0.411485
vn 0.583443 -0.700197 -0.411485
vn -0.000000 -1.000000 0.000000
vn -0.000000 -1.000000 0.000000
vn -0.000000 -1.000000 0.000000
vn -0.000000 -1.000000 0.000000
vn 0.067890 -0.702805 -0.708136
vn 0.067890 -0.702805 -0.708136
vn 0.067890 -0.702805 -0.708136
vn 0.067890 -0.702805 -0.708136
vn 0.098045 0.000000 -0.995182
vn 0.098045 0.000000 -0.995182
vn 0.098045 0.000000 -0.995182
vn 0.098045 0.000000 -0.995182
vn 0.067892 0.702803 -0.708137
vn 0.067892 0.702803 -0.708137
vn 0.067892 0.702803 -0.708137
vn 0.067892 0.702803 -0.708137
vn 0.000000 1.000000 0.000000
vn 0.000000 1.000000 0.000000
vn 0.000000 1.000000 0.000000
vn 0.000000 1.000000 0.000000
vn -0.055839 0.702881 0.709112
vn -0.055838 0.702881 0.709112
vn -0.055839 0.702881 0.709112
vn -0.055839 0.702881 0.709112
vn -0.073343 0.000000 0.997307
vn -0.073343 0.000000 0.997307
vn -0.073343 0.000000 0.997307
vn -0.073343 0.000000 0.997307
vn -0.055839 -0.702882 0.709112
vn -0.055839 -0.702882 0.709112
vn -0.055839 -0.702882 0.709112
vn -0.055839 -0.702882 0.709112
vn -0.000000 -1.000000 0.000000
vn -0.000000 -1.000000 0.000000
vn -0.000000 -1.000000 0.000000
vn -0.000000 -1.000000 0.000000
vn -0.705931 -0.697329 0.124072
vn -0.705931 -0.697329 0.124072
vn -0.705931 -0.697329 0.124072
vn -0.705931 -0.697329 0.124072
vn -0.986845 0.000000 0.161668
vn -0.986845 0.000000 0.161668
vn -0.986845 0.000000 0.161668
vn -0.986845 0.000000 0.161668
vn -0.705931 0.697329 0.124072
vn -0.705931 0.697329 0.124072
vn -0.705931 0.697329 0.124072
vn -0.705931 0.697329 0.124072
vn 0.000000 1.000000 -0.000000
vn 0.000000 1.000000 -0.000000
vn 0.000000 1.000000 -0.000000
vn 0.000000 1.000000 -0.000000
vn 0.699999 0.700351 -0.139677
vn 0.699999 0.700351 -0.139677
vn 0.699999 0.700351 -0.139677
vn 0.699999 0.700351 -0.139677
vn 0.980210 0.000000 -0.197959
vn 0.980210 0.000000 -0.197959
vn 0.980210 0.000000 -0.197959
vn 0.980210 0.000000 -0.197959
vn 0.699999 -0.700351 -0.139677
vn 0.699999 -0.700351 -0.139677
vn 0.699999 -0.700351 -0.139677
vn 0.699999 -0.700351 -0.139677
vn -0.000000 -1.000000 0.000000
vn -0.000000 -1.000000 0.000000
vn -0.000000 -1.000000 0.000000
vn -0.000000 -1.000000 0.000000
s off
f 88/88/1 81/81/2 72/72/3 65/65/4
f 85/85/5 86/86/6 67/67/7 68/68/8
f 2/9/9 1/8/10 17/10/11 18/11/12
f 6/3/13 5/2/14 20/12/15 21/13/16
f 7/14/17 6/3/18 21/13/19 22/15/20
f 10/16/21 11/17/22 26/18/23 25/19/24
f 11/17/25 12/20/26 27/21/27 26/18/28
f 12/20/29 13/1/30 28/22/31 27/21/32
f 13/1/33 14/4/34 29/23/35 28/22/36
f 14/4/37 15/24/38 30/25/39 29/23/40
f 15/24/41 16/6/42 31/26/43 30/25/44
f 96/96/45 89/89/46 104/104/47 97/97/48
f 32/31/49 3/32/50 2/9/51 18/11/52
f 32/31/53 19/33/54 4/34/55 3/32/56
f 93/93/57 94/94/58 99/99/59 100/100/60
f 92/92/61 93/93/62 100/100/63 101/101/64
f 91/91/65 92/92/66 101/101/67 102/102/68
f 90/90/69 91/91/70 102/102/71 103/103/72
f 89/89/73 90/90/74 103/103/75 104/104/76
f 9/5/77 10/16/78 25/19/79 24/45/80
f 16/6/81 9/5/82 24/45/83 31/26/84
f 86/86/85 87/87/86 66/66/87 67/67/88
f 8/7/89 7/14/90 22/15/91 23/46/92
f 1/8/93 8/7/94 23/46/95 17/10/96
f 95/95/97 96/96/98 97/97/99 98/98/100
f 94/94/101 95/95/102 98/98/103 99/99/104
f 5/2/105 4/34/106 19/33/107 20/12/108
f 81/81/109 82/82/110 71/71/111 72/72/112
f 70/70/113 71/71/114 82/82/115 83/83/116
f 83/83/117 84/84/118 69/69/119 70/70/120
f 68/68/121 69/69/122 84/84/123 85/85/124
f 65/65/125 66/66/126 87/87/127 88/88/128
f 50/49/129 49/50/130 33/28/131 34/27/132
f 51/51/133 52/52/134 36/30/135 35/29/136
f 53/53/137 54/54/138 38/36/139 37/35/140
f 56/55/141 55/56/142 40/38/143 39/37/144
f 57/57/145 53/53/146 37/35/147 41/39/148
f 55/56/149 58/58/150 42/40/151 40/38/152
f 59/59/153 57/57/154 41/39/155 43/41/156
f 58/58/157 60/60/158 44/42/159 42/40/160
f 61/61/161 59/59/162 43/41/163 45/43/164
f 60/60/165 62/62/166 46/44/167 44/42/168
f 49/50/169 61/61/170 45/43/171 33/28/172
f 62/62/173 51/51/174 35/29/175 46/44/176
f 34/27/177 47/47/178 63/63/179 50/49/180
f 52/52/181 64/64/182 48/48/183 36/30/184
f 47/47/185 38/36/186 54/54/187 63/63/188
f 64/64/189 56/55/190 39/37/191 48/48/192
f 18/11/193 17/10/194 49/50/195 50/49/196
f 24/45/197 25/19/198 52/52/199 51/51/200
f 20/12/201 19/33/202 54/54/203 53/53/204
f 27/21/205 28/22/206 55/56/207 56/55/208
f 21/13/209 20/12/210 53/53/211 57/57/212
f 28/22/213 29/23/214 58/58/215 55/56/216
f 22/15/217 21/13/218 57/57/219 59/59/220
f 29/23/221 30/25/222 60/60/223 58/58/224
f 23/46/225 22/15/226 59/59/227 61/61/228
f 30/25/229 31/26/230 62/62/231 60/60/232
f 17/10/233 23/46/234 61/61/235 49/50/236
f 31/26/237 24/45/238 51/51/239 62/62/240
f 63/63/241 32/31/242 18/11/243 50/49/244
f 25/19/245 26/18/246 64/64/247 52/52/248
f 54/54/249 19/33/250 32/31/251 63/63/252
f 26/18/253 27/21/254 56/55/255 64/64/256
f 73/73/257 74/74/258 66/66/259 65/65/260
f 67/67/261 66/66/262 74/74/263 75/75/264
f 68/68/265 67/67/266 75/75/267 76/76/268
f 76/76/269 77/77/270 69/69/271 68/68/272
f 70/70/273 69/69/274 77/77/275 78/78/276
f 78/78/277 79/79/278 71/71/279 70/70/280
f 72/72/281 71/71/282 79/79/283 80/80/284
f 65/65/285 72/72/286 80/80/287 73/73/288
f 6/3/289 7/14/290 74/74/291 73/73/292
f 75/75/293 74/74/294 7/14/295 8/7/296
f 76/76/297 75/75/298 8/7/299 1/8/300
f 1/8/301 2/9/302 77/77/303 76/76/304
f 78/78/305 77/77/306 2/9/307 3/32/308
f 4/34/309 79/79/310 78/78/311 3/32/312
f 80/80/313 79/79/314 4/34/315 5/2/316
f 73/73/317 80/80/318 5/2/319 6/3/320
f 12/20/321 82/82/322 81/81/323 13/1/324
f 83/83/325 82/82/326 12/20/327 11/17/328
f 10/16/329 84/84/330 83/83/331 11/17/332
f 85/85/333 84/84/334 10/16/335 9/5/336
f 9/5/337 16/6/338 86/86/339 85/85/340
f 15/24/341 87/87/342 86/86/343 16/6/344
f 88/88/345 87/87/346 15/24/347 14/4/348
f 13/1/349 81/81/350 88/88/351 14/4/352
f 105/105/353 106/106/354 90/90/355 89/89/356
f 106/106/357 107/107/358 91/91/359 90/90/360
f 107/107/361 108/108/362 92/92/363 91/91/364
f 108/108/365 109/109/366 93/93/367 92/92/368
f 109/109/369 110/110/370 94/94/371 93/93/372
f 110/110/373 111/111/374 95/95/375 94/94/376
f 111/111/377 112/112/378 96/96/379 95/95/380
f 112/112/381 105/105/382 89/89/383 96/96/384
f 98/98/385 97/97/386 36/30/387 48/48/388
f 99/99/389 98/98/390 48/48/391 39/37/392
f 100/100/393 99/99/394 39/37/395 40/38/396
f 101/101/397 100/100/398 40/38/399 42/40/400
f 102/102/401 101/101/402 42/40/403 44/42/404
f 103/103/405 102/102/406 44/42/407 46/44/408
f 104/104/409 103/103/410 46/44/411 35/29/412
f 97/97/413 104/104/414 35/29/415 36/30/416
f 33/28/417 45/43/418 106/106/419 105/105/420
f 45/43/421 43/41/422 107/107/423 106/106/424
f 43/41/425 41/39/426 108/108/427 107/107/428
f 41/39/429 37/35/430 109/109/431 108/108/432
f 37/35/433 38/36/434 110/110/435 109/109/436
f 38/36/437 47/47/438 111/111/439 110/110/440
f 47/47/441 34/27/442 112/112/443 111/111/444
f 34/27/445 33/28/446 105/105/447 112/112/448
