# This file uses centimeters as units for non-parametric coordinates.

v -212.119781 -5.049981 16.305761
v 246.351273 -5.049981 16.305761
v -212.119781 5.049981 16.305761
v 246.351273 5.049981 16.305761
v -212.119781 5.049981 -15.571266
v 246.351273 5.049981 -15.571266
v -212.119781 -5.049981 -15.571266
v 246.351273 -5.049981 -15.571266
vt 0.005596 0.330543
vt 0.004830 0.329597
vt 0.004828 0.329558
vt 0.005598 0.330489
vt 0.004951 0.329543
vt 0.005780 0.330451
vt 0.004953 0.329581
vt 0.005777 0.330505
vt 0.104272 0.206224
vt 0.104072 0.206195
vt 0.104073 0.206135
vt 0.104274 0.206164
vt 0.104730 0.205270
vt 0.104880 0.205286
vt 0.104883 0.205239
vt 0.104733 0.205224
vn 0.000000 0.000000 1.000000
vn 0.000000 0.000000 1.000000
vn 0.000000 0.000000 1.000000
vn 0.000000 0.000000 1.000000
vn 0.000000 1.000000 0.000000
vn 0.000000 1.000000 0.000000
vn 0.000000 1.000000 0.000000
vn 0.000000 1.000000 0.000000
vn 0.000000 0.000000 -1.000000
vn 0.000000 0.000000 -1.000000
vn 0.000000 0.000000 -1.000000
vn 0.000000 0.000000 -1.000000
vn 0.000000 -1.000000 0.000000
vn 0.000000 -1.000000 0.000000
vn 0.000000 -1.000000 0.000000
vn 0.000000 -1.000000 0.000000
vn 1.000000 0.000000 0.000000
vn 1.000000 0.000000 0.000000
vn 1.000000 0.000000 0.000000
vn 1.000000 0.000000 0.000000
vn -1.000000 0.000000 0.000000
vn -1.000000 0.000000 0.000000
vn -1.000000 0.000000 0.000000
vn -1.000000 0.000000 0.000000
s off
f 1/1/1 2/2/2 4/3/3 3/4/4
f 3/4/5 4/3/6 6/5/7 5/6/8
f 5/6/9 6/5/10 8/7/11 7/8/12
f 7/8/13 8/7/14 2/2/15 1/1/16
f 2/9/17 8/10/18 6/11/19 4/12/20
f 7/13/21 1/14/22 3/15/23 5/16/24
