# This file uses centimeters as units for non-parametric coordinates.

v 4.450210 2.112971 13.868286
v 4.450210 -2.112971 13.868286
v -4.450210 -2.112971 13.868286
v -4.450210 2.112971 13.868286
v 4.490500 2.112968 20.897873
v -4.490500 2.112968 20.897873
v -4.490500 -2.112968 20.897873
v 4.490500 -2.112968 20.897873
v 4.214281 1.995593 15.953873
v -4.214281 1.995593 15.953873
v -4.214281 -1.995593 15.953873
v 4.214281 -1.995593 15.953873
v 4.459023 2.112970 15.407410
v -4.459023 2.112970 15.407410
v -4.459023 -2.112970 15.407410
v 4.459023 -2.112970 15.407410
v 4.466357 2.112970 16.685959
v 4.466357 -2.112969 16.685959
v -4.466357 -2.112969 16.685944
v -4.466357 2.112970 16.685944
v 4.231844 1.995591 19.198196
v 4.231844 -1.995591 19.198196
v -4.231844 -1.995591 19.198196
v -4.231844 1.995591 19.198196
v 4.483904 2.112968 19.747086
v 4.483904 -2.112968 19.747086
v -4.483904 -2.112968 19.747086
v -4.483904 2.112968 19.747086
v 4.478368 2.112969 18.781860
v -4.478368 2.112969 18.781860
v -4.478368 -2.112969 18.781860
v 4.478368 -2.112969 18.781860
v 2.509811 1.050628 -6.956970
v 1.841064 1.641541 -6.941559
v 1.573608 1.050624 -11.113998
v 1.026978 1.641537 -10.789474
v 1.877014 -1.641540 -7.241394
v 2.509811 -1.030312 -6.956970
v 1.573608 -1.050624 -11.113998
v 1.026978 -1.641537 -10.789474
v -2.509811 -1.030312 -6.956970
v -1.877014 -1.641540 -7.241394
v -1.573608 -1.050624 -11.113998
v -1.026978 -1.641537 -10.789474
v 0.000000 -1.641537 -11.582230
v 0.000000 -1.050624 -12.328720
v -1.841064 1.641541 -6.941559
v -2.509811 1.050628 -6.956970
v -1.573608 1.050625 -11.113998
v -1.026978 1.641537 -10.789474
v 0.000000 1.641537 -11.582230
v 0.000000 1.050624 -12.328720
v 3.648794 1.641537 13.207703
v 3.947170 1.010506 12.842636
v 3.982409 1.055694 18.990494
v 3.631949 1.641535 19.077438
v -3.947170 1.010506 12.842636
v -3.648794 1.641537 13.207703
v -3.632121 1.641535 19.077438
v -3.982752 1.050492 19.050400
v -3.597797 -1.641537 13.078949
v -3.947170 -1.050624 12.842636
v -3.982752 -1.050492 19.050400
v -3.632121 -1.641535 19.077438
v 3.947170 -1.050624 12.842636
v 3.597797 -1.641537 13.078949
v 3.631949 -1.641535 19.077438
v 3.982409 -1.055694 18.990494
v 2.516074 -1.032311 8.721069
v 2.096798 -1.641538 9.107193
v -2.317734 -1.641538 9.107193
v -2.516074 -1.032311 8.721069
v -2.516074 1.032077 8.721069
v -2.099255 1.641538 9.111176
v 2.099255 1.641538 9.111176
v 2.516074 1.032077 8.721069
v -1.631683 1.050628 -1.296097
v -1.040817 1.641541 -1.328003
v -1.036331 1.641540 1.820480
v -1.627319 1.050628 1.772171
v 1.627319 1.050628 1.772171
v 1.036331 1.641540 1.820480
v 1.040817 1.641541 -1.328003
v 1.631683 1.050628 -1.296097
v -0.800491 -1.641540 -1.340973
v -1.631683 -1.058012 -1.296097
v -1.627319 -1.002613 1.772171
v -0.777618 -1.641540 1.680969
v 1.631683 -1.058012 -1.296097
v 0.800491 -1.641541 -1.340973
v 0.777618 -1.641540 1.680969
v 1.627319 -1.002612 1.772171
v 4.584941 1.108362 32.037781
v 4.584941 -1.108362 32.037781
v -4.584941 1.108362 32.037781
v -4.584941 -1.108362 32.037781
v 0.117264 -1.529366 32.037781
v 0.044357 1.529366 32.037781
vt 0.132860 0.274813
vt 0.133374 0.274907
vt 0.133093 0.275602
vt 0.132531 0.275496
vt 0.133092 0.275813
vt 0.132543 0.275706
vt 0.133367 0.275114
vt 0.132864 0.275019
vt 0.133221 0.274879
vt 0.132926 0.275571
vt 0.132929 0.275781
vt 0.133218 0.275085
vt 0.133261 0.274886
vt 0.132970 0.275579
vt 0.132972 0.275789
vt 0.133257 0.275093
vt 0.133168 0.274869
vt 0.133166 0.275075
vt 0.132872 0.275770
vt 0.132868 0.275559
vt 0.132984 0.274835
vt 0.132986 0.275042
vt 0.132676 0.275732
vt 0.132667 0.275521
vt 0.132944 0.274828
vt 0.132947 0.275034
vt 0.132633 0.275723
vt 0.132623 0.275513
vt 0.133015 0.274841
vt 0.132700 0.275528
vt 0.132709 0.275738
vt 0.133016 0.275047
vt 0.684511 0.208837
vt 0.515489 0.208836
vt 0.132284 0.180279
vt 0.132286 0.180243
vt 0.132615 0.180234
vt 0.132616 0.180284
vt 0.132200 0.180296
vt 0.132208 0.180240
vt 0.132218 0.180199
vt 0.132215 0.180169
vt 0.132290 0.180348
vt 0.132290 0.180346
vt 0.132619 0.180385
vt 0.132618 0.180350
vt 0.132226 0.180392
vt 0.132210 0.180405
vt 0.132230 0.180336
vt 0.132228 0.180306
vt 0.132309 0.180222
vt 0.132304 0.180255
vt 0.132625 0.180239
vt 0.132625 0.180236
vt 0.132245 0.180207
vt 0.132249 0.180262
vt 0.132301 0.180154
vt 0.132304 0.180156
vt 0.132623 0.180137
vt 0.132619 0.180141
vt 0.132232 0.180114
vt 0.132236 0.180102
vt 0.133018 0.180249
vt 0.133014 0.180279
vt 0.132916 0.180281
vt 0.132925 0.180252
vt 0.133090 0.180259
vt 0.133088 0.180314
vt 0.689910 0.209400
vt 0.682040 0.209400
vt 0.684549 0.208836
vt 0.133004 0.180156
vt 0.133008 0.180133
vt 0.132920 0.180146
vt 0.132910 0.180146
vt 0.133061 0.180040
vt 0.133064 0.180010
vt 0.515939 0.209400
vt 0.514525 0.209400
vt 0.515495 0.208837
vt 0.133004 0.180251
vt 0.133002 0.180221
vt 0.132909 0.180218
vt 0.132918 0.180247
vt 0.133054 0.180242
vt 0.133055 0.180188
vt 0.514525 0.209400
vt 0.515939 0.209400
vt 0.133011 0.180345
vt 0.133013 0.180364
vt 0.132922 0.180355
vt 0.132914 0.180355
vt 0.133081 0.180470
vt 0.133079 0.180500
vt 0.682040 0.209400
vt 0.689909 0.209400
vt 0.132782 0.180353
vt 0.132787 0.180388
vt 0.132786 0.180232
vt 0.132782 0.180279
vt 0.132787 0.180136
vt 0.132786 0.180132
vt 0.132787 0.180285
vt 0.132788 0.180233
vt 0.132619 0.180388
vt 0.132623 0.180278
vt 0.600994 0.208828
vt 0.600006 0.208823
vn 0.000000 0.987389 -0.158312
vn 0.000000 0.987389 -0.158312
vn 0.000000 0.987389 -0.158312
vn 0.000000 0.987389 -0.158312
vn -0.945517 0.000000 -0.325573
vn -0.945517 0.000000 -0.325573
vn -0.945517 0.000000 -0.325573
vn -0.945517 0.000000 -0.325573
vn 0.000000 -0.987389 -0.158311
vn 0.000000 -0.987389 -0.158311
vn 0.000000 -0.987389 -0.158311
vn 0.000000 -0.987389 -0.158311
vn 0.945519 0.000000 -0.325567
vn 0.945519 0.000000 -0.325567
vn 0.945519 0.000000 -0.325567
vn 0.945519 0.000000 -0.325567
vn 0.000000 0.000000 1.000000
vn 0.000000 0.000000 1.000000
vn 0.000000 0.000000 1.000000
vn 0.000000 0.000000 1.000000
vn 0.000000 0.000000 -1.000000
vn 0.000000 0.000000 -1.000000
vn 0.000000 0.000000 -1.000000
vn 0.000000 0.000000 -1.000000
vn 0.000000 0.977700 0.210005
vn 0.000000 0.977700 0.210005
vn 0.000000 0.977700 0.210005
vn 0.000000 0.977700 0.210005
vn -0.912649 0.000000 0.408745
vn -0.912649 0.000000 0.408745
vn -0.912649 0.000000 0.408745
vn -0.912649 0.000000 0.408745
vn 0.000000 -0.977700 0.210005
vn 0.000000 -0.977700 0.210005
vn 0.000000 -0.977700 0.210005
vn 0.000000 -0.977700 0.210005
vn 0.912649 0.000000 0.408745
vn 0.912649 0.000000 0.408745
vn 0.912649 0.000000 0.408745
vn 0.912649 0.000000 0.408745
vn 0.000000 1.000000 0.000000
vn 0.000000 1.000000 0.000000
vn 0.000000 1.000000 0.000000
vn 0.000000 1.000000 0.000000
vn -0.999984 0.000000 -0.005726
vn -0.999984 0.000000 -0.005726
vn -0.999984 0.000000 -0.005726
vn -0.999984 0.000000 -0.005726
vn 0.000000 -1.000000 0.000000
vn 0.000000 -1.000000 0.000000
vn 0.000000 -1.000000 0.000000
vn 0.000000 -1.000000 0.000000
vn 0.999984 0.000000 -0.005726
vn 0.999984 0.000000 -0.005726
vn 0.999984 0.000000 -0.005726
vn 0.999984 0.000000 -0.005726
vn 0.860467 0.000000 0.509506
vn 0.860467 0.000000 0.509506
vn 0.860467 0.000000 0.509506
vn 0.860467 0.000000 0.509506
vn 0.000000 -0.962480 0.271352
vn 0.000000 -0.962480 0.271352
vn 0.000000 -0.962480 0.271352
vn 0.000000 -0.962480 0.271352
vn -0.860467 0.000000 0.509506
vn -0.860467 0.000000 0.509506
vn -0.860467 0.000000 0.509506
vn -0.860467 0.000000 0.509506
vn 0.000000 0.962480 0.271351
vn 0.000000 0.962480 0.271351
vn 0.000000 0.962480 0.271351
vn 0.000000 0.962480 0.271351
vn 0.908760 0.000000 -0.417319
vn 0.908760 0.000000 -0.417319
vn 0.908760 0.000000 -0.417319
vn 0.908760 0.000000 -0.417319
vn 0.000000 -0.977891 -0.209117
vn 0.000000 -0.977891 -0.209117
vn 0.000000 -0.977891 -0.209117
vn 0.000000 -0.977891 -0.209117
vn -0.908760 0.000000 -0.417319
vn -0.908760 0.000000 -0.417319
vn -0.908760 0.000000 -0.417319
vn -0.908760 0.000000 -0.417319
vn 0.000000 0.977891 -0.209117
vn 0.000000 0.977891 -0.209117
vn 0.000000 0.977891 -0.209117
vn 0.000000 0.977891 -0.209117
vn 0.999984 0.000000 -0.005732
vn 0.999984 0.000000 -0.005732
vn 0.999984 0.000000 -0.005732
vn 0.999984 0.000000 -0.005732
vn 0.000000 -1.000000 0.000001
vn 0.000000 -1.000000 0.000001
vn 0.000000 -1.000000 0.000001
vn 0.000000 -1.000000 0.000001
vn -0.999984 0.000000 -0.005732
vn -0.999984 0.000000 -0.005732
vn -0.999984 0.000000 -0.005732
vn -0.999984 0.000000 -0.005732
vn 0.000000 1.000000 0.000001
vn 0.000000 1.000000 0.000001
vn 0.000000 1.000000 0.000001
vn 0.000000 1.000000 0.000001
vn -0.000000 1.000000 0.000000
vn -0.000000 1.000000 0.000000
vn -0.000000 1.000000 0.000000
vn -0.000000 1.000000 0.000000
vn -0.999984 0.000000 -0.005731
vn -0.999984 0.000000 -0.005731
vn -0.999984 0.000000 -0.005731
vn -0.999984 0.000000 -0.005731
vn -0.000000 -1.000000 0.000000
vn -0.000000 -1.000000 0.000000
vn -0.000000 -1.000000 0.000000
vn -0.000000 -1.000000 0.000000
vn 0.999984 0.000000 -0.005731
vn 0.999984 0.000000 -0.005731
vn 0.999984 0.000000 -0.005731
vn 0.999984 0.000000 -0.005731
vn 0.680010 0.726181 0.101230
vn 0.680010 0.726181 0.101230
vn 0.680010 0.726181 0.101230
vn 0.680010 0.726181 0.101230
vn 0.668346 0.729355 -0.146135
vn 0.668346 0.729355 -0.146135
vn 0.668346 0.729355 -0.146135
vn 0.668346 0.729355 -0.146135
vn 0.432080 0.707107 -0.559738
vn 0.432080 0.707107 -0.559738
vn 0.432080 0.707107 -0.559738
vn 0.432080 0.707107 -0.559738
vn 0.615077 -0.781827 0.102117
vn 0.615077 -0.781827 0.102117
vn 0.615077 -0.781827 0.102117
vn 0.615077 -0.781827 0.102117
vn 0.701832 -0.693939 -0.160873
vn 0.701832 -0.693939 -0.160873
vn 0.701832 -0.693939 -0.160873
vn 0.701832 -0.693939 -0.160873
vn 0.432080 -0.707107 -0.559738
vn 0.432080 -0.707107 -0.559738
vn 0.432080 -0.707107 -0.559738
vn 0.432080 -0.707107 -0.559738
vn -0.615077 -0.781827 0.102117
vn -0.615077 -0.781827 0.102117
vn -0.615077 -0.781827 0.102117
vn -0.615077 -0.781827 0.102117
vn -0.701832 -0.693939 -0.160874
vn -0.701832 -0.693939 -0.160874
vn -0.701832 -0.693939 -0.160874
vn -0.701832 -0.693939 -0.160874
vn -0.432080 -0.707107 -0.559738
vn -0.432080 -0.707107 -0.559738
vn -0.432080 -0.707107 -0.559738
vn -0.432080 -0.707107 -0.559738
vn -0.680010 0.726181 0.101230
vn -0.680010 0.726181 0.101230
vn -0.680010 0.726181 0.101230
vn -0.680010 0.726181 0.101230
vn -0.668346 0.729355 -0.146135
vn -0.668346 0.729355 -0.146135
vn -0.668346 0.729355 -0.146135
vn -0.668346 0.729355 -0.146135
vn -0.432080 0.707107 -0.559738
vn -0.432080 0.707107 -0.559738
vn -0.432080 0.707107 -0.559738
vn -0.432080 0.707107 -0.559738
vn 0.752976 0.599418 -0.271525
vn 0.752976 0.599418 -0.271525
vn 0.752976 0.599418 -0.271525
vn 0.752976 0.599418 -0.271525
vn 0.881916 0.471397 -0.003122
vn 0.881916 0.471397 -0.003122
vn 0.881916 0.471397 -0.003122
vn 0.881916 0.471397 -0.003122
vn -0.752976 0.599418 -0.271525
vn -0.752976 0.599418 -0.271525
vn -0.752976 0.599418 -0.271525
vn -0.752976 0.599418 -0.271525
vn -0.882787 0.469764 -0.002937
vn -0.882787 0.469764 -0.002937
vn -0.882787 0.469764 -0.002937
vn -0.882787 0.469764 -0.002937
vn -0.813479 -0.513184 -0.273666
vn -0.813479 -0.513184 -0.273666
vn -0.813479 -0.513184 -0.273666
vn -0.813479 -0.513184 -0.273666
vn -0.859932 -0.510384 -0.004919
vn -0.859932 -0.510384 -0.004919
vn -0.859932 -0.510384 -0.004919
vn -0.859932 -0.510384 -0.004919
vn 0.741166 -0.614674 -0.269905
vn 0.741166 -0.614674 -0.269905
vn 0.741166 -0.614674 -0.269905
vn 0.741166 -0.614674 -0.269905
vn 0.858861 -0.512184 -0.005120
vn 0.858861 -0.512184 -0.005120
vn 0.858861 -0.512184 -0.005120
vn 0.858861 -0.512184 -0.005120
vn 0.684530 -0.721144 -0.106630
vn 0.684530 -0.721144 -0.106630
vn 0.684530 -0.721144 -0.106630
vn 0.684530 -0.721144 -0.106630
vn -0.744609 -0.655276 -0.127165
vn -0.744609 -0.655276 -0.127165
vn -0.744609 -0.655276 -0.127165
vn -0.744609 -0.655276 -0.127165
vn -0.743465 0.661099 -0.101038
vn -0.743465 0.661099 -0.101038
vn -0.743465 0.661099 -0.101038
vn -0.743465 0.661099 -0.101038
vn 0.743465 0.661099 -0.101038
vn 0.743465 0.661099 -0.101038
vn 0.743465 0.661099 -0.101038
vn 0.743465 0.661099 -0.101038
vn -0.707105 0.707108 0.001007
vn -0.707105 0.707108 0.001007
vn -0.707105 0.707108 0.001007
vn -0.707105 0.707108 0.001007
vn 0.707105 0.707108 0.001007
vn 0.707105 0.707108 0.001007
vn 0.707105 0.707108 0.001007
vn 0.707105 0.707108 0.001007
vn -0.587610 -0.809083 0.009988
vn -0.587610 -0.809083 0.009988
vn -0.587610 -0.809083 0.009988
vn -0.587610 -0.809083 0.009988
vn 0.587610 -0.809083 0.009988
vn 0.587610 -0.809083 0.009988
vn 0.587610 -0.809083 0.009988
vn 0.587610 -0.809083 0.009988
vn 0.975566 0.000000 -0.219707
vn 0.975566 0.000000 -0.219707
vn 0.975566 0.000000 -0.219707
vn 0.975566 0.000000 -0.219707
vn 0.000000 -1.000000 -0.000000
vn 0.000000 -1.000000 -0.000000
vn 0.000000 -1.000000 -0.000000
vn -0.975566 0.000000 -0.219707
vn -0.975566 0.000000 -0.219707
vn -0.975566 0.000000 -0.219707
vn -0.975566 0.000000 -0.219707
vn 0.000000 1.000000 -0.000000
vn 0.000000 1.000000 -0.000000
vn 0.000000 1.000000 -0.000000
vn -0.611054 0.000000 -0.791589
vn -0.611054 0.000000 -0.791589
vn -0.611054 0.000000 -0.791589
vn -0.611054 0.000000 -0.791589
vn 0.000000 1.000000 0.000000
vn 0.000000 1.000000 0.000000
vn 0.000000 1.000000 0.000000
vn 0.000000 1.000000 0.000000
vn -0.999984 0.000000 -0.005732
vn -0.999984 0.000000 -0.005732
vn -0.999984 0.000000 -0.005732
vn -0.999984 0.000000 -0.005732
vn 0.000000 -1.000000 0.000000
vn 0.000000 -1.000000 0.000000
vn 0.000000 -1.000000 0.000000
vn 0.000000 -1.000000 0.000000
vn 0.999984 0.000000 -0.005732
vn 0.999984 0.000000 -0.005732
vn 0.999984 0.000000 -0.005732
vn 0.999984 0.000000 -0.005732
vn 0.000000 -1.000000 0.000000
vn 0.000000 -1.000000 0.000000
vn 0.000000 -1.000000 0.000000
vn 0.000000 -1.000000 0.000000
vn -0.944674 0.000000 -0.328011
vn -0.944674 0.000000 -0.328011
vn -0.944674 0.000000 -0.328011
vn -0.944674 0.000000 -0.328011
vn 0.000000 1.000000 0.000000
vn 0.000000 1.000000 0.000000
vn 0.000000 1.000000 0.000000
vn 0.000000 1.000000 0.000000
vn 0.944674 0.000000 -0.328011
vn 0.944674 0.000000 -0.328011
vn 0.944674 0.000000 -0.328011
vn 0.944674 0.000000 -0.328011
vn 0.000000 1.000000 0.000000
vn 0.000000 1.000000 0.000000
vn 0.000000 1.000000 0.000000
vn 0.000000 1.000000 0.000000
vn -0.999999 0.000000 0.001422
vn -0.999999 0.000000 0.001422
vn -0.999999 0.000000 0.001422
vn -0.999999 0.000000 0.001422
vn 0.999999 0.000000 0.001422
vn 0.999999 0.000000 0.001422
vn 0.999999 0.000000 0.001422
vn 0.999999 0.000000 0.001422
vn -0.000000 -1.000000 0.000000
vn -0.000000 -1.000000 0.000000
vn -0.000000 -1.000000 0.000000
vn -0.000000 -1.000000 0.000000
vn -0.988181 0.000000 0.153289
vn -0.988181 0.000000 0.153289
vn -0.988181 0.000000 0.153289
vn -0.988181 0.000000 0.153289
vn -0.000000 -1.000000 -0.000000
vn -0.000000 -1.000000 -0.000000
vn -0.000000 -1.000000 -0.000000
vn -0.000000 -1.000000 -0.000000
vn 0.988181 0.000000 0.153289
vn 0.988181 0.000000 0.153289
vn 0.988181 0.000000 0.153289
vn 0.988181 0.000000 0.153289
vn 0.000000 1.000000 0.000000
vn 0.000000 1.000000 0.000000
vn 0.000000 1.000000 0.000000
vn 0.000000 1.000000 0.000000
vn 0.991920 0.000000 -0.126865
vn 0.991920 0.000000 -0.126865
vn 0.991920 0.000000 -0.126865
vn 0.991920 0.000000 -0.126865
vn 0.000000 -1.000000 0.000000
vn 0.000000 -1.000000 0.000000
vn 0.000000 -1.000000 0.000000
vn 0.000000 -1.000000 0.000000
vn -0.991920 0.000000 -0.126865
vn -0.991920 0.000000 -0.126865
vn -0.991920 0.000000 -0.126865
vn -0.991920 0.000000 -0.126865
vn 0.000000 1.000000 0.000000
vn 0.000000 1.000000 0.000000
vn 0.000000 1.000000 0.000000
vn 0.000000 1.000000 0.000000
vn 0.611054 0.000000 -0.791589
vn 0.611054 0.000000 -0.791589
vn 0.611054 0.000000 -0.791589
vn 0.611054 0.000000 -0.791589
vn 0.000000 1.000000 -0.000001
vn 0.000000 1.000000 -0.000001
vn 0.000000 1.000000 -0.000001
vn 0.000000 1.000000 -0.000001
vn 0.000000 -1.000000 -0.000001
vn 0.000000 -1.000000 -0.000001
vn 0.000000 -1.000000 -0.000001
vn 0.000000 -1.000000 -0.000001
vn 0.092270 0.995148 0.034154
vn 0.092270 0.995148 0.034154
vn 0.092270 0.995148 0.034154
vn 0.000000 -0.999963 0.008654
vn 0.000000 -0.999963 0.008654
vn 0.000000 -0.999963 0.008654
vn 0.998935 0.000000 -0.046131
vn 0.998935 0.000000 -0.046131
vn 0.998935 0.000000 -0.046131
vn 0.998935 0.000000 -0.046131
vn 0.854696 0.517462 -0.041559
vn 0.854696 0.517462 -0.041559
vn 0.854696 0.517462 -0.041559
vn 0.854696 -0.517462 -0.041559
vn 0.854696 -0.517462 -0.041559
vn 0.854696 -0.517462 -0.041559
vn -0.858439 0.511186 -0.042081
vn -0.858439 0.511186 -0.042081
vn -0.858439 0.511186 -0.042081
vn -0.998927 0.000000 -0.046317
vn -0.998927 0.000000 -0.046317
vn -0.998927 0.000000 -0.046317
vn -0.998927 0.000000 -0.046317
vn -0.858439 -0.511186 -0.042081
vn -0.858439 -0.511186 -0.042081
vn -0.858439 -0.511186 -0.042081
vn -0.000000 0.000000 1.000000
vn -0.000000 0.000000 1.000000
vn -0.000000 0.000000 1.000000
vn -0.000000 0.000000 1.000000
vn 0.000000 0.000000 1.000000
vn 0.000000 0.000000 1.000000
vn 0.000000 0.000000 1.000000
vn 0.000000 0.000000 1.000000
vn -0.090516 0.995304 0.034291
vn -0.090516 0.995304 0.034291
vn -0.090516 0.995304 0.034291
vn 0.000000 0.999963 0.008654
vn 0.000000 0.999963 0.008654
vn 0.000000 0.999963 0.008654
vn 0.093763 -0.995013 0.034039
vn 0.093763 -0.995013 0.034039
vn 0.093763 -0.995013 0.034039
vn -0.089124 -0.995426 0.034398
vn -0.089124 -0.995426 0.034398
vn -0.089124 -0.995426 0.034398
s off
f 20/20/1 17/17/2 9/9/3 10/10/4
f 10/10/5 11/11/6 19/19/7 20/20/8
f 18/18/9 19/19/10 11/11/11 12/12/12
f 12/12/13 9/9/14 17/17/15 18/18/16
f 5/1/17 6/4/18 7/6/19 8/8/20
f 1/2/21 2/7/22 3/5/23 4/3/24
f 10/10/25 9/9/26 13/13/27 14/14/28
f 14/14/29 15/15/30 11/11/31 10/10/32
f 12/12/33 11/11/34 15/15/35 16/16/36
f 16/16/37 13/13/38 9/9/39 12/12/40
f 14/14/41 13/13/42 1/2/43 4/3/44
f 4/3/45 3/5/46 15/15/47 14/14/48
f 16/16/49 15/15/50 3/5/51 2/7/52
f 2/7/53 1/2/54 13/13/55 16/16/56
f 32/32/57 29/29/58 21/21/59 22/22/60
f 22/22/61 23/23/62 31/31/63 32/32/64
f 30/30/65 31/31/66 23/23/67 24/24/68
f 24/24/69 21/21/70 29/29/71 30/30/72
f 22/22/73 21/21/74 25/25/75 26/26/76
f 26/26/77 27/27/78 23/23/79 22/22/80
f 24/24/81 23/23/82 27/27/83 28/28/84
f 28/28/85 25/25/86 21/21/87 24/24/88
f 26/26/89 25/25/90 5/1/91 8/8/92
f 7/6/93 27/27/94 26/26/95 8/8/96
f 28/28/97 27/27/98 7/6/99 6/4/100
f 5/1/101 25/25/102 28/28/103 6/4/104
f 30/30/105 29/29/106 17/17/107 20/20/108
f 20/20/109 19/19/110 31/31/111 30/30/112
f 32/32/113 31/31/114 19/19/115 18/18/116
f 18/18/117 17/17/118 29/29/119 32/32/120
f 33/35/121 34/36/122 83/37/123 84/38/124
f 34/36/125 33/35/126 35/39/127 36/40/128
f 36/40/129 35/39/130 52/41/131 51/42/132
f 37/43/133 38/44/134 89/45/135 90/46/136
f 38/44/137 37/43/138 40/47/139 39/48/140
f 39/48/141 40/47/142 45/49/143 46/50/144
f 41/51/145 42/52/146 85/53/147 86/54/148
f 42/52/149 41/51/150 43/55/151 44/56/152
f 44/56/153 43/55/154 46/50/155 45/49/156
f 47/57/157 48/58/158 77/59/159 78/60/160
f 48/58/161 47/57/162 50/61/163 49/62/164
f 49/62/165 50/61/166 51/42/167 52/41/168
f 53/63/169 54/64/170 76/65/171 75/66/172
f 54/64/173 53/63/174 56/67/175 55/68/176
f 57/72/177 58/73/178 74/74/179 73/75/180
f 58/73/181 57/72/182 60/76/183 59/77/184
f 61/81/185 62/82/186 72/83/187 71/84/188
f 62/82/189 61/81/190 64/85/191 63/86/192
f 65/89/193 66/90/194 70/91/195 69/92/196
f 66/90/197 65/89/198 68/93/199 67/94/200
f 69/92/201 70/91/202 91/97/203 92/98/204
f 71/84/205 72/83/206 87/99/207 88/100/208
f 73/75/209 74/74/210 79/101/211 80/102/212
f 75/66/213 76/65/214 81/103/215 82/104/216
f 78/60/217 77/59/218 80/102/219 79/101/220
f 82/104/221 81/103/222 84/38/223 83/37/224
f 86/54/225 85/53/226 88/100/227 87/99/228
f 90/105/229 89/45/230 92/98/231 91/97/232
f 33/35/233 38/44/234 39/48/235 35/39/236
f 40/47/237 44/56/238 45/49/239
f 41/51/240 48/58/241 49/62/242 43/55/243
f 50/61/244 36/40/245 51/42/246
f 49/62/247 52/41/248 46/50/249 43/55/250
f 56/67/251 53/63/252 58/73/253 59/77/254
f 57/72/255 62/82/256 63/86/257 60/76/258
f 64/85/259 61/81/260 66/90/261 67/94/262
f 65/89/263 54/64/264 55/68/265 68/93/266
f 70/91/267 66/90/268 61/81/269 71/84/270
f 62/82/271 57/72/272 73/75/273 72/83/274
f 74/74/275 58/73/276 53/63/277 75/66/278
f 54/64/279 65/89/280 69/92/281 76/65/282
f 78/60/283 79/101/284 82/104/285 83/37/286
f 80/102/287 77/59/288 86/54/289 87/99/290
f 84/38/291 81/103/292 92/98/293 89/45/294
f 88/100/295 85/106/296 90/46/297 91/97/298
f 86/54/299 77/59/300 48/58/301 41/51/302
f 85/106/303 42/52/304 37/43/305 90/46/306
f 84/38/307 89/45/308 38/44/309 33/35/310
f 83/37/311 34/36/312 47/57/313 78/60/314
f 76/65/315 69/92/316 92/98/317 81/103/318
f 88/100/319 91/97/320 70/91/321 71/84/322
f 72/83/323 73/75/324 80/102/325 87/99/326
f 82/104/327 79/101/328 74/74/329 75/66/330
f 46/50/331 52/41/332 35/39/333 39/48/334
f 50/61/335 47/57/336 34/36/337 36/40/338
f 40/47/339 37/43/340 42/52/341 44/56/342
f 56/70/343 98/108/344 93/71/345
f 64/88/346 67/95/347 97/107/348
f 68/96/349 55/69/350 93/71/351 94/33/352
f 55/69/353 56/70/354 93/71/355
f 67/95/356 68/96/357 94/33/358
f 59/78/359 60/79/360 95/80/361
f 60/79/362 63/87/363 96/34/364 95/80/365
f 63/87/366 64/88/367 96/34/368
f 95/80/369 96/34/370 97/107/371 98/108/372
f 98/108/373 97/107/374 94/33/375 93/71/376
f 98/108/377 59/78/378 95/80/379
f 56/70/380 59/78/381 98/108/382
f 97/107/383 67/95/384 94/33/385
f 64/88/386 97/107/387 96/34/388
