# This file uses centimeters as units for non-parametric coordinates.

v 0.430338 0.745368 5.689998
v -0.430338 0.745368 5.689998
v -0.860676 -0.000000 5.689998
v -0.430338 -0.745368 5.689998
v 0.430338 -0.745368 5.689998
v 0.860676 -0.000000 5.689998
v 1.635518 0.419028 27.112139
v -1.635517 0.419028 27.112139
v -1.765067 -0.453710 27.112139
v 1.765066 -0.453710 27.112139
v 1.635518 0.062496 29.946703
v -1.635517 0.062496 29.946703
v -1.635517 -0.080865 29.946703
v 1.635518 -0.080865 29.946703
v 0.430338 0.745368 9.154468
v -0.430338 0.745368 9.154468
v -0.860676 -0.000000 9.154461
v -0.430338 -0.745368 9.154468
v 0.430338 -0.745368 9.154468
v 0.860676 -0.000000 9.154461
v 1.698639 0.418611 9.850351
v 1.698638 -0.436981 9.850351
v -1.698638 -0.436981 9.850351
v -1.698638 0.418611 9.850351
v -0.916490 1.587406 7.086377
v 0.916489 1.587406 7.086377
v 1.832979 0.000000 7.086376
v 0.916489 -1.587406 7.086376
v -0.916490 -1.587406 7.086376
v -1.832979 0.000000 7.086376
v -1.291251 2.236508 -8.205773
v 1.291248 2.236508 -8.205775
v 2.582498 0.000000 -8.205773
v 1.291249 -2.236508 -8.205773
v -1.291248 -2.236508 -8.205773
v -2.582498 0.000000 -8.205773
v -0.908522 1.573610 -9.032437
v 0.908523 1.573610 -9.032437
v 1.817046 0.000000 -9.032436
v 0.908523 -1.573610 -9.032436
v -0.908522 -1.573610 -9.032436
v -1.817046 0.000000 -9.032438
v 0.000001 0.000000 -9.367568
v -1.401181 0.000000 7.772192
v -0.700591 1.213459 7.772192
v -0.700591 -1.213458 7.772191
v 0.700591 -1.213458 7.772191
v 1.401182 0.000000 7.772191
v 0.700590 1.213458 7.772192
v -0.000000 -0.000000 7.772192
v -1.282827 -2.221922 3.776443
v 1.282830 -2.221923 3.776443
v 2.565657 0.000000 3.776443
v 1.282828 2.221923 3.776443
v -1.282828 2.221923 3.776443
v -2.565655 0.000000 3.776443
vt 0.135122 0.302377
vt 0.135120 0.302447
vt 0.080495 0.272051
vt 0.080487 0.272069
vt 0.080502 0.272070
vt 0.080501 0.272108
vt 0.080493 0.272127
vt 0.080486 0.272108
vt 0.081021 0.272065
vt 0.081019 0.272083
vt 0.081021 0.272122
vt 0.081019 0.272142
vt 0.134298 0.302596
vt 0.134305 0.302146
vt 0.080736 0.272076
vt 0.080742 0.272057
vt 0.080746 0.272077
vt 0.080745 0.272115
vt 0.080740 0.272134
vt 0.080735 0.272115
vt 0.080969 0.272082
vt 0.080969 0.272140
vt 0.080972 0.272121
vt 0.080972 0.272063
vt 0.134399 0.301596
vt 0.135193 0.301821
vt 0.134398 0.301997
vt 0.135190 0.301891
vt 0.132283 0.180260
vt 0.132291 0.180365
vt 0.132213 0.180435
vt 0.132197 0.180266
vt 0.132305 0.180353
vt 0.132238 0.180412
vt 0.132310 0.180241
vt 0.132248 0.180236
vt 0.132303 0.180138
vt 0.132234 0.180072
vt 0.132289 0.180144
vt 0.132208 0.180079
vt 0.132182 0.180250
vt 0.133014 0.180258
vt 0.133011 0.180142
vt 0.133082 0.180003
vt 0.133092 0.180271
vt 0.133005 0.180136
vt 0.133063 0.179998
vt 0.133001 0.180240
vt 0.133053 0.180229
vt 0.133004 0.180352
vt 0.133061 0.180476
vt 0.133011 0.180364
vt 0.133080 0.180513
vt 0.133130 0.180248
vt 0.132759 0.180106
vt 0.132758 0.180112
vt 0.132760 0.180238
vt 0.132760 0.180380
vt 0.132759 0.180397
vt 0.132758 0.180262
vn 0.991724 0.126440 0.022299
vn 0.991724 0.126440 0.022299
vn 0.991724 0.126440 0.022299
vn 0.991724 0.126440 0.022299
vn 0.000000 0.905179 0.425032
vn 0.000000 0.905179 0.425032
vn 0.000000 0.905179 0.425032
vn 0.000000 0.905179 0.425032
vn -0.638877 0.000000 -0.769309
vn -0.638877 0.000000 -0.769309
vn -0.638877 0.000000 -0.769309
vn 0.000000 -0.914248 0.405156
vn 0.000000 -0.914248 0.405156
vn 0.000000 -0.914248 0.405156
vn 0.000000 -0.914248 0.405156
vn 0.513806 -0.296654 -0.804984
vn 0.513806 -0.296654 -0.804984
vn 0.513806 -0.296654 -0.804984
vn 0.517060 0.298531 -0.802202
vn 0.517060 0.298531 -0.802202
vn 0.517060 0.298531 -0.802202
vn 0.000000 0.992182 0.124797
vn 0.000000 0.992182 0.124797
vn 0.000000 0.992182 0.124797
vn 0.000000 0.992182 0.124797
vn 0.000000 -0.991460 0.130412
vn 0.000000 -0.991460 0.130412
vn 0.000000 -0.991460 0.130412
vn 0.000000 -0.991460 0.130412
vn 0.000000 -0.000008 1.000000
vn 0.000000 -0.000008 1.000000
vn 0.000000 -0.000008 1.000000
vn 0.000000 -0.000008 1.000000
vn -0.991723 0.126443 0.022299
vn -0.991723 0.126443 0.022299
vn -0.991723 0.126443 0.022299
vn -0.991723 0.126443 0.022299
vn 0.000000 0.000000 -1.000000
vn 0.000000 0.000000 -1.000000
vn 0.000000 0.000000 -1.000000
vn 0.000000 0.000000 -1.000000
vn 0.000000 -0.000000 -1.000000
vn 0.000000 -0.000000 -1.000000
vn 0.000000 -0.000000 -1.000000
vn 0.000000 -0.000000 -1.000000
vn 0.000000 1.000000 0.000000
vn 0.000000 1.000000 0.000000
vn 0.000000 1.000000 0.000000
vn 0.000000 1.000000 0.000000
vn -0.866026 0.500000 0.000000
vn -0.866026 0.500000 0.000000
vn -0.866026 0.500000 0.000000
vn -0.866026 0.500000 0.000000
vn -0.866026 -0.500000 -0.000000
vn -0.866026 -0.500000 -0.000000
vn -0.866026 -0.500000 -0.000000
vn -0.866026 -0.500000 -0.000000
vn 0.000000 -1.000000 -0.000000
vn 0.000000 -1.000000 -0.000000
vn 0.000000 -1.000000 -0.000000
vn 0.000000 -1.000000 -0.000000
vn 0.866026 -0.500000 -0.000000
vn 0.866026 -0.500000 -0.000000
vn 0.866026 -0.500000 -0.000000
vn 0.866026 -0.500000 -0.000000
vn 0.866026 0.500000 0.000000
vn 0.866026 0.500000 0.000000
vn 0.866026 0.500000 0.000000
vn 0.866026 0.500000 0.000000
vn 0.997203 0.074746 -0.000060
vn 0.997203 0.074746 -0.000060
vn 0.997203 0.074746 -0.000060
vn 0.997203 0.074746 -0.000060
vn 0.000000 -1.000000 -0.000969
vn 0.000000 -1.000000 -0.000969
vn 0.000000 -1.000000 -0.000969
vn 0.000000 -1.000000 -0.000969
vn -0.997203 0.074747 -0.000060
vn -0.997203 0.074747 -0.000060
vn -0.997203 0.074747 -0.000060
vn -0.997203 0.074747 -0.000060
vn 0.000000 1.000000 -0.000024
vn 0.000000 1.000000 -0.000024
vn 0.000000 1.000000 -0.000024
vn 0.000000 1.000000 -0.000024
vn -0.517059 0.298534 -0.802201
vn -0.517059 0.298534 -0.802201
vn -0.517059 0.298534 -0.802201
vn -0.513806 -0.296654 -0.804984
vn -0.513806 -0.296654 -0.804984
vn -0.513806 -0.296654 -0.804984
vn 0.638877 0.000000 -0.769309
vn 0.638877 0.000000 -0.769309
vn 0.638877 0.000000 -0.769309
vn -0.000000 0.832434 -0.554124
vn -0.000000 0.832434 -0.554124
vn -0.000000 0.832434 -0.554124
vn -0.000000 0.832434 -0.554124
vn 0.720909 0.416216 -0.554125
vn 0.720909 0.416216 -0.554125
vn 0.720909 0.416216 -0.554125
vn 0.720909 0.416216 -0.554125
vn 0.720908 -0.416217 -0.554125
vn 0.720908 -0.416217 -0.554125
vn 0.720908 -0.416217 -0.554125
vn 0.720908 -0.416217 -0.554125
vn 0.000000 -0.832434 -0.554124
vn 0.000000 -0.832434 -0.554124
vn 0.000000 -0.832434 -0.554124
vn 0.000000 -0.832434 -0.554124
vn -0.720908 -0.416217 -0.554125
vn -0.720908 -0.416217 -0.554125
vn -0.720908 -0.416217 -0.554125
vn -0.720908 -0.416217 -0.554125
vn -0.720909 0.416217 -0.554125
vn -0.720909 0.416217 -0.554125
vn -0.720909 0.416217 -0.554125
vn -0.720909 0.416217 -0.554125
vn 0.000000 0.248506 -0.968631
vn 0.000000 0.248506 -0.968631
vn 0.000000 0.248506 -0.968631
vn 0.215213 0.124252 -0.968630
vn 0.215213 0.124252 -0.968630
vn 0.215213 0.124252 -0.968630
vn 0.215213 -0.124253 -0.968630
vn 0.215213 -0.124253 -0.968630
vn 0.215213 -0.124253 -0.968630
vn 0.000000 -0.248506 -0.968630
vn 0.000000 -0.248506 -0.968630
vn 0.000000 -0.248506 -0.968630
vn -0.215212 -0.124254 -0.968630
vn -0.215212 -0.124254 -0.968630
vn -0.215212 -0.124254 -0.968630
vn -0.215211 0.124253 -0.968631
vn -0.215211 0.124253 -0.968631
vn -0.215211 0.124253 -0.968631
vn -0.730185 0.421572 0.537686
vn -0.730185 0.421572 0.537686
vn -0.730185 0.421572 0.537686
vn -0.730185 0.421572 0.537686
vn -0.730185 -0.421572 0.537687
vn -0.730185 -0.421572 0.537687
vn -0.730185 -0.421572 0.537687
vn -0.730185 -0.421572 0.537687
vn 0.000000 -0.843145 0.537686
vn 0.000000 -0.843145 0.537686
vn 0.000000 -0.843145 0.537686
vn 0.000000 -0.843145 0.537686
vn 0.730185 -0.421573 0.537686
vn 0.730185 -0.421573 0.537686
vn 0.730185 -0.421573 0.537686
vn 0.730185 -0.421573 0.537686
vn 0.730185 0.421573 0.537686
vn 0.730185 0.421573 0.537686
vn 0.730185 0.421573 0.537686
vn 0.730185 0.421573 0.537686
vn 0.000000 0.843145 0.537686
vn 0.000000 0.843145 0.537686
vn 0.000000 0.843145 0.537686
vn 0.000000 0.843145 0.537686
vn 0.000000 -0.000000 1.000000
vn 0.000000 -0.000000 1.000000
vn 0.000000 -0.000000 1.000000
vn -0.000000 -0.000000 1.000000
vn -0.000000 -0.000000 1.000000
vn -0.000000 -0.000000 1.000000
vn 0.000000 -0.000000 1.000000
vn 0.000000 -0.000000 1.000000
vn 0.000000 -0.000000 1.000000
vn 0.000000 -0.000000 1.000000
vn 0.000000 -0.000000 1.000000
vn 0.000000 -0.000000 1.000000
vn -0.000000 -0.000001 1.000000
vn -0.000000 -0.000001 1.000000
vn -0.000000 -0.000001 1.000000
vn 0.000000 -0.000000 1.000000
vn 0.000000 -0.000000 1.000000
vn 0.000000 -0.000000 1.000000
vn -0.866025 -0.500001 0.000000
vn -0.866025 -0.500001 0.000000
vn -0.861475 -0.497374 -0.102371
vn -0.861475 -0.497374 -0.102371
vn -0.000000 -1.000000 0.000000
vn -0.000000 -1.000000 0.000000
vn 0.000000 -0.994746 -0.102371
vn 0.000000 -0.994746 -0.102371
vn 0.866026 -0.500000 -0.000000
vn 0.866026 -0.500000 -0.000000
vn 0.861476 -0.497373 -0.102371
vn 0.861476 -0.497373 -0.102371
vn 0.866025 0.500000 -0.000000
vn 0.866025 0.500000 -0.000000
vn 0.861475 0.497373 -0.102371
vn 0.861475 0.497373 -0.102371
vn 0.000000 1.000000 0.000000
vn 0.000000 1.000000 0.000000
vn -0.000000 0.994746 -0.102371
vn -0.000000 0.994746 -0.102371
vn -0.866025 0.500000 0.000000
vn -0.866025 0.500000 0.000000
vn -0.861476 0.497373 -0.102371
vn -0.861476 0.497373 -0.102371
vn 0.000000 0.994490 0.104832
vn 0.000000 0.994490 0.104832
vn 0.000000 0.994490 0.104832
vn 0.000000 0.994490 0.104832
vn 0.861253 0.497245 0.104833
vn 0.861253 0.497245 0.104833
vn 0.861253 0.497245 0.104833
vn 0.861253 0.497245 0.104833
vn 0.861253 -0.497245 0.104833
vn 0.861253 -0.497245 0.104833
vn 0.861253 -0.497245 0.104833
vn 0.861253 -0.497245 0.104833
vn -0.000000 -0.994490 0.104832
vn -0.000000 -0.994490 0.104832
vn -0.000000 -0.994490 0.104832
vn -0.000000 -0.994490 0.104832
vn -0.861253 -0.497245 0.104832
vn -0.861253 -0.497245 0.104832
vn -0.861253 -0.497245 0.104832
vn -0.861253 -0.497245 0.104832
vn -0.861254 0.497245 0.104832
vn -0.861254 0.497245 0.104832
vn -0.861254 0.497245 0.104832
vn -0.861254 0.497245 0.104832
s off
f 11/1/1 14/2/2 10/13/3 7/14/4
f 15/15/5 16/16/6 24/24/7 21/21/8
f 23/23/9 24/24/10 17/17/11
f 18/18/12 19/19/13 22/22/14 23/23/15
f 19/19/16 20/20/17 22/22/18
f 20/20/19 15/15/20 21/21/21
f 7/14/22 8/25/23 12/26/24 11/1/25
f 9/27/26 10/13/27 14/2/28 13/28/29
f 11/1/30 12/26/31 13/28/32 14/2/33
f 13/28/34 12/26/35 8/25/36 9/27/37
f 3/5/38 2/3/39 1/4/40 6/8/41
f 3/5/42 6/8/43 5/7/44 4/6/45
f 1/4/46 2/3/47 16/16/48 15/15/49
f 2/3/50 3/5/51 17/17/52 16/16/53
f 3/5/54 4/6/55 18/18/56 17/17/57
f 4/6/58 5/7/59 19/19/60 18/18/61
f 5/7/62 6/8/63 20/20/64 19/19/65
f 6/8/66 1/4/67 15/15/68 20/20/69
f 7/10/70 10/12/71 22/22/72 21/21/73
f 23/23/74 22/22/75 10/12/76 9/11/77
f 9/11/78 8/9/79 24/24/80 23/23/81
f 21/21/82 24/24/83 8/9/84 7/10/85
f 16/16/86 17/17/87 24/24/88
f 17/17/89 18/18/90 23/23/91
f 21/21/92 22/22/93 20/20/94
f 31/29/95 32/30/96 38/31/97 37/32/98
f 32/30/99 33/33/100 39/34/101 38/31/102
f 33/33/103 34/35/104 40/36/105 39/34/106
f 34/35/107 35/37/108 41/38/109 40/36/110
f 35/37/111 36/39/112 42/40/113 41/38/114
f 36/39/115 31/29/116 37/32/117 42/40/118
f 37/32/119 38/31/120 43/41/121
f 38/31/122 39/34/123 43/41/124
f 39/34/125 40/36/126 43/41/127
f 40/36/128 41/38/129 43/41/130
f 41/38/131 42/40/132 43/41/133
f 42/40/134 37/32/135 43/41/136
f 25/42/137 30/43/138 44/44/139 45/45/140
f 30/43/141 29/46/142 46/47/143 44/44/144
f 29/46/145 28/48/146 47/49/147 46/47/148
f 28/48/149 27/50/150 48/51/151 47/49/152
f 27/50/153 26/52/154 49/53/155 48/51/156
f 26/52/157 25/42/158 45/45/159 49/53/160
f 45/45/161 44/44/162 50/54/163
f 44/44/164 46/47/165 50/54/166
f 46/47/167 47/49/168 50/54/169
f 47/49/170 48/51/171 50/54/172
f 48/51/173 49/53/174 50/54/175
f 49/53/176 45/45/177 50/54/178
f 51/55/179 56/56/180 36/39/181 35/37/182
f 52/57/183 51/55/184 35/37/185 34/35/186
f 53/58/187 52/57/188 34/35/189 33/33/190
f 54/59/191 53/58/192 33/33/193 32/30/194
f 55/60/195 54/59/196 32/30/197 31/29/198
f 56/56/199 55/60/200 31/29/201 36/39/202
f 25/42/203 26/52/204 54/59/205 55/60/206
f 26/52/207 27/50/208 53/58/209 54/59/210
f 27/50/211 28/48/212 52/57/213 53/58/214
f 28/48/215 29/46/216 51/55/217 52/57/218
f 29/46/219 30/43/220 56/56/221 51/55/222
f 30/43/223 25/42/224 55/60/225 56/56/226
