# This file uses centimeters as units for non-parametric coordinates.

v 41.965599 1.765912 1.881997
v 45.036625 1.765912 1.881997
v 41.965599 8.234092 1.881997
v 45.036625 8.234092 1.881997
v 41.965599 8.234092 -1.881986
v 45.036625 8.234092 -1.881986
v 41.965599 1.765912 -1.881986
v 45.036625 1.765912 -1.881986
v 4.999347 10.000000 -2.499992
v -4.999652 10.000000 -2.499992
v -4.999652 10.000000 2.500008
v 4.999347 10.000000 2.500008
v -4.999652 6.098705 2.500008
v 4.999347 6.098705 2.500008
v 36.243031 0.000000 2.500008
v 36.243031 0.000000 -2.499992
v 4.999347 6.098705 -2.499992
v 36.243031 10.000000 -2.499992
v 36.243031 10.000000 2.500008
v 49.999847 0.000000 2.500008
v 49.999847 0.000000 -2.499992
v 40.690914 2.189799 -2.499992
v 39.526890 5.000004 -2.499992
v 39.526890 5.000004 2.500008
v 40.690914 2.189799 2.500008
v 43.501122 1.025773 -2.499992
v 43.501122 1.025773 2.500008
v 40.690914 7.810210 -2.499992
v 40.690914 7.810210 2.500008
v 46.311329 2.189798 -2.499992
v 46.311329 2.189798 2.500008
v 43.501122 8.974236 -2.499992
v 43.501122 8.974236 2.500008
v 47.475353 5.000004 -2.499992
v 47.475353 5.000004 2.500008
v 52.507713 1.071529 -2.499985
v 52.507713 1.071529 2.500000
v 49.999847 10.000000 2.500008
v 49.999847 10.000000 -2.499992
v 46.311329 7.810210 -2.499992
v 46.311329 7.810210 2.500008
v 52.507713 8.928473 -2.499985
v 52.507713 8.928473 2.500000
v -50.000153 0.000000 2.500008
v -4.999652 6.098705 -2.499992
v -50.000153 0.000000 -2.499992
v -50.000153 10.000000 2.500008
v -50.000153 10.000000 -2.499992
v -52.508018 8.928473 2.500000
v -52.508018 8.928473 -2.499985
v -52.508018 1.071529 2.500000
v -52.508018 1.071529 -2.499985
v 43.501122 10.000000 2.500008
v 43.501122 10.000000 -2.499992
v 43.501122 0.000000 2.500008
v 43.501122 0.000000 -2.499992
v 4.399347 9.600000 -2.099992
v -4.399652 9.600000 -2.099992
v -4.399652 9.600000 2.100008
v 4.399347 9.600000 2.100008
v -4.399652 6.698706 2.100008
v 4.399347 6.698706 2.100008
v 4.399347 6.698706 -2.099992
v -4.399652 6.698706 -2.099992
v 5.781001 5.317370 -2.499992
v -5.776735 5.317370 -2.499992
v -5.776731 10.000000 -2.499992
v -5.776731 10.000000 2.500008
v -5.776731 5.317371 2.500008
v 5.780998 5.317371 2.500008
v 5.780998 10.000000 2.500008
v 5.780998 10.000000 -2.499992
v 41.311466 2.810353 -2.499992
v 40.404484 5.000004 -2.499992
v 40.404484 5.000004 2.500008
v 41.311466 2.810353 2.500008
v 43.501122 1.903369 -2.499992
v 43.501122 1.903369 2.500008
v 41.311466 7.189656 -2.499992
v 41.311466 7.189656 2.500008
v 45.690777 2.810352 -2.499992
v 45.690777 2.810352 2.500008
v 43.501122 8.096640 -2.499992
v 43.501122 8.096640 2.500008
v 46.597759 5.000004 -2.499992
v 46.597759 5.000004 2.500008
v 45.690777 7.189656 -2.499992
v 45.690777 7.189656 2.500008
vt 0.143907 0.305217
vt 0.143496 0.305227
vt 0.143450 0.304431
vt 0.143873 0.304422
vt 0.143477 0.304236
vt 0.143886 0.304227
vt 0.143520 0.305010
vt 0.143918 0.305001
vt 0.145886 0.304085
vt 0.146787 0.304095
vt 0.146811 0.304183
vt 0.145811 0.304171
vt 0.146802 0.304504
vt 0.145819 0.304487
vt 0.080011 0.277915
vt 0.080011 0.278273
vt 0.080074 0.278216
vt 0.080075 0.277917
vt 0.080045 0.278372
vt 0.079979 0.278431
vt 0.079979 0.278060
vt 0.080046 0.278061
vt 0.208032 0.301590
vt 0.208093 0.301591
vt 0.208106 0.301578
vt 0.208046 0.301577
vt 0.080798 0.279706
vt 0.080887 0.279472
vt 0.080756 0.279321
vt 0.080654 0.279583
vt 0.080574 0.279815
vt 0.080403 0.279708
vt 0.080789 0.279260
vt 0.080649 0.279086
vt 0.080355 0.279735
vt 0.080162 0.279620
vt 0.080570 0.279193
vt 0.080407 0.279015
vt 0.080270 0.279522
vt 0.080071 0.279385
vt 0.080007 0.276994
vt 0.080020 0.276982
vt 0.079997 0.276972
vt 0.079984 0.276984
vt 0.208148 0.301496
vt 0.208087 0.301495
vt 0.208100 0.301483
vt 0.208160 0.301484
vt 0.080359 0.279301
vt 0.080172 0.279139
vt 0.080015 0.276891
vt 0.079992 0.276901
vt 0.079979 0.276912
vt 0.080002 0.276903
vt 0.208065 0.301530
vt 0.208074 0.301503
vt 0.208040 0.301482
vt 0.208052 0.301542
vt 0.208064 0.301570
vt 0.208077 0.301557
vt 0.208026 0.301494
vt 0.208085 0.301505
vt 0.208060 0.301516
vt 0.080962 0.278460
vt 0.080898 0.278397
vt 0.145892 0.304372
vt 0.146780 0.304385
vt 0.209026 0.301596
vt 0.208168 0.301579
vt 0.208156 0.301592
vt 0.209024 0.301610
vt 0.080891 0.278239
vt 0.080952 0.278300
vt 0.080911 0.278084
vt 0.080979 0.278086
vt 0.080968 0.277940
vt 0.080903 0.277938
vt 0.080952 0.277013
vt 0.080955 0.276920
vt 0.080979 0.276930
vt 0.080977 0.277004
vt 0.080954 0.276908
vt 0.080978 0.276919
vt 0.080975 0.276991
vt 0.080951 0.277000
vt 0.208089 0.301581
vt 0.208113 0.301570
vt 0.208122 0.301544
vt 0.208110 0.301516
vt 0.208123 0.301504
vt 0.208134 0.301531
vt 0.208098 0.301493
vt 0.208126 0.301558
vt 0.208102 0.301568
vt 0.080857 0.278103
vt 0.080852 0.277979
vt 0.080122 0.277961
vt 0.080100 0.278083
vt 0.080099 0.278313
vt 0.080848 0.278335
vt 0.080121 0.278184
vt 0.080844 0.278204
vt 0.208594 0.301541
vt 0.208477 0.301539
vt 0.209025 0.301500
vt 0.208593 0.301492
vt 0.209026 0.301512
vt 0.208588 0.301504
vt 0.208588 0.301554
vt 0.208469 0.301552
vt 0.208468 0.301502
vt 0.208475 0.301490
vt 0.080864 0.279767
vt 0.080979 0.279464
vt 0.080858 0.279311
vt 0.080727 0.279651
vt 0.080574 0.279907
vt 0.080402 0.279811
vt 0.080851 0.279192
vt 0.080718 0.279010
vt 0.080294 0.279802
vt 0.080093 0.279696
vt 0.080570 0.279109
vt 0.080407 0.278922
vt 0.080187 0.279529
vt 0.079979 0.279393
vt 0.080301 0.279248
vt 0.080109 0.279080
vn 0.000000 0.000000 1.000000
vn 0.000000 0.000000 1.000000
vn 0.000000 0.000000 1.000000
vn 0.000000 0.000000 1.000000
vn 0.000000 1.000000 0.000000
vn 0.000000 1.000000 0.000000
vn 0.000000 1.000000 0.000000
vn 0.000000 1.000000 0.000000
vn 0.000000 0.000000 -1.000000
vn 0.000000 0.000000 -1.000000
vn 0.000000 0.000000 -1.000000
vn 0.000000 0.000000 -1.000000
vn 0.000000 -1.000000 0.000000
vn 0.000000 -1.000000 0.000000
vn 0.000000 -1.000000 0.000000
vn 0.000000 -1.000000 0.000000
vn 1.000000 0.000000 0.000000
vn 1.000000 0.000000 0.000000
vn 1.000000 0.000000 0.000000
vn 1.000000 0.000000 0.000000
vn -1.000000 0.000000 0.000000
vn -1.000000 0.000000 0.000000
vn -1.000000 0.000000 0.000000
vn -1.000000 0.000000 0.000000
vn 0.000000 1.000000 0.000000
vn 0.000000 1.000000 0.000000
vn 0.000000 1.000000 0.000000
vn 0.000000 1.000000 0.000000
vn 0.000000 0.000000 1.000000
vn 0.000000 0.000000 1.000000
vn 0.000000 0.000000 1.000000
vn 0.000000 0.000000 1.000000
vn 0.000000 0.000000 -1.000000
vn 0.000000 0.000000 -1.000000
vn 0.000000 0.000000 -1.000000
vn 0.000000 0.000000 -1.000000
vn 0.000000 0.000000 1.000000
vn 0.000000 0.000000 1.000000
vn 0.000000 0.000000 1.000000
vn 0.000000 0.000000 1.000000
vn 0.000000 1.000000 0.000000
vn 0.000000 1.000000 0.000000
vn 0.000000 1.000000 0.000000
vn 0.000000 1.000000 0.000000
vn 0.000000 -1.000000 0.000000
vn 0.000000 -1.000000 0.000000
vn 0.000000 -1.000000 0.000000
vn 0.000000 -1.000000 0.000000
vn 0.923880 0.382683 0.000000
vn 0.923880 0.382683 0.000000
vn 0.923880 0.382683 0.000000
vn 0.923880 0.382683 0.000000
vn 0.382683 0.923880 0.000000
vn 0.382683 0.923880 0.000000
vn 0.382683 0.923880 0.000000
vn 0.382683 0.923880 0.000000
vn 0.923880 -0.382683 0.000000
vn 0.923880 -0.382683 0.000000
vn 0.923880 -0.382683 0.000000
vn 0.923880 -0.382683 0.000000
vn -0.382683 0.923880 0.000000
vn -0.382683 0.923880 0.000000
vn -0.382683 0.923880 0.000000
vn -0.382683 0.923880 0.000000
vn 0.382683 -0.923880 0.000000
vn 0.382683 -0.923880 0.000000
vn 0.382683 -0.923880 0.000000
vn 0.382683 -0.923880 0.000000
vn -0.923880 0.382683 0.000000
vn -0.923880 0.382683 0.000000
vn -0.923880 0.382683 0.000000
vn -0.923880 0.382683 0.000000
vn 0.392906 -0.919579 0.000000
vn 0.392906 -0.919579 0.000000
vn 0.392906 -0.919579 0.000000
vn 0.392906 -0.919579 0.000000
vn 0.000000 1.000000 0.000000
vn 0.000000 1.000000 0.000000
vn 0.000000 1.000000 0.000000
vn 0.000000 1.000000 0.000000
vn -0.382683 -0.923880 0.000000
vn -0.382683 -0.923880 0.000000
vn -0.382683 -0.923880 0.000000
vn -0.382683 -0.923880 0.000000
vn -0.923880 -0.382683 0.000000
vn -0.923880 -0.382683 0.000000
vn -0.923880 -0.382683 0.000000
vn -0.923880 -0.382683 0.000000
vn 0.000003 0.000000 -1.000000
vn 0.000003 0.000000 -1.000000
vn 0.000003 0.000000 -1.000000
vn 0.000003 0.000000 -1.000000
vn 1.000000 0.000000 0.000000
vn 1.000000 0.000000 0.000000
vn 1.000000 0.000000 0.000000
vn 1.000000 0.000000 0.000000
vn 0.000003 0.000000 1.000000
vn 0.000003 0.000000 1.000000
vn 0.000003 0.000000 1.000000
vn 0.000003 0.000000 1.000000
vn 0.392906 0.919579 0.000000
vn 0.392906 0.919579 0.000000
vn 0.392906 0.919579 0.000000
vn 0.392906 0.919579 0.000000
vn 0.000000 0.000000 -1.000000
vn 0.000000 0.000000 -1.000000
vn 0.000000 0.000000 -1.000000
vn 0.000000 0.000000 1.000000
vn 0.000000 0.000000 1.000000
vn 0.000000 0.000000 1.000000
vn 0.000000 0.000000 -1.000000
vn 0.000000 0.000000 -1.000000
vn 0.000000 0.000000 -1.000000
vn 0.000000 0.000000 1.000000
vn 0.000000 0.000000 1.000000
vn 0.000000 0.000000 1.000000
vn 0.000000 0.000000 1.000000
vn 0.000000 0.000000 1.000000
vn 0.000000 0.000000 1.000000
vn 0.000000 0.000000 1.000000
vn 0.000000 0.000000 1.000000
vn 0.000000 0.000000 -1.000000
vn 0.000000 0.000000 -1.000000
vn 0.000000 0.000000 -1.000000
vn 0.000000 0.000000 -1.000000
vn -0.000000 -1.000000 0.000000
vn -0.000000 -1.000000 0.000000
vn -0.000000 -1.000000 0.000000
vn -0.000000 -1.000000 0.000000
vn 0.000000 0.000000 -1.000000
vn 0.000000 0.000000 -1.000000
vn 0.000000 0.000000 -1.000000
vn 0.000000 0.000000 -1.000000
vn 0.000000 0.000000 1.000000
vn 0.000000 0.000000 1.000000
vn 0.000000 0.000000 1.000000
vn 0.000000 0.000000 1.000000
vn 0.000000 1.000000 0.000000
vn 0.000000 1.000000 0.000000
vn 0.000000 1.000000 0.000000
vn 0.000000 1.000000 0.000000
vn -0.000000 0.000000 -1.000000
vn -0.000000 0.000000 -1.000000
vn -0.000000 0.000000 -1.000000
vn -0.000000 0.000000 -1.000000
vn -0.000003 0.000000 1.000000
vn -0.000003 0.000000 1.000000
vn -0.000003 0.000000 1.000000
vn -0.000003 0.000000 1.000000
vn -0.392906 0.919579 0.000000
vn -0.392906 0.919579 0.000000
vn -0.392906 0.919579 0.000000
vn -0.392906 0.919579 0.000000
vn -1.000000 0.000000 0.000000
vn -1.000000 0.000000 0.000000
vn -1.000000 0.000000 0.000000
vn -1.000000 0.000000 0.000000
vn -0.000003 0.000000 -1.000000
vn -0.000003 0.000000 -1.000000
vn -0.000003 0.000000 -1.000000
vn -0.000003 0.000000 -1.000000
vn -0.392906 -0.919579 0.000000
vn -0.392906 -0.919579 0.000000
vn -0.392906 -0.919579 0.000000
vn -0.392906 -0.919579 0.000000
vn 0.000000 1.000000 0.000000
vn 0.000000 1.000000 0.000000
vn 0.000000 1.000000 0.000000
vn 0.000000 1.000000 0.000000
vn 0.000000 -1.000000 0.000000
vn 0.000000 -1.000000 0.000000
vn 0.000000 -1.000000 0.000000
vn 0.000000 -1.000000 0.000000
vn 0.000000 0.000000 1.000000
vn 0.000000 0.000000 1.000000
vn 0.000000 0.000000 1.000000
vn 0.000000 0.000000 1.000000
vn 0.000000 0.000000 1.000000
vn 0.000000 0.000000 1.000000
vn -0.000000 0.000000 1.000000
vn -0.000000 0.000000 1.000000
vn -0.000000 0.000000 1.000000
vn -0.000000 0.000000 1.000000
vn -0.000000 0.000000 1.000000
vn -0.000000 0.000000 1.000000
vn -0.000000 0.000000 1.000000
vn -0.000000 0.000000 1.000000
vn 0.000000 0.000000 1.000000
vn 0.000000 0.000000 1.000000
vn 0.000000 0.000000 1.000000
vn 0.000000 0.000000 1.000000
vn 0.000000 0.000000 1.000000
vn 0.000000 0.000000 1.000000
vn 0.000000 0.000000 1.000000
vn 0.000000 0.000000 1.000000
vn 0.000000 0.000000 1.000000
vn 0.000000 0.000000 1.000000
vn 0.000000 0.000000 1.000000
vn 0.000000 0.000000 1.000000
vn 0.000000 0.000000 1.000000
vn 0.000000 0.000000 -1.000000
vn 0.000000 0.000000 -1.000000
vn 0.000000 0.000000 -1.000000
vn 0.000000 0.000000 -1.000000
vn 0.000000 0.000000 -1.000000
vn 0.000000 0.000000 -1.000000
vn 0.000000 0.000000 -1.000000
vn 0.000000 0.000000 -1.000000
vn 0.000000 0.000000 -1.000000
vn 0.000000 0.000000 -1.000000
vn 0.000000 0.000000 -1.000000
vn 0.000000 0.000000 -1.000000
vn 0.000000 0.000000 -1.000000
vn 0.000000 0.000000 -1.000000
vn 0.000000 0.000000 -1.000000
vn 0.000000 0.000000 -1.000000
vn 0.000000 0.000000 -1.000000
vn -0.000000 0.000000 -1.000000
vn -0.000000 0.000000 -1.000000
vn -0.000000 0.000000 -1.000000
vn -0.000000 0.000000 -1.000000
vn -0.000000 0.000000 -1.000000
vn -0.000000 0.000000 -1.000000
vn -0.000000 0.000000 -1.000000
vn 0.000000 0.000000 -1.000000
vn 0.000000 0.000000 -1.000000
vn 0.000000 0.000000 -1.000000
vn 0.000000 0.000000 -1.000000
vn 0.554700 0.832050 0.000000
vn 0.554700 0.832050 0.000000
vn 0.554700 0.832050 0.000000
vn 0.554700 0.832050 0.000000
vn -0.554700 0.832050 0.000000
vn -0.554700 0.832050 0.000000
vn -0.554700 0.832050 0.000000
vn -0.554700 0.832050 0.000000
vn 0.000000 0.554700 0.832050
vn 0.000000 0.554700 0.832050
vn 0.000000 0.554700 0.832050
vn 0.000000 0.554700 0.832050
vn -0.554700 0.000000 0.832050
vn -0.554700 0.000000 0.832050
vn -0.554700 0.000000 0.832050
vn -0.554700 0.000000 0.832050
vn 0.554700 0.000000 0.832050
vn 0.554700 0.000000 0.832050
vn 0.554700 0.000000 0.832050
vn 0.554700 0.000000 0.832050
vn -0.554700 0.000000 -0.832050
vn -0.554700 0.000000 -0.832050
vn -0.554700 0.000000 -0.832050
vn -0.554700 0.000000 -0.832050
vn 0.000000 0.554700 -0.832050
vn 0.000000 0.554700 -0.832050
vn 0.000000 0.554700 -0.832050
vn 0.000000 0.554700 -0.832050
vn 0.554700 0.000000 -0.832050
vn 0.554700 0.000000 -0.832050
vn 0.554700 0.000000 -0.832050
vn 0.554700 0.000000 -0.832050
vn 0.000000 0.000000 -1.000000
vn 0.000000 0.000000 -1.000000
vn 0.000000 0.000000 -1.000000
vn 0.000000 0.000000 -1.000000
vn 0.000000 0.000000 -1.000000
vn 0.000000 0.000000 -1.000000
vn 0.000000 0.000000 -1.000000
vn 0.000000 0.000000 -1.000000
vn 0.000000 1.000000 0.000000
vn 0.000000 1.000000 0.000000
vn 0.000000 1.000000 0.000000
vn 0.000000 1.000000 0.000000
vn 0.000000 0.000000 1.000000
vn 0.000000 0.000000 1.000000
vn 0.000000 0.000000 1.000000
vn 0.000000 0.000000 1.000000
vn 0.000000 0.000000 1.000000
vn 0.000000 0.000000 1.000000
vn 0.000000 0.000000 1.000000
vn 0.000000 0.000000 1.000000
vn 0.000000 0.000000 1.000000
vn 0.000000 0.000000 1.000000
vn 0.000000 0.000000 1.000000
vn 0.000000 0.000000 1.000000
vn 0.000000 1.000000 0.000000
vn 0.000000 1.000000 0.000000
vn 0.000000 1.000000 0.000000
vn 0.000000 1.000000 0.000000
vn 0.000000 0.000000 -1.000000
vn 0.000000 0.000000 -1.000000
vn 0.000000 0.000000 -1.000000
vn 0.000000 0.000000 -1.000000
vn 0.000000 0.000000 -1.000000
vn 0.000000 0.000000 -1.000000
vn 0.000000 0.000000 -1.000000
vn 0.000000 0.000000 -1.000000
vn 0.000000 0.000000 1.000000
vn 0.000000 0.000000 1.000000
vn 0.000000 0.000000 1.000000
vn 0.000000 0.000000 1.000000
vn -0.000000 0.000000 -1.000000
vn -0.000000 0.000000 -1.000000
vn -0.000000 0.000000 -1.000000
vn -0.000000 0.000000 -1.000000
vn 0.000000 0.000000 1.000000
vn 0.000000 0.000000 1.000000
vn 0.000000 0.000000 1.000000
vn 0.000000 0.000000 1.000000
vn -0.000000 0.000000 -1.000000
vn -0.000000 0.000000 -1.000000
vn -0.000000 0.000000 -1.000000
vn -0.000000 0.000000 -1.000000
vn 0.000000 0.000000 1.000000
vn 0.000000 0.000000 1.000000
vn 0.000000 0.000000 1.000000
vn 0.000000 0.000000 1.000000
vn 0.000000 0.000000 -1.000000
vn 0.000000 0.000000 -1.000000
vn 0.000000 0.000000 -1.000000
vn 0.000000 0.000000 -1.000000
vn 0.000000 0.000000 1.000000
vn 0.000000 0.000000 1.000000
vn 0.000000 0.000000 1.000000
vn 0.000000 0.000000 1.000000
vn 0.000000 0.000000 -1.000000
vn 0.000000 0.000000 -1.000000
vn 0.000000 0.000000 -1.000000
vn 0.000000 0.000000 -1.000000
vn 0.000000 0.000000 1.000000
vn 0.000000 0.000000 1.000000
vn 0.000000 0.000000 1.000000
vn 0.000000 0.000000 1.000000
vn -0.000000 0.000000 -1.000000
vn -0.000000 0.000000 -1.000000
vn -0.000000 0.000000 -1.000000
vn -0.000000 0.000000 -1.000000
vn 0.000000 0.000000 1.000000
vn 0.000000 0.000000 1.000000
vn 0.000000 0.000000 1.000000
vn 0.000000 0.000000 1.000000
vn 0.000000 0.000000 -1.000000
vn 0.000000 0.000000 -1.000000
vn 0.000000 0.000000 -1.000000
vn 0.000000 0.000000 -1.000000
vn 0.000000 0.000000 1.000000
vn 0.000000 0.000000 1.000000
vn 0.000000 0.000000 1.000000
vn 0.000000 0.000000 1.000000
vn 0.000000 0.000000 -1.000000
vn 0.000000 0.000000 -1.000000
vn 0.000000 0.000000 -1.000000
vn 0.000000 0.000000 -1.000000
vn 0.000000 0.000000 1.000000
vn 0.000000 0.000000 1.000000
vn 0.000000 0.000000 1.000000
vn 0.000000 0.000000 1.000000
s off
f 1/1/1 2/2/2 4/3/3 3/4/4
f 3/4/5 4/3/6 6/5/7 5/6/8
f 5/6/9 6/5/10 8/7/11 7/8/12
f 7/8/13 8/7/14 2/2/15 1/1/16
f 2/2/17 8/7/18 6/5/19 4/3/20
f 7/8/21 1/1/22 3/4/23 5/6/24
f 57/9/25 58/10/26 59/11/27 60/12/28
f 61/13/29 62/14/30 60/12/31 59/11/32
f 72/15/33 65/16/34 17/17/35 9/18/36
f 14/19/37 70/20/38 71/21/39 12/22/40
f 9/18/41 12/22/42 71/21/43 72/15/44
f 20/23/45 55/24/46 56/25/47 21/26/48
f 73/27/49 74/28/50 75/29/51 76/30/52
f 77/31/53 73/27/54 76/30/55 78/32/56
f 74/28/57 79/33/58 80/34/59 75/29/60
f 81/35/61 77/31/62 78/32/63 82/36/64
f 79/33/65 83/37/66 84/38/67 80/34/68
f 85/39/69 81/35/70 82/36/71 86/40/72
f 20/41/73 21/42/74 36/43/75 37/44/76
f 19/45/77 53/46/78 54/47/79 18/48/80
f 83/37/81 87/49/82 88/50/83 84/38/84
f 87/49/85 85/39/86 86/40/87 88/50/88
f 36/43/89 21/42/90 39/51/91 42/52/92
f 37/44/93 36/43/94 42/52/95 43/53/96
f 38/54/97 20/41/98 37/44/99 43/53/100
f 39/51/101 38/54/102 43/53/103 42/52/104
f 34/55/105 40/56/106 39/57/107
f 35/58/108 31/59/109 20/23/110
f 21/26/111 30/60/112 34/55/113
f 38/61/114 53/46/115 33/62/116 41/63/117
f 69/64/118 70/20/119 14/19/120 13/65/121
f 58/10/122 57/9/123 63/66/124 64/67/125
f 46/68/126 16/69/127 15/70/128 44/71/129
f 45/72/130 17/17/131 65/16/132 66/73/133
f 13/65/134 11/74/135 68/75/136 69/64/137
f 67/76/138 68/75/139 11/74/140 10/77/141
f 66/73/142 67/76/143 10/77/144 45/72/145
f 44/78/146 47/79/147 49/80/148 51/81/149
f 47/79/150 48/82/151 50/83/152 49/80/153
f 49/80/154 50/83/155 52/84/156 51/81/157
f 50/83/158 48/82/159 46/85/160 52/84/161
f 46/85/162 44/78/163 51/81/164 52/84/165
f 53/46/166 38/61/167 39/57/168 54/47/169
f 55/24/170 15/70/171 16/69/172 56/25/173
f 38/61/174 35/58/175 20/23/176
f 38/61/177 41/63/178 35/58/179
f 55/24/180 27/86/181 25/87/182 15/70/183
f 20/23/184 31/59/185 27/86/186 55/24/187
f 15/70/188 24/88/189 19/45/190
f 15/70/191 25/87/192 24/88/193
f 33/62/194 53/46/195 19/45/196 29/89/197
f 29/89/198 19/45/199 24/88/200
f 18/48/201 28/90/202 23/91/203
f 39/57/204 40/56/205 32/92/206 54/47/207
f 21/26/208 34/55/209 39/57/210
f 22/93/211 16/69/212 23/91/213
f 21/26/214 56/25/215 26/94/216 30/60/217
f 26/94/218 56/25/219 16/69/220 22/93/221
f 16/69/222 18/48/223 23/91/224
f 54/47/225 32/92/226 28/90/227 18/48/228
f 10/77/229 11/74/230 59/95/231 58/96/232
f 12/22/233 9/18/234 57/97/235 60/98/236
f 13/65/237 14/19/238 62/99/239 61/100/240
f 14/19/241 12/22/242 60/98/243 62/99/244
f 11/74/245 13/65/246 61/100/247 59/95/248
f 9/18/249 17/17/250 63/101/251 57/97/252
f 17/17/253 45/72/254 64/102/255 63/101/256
f 45/72/257 10/77/258 58/96/259 64/102/260
f 66/103/261 65/104/262 16/69/263 46/68/264
f 48/105/265 67/106/266 66/103/267 46/68/268
f 47/107/269 68/108/270 67/106/271 48/105/272
f 69/109/273 68/108/274 47/107/275 44/71/276
f 44/71/277 15/70/278 70/110/279 69/109/280
f 71/111/281 70/110/282 15/70/283 19/45/284
f 72/112/285 71/111/286 19/45/287 18/48/288
f 16/69/289 65/104/290 72/112/291 18/48/292
f 22/113/293 23/114/294 74/28/295 73/27/296
f 24/115/297 25/116/298 76/30/299 75/29/300
f 26/117/301 22/113/302 73/27/303 77/31/304
f 25/116/305 27/118/306 78/32/307 76/30/308
f 23/114/309 28/119/310 79/33/311 74/28/312
f 29/120/313 24/115/314 75/29/315 80/34/316
f 30/121/317 26/117/318 77/31/319 81/35/320
f 27/118/321 31/122/322 82/36/323 78/32/324
f 28/119/325 32/123/326 83/37/327 79/33/328
f 33/124/329 29/120/330 80/34/331 84/38/332
f 34/125/333 30/121/334 81/35/335 85/39/336
f 31/122/337 35/126/338 86/40/339 82/36/340
f 32/123/341 40/127/342 87/49/343 83/37/344
f 41/128/345 33/124/346 84/38/347 88/50/348
f 40/127/349 34/125/350 85/39/351 87/49/352
f 35/126/353 41/128/354 88/50/355 86/40/356
