# This file uses centimeters as units for non-parametric coordinates.

v -8.211710 10.805796 1.663855
v -8.594229 10.965347 1.170925
v -8.401676 10.350358 1.170925
v -6.738046 14.338851 1.170925
v -7.310532 14.042965 1.170925
v -6.928013 13.883413 1.663855
v -8.401676 10.350358 -1.170917
v -8.594229 10.965347 -1.170917
v -8.211710 10.805796 -1.663848
v -6.928013 13.883413 -1.663848
v -7.310532 14.042965 -1.170917
v -6.738046 14.338851 -1.170917
v -7.205220 9.851307 -1.170917
v -7.015253 10.306746 -1.663848
v -5.731556 13.384362 -1.663848
v -5.541590 13.839800 -1.170917
v -7.015253 10.306746 1.663855
v -7.205220 9.851307 1.170925
v -5.541590 13.839800 1.170925
v -5.731556 13.384362 1.663855
v 5.871997 14.875457 -3.407845
v 0.000000 17.307718 -3.407845
v -5.871997 14.875457 -3.407845
v -8.304258 9.003462 -3.407845
v -5.871997 3.131463 -3.407845
v 0.000000 2.106313 -3.407845
v 5.871998 3.131463 -3.407845
v 8.304259 9.003462 -3.407845
v 5.871997 14.875457 3.407845
v 0.000000 17.307718 3.407845
v -5.871997 14.875457 3.407845
v -8.304258 9.003462 3.407845
v -5.871997 3.131463 3.407845
v 0.000000 2.106313 3.407845
v 5.871998 3.131463 3.407845
v 8.304259 9.003462 3.407845
v -7.176325 2.309403 -3.407845
v -7.176325 2.309403 3.407845
v 7.176326 2.309402 -3.407845
v 7.176326 2.309402 3.407845
v -5.871997 0.000000 -3.407845
v 0.000000 0.000000 -3.407845
v 0.000000 0.000000 3.407845
v -5.871997 0.000000 3.407845
v 5.871998 0.000000 -3.407845
v 5.871998 0.000000 3.407845
v -7.176325 -0.000000 3.407845
v -7.176325 -0.000000 -3.407845
v 7.176326 -0.000000 -3.407845
v 7.176326 -0.000000 3.407845
v -6.897149 9.003462 -3.407845
v -4.877020 4.126440 -3.407845
v 0.000000 15.900608 -3.407845
v -4.877020 13.880480 -3.407845
v 6.897150 9.003462 -3.407845
v 4.877021 13.880480 -3.407845
v 4.877021 4.126440 -3.407845
v 4.877021 13.880480 3.407845
v 0.000000 15.900608 3.407845
v 6.897150 9.003462 3.407845
v 4.877021 4.126440 3.407845
v -4.877020 13.880480 3.407845
v -6.897149 9.003462 3.407845
v -4.877020 4.126440 3.407845
v -5.381800 9.003462 -3.407845
v 0.000000 9.003462 -3.407845
v 0.000000 3.621662 -3.407845
v -3.805507 5.197954 -3.407845
v 0.000000 14.385259 -3.407845
v -3.805507 12.808966 -3.407845
v 5.381801 9.003462 -3.407845
v 3.805508 12.808966 -3.407845
v 3.805507 5.197954 -3.407845
v 3.805508 12.808966 3.407845
v 0.000000 14.385259 3.407845
v 0.000000 9.003462 3.407845
v 5.381801 9.003462 3.407845
v 0.000000 3.621662 3.407845
v 3.805507 5.197954 3.407845
v -3.805507 12.808966 3.407845
v -5.381800 9.003462 3.407845
v -3.805507 5.197954 3.407845
v -6.313466 13.809659 -2.421408
v -7.862790 10.069260 -2.421408
v -8.194788 9.267746 -1.694985
v -8.194788 9.267746 1.694985
v -6.313466 13.809659 2.421408
v -7.862790 10.069260 2.421408
v -5.981468 14.611173 -1.694985
v -5.981468 14.611173 1.694985
vt 0.132110 0.181943
vt 0.132205 0.181842
vt 0.132422 0.181807
vt 0.132332 0.181902
vt 0.132062 0.181845
vt 0.131509 0.181911
vt 0.131454 0.181818
vt 0.132062 0.181525
vt 0.132206 0.181523
vt 0.131425 0.181808
vt 0.131758 0.181874
vt 0.131677 0.181777
vt 0.131424 0.181510
vt 0.131453 0.181514
vt 0.132111 0.181416
vt 0.132334 0.181409
vt 0.132424 0.181510
vt 0.131508 0.181411
vt 0.131677 0.181498
vt 0.131757 0.181405
vt 0.079485 0.279034
vt 0.079817 0.278903
vt 0.079076 0.279747
vt 0.079458 0.279146
vt 0.081365 0.276300
vt 0.081518 0.276505
vt 0.081478 0.276538
vt 0.080226 0.279674
vt 0.081571 0.276396
vt 0.080207 0.279611
vt 0.079812 0.279650
vt 0.079808 0.279905
vt 0.080122 0.279907
vt 0.079420 0.279689
vt 0.079493 0.279904
vt 0.080016 0.279710
vt 0.079327 0.279478
vt 0.079483 0.279757
vt 0.080255 0.279317
vt 0.079822 0.279315
vt 0.079836 0.279697
vt 0.080132 0.279589
vt 0.079443 0.279170
vt 0.079773 0.279041
vt 0.079790 0.279472
vt 0.079329 0.279470
vt 0.079629 0.279817
vt 0.080191 0.279799
vt 0.080198 0.279626
vt 0.080199 0.279729
vt 0.080192 0.279907
vt 0.079416 0.279796
vt 0.079469 0.279623
vt 0.079424 0.279904
vt 0.079477 0.279727
vt 0.079810 0.279750
vt 0.079806 0.279873
vt 0.079483 0.279757
vt 0.080113 0.279172
vt 0.080252 0.279474
vt 0.080120 0.279760
vt 0.079807 0.278907
vt 0.080125 0.279030
vt 0.079498 0.279028
vt 0.079389 0.279314
vt 0.079533 0.279587
vt 0.080469 0.278216
vt 0.080574 0.278257
vt 0.080190 0.279723
vt 0.079088 0.279728
vt 0.079443 0.279170
vt 0.079329 0.279470
vt 0.079483 0.279757
vt 0.079806 0.279873
vt 0.079403 0.279965
vt 0.080120 0.279760
vt 0.080125 0.279030
vt 0.079807 0.278907
vt 0.080000 0.279651
vt 0.079498 0.279028
vt 0.080309 0.279561
vt 0.113775 0.204670
vt 0.113444 0.204555
vt 0.113518 0.204484
vt 0.113776 0.204575
vt 0.113297 0.204238
vt 0.113405 0.204235
vt 0.113437 0.203895
vt 0.113515 0.203970
vt 0.113791 0.203743
vt 0.113789 0.203853
vt 0.114135 0.203882
vt 0.114257 0.204213
vt 0.114154 0.204216
vt 0.114056 0.203959
vt 0.114104 0.204532
vt 0.114035 0.204467
vt 0.114033 0.203795
vt 0.113727 0.203670
vt 0.113726 0.203767
vt 0.113963 0.203863
vt 0.114144 0.204091
vt 0.114052 0.204093
vt 0.113716 0.204503
vt 0.114010 0.204379
vt 0.113948 0.204319
vt 0.113717 0.204417
vt 0.113413 0.203805
vt 0.113483 0.203872
vt 0.113290 0.204111
vt 0.113386 0.204109
vt 0.113421 0.204397
vt 0.113486 0.204333
vt 0.080573 0.278381
vt 0.080660 0.278505
vt 0.080677 0.278460
vt 0.080620 0.278470
vt 0.080587 0.278356
vt 0.080543 0.278379
vt 0.113254 0.204394
vt 0.113533 0.204727
vt 0.113532 0.205060
vt 0.113253 0.205393
vt 0.112975 0.205393
vt 0.112696 0.205060
vt 0.112695 0.204727
vt 0.112974 0.204393
vt 0.081518 0.276505
vt 0.081518 0.276505
vt 0.081518 0.276505
vt 0.081518 0.276505
vt 0.081518 0.276505
vt 0.081518 0.276505
vt 0.081518 0.276505
vt 0.081518 0.276505
vt 0.081478 0.276538
vt 0.079458 0.279146
vt 0.079076 0.279747
vt 0.079327 0.279478
vt 0.079458 0.279146
vt 0.079443 0.279170
vt 0.079629 0.279817
vt 0.079483 0.279757
vt 0.079483 0.279757
vt 0.079327 0.279478
vt 0.079329 0.279470
vt 0.079483 0.279757
vt 0.079076 0.279747
vt 0.081518 0.276505
vt 0.079088 0.279728
vt 0.081518 0.276505
vt 0.081571 0.276396
vt 0.081518 0.276505
vt 0.081571 0.276396
vt 0.081518 0.276505
vt 0.079629 0.279817
vt 0.079806 0.279873
vt 0.080120 0.279760
vt 0.081478 0.276538
vt 0.081365 0.276300
vt 0.081365 0.276300
vt 0.079817 0.278903
vt 0.079485 0.279034
vt 0.080016 0.279710
vt 0.079817 0.278903
vt 0.079485 0.279034
vt 0.079498 0.279028
vt 0.079807 0.278907
vt 0.080016 0.279710
vt 0.081518 0.276505
vt 0.080000 0.279651
vt 0.081518 0.276505
vn -0.272060 -0.652255 0.707493
vn -0.272060 -0.652255 0.707493
vn -0.272060 -0.652255 0.707493
vn -0.272060 -0.652255 0.707493
vn -0.706412 0.294650 0.643555
vn -0.706412 0.294650 0.643555
vn -0.706412 0.294650 0.643555
vn -0.706412 0.294650 0.643555
vn -0.954317 -0.298796 0.000000
vn -0.954317 -0.298796 0.000000
vn -0.954317 -0.298796 0.000000
vn -0.954317 -0.298796 0.000000
vn 0.272061 0.652256 0.707492
vn 0.272061 0.652256 0.707492
vn 0.272061 0.652256 0.707492
vn 0.272061 0.652256 0.707492
vn -0.459145 0.888362 0.000000
vn -0.459145 0.888362 0.000000
vn -0.459145 0.888362 0.000000
vn -0.459145 0.888362 0.000000
vn -0.272060 -0.652255 -0.707493
vn -0.272060 -0.652255 -0.707493
vn -0.272060 -0.652255 -0.707493
vn -0.272060 -0.652255 -0.707493
vn -0.706412 0.294650 -0.643556
vn -0.706412 0.294650 -0.643556
vn -0.706412 0.294650 -0.643556
vn -0.706412 0.294650 -0.643556
vn 0.272061 0.652257 -0.707491
vn 0.272061 0.652257 -0.707491
vn 0.272061 0.652257 -0.707491
vn 0.272061 0.652257 -0.707491
vn -0.922933 0.384962 0.000000
vn -0.922933 0.384962 0.000000
vn -0.922933 0.384962 0.000000
vn -0.922933 0.384962 0.000000
vn 0.000000 0.000000 -1.000000
vn 0.000000 0.000000 -1.000000
vn 0.000000 0.000000 -1.000000
vn 0.000000 0.000000 -1.000000
vn -0.000000 0.000000 1.000000
vn -0.000000 0.000000 1.000000
vn -0.000000 0.000000 1.000000
vn -0.000000 0.000000 1.000000
vn 0.384962 0.922932 0.000000
vn 0.384962 0.922932 0.000000
vn 0.384962 0.922932 0.000000
vn 0.384962 0.922932 0.000000
vn -0.384962 -0.922932 0.000000
vn -0.384962 -0.922932 0.000000
vn -0.384962 -0.922932 0.000000
vn -0.384962 -0.922932 0.000000
vn -0.802390 -0.251229 0.541345
vn -0.802390 -0.251229 0.541345
vn -0.802390 -0.251229 0.541345
vn -0.386049 0.746933 0.541347
vn -0.386049 0.746933 0.541347
vn -0.386049 0.746933 0.541347
vn -0.802390 -0.251229 -0.541345
vn -0.802390 -0.251229 -0.541345
vn -0.802390 -0.251229 -0.541345
vn -0.386049 0.746934 -0.541347
vn -0.386049 0.746934 -0.541347
vn -0.386049 0.746934 -0.541347
vn 0.382683 0.923880 0.000000
vn 0.382683 0.923880 0.000000
vn 0.382683 0.923880 0.000000
vn 0.382683 0.923880 0.000000
vn -0.382683 0.923880 0.000000
vn -0.382683 0.923880 0.000000
vn -0.382683 0.923880 0.000000
vn -0.382683 0.923880 0.000000
vn -0.923880 -0.382683 0.000000
vn -0.923880 -0.382683 0.000000
vn -0.923880 -0.382683 0.000000
vn -0.923880 -0.382683 0.000000
vn 0.000000 -1.000000 0.000000
vn 0.000000 -1.000000 0.000000
vn 0.000000 -1.000000 0.000000
vn 0.000000 -1.000000 0.000000
vn 0.000000 -1.000000 0.000000
vn 0.000000 -1.000000 0.000000
vn 0.000000 -1.000000 0.000000
vn 0.000000 -1.000000 0.000000
vn 0.923880 -0.382683 0.000000
vn 0.923880 -0.382683 0.000000
vn 0.923880 -0.382683 0.000000
vn 0.923880 -0.382683 0.000000
vn 0.923879 0.382684 0.000000
vn 0.923879 0.382684 0.000000
vn 0.923879 0.382684 0.000000
vn 0.923879 0.382684 0.000000
vn -0.000000 0.000000 -1.000000
vn -0.000000 0.000000 -1.000000
vn -0.000000 0.000000 -1.000000
vn -0.000000 0.000000 -1.000000
vn 0.000000 0.000000 1.000000
vn -0.000000 0.000000 1.000000
vn 0.000000 0.000000 1.000000
vn 0.000000 0.000000 1.000000
vn -0.000000 0.000000 1.000000
vn 0.000000 0.000000 1.000000
vn 0.000000 0.000000 1.000000
vn 0.000000 0.000000 1.000000
vn -1.000000 0.000000 0.000000
vn -1.000000 0.000000 0.000000
vn -1.000000 0.000000 0.000000
vn -1.000000 0.000000 0.000000
vn -0.000000 0.000000 1.000000
vn -0.000000 0.000000 1.000000
vn -0.000000 0.000000 1.000000
vn -0.000000 0.000000 1.000000
vn -0.533193 0.845994 0.000000
vn -0.533193 0.845994 0.000000
vn -0.533193 0.845994 0.000000
vn -0.533193 0.845994 0.000000
vn 0.000000 0.000000 -1.000000
vn 0.000000 0.000000 -1.000000
vn 0.000000 0.000000 -1.000000
vn 0.000000 0.000000 -1.000000
vn 0.000000 -1.000000 0.000000
vn 0.000000 -1.000000 0.000000
vn 0.000000 -1.000000 0.000000
vn 0.000000 -1.000000 0.000000
vn 0.533193 0.845994 0.000000
vn 0.533193 0.845994 0.000000
vn 0.533193 0.845994 0.000000
vn 0.533193 0.845994 0.000000
vn 0.000000 0.000000 1.000000
vn 0.000000 0.000000 1.000000
vn 0.000000 0.000000 1.000000
vn 0.000000 0.000000 1.000000
vn -0.000000 -1.000000 0.000000
vn -0.000000 -1.000000 0.000000
vn -0.000000 -1.000000 0.000000
vn -0.000000 -1.000000 0.000000
vn -0.000000 0.000000 -1.000000
vn -0.000000 0.000000 -1.000000
vn -0.000000 0.000000 -1.000000
vn 0.000000 0.000000 -1.000000
vn -0.000000 0.000000 -1.000000
vn -0.000000 0.000000 -1.000000
vn -0.000000 0.000000 -1.000000
vn -0.000000 0.000000 -1.000000
vn 0.000000 0.000000 1.000000
vn 0.000000 0.000000 1.000000
vn 0.000000 0.000000 1.000000
vn 0.000000 0.000000 1.000000
vn 0.000000 0.000000 -1.000000
vn 0.000000 0.000000 -1.000000
vn 0.000000 0.000000 -1.000000
vn 0.000000 0.000000 -1.000000
vn 1.000000 0.000000 0.000000
vn 1.000000 0.000000 0.000000
vn 1.000000 0.000000 0.000000
vn 1.000000 0.000000 0.000000
vn 0.000000 0.000000 1.000000
vn 0.000000 0.000000 1.000000
vn 0.000000 0.000000 1.000000
vn 0.000000 0.000000 1.000000
vn 0.000000 0.000000 1.000000
vn -0.000000 0.000000 1.000000
vn -0.000000 0.000000 1.000000
vn -0.000000 0.000000 1.000000
vn 0.000000 0.000000 1.000000
vn 0.000000 0.000000 1.000000
vn -0.000000 0.000000 1.000000
vn 0.000000 0.000000 1.000000
vn -0.000000 0.000000 -1.000000
vn -0.000000 0.000000 -1.000000
vn -0.000000 0.000000 -1.000000
vn -0.000000 0.000000 -1.000000
vn 0.000000 0.000000 -1.000000
vn 0.000000 0.000000 -1.000000
vn -0.000000 0.000000 -1.000000
vn -0.000000 0.000000 -1.000000
vn -0.000000 0.000000 -1.000000
vn -0.000000 0.000000 -1.000000
vn 0.000000 0.000000 -1.000000
vn -0.000000 0.000000 -1.000000
vn -0.923879 0.382684 -0.000000
vn -0.923880 0.382684 -0.000000
vn -0.923880 0.382684 -0.000000
vn -0.000000 0.000000 -1.000000
vn 0.000000 0.000000 -1.000000
vn 0.000000 0.000000 -1.000000
vn 0.000000 0.000000 -1.000000
vn 0.000000 0.000000 -1.000000
vn 0.000000 0.000000 -1.000000
vn 0.000000 0.000000 -1.000000
vn 0.000000 0.000000 -1.000000
vn -0.000000 0.000000 -1.000000
vn -0.000000 0.000000 -1.000000
vn 0.000000 0.000000 -1.000000
vn -0.000000 0.000000 -1.000000
vn 0.000000 0.000000 -1.000000
vn 0.000000 0.000000 -1.000000
vn -0.000000 0.000000 -1.000000
vn 0.000000 0.000000 -1.000000
vn -0.000000 0.000000 -1.000000
vn -0.000000 0.000000 -1.000000
vn 0.000000 0.000000 -1.000000
vn 0.000000 0.000000 -1.000000
vn 0.000000 0.000000 -1.000000
vn 0.000000 0.000000 -1.000000
vn 0.000000 0.000000 -1.000000
vn -0.000000 0.000000 -1.000000
vn -0.000000 0.000000 -1.000000
vn -0.000000 0.000000 -1.000000
vn -0.000000 0.000000 -1.000000
vn -0.000000 0.000000 -1.000000
vn -0.000000 0.000000 -1.000000
vn -0.000000 0.000000 -1.000000
vn 0.000000 0.000000 1.000000
vn -0.000000 0.000000 1.000000
vn -0.000000 0.000000 1.000000
vn 0.000000 0.000000 1.000000
vn 0.000000 0.000000 1.000000
vn 0.000000 0.000000 1.000000
vn 0.000000 0.000000 1.000000
vn 0.000000 0.000000 1.000000
vn -0.000000 0.000000 1.000000
vn -0.000000 0.000000 1.000000
vn -0.000000 0.000000 1.000000
vn -0.000000 0.000000 1.000000
vn 0.000000 0.000000 1.000000
vn 0.000000 0.000000 1.000000
vn -0.000000 0.000000 1.000000
vn -0.000000 0.000000 1.000000
vn -0.000000 0.000000 1.000000
vn -0.000000 0.000000 1.000000
vn -0.000000 0.000000 1.000000
vn -0.000000 0.000000 1.000000
vn 0.000000 0.000000 1.000000
vn 0.000000 0.000000 1.000000
vn -0.000000 0.000000 1.000000
vn 0.000000 0.000000 1.000000
vn 0.000000 0.000000 1.000000
vn 0.000000 0.000000 1.000000
vn 0.000000 0.000000 1.000000
vn 0.000000 0.000000 1.000000
vn -0.000000 0.000000 1.000000
vn 0.000000 0.000000 1.000000
vn -0.000000 0.000000 -1.000000
vn 0.000000 0.000000 -1.000000
vn -0.000000 0.000000 -1.000000
vn -0.000000 0.000000 -1.000000
vn 0.000000 0.000000 -1.000000
vn 0.000000 0.000000 -1.000000
vn -0.000000 0.000000 -1.000000
vn -0.000000 0.000000 -1.000000
vn 0.000000 0.000000 -1.000000
vn -0.000000 0.000000 -1.000000
vn -0.000000 0.000000 -1.000000
vn -0.000000 0.000000 -1.000000
vn -0.000000 0.000000 -1.000000
vn 0.000000 0.000000 -1.000000
vn -0.000000 0.000000 -1.000000
vn -0.000000 0.000000 -1.000000
vn 0.000000 0.000000 -1.000000
vn -0.000000 0.000000 -1.000000
vn 0.000000 0.000000 -1.000000
vn 0.000000 0.000000 -1.000000
vn 0.000000 0.000000 -1.000000
vn 0.000000 0.000000 -1.000000
vn 0.000000 0.000000 -1.000000
vn -0.000000 0.000000 -1.000000
vn -0.000000 0.000000 -1.000000
vn -0.000000 0.000000 -1.000000
vn -0.000000 0.000000 -1.000000
vn 0.000000 0.000000 -1.000000
vn -0.000000 0.000000 -1.000000
vn -0.000000 0.000000 -1.000000
vn -0.000000 0.000000 -1.000000
vn -0.000000 0.000000 -1.000000
vn 0.000000 0.000000 1.000000
vn -0.000000 0.000000 1.000000
vn -0.000000 0.000000 1.000000
vn 0.000000 0.000000 1.000000
vn 0.000000 0.000000 1.000000
vn 0.000000 0.000000 1.000000
vn 0.000000 0.000000 1.000000
vn 0.000000 0.000000 1.000000
vn -0.000000 0.000000 1.000000
vn -0.000000 0.000000 1.000000
vn 0.000000 0.000000 1.000000
vn 0.000000 0.000000 1.000000
vn -0.000000 0.000000 1.000000
vn 0.000000 0.000000 1.000000
vn 0.000000 0.000000 1.000000
vn 0.000000 0.000000 1.000000
vn -0.000000 0.000000 1.000000
vn -0.000000 0.000000 1.000000
vn -0.000000 0.000000 1.000000
vn -0.000000 0.000000 1.000000
vn -0.000000 0.000000 1.000000
vn 0.000000 0.000000 1.000000
vn -0.000000 0.000000 1.000000
vn -0.000000 0.000000 1.000000
vn 0.000000 0.000000 1.000000
vn 0.000000 0.000000 1.000000
vn 0.000000 0.000000 1.000000
vn -0.000000 0.000000 1.000000
vn 0.000000 0.000000 1.000000
vn -0.000000 0.000000 1.000000
vn 0.000000 0.000000 1.000000
vn 0.000000 0.000000 1.000000
vn -0.923880 0.382684 -0.000000
vn -0.923880 0.382684 -0.000000
vn -0.923879 0.382684 -0.000000
vn -0.923880 0.382684 -0.000000
vn -0.923880 0.382684 -0.000000
vn -0.923880 0.382684 -0.000000
vn -0.923880 0.382684 -0.000000
vn -0.923880 0.382684 -0.000000
vn -0.923879 0.382684 -0.000000
vn -0.923880 0.382684 -0.000000
vn -0.923880 0.382684 -0.000000
vn -0.923880 0.382684 -0.000000
vn -0.923879 0.382684 -0.000000
vn -0.923879 0.382684 -0.000000
vn -0.923879 0.382684 -0.000000
vn -0.923880 0.382684 -0.000000
vn -0.923880 0.382684 -0.000000
vn -0.923879 0.382684 -0.000000
vn -0.923880 0.382684 -0.000000
vn -0.923880 0.382684 -0.000000
vn -0.923879 0.382684 -0.000000
vn -0.923879 0.382684 -0.000000
vn -0.923880 0.382684 -0.000000
vn -0.923880 0.382684 -0.000000
vn -0.923879 0.382684 -0.000000
vn -0.923880 0.382684 -0.000000
vn -0.923880 0.382684 -0.000000
vn -0.923880 0.382684 -0.000000
vn -0.923880 0.382684 -0.000000
vn -0.923880 0.382684 -0.000000
vn -0.923880 0.382684 -0.000000
vn -0.923879 0.382684 -0.000000
vn -0.923879 0.382684 -0.000000
s off
f 1/1/1 3/2/2 18/3/3 17/4/4
f 2/5/5 1/1/6 6/6/7 5/7/8
f 3/2/9 2/5/10 8/8/11 7/9/12
f 4/10/13 6/6/14 20/11/15 19/12/16
f 5/7/17 4/10/18 12/13/19 11/14/20
f 7/9/21 9/15/22 14/16/23 13/17/24
f 9/15/25 8/8/26 11/14/27 10/18/28
f 10/18/29 12/13/30 16/19/31 15/20/32
f 2/5/33 5/7/34 11/14/35 8/8/36
f 9/15/37 10/18/38 15/20/39 14/16/40
f 1/1/41 17/4/42 20/11/43 6/6/44
f 4/10/45 19/12/46 16/19/47 12/13/48
f 18/3/49 3/2/50 7/9/51 13/17/52
f 1/1/53 2/5/54 3/2/55
f 4/10/56 5/7/57 6/6/58
f 7/9/59 8/8/60 9/15/61
f 10/18/62 11/14/63 12/13/64
f 21/21/65 22/22/66 30/23/67 29/24/68
f 22/22/69 23/25/70 31/26/71 30/23/72
f 24/27/73 25/28/74 33/128/75 32/29/76
f 41/30/77 42/31/78 43/32/79 44/33/80
f 42/31/81 45/34/82 46/35/83 43/32/84
f 27/129/85 28/36/86 36/37/87 35/38/88
f 28/36/89 21/21/90 29/24/91 36/37/92
f 65/39/93 66/40/94 67/41/95 68/42/96
f 74/43/97 75/44/98 76/45/99 77/46/100
f 34/47/101 33/130/102 44/33/103 43/32/104
f 38/48/105 37/49/106 48/50/107 47/51/108
f 35/38/109 34/47/110 43/32/111 46/35/112
f 33/131/113 25/28/114 37/49/115 38/48/116
f 37/49/117 25/28/118 41/30/119 48/50/120
f 41/30/121 44/33/122 47/51/123 48/50/124
f 27/132/125 35/38/126 40/52/127 39/53/128
f 40/52/129 35/38/130 46/35/131 50/54/132
f 46/35/133 45/34/134 49/55/135 50/54/136
f 26/56/137 42/31/138 41/30/139 25/28/140
f 27/133/141 45/34/142 42/31/143 26/56/144
f 38/48/145 47/51/146 44/33/147 33/134/148
f 39/53/149 49/55/150 45/34/151 27/135/152
f 40/52/153 50/54/154 49/55/155 39/53/156
f 77/46/157 76/45/158 78/57/159 79/58/160
f 76/45/161 75/44/162 80/59/163 81/60/164
f 78/57/165 76/45/166 81/60/167 82/61/168
f 69/62/169 66/40/170 65/39/171 70/63/172
f 72/64/173 71/65/174 66/40/175 69/62/176
f 67/41/177 66/40/178 71/65/179 73/66/180
f 89/67/181 23/25/182 83/68/183
f 26/56/184 25/28/185 52/69/186
f 25/28/187 24/27/188 51/136/189 52/69/190
f 24/137/191 23/138/192 54/70/193 51/71/194
f 23/139/195 22/140/196 53/141/197 54/72/198
f 21/142/199 28/143/200 55/73/201 56/74/202
f 22/144/203 21/145/204 56/146/205 53/147/206
f 28/148/207 27/149/208 57/75/209 55/150/210
f 27/151/211 26/56/212 57/75/213
f 29/152/214 30/153/215 59/76/216 58/154/217
f 36/155/218 29/156/219 58/157/220 60/158/221
f 34/159/222 35/160/223 61/77/224
f 35/161/225 36/162/226 60/78/227 61/77/228
f 30/163/229 31/164/230 62/79/231 59/80/232
f 31/165/233 32/166/234 63/167/235 62/168/236
f 32/169/237 33/170/238 64/81/239 63/171/240
f 33/172/241 34/47/242 64/81/243
f 26/82/244 52/83/245 68/84/246 67/85/247
f 52/83/248 51/86/249 65/87/250 68/84/251
f 51/86/252 54/88/253 70/89/254 65/87/255
f 54/88/256 53/90/257 69/91/258 70/89/259
f 56/92/260 55/93/261 71/94/262 72/95/263
f 53/90/264 56/92/265 72/95/266 69/91/267
f 55/93/268 57/96/269 73/97/270 71/94/271
f 57/96/272 26/82/273 67/85/274 73/97/275
f 58/98/276 59/99/277 75/100/278 74/101/279
f 60/102/280 58/98/281 74/101/282 77/103/283
f 34/104/284 61/105/285 79/106/286 78/107/287
f 61/105/288 60/102/289 77/103/290 79/106/291
f 59/99/292 62/108/293 80/109/294 75/100/295
f 62/108/296 63/110/297 81/111/298 80/109/299
f 63/110/300 64/112/301 82/113/302 81/111/303
f 64/112/304 34/104/305 78/107/306 82/113/307
f 84/114/308 24/27/309 85/115/310
f 23/25/311 24/27/312 84/114/313 83/68/314
f 88/116/315 86/117/316 32/29/317
f 24/27/318 32/29/319 86/117/320 85/115/321
f 90/118/322 87/119/323 31/26/324
f 89/120/325 83/121/326 84/122/327 85/123/328 86/124/329 88/125/330 87/126/331 90/127/332
f 32/29/333 31/26/334 87/119/335 88/116/336
f 31/26/337 23/25/338 89/67/339 90/118/340
v -9.223871 0.463862 2.546570
v -0.000000 0.463862 2.546570
v -9.223871 1.730474 2.546570
v -0.000000 1.730474 2.546570
v -9.223871 1.730474 -2.546555
v -0.000000 1.730474 -2.546555
v -9.223871 0.463862 -2.546555
v -0.000000 0.463862 -2.546555
v -9.223871 1.730474 0.851823
v -0.000000 1.730474 0.851823
v -0.000000 0.463862 0.851823
v -9.223871 0.463862 0.851823
vt 0.206803 0.303780
vt 0.205862 0.303725
vt 0.205856 0.303606
vt 0.206805 0.303660
vt 0.205975 0.303405
vt 0.206856 0.303452
vt 0.205980 0.303517
vt 0.206854 0.303564
vt 0.206822 0.303591
vt 0.205896 0.303539
vt 0.205901 0.303655
vt 0.206820 0.303708
vt 0.206602 0.278316
vt 0.206542 0.277468
vt 0.206780 0.277460
vt 0.206856 0.278307
vt 0.206543 0.277608
vt 0.206780 0.277600
vt 0.206856 0.278451
vt 0.206603 0.278460
vn 0.000000 0.000000 1.000000
vn 0.000000 0.000000 1.000000
vn 0.000000 0.000000 1.000000
vn 0.000000 0.000000 1.000000
vn 0.000000 1.000000 0.000000
vn 0.000000 1.000000 0.000000
vn 0.000000 1.000000 0.000000
vn 0.000000 1.000000 0.000000
vn 0.000000 0.000000 -1.000000
vn 0.000000 0.000000 -1.000000
vn 0.000000 0.000000 -1.000000
vn 0.000000 0.000000 -1.000000
vn 0.000000 -1.000000 0.000000
vn 0.000000 -1.000000 0.000000
vn 0.000000 -1.000000 0.000000
vn 0.000000 -1.000000 0.000000
vn 1.000000 0.000000 0.000000
vn 1.000000 0.000000 0.000000
vn 1.000000 0.000000 0.000000
vn 1.000000 0.000000 0.000000
vn -1.000000 0.000000 0.000000
vn -1.000000 0.000000 0.000000
vn -1.000000 0.000000 0.000000
vn -1.000000 0.000000 0.000000
vn 0.000000 1.000000 0.000000
vn 0.000000 1.000000 0.000000
vn 0.000000 1.000000 0.000000
vn 0.000000 1.000000 0.000000
vn 1.000000 0.000000 0.000000
vn 1.000000 0.000000 0.000000
vn 1.000000 0.000000 0.000000
vn 1.000000 0.000000 0.000000
vn 0.000000 -1.000000 0.000000
vn 0.000000 -1.000000 0.000000
vn 0.000000 -1.000000 0.000000
vn 0.000000 -1.000000 0.000000
vn -1.000000 0.000000 0.000000
vn -1.000000 0.000000 0.000000
vn -1.000000 0.000000 0.000000
vn -1.000000 0.000000 0.000000
s off
f 91/173/341 92/174/342 94/175/343 93/176/344
f 99/181/345 100/182/346 96/177/347 95/178/348
f 95/178/349 96/177/350 98/179/351 97/180/352
f 97/180/353 98/179/354 101/183/355 102/184/356
f 100/182/357 101/183/358 98/179/359 96/177/360
f 97/180/361 102/184/362 99/181/363 95/178/364
f 93/185/365 94/186/366 100/187/367 99/188/368
f 92/189/369 101/190/370 100/187/371 94/186/372
f 102/191/373 101/190/374 92/189/375 91/192/376
f 99/188/377 102/191/378 91/192/379 93/185/380
