# This file uses centimeters as units for non-parametric coordinates.

v -7.500023 -5.971126 20.355570
v 7.499977 -5.971126 20.355570
v -7.500023 -5.136893 20.355570
v 7.499977 -5.136893 20.355570
v -7.500023 -5.136893 -9.644430
v 7.499977 -5.136893 -9.644430
v -7.500023 -5.971126 -9.644430
v 7.499977 -5.971126 -9.644430
v -0.969169 -4.391526 -2.999573
v -1.938339 -5.244940 -3.182203
v -1.066174 -5.244940 -4.175142
v 0.969170 -4.391526 -2.999573
v 1.066174 -5.244940 -4.175142
v 1.938339 -5.244940 -3.182201
v -0.969169 -4.391526 17.399256
v -1.066174 -5.244940 18.574823
v -1.938339 -5.244940 17.581884
v 0.969169 -4.391526 17.399256
v 1.938339 -5.244940 17.581884
v 1.066174 -5.244940 18.574823
v 0.430338 0.745368 5.689998
v -0.430338 0.745368 5.689998
v -0.860676 -0.000000 5.689998
v -0.430338 -0.745368 5.689998
v 0.430338 -0.745368 5.689998
v 0.860676 -0.000000 5.689998
v -0.916490 1.587406 7.086377
v 0.916489 1.587406 7.086377
v 1.832979 0.000000 7.086376
v 0.916489 -1.587406 7.086376
v -0.916490 -1.587406 7.086376
v -1.832979 0.000000 7.086376
v -1.291251 2.236508 -8.205773
v 1.291248 2.236508 -8.205775
v 2.582498 0.000000 -8.205773
v 1.291249 -2.236508 -8.205773
v -1.291248 -2.236508 -8.205773
v -2.582498 0.000000 -8.205773
v -0.908522 1.573610 -9.032437
v 0.908523 1.573610 -9.032437
v 1.817046 0.000000 -9.032436
v 0.908523 -1.573610 -9.032436
v -0.908522 -1.573610 -9.032436
v -1.817046 0.000000 -9.032438
v 0.000001 0.000000 -9.367568
v -1.401181 0.000000 7.772192
v -0.700591 1.213459 7.772192
v -0.700591 -1.213458 7.772191
v 0.700591 -1.213458 7.772191
v 1.401182 0.000000 7.772191
v 0.700590 1.213458 7.772192
v -0.000000 -0.000000 7.772192
v -1.282827 -2.221922 3.776443
v 1.282830 -2.221923 3.776443
v 2.565657 0.000000 3.776443
v 1.282828 2.221923 3.776443
v -1.282828 2.221923 3.776443
v -2.565655 0.000000 3.776443
v 0.430338 0.745368 11.153255
v -0.430338 0.745368 11.153255
v -0.860676 -0.000000 11.153255
v -0.430338 -0.745368 11.153255
v 0.430338 -0.745368 11.153255
v 0.860676 -0.000000 11.153255
v 0.430338 0.254812 12.627090
v 0.860676 -0.445241 12.371163
v 0.430338 -1.145295 12.115241
v -0.430338 -1.145295 12.115241
v -0.860676 -0.445241 12.371163
v -0.430338 0.254812 12.627090
v 0.430338 -1.115987 14.026025
v 0.860676 -1.471730 13.371029
v 0.430338 -1.827478 12.716036
v -0.430338 -1.827478 12.716036
v -0.860676 -1.471730 13.371029
v -0.430338 -1.115987 14.026025
v 0.430338 -5.154547 16.219477
v 0.860676 -5.154547 15.371266
v 0.430338 -5.154547 14.523058
v -0.430338 -5.154547 14.523058
v -0.860676 -5.154547 15.371266
v -0.430338 -5.154547 16.219477
vt 0.133816 0.328212
vt 0.133380 0.327954
vt 0.133379 0.327935
vt 0.133818 0.328194
vt 0.133964 0.327341
vt 0.134379 0.327549
vt 0.133962 0.327360
vt 0.134376 0.327568
vt 0.134193 0.327286
vt 0.134204 0.327303
vt 0.134262 0.327304
vt 0.134257 0.327289
vt 0.134188 0.327340
vt 0.134188 0.327298
vt 0.134252 0.327300
vt 0.134247 0.327342
vt 0.134262 0.327313
vt 0.134254 0.327333
vt 0.134198 0.327311
vt 0.134189 0.327332
vt 0.134201 0.327303
vt 0.134194 0.327283
vt 0.134186 0.327302
vt 0.134185 0.327340
vt 0.134192 0.327359
vt 0.134200 0.327340
vt 0.134251 0.327303
vt 0.134259 0.327285
vt 0.134274 0.327285
vt 0.134267 0.327304
vt 0.134265 0.327304
vt 0.134280 0.327305
vt 0.134264 0.327342
vt 0.134279 0.327343
vt 0.134257 0.327361
vt 0.134272 0.327362
vt 0.134250 0.327342
vt 0.134266 0.327342
vt 0.132283 0.180260
vt 0.132291 0.180365
vt 0.132213 0.180435
vt 0.132197 0.180266
vt 0.132305 0.180353
vt 0.132238 0.180412
vt 0.132310 0.180241
vt 0.132248 0.180236
vt 0.132303 0.180138
vt 0.132234 0.180072
vt 0.132289 0.180144
vt 0.132208 0.180079
vt 0.132182 0.180250
vt 0.133014 0.180258
vt 0.133011 0.180142
vt 0.133082 0.180003
vt 0.133092 0.180271
vt 0.133005 0.180136
vt 0.133063 0.179998
vt 0.133001 0.180240
vt 0.133053 0.180229
vt 0.133004 0.180352
vt 0.133061 0.180476
vt 0.133011 0.180364
vt 0.133080 0.180513
vt 0.133130 0.180248
vt 0.132759 0.180106
vt 0.132758 0.180112
vt 0.132760 0.180238
vt 0.132760 0.180380
vt 0.132759 0.180397
vt 0.132758 0.180262
vt 0.134284 0.327304
vt 0.134283 0.327343
vt 0.134289 0.327362
vt 0.134296 0.327343
vt 0.134297 0.327305
vt 0.134291 0.327286
vt 0.134427 0.327308
vt 0.134414 0.327346
vt 0.134406 0.327365
vt 0.134411 0.327346
vt 0.134425 0.327309
vt 0.134433 0.327289
vn 0.000000 0.000000 1.000000
vn 0.000000 0.000000 1.000000
vn 0.000000 0.000000 1.000000
vn 0.000000 0.000000 1.000000
vn 0.000000 1.000000 0.000000
vn 0.000000 1.000000 0.000000
vn 0.000000 1.000000 0.000000
vn 0.000000 1.000000 0.000000
vn 0.000000 0.000000 -1.000000
vn 0.000000 0.000000 -1.000000
vn 0.000000 0.000000 -1.000000
vn 0.000000 0.000000 -1.000000
vn 0.000000 -1.000000 0.000000
vn 0.000000 -1.000000 0.000000
vn 0.000000 -1.000000 0.000000
vn 0.000000 -1.000000 0.000000
vn 1.000000 0.000000 0.000000
vn 1.000000 0.000000 0.000000
vn 1.000000 0.000000 0.000000
vn 1.000000 0.000000 0.000000
vn -1.000000 0.000000 0.000000
vn -1.000000 0.000000 0.000000
vn -1.000000 0.000000 0.000000
vn -1.000000 0.000000 0.000000
vn -0.609635 0.792682 0.000000
vn -0.609635 0.792682 0.000000
vn -0.609635 0.792682 0.000000
vn -0.609635 0.792682 0.000000
vn 0.609635 0.792682 0.000000
vn 0.609635 0.792682 0.000000
vn 0.609635 0.792682 0.000000
vn 0.609635 0.792682 0.000000
vn 0.000000 0.844545 0.535484
vn 0.000000 0.844545 0.535484
vn 0.000000 0.844545 0.535484
vn 0.000000 0.844545 0.535484
vn 0.000000 0.844546 -0.535483
vn 0.000000 0.844546 -0.535483
vn 0.000000 0.844546 -0.535483
vn 0.000000 0.844546 -0.535483
vn 0.000000 1.000000 0.000000
vn 0.000000 1.000000 0.000000
vn 0.000000 1.000000 0.000000
vn 0.000000 1.000000 0.000000
vn -0.495790 0.751361 -0.435487
vn -0.495790 0.751361 -0.435487
vn -0.495790 0.751361 -0.435487
vn 0.495792 0.751360 -0.435487
vn 0.495792 0.751360 -0.435487
vn 0.495792 0.751360 -0.435487
vn -0.495791 0.751360 0.435488
vn -0.495791 0.751360 0.435488
vn -0.495791 0.751360 0.435488
vn 0.495791 0.751359 0.435488
vn 0.495791 0.751359 0.435488
vn 0.495791 0.751359 0.435488
vn 0.000000 -1.000000 -0.000000
vn 0.000000 -1.000000 -0.000000
vn 0.000000 -1.000000 0.000000
vn 0.000000 -1.000000 0.000000
vn 0.000000 -1.000000 -0.000000
vn 0.000000 -1.000000 -0.000000
vn 0.000000 -1.000000 -0.000000
vn 0.000000 -1.000000 -0.000000
vn 0.000000 -1.000000 -0.000000
vn 0.000000 -1.000000 -0.000000
vn 0.000000 -1.000000 0.000000
vn 0.000000 -1.000000 0.000000
vn 0.000000 0.000000 -1.000000
vn 0.000000 0.000000 -1.000000
vn 0.000000 0.000000 -1.000000
vn 0.000000 0.000000 -1.000000
vn 0.000000 0.000000 -1.000000
vn 0.000000 0.000000 -1.000000
vn 0.000000 0.000000 -1.000000
vn 0.000000 0.000000 -1.000000
vn 0.000000 0.997509 0.070539
vn 0.000000 0.997509 0.070539
vn 0.000000 0.839236 0.543767
vn 0.000000 0.839236 0.543767
vn -0.866719 0.497941 0.029200
vn -0.866786 0.497134 0.039237
vn -0.859853 0.420137 0.290065
vn -0.861132 0.433052 0.266305
vn -0.866795 -0.497945 -0.026795
vn -0.866928 -0.497012 -0.037615
vn -0.859201 -0.415197 -0.298972
vn -0.860343 -0.431229 -0.271756
vn 0.000000 -0.998069 -0.062123
vn 0.000000 -0.998069 -0.062123
vn 0.000000 -0.822146 -0.569276
vn 0.000000 -0.822146 -0.569276
vn 0.866928 -0.497012 -0.037615
vn 0.866795 -0.497945 -0.026795
vn 0.860343 -0.431229 -0.271757
vn 0.859201 -0.415197 -0.298973
vn 0.866786 0.497134 0.039237
vn 0.866719 0.497940 0.029200
vn 0.861132 0.433051 0.266304
vn 0.859853 0.420137 0.290065
vn -0.000000 0.780147 -0.625597
vn -0.000000 0.780147 -0.625597
vn -0.000000 0.780147 -0.625597
vn -0.000000 0.780147 -0.625597
vn 0.675626 0.390073 -0.625598
vn 0.675626 0.390073 -0.625598
vn 0.675626 0.390073 -0.625598
vn 0.675626 0.390073 -0.625598
vn 0.675626 -0.390073 -0.625598
vn 0.675626 -0.390073 -0.625598
vn 0.675626 -0.390073 -0.625598
vn 0.675626 -0.390073 -0.625598
vn 0.000000 -0.780147 -0.625597
vn 0.000000 -0.780147 -0.625597
vn 0.000000 -0.780147 -0.625597
vn 0.000000 -0.780147 -0.625597
vn -0.675626 -0.390074 -0.625597
vn -0.675626 -0.390074 -0.625597
vn -0.675626 -0.390074 -0.625597
vn -0.675626 -0.390074 -0.625597
vn -0.675626 0.390073 -0.625598
vn -0.675626 0.390073 -0.625598
vn -0.675626 0.390073 -0.625598
vn -0.675626 0.390073 -0.625598
vn 0.000000 0.208298 -0.978065
vn 0.000000 0.208298 -0.978065
vn 0.000000 0.208298 -0.978065
vn 0.180393 0.104149 -0.978065
vn 0.180393 0.104149 -0.978065
vn 0.180393 0.104149 -0.978065
vn 0.180393 -0.104149 -0.978065
vn 0.180393 -0.104149 -0.978065
vn 0.180393 -0.104149 -0.978065
vn 0.000000 -0.208299 -0.978065
vn 0.000000 -0.208299 -0.978065
vn 0.000000 -0.208299 -0.978065
vn -0.180391 -0.104150 -0.978065
vn -0.180391 -0.104150 -0.978065
vn -0.180391 -0.104150 -0.978065
vn -0.180391 0.104149 -0.978065
vn -0.180391 0.104149 -0.978065
vn -0.180391 0.104149 -0.978065
vn -0.760342 0.438983 0.478721
vn -0.760342 0.438983 0.478721
vn -0.760342 0.438983 0.478721
vn -0.760342 0.438983 0.478721
vn -0.760341 -0.438984 0.478721
vn -0.760341 -0.438984 0.478721
vn -0.760341 -0.438984 0.478721
vn -0.760341 -0.438984 0.478721
vn 0.000000 -0.877967 0.478721
vn 0.000000 -0.877967 0.478721
vn 0.000000 -0.877967 0.478721
vn 0.000000 -0.877967 0.478721
vn 0.760342 -0.438984 0.478721
vn 0.760342 -0.438984 0.478721
vn 0.760342 -0.438984 0.478721
vn 0.760342 -0.438984 0.478721
vn 0.760342 0.438984 0.478720
vn 0.760342 0.438984 0.478720
vn 0.760342 0.438984 0.478720
vn 0.760342 0.438984 0.478720
vn 0.000000 0.877967 0.478721
vn 0.000000 0.877967 0.478721
vn 0.000000 0.877967 0.478721
vn 0.000000 0.877967 0.478721
vn 0.000000 -0.000000 1.000000
vn 0.000000 -0.000000 1.000000
vn 0.000000 -0.000000 1.000000
vn -0.000000 -0.000000 1.000000
vn -0.000000 -0.000000 1.000000
vn -0.000000 -0.000000 1.000000
vn 0.000000 -0.000000 1.000000
vn 0.000000 -0.000000 1.000000
vn 0.000000 -0.000000 1.000000
vn 0.000000 -0.000000 1.000000
vn 0.000000 -0.000000 1.000000
vn 0.000000 -0.000000 1.000000
vn -0.000000 -0.000001 1.000000
vn -0.000000 -0.000001 1.000000
vn -0.000000 -0.000001 1.000000
vn 0.000000 -0.000000 1.000000
vn 0.000000 -0.000000 1.000000
vn 0.000000 -0.000000 1.000000
vn -0.866025 -0.500000 0.001217
vn -0.866025 -0.500000 0.001217
vn -0.866025 -0.500000 0.001217
vn -0.866025 -0.500000 0.001217
vn -0.000000 -0.999999 0.001217
vn -0.000000 -0.999999 0.001217
vn -0.000000 -0.999999 0.001217
vn -0.000000 -0.999999 0.001217
vn 0.866025 -0.500000 0.001217
vn 0.866025 -0.500000 0.001217
vn 0.866025 -0.500000 0.001217
vn 0.866025 -0.500000 0.001217
vn 0.866025 0.500000 0.001217
vn 0.866025 0.500000 0.001217
vn 0.866025 0.500000 0.001217
vn 0.866025 0.500000 0.001217
vn 0.000000 0.999999 0.001217
vn 0.000000 0.999999 0.001217
vn 0.000000 0.999999 0.001217
vn 0.000000 0.999999 0.001217
vn -0.866025 0.499999 0.001217
vn -0.866025 0.499999 0.001217
vn -0.866025 0.499999 0.001217
vn -0.866025 0.499999 0.001217
vn 0.000000 0.982117 0.188272
vn 0.000000 0.982117 0.188272
vn 0.000000 0.982117 0.188272
vn 0.000000 0.982117 0.188272
vn 0.850538 0.491059 0.188273
vn 0.850538 0.491059 0.188273
vn 0.850538 0.491059 0.188273
vn 0.850538 0.491059 0.188273
vn 0.850538 -0.491058 0.188273
vn 0.850538 -0.491058 0.188273
vn 0.850538 -0.491058 0.188273
vn 0.850538 -0.491058 0.188273
vn -0.000000 -0.982117 0.188272
vn -0.000000 -0.982117 0.188272
vn -0.000000 -0.982117 0.188272
vn -0.000000 -0.982117 0.188272
vn -0.850538 -0.491058 0.188272
vn -0.850538 -0.491058 0.188272
vn -0.850538 -0.491058 0.188272
vn -0.850538 -0.491058 0.188272
vn -0.850538 0.491058 0.188272
vn -0.850538 0.491058 0.188272
vn -0.850538 0.491058 0.188272
vn -0.850538 0.491058 0.188272
vn 0.000000 1.000000 0.000000
vn 0.000000 1.000000 0.000000
vn 0.000000 0.997509 0.070539
vn 0.000000 0.997509 0.070539
vn -0.866026 0.500000 0.000000
vn -0.866026 0.500000 0.000000
vn -0.866786 0.497134 0.039237
vn -0.866719 0.497941 0.029200
vn -0.866026 -0.500000 0.000000
vn -0.866026 -0.500000 0.000000
vn -0.866928 -0.497012 -0.037615
vn -0.866795 -0.497945 -0.026795
vn 0.000000 -1.000000 0.000000
vn 0.000000 -1.000000 0.000000
vn 0.000000 -0.998069 -0.062123
vn 0.000000 -0.998069 -0.062123
vn 0.866026 -0.500000 0.000000
vn 0.866026 -0.500000 0.000000
vn 0.866795 -0.497945 -0.026795
vn 0.866928 -0.497012 -0.037615
vn 0.866026 0.500000 0.000000
vn 0.866026 0.500000 0.000000
vn 0.866719 0.497940 0.029200
vn 0.866786 0.497134 0.039237
vn 0.859853 0.420137 0.290065
vn 0.861132 0.433051 0.266304
vn 0.864100 0.270543 0.424426
vn 0.863409 0.278948 0.420372
vn 0.859201 -0.415197 -0.298973
vn 0.860343 -0.431229 -0.271757
vn 0.864102 -0.262303 -0.429563
vn 0.863540 -0.268114 -0.427099
vn 0.000000 -0.822146 -0.569276
vn 0.000000 -0.822146 -0.569276
vn 0.000000 -0.514852 -0.857279
vn 0.000000 -0.514852 -0.857279
vn -0.860343 -0.431229 -0.271756
vn -0.859201 -0.415197 -0.298972
vn -0.863540 -0.268114 -0.427098
vn -0.864102 -0.262303 -0.429563
vn -0.861132 0.433052 0.266305
vn -0.859853 0.420137 0.290065
vn -0.863409 0.278948 0.420372
vn -0.864100 0.270543 0.424426
vn 0.000000 0.839236 0.543767
vn 0.000000 0.839236 0.543767
vn 0.000000 0.553222 0.833034
vn 0.000000 0.553222 0.833034
vn 0.863409 0.278948 0.420372
vn 0.864100 0.270543 0.424426
vn 0.866026 0.238637 0.439377
vn 0.866026 0.238637 0.439377
vn 0.863540 -0.268114 -0.427099
vn 0.864102 -0.262303 -0.429563
vn 0.866025 -0.238638 -0.439377
vn 0.866025 -0.238638 -0.439377
vn 0.000000 -0.514852 -0.857279
vn 0.000000 -0.514852 -0.857279
vn 0.000000 -0.477275 -0.878754
vn 0.000000 -0.477275 -0.878754
vn -0.864102 -0.262303 -0.429563
vn -0.863540 -0.268114 -0.427098
vn -0.866025 -0.238638 -0.439377
vn -0.866025 -0.238638 -0.439377
vn -0.864100 0.270543 0.424426
vn -0.863409 0.278948 0.420372
vn -0.866026 0.238637 0.439377
vn -0.866026 0.238637 0.439377
vn 0.000000 0.553222 0.833034
vn 0.000000 0.553222 0.833034
vn 0.000000 0.477275 0.878754
vn 0.000000 0.477275 0.878754
vn 0.000000 -1.000000 0.000000
vn 0.000000 -1.000000 0.000000
vn 0.000000 -1.000000 0.000000
vn 0.000000 -1.000000 0.000000
vn 0.000000 -1.000000 0.000000
vn 0.000000 -1.000000 0.000000
vn 0.000000 -1.000000 0.000000
vn 0.000000 -1.000000 0.000000
s off
f 1/1/1 2/2/2 4/3/3 3/4/4
f 3/4/5 4/3/6 6/5/7 5/6/8
f 5/6/9 6/5/10 8/7/11 7/8/12
f 7/8/13 8/7/14 2/2/15 1/1/16
f 2/2/17 8/7/18 6/5/19 4/3/20
f 7/8/21 1/1/22 3/4/23 5/6/24
f 9/9/25 10/10/26 17/11/27 15/12/28
f 14/13/29 12/14/30 18/15/31 19/16/32
f 15/12/33 16/17/34 20/18/35 18/15/36
f 11/19/37 9/9/38 12/14/39 13/20/40
f 12/14/41 9/9/42 15/12/43 18/15/44
f 9/9/45 11/19/46 10/10/47
f 12/14/48 14/13/49 13/20/50
f 15/12/51 17/11/52 16/17/53
f 18/15/54 20/18/55 19/16/56
f 17/11/57 19/16/58 20/18/59 16/17/60
f 17/11/61 10/10/62 14/13/63 19/16/64
f 14/13/65 10/10/66 11/19/67 13/20/68
f 23/21/69 22/22/70 21/23/71 26/24/72
f 23/21/73 26/24/74 25/25/75 24/26/76
f 59/27/77 60/28/78 70/29/79 65/30/80
f 60/28/81 61/31/82 69/32/83 70/29/84
f 61/31/85 62/33/86 68/34/87 69/32/88
f 62/33/89 63/35/90 67/36/91 68/34/92
f 63/35/93 64/37/94 66/38/95 67/36/96
f 64/37/97 59/27/98 65/30/99 66/38/100
f 33/39/101 34/40/102 40/41/103 39/42/104
f 34/40/105 35/43/106 41/44/107 40/41/108
f 35/43/109 36/45/110 42/46/111 41/44/112
f 36/45/113 37/47/114 43/48/115 42/46/116
f 37/47/117 38/49/118 44/50/119 43/48/120
f 38/49/121 33/39/122 39/42/123 44/50/124
f 39/42/125 40/41/126 45/51/127
f 40/41/128 41/44/129 45/51/130
f 41/44/131 42/46/132 45/51/133
f 42/46/134 43/48/135 45/51/136
f 43/48/137 44/50/138 45/51/139
f 44/50/140 39/42/141 45/51/142
f 27/52/143 32/53/144 46/54/145 47/55/146
f 32/53/147 31/56/148 48/57/149 46/54/150
f 31/56/151 30/58/152 49/59/153 48/57/154
f 30/58/155 29/60/156 50/61/157 49/59/158
f 29/60/159 28/62/160 51/63/161 50/61/162
f 28/62/163 27/52/164 47/55/165 51/63/166
f 47/55/167 46/54/168 52/64/169
f 46/54/170 48/57/171 52/64/172
f 48/57/173 49/59/174 52/64/175
f 49/59/176 50/61/177 52/64/178
f 50/61/179 51/63/180 52/64/181
f 51/63/182 47/55/183 52/64/184
f 53/65/185 58/66/186 38/49/187 37/47/188
f 54/67/189 53/65/190 37/47/191 36/45/192
f 55/68/193 54/67/194 36/45/195 35/43/196
f 56/69/197 55/68/198 35/43/199 34/40/200
f 57/70/201 56/69/202 34/40/203 33/39/204
f 58/66/205 57/70/206 33/39/207 38/49/208
f 27/52/209 28/62/210 56/69/211 57/70/212
f 28/62/213 29/60/214 55/68/215 56/69/216
f 29/60/217 30/58/218 54/67/219 55/68/220
f 30/58/221 31/56/222 53/65/223 54/67/224
f 31/56/225 32/53/226 58/66/227 53/65/228
f 32/53/229 27/52/230 57/70/231 58/66/232
f 21/23/233 22/22/234 60/28/235 59/27/236
f 22/22/237 23/21/238 61/31/239 60/28/240
f 23/21/241 24/26/242 62/33/243 61/31/244
f 24/26/245 25/25/246 63/35/247 62/33/248
f 25/25/249 26/24/250 64/37/251 63/35/252
f 26/24/253 21/23/254 59/27/255 64/37/256
f 66/38/257 65/30/258 71/71/259 72/72/260
f 67/36/261 66/38/262 72/72/263 73/73/264
f 68/34/265 67/36/266 73/73/267 74/74/268
f 69/32/269 68/34/270 74/74/271 75/75/272
f 70/29/273 69/32/274 75/75/275 76/76/276
f 65/30/277 70/29/278 76/76/279 71/71/280
f 72/72/281 71/71/282 77/77/283 78/78/284
f 73/73/285 72/72/286 78/78/287 79/79/288
f 74/74/289 73/73/290 79/79/291 80/80/292
f 75/75/293 74/74/294 80/80/295 81/81/296
f 76/76/297 75/75/298 81/81/299 82/82/300
f 71/71/301 76/76/302 82/82/303 77/77/304
f 77/77/305 82/82/306 81/81/307 78/78/308
f 78/78/309 81/81/310 80/80/311 79/79/312
