# This file uses centimeters as units for non-parametric coordinates.

v -2.811127 -0.742828 15.225231
v 0.868866 -0.742828 14.197477
v -2.811157 0.946411 15.225231
v 0.868896 0.946411 14.197477
v -3.133057 0.946411 -9.580469
v 1.751587 0.946411 -9.854027
v 1.751617 -0.742828 -9.854027
v -3.133026 -0.742828 -9.580469
v -2.087891 -0.067749 -9.580469
v 0.788208 -0.067749 -9.854027
v -2.087891 -0.067749 15.541416
v 0.278259 -0.067749 14.809868
v -2.087891 0.160095 -9.580469
v 0.788239 0.158417 -9.854027
v -2.087891 0.376587 15.541416
v 0.278290 0.371918 14.809868
v -0.056580 0.946411 15.103834
v 0.242004 0.946411 -9.854027
v 0.242004 0.376587 -9.854027
v -0.056610 0.371918 15.103834
v -1.301575 0.946411 15.700581
v -1.301575 0.946411 -9.580469
v -1.301575 0.376587 15.700581
v -1.301575 0.376587 -9.580469
v -0.649841 -0.067749 -9.717249
v -0.904785 -0.067749 15.900822
v -0.904816 -0.742828 15.900822
v -0.690704 -0.742828 -9.717249
v -3.406769 -1.425812 13.547757
v 1.234039 -1.425812 12.251680
v -3.406769 1.315887 13.547757
v 1.234039 1.315887 12.251680
v -3.368256 1.315887 -9.670202
v -0.806915 1.315887 -12.566351
v -3.368256 -1.425812 -9.670202
v -0.806915 -1.425812 -12.566351
v -3.812714 1.315887 -3.798052
v 2.347198 1.315887 -4.143030
v 2.347198 -1.425812 -4.143030
v -3.812714 -1.425812 -3.798052
v 4.561981 1.315887 -8.827455
v 4.561981 -1.425812 -8.827455
v 3.598358 -1.425812 -11.937651
v 3.598358 1.315887 -11.937651
v -2.191864 1.315887 -3.798052
v 1.132355 1.315887 -4.143030
v 1.132355 1.315887 -9.304474
v -2.169647 1.315887 -9.273631
v -2.191864 1.315887 13.141929
v 0.489227 1.315887 12.389384
v -2.191864 -0.179108 -3.798052
v 1.132355 -0.179108 -4.143030
v 1.132355 -0.179108 -9.304474
v -2.169647 -0.179108 -9.273631
v -2.191864 -0.179108 13.141929
v 0.489227 -0.179108 12.389384
vt 0.134996 0.353188
vt 0.134996 0.353188
vt 0.134996 0.353188
vt 0.134996 0.353188
vt 0.134996 0.353188
vt 0.134996 0.353188
vt 0.134996 0.353188
vt 0.134996 0.353188
vt 0.134996 0.353188
vt 0.134996 0.353188
vt 0.134996 0.353188
vt 0.134996 0.353188
vt 0.134996 0.353188
vt 0.134996 0.353188
vt 0.134996 0.353188
vt 0.134996 0.353188
vt 0.134996 0.353188
vt 0.134996 0.353188
vt 0.134996 0.353188
vt 0.134996 0.353188
vt 0.134996 0.353188
vt 0.134996 0.353188
vt 0.134996 0.353188
vt 0.134996 0.353188
vt 0.134996 0.353188
vt 0.134996 0.353188
vt 0.134996 0.353188
vt 0.134996 0.353188
vt 0.112002 0.203970
vt 0.112002 0.203970
vt 0.112002 0.203970
vt 0.112002 0.203970
vt 0.112002 0.203970
vt 0.112002 0.203970
vt 0.112002 0.203970
vt 0.112002 0.203970
vt 0.112002 0.203970
vt 0.112002 0.203970
vt 0.112002 0.203970
vt 0.112002 0.203970
vt 0.112002 0.203970
vt 0.112002 0.203970
vt 0.112002 0.203970
vt 0.112002 0.203970
vt 0.112002 0.203970
vt 0.112002 0.203970
vt 0.112002 0.203970
vt 0.112002 0.203970
vt 0.112002 0.203970
vt 0.112002 0.203970
vt 0.112002 0.203970
vt 0.112002 0.203970
vt 0.112002 0.203970
vt 0.112002 0.203970
vt 0.112002 0.203970
vt 0.112002 0.203970
vn 0.000000 1.000000 0.000000
vn 0.000000 1.000000 0.000000
vn 0.000000 1.000000 0.000000
vn 0.000000 1.000000 0.000000
vn 0.999327 0.000000 0.036677
vn 0.999327 0.000000 0.036677
vn 0.999327 0.000000 0.036677
vn 0.999327 0.000000 0.036677
vn 0.000000 -1.000000 0.000000
vn 0.000000 -1.000000 0.000000
vn -0.000000 -1.000000 0.000000
vn -0.000000 -1.000000 0.000000
vn -0.999929 -0.000000 -0.011964
vn -0.999929 -0.000000 -0.011964
vn -0.999929 -0.000000 -0.011964
vn -0.999928 -0.000000 -0.011964
vn 1.000000 0.000000 0.000000
vn 1.000000 0.000000 0.000000
vn 1.000000 0.000000 0.000000
vn 1.000000 0.000000 0.000000
vn 0.279098 -0.045666 0.959176
vn 0.279098 -0.045666 0.959176
vn 0.686566 -0.029183 0.726482
vn 0.686566 -0.029183 0.726482
vn 0.719793 0.000000 0.694189
vn 0.719793 0.000000 0.694189
vn 0.719793 0.000000 0.694189
vn 0.719793 0.000000 0.694189
vn -0.999916 -0.000000 0.012976
vn -0.999916 -0.000000 0.012976
vn -0.999916 -0.000000 0.012976
vn -0.999916 -0.000000 0.012976
vn -0.999786 -0.000000 -0.020672
vn -0.999786 -0.000000 -0.020672
vn -0.999786 -0.000000 -0.020672
vn -0.999786 -0.000000 -0.020672
vn 1.000000 0.000000 -0.000000
vn 1.000000 0.000000 -0.000000
vn 1.000000 0.000000 -0.000000
vn 1.000000 0.000000 -0.000000
vn -0.400574 -0.000000 0.916265
vn -0.400573 -0.000000 0.916265
vn -0.400573 -0.000000 0.916265
vn -0.400573 -0.000000 0.916265
vn -0.000000 1.000000 0.000000
vn -0.000000 1.000000 0.000000
vn -0.000000 1.000000 0.000000
vn -0.000000 1.000000 0.000000
vn 0.000000 0.000000 -1.000000
vn 0.000000 0.000000 -1.000000
vn 0.000000 0.000000 -1.000000
vn 0.000000 0.000000 -1.000000
vn -0.240306 -0.970697 0.000169
vn -0.240306 -0.970697 0.000169
vn -0.240306 -0.970697 0.000169
vn -0.240306 -0.970697 0.000169
vn 0.689312 0.031440 0.723782
vn 0.689312 0.031440 0.723782
vn 0.689312 0.031440 0.723782
vn 0.689312 0.031440 0.723782
vn -0.000000 1.000000 0.000000
vn -0.000000 1.000000 0.000000
vn -0.000000 1.000000 0.000000
vn -0.000000 1.000000 0.000000
vn -0.265100 0.097894 0.959239
vn -0.265100 0.097894 0.959239
vn -0.265100 0.097894 0.959239
vn -0.265100 0.097894 0.959239
vn 0.135947 -0.990707 0.004255
vn 0.135947 -0.990707 0.004255
vn 0.135947 -0.990707 0.004255
vn 0.135947 -0.990707 0.004255
vn 0.000000 -0.000001 -1.000000
vn 0.000000 -0.000001 -1.000000
vn 0.000000 -0.000001 -1.000000
vn 0.000000 -0.000001 -1.000000
vn -0.000000 1.000000 0.000000
vn 0.000000 1.000000 0.000000
vn 0.000000 1.000000 0.000000
vn -0.000000 1.000000 0.000000
vn -0.317232 -0.051826 0.946931
vn 0.279098 -0.045666 0.959176
vn 0.279098 -0.045666 0.959176
vn -0.317232 -0.051826 0.946931
vn 0.000000 -1.000000 0.000000
vn 0.000000 -1.000000 0.000000
vn 0.000000 -1.000000 0.000000
vn 0.000000 -1.000000 0.000000
vn -0.749078 -0.000000 -0.662481
vn -0.749078 -0.000000 -0.662481
vn -0.749078 -0.000000 -0.662481
vn -0.749078 -0.000000 -0.662481
vn 0.000000 -1.000000 0.000000
vn 0.000000 -1.000000 0.000000
vn 0.000000 -1.000000 0.000000
vn 0.000000 -1.000000 0.000000
vn 0.955204 0.000000 -0.295948
vn 0.955204 0.000000 -0.295948
vn 0.955204 0.000000 -0.295948
vn 0.955204 0.000000 -0.295948
vn -0.997148 -0.000000 -0.075473
vn -0.999999 0.000000 -0.001659
vn -0.999999 0.000000 -0.001659
vn -0.997148 -0.000000 -0.075473
vn 0.997703 0.000000 0.067741
vn 0.997703 0.000000 0.067741
vn 0.997703 0.000000 0.067741
vn 0.997703 0.000000 0.067741
vn 0.000000 -1.000000 0.000000
vn 0.000000 -1.000000 0.000000
vn 0.000000 -1.000000 0.000000
vn 0.000000 -1.000000 0.000000
vn -0.999999 0.000000 -0.001659
vn -0.999999 0.000000 -0.001659
vn -0.999726 0.000000 0.023397
vn -0.999726 0.000000 0.023397
vn 0.904050 0.000000 0.427427
vn 0.904050 0.000000 0.427427
vn 0.904050 0.000000 0.427427
vn 0.904050 0.000000 0.427427
vn 0.000000 -1.000000 0.000000
vn 0.000000 -1.000000 0.000000
vn 0.000000 -1.000000 0.000000
vn 0.000000 -1.000000 0.000000
vn 0.141285 0.000000 -0.989969
vn 0.141285 0.000000 -0.989969
vn 0.141285 0.000000 -0.989969
vn 0.141285 0.000000 -0.989969
vn -0.000000 1.000000 0.000000
vn -0.000000 1.000000 0.000000
vn -0.000000 1.000000 0.000000
vn -0.000000 1.000000 0.000000
vn -0.000000 1.000000 0.000000
vn -0.000000 1.000000 0.000000
vn -0.000000 1.000000 0.000000
vn -0.000000 1.000000 0.000000
vn -0.000000 1.000000 0.000000
vn -0.000000 1.000000 0.000000
vn -0.000000 1.000000 0.000000
vn -0.000000 1.000000 0.000000
vn -0.000000 1.000000 0.000000
vn -0.000000 1.000000 0.000000
vn -0.000000 1.000000 0.000000
vn -0.000000 1.000000 0.000000
vn -0.000000 1.000000 0.000000
vn -0.000000 1.000000 0.000000
vn -0.000000 1.000000 0.000000
vn -0.000000 1.000000 0.000000
vn -1.000000 -0.000000 0.000000
vn -1.000000 -0.000000 0.000000
vn -1.000000 -0.000000 0.000000
vn -1.000000 -0.000000 0.000000
vn 0.009340 0.000000 0.999956
vn 0.009340 0.000000 0.999956
vn 0.009340 0.000000 0.999956
vn 0.009340 0.000000 0.999956
vn 0.999992 0.000000 0.004063
vn 0.999992 0.000000 0.004063
vn 0.999992 0.000000 0.004063
vn 0.999992 0.000000 0.004063
vn -0.999244 -0.000000 -0.038870
vn -0.999244 -0.000000 -0.038870
vn -0.999244 -0.000000 -0.038870
vn -0.999244 -0.000000 -0.038870
vn 1.000000 0.000000 0.000000
vn 1.000000 0.000000 0.000000
vn 1.000000 0.000000 0.000000
vn 1.000000 0.000000 0.000000
vn 0.316839 0.000000 0.948479
vn 0.316839 0.000000 0.948479
vn 0.316839 0.000000 0.948479
vn 0.316839 0.000000 0.948479
vn 0.269070 0.052687 0.961678
vn 0.269070 0.052687 0.961678
vn 0.269070 0.052687 0.961678
vn 0.269070 0.052687 0.961678
vn 0.181803 0.000000 0.983335
vn 0.181803 0.000000 0.983335
vn 0.181803 0.000000 0.983335
vn 0.181803 0.000000 0.983335
vn -0.000000 1.000000 0.000000
vn -0.000000 1.000000 0.000000
vn -0.000000 1.000000 0.000000
vn -0.000000 1.000000 0.000000
s off
f 25/1/1 26/2/2 12/3/3 10/4/4
f 2/5/5 7/6/6 6/7/7 4/8/8
f 27/9/9 28/10/10 7/6/11 2/5/12
f 17/11/13 18/12/14 19/13/15 20/14/16
f 22/15/17 21/16/18 23/17/19 24/18/20
f 26/2/21 27/9/22 2/5/23 12/3/24
f 2/5/25 4/8/26 16/19/27 12/3/28
f 3/20/29 5/21/30 8/22/31 1/23/32
f 16/19/33 14/24/34 10/4/35 12/3/36
f 13/25/37 15/26/38 11/27/39 9/28/40
f 15/26/41 3/20/42 1/23/43 11/27/44
f 4/8/45 6/7/46 18/12/47 17/11/48
f 6/7/49 14/24/50 19/13/51 18/12/52
f 14/24/53 16/19/54 20/14/55 19/13/56
f 16/19/57 4/8/58 17/11/59 20/14/60
f 5/21/61 3/20/62 21/16/63 22/15/64
f 3/20/65 15/26/66 23/17/67 21/16/68
f 15/26/69 13/25/70 24/18/71 23/17/72
f 13/25/73 5/21/74 22/15/75 24/18/76
f 11/27/77 26/2/78 25/1/79 9/28/80
f 1/23/81 27/9/82 26/2/83 11/27/84
f 8/22/85 28/10/86 27/9/87 1/23/88
f 33/29/89 34/30/90 36/31/91 35/32/92
f 35/32/93 36/31/94 39/33/95 40/34/96
f 41/35/97 42/36/98 43/37/99 44/38/100
f 35/32/101 40/34/102 37/39/103 33/29/104
f 30/40/105 39/33/106 38/41/107 32/42/108
f 40/34/109 39/33/110 30/40/111 29/43/112
f 37/39/113 40/34/114 29/43/115 31/44/116
f 38/41/117 39/33/118 42/36/119 41/35/120
f 39/33/121 36/31/122 43/37/123 42/36/124
f 36/31/125 34/30/126 44/38/127 43/37/128
f 34/30/129 47/45/130 41/35/131 44/38/132
f 34/30/133 33/29/134 48/47/135 47/45/136
f 33/29/137 37/39/138 45/48/139 48/47/140
f 32/42/141 38/41/142 46/46/143 50/49/144
f 37/39/145 31/44/146 49/50/147 45/48/148
f 46/46/149 47/45/150 53/51/151 52/52/152
f 47/45/153 48/47/154 54/53/155 53/51/156
f 48/47/157 45/48/158 51/54/159 54/53/160
f 50/49/161 46/46/162 52/52/163 56/55/164
f 45/48/165 49/50/166 55/56/167 51/54/168
f 31/44/169 29/43/170 55/56/171 49/50/172
f 29/43/173 30/40/174 56/55/175 55/56/176
f 30/40/177 32/42/178 50/49/179 56/55/180
f 41/35/181 47/45/182 46/46/183 38/41/184
v -2.059326 -0.067749 18.230600
v 0.127441 0.087036 19.338036
v 0.598694 0.087036 -4.108127
v -2.059326 -0.067749 -3.971347
v -2.059296 0.331879 18.230600
v 0.127441 0.177124 19.338036
v 0.598694 0.177124 -4.108127
v -2.059296 0.331879 -3.971347
v -1.279053 0.285461 -0.617241
v 0.116089 0.285461 -0.617241
v -1.279053 1.425842 -0.617241
v 0.116089 1.425842 -0.617241
v -1.279053 1.425842 -5.357041
v 0.116089 1.425842 -5.357041
v -1.279053 0.285461 -5.357041
v 0.116089 0.285461 -5.357041
v -0.965973 0.331879 18.784317
v -0.730316 0.331879 -4.039737
v -0.730286 -0.067749 -4.039737
v -0.965942 -0.067749 18.784317
v -0.419281 0.331879 19.061176
v -0.065826 0.331879 -4.073932
v -0.065796 -0.067749 -4.073932
v -0.419250 -0.067749 19.061176
vt 0.122962 0.377780
vt 0.090424 0.373865
vt 0.090424 0.373865
vt 0.122962 0.377780
vt 0.122962 0.377780
vt 0.090424 0.373865
vt 0.090424 0.373865
vt 0.122962 0.377780
vt 0.081626 0.278888
vt 0.081626 0.278888
vt 0.081626 0.278888
vt 0.081626 0.278888
vt 0.081626 0.278888
vt 0.081626 0.278888
vt 0.081626 0.278888
vt 0.081626 0.278888
vt 0.122962 0.377780
vt 0.122962 0.377780
vt 0.122962 0.377780
vt 0.122962 0.377780
vt 0.090424 0.373865
vt 0.090424 0.373865
vt 0.090424 0.373865
vt 0.090424 0.373865
vt 0.124329 0.330392
vt 0.124329 0.330392
vt 0.124329 0.330392
vt 0.124329 0.330392
vt 0.124329 0.330392
vt 0.124329 0.330392
vt 0.124329 0.330392
vt 0.124329 0.330392
vn -0.000000 1.000000 0.000000
vn -0.000000 1.000000 0.000000
vn -0.000000 1.000000 0.000000
vn -0.000000 1.000000 0.000000
vn -0.451803 -0.000000 0.892118
vn -0.451800 -0.000000 0.892119
vn -0.451800 -0.000000 0.892119
vn -0.451803 -0.000000 0.892118
vn 0.999798 0.000000 0.020097
vn 0.999798 0.000000 0.020097
vn 0.999798 0.000000 0.020097
vn 0.999798 0.000000 0.020097
vn -0.051392 -0.000000 -0.998679
vn -0.051391 -0.000000 -0.998679
vn -0.051391 -0.000000 -0.998679
vn -0.051392 -0.000000 -0.998679
vn -1.000000 -0.000000 0.000000
vn -1.000000 -0.000000 0.000000
vn -1.000000 -0.000000 0.000000
vn -1.000000 -0.000000 0.000000
vn 0.000000 0.000000 1.000000
vn 0.000000 0.000000 1.000000
vn 0.000000 0.000000 1.000000
vn 0.000000 0.000000 1.000000
vn -0.000000 1.000000 0.000000
vn -0.000000 1.000000 0.000000
vn -0.000000 1.000000 0.000000
vn -0.000000 1.000000 0.000000
vn 0.000000 0.000000 -1.000000
vn 0.000000 0.000000 -1.000000
vn 0.000000 0.000000 -1.000000
vn 0.000000 0.000000 -1.000000
vn 0.000000 -1.000000 0.000000
vn 0.000000 -1.000000 0.000000
vn 0.000000 -1.000000 0.000000
vn 0.000000 -1.000000 0.000000
vn 1.000000 0.000000 0.000000
vn 1.000000 0.000000 0.000000
vn 1.000000 0.000000 0.000000
vn 1.000000 0.000000 0.000000
vn -1.000000 -0.000000 0.000000
vn -1.000000 -0.000000 0.000000
vn -1.000000 -0.000000 0.000000
vn -1.000000 -0.000000 0.000000
vn 0.000000 -1.000000 0.000000
vn -0.000000 -1.000000 0.000000
vn -0.000000 -1.000000 0.000000
vn 0.000000 -1.000000 0.000000
vn -0.000000 1.000000 0.000000
vn 0.162307 0.986736 0.002874
vn 0.132396 0.991194 0.002344
vn -0.000000 1.000000 0.000000
vn -0.051392 -0.000000 -0.998679
vn -0.051392 -0.000000 -0.998679
vn -0.051392 -0.000000 -0.998679
vn -0.051392 -0.000000 -0.998679
vn 0.162338 -0.986731 0.002874
vn 0.000000 -1.000000 0.000000
vn 0.000000 -1.000000 0.000000
vn 0.132422 -0.991191 0.002345
vn -0.451800 -0.000000 0.892119
vn -0.451800 -0.000000 0.892119
vn -0.451794 -0.000000 0.892122
vn -0.451794 -0.000000 0.892122
vn 0.162307 0.986736 0.002874
vn 0.246757 0.969068 0.004369
vn 0.246757 0.969068 0.004369
vn 0.132396 0.991194 0.002344
vn -0.051390 -0.000000 -0.998679
vn -0.051392 -0.000000 -0.998679
vn -0.051392 -0.000000 -0.998679
vn -0.051390 -0.000000 -0.998679
vn 0.246803 -0.969056 0.004370
vn 0.162338 -0.986731 0.002874
vn 0.132422 -0.991191 0.002345
vn 0.246803 -0.969056 0.004370
vn -0.451794 -0.000000 0.892122
vn -0.451794 -0.000000 0.892122
vn -0.451794 -0.000000 0.892122
vn -0.451794 -0.000000 0.892122
s off
f 61/57/185 73/73/186 74/74/187 64/60/188
f 57/61/189 76/76/190 73/73/191 61/57/192
f 58/58/193 59/59/194 63/62/195 62/63/196
f 75/75/197 60/64/198 64/60/199 74/74/200
f 60/64/201 57/61/202 61/57/203 64/60/204
f 65/65/205 66/66/206 68/67/207 67/68/208
f 67/68/209 68/67/210 70/69/211 69/70/212
f 69/70/213 70/69/214 72/71/215 71/72/216
f 71/72/217 72/71/218 66/66/219 65/65/220
f 66/66/221 72/71/222 70/69/223 68/67/224
f 71/72/225 65/65/226 67/68/227 69/70/228
f 76/76/229 57/61/230 60/64/231 75/75/232
f 73/81/233 77/82/234 78/83/235 74/84/236
f 79/85/237 75/86/238 74/84/239 78/83/240
f 80/87/241 76/88/242 75/86/243 79/85/244
f 73/81/245 76/88/246 80/87/247 77/82/248
f 77/77/249 62/63/250 63/62/251 78/78/252
f 59/59/253 79/79/254 78/78/255 63/62/256
f 58/58/257 80/80/258 79/79/259 59/59/260
f 77/77/261 80/80/262 58/58/263 62/63/264
