# This file uses centimeters as units for non-parametric coordinates.

v -5.757871 -5.602651 6.185788
v 5.757869 -5.602651 6.185788
v -6.258162 -2.715562 5.006247
v 6.258160 -2.715562 5.006247
v -6.258162 -2.715562 -2.703488
v 6.258160 -2.715562 -2.703488
v -5.757871 -5.602651 -3.883029
v 5.757869 -5.602651 -3.883029
v 6.258160 -4.435680 6.185788
v 6.258160 -4.435680 -3.883029
v -6.258162 -4.435680 -3.883029
v -6.258162 -4.435680 6.185788
v -5.033787 -3.157079 8.841540
v 5.033786 -3.157079 8.841540
v -4.320682 -3.157079 -7.093610
v 4.320735 -3.157079 -7.093610
v -5.033787 -3.157079 -6.280109
v 5.033786 -3.157079 -6.280109
v -3.906785 -3.157079 -3.753073
v 3.906785 -3.157079 -3.753073
v -3.906785 -3.157079 8.841540
v 3.906785 -3.157079 8.841540
v -3.906785 -1.471785 -3.753073
v -3.906785 -1.471785 8.841540
v 3.906785 -1.471785 8.841540
v 3.906785 -1.471785 -3.753073
v -3.596953 -0.521913 -3.031289
v -3.596953 -0.521913 8.241838
v 3.597006 -0.521913 8.241838
v 3.597006 -0.521913 -3.031289
v -4.077333 -11.666408 8.170193
v 4.077336 -11.666408 8.170193
v 5.403375 -3.546341 9.580716
v 3.617925 -3.546341 9.580717
v -3.617925 -3.546341 9.580717
v -5.403376 -3.546341 9.580716
v -4.598607 -3.546341 -7.706823
v 4.598670 -3.546341 -7.706814
v 3.470113 -11.666408 -6.296290
v -3.470064 -11.666408 -6.296299
v 5.681310 -3.546341 -6.523724
v 4.287063 -11.666408 -5.306260
v -4.287053 -11.666408 -5.306268
v -5.681301 -3.546341 -6.523734
v 3.617925 -1.471785 9.509678
v -3.617925 -1.471785 9.509678
v 3.331051 -0.521913 8.853899
v -3.331001 -0.521913 8.853899
v 5.403375 -4.488070 9.580716
v 5.681310 -4.488070 -6.523725
v 4.598670 -4.488070 -7.706814
v -4.598607 -4.488070 -7.706823
v -5.681301 -4.488070 -6.523735
v -5.403376 -4.488070 9.580716
v 5.194089 -4.764337 9.245924
v 5.461259 -4.764337 -6.234751
v 4.420553 -4.764337 -7.372020
v -4.420492 -4.764337 -7.372031
v -5.461250 -4.764337 -6.234760
v -5.194089 -4.764337 9.245924
v 4.364368 -11.219283 8.757936
v 4.588860 -11.219283 -5.813556
v 3.714398 -11.219283 -6.884032
v -3.714347 -11.219283 -6.884042
v -4.588850 -11.219283 -5.813564
v -4.364366 -11.219283 8.757936
v -1.697249 -3.235668 9.570932
v 1.697249 -3.235668 9.570932
v 1.697249 -1.782458 9.519464
v -1.697249 -1.782458 9.519464
v -1.629822 -3.141170 9.183412
v 1.629822 -3.141170 9.183412
v 1.629822 -1.876956 9.133987
v -1.629822 -1.876956 9.133987
v -0.895684 -2.753665 -3.615103
v -0.515524 -2.753665 -3.615103
v -0.895684 -1.622199 -3.615103
v -0.515524 -1.622199 -3.615103
v -0.895684 -1.622199 -4.890495
v -0.515524 -1.622199 -4.890495
v -0.895684 -2.753665 -4.890495
v -0.515524 -2.753665 -4.890495
v 0.515524 -2.753665 -3.615103
v 0.895683 -2.753665 -3.615103
v 0.515524 -1.622199 -3.615103
v 0.895683 -1.622199 -3.615103
v 0.515524 -1.622199 -4.890495
v 0.895683 -1.622199 -4.890495
v 0.515524 -2.753665 -4.890495
v 0.895683 -2.753665 -4.890495
vt 0.079587 0.253401
vt 0.079700 0.253213
vt 0.078775 0.253340
vt 0.078968 0.253164
vt 0.078970 0.253257
vt 0.078777 0.253443
vt 0.079585 0.253507
vt 0.079698 0.253309
vt 0.079586 0.253431
vt 0.078775 0.253369
vt 0.078969 0.253191
vt 0.079700 0.253241
vt 0.132972 0.183197
vt 0.132427 0.183021
vt 0.132424 0.182978
vt 0.132493 0.182999
vt 0.132889 0.183123
vt 0.132973 0.183150
vt 0.133372 0.182773
vt 0.133284 0.182818
vt 0.132928 0.182734
vt 0.132988 0.182687
vt 0.133397 0.182782
vt 0.132991 0.182691
vt 0.132990 0.182727
vt 0.133394 0.182821
vt 0.132917 0.182697
vt 0.132916 0.182734
vt 0.133420 0.182853
vt 0.133424 0.182814
vt 0.080162 0.253156
vt 0.080871 0.253023
vt 0.081118 0.253156
vt 0.080342 0.253327
vt 0.133389 0.182794
vt 0.132978 0.183104
vt 0.132915 0.183086
vt 0.132520 0.182965
vt 0.132468 0.182949
vt 0.132938 0.182691
vt 0.080170 0.253289
vt 0.080891 0.253139
vt 0.080891 0.253058
vt 0.080160 0.253200
vt 0.081624 0.253109
vt 0.080625 0.253104
vt 0.080626 0.252771
vt 0.081625 0.252772
vt 0.081156 0.253295
vt 0.080364 0.253491
vt 0.080356 0.253392
vt 0.081161 0.253206
vt 0.132893 0.183004
vt 0.132490 0.182887
vt 0.132528 0.182819
vt 0.132901 0.182921
vt 0.081473 0.254631
vt 0.081171 0.254625
vt 0.080554 0.254631
vt 0.080785 0.254640
vt 0.132517 0.182886
vt 0.132917 0.183001
vt 0.132552 0.182832
vt 0.132921 0.182934
vt 0.132450 0.183029
vt 0.132918 0.182751
vt 0.132989 0.182744
vt 0.133377 0.182836
vt 0.133402 0.182867
vt 0.132971 0.183197
vt 0.080544 0.254591
vt 0.081170 0.254590
vt 0.081165 0.254496
vt 0.080519 0.254483
vt 0.081236 0.254495
vt 0.081236 0.254590
vt 0.081519 0.254484
vt 0.081493 0.254591
vt 0.081484 0.254591
vt 0.081513 0.254481
vt 0.080783 0.254465
vt 0.080785 0.254592
vt 0.081483 0.254630
vt 0.081237 0.254625
vt 0.132493 0.182999
vt 0.132889 0.183123
vt 0.132490 0.182887
vt 0.132893 0.183004
vt 0.132493 0.182999
vt 0.132889 0.183123
vt 0.132490 0.182887
vt 0.132893 0.183004
vt 0.101789 0.328296
vt 0.101808 0.328276
vt 0.102788 0.328280
vt 0.102787 0.328301
vt 0.102785 0.328599
vt 0.102784 0.328625
vt 0.101807 0.328593
vt 0.101788 0.328619
vt 0.101789 0.328296
vt 0.101808 0.328276
vt 0.102788 0.328280
vt 0.102787 0.328301
vt 0.102785 0.328599
vt 0.102784 0.328625
vt 0.101807 0.328593
vt 0.101788 0.328619
vn 0.000000 0.565539 0.824722
vn 0.000000 0.565539 0.824722
vn 0.000000 0.565539 0.824722
vn 0.000000 0.565539 0.824722
vn 0.000000 1.000000 0.000000
vn 0.000000 1.000000 0.000000
vn 0.000000 1.000000 0.000000
vn 0.000000 1.000000 0.000000
vn 0.000000 0.565538 -0.824722
vn 0.000000 0.565538 -0.824722
vn 0.000000 0.565538 -0.824722
vn 0.000000 0.565538 -0.824722
vn 0.000000 -1.000000 0.000000
vn 0.000000 -1.000000 0.000000
vn 0.000000 -1.000000 0.000000
vn 0.000000 -1.000000 0.000000
vn 1.000000 0.000001 -0.000000
vn 1.000000 0.000001 -0.000000
vn 1.000000 0.000001 -0.000000
vn 1.000000 0.000001 -0.000000
vn -1.000000 0.000000 0.000000
vn -1.000000 0.000000 0.000000
vn -1.000000 0.000000 0.000000
vn -1.000000 0.000000 0.000000
vn 0.919099 -0.394026 0.000000
vn 0.919099 -0.394026 0.000000
vn 0.919099 -0.394026 0.000000
vn 0.919099 -0.394026 0.000000
vn 0.000000 0.000000 -1.000000
vn 0.000000 0.000000 -1.000000
vn 0.000000 0.000000 -1.000000
vn 0.000000 0.000000 -1.000000
vn -0.919099 -0.394026 0.000000
vn -0.919099 -0.394026 0.000000
vn -0.919099 -0.394026 0.000000
vn -0.919099 -0.394026 0.000000
vn 0.000000 0.000000 1.000000
vn 0.000000 0.000000 1.000000
vn 0.000000 0.000000 1.000000
vn 0.000000 0.000000 1.000000
vn 0.000000 -0.000001 1.000000
vn 0.000000 -0.000001 1.000000
vn 0.000000 -0.000001 1.000000
vn 0.000000 -0.000001 1.000000
vn 0.000000 -0.000001 1.000000
vn 0.000000 -0.000001 1.000000
vn 0.000000 1.000000 -0.000000
vn 0.000000 1.000000 -0.000000
vn 0.000000 1.000000 -0.000000
vn 0.000000 1.000000 -0.000000
vn 0.000001 0.000000 -1.000000
vn 0.000001 0.000000 -1.000000
vn 0.000001 0.000000 -1.000000
vn 0.000001 0.000000 -1.000000
vn 0.737731 0.000000 -0.675095
vn 0.737731 0.000000 -0.675095
vn 0.737731 0.000000 -0.675095
vn 0.737731 0.000000 -0.675095
vn -0.737714 0.000000 -0.675113
vn -0.737714 0.000000 -0.675113
vn -0.737714 0.000000 -0.675113
vn -0.737714 0.000000 -0.675113
vn 0.000000 1.000000 0.000000
vn 0.000000 1.000000 0.000000
vn 0.000000 1.000000 0.000000
vn 0.000000 1.000000 0.000000
vn 0.999851 0.000000 0.017256
vn 0.999851 0.000000 0.017256
vn 0.999851 0.000000 0.017256
vn 0.999851 0.000000 0.017256
vn -0.999851 -0.000001 0.017255
vn -0.999851 -0.000001 0.017255
vn -0.999851 -0.000001 0.017255
vn -0.999851 -0.000001 0.017255
vn 0.000000 1.000000 0.000000
vn 0.000000 1.000000 0.000000
vn 0.000000 1.000000 0.000000
vn 0.000000 1.000000 0.000000
vn 0.000000 1.000000 0.000000
vn 0.000000 1.000000 0.000000
vn 0.000000 1.000000 0.000000
vn 0.000000 1.000000 0.000000
vn 0.000000 1.000000 0.000000
vn 0.000000 1.000000 0.000000
vn 0.000000 1.000000 0.000000
vn 0.000000 1.000000 0.000000
vn 0.000000 1.000000 0.000000
vn 0.000000 1.000000 0.000000
vn -1.000000 0.000000 0.000000
vn -1.000000 0.000000 0.000000
vn -1.000000 0.000000 0.000000
vn -1.000000 0.000000 0.000000
vn 0.000000 0.039065 0.999237
vn 0.000000 0.039065 0.999237
vn 0.000000 0.039065 0.999237
vn 0.000000 0.039065 0.999237
vn 1.000000 0.000000 0.000000
vn 1.000000 0.000000 0.000000
vn 1.000000 0.000000 0.000000
vn 1.000000 0.000000 0.000000
vn 0.000000 0.000000 -1.000000
vn 0.000000 0.000000 -1.000000
vn 0.000000 0.000000 -1.000000
vn 0.000000 0.000000 -1.000000
vn -0.950703 0.310103 0.000000
vn -0.950703 0.310103 0.000000
vn -0.950703 0.310103 0.000000
vn -0.950703 0.310103 0.000000
vn 0.000000 0.568141 0.822931
vn 0.000000 0.568141 0.822931
vn 0.000000 0.568141 0.822931
vn 0.000000 0.568141 0.822931
vn 0.950719 0.310055 0.000000
vn 0.950719 0.310055 0.000000
vn 0.950719 0.310055 0.000000
vn 0.950719 0.310055 0.000000
vn 0.000000 0.605020 -0.796210
vn 0.000000 0.605020 -0.796210
vn 0.000000 0.605020 -0.796210
vn 0.000000 0.605020 -0.796210
vn 0.000000 0.884809 0.465955
vn 0.000000 0.884809 0.465955
vn 0.000000 0.884809 0.465955
vn 0.000000 0.884809 0.465955
vn 0.000000 0.884809 0.465955
vn 0.000000 0.884809 0.465955
vn 0.000000 0.884809 0.465955
vn 0.000000 0.884809 0.465955
vn 0.000000 0.844261 -0.535933
vn 0.000000 0.844261 -0.535933
vn 0.000000 0.844261 -0.535933
vn 0.000000 0.844261 -0.535933
vn 0.000000 -1.000000 -0.000000
vn 0.000000 -1.000000 -0.000000
vn 0.000000 -1.000000 -0.000000
vn 0.000000 -1.000000 -0.000000
vn 0.390583 0.850909 -0.351282
vn 0.390583 0.850909 -0.351282
vn 0.390583 0.850909 -0.351282
vn 0.390583 0.850909 -0.351282
vn -0.390573 0.850909 -0.351294
vn -0.390573 0.850909 -0.351294
vn -0.390573 0.850909 -0.351294
vn -0.390573 0.850909 -0.351294
vn 0.606143 0.795337 0.005395
vn 0.606143 0.795337 0.005395
vn 0.606143 0.795337 0.005395
vn 0.606143 0.795337 0.005395
vn -0.606147 0.795334 0.005395
vn -0.606147 0.795334 0.005395
vn -0.606147 0.795334 0.005395
vn -0.606147 0.795334 0.005395
vn 0.924360 0.007207 0.381455
vn 0.924360 0.007207 0.381455
vn 0.924360 0.007207 0.381455
vn 0.924360 0.007207 0.381455
vn -0.924359 0.007207 0.381455
vn -0.924359 0.007207 0.381455
vn -0.924359 0.007207 0.381455
vn -0.924359 0.007207 0.381455
vn 0.803636 0.482566 0.348281
vn 0.803636 0.482566 0.348281
vn 0.803636 0.482566 0.348281
vn 0.803636 0.482566 0.348281
vn 0.000000 1.000000 -0.000000
vn 0.000000 1.000000 -0.000000
vn 0.000000 1.000000 -0.000000
vn 0.000000 1.000000 -0.000000
vn -0.803620 0.482598 0.348273
vn -0.803620 0.482598 0.348273
vn -0.803620 0.482598 0.348273
vn -0.803620 0.482598 0.348273
vn 0.789017 -0.614220 0.013617
vn 0.789017 -0.614220 0.013617
vn 0.789017 -0.614220 0.013617
vn 0.789017 -0.614220 0.013617
vn 0.451164 -0.791202 -0.412857
vn 0.451164 -0.791202 -0.412857
vn 0.451164 -0.791202 -0.412857
vn 0.451164 -0.791202 -0.412857
vn 0.000001 -0.771302 -0.636469
vn 0.000001 -0.771302 -0.636469
vn 0.000001 -0.771302 -0.636469
vn 0.000001 -0.771302 -0.636469
vn -0.451152 -0.791203 -0.412868
vn -0.451152 -0.791203 -0.412868
vn -0.451152 -0.791203 -0.412868
vn -0.451152 -0.791203 -0.412868
vn -0.789017 -0.614221 0.013617
vn -0.789017 -0.614221 0.013617
vn -0.789017 -0.614221 0.013617
vn -0.789017 -0.614221 0.013617
vn 0.000000 -0.771303 0.636469
vn 0.000000 -0.771303 0.636469
vn 0.000000 -0.771303 0.636469
vn 0.000000 -0.771303 0.636469
vn 0.991279 -0.130780 0.016218
vn 0.991279 -0.130780 0.016218
vn 0.991279 -0.130780 0.016218
vn 0.991279 -0.130780 0.016218
vn 0.748243 -0.137203 -0.649083
vn 0.748243 -0.137203 -0.649083
vn 0.748243 -0.137203 -0.649083
vn 0.748243 -0.137203 -0.649083
vn 0.000001 -0.075384 -0.997155
vn 0.000001 -0.075384 -0.997155
vn 0.000001 -0.075384 -0.997155
vn 0.000001 -0.075384 -0.997155
vn -0.748227 -0.137202 -0.649101
vn -0.748227 -0.137202 -0.649101
vn -0.748227 -0.137202 -0.649101
vn -0.748227 -0.137202 -0.649101
vn -0.991279 -0.130780 0.016217
vn -0.991279 -0.130780 0.016217
vn -0.991279 -0.130780 0.016217
vn -0.991279 -0.130780 0.016217
vn 0.000000 -0.075384 0.997155
vn 0.000000 -0.075384 0.997155
vn 0.000000 -0.075384 0.997155
vn 0.000000 -0.075384 0.997155
vn 0.000000 -1.000000 -0.000000
vn 0.000000 -1.000000 -0.000000
vn 0.000000 -1.000000 -0.000000
vn 0.000000 -1.000000 -0.000000
vn 0.834595 -0.550712 0.012921
vn 0.834595 -0.550712 0.012921
vn 0.834595 -0.550712 0.012921
vn 0.834595 -0.550712 0.012921
vn 0.483098 -0.780612 -0.396562
vn 0.483098 -0.780612 -0.396562
vn 0.483098 -0.780612 -0.396562
vn 0.483098 -0.780612 -0.396562
vn 0.000001 -0.795876 -0.605460
vn 0.000001 -0.795876 -0.605460
vn 0.000001 -0.795876 -0.605460
vn 0.000001 -0.795876 -0.605460
vn -0.483086 -0.780615 -0.396570
vn -0.483086 -0.780615 -0.396570
vn -0.483086 -0.780615 -0.396570
vn -0.483086 -0.780615 -0.396570
vn -0.834595 -0.550713 0.012920
vn -0.834595 -0.550713 0.012920
vn -0.834595 -0.550713 0.012920
vn -0.834595 -0.550713 0.012920
vn 0.000000 -0.795875 0.605461
vn 0.000000 -0.795875 0.605461
vn 0.000000 -0.795875 0.605461
vn 0.000000 -0.795875 0.605461
vn 0.000000 0.031480 0.999504
vn 0.000000 0.031480 0.999504
vn 0.000000 0.031480 0.999504
vn 0.000000 0.031480 0.999504
vn 0.000000 0.034706 0.999398
vn 0.000000 0.034706 0.999398
vn 0.000000 0.034706 0.999398
vn 0.000000 0.034706 0.999398
vn 0.000000 0.031483 0.999504
vn 0.000000 0.031483 0.999504
vn 0.000000 0.031483 0.999504
vn 0.000000 0.031483 0.999504
vn -0.000000 0.034706 0.999398
vn -0.000000 0.034706 0.999398
vn -0.000000 0.034706 0.999398
vn -0.000000 0.034706 0.999398
vn 0.000000 0.971531 0.236912
vn 0.000000 0.971531 0.236912
vn 0.000000 0.971531 0.236912
vn 0.000000 0.971531 0.236912
vn -0.985101 0.006381 0.171857
vn -0.985101 0.006381 0.171857
vn -0.985101 0.006381 0.171857
vn -0.985101 0.006381 0.171857
vn 0.000000 -0.971241 0.238097
vn 0.000000 -0.971241 0.238097
vn 0.000000 -0.971241 0.238097
vn 0.000000 -0.971241 0.238097
vn 0.985101 0.006381 0.171857
vn 0.985101 0.006381 0.171857
vn 0.985101 0.006381 0.171857
vn 0.985101 0.006381 0.171857
vn 0.000000 1.000000 0.000000
vn 0.000000 1.000000 0.000000
vn 0.000000 1.000000 0.000000
vn 0.000000 1.000000 0.000000
vn 0.000000 0.000000 -1.000000
vn 0.000000 0.000000 -1.000000
vn 0.000000 0.000000 -1.000000
vn 0.000000 0.000000 -1.000000
vn 0.000000 -1.000000 0.000000
vn 0.000000 -1.000000 0.000000
vn 0.000000 -1.000000 0.000000
vn 0.000000 -1.000000 0.000000
vn 1.000000 0.000000 0.000000
vn 1.000000 0.000000 0.000000
vn 1.000000 0.000000 0.000000
vn 1.000000 0.000000 0.000000
vn -1.000000 0.000000 0.000000
vn -1.000000 0.000000 0.000000
vn -1.000000 0.000000 0.000000
vn -1.000000 0.000000 0.000000
vn 0.000000 1.000000 0.000000
vn 0.000000 1.000000 0.000000
vn 0.000000 1.000000 0.000000
vn 0.000000 1.000000 0.000000
vn 0.000000 0.000000 -1.000000
vn 0.000000 0.000000 -1.000000
vn 0.000000 0.000000 -1.000000
vn 0.000000 0.000000 -1.000000
vn 0.000000 -1.000000 0.000000
vn 0.000000 -1.000000 0.000000
vn 0.000000 -1.000000 0.000000
vn 0.000000 -1.000000 0.000000
vn 1.000000 0.000000 0.000000
vn 1.000000 0.000000 0.000000
vn 1.000000 0.000000 0.000000
vn 1.000000 0.000000 0.000000
vn -1.000000 0.000000 0.000000
vn -1.000000 0.000000 0.000000
vn -1.000000 0.000000 0.000000
vn -1.000000 0.000000 0.000000
s off
f 4/1/1 3/2/2 12/12/3 9/9/4
f 3/2/5 4/1/6 6/3/7 5/4/8
f 5/4/9 6/3/10 10/10/11 11/11/12
f 7/5/13 8/6/14 2/7/15 1/8/16
f 6/3/17 4/1/18 9/9/19 10/10/20
f 11/11/21 12/12/22 3/2/23 5/4/24
f 10/10/25 9/9/26 2/7/27 8/6/28
f 11/11/29 10/10/30 8/6/31 7/5/32
f 1/8/33 12/12/34 11/11/35 7/5/36
f 9/9/37 12/12/38 1/8/39 2/7/40
f 54/13/41 49/14/42 33/15/43 34/16/44 35/17/45 36/18/46
f 15/19/47 19/20/48 20/21/49 16/22/50
f 37/23/51 38/24/52 51/25/53 52/26/54
f 41/27/55 50/28/56 51/25/57 38/24/58
f 52/26/59 53/29/60 44/30/61 37/23/62
f 27/31/63 28/32/64 29/33/65 30/34/66
f 49/14/67 50/28/68 41/27/69 33/15/70
f 44/30/71 53/29/72 54/13/73 36/18/74
f 17/35/75 19/20/76 15/19/77
f 13/36/78 21/37/79 19/20/80 17/35/81
f 20/21/82 22/38/83 14/39/84 18/40/85
f 16/22/86 20/21/87 18/40/88
f 19/41/89 21/42/90 24/43/91 23/44/92
f 71/45/93 72/46/94 73/47/95 74/48/96
f 22/49/97 20/50/98 26/51/99 25/52/100
f 20/50/101 19/41/102 23/44/103 26/51/104
f 23/44/105 24/43/106 28/32/107 27/31/108
f 46/53/109 45/54/110 47/55/111 48/56/112
f 25/52/113 26/51/114 30/34/115 29/33/116
f 26/51/117 23/44/118 27/31/119 30/34/120
f 14/39/121 22/38/122 34/16/123 33/15/124
f 21/37/125 13/36/126 36/18/127 35/17/128
f 15/19/129 16/22/130 38/24/131 37/23/132
f 43/57/133 42/58/134 32/59/135 31/60/136
f 16/22/137 18/40/138 41/27/139 38/24/140
f 17/35/141 15/19/142 37/23/143 44/30/144
f 18/40/145 14/39/146 33/15/147 41/27/148
f 13/36/149 17/35/150 44/30/151 36/18/152
f 22/38/153 25/61/154 45/54/155 34/16/156
f 24/62/157 21/37/158 35/17/159 46/53/160
f 25/61/161 29/63/162 47/55/163 45/54/164
f 29/63/165 28/64/166 48/56/167 47/55/168
f 28/64/169 24/62/170 46/53/171 48/56/172
f 55/65/173 56/66/174 50/28/175 49/14/176
f 51/25/177 50/28/178 56/66/179 57/67/180
f 52/26/181 51/25/182 57/67/183 58/68/184
f 58/68/185 59/69/186 53/29/187 52/26/188
f 54/13/189 53/29/190 59/69/191 60/70/192
f 60/70/193 55/65/194 49/14/195 54/13/196
f 61/71/197 62/72/198 56/73/199 55/74/200
f 57/75/201 56/73/202 62/72/203 63/76/204
f 58/77/205 57/75/206 63/76/207 64/78/208
f 64/78/209 65/79/210 59/80/211 58/77/212
f 60/81/213 59/80/214 65/79/215 66/82/216
f 66/82/217 61/71/218 55/74/219 60/81/220
f 40/83/221 39/84/222 42/58/223 43/57/224
f 32/59/225 42/58/226 62/72/227 61/71/228
f 63/76/229 62/72/230 42/58/231 39/84/232
f 64/78/233 63/76/234 39/84/235 40/83/236
f 40/83/237 43/57/238 65/79/239 64/78/240
f 66/82/241 65/79/242 43/57/243 31/60/244
f 31/60/245 32/59/246 61/71/247 66/82/248
f 35/17/249 34/16/250 68/85/251 67/86/252
f 34/16/253 45/54/254 69/87/255 68/85/256
f 45/54/257 46/53/258 70/88/259 69/87/260
f 46/53/261 35/17/262 67/86/263 70/88/264
f 67/86/265 68/85/266 72/89/267 71/90/268
f 68/85/269 69/87/270 73/91/271 72/89/272
f 69/87/273 70/88/274 74/92/275 73/91/276
f 70/88/277 67/86/278 71/90/279 74/92/280
f 77/93/281 78/94/282 80/95/283 79/96/284
f 79/96/285 80/95/286 82/97/287 81/98/288
f 81/98/289 82/97/290 76/99/291 75/100/292
f 76/99/293 82/97/294 80/95/295 78/94/296
f 81/98/297 75/100/298 77/93/299 79/96/300
f 85/101/301 86/102/302 88/103/303 87/104/304
f 87/104/305 88/103/306 90/105/307 89/106/308
f 89/106/309 90/105/310 84/107/311 83/108/312
f 84/107/313 90/105/314 88/103/315 86/102/316
f 89/106/317 83/108/318 85/101/319 87/104/320
