# This file uses centimeters as units for non-parametric coordinates.

v 4.797173 216.088135 -229.324005
v -6.746529 216.088135 -229.324005
v -12.518379 216.088135 -219.326691
v -6.746529 216.088135 -209.329620
v 4.797173 216.088135 -209.329620
v 10.569023 216.088104 -219.326691
v 4.797173 220.655640 -229.324005
v -6.746529 220.655640 -229.324005
v -12.518379 220.655640 -219.326691
v -6.746529 220.655640 -209.329620
v 4.797173 220.655640 -209.329620
v 10.569023 220.655609 -219.326691
v -0.974678 216.088135 -219.326691
v 3.612114 220.655640 -227.271027
v -5.561348 220.655640 -227.271271
v -10.148018 220.655640 -219.326691
v -5.561348 220.655640 -211.382355
v 3.612114 220.655640 -211.382355
v 8.198784 220.655609 -219.326691
v 3.201347 238.472931 -226.559845
v -5.150703 238.472931 -226.559845
v -9.326729 238.472931 -219.326691
v -5.150703 238.472931 -212.093781
v 3.201347 238.472931 -212.093781
v 7.377373 238.472870 -219.326691
v 2.198051 240.365540 -224.822052
v -4.147408 240.365540 -224.822052
v -0.974678 240.365540 -219.326691
v -7.320137 240.365540 -219.326691
v -4.147408 240.365540 -213.831573
v 2.198051 240.365540 -213.831573
v 5.370781 240.365540 -219.326691
vt 0.091529 0.226533
vt 0.091529 0.226533
vt 0.091529 0.226533
vt 0.091529 0.226533
vt 0.091529 0.226533
vt 0.091529 0.226533
vt 0.091529 0.226533
vt 0.091529 0.226533
vt 0.091529 0.226533
vt 0.091529 0.226533
vt 0.091529 0.226533
vt 0.091529 0.226533
vt 0.091529 0.226533
vt 0.091529 0.226533
vt 0.091529 0.226533
vt 0.091529 0.226533
vt 0.091529 0.226533
vt 0.091529 0.226533
vt 0.091529 0.226533
vt 0.091529 0.226533
vt 0.091529 0.226533
vt 0.021972 0.123550
vt 0.021968 0.123550
vt 0.021968 0.123550
vt 0.021968 0.123550
vt 0.021968 0.123550
vt 0.021972 0.123550
vt 0.021972 0.123550
vt 0.091529 0.226533
vt 0.091529 0.226533
vt 0.091529 0.226533
vt 0.091529 0.226533
vt 0.091529 0.226533
vt 0.091529 0.226533
vt 0.091529 0.226533
vt 0.091529 0.226533
vt 0.091529 0.226533
vt 0.091529 0.226533
vt 0.091529 0.226533
vt 0.091529 0.226533
vt 0.021972 0.123550
vt 0.021968 0.123550
vt 0.021968 0.123550
vt 0.021972 0.123550
vt 0.021968 0.123550
vt 0.021968 0.123550
vt 0.021968 0.123550
vt 0.021968 0.123550
vt 0.021972 0.123550
vt 0.021972 0.123550
vt 0.021972 0.123550
vt 0.021972 0.123550
vn 0.000000 0.000000 -1.000000
vn 0.000000 0.000000 -1.000000
vn 0.000000 0.000000 -1.000000
vn 0.000000 0.000000 -1.000000
vn -0.866028 0.000000 -0.499995
vn -0.866028 0.000000 -0.499995
vn -0.866028 0.000000 -0.499995
vn -0.866028 0.000000 -0.499995
vn -0.866023 0.000000 0.500004
vn -0.866023 0.000000 0.500004
vn -0.866023 0.000000 0.500004
vn -0.866023 0.000000 0.500004
vn 0.000000 0.000000 1.000000
vn 0.000000 0.000000 1.000000
vn 0.000000 0.000000 1.000000
vn 0.000000 0.000000 1.000000
vn 0.866024 0.000000 0.500002
vn 0.866024 0.000000 0.500002
vn 0.866024 0.000000 0.500002
vn 0.866024 0.000000 0.500002
vn 0.866029 0.000000 -0.499993
vn 0.866029 0.000000 -0.499993
vn 0.866029 0.000000 -0.499993
vn 0.866029 0.000000 -0.499993
vn 0.000000 -1.000000 0.000000
vn 0.000000 -1.000000 0.000000
vn 0.000000 -1.000000 0.000000
vn 0.000000 -1.000000 0.000000
vn 0.000000 -1.000000 0.000000
vn 0.000000 -1.000000 0.000000
vn 0.000000 -1.000000 0.000000
vn 0.000000 -1.000000 0.000000
vn 0.000000 -1.000000 0.000000
vn 0.000000 -1.000000 0.000000
vn 0.000000 -1.000000 0.000000
vn 0.000000 -1.000000 0.000000
vn -0.000003 -1.000000 0.000000
vn -0.000003 -1.000000 0.000000
vn -0.000003 -1.000000 0.000000
vn -0.000003 -1.000000 0.000000
vn -0.000003 -1.000000 0.000000
vn -0.000003 -1.000000 0.000000
vn 0.000000 1.000000 0.000000
vn 0.000000 1.000000 0.000000
vn 0.000000 1.000000 0.000000
vn 0.000000 1.000000 0.000000
vn 0.000000 1.000000 0.000000
vn 0.000000 1.000000 0.000000
vn 0.000000 1.000000 0.000000
vn 0.000000 1.000000 0.000000
vn 0.000000 1.000000 0.000000
vn 0.000000 1.000000 0.000000
vn 0.000000 1.000000 0.000000
vn 0.000000 1.000000 0.000000
vn 0.000000 1.000000 0.000000
vn 0.000000 1.000000 0.000000
vn 0.000000 1.000000 0.000000
vn 0.000000 1.000000 0.000000
vn 0.000000 1.000000 0.000000
vn 0.000000 1.000000 0.000000
vn 0.000000 1.000000 0.000000
vn 0.000000 1.000000 0.000000
vn 0.000000 1.000000 0.000000
vn 0.000000 1.000000 0.000000
vn 0.000000 1.000000 0.000003
vn 0.000000 1.000000 0.000003
vn 0.000000 1.000000 0.000003
vn 0.000000 1.000000 0.000003
vn 0.000000 1.000000 0.000000
vn 0.000000 1.000000 0.000000
vn 0.000000 1.000000 0.000000
vn 0.000000 1.000000 0.000000
vn 0.000000 1.000000 0.000003
vn 0.000000 1.000000 0.000003
vn 0.000000 1.000000 0.000003
vn 0.000000 1.000000 0.000003
vn 0.000001 1.000000 -0.000003
vn 0.000001 1.000000 -0.000003
vn 0.000001 1.000000 -0.000003
vn 0.000001 1.000000 -0.000003
vn 0.000001 1.000000 0.000003
vn 0.000001 1.000000 0.000003
vn 0.000001 1.000000 0.000003
vn 0.000001 1.000000 0.000003
vn 0.000014 0.039890 -0.999204
vn 0.000014 0.039890 -0.999204
vn 0.000014 0.039890 -0.999204
vn 0.000014 0.039890 -0.999204
vn -0.865340 0.039890 -0.499595
vn -0.865340 0.039890 -0.499595
vn -0.865340 0.039890 -0.499595
vn -0.865340 0.039890 -0.499595
vn -0.865333 0.039890 0.499607
vn -0.865333 0.039890 0.499607
vn -0.865333 0.039890 0.499607
vn -0.865333 0.039890 0.499607
vn 0.000000 0.039897 0.999204
vn 0.000000 0.039897 0.999204
vn 0.000000 0.039897 0.999204
vn 0.000000 0.039897 0.999204
vn 0.865333 0.039896 0.499606
vn 0.865333 0.039896 0.499606
vn 0.865333 0.039896 0.499607
vn 0.865333 0.039896 0.499607
vn 0.865337 0.039893 -0.499601
vn 0.865337 0.039893 -0.499601
vn 0.865337 0.039893 -0.499601
vn 0.865337 0.039893 -0.499601
vn 0.000000 0.676339 -0.736591
vn 0.000000 0.676339 -0.736591
vn 0.000000 0.676339 -0.736591
vn 0.000000 0.676339 -0.736591
vn -0.637913 0.676333 -0.368294
vn -0.637913 0.676333 -0.368294
vn -0.637913 0.676333 -0.368294
vn -0.637913 0.676333 -0.368294
vn -0.637907 0.676334 0.368304
vn -0.637907 0.676333 0.368304
vn -0.637907 0.676333 0.368304
vn -0.637907 0.676333 0.368304
vn 0.000000 0.676339 0.736591
vn 0.000000 0.676339 0.736591
vn 0.000000 0.676339 0.736591
vn 0.000000 0.676339 0.736591
vn 0.637913 0.676327 0.368305
vn 0.637913 0.676327 0.368305
vn 0.637913 0.676327 0.368305
vn 0.637913 0.676327 0.368305
vn 0.637920 0.676327 -0.368293
vn 0.637920 0.676327 -0.368293
vn 0.637920 0.676327 -0.368293
vn 0.637920 0.676327 -0.368293
s off
f 1/1/1 2/2/2 8/3/3 7/4/4
f 2/2/5 3/5/6 9/6/7 8/3/8
f 3/5/9 4/7/10 10/8/11 9/6/12
f 4/7/13 5/9/14 11/10/15 10/8/16
f 5/9/17 6/11/18 12/12/19 11/10/20
f 6/11/21 1/13/22 7/14/23 12/12/24
f 2/15/25 1/16/26 13/17/27
f 3/18/28 2/15/29 13/17/30
f 4/19/31 3/18/32 13/17/33
f 5/20/34 4/19/35 13/17/36
f 6/21/37 5/20/38 13/17/39
f 1/16/40 6/21/41 13/17/42
f 26/22/43 27/23/44 28/24/45
f 27/23/46 29/25/47 28/24/48
f 29/25/49 30/26/50 28/24/51
f 30/26/52 31/27/53 28/24/54
f 31/27/55 32/28/56 28/24/57
f 32/28/58 26/22/59 28/24/60
f 7/29/61 8/30/62 15/31/63 14/32/64
f 8/30/65 9/33/66 16/34/67 15/31/68
f 9/33/69 10/35/70 17/36/71 16/34/72
f 10/35/73 11/37/74 18/38/75 17/36/76
f 11/37/77 12/39/78 19/40/79 18/38/80
f 12/39/81 7/29/82 14/32/83 19/40/84
f 14/41/85 15/42/86 21/43/87 20/44/88
f 15/42/89 16/45/90 22/46/91 21/43/92
f 16/45/93 17/47/94 23/48/95 22/46/96
f 17/47/97 18/49/98 24/50/99 23/48/100
f 18/49/101 19/51/102 25/52/103 24/50/104
f 19/51/105 14/41/106 20/44/107 25/52/108
f 20/44/109 21/43/110 27/23/111 26/22/112
f 21/43/113 22/46/114 29/25/115 27/23/116
f 22/46/117 23/48/118 30/26/119 29/25/120
f 23/48/121 24/50/122 31/27/123 30/26/124
f 24/50/125 25/52/126 32/28/127 31/27/128
f 25/52/129 20/44/130 26/22/131 32/28/132
